<svg id="Layer_1" data-name="Layer 1" xmlns="http://www.w3.org/2000/svg" viewBox="0 0 1080 1080"><defs><style>.cls-1{fill:#0c1523;}.cls-10,.cls-100,.cls-101,.cls-102,.cls-103,.cls-104,.cls-105,.cls-106,.cls-107,.cls-108,.cls-109,.cls-11,.cls-110,.cls-111,.cls-112,.cls-113,.cls-12,.cls-13,.cls-14,.cls-15,.cls-16,.cls-17,.cls-18,.cls-19,.cls-2,.cls-20,.cls-21,.cls-22,.cls-23,.cls-24,.cls-25,.cls-26,.cls-27,.cls-28,.cls-29,.cls-3,.cls-30,.cls-31,.cls-32,.cls-33,.cls-34,.cls-35,.cls-36,.cls-37,.cls-38,.cls-39,.cls-4,.cls-40,.cls-41,.cls-42,.cls-43,.cls-44,.cls-45,.cls-46,.cls-47,.cls-48,.cls-49,.cls-5,.cls-50,.cls-51,.cls-52,.cls-53,.cls-54,.cls-55,.cls-56,.cls-57,.cls-58,.cls-59,.cls-6,.cls-60,.cls-61,.cls-62,.cls-63,.cls-64,.cls-65,.cls-66,.cls-67,.cls-68,.cls-69,.cls-7,.cls-70,.cls-71,.cls-72,.cls-73,.cls-74,.cls-75,.cls-76,.cls-77,.cls-78,.cls-79,.cls-8,.cls-80,.cls-81,.cls-82,.cls-83,.cls-84,.cls-85,.cls-86,.cls-87,.cls-88,.cls-89,.cls-9,.cls-90,.cls-91,.cls-92,.cls-93,.cls-94,.cls-95,.cls-96,.cls-97,.cls-98,.cls-99{fill:none;stroke-width:1.22px;}.cls-2{stroke:#101420;}.cls-3{stroke:#0c152a;}.cls-4{stroke:#0a0b12;}.cls-5{stroke:#64656e;}.cls-6{stroke:#cdcbd1;}.cls-7{stroke:#2f2e7b;}.cls-8{stroke:#eac79a;}.cls-9{stroke:#e5e4e4;}.cls-10{stroke:#8c76b6;}.cls-11{stroke:#363090;}.cls-12{stroke:#383494;}.cls-13{stroke:#453f72;}.cls-14{stroke:#29367d;}.cls-15{stroke:#875fa8;}.cls-16{stroke:#b37cb5;}.cls-17{stroke:#dbacba;}.cls-18{stroke:#975ca5;}.cls-19{stroke:#23245d;}.cls-20{stroke:#7155a3;}.cls-21{stroke:#413795;}.cls-22{stroke:#5d4ea0;}.cls-23{stroke:#8866ac;}.cls-24{stroke:#cd9bc7;}.cls-25{stroke:#6769b0;}.cls-26{stroke:#a77ab6;}.cls-27{stroke:#e6b9c7;}.cls-28{stroke:#ba83b9;}.cls-29{stroke:#e5a9a4;}.cls-30{stroke:#3e51a3;}.cls-31{stroke:#6951a2;}.cls-32{stroke:#b377b3;}.cls-33{stroke:#825ca6;}.cls-34{stroke:#de879a;}.cls-35{stroke:#675aa7;}.cls-36{stroke:#131844;}.cls-37{stroke:#f1a27d;}.cls-38{stroke:#1f1b52;}.cls-39{stroke:#6278ba;}.cls-40{stroke:#9f9ece;}.cls-41{stroke:#6962ab;}.cls-42{stroke:#b171af;}.cls-43{stroke:#d18e8b;}.cls-44{stroke:#bb91ab;}.cls-45{stroke:#9084be;}.cls-46{stroke:#fac15f;}.cls-47{stroke:#f3a770;}.cls-48{stroke:#d09595;}.cls-49{stroke:#ebbd89;}.cls-50{stroke:#ac82ba;}.cls-51{stroke:#6c65ad;}.cls-52{stroke:#ef9f7a;}.cls-53{stroke:#4861ad;}.cls-54{stroke:#9889c1;}.cls-55{stroke:#e59b84;}.cls-56{stroke:#d99297;}.cls-57{stroke:#ba96bf;}.cls-58{stroke:#edc1db;}.cls-59{stroke:#4f50a2;}.cls-60{stroke:#b8abd4;}.cls-61{stroke:#fbebab;}.cls-62{stroke:#e3d3d0;}.cls-63{stroke:#5a61ac;}.cls-64{stroke:#f4a76e;}.cls-65{stroke:#bcabca;}.cls-66{stroke:#3f58a7;}.cls-67{stroke:#ae90b2;}.cls-68{stroke:#8e8ac3;}.cls-69{stroke:#2a3d98;}.cls-70{stroke:#abacd6;}.cls-71{stroke:#a592c5;}.cls-72{stroke:#dda28c;}.cls-73{stroke:#e1c8e1;}.cls-74{stroke:#e0c2d3;}.cls-75{stroke:#f2b691;}.cls-76{stroke:#d67ca0;}.cls-77{stroke:#8381bd;}.cls-78{stroke:#b089a9;}.cls-79{stroke:#d29796;}.cls-80{stroke:#e7aa7b;}.cls-81{stroke:#b1abc7;}.cls-82{stroke:#7468af;}.cls-83{stroke:#b6add5;}.cls-84{stroke:#d6878c;}.cls-85{stroke:#876baf;}.cls-86{stroke:#bca6d0;}.cls-87{stroke:#c5a1cb;}.cls-88{stroke:#7257a5;}.cls-89{stroke:#353c98;}.cls-90{stroke:#948cc3;}.cls-91{stroke:#a5789d;}.cls-92{stroke:#d79d9d;}.cls-93{stroke:#232761;}.cls-94{stroke:#bc83a2;}.cls-95{stroke:#9e68ac;}.cls-96{stroke:#ecc7df;}.cls-97{stroke:#5b76ba;}.cls-98{stroke:#c6a4c7;}.cls-99{stroke:#3755a5;}.cls-100{stroke:#f8e6d8;}.cls-101{stroke:#e7d2e7;}.cls-102{stroke:#a689bf;}.cls-103{stroke:#5a72b0;}.cls-104{stroke:#ad9fb1;}.cls-105{stroke:#777aba;}.cls-106{stroke:#9db8e0;}.cls-107{stroke:#8e91bf;}.cls-108{stroke:#4f70b7;}.cls-109{stroke:#3670b3;}.cls-110{stroke:#6a66ae;}.cls-111{stroke:#eac999;}.cls-112{stroke:#315796;}.cls-113{stroke:#dead89;}.cls-114{fill:#101420;}.cls-115{fill:#0c152a;}.cls-116{fill:#0a0b12;}.cls-117{fill:#cdcbd1;}.cls-118{fill:#2f2e7b;}.cls-119{fill:#eac79a;}.cls-120{fill:#e5e4e4;}.cls-121{fill:#8c76b6;}.cls-122{fill:#363090;}.cls-123{fill:#383494;}.cls-124{fill:#453f72;}.cls-125{fill:#29367d;}.cls-126{fill:#875fa8;}.cls-127{fill:#b37cb5;}.cls-128{fill:#dbacba;}.cls-129{fill:#975ca5;}.cls-130{fill:#23245d;}.cls-131{fill:#7155a3;}.cls-132{fill:#413795;}.cls-133{fill:#5d4ea0;}.cls-134{fill:#8866ac;}.cls-135{fill:#cd9bc7;}.cls-136{fill:#6769b0;}.cls-137{fill:#a77ab6;}.cls-138{fill:#e6b9c7;}.cls-139{fill:#ba83b9;}.cls-140{fill:#e5a9a4;}.cls-141{fill:#3e51a3;}.cls-142{fill:#6951a2;}.cls-143{fill:#b377b3;}.cls-144{fill:#825ca6;}.cls-145{fill:#de879a;}.cls-146{fill:#675aa7;}.cls-147{fill:#131844;}.cls-148{fill:#f1a27d;}.cls-149{fill:#1f1b52;}.cls-150{fill:#6278ba;}.cls-151{fill:#9f9ece;}.cls-152{fill:#6962ab;}.cls-153{fill:#b171af;}.cls-154{fill:#d18e8b;}.cls-155{fill:#bb91ab;}.cls-156{fill:#9084be;}.cls-157{fill:#fac15f;}.cls-158{fill:#f3a770;}.cls-159{fill:#d09595;}.cls-160{fill:#ebbd89;}.cls-161{fill:#ac82ba;}.cls-162{fill:#6c65ad;}.cls-163{fill:#ef9f7a;}.cls-164{fill:#4861ad;}.cls-165{fill:#9889c1;}.cls-166{fill:#e59b84;}.cls-167{fill:#d99297;}.cls-168{fill:#ba96bf;}.cls-169{fill:#edc1db;}.cls-170{fill:#4f50a2;}.cls-171{fill:#b8abd4;}.cls-172{fill:#fbebab;}.cls-173{fill:#e3d3d0;}.cls-174{fill:#5a61ac;}.cls-175{fill:#f4a76e;}.cls-176{fill:#bcabca;}.cls-177{fill:#3f58a7;}.cls-178{fill:#ae90b2;}.cls-179{fill:#8e8ac3;}.cls-180{fill:#2a3d98;}.cls-181{fill:#abacd6;}.cls-182{fill:#a592c5;}.cls-183{fill:#dda28c;}.cls-184{fill:#e1c8e1;}.cls-185{fill:#e0c2d3;}.cls-186{fill:#f2b691;}.cls-187{fill:#d67ca0;}.cls-188{fill:#8381bd;}.cls-189{fill:#b089a9;}.cls-190{fill:#d29796;}.cls-191{fill:#e7aa7b;}.cls-192{fill:#b1abc7;}.cls-193{fill:#7468af;}.cls-194{fill:#b6add5;}.cls-195{fill:#d6878c;}.cls-196{fill:#876baf;}.cls-197{fill:#bca6d0;}.cls-198{fill:#c5a1cb;}.cls-199{fill:#7257a5;}.cls-200{fill:#353c98;}.cls-201{fill:#948cc3;}.cls-202{fill:#a5789d;}.cls-203{fill:#d79d9d;}.cls-204{fill:#232761;}.cls-205{fill:#bc83a2;}.cls-206{fill:#9e68ac;}.cls-207{fill:#ecc7df;}.cls-208{fill:#5b76ba;}.cls-209{fill:#c6a4c7;}.cls-210{fill:#3755a5;}.cls-211{fill:#f8e6d8;}.cls-212{fill:#e7d2e7;}.cls-213{fill:#a689bf;}.cls-214{fill:#5a72b0;}.cls-215{fill:#ad9fb1;}.cls-216{fill:#777aba;}.cls-217{fill:#9db8e0;}.cls-218{fill:#8e91bf;}.cls-219{fill:#4f70b7;}.cls-220{fill:#3670b3;}.cls-221{fill:#6a66ae;}.cls-222{fill:#eac999;}.cls-223{fill:#315796;}.cls-224{fill:#dead89;}</style></defs><title>avatar-galaxy</title><rect class="cls-1" width="1080" height="1080"/><path class="cls-2" d="M31.6,972.19c-.94-25.22,12.69-51.79,8.16-81.62s2-63.25,0-93.86,1-62.88,0-93.86.49-62.68,0-93.86.37-62.6,0-93.86.53-62.56,0-93.86,1-62.52,0-93.86,2.13-62.4,0-93.86,4.7-62.19,0-93.86S52.9,90.52,56.09,70.32C150.68,38.24,255,58.11,358.07,54s214.21,2.57,318.31,0,211.51,4.49,314.23-4.08c-83.42-21.63-180.79,5-269.34-4.08s-179.52,8.24-269.34,0-178.25,13-269.34,0S19.11,66.28,31.6,164.18s-7.43,176,0,269.33-7.26,178.18,0,269.34S19.6,882.21,31.6,972.19Z"/><path class="cls-3" d="M31.6,972.19c10.69,80.11,97.37,65.42,163.24,65.29s159.31.29,228.53,0,156,.7,224.44,0,165.56,1.51,228.53,0,154,18.45,167.32-57.13c-13.14-3.83-.86-52.15-4.08-69.37s1.39-50.28,0-73.46.65-50.52,0-77.54.28-40.64,0-73.45.16-35.06,0-77.54.2-104.22,0-146.91,1-41.62,0-77.54,2.69-37.7,0-73.45,5.79-35.42,0-77.54,8.28-105.49,0-142.83c-8.49-21.34-28.08-35.38-49-40.81C887.89,58.48,780.48,51.42,676.38,54s-215.23-4.12-318.31,0-207.39-15.75-302,16.33c-3.19,20.2-21,37.7-16.33,69.37s-2.12,62.4,0,93.86-1,62.52,0,93.86-.53,62.56,0,93.86-.36,62.6,0,93.86-.49,62.68,0,93.86-1,62.89,0,93.86-2,63.26,0,93.86-4.53,64,0,93.86-9.1,56.4-8.16,81.62M525.39,168.26c-20.57,25.79-64.4,32.15-86.64,60.27s-49.05,46.52-73.54,73.38S316.94,354.75,305,388.62c-2.49,7.06-11.63,11.19-8.16,20.41a30.48,30.48,0,0,0,20.4-4.08c18.82-34.12,50.81-62.77,81.62-85.7,11.83-8.82,24.16-16.85,36.73-24.49,152-92.18,428.29-154,526.43,44.89-101.49-104-270-105.36-395.84-49-7.23,3.84-14.53,12.82-24.49,12.25,6.94,10.12,21.34,8.12,32.65,8.16,142-62,341.28,44.11,342.79,200S827.33,782,721.27,882.41c32.65-40.24,65.38-82.31,81.62-130.59-67.26,99-168.42,180.79-285.66,204,136.17-73.17,269.9-200.54,302-355,8.28-32,4.57-67-4.08-97.94,2.24,20.57-2.33,52.44,0,77.54-8.82-8.25-19,7.55-16.32,16.32-3.84-2.33-7.43-4.69-12.25-4.08,10.41,10.61-2.49,16.73-4.08,24.48-5.06,25.1-5.22,49.1-28.56,65.3,19.42,21.5-29.1,53.7-24.49,24.48.82-1.67-.28-6.16,0-8.16,1.51-11,6.41-21.51,8.16-32.65,6.25,7.19,4,14.74,12.25,4.08-.17-3.26-.94-9.14,0-12.24,6.24-20.81,29.09-34.89,16.32-61.21-10.16,2.77-8.12,16.32-16.32,20.4-3.51-12.73,17-26.4,4.08-36.72-18.41,73.13-65.18,130.46-118.35,183.64C512.08,908.57,217,950.52,105.06,776.31c123.93,91.41,324.75,63,424.41-49,4.08-7.84,13.95-16.08,0-12.25-113.12,60.28-289.38,76.68-370.42-45.82s-15.59-280.6,80.68-366.34c-30.08,45.95-53.42,94.51-57.14,151S191.94,574,230.54,614.09s91.54,78.31,139.77,56.11c-99-26.11-138.09-151.44-89.78-236.69,2.78-5.63,19.84-34.89,0-24.48-8.24,10.85-13.14,22.85-32.64,16.32C281.51,305.62,388.6,202.66,505,164.18c-2.12-1.6-3.87-14.45-8.16-16.33,12.65-33.83,50.07-.73,28.57,20.41m155.07-28.57c-3.1,29.22-45.17,25.34-69.66,36.44s-54.72,23-81.33,28.86c43.7-30.77,90.23-68,151-65.3m65.29,0c2.25,27.55-31-3.55,0,0m171.4,0c20.32,6.94,9.18,49.79-15,39.46s-9.18-47.7,15-39.46M766.16,156c-4.29-24,24,0,0,0m-555,40.81c-21.87-.65-29.95,19.8-36.73,36.73-5.63-19.67-26-31.22-36.73-44.89,18.45-.16,30.37-15.22,32.65-32.65,9.39,13.59,27.34,31.18,40.81,40.81M341.75,156c10.32,5,.9,26.37-10.94,19s-.57-24.61,10.94-19m632.53,73.46c4.08,4.08-6.57,12.37-10.93,6.77s8.16-9.54,10.93-6.77M480.5,233.55C474.29,243.79,463,251.22,451.93,254c.16-14.9,17.35-17.92,28.57-20.41m-224.45,49c3.14-30,30.16,1.76,0,0m481.54,0c-30,5.27-5.79-26,0,0m97.94,20.41c36.9-1.11.17,34.32,0,0M125.46,335.57c5.47,31.83-31.79,3.39,0,0M921.23,372.3c32.69-.49-4.85,34.16,0,0M953.88,409c4.94,4.94-4.33,17.42-10.94,10.85s6.37-15.42,10.94-10.85M219.32,470.24a20.38,20.38,0,0,1,0-8.16C221.4,456,228,450,231.56,445.76c13.51,9.91-4.69,47.87-12.24,24.48m755-8.16c2.82,10.77,4.25,23.51-12.24,20.4-1.51-8.65.49-22,12.24-20.4M231.56,543.7c-29.21-24.69,14.08-37.34,0,0m28.57,40.81c7.06,32.64-29.18-1.47,0,0m714.15,0c2.78,31.58-28.44-.53,0,0M958,629.4c6.37,28.44-21.51,4.85,0,0M121.38,690.61c1.22,33.67-33.79-.94,0,0m24.49,40.81c-32.94,2.24,2-33.1,0,0m808-8.16c13.1,1.83,13.34,32.11-4.2,28.44s-12.78-30.81,4.2-28.44m-269.34,49c-3.1-9.43,16.08-37.91,25.51-29.39s-16.29,31.84-25.51,29.39m-485.62-4.08c-29.51,16.52-14.78-30.61,0,0m69.37,12.24c11.51,5.92-1.47,25.1-13.18,17.18s3.06-22.4,13.18-17.18m130.59,4.08c-10,19.47-25-5.59,0,0m-61.21,4.08c4.65,16.41-14.86,11.63-24.49,12.24-1.51-14,15.1-12.69,24.49-12.24m497.86,28.57c-3.75-28.49,25.84-2.29,0,0m-195.88,8.16c-5.51,4.24-11.67,10.36-20.4,8.16-.21-9.06,9.34-16.28,16.32-20.4,5.31-2.41,9.88-5.55,16.32-4.09-4,5.43-4.28,14.57-12.24,16.33m-61.21,32.65c4.45,33.58-34.53,2.16,0,0m342.79,40.8c-12.12,8.08-18.73,22.12-28.56,32.65-13.8-8.24-22.45-23-32.65-32.65,12.16-28.19,47.62-30.44,61.21,0m-399.92,0c6.73-32.07,36,4.62,0,0m-16.33,0c1.51,11.72-20.56,22.94-24.48,8.17,7.91-3.72,15-9.51,24.48-8.17M154,906.9c18.48,7.34,5.63,45.54-15,35.38s-3.39-42.69,15-35.38m314.23,8.16c-8.62,35.5-41.34-5.43,0,0m269.33,20.4c26.81-14.85,4.94,30.49,0,0M264.21,951.79c2.08-25.63,28.61,3.5,0,0m81.62,0C360.89,921.14,375.13,968.19,345.83,951.79Z"/><path class="cls-4" d="M1043.66,980.35c.37-2,0-6.12,0-8.16,0-143,4-285.46,0-428.49s10.53-289.83,0-432.58c-.61-8.36-1.1-12.89-4.08-20.4,8.28,37.34-5.8,100.72,0,142.83s-2.7,41.79,0,77.54-1,37.54,0,73.45-.21,34.85,0,77.54-.17,104.43,0,146.91-.29,44.73,0,77.54-.65,46.44,0,73.45-1.39,54.36,0,77.54-3.23,56.24,0,73.46S1030.52,976.52,1043.66,980.35Z"/><path class="cls-5" d="M1043.66,972.19c20.61-48.44-2.41-116.47,4.08-171.4s-2.69-119.16,0-175.47-.49-114.64,0-171.4,1.22-119,0-175.48,5.75-114.51-4.08-167.32c10.53,142.75-4,289.54,0,432.58S1043.66,829.2,1043.66,972.19Z"/><path class="cls-6" d="M505,164.18c6.7,0,13.23,6.81,20.41,4.08,21.5-21.14-15.92-54.24-28.57-20.41C501.11,149.73,502.86,162.58,505,164.18Z"/><path class="cls-7" d="M680.46,139.69c-60.76-2.65-107.29,34.53-151,65.3,26.61-5.84,56.8-17.76,81.33-28.86S677.36,168.91,680.46,139.69Z"/><path class="cls-8" d="M917.15,139.69c-24.16-8.24-39.17,29.1-15,39.46S937.47,146.63,917.15,139.69Z"/><path class="cls-9" d="M211.16,196.82c-13.47-9.63-31.42-27.22-40.81-40.81-2.28,17.43-14.2,32.49-32.65,32.65,10.74,13.67,31.1,25.22,36.73,44.89C181.21,216.62,189.29,196.17,211.16,196.82Z"/><path class="cls-10" d="M341.75,156c-11.51-5.59-22.77,11.68-10.94,19S352.07,161,341.75,156Z"/><path class="cls-11" d="M280.53,409c6.57-8.69,19.23-13.22,24.49-20.41,11.92-33.87,35.75-59.86,60.19-86.71s51.3-45.26,73.54-73.38,66.07-34.48,86.64-60.27c-7.18,2.73-13.71-4.08-20.41-4.08C388.6,202.66,281.51,305.62,247.89,425.35,267.39,431.88,272.29,419.88,280.53,409Z"/><path class="cls-12" d="M435.61,294.76c-13.71,17.18-24.53,42.85-36.73,61.22-5.43,8.16-10.77,16.4-16.32,24.48C348.56,430,326,492.2,345.83,551.86c7.22,21.63,29.79,47,53.05,49-36.56-41.91-28.85-108.22,4.08-151C468.5,344,622.8,300.27,733.51,339.65c13.63,4.86,34.44,9.55,45.83,19.47s31.5,16.89,38.85,30.52,26.93,25.92,29.26,40.12,25.38,35.22,24.81,44.56c-.08,1.39-7.47,12-8.16,12.25-1.26,8.65,12.32,33.17,12.24,44.89,0,7.22-2.73,9.95-4.08,16.32-3.39,16.16-4.41,34.56-8.16,49-3,11.59-7.79,22.73-12.24,32.65-2,4.53,1.55,11.59,0,16.32-11.8,1.67-13.47-11.79-12.25-20.4a14.71,14.71,0,0,0,0-4.09c-.12-4.08.09-8.16,0-12.24-5.55,19.59-12.4-.08-20.4,12.24v-20.4c-32.08,154.5-165.81,281.87-302,355,117.24-23.26,218.4-105,285.66-204-16.24,48.28-49,90.35-81.62,130.59C827.33,782,918.66,666.9,917.15,511.05s-200.74-262-342.79-200c-5.88,2.57-14.61,9.75-20.41,12.24-11.18,10.16-53.29,35.14-73.45,36.73-6.41.49-4,.86-8.16,4.08-14.29,25-59.22,56.4-81.62,81.62,9.22-19.26,28.73-31.75,40.81-49-2.17,4.85-5.23-17.59,9.18-19.39s16.16-16.32,7.14-25.5C484.54,326,526,309,566.2,290.68c125.85-56.39,294.35-55.05,395.84,49-98.14-198.9-374.38-137.07-526.43-44.89m220.37-53c19.87-22.32,24.44,18.24,0,0m142.83-4.08c-7.47,7.39-23.67,5-32.65,0,9-8.4,23-1.67,32.65,0M602.92,258c-7.46,4.49-16.16,6.08-24.48,8.16-4.45-17.71,14.81-14.77,24.48-20.41,4,.37,8.21-.28,12.25,0,1.3,6.9-5.39,13.43-12.25,12.25m-69.37,12.24c.37,10.08-10.53,18.53-20.41,16.32-.36-10.08,10.53-18.52,20.41-16.32m-44.89,20.4c-1,22.82-22.94,1.27,0,0M823.29,686.53c-.81-13.88,12.45-22.61,12.24-36.73,14.21,7.22-1,31.1-12.24,36.73m-4.08,20.4C818.19,729.74,796.28,708.2,819.21,706.93Z"/><path class="cls-13" d="M974.28,229.47c-2.77-2.77-15.3,1.18-10.93,6.77S978.36,233.55,974.28,229.47Z"/><path class="cls-14" d="M480.5,233.55c-11.22,2.49-28.41,5.51-28.57,20.41C463,251.22,474.29,243.79,480.5,233.55Z"/><path class="cls-15" d="M798.81,237.63c-9.63-1.67-23.67-8.4-32.65,0C775.14,242.65,791.34,245,798.81,237.63Z"/><path class="cls-16" d="M602.92,258c1.27-2.13-5.67-8.12,0-12.25-9.67,5.64-28.93,2.7-24.48,20.41C586.76,264.12,595.46,262.53,602.92,258Z"/><path class="cls-17" d="M602.92,258c6.86,1.18,13.55-5.35,12.25-12.25-4-.28-8.21.37-12.25,0C597.25,249.92,604.19,255.91,602.92,258Z"/><path class="cls-18" d="M533.55,270.28c-9.88-2.2-20.77,6.24-20.41,16.32C523,288.81,533.92,280.36,533.55,270.28Z"/><path class="cls-19" d="M431.53,396.79c12-13.14,26.65-21.71,40.81-32.65,4.16-3.22,1.75-3.59,8.16-4.08A699.71,699.71,0,0,1,554,323.33c5.8-2.49,14.53-9.67,20.41-12.24-11.31,0-25.71,2-32.65-8.16,10,.57,17.26-8.41,24.49-12.25C526,309,484.54,326,447.85,351.9c9,9.18,7.22,23.67-7.14,25.5S429.36,401.64,431.53,396.79Z"/><path class="cls-20" d="M398.88,319.25c.57-.25,12-1.51,16.32-4.08-1.38,27.14-36.07,27.91-36.72,53.05,7.22-6.61,25.91-16.24,20.4-12.24,12.2-18.37,23-44,36.73-61.22C423,302.4,410.71,310.43,398.88,319.25Z"/><path class="cls-21" d="M529.47,715.09c.86-.44,0-4.08,0-4.08-4,1.92-7.27,5-12.24,4.08-.62-12.32,8.93-15,16.32-24.48-52.6,33.95-140.67,57.25-204,40.81-14-3.63-28.33-12.49-40.81-16.33-6.57-2-13.72-1.71-20.41-4.08-22.93-8.08-61.66-36.6-69.37-61.21-2.86-9.1-3.63-19.79,8.16-24.48,5.39,8.52,13.43,14.69,16.32,24.48,5.06-.86,2.37-8,8.16-8.16,9.23,33.14,51.22,31.87,81.91,44.6s82-5.67,101.73,8.45c29.83-7.63,57.71-14.81,85.7-28.57,1-1.06,3-3.1,4.08-4.08,3.23-2.81,6-8.73,8.16-12.24H496.82c-54.89,19.51-147.32,9.92-175.48-49-55.25-74.31-21.34-146.22,28.57-204,8.94-10.37,18.69-19.55,28.57-28.57.65-25.14,35.34-25.91,36.72-53.05-4.28,2.57-15.75,3.83-16.32,4.08-30.81,22.93-62.8,51.58-81.62,85.7-3.59,6.49-7.67,12.85-8.16,20.4-11.14-2-20.49,1.23-28.57,8.16-48.31,85.25-9.18,210.58,89.78,236.69-48.23,22.2-101.16-16-139.77-56.11S178.88,510.4,182.59,453.92s27.06-105,57.14-151C143.46,388.67,78,546.76,159.05,669.27s257.3,106.1,370.42,45.82m-363.2-212.2c5.47,32-22.12,7.92,0,0m0,61.21C202.43,581.24,149.38,599.24,166.27,564.1Z"/><path class="cls-22" d="M480.5,360.06c20.16-1.59,62.27-26.57,73.45-36.73A699.71,699.71,0,0,0,480.5,360.06Z"/><path class="cls-23" d="M403,449.84c12.24-15.84,24.24-24.08,40.81-32.65,17.06-8.81,33.14-23.14,49-32.65a87.54,87.54,0,0,1,16.32-8.16c9.27-3.71,15.43-11.59,28.57-8.16,3.8-1.8,3.51-6.08,12.24-8.16,4.08-1,22.53-9.14,28.57-8.16,3-.66,20.57.53,8.16,4.08.65,3.59-32.24,16-36.73,16.32a29.84,29.84,0,0,1-4.08,0c-1,1,0,4.08,0,4.08,6.69-.61,13.75.94,20.41,0,45.42-23,98.39-12.08,146.91-12.24,7.26,0,22.32-8.45,32.64-4.08,2.62-9.51-18.89-14.53-12.24-20.41C622.8,300.27,468.5,344,403,449.84M717.19,335.57c3.3,3.31-1.27,15.39-7,10.74S713.56,331.9,717.19,335.57Z"/><path class="cls-24" d="M717.19,335.57c-3.63-3.67-12.65,6.12-7,10.74S720.49,338.88,717.19,335.57Z"/><path class="cls-25" d="M713.11,364.14c37.3,12.77,60.07,44.68,93.86,61.21-13.55-16.28,24-23,16.32,0H811.05c9.83,17.1,20,36.4,28.56,53,2.94-16.36,23.84-2.53,32.65-4.08.57-9.34-22.48-30.32-24.81-44.56s-21.91-26.53-29.26-40.12-27.46-20.6-38.85-30.52-32.2-14.61-45.83-19.47c-6.65,5.88,14.86,10.9,12.24,20.41-10.32-4.37-25.38,4-32.64,4.08m69.37,20.4C755,385.93,778.73,358.34,782.48,384.54Z"/><path class="cls-26" d="M378.48,368.22c-9.88,9-19.63,18.2-28.57,28.57,2.53-1.8,28.24-13.14,32.65-16.33,5.55-8.08,10.89-16.32,16.32-24.48C404.39,352,385.7,361.61,378.48,368.22Z"/><path class="cls-27" d="M578.44,351.9c2.12.36,3.35,5.46,8.16,4.08C599,352.43,581.46,351.24,578.44,351.9Z"/><path class="cls-28" d="M549.87,360.06c-1.26,2,5.72,8.24,0,12.24,4.49-.33,37.38-12.73,36.73-16.32-4.81,1.38-6-3.72-8.16-4.08C572.4,350.92,554,359.08,549.87,360.06Z"/><path class="cls-29" d="M537.63,368.22c2.61.69,3.18,4.41,8.16,4.08a29.84,29.84,0,0,0,4.08,0c5.72-4-1.26-10.2,0-12.24C541.14,362.14,541.43,366.42,537.63,368.22Z"/><path class="cls-30" d="M566.2,376.38c-11.92,6-27.39,14.73-36.73,24.49,9.26,2.4,15.91-3.47,24.48-4.08,53.63-6.08,117.7,5.59,150,54.07s31.83,122.75-3.06,166.29c-1,1.23,0,4.08,0,4.08-18.78,47.75-57.22,96.48-98,130.59,13.84-9.87,26.53-23.58,36.73-36.73,8.45,6.7,22.94,1.8,28.57,12.25-10.49,11.26-22.73,24.12-32.65,36.73,53.17-53.18,99.94-110.51,118.35-183.64,22.56-89.78-31.14-190.79-126.51-200C704,369.36,800,418.9,815.13,502.89c8.65,30.93,12.36,66,4.08,97.94v20.4c8-12.32,14.85,7.35,20.4-12.24.09,4.08-.12,8.16,0,12.24,8.21-17.34,3.88-44.56,24.49-49v24.49c3.75-14.41,4.77-32.81,8.16-49-6.94,7.39-12.93-2.74-16.32-8.16-10.57-7.68-8.33-40.49-12.24-53.05,0-.05-3.68-7.35-4.09-8.17-8.56-16.65-18.73-35.95-28.56-53-2,0-4.08,0-4.08,0-33.79-16.53-56.56-48.44-93.86-61.21C664.59,364.3,611.62,353.41,566.2,376.38Z"/><path class="cls-31" d="M431.53,396.79c-12.08,17.22-31.59,29.71-40.81,49,22.4-25.22,67.33-56.6,81.62-81.62C458.18,375.08,443.53,383.65,431.53,396.79Z"/><path class="cls-32" d="M509.06,376.38c4.45-5,5.88,5.35-1,11.22s-16.89,5.15-23.46,9.19c-19.1,17.46-35.87,39.62-50,60.19s-33.91,61.17-15.31,78.56C442.71,480.65,484.21,421.6,554,421.27c17.06-3.55,37.43-4.08,57.14-4.08h8.16c-18.41-7.83-51.71-6-73.46-4.08-40.68,8.41-72.19,26-102,57.13,16.85-41.87,61-78.72,102-93.86,0,0-1-3.06,0-4.08-5,.33-5.55-3.39-8.16-4.08C524.49,364.79,518.33,372.67,509.06,376.38Z"/><path class="cls-33" d="M349.91,396.79c-49.91,57.82-83.82,129.73-28.57,204-7.1-14.85-14.77-36.56-8.16-49,2.29-4.33,3.92-6,8.16-8.16,6.94-3.51,20.2,3.87,24.49,8.16C326,492.2,348.56,430,382.56,380.46c-4.41,3.19-30.12,14.53-32.65,16.33m-32.65,97.94c-7.38-7.47-5-23.67,0-32.65C324.65,469.55,322.28,485.75,317.26,494.73Z"/><path class="cls-34" d="M492.74,384.54c18.85-3.3-3.59,8-8.16,12.25,6.57-4,16.53-3.27,23.46-9.19s5.47-16.2,1-11.22A87.54,87.54,0,0,0,492.74,384.54Z"/><path class="cls-35" d="M545.79,413.11c11.22-2.33,26.81-6.73,40.81-4.08-9.92-8.69-27.83-1.92-40.81-4.08.33-5.14,8.41-2.29,8.16-8.16-8.57.61-15.22,6.48-24.48,4.08,9.34-9.76,24.81-18.45,36.73-24.49-6.66.94-13.72-.61-20.41,0-41,15.14-85.17,52-102,93.86C473.6,439.1,505.11,421.52,545.79,413.11Z"/><path class="cls-36" d="M753.92,580.43c12.93,10.32-7.59,24-4.08,36.72,8.2-4.08,6.16-17.63,16.32-20.4,12.77,26.32-10.08,40.4-16.32,61.21,1.71-4,12.28-8.36,16.32-8.16,3.22,13.71-3.88,27-16.32,32.65V670.2c-8.29,10.66-6,3.11-12.25-4.08-1.75,11.14-6.65,21.63-8.16,32.65,1.39-.94,4.08,0,4.08,0,7.76-13.67,19.39-4.28,12.24,8.16-4.61,8-12.61,10.74-16.32,0-4.61,29.22,43.91-3,24.49-24.48,23.34-16.2,23.5-40.2,28.56-65.3-.53-3-12.08-4.16-8.16-16.32s8-6.61,12.24-8.16c4.82-.61,8.41,1.75,12.25,4.08-2.7-8.77,7.5-24.57,16.32-16.32-2.33-25.1,2.24-57,0-77.54C800,418.9,704,369.36,627.41,380.46c95.37,9.18,149.07,110.19,126.51,200m40.81-53.06c-.25,5.43.16,10.9,0,16.33-9.35,1.59-13.92-8.45-12.25-16.33-1.51-8.28-2-23.42,4.08-28.56C793.54,507.09,787.83,519.05,794.73,527.37Z"/><path class="cls-37" d="M492.74,384.54c-15.83,9.51-31.91,23.84-49,32.65-33.18,33.22-55.79,84.43-44.89,130.59,1.35,3.47,6.45,8.89,8.16,12.24-.77-12.77,8.12-14.81,12.24-24.48-18.6-17.39,1.19-58,15.31-78.56s30.89-42.73,50-60.19C489.15,392.58,511.59,381.24,492.74,384.54Z"/><path class="cls-38" d="M280.53,409c19.84-10.41,2.78,18.85,0,24.48,8.08-6.93,17.43-10.16,28.57-8.16.49-7.55,4.57-13.91,8.16-20.4a30.48,30.48,0,0,1-20.4,4.08c-3.47-9.22,5.67-13.35,8.16-20.41C299.76,395.81,287.1,400.34,280.53,409Z"/><path class="cls-39" d="M554,396.79c.25,5.87-7.83,3-8.16,8.16,13,2.16,30.89-4.61,40.81,4.08-14-2.65-29.59,1.75-40.81,4.08,21.75-2,55.05-3.75,73.46,4.08,2,0,6.12-.16,8.16,0,23.71,2.08,41,30.44,61.21,40.81-9.71,15.18-1.1,14.73,4.08,24.48,9.06,9.64,8.49,4.21,12.25,20.41,1,4.12,8.2,8,0,12.24-13.39,7-32-34.4-38-43.62s-41-26.08-51.82-29.83c-2,0-7.51.93-8.17,0-5.42-.29-10.89.2-16.32,0-2.24,7.42,7.14,10.08,8.16,16.32h4.08c9.23,4.53,25,20.16,28.57,28.57-2.29-14.21-18.28-20.29-24.49-32.65,26.41-4.94,55,29.3,65.3,53.05,11.18-17.63,7.67,11.83,8.16,20.4-3.43-2.36-10.65-7-12.24,0,15.87,35-20.32,95.66-32.32,126.84s-49.1,61.25-72.76,86.39S501,792.71,472.34,809c7.22-.57,13.22,9.15,12.24,16.33C500,809.57,527.43,806.67,546.12,793s38.2-27.83,56.8-41.14c40.73-34.11,79.17-82.84,98-130.59-13.43,7.72-26.94-3-12.25-16.32,4.41,7.51,5.72,10,12.25,12.24,34.89-43.54,35.38-117.81,3.06-166.29s-96.35-60.15-150-54.07M713.11,539.62c2.16,13.55-6.69,24-8.16,36.72-5.51-8.44-11.19-40.56,8.16-36.72m-36.73,106.1c-4.45,28-28.08,4.61,0,0M656,674.29c-4.45,28-28.08,4.61,0,0m-36.73,40.8c-1,22.82-22.94,1.27,0,0m-28.57,28.57C580.85,764.92,568.24,746.68,590.68,743.66Z"/><path class="cls-40" d="M807,425.35s2,0,4.08,0h12.24C831,402.34,793.42,409.07,807,425.35Z"/><path class="cls-41" d="M953.88,409c-4.57-4.57-17.55,4.28-10.94,10.85S958.82,414,953.88,409Z"/><path class="cls-42" d="M403,449.84c-32.93,42.77-40.64,109.08-4.08,151-23.26-1.92-45.83-27.34-53.05-49-4.29-4.29-17.55-11.67-24.49-8.16,24.08-2-10.24,32.36-8.16,8.16-6.61,12.41,1.06,34.12,8.16,49,28.16,58.89,120.59,68.48,175.48,49,10.69-3.79,15.79-13.63,24.49-20.4-40,16.07-96.84,20.65-134.67-4.08-5.76-3.76-13.47-8.17-12.25-16.33,4.09.45,11.15-1.92,12.25,4.08,32.28,1.39,68.8,18,102,4.08-25.79-7.14-58.72-11.46-73.46-40.81-10.28-11-12.73-13.46-16.32-28.56-10.9-46.16,11.71-97.37,44.89-130.59C427.2,425.76,415.2,434,403,449.84m-49,151C324.69,603.56,350.48,574.22,354,600.83Z"/><path class="cls-43" d="M554,421.27h57.14c-1-1,0-4.08,0-4.08C591.38,417.19,571,417.72,554,421.27Z"/><path class="cls-44" d="M611.09,421.27h4.08c4.08-.2,8.16.16,12.24,0,.2,7.18-6.24,12.53-4.08,20.41,3.3.61,4.65,3.55,8.16,4.08,2.2-3.27-9.14-18.82,8.16-16.33-2.85-3.71-8.32-11-12.24-12.24-2-.16-6.12,0-8.16,0h-8.16S610.07,420.25,611.09,421.27Z"/><path class="cls-45" d="M639.65,429.43c6.41,8.29,10.16,19.18-8.16,16.33-3.51-.53-4.86-3.47-8.16-4.08-2-.37-6.12,0-8.16,0C626,445.43,661,462.24,667,471.51s24.57,50.64,38,43.62c-2.9-6.49-9.55-9.91-12.25-16.32-3.55-8.45,1.15-9.39,0-16.33-5.18-9.75-13.79-9.3-4.08-24.48-20.24-10.37-37.5-38.73-61.21-40.81,3.92,1.27,9.39,8.53,12.24,12.24m28.57,24.49C701.15,451.67,666.22,487,668.22,453.92Z"/><path class="cls-46" d="M419.28,535.54c-4.12,9.67-13,11.71-12.24,24.48,2.7,5.27,4.37,11,8.16,16.32,14.74,29.35,47.67,33.67,73.46,40.81-33.22,13.92-69.74-2.69-102-4.08-8.16,2-7,6.29,0,12.25,37.83,24.73,94.71,20.15,134.67,4.08,8-3.23,17.34-7.47,24.48-12.25,10-7.83,16-23.34,28.57-28.56.77,1.87,13.42,15.55,12.24,8.16,2.57-7.1,5.75-13.35,8.16-20.41,4.9-14.36,8.29-31.74,12.24-44.88-.12-2.05-.12-6.13,0-8.17.78-10.85-.32-18.93-4.08-28.56-6.2-15.8-24.6-24.69-28.56-40.81-8,0-16.49-.78-24.49,0s-21.79,7.87-32.64,4.08c2.44-7.43,10.44-8.77,16.32-12.24a112.54,112.54,0,0,1,28.57-8.16c3.18-1.68,6.69-6.41,12.24-4.09-3.19-5.95-15.88-2.53-8.16-12.24H554c-69.74.33-111.24,59.38-134.67,114.27m122.43-53.06c64.89,12.74,9.75,135.2-54,102.92S479.19,470.2,541.71,482.48Z"/><path class="cls-47" d="M562.12,437.6c13.71-1.84,31.09-1.27,44.88,0,4.09-.25,8.17.2,12.25,0,1.67-6.37-1.88-11-4.08-16.33h-49c-7.72,9.71,5,6.29,8.16,12.24C568.81,431.19,565.3,435.92,562.12,437.6Z"/><path class="cls-48" d="M607,437.6c-.12,0,0,4.08,0,4.08.66.93,6.13,0,8.17,0s6.2-.37,8.16,0c-2.16-7.88,4.28-13.23,4.08-20.41-4.08.16-8.16-.2-12.24,0,2.2,5.35,5.75,10,4.08,16.33C615.17,437.8,611.09,437.35,607,437.6Z"/><path class="cls-49" d="M631.49,445.76c18.32,2.85,14.57-8,8.16-16.33C622.35,426.94,633.69,442.49,631.49,445.76Z"/><path class="cls-50" d="M533.55,445.76c-11.26.45,12,7.87,16.32,8.16,8-.78,16.45,0,24.49,0,3.87,0,8.45-.61,12.24,0,4.61.73,6.77,4,12.24,4.08-1-6.24-10.4-8.9-8.16-16.32,5.43.2,10.9-.29,16.32,0,0,0-.12-4.08,0-4.08-13.79-1.27-31.17-1.84-44.88,0A112.54,112.54,0,0,0,533.55,445.76Z"/><path class="cls-51" d="M219.32,462.08c1.88-3.14,9.47-6,12.24-8.16,2.58,13.55-2.08,14.12-12.24,16.32,7.55,23.39,25.75-14.57,12.24-24.48C228,450,221.4,456,219.32,462.08Z"/><path class="cls-52" d="M549.87,453.92c-4.32-.29-27.58-7.71-16.32-8.16-5.88,3.47-13.88,4.81-16.32,12.24C528.08,461.79,541.91,454.69,549.87,453.92Z"/><path class="cls-53" d="M631.49,486.57c.33,2-.2,6.12,0,8.16.57,6,3.22,10.16,4.08,16.32,5.39,19.06,2.45,31.26-4.08,49a145.34,145.34,0,0,1-12.24,32.65c-4.82,9.51-10.2,20-16.33,28.56-18.48,25.92-47.09,48.81-69.37,69.38-7.39,9.51-16.94,12.16-16.32,24.48,5,.94,8.2-2.16,12.24-4.08,17.55-9.38,38-24.11,53-36.72,45.62-38.24,69.13-97.41,69.37-155.08,9.31-3.47,10.57,4.7,16.33,8.16,1.59-7,8.81-2.36,12.24,0-.49-8.57,3-38-8.16-20.4C662,483.22,633.41,449,607,453.92,613.21,466.28,629.2,472.36,631.49,486.57Z"/><path class="cls-54" d="M219.32,462.08a20.38,20.38,0,0,0,0,8.16c10.16-2.2,14.82-2.77,12.24-16.32C228.79,456.08,221.2,458.94,219.32,462.08Z"/><path class="cls-55" d="M602.92,494.73c6.29,1.51,9.8-5.84,16.33-4.08,17.83,19.75,8,45.58,4.08,69.37-10.86-8,2.94-29-8.16-36.73,6.77,13.55-.29,47.87-4.08,61.22.73,9.1,8.69,11.14,8.16,8.16A145.34,145.34,0,0,0,631.49,560c3.51-14.93,6.37-32.85,4.08-49-.86-6.16-3.51-10.32-4.08-16.32-.73-1.1-3.39-2.74-4.08-4.08-7.63-7.8-32.61-33.55-40.81-36.73-3.79-.61-8.37,0-12.24,0C578.32,470,596.72,478.93,602.92,494.73Z"/><path class="cls-56" d="M627.41,490.65C621.12,478,610.88,469.39,602.92,458h-4.08c-5.47,0-7.63-3.35-12.24-4.08C594.8,457.1,619.78,482.85,627.41,490.65Z"/><path class="cls-57" d="M627.41,490.65c.69,1.34,3.35,3,4.08,4.08-.2-2,.33-6.16,0-8.16-3.55-8.41-19.34-24-28.57-28.57C610.88,469.39,621.12,478,627.41,490.65Z"/><path class="cls-58" d="M317.26,494.73c5-9,7.39-25.18,0-32.65C312.24,471.06,309.88,487.26,317.26,494.73Z"/><path class="cls-59" d="M974.28,462.08c-11.75-1.59-13.75,11.75-12.24,20.4C978.53,485.59,977.1,472.85,974.28,462.08Z"/><path class="cls-60" d="M839.61,478.4c.41.82,4.09,8.12,4.09,8.17,2.69,1.34,17.58,1.14,20.4,0,.69-.29,8.08-10.86,8.16-12.25C863.45,475.87,842.55,462,839.61,478.4Z"/><path class="cls-61" d="M541.71,482.48c-62.52-12.28-117.65,70.69-54,102.92S606.6,495.22,541.71,482.48Z"/><path class="cls-62" d="M692.7,498.81c1.84,2.77,14.94,7.43,12.25,4.08-3.76-16.2-3.19-10.77-12.25-20.41C693.85,489.42,689.15,490.36,692.7,498.81Z"/><path class="cls-63" d="M855.94,539.62c-.94-.62-.86-6.57,0-8.16,2.69-5,17.67-6,20.4,0,.08-11.72-13.5-36.24-12.24-44.89-2.82,1.14-17.71,1.34-20.4,0C847.61,499.13,845.37,531.94,855.94,539.62Z"/><path class="cls-64" d="M602.92,494.73c3.76,9.63,4.86,17.71,4.08,28.56,2-5.26,6.45-1.75,8.17,0,11.1,7.72-2.7,28.73,8.16,36.73,3.88-23.79,13.75-49.62-4.08-69.37C612.72,488.89,609.21,496.24,602.92,494.73Z"/><path class="cls-65" d="M705,515.13c8.2-4.28,1-8.12,0-12.24,2.69,3.35-10.41-1.31-12.25-4.08C695.4,505.22,702.05,508.64,705,515.13Z"/><path class="cls-66" d="M782.48,527.37c2.17-3.59,10-3.26,12.25,0-6.9-8.32-1.19-20.28-8.17-28.56C780.48,504,781,519.09,782.48,527.37Z"/><path class="cls-67" d="M631.49,560c6.53-17.71,9.47-29.91,4.08-49C637.86,527.17,635,545.09,631.49,560Z"/><path class="cls-68" d="M607,523.29c-.12,2-.12,6.12,0,8.17,1.35,19.38-5.22,29.79-12.24,44.88-2.41,7.06-5.59,13.31-8.16,20.41-1.88,5.14-2.49,10.9-4.08,16.32,1.8,22.33,27.14-23.46,28.57-28.56,3.79-13.35,10.85-47.67,4.08-61.22C613.45,521.54,609.05,518,607,523.29Z"/><path class="cls-69" d="M582.52,674.29c5.71-2.78,9.1-9.39,16.32-8.17,2.17,10-2.36,20.94-12.24,24.49-15.87-20.65-38,29.26-57.13,36.73-99.66,112-300.48,140.38-424.41,49,111.89,174.21,407,132.26,530.51-12.24,9.92-12.61,22.16-25.47,32.65-36.73-5.63-10.45-20.12-5.55-28.57-12.25-10.2,13.15-22.89,26.86-36.73,36.73-18.6,13.31-38.15,27.39-56.8,41.14S500,809.57,484.58,825.28c-1,1-4.08,0-4.08,0-40.12,22-99.86,29.18-142.83,28.56,40.4-14.4,86.51-21.13,126.5-40.8,2.7-1.31,5.68-2.66,8.17-4.09,28.68-16.24,67.13-43.25,90.8-68.35s60.72-55.25,72.76-86.39,48.19-91.86,32.32-126.84c-5.76-3.46-7-11.63-16.33-8.16-.24,57.67-23.75,116.84-69.37,155.08M252,853.84c-7.88,9.23-21.26-4.73-32.65,0C227.32,844.46,242,852.25,252,853.84Z"/><path class="cls-70" d="M782.48,527.37c-1.67,7.88,2.9,17.92,12.25,16.33.16-5.43-.25-10.9,0-16.33C792.52,524.11,784.65,523.78,782.48,527.37Z"/><path class="cls-71" d="M855.94,531.46c8.49-3.68,20,1.79,16.32,12.24-6.61-13.22-6.85,2.77-16.32-4.08,3.39,5.42,9.38,15.55,16.32,8.16,1.35-6.37,4-9.1,4.08-16.32C873.61,525.46,858.63,526.44,855.94,531.46Z"/><path class="cls-72" d="M594.76,576.34c7-15.09,13.59-25.5,12.24-44.88C603.05,544.6,599.66,562,594.76,576.34Z"/><path class="cls-73" d="M855.94,539.62c9.47,6.85,9.71-9.14,16.32,4.08,3.67-10.45-7.83-15.92-16.32-12.24C855.08,533.05,855,539,855.94,539.62Z"/><path class="cls-74" d="M713.11,539.62c-19.35-3.84-13.67,28.28-8.16,36.72C706.42,563.61,715.27,553.17,713.11,539.62Z"/><path class="cls-75" d="M313.18,551.86c-2.08,24.2,32.24-10.2,8.16-8.16C317.1,545.82,315.47,547.53,313.18,551.86Z"/><path class="cls-76" d="M415.2,576.34c-3.79-5.3-5.46-11.05-8.16-16.32-1.71-3.35-6.81-8.77-8.16-12.24C402.47,562.88,404.92,565.33,415.2,576.34Z"/><path class="cls-77" d="M839.61,621.23a14.71,14.71,0,0,1,0,4.09c5.68-3.19,9.92-3.56,12.25,4.08,4.45-9.92,9.22-21.06,12.24-32.65V572.26C843.49,576.67,847.82,603.89,839.61,621.23Z"/><path class="cls-78" d="M582.52,613.07C576.85,632.46,571.71,645.15,554,658c16.12-9.38,36.12-21.42,49-36.73,6.13-8.57,11.51-19.05,16.33-28.56.53,3-7.43.94-8.16-8.16C609.66,589.61,584.32,635.4,582.52,613.07Z"/><path class="cls-79" d="M545.79,617.15c10.45-6.93,18.49-17.42,28.57-24.48,0-2,0-4.08,0-4.08C561.83,593.81,555.83,609.32,545.79,617.15Z"/><path class="cls-80" d="M574.36,592.67c-.57,29.22-37.87,55.54-57.13,73.45,3.14-.24,8,4,12.24,4.08,7.87-3.87,16.44-7.54,24.48-12.24,17.76-12.81,22.9-25.5,28.57-44.89,1.59-5.42,2.2-11.18,4.08-16.32,1.18,7.39-11.47-6.29-12.24-8.16C574.36,588.59,574.4,590.63,574.36,592.67Z"/><path class="cls-81" d="M782.48,617.15c1.59-7.75,14.49-13.87,4.08-24.48-4.2,1.55-8.32-4-12.24,8.16S782,614.13,782.48,617.15Z"/><path class="cls-82" d="M545.79,617.15c-7.14,4.78-16.49,9-24.48,12.25-8.7,6.77-13.8,16.61-24.49,20.4h16.32c-2.2,3.51-4.93,9.43-8.16,12.24,7.19-.61-3.91,8.65,4.08,8.16,2-1.38,6.61-2.65,8.17-4.08,19.26-17.91,56.56-44.23,57.13-73.45C564.28,599.73,556.24,610.22,545.79,617.15Z"/><path class="cls-83" d="M700.87,621.23s-1-2.85,0-4.08c-6.53-2.2-7.84-4.73-12.25-12.24C673.93,618.21,687.44,629,700.87,621.23Z"/><path class="cls-84" d="M386.64,625.32c-7-6-8.16-10.21,0-12.25-1.1-6-8.16-3.63-12.25-4.08C373.17,617.15,380.88,621.56,386.64,625.32Z"/><path class="cls-85" d="M554,658c-8,4.7-16.61,8.37-24.48,12.24-3.35,1.68-2.9,3.56-8.16,4.09-5.51,3.38-9.55,8.93-16.33,12.24-12.61,6.2-25.91,15.51-40.81,16.32,3.92-6.41,9.47-13.26,16.33-16.32,5.87-6.2,13.87-13.59,20.4-20.41-28,13.76-55.87,20.94-85.7,28.57C395,699.83,358.85,711.5,337.67,711c-.45.17-4.41,14.94-12.25,8.17V706.93c-8.93,2.66,6.17,25.75,4.09,24.49,63.37,16.44,151.44-6.86,204-40.81,22.28-20.57,50.89-43.46,69.37-69.38-12.85,15.31-32.85,27.35-49,36.73M439.69,711c-.37-.08-1-6.81,0-8.16,16.93-24,17.06,32.28,0,8.16M403,711C401.86,735.83,378,708.44,403,711Z"/><path class="cls-86" d="M839.61,625.32c-1.22,8.61.45,22.07,12.25,20.4,1.55-4.73-2-11.79,0-16.32C849.53,621.76,845.29,622.13,839.61,625.32Z"/><path class="cls-87" d="M198.92,649.8c8.44,8.45,17.79,1.1,24.48,0-2.89-9.79-10.93-16-16.32-24.48C195.29,630,196.06,640.7,198.92,649.8Z"/><path class="cls-88" d="M223.4,649.8c-6.69,1.1-16,8.45-24.48,0,7.71,24.61,46.44,53.13,69.37,61.21,4.74-8.65-3-14.24,8.16-20.4,1.55-.86,4.08,0,4.08,0,5,.49,7.8,2,12.25,4.08,1.87,8.81-12.12,12.2-4.08,20.4,12.48,3.84,26.85,12.7,40.81,16.33,2.08,1.26-13-21.83-4.09-24.49,5.64-1.67,7.31,4,12.25,4.08,21.18.49,57.37-11.18,77.53-16.32-19.75-14.12-71,4.24-101.73-8.45s-72.68-11.46-81.91-44.6C225.77,641.8,228.46,648.94,223.4,649.8Z"/><path class="cls-89" d="M749.84,658c-.94,3.1-.17,9,0,12.24v12.25c12.44-5.67,19.54-18.94,16.32-32.65C762.12,649.6,751.55,653.92,749.84,658Z"/><path class="cls-90" d="M823.29,686.53c11.26-5.63,26.45-29.51,12.24-36.73C835.74,663.92,822.48,672.65,823.29,686.53Z"/><path class="cls-91" d="M500.9,666.12c-6.53,6.82-14.53,14.21-20.4,20.41,8.2-5.55,19.46-10.12,28.56-16.33-8,.49,3.11-8.77-4.08-8.16C503.88,663,501.92,665.06,500.9,666.12Z"/><path class="cls-92" d="M509.06,670.2C500,676.41,488.7,681,480.5,686.53c-6.86,3.06-12.41,9.91-16.33,16.32,14.9-.81,28.2-10.12,40.81-16.32,8.82-6.25,8.53-11.47,16.33-12.24,5.26-.53,4.81-2.41,8.16-4.09-4.21,0-9.1-4.32-12.24-4.08C515.67,667.55,511.1,668.82,509.06,670.2Z"/><path class="cls-93" d="M582.52,674.29c-15.06,12.61-35.5,27.34-53,36.72,0,0,.86,3.64,0,4.08,13.95-3.83,4.08,4.41,0,12.25,19.18-7.47,41.26-57.38,57.13-36.73,9.88-3.55,14.41-14.45,12.24-24.49C591.62,664.9,588.23,671.51,582.52,674.29Z"/><path class="cls-94" d="M505,686.53c6.78-3.31,10.82-8.86,16.33-12.24C513.51,675.06,513.8,680.28,505,686.53Z"/><path class="cls-95" d="M268.29,711c6.69,2.37,13.84,2.09,20.41,4.08-8-8.2,5.95-11.59,4.08-20.4-4.45-2.12-7.27-3.59-12.25-4.08,26.08,13.79-22.32,21.22-4.08,0C265.27,696.77,273,702.36,268.29,711Z"/><path class="cls-96" d="M280.53,690.61s-2.53-.86-4.08,0C258.21,711.83,306.61,704.4,280.53,690.61Z"/><path class="cls-97" d="M733.51,698.77c.33,8.45,3.23,16.61,12.24,8.16C752.9,694.49,741.27,685.1,733.51,698.77Z"/><path class="cls-98" d="M439.69,702.85c3.92-.73,8.28.61,12.24,0,2.61,8.29-6.9,8.41-12.24,8.16C456.75,735.13,456.62,678.9,439.69,702.85Z"/><path class="cls-99" d="M729.43,706.93c3.71,10.74,11.71,8,16.32,0-9,8.45-11.91.29-12.24-8.16,0,0-2.69-.94-4.08,0C729.15,700.77,730.25,705.26,729.43,706.93Z"/><path class="cls-100" d="M439.69,711c5.34.25,14.85.13,12.24-8.16-4,.61-8.32-.73-12.24,0C438.71,704.2,439.32,710.93,439.69,711Z"/><path class="cls-101" d="M337.67,711c-4.94-.12-6.61-5.75-12.25-4.08v12.25C333.26,726,337.22,711.18,337.67,711Z"/><path class="cls-102" d="M953.88,723.26c-17-2.37-21.75,24.77-4.2,28.44S967,725.09,953.88,723.26Z"/><path class="cls-103" d="M684.54,772.23c9.22,2.45,34.89-20.82,25.51-29.39S681.44,762.8,684.54,772.23Z"/><path class="cls-104" d="M268.29,780.39c-10.12-5.22-24.89,9.3-13.18,17.18S279.8,786.31,268.29,780.39Z"/><path class="cls-105" d="M337.67,788.55c-9.39-.45-26-1.8-24.49,12.24C322.81,800.18,342.32,805,337.67,788.55Z"/><path class="cls-106" d="M464.17,813c-4.16,9.5,10.45,13,16.33,12.24,0,0,3.06,1,4.08,0,1-7.18-5-16.9-12.24-16.33C469.85,810.38,466.87,811.73,464.17,813Z"/><path class="cls-107" d="M635.57,813c-3.18,4.2-3.63,11.91,4.08,12.24,8-1.76,8.2-10.9,12.24-16.33C645.45,807.49,640.88,810.63,635.57,813Z"/><path class="cls-108" d="M480.5,825.28c-5.88.77-20.49-2.74-16.33-12.24-40,19.67-86.1,26.4-126.5,40.8C380.64,854.46,440.38,847.23,480.5,825.28Z"/><path class="cls-109" d="M639.65,825.28c-7.71-.33-7.26-8-4.08-12.24-7,4.12-16.53,11.34-16.32,20.4C628,835.64,634.14,829.52,639.65,825.28Z"/><path class="cls-110" d="M252,853.84c-10-1.59-24.65-9.38-32.65,0C230.71,849.11,244.09,863.07,252,853.84Z"/><path class="cls-111" d="M921.23,898.73c-13.59-30.44-49.05-28.19-61.21,0,10.2,9.68,18.85,24.41,32.65,32.65C902.5,920.85,909.11,906.81,921.23,898.73Z"/><path class="cls-112" d="M505,898.73c-9.46-1.34-16.57,4.45-24.48,8.17C484.42,921.67,506.49,910.45,505,898.73Z"/><path class="cls-113" d="M154,906.9c-18.37-7.31-35.59,25.22-15,35.38S172.51,914.24,154,906.9Z"/><path class="cls-114" d="M31.6,972.19c-.94-25.22,12.69-51.79,8.16-81.62s2-63.25,0-93.86,1-62.88,0-93.86.49-62.68,0-93.86.37-62.6,0-93.86.53-62.56,0-93.86,1-62.52,0-93.86,2.13-62.4,0-93.86,4.7-62.19,0-93.86S52.9,90.52,56.09,70.32C150.68,38.24,255,58.11,358.07,54s214.21,2.57,318.31,0,211.51,4.49,314.23-4.08c-83.42-21.63-180.79,5-269.34-4.08s-179.52,8.24-269.34,0-178.25,13-269.34,0S19.11,66.28,31.6,164.18s-7.43,176,0,269.33-7.26,178.18,0,269.34S19.6,882.21,31.6,972.19Z"/><path class="cls-115" d="M31.6,972.19c10.69,80.11,97.37,65.42,163.24,65.29s159.31.29,228.53,0,156,.7,224.44,0,165.56,1.51,228.53,0,154,18.45,167.32-57.13c-13.14-3.83-.86-52.15-4.08-69.37s1.39-50.28,0-73.46.65-50.52,0-77.54.28-40.64,0-73.45.16-35.06,0-77.54.2-104.22,0-146.91,1-41.62,0-77.54,2.69-37.7,0-73.45,5.79-35.42,0-77.54,8.28-105.49,0-142.83c-8.49-21.34-28.08-35.38-49-40.81C887.89,58.48,780.48,51.42,676.38,54s-215.23-4.12-318.31,0-207.39-15.75-302,16.33c-3.19,20.2-21,37.7-16.33,69.37s-2.12,62.4,0,93.86-1,62.52,0,93.86-.53,62.56,0,93.86-.36,62.6,0,93.86-.49,62.68,0,93.86-1,62.89,0,93.86-2,63.26,0,93.86-4.53,64,0,93.86-9.1,56.4-8.16,81.62M525.39,168.26c-20.57,25.79-64.4,32.15-86.64,60.27s-49.05,46.52-73.54,73.38S316.94,354.75,305,388.62c-2.49,7.06-11.63,11.19-8.16,20.41a30.48,30.48,0,0,0,20.4-4.08c18.82-34.12,50.81-62.77,81.62-85.7,11.83-8.82,24.16-16.85,36.73-24.49,152-92.18,428.29-154,526.43,44.89-101.49-104-270-105.36-395.84-49-7.23,3.84-14.53,12.82-24.49,12.25,6.94,10.12,21.34,8.12,32.65,8.16,142-62,341.28,44.11,342.79,200S827.33,782,721.27,882.41c32.65-40.24,65.38-82.31,81.62-130.59-67.26,99-168.42,180.79-285.66,204,136.17-73.17,269.9-200.54,302-355,8.28-32,4.57-67-4.08-97.94,2.24,20.57-2.33,52.44,0,77.54-8.82-8.25-19,7.55-16.32,16.32-3.84-2.33-7.43-4.69-12.25-4.08,10.41,10.61-2.49,16.73-4.08,24.48-5.06,25.1-5.22,49.1-28.56,65.3,19.42,21.5-29.1,53.7-24.49,24.48.82-1.67-.28-6.16,0-8.16,1.51-11,6.41-21.51,8.16-32.65,6.25,7.19,4,14.74,12.25,4.08-.17-3.26-.94-9.14,0-12.24,6.24-20.81,29.09-34.89,16.32-61.21-10.16,2.77-8.12,16.32-16.32,20.4-3.51-12.73,17-26.4,4.08-36.72-18.41,73.13-65.18,130.46-118.35,183.64C512.08,908.57,217,950.52,105.06,776.31c123.93,91.41,324.75,63,424.41-49,4.08-7.84,13.95-16.08,0-12.25-113.12,60.28-289.38,76.68-370.42-45.82s-15.59-280.6,80.68-366.34c-30.08,45.95-53.42,94.51-57.14,151S191.94,574,230.54,614.09s91.54,78.31,139.77,56.11c-99-26.11-138.09-151.44-89.78-236.69,2.78-5.63,19.84-34.89,0-24.48-8.24,10.85-13.14,22.85-32.64,16.32C281.51,305.62,388.6,202.66,505,164.18c-2.12-1.6-3.87-14.45-8.16-16.33,12.65-33.83,50.07-.73,28.57,20.41m155.07-28.57c-3.1,29.22-45.17,25.34-69.66,36.44s-54.72,23-81.33,28.86c43.7-30.77,90.23-68,151-65.3m65.29,0c2.25,27.55-31-3.55,0,0m171.4,0c20.32,6.94,9.18,49.79-15,39.46s-9.18-47.7,15-39.46M766.16,156c-4.29-24,24,0,0,0m-555,40.81c-21.87-.65-29.95,19.8-36.73,36.73-5.63-19.67-26-31.22-36.73-44.89,18.45-.16,30.37-15.22,32.65-32.65,9.39,13.59,27.34,31.18,40.81,40.81M341.75,156c10.32,5,.9,26.37-10.94,19s-.57-24.61,10.94-19m632.53,73.46c4.08,4.08-6.57,12.37-10.93,6.77s8.16-9.54,10.93-6.77M480.5,233.55C474.29,243.79,463,251.22,451.93,254c.16-14.9,17.35-17.92,28.57-20.41m-224.45,49c3.14-30,30.16,1.76,0,0m481.54,0c-30,5.27-5.79-26,0,0m97.94,20.41c36.9-1.11.17,34.32,0,0M125.46,335.57c5.47,31.83-31.79,3.39,0,0M921.23,372.3c32.69-.49-4.85,34.16,0,0M953.88,409c4.94,4.94-4.33,17.42-10.94,10.85s6.37-15.42,10.94-10.85M219.32,470.24a20.38,20.38,0,0,1,0-8.16C221.4,456,228,450,231.56,445.76c13.51,9.91-4.69,47.87-12.24,24.48m755-8.16c2.82,10.77,4.25,23.51-12.24,20.4-1.51-8.65.49-22,12.24-20.4M231.56,543.7c-29.21-24.69,14.08-37.34,0,0m28.57,40.81c7.06,32.64-29.18-1.47,0,0m714.15,0c2.78,31.58-28.44-.53,0,0M958,629.4c6.37,28.44-21.51,4.85,0,0M121.38,690.61c1.22,33.67-33.79-.94,0,0m24.49,40.81c-32.94,2.24,2-33.1,0,0m808-8.16c13.1,1.83,13.34,32.11-4.2,28.44s-12.78-30.81,4.2-28.44m-269.34,49c-3.1-9.43,16.08-37.91,25.51-29.39s-16.29,31.84-25.51,29.39m-485.62-4.08c-29.51,16.52-14.78-30.61,0,0m69.37,12.24c11.51,5.92-1.47,25.1-13.18,17.18s3.06-22.4,13.18-17.18m130.59,4.08c-10,19.47-25-5.59,0,0m-61.21,4.08c4.65,16.41-14.86,11.63-24.49,12.24-1.51-14,15.1-12.69,24.49-12.24m497.86,28.57c-3.75-28.49,25.84-2.29,0,0m-195.88,8.16c-5.51,4.24-11.67,10.36-20.4,8.16-.21-9.06,9.34-16.28,16.32-20.4,5.31-2.41,9.88-5.55,16.32-4.09-4,5.43-4.28,14.57-12.24,16.33m-61.21,32.65c4.45,33.58-34.53,2.16,0,0m342.79,40.8c-12.12,8.08-18.73,22.12-28.56,32.65-13.8-8.24-22.45-23-32.65-32.65,12.16-28.19,47.62-30.44,61.21,0m-399.92,0c6.73-32.07,36,4.62,0,0m-16.33,0c1.51,11.72-20.56,22.94-24.48,8.17,7.91-3.72,15-9.51,24.48-8.17M154,906.9c18.48,7.34,5.63,45.54-15,35.38s-3.39-42.69,15-35.38m314.23,8.16c-8.62,35.5-41.34-5.43,0,0m269.33,20.4c26.81-14.85,4.94,30.49,0,0M264.21,951.79c2.08-25.63,28.61,3.5,0,0m81.62,0C360.89,921.14,375.13,968.19,345.83,951.79Z"/><path class="cls-116" d="M1043.66,980.35c.37-2,0-6.12,0-8.16,0-143,4-285.46,0-428.49s10.53-289.83,0-432.58c-.61-8.36-1.1-12.89-4.08-20.4,8.28,37.34-5.8,100.72,0,142.83s-2.7,41.79,0,77.54-1,37.54,0,73.45-.21,34.85,0,77.54-.17,104.43,0,146.91-.29,44.73,0,77.54-.65,46.44,0,73.45-1.39,54.36,0,77.54-3.23,56.24,0,73.46S1030.52,976.52,1043.66,980.35Z"/><path class="cls-117" d="M505,164.18c6.7,0,13.23,6.81,20.41,4.08,21.5-21.14-15.92-54.24-28.57-20.41C501.11,149.73,502.86,162.58,505,164.18Z"/><path class="cls-118" d="M680.46,139.69c-60.76-2.65-107.29,34.53-151,65.3,26.61-5.84,56.8-17.76,81.33-28.86S677.36,168.91,680.46,139.69Z"/><path class="cls-119" d="M917.15,139.69c-24.16-8.24-39.17,29.1-15,39.46S937.47,146.63,917.15,139.69Z"/><path class="cls-120" d="M211.16,196.82c-13.47-9.63-31.42-27.22-40.81-40.81-2.28,17.43-14.2,32.49-32.65,32.65,10.74,13.67,31.1,25.22,36.73,44.89C181.21,216.62,189.29,196.17,211.16,196.82Z"/><path class="cls-121" d="M341.75,156c-11.51-5.59-22.77,11.68-10.94,19S352.07,161,341.75,156Z"/><path class="cls-122" d="M280.53,409c6.57-8.69,19.23-13.22,24.49-20.41,11.92-33.87,35.75-59.86,60.19-86.71s51.3-45.26,73.54-73.38,66.07-34.48,86.64-60.27c-7.18,2.73-13.71-4.08-20.41-4.08C388.6,202.66,281.51,305.62,247.89,425.35,267.39,431.88,272.29,419.88,280.53,409Z"/><path class="cls-123" d="M435.61,294.76c-13.71,17.18-24.53,42.85-36.73,61.22-5.43,8.16-10.77,16.4-16.32,24.48C348.56,430,326,492.2,345.83,551.86c7.22,21.63,29.79,47,53.05,49-36.56-41.91-28.85-108.22,4.08-151C468.5,344,622.8,300.27,733.51,339.65c13.63,4.86,34.44,9.55,45.83,19.47s31.5,16.89,38.85,30.52,26.93,25.92,29.26,40.12,25.38,35.22,24.81,44.56c-.08,1.39-7.47,12-8.16,12.25-1.26,8.65,12.32,33.17,12.24,44.89,0,7.22-2.73,9.95-4.08,16.32-3.39,16.16-4.41,34.56-8.16,49-3,11.59-7.79,22.73-12.24,32.65-2,4.53,1.55,11.59,0,16.32-11.8,1.67-13.47-11.79-12.25-20.4a14.71,14.71,0,0,0,0-4.09c-.12-4.08.09-8.16,0-12.24-5.55,19.59-12.4-.08-20.4,12.24v-20.4c-32.08,154.5-165.81,281.87-302,355,117.24-23.26,218.4-105,285.66-204-16.24,48.28-49,90.35-81.62,130.59C827.33,782,918.66,666.9,917.15,511.05s-200.74-262-342.79-200c-5.88,2.57-14.61,9.75-20.41,12.24-11.18,10.16-53.29,35.14-73.45,36.73-6.41.49-4,.86-8.16,4.08-14.29,25-59.22,56.4-81.62,81.62,9.22-19.26,28.73-31.75,40.81-49-2.17,4.85-5.23-17.59,9.18-19.39s16.16-16.32,7.14-25.5C484.54,326,526,309,566.2,290.68c125.85-56.39,294.35-55.05,395.84,49-98.14-198.9-374.38-137.07-526.43-44.89m220.37-53c19.87-22.32,24.44,18.24,0,0m142.83-4.08c-7.47,7.39-23.67,5-32.65,0,9-8.4,23-1.67,32.65,0M602.92,258c-7.46,4.49-16.16,6.08-24.48,8.16-4.45-17.71,14.81-14.77,24.48-20.41,4,.37,8.21-.28,12.25,0,1.3,6.9-5.39,13.43-12.25,12.25m-69.37,12.24c.37,10.08-10.53,18.53-20.41,16.32-.36-10.08,10.53-18.52,20.41-16.32m-44.89,20.4c-1,22.82-22.94,1.27,0,0M823.29,686.53c-.81-13.88,12.45-22.61,12.24-36.73,14.21,7.22-1,31.1-12.24,36.73m-4.08,20.4C818.19,729.74,796.28,708.2,819.21,706.93Z"/><path class="cls-124" d="M974.28,229.47c-2.77-2.77-15.3,1.18-10.93,6.77S978.36,233.55,974.28,229.47Z"/><path class="cls-125" d="M480.5,233.55c-11.22,2.49-28.41,5.51-28.57,20.41C463,251.22,474.29,243.79,480.5,233.55Z"/><path class="cls-126" d="M798.81,237.63c-9.63-1.67-23.67-8.4-32.65,0C775.14,242.65,791.34,245,798.81,237.63Z"/><path class="cls-127" d="M602.92,258c1.27-2.13-5.67-8.12,0-12.25-9.67,5.64-28.93,2.7-24.48,20.41C586.76,264.12,595.46,262.53,602.92,258Z"/><path class="cls-128" d="M602.92,258c6.86,1.18,13.55-5.35,12.25-12.25-4-.28-8.21.37-12.25,0C597.25,249.92,604.19,255.91,602.92,258Z"/><path class="cls-129" d="M533.55,270.28c-9.88-2.2-20.77,6.24-20.41,16.32C523,288.81,533.92,280.36,533.55,270.28Z"/><path class="cls-130" d="M431.53,396.79c12-13.14,26.65-21.71,40.81-32.65,4.16-3.22,1.75-3.59,8.16-4.08A699.71,699.71,0,0,1,554,323.33c5.8-2.49,14.53-9.67,20.41-12.24-11.31,0-25.71,2-32.65-8.16,10,.57,17.26-8.41,24.49-12.25C526,309,484.54,326,447.85,351.9c9,9.18,7.22,23.67-7.14,25.5S429.36,401.64,431.53,396.79Z"/><path class="cls-131" d="M398.88,319.25c.57-.25,12-1.51,16.32-4.08-1.38,27.14-36.07,27.91-36.72,53.05,7.22-6.61,25.91-16.24,20.4-12.24,12.2-18.37,23-44,36.73-61.22C423,302.4,410.71,310.43,398.88,319.25Z"/><path class="cls-132" d="M529.47,715.09c.86-.44,0-4.08,0-4.08-4,1.92-7.27,5-12.24,4.08-.62-12.32,8.93-15,16.32-24.48-52.6,33.95-140.67,57.25-204,40.81-14-3.63-28.33-12.49-40.81-16.33-6.57-2-13.72-1.71-20.41-4.08-22.93-8.08-61.66-36.6-69.37-61.21-2.86-9.1-3.63-19.79,8.16-24.48,5.39,8.52,13.43,14.69,16.32,24.48,5.06-.86,2.37-8,8.16-8.16,9.23,33.14,51.22,31.87,81.91,44.6s82-5.67,101.73,8.45c29.83-7.63,57.71-14.81,85.7-28.57,1-1.06,3-3.1,4.08-4.08,3.23-2.81,6-8.73,8.16-12.24H496.82c-54.89,19.51-147.32,9.92-175.48-49-55.25-74.31-21.34-146.22,28.57-204,8.94-10.37,18.69-19.55,28.57-28.57.65-25.14,35.34-25.91,36.72-53.05-4.28,2.57-15.75,3.83-16.32,4.08-30.81,22.93-62.8,51.58-81.62,85.7-3.59,6.49-7.67,12.85-8.16,20.4-11.14-2-20.49,1.23-28.57,8.16-48.31,85.25-9.18,210.58,89.78,236.69-48.23,22.2-101.16-16-139.77-56.11S178.88,510.4,182.59,453.92s27.06-105,57.14-151C143.46,388.67,78,546.76,159.05,669.27s257.3,106.1,370.42,45.82m-363.2-212.2c5.47,32-22.12,7.92,0,0m0,61.21C202.43,581.24,149.38,599.24,166.27,564.1Z"/><path class="cls-133" d="M480.5,360.06c20.16-1.59,62.27-26.57,73.45-36.73A699.71,699.71,0,0,0,480.5,360.06Z"/><path class="cls-134" d="M403,449.84c12.24-15.84,24.24-24.08,40.81-32.65,17.06-8.81,33.14-23.14,49-32.65a87.54,87.54,0,0,1,16.32-8.16c9.27-3.71,15.43-11.59,28.57-8.16,3.8-1.8,3.51-6.08,12.24-8.16,4.08-1,22.53-9.14,28.57-8.16,3-.66,20.57.53,8.16,4.08.65,3.59-32.24,16-36.73,16.32a29.84,29.84,0,0,1-4.08,0c-1,1,0,4.08,0,4.08,6.69-.61,13.75.94,20.41,0,45.42-23,98.39-12.08,146.91-12.24,7.26,0,22.32-8.45,32.64-4.08,2.62-9.51-18.89-14.53-12.24-20.41C622.8,300.27,468.5,344,403,449.84M717.19,335.57c3.3,3.31-1.27,15.39-7,10.74S713.56,331.9,717.19,335.57Z"/><path class="cls-135" d="M717.19,335.57c-3.63-3.67-12.65,6.12-7,10.74S720.49,338.88,717.19,335.57Z"/><path class="cls-136" d="M713.11,364.14c37.3,12.77,60.07,44.68,93.86,61.21-13.55-16.28,24-23,16.32,0H811.05c9.83,17.1,20,36.4,28.56,53,2.94-16.36,23.84-2.53,32.65-4.08.57-9.34-22.48-30.32-24.81-44.56s-21.91-26.53-29.26-40.12-27.46-20.6-38.85-30.52-32.2-14.61-45.83-19.47c-6.65,5.88,14.86,10.9,12.24,20.41-10.32-4.37-25.38,4-32.64,4.08m69.37,20.4C755,385.93,778.73,358.34,782.48,384.54Z"/><path class="cls-137" d="M378.48,368.22c-9.88,9-19.63,18.2-28.57,28.57,2.53-1.8,28.24-13.14,32.65-16.33,5.55-8.08,10.89-16.32,16.32-24.48C404.39,352,385.7,361.61,378.48,368.22Z"/><path class="cls-138" d="M578.44,351.9c2.12.36,3.35,5.46,8.16,4.08C599,352.43,581.46,351.24,578.44,351.9Z"/><path class="cls-139" d="M549.87,360.06c-1.26,2,5.72,8.24,0,12.24,4.49-.33,37.38-12.73,36.73-16.32-4.81,1.38-6-3.72-8.16-4.08C572.4,350.92,554,359.08,549.87,360.06Z"/><path class="cls-140" d="M537.63,368.22c2.61.69,3.18,4.41,8.16,4.08a29.84,29.84,0,0,0,4.08,0c5.72-4-1.26-10.2,0-12.24C541.14,362.14,541.43,366.42,537.63,368.22Z"/><path class="cls-141" d="M566.2,376.38c-11.92,6-27.39,14.73-36.73,24.49,9.26,2.4,15.91-3.47,24.48-4.08,53.63-6.08,117.7,5.59,150,54.07s31.83,122.75-3.06,166.29c-1,1.23,0,4.08,0,4.08-18.78,47.75-57.22,96.48-98,130.59,13.84-9.87,26.53-23.58,36.73-36.73,8.45,6.7,22.94,1.8,28.57,12.25-10.49,11.26-22.73,24.12-32.65,36.73,53.17-53.18,99.94-110.51,118.35-183.64,22.56-89.78-31.14-190.79-126.51-200C704,369.36,800,418.9,815.13,502.89c8.65,30.93,12.36,66,4.08,97.94v20.4c8-12.32,14.85,7.35,20.4-12.24.09,4.08-.12,8.16,0,12.24,8.21-17.34,3.88-44.56,24.49-49v24.49c3.75-14.41,4.77-32.81,8.16-49-6.94,7.39-12.93-2.74-16.32-8.16-10.57-7.68-8.33-40.49-12.24-53.05,0-.05-3.68-7.35-4.09-8.17-8.56-16.65-18.73-35.95-28.56-53-2,0-4.08,0-4.08,0-33.79-16.53-56.56-48.44-93.86-61.21C664.59,364.3,611.62,353.41,566.2,376.38Z"/><path class="cls-142" d="M431.53,396.79c-12.08,17.22-31.59,29.71-40.81,49,22.4-25.22,67.33-56.6,81.62-81.62C458.18,375.08,443.53,383.65,431.53,396.79Z"/><path class="cls-143" d="M509.06,376.38c4.45-5,5.88,5.35-1,11.22s-16.89,5.15-23.46,9.19c-19.1,17.46-35.87,39.62-50,60.19s-33.91,61.17-15.31,78.56C442.71,480.65,484.21,421.6,554,421.27c17.06-3.55,37.43-4.08,57.14-4.08h8.16c-18.41-7.83-51.71-6-73.46-4.08-40.68,8.41-72.19,26-102,57.13,16.85-41.87,61-78.72,102-93.86,0,0-1-3.06,0-4.08-5,.33-5.55-3.39-8.16-4.08C524.49,364.79,518.33,372.67,509.06,376.38Z"/><path class="cls-144" d="M349.91,396.79c-49.91,57.82-83.82,129.73-28.57,204-7.1-14.85-14.77-36.56-8.16-49,2.29-4.33,3.92-6,8.16-8.16,6.94-3.51,20.2,3.87,24.49,8.16C326,492.2,348.56,430,382.56,380.46c-4.41,3.19-30.12,14.53-32.65,16.33m-32.65,97.94c-7.38-7.47-5-23.67,0-32.65C324.65,469.55,322.28,485.75,317.26,494.73Z"/><path class="cls-145" d="M492.74,384.54c18.85-3.3-3.59,8-8.16,12.25,6.57-4,16.53-3.27,23.46-9.19s5.47-16.2,1-11.22A87.54,87.54,0,0,0,492.74,384.54Z"/><path class="cls-146" d="M545.79,413.11c11.22-2.33,26.81-6.73,40.81-4.08-9.92-8.69-27.83-1.92-40.81-4.08.33-5.14,8.41-2.29,8.16-8.16-8.57.61-15.22,6.48-24.48,4.08,9.34-9.76,24.81-18.45,36.73-24.49-6.66.94-13.72-.61-20.41,0-41,15.14-85.17,52-102,93.86C473.6,439.1,505.11,421.52,545.79,413.11Z"/><path class="cls-147" d="M753.92,580.43c12.93,10.32-7.59,24-4.08,36.72,8.2-4.08,6.16-17.63,16.32-20.4,12.77,26.32-10.08,40.4-16.32,61.21,1.71-4,12.28-8.36,16.32-8.16,3.22,13.71-3.88,27-16.32,32.65V670.2c-8.29,10.66-6,3.11-12.25-4.08-1.75,11.14-6.65,21.63-8.16,32.65,1.39-.94,4.08,0,4.08,0,7.76-13.67,19.39-4.28,12.24,8.16-4.61,8-12.61,10.74-16.32,0-4.61,29.22,43.91-3,24.49-24.48,23.34-16.2,23.5-40.2,28.56-65.3-.53-3-12.08-4.16-8.16-16.32s8-6.61,12.24-8.16c4.82-.61,8.41,1.75,12.25,4.08-2.7-8.77,7.5-24.57,16.32-16.32-2.33-25.1,2.24-57,0-77.54C800,418.9,704,369.36,627.41,380.46c95.37,9.18,149.07,110.19,126.51,200m40.81-53.06c-.25,5.43.16,10.9,0,16.33-9.35,1.59-13.92-8.45-12.25-16.33-1.51-8.28-2-23.42,4.08-28.56C793.54,507.09,787.83,519.05,794.73,527.37Z"/><path class="cls-148" d="M492.74,384.54c-15.83,9.51-31.91,23.84-49,32.65-33.18,33.22-55.79,84.43-44.89,130.59,1.35,3.47,6.45,8.89,8.16,12.24-.77-12.77,8.12-14.81,12.24-24.48-18.6-17.39,1.19-58,15.31-78.56s30.89-42.73,50-60.19C489.15,392.58,511.59,381.24,492.74,384.54Z"/><path class="cls-149" d="M280.53,409c19.84-10.41,2.78,18.85,0,24.48,8.08-6.93,17.43-10.16,28.57-8.16.49-7.55,4.57-13.91,8.16-20.4a30.48,30.48,0,0,1-20.4,4.08c-3.47-9.22,5.67-13.35,8.16-20.41C299.76,395.81,287.1,400.34,280.53,409Z"/><path class="cls-150" d="M554,396.79c.25,5.87-7.83,3-8.16,8.16,13,2.16,30.89-4.61,40.81,4.08-14-2.65-29.59,1.75-40.81,4.08,21.75-2,55.05-3.75,73.46,4.08,2,0,6.12-.16,8.16,0,23.71,2.08,41,30.44,61.21,40.81-9.71,15.18-1.1,14.73,4.08,24.48,9.06,9.64,8.49,4.21,12.25,20.41,1,4.12,8.2,8,0,12.24-13.39,7-32-34.4-38-43.62s-41-26.08-51.82-29.83c-2,0-7.51.93-8.17,0-5.42-.29-10.89.2-16.32,0-2.24,7.42,7.14,10.08,8.16,16.32h4.08c9.23,4.53,25,20.16,28.57,28.57-2.29-14.21-18.28-20.29-24.49-32.65,26.41-4.94,55,29.3,65.3,53.05,11.18-17.63,7.67,11.83,8.16,20.4-3.43-2.36-10.65-7-12.24,0,15.87,35-20.32,95.66-32.32,126.84s-49.1,61.25-72.76,86.39S501,792.71,472.34,809c7.22-.57,13.22,9.15,12.24,16.33C500,809.57,527.43,806.67,546.12,793s38.2-27.83,56.8-41.14c40.73-34.11,79.17-82.84,98-130.59-13.43,7.72-26.94-3-12.25-16.32,4.41,7.51,5.72,10,12.25,12.24,34.89-43.54,35.38-117.81,3.06-166.29s-96.35-60.15-150-54.07M713.11,539.62c2.16,13.55-6.69,24-8.16,36.72-5.51-8.44-11.19-40.56,8.16-36.72m-36.73,106.1c-4.45,28-28.08,4.61,0,0M656,674.29c-4.45,28-28.08,4.61,0,0m-36.73,40.8c-1,22.82-22.94,1.27,0,0m-28.57,28.57C580.85,764.92,568.24,746.68,590.68,743.66Z"/><path class="cls-151" d="M807,425.35s2,0,4.08,0h12.24C831,402.34,793.42,409.07,807,425.35Z"/><path class="cls-152" d="M953.88,409c-4.57-4.57-17.55,4.28-10.94,10.85S958.82,414,953.88,409Z"/><path class="cls-153" d="M403,449.84c-32.93,42.77-40.64,109.08-4.08,151-23.26-1.92-45.83-27.34-53.05-49-4.29-4.29-17.55-11.67-24.49-8.16,24.08-2-10.24,32.36-8.16,8.16-6.61,12.41,1.06,34.12,8.16,49,28.16,58.89,120.59,68.48,175.48,49,10.69-3.79,15.79-13.63,24.49-20.4-40,16.07-96.84,20.65-134.67-4.08-5.76-3.76-13.47-8.17-12.25-16.33,4.09.45,11.15-1.92,12.25,4.08,32.28,1.39,68.8,18,102,4.08-25.79-7.14-58.72-11.46-73.46-40.81-10.28-11-12.73-13.46-16.32-28.56-10.9-46.16,11.71-97.37,44.89-130.59C427.2,425.76,415.2,434,403,449.84m-49,151C324.69,603.56,350.48,574.22,354,600.83Z"/><path class="cls-154" d="M554,421.27h57.14c-1-1,0-4.08,0-4.08C591.38,417.19,571,417.72,554,421.27Z"/><path class="cls-155" d="M611.09,421.27h4.08c4.08-.2,8.16.16,12.24,0,.2,7.18-6.24,12.53-4.08,20.41,3.3.61,4.65,3.55,8.16,4.08,2.2-3.27-9.14-18.82,8.16-16.33-2.85-3.71-8.32-11-12.24-12.24-2-.16-6.12,0-8.16,0h-8.16S610.07,420.25,611.09,421.27Z"/><path class="cls-156" d="M639.65,429.43c6.41,8.29,10.16,19.18-8.16,16.33-3.51-.53-4.86-3.47-8.16-4.08-2-.37-6.12,0-8.16,0C626,445.43,661,462.24,667,471.51s24.57,50.64,38,43.62c-2.9-6.49-9.55-9.91-12.25-16.32-3.55-8.45,1.15-9.39,0-16.33-5.18-9.75-13.79-9.3-4.08-24.48-20.24-10.37-37.5-38.73-61.21-40.81,3.92,1.27,9.39,8.53,12.24,12.24m28.57,24.49C701.15,451.67,666.22,487,668.22,453.92Z"/><path class="cls-157" d="M419.28,535.54c-4.12,9.67-13,11.71-12.24,24.48,2.7,5.27,4.37,11,8.16,16.32,14.74,29.35,47.67,33.67,73.46,40.81-33.22,13.92-69.74-2.69-102-4.08-8.16,2-7,6.29,0,12.25,37.83,24.73,94.71,20.15,134.67,4.08,8-3.23,17.34-7.47,24.48-12.25,10-7.83,16-23.34,28.57-28.56.77,1.87,13.42,15.55,12.24,8.16,2.57-7.1,5.75-13.35,8.16-20.41,4.9-14.36,8.29-31.74,12.24-44.88-.12-2.05-.12-6.13,0-8.17.78-10.85-.32-18.93-4.08-28.56-6.2-15.8-24.6-24.69-28.56-40.81-8,0-16.49-.78-24.49,0s-21.79,7.87-32.64,4.08c2.44-7.43,10.44-8.77,16.32-12.24a112.54,112.54,0,0,1,28.57-8.16c3.18-1.68,6.69-6.41,12.24-4.09-3.19-5.95-15.88-2.53-8.16-12.24H554c-69.74.33-111.24,59.38-134.67,114.27m122.43-53.06c64.89,12.74,9.75,135.2-54,102.92S479.19,470.2,541.71,482.48Z"/><path class="cls-158" d="M562.12,437.6c13.71-1.84,31.09-1.27,44.88,0,4.09-.25,8.17.2,12.25,0,1.67-6.37-1.88-11-4.08-16.33h-49c-7.72,9.71,5,6.29,8.16,12.24C568.81,431.19,565.3,435.92,562.12,437.6Z"/><path class="cls-159" d="M607,437.6c-.12,0,0,4.08,0,4.08.66.93,6.13,0,8.17,0s6.2-.37,8.16,0c-2.16-7.88,4.28-13.23,4.08-20.41-4.08.16-8.16-.2-12.24,0,2.2,5.35,5.75,10,4.08,16.33C615.17,437.8,611.09,437.35,607,437.6Z"/><path class="cls-160" d="M631.49,445.76c18.32,2.85,14.57-8,8.16-16.33C622.35,426.94,633.69,442.49,631.49,445.76Z"/><path class="cls-161" d="M533.55,445.76c-11.26.45,12,7.87,16.32,8.16,8-.78,16.45,0,24.49,0,3.87,0,8.45-.61,12.24,0,4.61.73,6.77,4,12.24,4.08-1-6.24-10.4-8.9-8.16-16.32,5.43.2,10.9-.29,16.32,0,0,0-.12-4.08,0-4.08-13.79-1.27-31.17-1.84-44.88,0A112.54,112.54,0,0,0,533.55,445.76Z"/><path class="cls-162" d="M219.32,462.08c1.88-3.14,9.47-6,12.24-8.16,2.58,13.55-2.08,14.12-12.24,16.32,7.55,23.39,25.75-14.57,12.24-24.48C228,450,221.4,456,219.32,462.08Z"/><path class="cls-163" d="M549.87,453.92c-4.32-.29-27.58-7.71-16.32-8.16-5.88,3.47-13.88,4.81-16.32,12.24C528.08,461.79,541.91,454.69,549.87,453.92Z"/><path class="cls-164" d="M631.49,486.57c.33,2-.2,6.12,0,8.16.57,6,3.22,10.16,4.08,16.32,5.39,19.06,2.45,31.26-4.08,49a145.34,145.34,0,0,1-12.24,32.65c-4.82,9.51-10.2,20-16.33,28.56-18.48,25.92-47.09,48.81-69.37,69.38-7.39,9.51-16.94,12.16-16.32,24.48,5,.94,8.2-2.16,12.24-4.08,17.55-9.38,38-24.11,53-36.72,45.62-38.24,69.13-97.41,69.37-155.08,9.31-3.47,10.57,4.7,16.33,8.16,1.59-7,8.81-2.36,12.24,0-.49-8.57,3-38-8.16-20.4C662,483.22,633.41,449,607,453.92,613.21,466.28,629.2,472.36,631.49,486.57Z"/><path class="cls-165" d="M219.32,462.08a20.38,20.38,0,0,0,0,8.16c10.16-2.2,14.82-2.77,12.24-16.32C228.79,456.08,221.2,458.94,219.32,462.08Z"/><path class="cls-166" d="M602.92,494.73c6.29,1.51,9.8-5.84,16.33-4.08,17.83,19.75,8,45.58,4.08,69.37-10.86-8,2.94-29-8.16-36.73,6.77,13.55-.29,47.87-4.08,61.22.73,9.1,8.69,11.14,8.16,8.16A145.34,145.34,0,0,0,631.49,560c3.51-14.93,6.37-32.85,4.08-49-.86-6.16-3.51-10.32-4.08-16.32-.73-1.1-3.39-2.74-4.08-4.08-7.63-7.8-32.61-33.55-40.81-36.73-3.79-.61-8.37,0-12.24,0C578.32,470,596.72,478.93,602.92,494.73Z"/><path class="cls-167" d="M627.41,490.65C621.12,478,610.88,469.39,602.92,458h-4.08c-5.47,0-7.63-3.35-12.24-4.08C594.8,457.1,619.78,482.85,627.41,490.65Z"/><path class="cls-168" d="M627.41,490.65c.69,1.34,3.35,3,4.08,4.08-.2-2,.33-6.16,0-8.16-3.55-8.41-19.34-24-28.57-28.57C610.88,469.39,621.12,478,627.41,490.65Z"/><path class="cls-169" d="M317.26,494.73c5-9,7.39-25.18,0-32.65C312.24,471.06,309.88,487.26,317.26,494.73Z"/><path class="cls-170" d="M974.28,462.08c-11.75-1.59-13.75,11.75-12.24,20.4C978.53,485.59,977.1,472.85,974.28,462.08Z"/><path class="cls-171" d="M839.61,478.4c.41.82,4.09,8.12,4.09,8.17,2.69,1.34,17.58,1.14,20.4,0,.69-.29,8.08-10.86,8.16-12.25C863.45,475.87,842.55,462,839.61,478.4Z"/><path class="cls-172" d="M541.71,482.48c-62.52-12.28-117.65,70.69-54,102.92S606.6,495.22,541.71,482.48Z"/><path class="cls-173" d="M692.7,498.81c1.84,2.77,14.94,7.43,12.25,4.08-3.76-16.2-3.19-10.77-12.25-20.41C693.85,489.42,689.15,490.36,692.7,498.81Z"/><path class="cls-174" d="M855.94,539.62c-.94-.62-.86-6.57,0-8.16,2.69-5,17.67-6,20.4,0,.08-11.72-13.5-36.24-12.24-44.89-2.82,1.14-17.71,1.34-20.4,0C847.61,499.13,845.37,531.94,855.94,539.62Z"/><path class="cls-175" d="M602.92,494.73c3.76,9.63,4.86,17.71,4.08,28.56,2-5.26,6.45-1.75,8.17,0,11.1,7.72-2.7,28.73,8.16,36.73,3.88-23.79,13.75-49.62-4.08-69.37C612.72,488.89,609.21,496.24,602.92,494.73Z"/><path class="cls-176" d="M705,515.13c8.2-4.28,1-8.12,0-12.24,2.69,3.35-10.41-1.31-12.25-4.08C695.4,505.22,702.05,508.64,705,515.13Z"/><path class="cls-177" d="M782.48,527.37c2.17-3.59,10-3.26,12.25,0-6.9-8.32-1.19-20.28-8.17-28.56C780.48,504,781,519.09,782.48,527.37Z"/><path class="cls-178" d="M631.49,560c6.53-17.71,9.47-29.91,4.08-49C637.86,527.17,635,545.09,631.49,560Z"/><path class="cls-179" d="M607,523.29c-.12,2-.12,6.12,0,8.17,1.35,19.38-5.22,29.79-12.24,44.88-2.41,7.06-5.59,13.31-8.16,20.41-1.88,5.14-2.49,10.9-4.08,16.32,1.8,22.33,27.14-23.46,28.57-28.56,3.79-13.35,10.85-47.67,4.08-61.22C613.45,521.54,609.05,518,607,523.29Z"/><path class="cls-180" d="M582.52,674.29c5.71-2.78,9.1-9.39,16.32-8.17,2.17,10-2.36,20.94-12.24,24.49-15.87-20.65-38,29.26-57.13,36.73-99.66,112-300.48,140.38-424.41,49,111.89,174.21,407,132.26,530.51-12.24,9.92-12.61,22.16-25.47,32.65-36.73-5.63-10.45-20.12-5.55-28.57-12.25-10.2,13.15-22.89,26.86-36.73,36.73-18.6,13.31-38.15,27.39-56.8,41.14S500,809.57,484.58,825.28c-1,1-4.08,0-4.08,0-40.12,22-99.86,29.18-142.83,28.56,40.4-14.4,86.51-21.13,126.5-40.8,2.7-1.31,5.68-2.66,8.17-4.09,28.68-16.24,67.13-43.25,90.8-68.35s60.72-55.25,72.76-86.39,48.19-91.86,32.32-126.84c-5.76-3.46-7-11.63-16.33-8.16-.24,57.67-23.75,116.84-69.37,155.08M252,853.84c-7.88,9.23-21.26-4.73-32.65,0C227.32,844.46,242,852.25,252,853.84Z"/><path class="cls-181" d="M782.48,527.37c-1.67,7.88,2.9,17.92,12.25,16.33.16-5.43-.25-10.9,0-16.33C792.52,524.11,784.65,523.78,782.48,527.37Z"/><path class="cls-182" d="M855.94,531.46c8.49-3.68,20,1.79,16.32,12.24-6.61-13.22-6.85,2.77-16.32-4.08,3.39,5.42,9.38,15.55,16.32,8.16,1.35-6.37,4-9.1,4.08-16.32C873.61,525.46,858.63,526.44,855.94,531.46Z"/><path class="cls-183" d="M594.76,576.34c7-15.09,13.59-25.5,12.24-44.88C603.05,544.6,599.66,562,594.76,576.34Z"/><path class="cls-184" d="M855.94,539.62c9.47,6.85,9.71-9.14,16.32,4.08,3.67-10.45-7.83-15.92-16.32-12.24C855.08,533.05,855,539,855.94,539.62Z"/><path class="cls-185" d="M713.11,539.62c-19.35-3.84-13.67,28.28-8.16,36.72C706.42,563.61,715.27,553.17,713.11,539.62Z"/><path class="cls-186" d="M313.18,551.86c-2.08,24.2,32.24-10.2,8.16-8.16C317.1,545.82,315.47,547.53,313.18,551.86Z"/><path class="cls-187" d="M415.2,576.34c-3.79-5.3-5.46-11.05-8.16-16.32-1.71-3.35-6.81-8.77-8.16-12.24C402.47,562.88,404.92,565.33,415.2,576.34Z"/><path class="cls-188" d="M839.61,621.23a14.71,14.71,0,0,1,0,4.09c5.68-3.19,9.92-3.56,12.25,4.08,4.45-9.92,9.22-21.06,12.24-32.65V572.26C843.49,576.67,847.82,603.89,839.61,621.23Z"/><path class="cls-189" d="M582.52,613.07C576.85,632.46,571.71,645.15,554,658c16.12-9.38,36.12-21.42,49-36.73,6.13-8.57,11.51-19.05,16.33-28.56.53,3-7.43.94-8.16-8.16C609.66,589.61,584.32,635.4,582.52,613.07Z"/><path class="cls-190" d="M545.79,617.15c10.45-6.93,18.49-17.42,28.57-24.48,0-2,0-4.08,0-4.08C561.83,593.81,555.83,609.32,545.79,617.15Z"/><path class="cls-191" d="M574.36,592.67c-.57,29.22-37.87,55.54-57.13,73.45,3.14-.24,8,4,12.24,4.08,7.87-3.87,16.44-7.54,24.48-12.24,17.76-12.81,22.9-25.5,28.57-44.89,1.59-5.42,2.2-11.18,4.08-16.32,1.18,7.39-11.47-6.29-12.24-8.16C574.36,588.59,574.4,590.63,574.36,592.67Z"/><path class="cls-192" d="M782.48,617.15c1.59-7.75,14.49-13.87,4.08-24.48-4.2,1.55-8.32-4-12.24,8.16S782,614.13,782.48,617.15Z"/><path class="cls-193" d="M545.79,617.15c-7.14,4.78-16.49,9-24.48,12.25-8.7,6.77-13.8,16.61-24.49,20.4h16.32c-2.2,3.51-4.93,9.43-8.16,12.24,7.19-.61-3.91,8.65,4.08,8.16,2-1.38,6.61-2.65,8.17-4.08,19.26-17.91,56.56-44.23,57.13-73.45C564.28,599.73,556.24,610.22,545.79,617.15Z"/><path class="cls-194" d="M700.87,621.23s-1-2.85,0-4.08c-6.53-2.2-7.84-4.73-12.25-12.24C673.93,618.21,687.44,629,700.87,621.23Z"/><path class="cls-195" d="M386.64,625.32c-7-6-8.16-10.21,0-12.25-1.1-6-8.16-3.63-12.25-4.08C373.17,617.15,380.88,621.56,386.64,625.32Z"/><path class="cls-196" d="M554,658c-8,4.7-16.61,8.37-24.48,12.24-3.35,1.68-2.9,3.56-8.16,4.09-5.51,3.38-9.55,8.93-16.33,12.24-12.61,6.2-25.91,15.51-40.81,16.32,3.92-6.41,9.47-13.26,16.33-16.32,5.87-6.2,13.87-13.59,20.4-20.41-28,13.76-55.87,20.94-85.7,28.57C395,699.83,358.85,711.5,337.67,711c-.45.17-4.41,14.94-12.25,8.17V706.93c-8.93,2.66,6.17,25.75,4.09,24.49,63.37,16.44,151.44-6.86,204-40.81,22.28-20.57,50.89-43.46,69.37-69.38-12.85,15.31-32.85,27.35-49,36.73M439.69,711c-.37-.08-1-6.81,0-8.16,16.93-24,17.06,32.28,0,8.16M403,711C401.86,735.83,378,708.44,403,711Z"/><path class="cls-197" d="M839.61,625.32c-1.22,8.61.45,22.07,12.25,20.4,1.55-4.73-2-11.79,0-16.32C849.53,621.76,845.29,622.13,839.61,625.32Z"/><path class="cls-198" d="M198.92,649.8c8.44,8.45,17.79,1.1,24.48,0-2.89-9.79-10.93-16-16.32-24.48C195.29,630,196.06,640.7,198.92,649.8Z"/><path class="cls-199" d="M223.4,649.8c-6.69,1.1-16,8.45-24.48,0,7.71,24.61,46.44,53.13,69.37,61.21,4.74-8.65-3-14.24,8.16-20.4,1.55-.86,4.08,0,4.08,0,5,.49,7.8,2,12.25,4.08,1.87,8.81-12.12,12.2-4.08,20.4,12.48,3.84,26.85,12.7,40.81,16.33,2.08,1.26-13-21.83-4.09-24.49,5.64-1.67,7.31,4,12.25,4.08,21.18.49,57.37-11.18,77.53-16.32-19.75-14.12-71,4.24-101.73-8.45s-72.68-11.46-81.91-44.6C225.77,641.8,228.46,648.94,223.4,649.8Z"/><path class="cls-200" d="M749.84,658c-.94,3.1-.17,9,0,12.24v12.25c12.44-5.67,19.54-18.94,16.32-32.65C762.12,649.6,751.55,653.92,749.84,658Z"/><path class="cls-201" d="M823.29,686.53c11.26-5.63,26.45-29.51,12.24-36.73C835.74,663.92,822.48,672.65,823.29,686.53Z"/><path class="cls-202" d="M500.9,666.12c-6.53,6.82-14.53,14.21-20.4,20.41,8.2-5.55,19.46-10.12,28.56-16.33-8,.49,3.11-8.77-4.08-8.16C503.88,663,501.92,665.06,500.9,666.12Z"/><path class="cls-203" d="M509.06,670.2C500,676.41,488.7,681,480.5,686.53c-6.86,3.06-12.41,9.91-16.33,16.32,14.9-.81,28.2-10.12,40.81-16.32,8.82-6.25,8.53-11.47,16.33-12.24,5.26-.53,4.81-2.41,8.16-4.09-4.21,0-9.1-4.32-12.24-4.08C515.67,667.55,511.1,668.82,509.06,670.2Z"/><path class="cls-204" d="M582.52,674.29c-15.06,12.61-35.5,27.34-53,36.72,0,0,.86,3.64,0,4.08,13.95-3.83,4.08,4.41,0,12.25,19.18-7.47,41.26-57.38,57.13-36.73,9.88-3.55,14.41-14.45,12.24-24.49C591.62,664.9,588.23,671.51,582.52,674.29Z"/><path class="cls-205" d="M505,686.53c6.78-3.31,10.82-8.86,16.33-12.24C513.51,675.06,513.8,680.28,505,686.53Z"/><path class="cls-206" d="M268.29,711c6.69,2.37,13.84,2.09,20.41,4.08-8-8.2,5.95-11.59,4.08-20.4-4.45-2.12-7.27-3.59-12.25-4.08,26.08,13.79-22.32,21.22-4.08,0C265.27,696.77,273,702.36,268.29,711Z"/><path class="cls-207" d="M280.53,690.61s-2.53-.86-4.08,0C258.21,711.83,306.61,704.4,280.53,690.61Z"/><path class="cls-208" d="M733.51,698.77c.33,8.45,3.23,16.61,12.24,8.16C752.9,694.49,741.27,685.1,733.51,698.77Z"/><path class="cls-209" d="M439.69,702.85c3.92-.73,8.28.61,12.24,0,2.61,8.29-6.9,8.41-12.24,8.16C456.75,735.13,456.62,678.9,439.69,702.85Z"/><path class="cls-210" d="M729.43,706.93c3.71,10.74,11.71,8,16.32,0-9,8.45-11.91.29-12.24-8.16,0,0-2.69-.94-4.08,0C729.15,700.77,730.25,705.26,729.43,706.93Z"/><path class="cls-211" d="M439.69,711c5.34.25,14.85.13,12.24-8.16-4,.61-8.32-.73-12.24,0C438.71,704.2,439.32,710.93,439.69,711Z"/><path class="cls-212" d="M337.67,711c-4.94-.12-6.61-5.75-12.25-4.08v12.25C333.26,726,337.22,711.18,337.67,711Z"/><path class="cls-213" d="M953.88,723.26c-17-2.37-21.75,24.77-4.2,28.44S967,725.09,953.88,723.26Z"/><path class="cls-214" d="M684.54,772.23c9.22,2.45,34.89-20.82,25.51-29.39S681.44,762.8,684.54,772.23Z"/><path class="cls-215" d="M268.29,780.39c-10.12-5.22-24.89,9.3-13.18,17.18S279.8,786.31,268.29,780.39Z"/><path class="cls-216" d="M337.67,788.55c-9.39-.45-26-1.8-24.49,12.24C322.81,800.18,342.32,805,337.67,788.55Z"/><path class="cls-217" d="M464.17,813c-4.16,9.5,10.45,13,16.33,12.24,0,0,3.06,1,4.08,0,1-7.18-5-16.9-12.24-16.33C469.85,810.38,466.87,811.73,464.17,813Z"/><path class="cls-218" d="M635.57,813c-3.18,4.2-3.63,11.91,4.08,12.24,8-1.76,8.2-10.9,12.24-16.33C645.45,807.49,640.88,810.63,635.57,813Z"/><path class="cls-219" d="M480.5,825.28c-5.88.77-20.49-2.74-16.33-12.24-40,19.67-86.1,26.4-126.5,40.8C380.64,854.46,440.38,847.23,480.5,825.28Z"/><path class="cls-220" d="M639.65,825.28c-7.71-.33-7.26-8-4.08-12.24-7,4.12-16.53,11.34-16.32,20.4C628,835.64,634.14,829.52,639.65,825.28Z"/><path class="cls-221" d="M252,853.84c-10-1.59-24.65-9.38-32.65,0C230.71,849.11,244.09,863.07,252,853.84Z"/><path class="cls-222" d="M921.23,898.73c-13.59-30.44-49.05-28.19-61.21,0,10.2,9.68,18.85,24.41,32.65,32.65C902.5,920.85,909.11,906.81,921.23,898.73Z"/><path class="cls-223" d="M505,898.73c-9.46-1.34-16.57,4.45-24.48,8.17C484.42,921.67,506.49,910.45,505,898.73Z"/><path class="cls-224" d="M154,906.9c-18.37-7.31-35.59,25.22-15,35.38S172.51,914.24,154,906.9Z"/></svg>