<svg id="Layer_1" data-name="Layer 1" xmlns="http://www.w3.org/2000/svg" viewBox="0 0 1080 1080"><defs><style>.cls-1{fill:#0c1523;}.cls-10,.cls-11,.cls-12,.cls-13,.cls-14,.cls-15,.cls-16,.cls-17,.cls-18,.cls-19,.cls-2,.cls-20,.cls-21,.cls-22,.cls-23,.cls-24,.cls-25,.cls-26,.cls-27,.cls-28,.cls-29,.cls-3,.cls-30,.cls-31,.cls-32,.cls-33,.cls-34,.cls-35,.cls-36,.cls-37,.cls-38,.cls-39,.cls-4,.cls-40,.cls-41,.cls-42,.cls-43,.cls-44,.cls-45,.cls-46,.cls-47,.cls-48,.cls-49,.cls-5,.cls-50,.cls-51,.cls-52,.cls-53,.cls-54,.cls-55,.cls-56,.cls-57,.cls-58,.cls-59,.cls-6,.cls-7,.cls-8,.cls-9{fill:none;stroke-width:1.22px;}.cls-2{stroke:#bbbbba;}.cls-3{stroke:#10111b;}.cls-4{stroke:#1f1e1f;}.cls-5{stroke:#797b7c;}.cls-6{stroke:#e3d9c5;}.cls-7{stroke:#e4e1de;}.cls-8{stroke:#4c1c3e;}.cls-9{stroke:#29152a;}.cls-10{stroke:#908586;}.cls-11{stroke:#663a4b;}.cls-12{stroke:#692549;}.cls-13{stroke:#90344c;}.cls-14{stroke:#5b2142;}.cls-15{stroke:#6d2452;}.cls-16{stroke:#dedcdb;}.cls-17{stroke:#431b36;}.cls-18{stroke:#b24a60;}.cls-19{stroke:#d45b52;}.cls-20{stroke:#a63c67;}.cls-21{stroke:#69264c;}.cls-22{stroke:#e35c3c;}.cls-23{stroke:#491b3a;}.cls-24{stroke:#9e354a;}.cls-25{stroke:#f47c31;}.cls-26{stroke:#f89637;}.cls-27{stroke:#cd443d;}.cls-28{stroke:#f89c3d;}.cls-29{stroke:#fcc25d;}.cls-30{stroke:#f89f3a;}.cls-31{stroke:#f9bf5e;}.cls-32{stroke:#f47930;}.cls-33{stroke:#966d33;}.cls-34{stroke:#ca4740;}.cls-35{stroke:#f9a144;}.cls-36{stroke:#07060a;}.cls-37{stroke:#faa645;}.cls-38{stroke:#f08830;}.cls-39{stroke:#210f24;}.cls-40{stroke:#f6863a;}.cls-41{stroke:#b33b46;}.cls-42{stroke:#5b2045;}.cls-43{stroke:#b33c45;}.cls-44{stroke:#f68a32;}.cls-45{stroke:#d0473f;}.cls-46{stroke:#62244a;}.cls-47{stroke:#d14f4d;}.cls-48{stroke:#b53b46;}.cls-49{stroke:#f89744;}.cls-50{stroke:#f4783a;}.cls-51{stroke:#e27152;}.cls-52{stroke:#f89c42;}.cls-53{stroke:#531e3f;}.cls-54{stroke:#a6356a;}.cls-55{stroke:#63254b;}.cls-56{stroke:#5f2041;}.cls-57{stroke:#ebe5da;}.cls-58{stroke:#a1404a;}.cls-59{stroke:#652748;}.cls-60{fill:#bbbbba;}.cls-61{fill:#10111b;}.cls-62{fill:#1f1e1f;}.cls-63{fill:#797b7c;}.cls-64{fill:#e3d9c5;}.cls-65{fill:#e4e1de;}.cls-66{fill:#4c1c3e;}.cls-67{fill:#29152a;}.cls-68{fill:#908586;}.cls-69{fill:#663a4b;}.cls-70{fill:#692549;}.cls-71{fill:#90344c;}.cls-72{fill:#5b2142;}.cls-73{fill:#6d2452;}.cls-74{fill:#dedcdb;}.cls-75{fill:#431b36;}.cls-76{fill:#b24a60;}.cls-77{fill:#d45b52;}.cls-78{fill:#a63c67;}.cls-79{fill:#69264c;}.cls-80{fill:#e35c3c;}.cls-81{fill:#491b3a;}.cls-82{fill:#9e354a;}.cls-83{fill:#f47c31;}.cls-84{fill:#f89637;}.cls-85{fill:#cd443d;}.cls-86{fill:#f89c3d;}.cls-87{fill:#fcc25d;}.cls-88{fill:#f89f3a;}.cls-89{fill:#f9bf5e;}.cls-90{fill:#f47930;}.cls-91{fill:#966d33;}.cls-92{fill:#ca4740;}.cls-93{fill:#f9a144;}.cls-94{fill:#07060a;}.cls-95{fill:#faa645;}.cls-96{fill:#f08830;}.cls-97{fill:#210f24;}.cls-98{fill:#f6863a;}.cls-99{fill:#b33b46;}.cls-100{fill:#5b2045;}.cls-101{fill:#b33c45;}.cls-102{fill:#f68a32;}.cls-103{fill:#d0473f;}.cls-104{fill:#62244a;}.cls-105{fill:#d14f4d;}.cls-106{fill:#b53b46;}.cls-107{fill:#f89744;}.cls-108{fill:#f4783a;}.cls-109{fill:#e27152;}.cls-110{fill:#f89c42;}.cls-111{fill:#531e3f;}.cls-112{fill:#a6356a;}.cls-113{fill:#63254b;}.cls-114{fill:#5f2041;}.cls-115{fill:#ebe5da;}.cls-116{fill:#a1404a;}.cls-117{fill:#652748;}</style></defs><title>avatar-blackhole</title><rect class="cls-1" width="1080" height="1080"/><path class="cls-2" d="M102.72,47.83c97.65,2.16,196.25-2.9,293.82,0s196.58-5.55,293.83,0,197.35-11.88,293.82,0c-50-20.41-119.12,2.2-175.48-4.08s-121.94,2.36-179.56,0-117.53-.17-175.48,0-122.14-2.7-179.55,0S155.93,34.65,102.72,47.83Z"/><path class="cls-3" d="M37.43,117.2c-9.59,141-1.19,287.22,0,428.49s-12.78,287.91,0,428.5c17.5,84.55,98.51,64.11,171.39,65.29s160.63-1.88,236.69,0,159.4-3.83,236.69,0,159.2-8.36,236.69,0,137-19.42,130.59-102,3.06-157,0-236.69,1.72-159.32,0-236.69,1.47-162.71,0-236.69S1068.7,81.25,992.35,51.91c-96.63-13.79-200.17,4.65-297.9,0s-200.17-1.43-297.91,0-199.8-6.65-293.82-4.08C67.13,56.64,40.08,78.31,37.43,117.2m253,16.33c18.49,4.73,12.73,44.31-9.1,37.58s-15.06-43.75,9.1-37.58m138.75,12.24c-16.41,24.32-24.73-12,0,0m399.93,20.4c-1.31-.81-4-2.65-4.09-4.08-4.85,1.68-15.26.49-20.4,0-14.2-1.38-30.52-5.83-44.89-8.16,5.47-17.42,37.59-4.28,49,0,4.29,1.14,13.22-.61,16.32,4.08,10-.94,12-4.24,20.41-8.16,3.51-1.63,5.1-12,12.24-8.16-.24,11.38,9.18,18.4,16.33,24.48-3.47,9.59-17.31,13.18-16.33,24.49-14.4,0-14.85-20.9-28.56-24.49M686.28,149.85C643.76,164,586.22,162.91,540.72,175.68s-87.09,25.87-131.93,39.46c24.77-35.79,78-40.15,122.42-53s106.92-24,155.07-12.24M878.09,260c-100.43-36.72-210-54.11-318.31-57.13,106.71-20.69,236.08-20,318.31,57.13m53-65.29c12.93,1.59,39.3,46.73,21.63,43.42s-42.93-46-21.63-43.42m-555,16.32C367.49,238.61,324,244.73,298.6,256c15.79-22,50.32-36.68,77.54-44.89M147.61,802.79c2.57,3.71,5.3,9.14,8.16,12.24,11.31,12.33,28.4,21.75,36.73,36.73-47.42-20.53-75.09-58.68-91.09-108.88S98,620.78,118.76,574s47.58-81.74,78.84-121.12,67.42-67.26,104.06-100,85.13-46.6,122.22-77.74,78.52-52.19,136.18-55.62,130.67-.9,183.4,16,82.84,12.57,127.48,52.07,56.85,83.21,60.2,139.77-17.59,111.73-40.48,159.48-52.53,78-86,118c70.11-44.69,109.45-111.65,146-188.66s13-191.88-52.11-252.08c138.1,79.87,90.55,272,11.22,378.51S720.4,834.7,596.51,876.25c8.52-16,28.44-17,40.8-28.57-46.76,6.57-94.51,31-146.95,40.77s-124.75,12.49-175.48-4S230,851.15,193.52,809.93s-46.93-90.88-50-145.89,20-104.51,44.89-151c-72.93,62-103,201.47-40.81,289.74M168,227.39c19.39,4.93,10.61,43-10.93,35.34S146.67,221.92,168,227.39m285.66,12.24a7,7,0,0,1-4.08,0c-37.42,30-91.2,44.44-131.52,72.52S239,373.65,196.58,394.7C251.79,317.45,338.35,268,425.11,239.63c1.47-.94,4.08,0,4.08,0,8.41-10.94,22.61-13.1,36.73-12.24-2.74,4.89-6.7,10.53-12.25,12.24m510.11,0c30,3.14-1.75,30.16,0,0M274.12,264.11C237,317.21,173.56,363.57,123.12,407c30.77-60.24,95.78-106.8,151-142.84M176.18,411c-25.35,40.85-57.67,88.31-89.78,122.42,15.58-47.21,45.87-96,89.78-122.42m812.09,212.2C952.6,713,879,795.65,792.39,839.52c69.86-63.38,140.75-143.16,195.88-216.29M955.62,782.39c-66.07,78.1-165.93,148.83-265.25,167.31,42.8-28.52,97.28-46.15,141.6-74.68s81.13-67.41,123.65-92.63M772,823.19C674.45,912.4,533.9,955.7,396.54,949.7c20.77-21.67,69.95-11.3,102.07-20.36s71.25-12.16,102.06-24.45,59.25-23.75,88.43-38,51.91-35,82.88-43.67m-583.56,102c-38.73-2.57-63.66-48.28-81.62-77.54,30.81,18.24,56.36,51.34,81.62,77.54M923,884.41c21.3,1.71,19.95,41.83-2.86,39.34s-20.24-41.18,2.86-39.34M229.23,908.89a342.26,342.26,0,0,0,77.53,32.65c-22.11,19.79-65.13-11.79-89.78-24.49-10.61-6.93-24.93-12.52-20.4-28.56C211.88,885.14,217.27,904.16,229.23,908.89Z"/><path class="cls-4" d="M992.35,51.91c-3.75-1.43-2.45-3.39-8.16-4.08-96.47-11.88-196.58,5.55-293.82,0s-196.25,2.9-293.83,0-196.17,2.16-293.82,0c94-2.57,196.09,5.51,293.82,4.08s200.21-4.65,297.91,0S895.72,38.12,992.35,51.91Z"/><path class="cls-5" d="M37.43,974.19c-12.78-140.59,1.18-287.22,0-428.5s-9.59-287.53,0-428.49c-16,89.25-1.68,192.13-4.09,285.66s-3.63,196.62,0,289.75S19.1,885.75,37.43,974.19Z"/><path class="cls-6" d="M290.44,133.53c-24.16-6.17-30.93,30.89-9.1,37.58S308.93,138.26,290.44,133.53Z"/><path class="cls-7" d="M845.44,149.85c-5.47,3.71-9.88,14.41-16.32,16.32,13.71,3.59,14.16,24.49,28.56,24.49-1-11.31,12.86-14.9,16.33-24.49-7.15-6.08-16.57-13.1-16.33-24.48C850.54,137.89,849,148.22,845.44,149.85Z"/><path class="cls-8" d="M686.28,149.85c-48.15-11.75-110.63-.61-155.07,12.24s-97.65,17.26-122.42,53c44.84-13.59,86.39-26.73,131.93-39.46S643.76,164,686.28,149.85Z"/><path class="cls-9" d="M804.63,162.09c-7.84-3.83-.12-7.67,4.08-8.16-11.38-4.28-43.5-17.42-49,0C774.11,156.26,790.43,160.71,804.63,162.09Z"/><path class="cls-10" d="M825,158c.94,1.43,0,4.08,0,4.08.13,1.43,2.78,3.27,4.09,4.08,6.44-1.91,10.85-12.61,16.32-16.32C837,153.77,835,157.07,825,158Z"/><path class="cls-11" d="M804.63,162.09c5.14.49,15.55,1.68,20.4,0,0,0,.94-2.65,0-4.08-3.1-4.69-12-2.94-16.32-4.08C804.51,154.42,796.79,158.26,804.63,162.09Z"/><path class="cls-12" d="M878.09,260c-82.23-77.17-211.6-77.82-318.31-57.13C668.12,205.92,777.66,223.31,878.09,260Z"/><path class="cls-13" d="M931.14,194.74c-21.3-2.61,4,40.16,21.63,43.42S944.07,196.33,931.14,194.74Z"/><path class="cls-14" d="M376.14,211.06c-27.22,8.21-61.75,22.86-77.54,44.89C324,244.73,367.49,238.61,376.14,211.06Z"/><path class="cls-15" d="M155.77,815c4.65,11.1,2.41,5.55-9.18,1s-.29-22,1-13.22C85.46,714.52,115.49,575,188.42,513.05c-24.9,46.48-47.95,96-44.89,151s13.42,104.67,50,145.89,70.68,58,121.36,74.52,123,13.79,175.48,4,100.19-34.2,146.95-40.77C625,859.27,605,860.29,596.51,876.25c123.89-41.55,233.83-127.2,313.2-233.63S1036.59,344,898.49,264.11c65.13,60.2,88.68,175.07,52.11,252.08s-75.86,144-146,188.66c33.5-40,63.09-70.31,86-118s43.82-102.92,40.48-159.48-15.59-100.27-60.2-139.77-74.8-35.18-127.48-52.07-125.69-19.39-183.4-16S460.94,244,423.88,275.13s-85.57,45-122.22,77.74-72.8,60.6-104.06,100S139.53,527.17,118.76,574s-33.34,118.71-17.35,168.9,43.67,88.35,91.09,108.88c-8.33-15-25.42-24.4-36.73-36.73m448.9-579.48c-29.06,3.06-67.83,20.44-97.94,16.32,30.19-12,62.47-16.53,93.86-24.48,9.91-1,25.95-2.45,32.64,4.08-8,6.49-19,3.26-28.56,4.08m195.88,363.2c-4.45,6.85-9.43,12.73-12.24,20.4,12.32,2.49,10.48-14.28,20.4-16.32,36.81-37.91,68.76-93.5,73.46-146.91,1.47-16.49,1.91-36.61,0-53.06-11.47-47.78-37.75-87.78-77.54-118.34,31.18,8.36,47.5,32.28,68.36,58.15s25.46,65.7,24.15,99.66-11.59,74.84-26.28,104.3S846.54,602.91,824,626.29s-36.32,44.4-61.21,65.3-47.66,37.91-75.49,55.09-55.87,26.81-86.81,39.71-62.35,21-96.51,30-84.51,7.47-119.77,2.82-66.64-12.37-96.6-29.88-41-40.89-59.62-66.88-11.59-83.05-31.42-91.05c11,20.69-17.43,47.1,0,73.5s5.06,27.46,24.24,61.46,64.31,61,99.12,72.27,41.18,10.65,72.56,13.14,54.77,1.67,84.35-1.35,40.32-7.34,70.81-14.89S575,827,611.56,813.77,695,778.39,728.11,758.92s24-14.4,52-33.67c10.16-7,20.36-14.44,32.64-16.32-9.55,9.71-21.59,19.67-32.64,28.57-65.26,58-141.08,70.84-220.45,106s-198,26.81-273.38-8S142,708,188.42,627.31c31.42-54.56,39.22-124.83,90.8-170.37S367,369.73,430.13,342.59,575.9,284.8,649.56,296.76c4.08-.53,11.14,2,12.24-4.08-5.22-1.14-14.28,3.1-16.32-4.08-165.61-18.49-323,78.72-432.58,195.88,119.21-174.82,363-273.54,567.25-200,.44,27.59,43.13,42.44,56.8,77.86s24.24,90,11.22,128.92S823.89,565.94,800.55,598.75Z"/><path class="cls-16" d="M168,227.39c-21.34-5.47-32.48,27.75-10.93,35.34S187.4,232.32,168,227.39Z"/><path class="cls-17" d="M429.19,239.63c6.16-1.43,33.5-15.88,24.48,0,5.55-1.71,9.51-7.35,12.25-12.24C451.8,226.53,437.6,228.69,429.19,239.63Z"/><path class="cls-18" d="M604.67,235.55c-5.43-.21-10.9.16-16.33,0,1-6.82,11.63-.7,12.25-8.16-31.39,8-63.67,12.48-93.86,24.48C536.84,256,575.61,238.61,604.67,235.55Z"/><path class="cls-19" d="M604.67,235.55c9.55-.82,20.52,2.41,28.56-4.08-6.69-6.53-22.73-5.1-32.64-4.08-.62,7.46-11.27,1.34-12.25,8.16C593.77,235.71,599.24,235.34,604.67,235.55Z"/><path class="cls-20" d="M429.19,239.63s-2.61-.94-4.08,0c.16,12.32,16.12,1.35,24.48,0a7,7,0,0,0,4.08,0C462.69,223.75,435.35,238.2,429.19,239.63Z"/><path class="cls-21" d="M449.59,239.63c-8.36,1.35-24.32,12.32-24.48,0C338.35,268,251.79,317.45,196.58,394.7c42.4-21.05,81.17-54.48,121.49-82.55S412.17,269.66,449.59,239.63Z"/><path class="cls-22" d="M645.48,288.6c37.66,4.2,106.67,20,130.58,53,11.68,16.12.29,21.67-13.26,13.22s-16-21.22-27.54-29.54c-27.75-9.76-58-24.08-85.7-28.57-73.66-12-156.38,18.69-219.43,45.83s-99.37,68.8-150.91,114.35-59.38,115.81-90.8,170.37c1.1,10.78,1.51,3.59,8.16,4.08,19.83,8,12.77,65,31.42,91.05s29.63,49.34,59.62,66.88,61.3,25.26,96.6,29.88,85.62,6.16,119.77-2.82,65.54-17.1,96.51-30,59-22.49,86.81-39.71,50.6-34.16,75.49-55.09,38.73-41.91,61.21-65.3,32.16-50.19,46.85-79.66,25-70.35,26.28-104.3-3.3-73.83-24.15-99.66-37.18-49.79-68.36-58.15c39.79,30.56,66.07,70.56,77.54,118.34,4.24,17.63,3.51,35.75,0,53.06-4.7,53.41-36.65,109-73.46,146.91-11.47,14.69-18.08,18.77-32.65,28.56-10.08,11.1-18.89,38-39.58,50.2s-34.2,31.14-54.28,43.66c-14.69,9.19-22.4,9.59-36.72,12.25-57.38,10.69-111.94,60.23-175.48,53s-136.55,13.51-175.48-49c93.49,51.21,217.06,55,310.15,4.08-34.45,10.44-69.21,22.12-102,20.4,3-9,17.67,1.27,20.4-8.16-67.42,10.73-145,7.14-202.78-29.83s-66.19-120.75-46.15-178.29c.08-2-.53-6.29,0-8.17-18.49,43.38-41.18,96.07-12.25,146.92-67.37-72.48,2.37-197.68,73.46-240.78,29.06-29.05,60.72-49.09,93.86-69.37,18-11,37.34-20.2,57.13-28.57,6.16-2.61,12.86-6.08,20.41-8.16,10.77-3,21.67-5.47,32.64-8.16,7.23-1.8,14.69-4.65,24.49-4.08,14.73-35.42,62-16.65,89.78-12.24,41.21,6.57,89.37,14.4,118.34,49,6.33,3.14,10,4.77,16.33,0,9.59,20.2,14.12,44.31,28.56,61.21,3.72-8.9,1.88-11.83,0-20.4C814,394.13,804.39,384,804.63,370.22c15.3.9,15.1,21.71,20.4,32.64,4.86,17.14,7.88,42.89,0,61.22-10.56-6.7,2.7-26.24-8.16-32.65,0,16.16,6.21,46.64-8.16,53.05-6-15.06,0-36.07-8.16-49,1.47,14.2,1,30.65,0,44.89-2.61,38.28-16,83.29-36.73,114.27-2.73,4.12-5.55,8.28-8.16,12.24,11.3-12.94,30.24-19,44.89-8.16,23.34-32.81,34.61-68.52,47.62-107.45s2.49-93.54-11.22-128.92-56.36-50.27-56.8-77.86c-204.29-73.58-448,25.14-567.25,200C322.52,367.32,479.87,270.11,645.48,288.6Z"/><path class="cls-23" d="M274.12,264.11c-55.22,36-120.23,82.6-151,142.84C173.56,363.57,237,317.21,274.12,264.11Z"/><path class="cls-24" d="M649.56,296.76c27.71,4.49,58,18.81,85.7,28.57,10.4,3.67,36.64,12.28,40.8,16.32-23.91-33-92.92-48.85-130.58-53,2,7.18,11.1,2.94,16.32,4.08C660.7,298.72,653.64,296.23,649.56,296.76Z"/><path class="cls-25" d="M563.86,329.41c9.71.57,17.71,4.81,28.56,4.08a39.93,39.93,0,0,1,4.09,0c13.42-9.92,33.58-1.35,49,0-2.25-7.43,7.14-10.08,8.16-16.32C625.89,312.76,578.59,294,563.86,329.41Z"/><path class="cls-26" d="M596.51,333.49c44.44,0,101.08,7.92,126.5,44.89-6.81-4.53-12.77-9.39-20.4-12.24,21.1,12.81,34.85,38.68,49,57.13,2.45-12.41-10.65-20.12-8.16-32.65,37.87,23.43,23.18,74.56,40.81,106.1.89-1.18,14-5.22,16.32-16.32,1-14.24,1.47-30.69,0-44.89-5.22-23.59-12.45-50.15-28.57-69.37-29-34.57-77.13-42.4-118.34-49-1,6.24-10.41,8.89-8.16,16.32C630.09,332.14,609.93,323.57,596.51,333.49Z"/><path class="cls-27" d="M776.06,341.65c-4.16-4-30.4-12.65-40.8-16.32,11.54,8.32,14,21.14,27.54,29.54S787.74,357.77,776.06,341.65Z"/><path class="cls-28" d="M539.37,333.49c8.12-.61,16.37.49,24.49,0-27.51,12.81,21.46,7.1,28.56,0-10.85.73-18.85-3.51-28.56-4.08S546.6,331.69,539.37,333.49Z"/><path class="cls-29" d="M506.73,341.65c-2.62,1.8-6.7,4.82-8.17,8.16,48.16,15.1,100.76-13.91,146.92,0,19.3,4,39,7.67,57.13,16.33,7.63,2.85,13.59,7.71,20.4,12.24-25.42-37-82.06-44.89-126.5-44.89a39.93,39.93,0,0,0-4.09,0c-7.1,7.1-56.07,12.81-28.56,0-8.12.49-16.37-.61-24.49,0C528.4,336.18,517.5,338.67,506.73,341.65Z"/><path class="cls-30" d="M486.32,349.81c8-6.57-21.3,16.49-20.4,24.49,25.83-7,59.37-19.71,85.7-8.16,6,.53,8.48,3,12.24,4.08,15.91,4.4,33.5,5.63,49,12.24,1.92-.65,3.39-6.41,4.08-8.16,3.88-9.88,18.12-10.49,36.73-8.16-16.24-4-37.38-3.23-53-12.25,11.26-8.81,30.56-1.83,44.89-4.08-46.16-13.91-98.76,15.1-146.92,0,1.47-3.34,5.55-6.36,8.17-8.16C499.18,343.73,492.48,347.2,486.32,349.81Z"/><path class="cls-31" d="M429.19,378.38c5.55-1.92,23.91-2.2,32.65-8.16-15.06,21.83-45.26,30.36-64.28,54.07s-34.44,47.7-58.15,64.27C330.15,543,274,605.48,314.6,664.37s81.21,67,147.24,73.13,128.59-14.29,179.88-48.65,81.86-63.37,122.1-106.43c3.23,4.74-8,10.33,0,12.25,20.69-31,34.12-76,36.73-114.27-2.29,11.1-15.43,15.14-16.32,16.32-1,44.93-37,93.82-77.54,110.19,41.75-33.83,48.52-96.84,44.89-146.91s-58.11-78.68-97.94-93.86c-18.61-2.33-32.85-1.72-36.73,8.16,18.65-5.88,54.6,18.44,72.44,29.58s34.15,44.2,33.66,68.36,3.06,70.76-8.16,93.86-15.06,50.4-31.71,70.31S648.41,670.28,624.75,680s-50.49,18.08-75.91,26.12-61.42,13.63-87.9,7.75-58-7.06-79.66-22.36-38.89-29.1-47.17-54.85-5.6-67.87,9.38-91c5.1,1.23,7,7.47,12.24,8.17C349.45,461.38,427.35,375.2,519,370.22c9.22-1.51,20.65-5.1,32.65-4.08-26.33-11.55-59.87,1.18-85.7,8.16-.9-8,28.4-31.06,20.4-24.49C466.53,358.18,447.15,367.36,429.19,378.38Z"/><path class="cls-32" d="M653.64,366.14C693.47,381.32,748,409.92,751.58,460s-3.14,113.08-44.89,146.91c40.56-16.37,76.52-65.26,77.54-110.19-17.63-31.54-2.94-82.67-40.81-106.1-2.49,12.53,10.61,20.24,8.16,32.65-14.12-18.45-27.87-44.32-49-57.13-18.08-8.66-37.83-12.33-57.13-16.33-14.33,2.25-33.63-4.73-44.89,4.08C616.26,362.91,637.4,362.1,653.64,366.14Z"/><path class="cls-33" d="M519,370.22c14.45-.78,30.48-1.31,44.89,0-3.76-1.06-6.29-3.55-12.24-4.08C539.62,365.12,528.19,368.71,519,370.22Z"/><path class="cls-34" d="M800.55,435.51c8.16,12.9,2.16,33.91,8.16,49,14.37-6.41,8.16-36.89,8.16-53.05v-4.08c-14.44-16.9-19-41-28.56-61.21-6.29,4.77-10,3.14-16.33,0C788.1,385.36,795.33,411.92,800.55,435.51Z"/><path class="cls-35" d="M429.19,378.38c-33.14,20.28-64.8,40.32-93.86,69.37-24.93,24.94-51.95,60.36-61.21,93.86-.53,1.88.08,6.13,0,8.17-.17,5.18-2.21,14.28,4.08,16.32,14.2-30.65,41.09-60.07,61.21-89.78,7.59,1.88.65,8.33,0,12.24,23.71-16.57,39.1-40.56,58.15-64.27s49.22-32.24,64.28-54.07C453.1,376.18,434.74,376.46,429.19,378.38Z"/><path class="cls-36" d="M355.73,553.86c9.59,141.15,161.65,179,265.59,110.51s110.47-231.14-8.49-281.91c-15.47-6.61-33.06-7.84-49-12.24-14.41-1.31-30.44-.78-44.89,0-91.62,5-169.52,91.16-163.24,183.64m228.53-151c-34.85-13.58-68.43,2.62-98.88,15.39s-45.7,34.24-67.49,59S401.36,544.43,376.14,562c-17.71-53.38,18.28-110.27,60-140S545.21,357.85,584.26,402.86Z"/><path class="cls-37" d="M816.87,407c6.08,5,7.31,2.61,8.16-4.09-5.3-10.93-5.1-31.74-20.4-32.64C804.39,384,814,394.13,816.87,407Z"/><path class="cls-38" d="M612.83,382.46c119,50.77,112.43,213.43,8.49,281.91S365.32,695,355.73,553.86c-5.26-.7-7.14-6.94-12.24-8.17-15,23.14-17.71,65.3-9.38,91s25.5,39.58,47.17,54.85,53.17,16.52,79.66,22.36,62.52.28,87.9-7.75,52.28-16.33,75.91-26.12,41.74-23.71,58.39-43.63,20.53-47.21,31.71-70.31,7.63-69.7,8.16-93.86-15.87-57.17-33.66-68.36-53.79-35.46-72.44-29.58C616.22,376.05,614.75,381.81,612.83,382.46Z"/><path class="cls-39" d="M584.26,402.86c-39-45-106.43-10.52-148.13,19.18s-77.7,86.6-60,140c25.22-17.59,19.95-60,41.75-84.76s37.05-46.24,67.49-59S549.41,389.28,584.26,402.86Z"/><path class="cls-40" d="M816.87,407c1.88,8.57,3.72,11.5,0,20.4v4.08c10.86,6.41-2.4,25.95,8.16,32.65,7.88-18.33,4.86-44.08,0-61.22C824.18,409.56,823,411.92,816.87,407Z"/><path class="cls-41" d="M882.17,455.92c3.51-17.31,4.24-35.43,0-53.06C884.08,419.31,883.64,439.43,882.17,455.92Z"/><path class="cls-42" d="M176.18,411C132.27,437.47,102,486.24,86.4,533.45,118.51,499.34,150.83,451.88,176.18,411Z"/><path class="cls-43" d="M274.12,541.61c9.26-33.5,36.28-68.92,61.21-93.86-71.09,43.1-140.83,168.3-73.46,240.78C232.94,637.68,255.63,585,274.12,541.61Z"/><path class="cls-44" d="M274.12,549.78c-20,57.54-11.63,141.36,46.15,178.29s135.36,40.56,202.78,29.83c61.66-9.79,111.69-39.5,163.23-73.46a361.64,361.64,0,0,0,69.38-77.53c2.61-4,5.43-8.12,8.16-12.24-8-1.92,3.23-7.51,0-12.25-40.24,43.06-70.76,72.11-122.1,106.43S527.87,743.58,461.84,737.5,355.2,723.21,314.6,664.37,330.15,543,339.41,488.56c.65-3.91,7.59-10.36,0-12.24-20.12,29.71-47,59.13-61.21,89.78C271.91,564.06,274,555,274.12,549.78Z"/><path class="cls-45" d="M755.66,606.91a361.64,361.64,0,0,1-69.38,77.53c26.49-17.42,52.24-52.15,81.62-53.05-7.06,12.69-21.75,20.08-28.56,32.65,12.12-10.37,23.67-23.87,36.72-32.65,14.57-9.79,21.18-13.87,32.65-28.56-9.92,2-8.08,18.81-20.4,16.32,2.81-7.67,7.79-13.55,12.24-20.4C785.9,587.89,767,594,755.66,606.91Z"/><path class="cls-46" d="M988.27,623.23c-55.13,73.13-126,152.91-195.88,216.29C879,795.65,952.6,713,988.27,623.23Z"/><path class="cls-47" d="M780.15,737.5c-1.11,2.61-6.78-4.49,0-12.25-28.08,19.27-18.94,14.21-52,33.67s-79.9,41.63-116.55,54.85S578.1,828,547.62,835.52s-41.22,11.87-70.81,14.89-52.93,3.84-84.35,1.35-37.71-1.88-72.56-13.14S240,800.34,220.78,766.35s-6.82-35.06-24.24-61.46,11-52.81,0-73.5c-6.65-.49-7.06,6.7-8.16-4.08C142,708,211,800.63,286.32,835.48s194,43.17,273.38,8S714.89,795.49,780.15,737.5Z"/><path class="cls-48" d="M686.28,684.44c-51.54,34-101.57,63.67-163.23,73.46-2.73,9.43-17.38-.82-20.4,8.16,32.81,1.72,67.57-10,102-20.4,13.83-4.21,27.79-9.39,40.81-16.33,22.56-12,48.72-28.6,69.37-44.89,8.2-6.44,16.77-13.79,24.49-20.4,6.81-12.57,21.5-20,28.56-32.65C738.52,632.29,712.77,667,686.28,684.44Z"/><path class="cls-49" d="M739.34,664c-7.72,6.61-16.29,14-24.49,20.4-8.69,12.29-25.46,33.71-32.65,40.81,20.08-12.52,33.59-31.5,54.28-43.66s29.5-39.1,39.58-50.2C763,640.17,751.46,653.67,739.34,664Z"/><path class="cls-50" d="M645.48,729.33c.28-.57,3.1,5,0,8.17,14.32-2.66,22-3.06,36.72-12.25,7.19-7.1,24-28.52,32.65-40.81C694.2,700.73,668,717.3,645.48,729.33Z"/><path class="cls-51" d="M780.15,725.25c-6.78,7.76-1.11,14.86,0,12.25,11.05-8.9,23.09-18.86,32.64-28.57C800.51,710.81,790.31,718.28,780.15,725.25Z"/><path class="cls-52" d="M604.67,745.66c-93.09,51-216.66,47.13-310.15-4.08,38.93,62.48,111.94,41.79,175.48,49s118.1-42.36,175.48-53c3.1-3.15.28-8.74,0-8.17C632.46,736.27,618.5,741.45,604.67,745.66Z"/><path class="cls-53" d="M955.62,782.39C913.1,807.61,876.25,846.46,832,875s-98.8,46.16-141.6,74.68C789.69,931.22,889.55,860.49,955.62,782.39Z"/><path class="cls-54" d="M155.77,815c-2.86-3.1-5.59-8.53-8.16-12.24-1.31-8.73-12.57,8.69-1,13.22S160.42,826.13,155.77,815Z"/><path class="cls-55" d="M772,823.19c-31,8.7-53.66,29.35-82.88,43.67s-57.58,25.79-88.43,38-70,15.35-102.06,24.45S417.31,928,396.54,949.7C533.9,955.7,674.45,912.4,772,823.19Z"/><path class="cls-56" d="M188.42,925.22c-25.26-26.2-50.81-59.3-81.62-77.54C124.76,876.94,149.69,922.65,188.42,925.22Z"/><path class="cls-57" d="M923,884.41c-23.1-1.84-25.63,36.89-2.86,39.34S944.28,886.12,923,884.41Z"/><path class="cls-58" d="M217,917.05c11.84,1.76,15.35-8.56,12.25-8.16-12-4.73-17.35-23.75-32.65-20.4C192.05,904.53,206.37,910.12,217,917.05Z"/><path class="cls-59" d="M217,917.05c24.65,12.7,67.67,44.28,89.78,24.49a342.26,342.26,0,0,1-77.53-32.65C232.33,908.49,228.82,918.81,217,917.05Z"/><path class="cls-60" d="M102.72,47.83c97.65,2.16,196.25-2.9,293.82,0s196.58-5.55,293.83,0,197.35-11.88,293.82,0c-50-20.41-119.12,2.2-175.48-4.08s-121.94,2.36-179.56,0-117.53-.17-175.48,0-122.14-2.7-179.55,0S155.93,34.65,102.72,47.83Z"/><path class="cls-61" d="M37.43,117.2c-9.59,141-1.19,287.22,0,428.49s-12.78,287.91,0,428.5c17.5,84.55,98.51,64.11,171.39,65.29s160.63-1.88,236.69,0,159.4-3.83,236.69,0,159.2-8.36,236.69,0,137-19.42,130.59-102,3.06-157,0-236.69,1.72-159.32,0-236.69,1.47-162.71,0-236.69S1068.7,81.25,992.35,51.91c-96.63-13.79-200.17,4.65-297.9,0s-200.17-1.43-297.91,0-199.8-6.65-293.82-4.08C67.13,56.64,40.08,78.31,37.43,117.2m253,16.33c18.49,4.73,12.73,44.31-9.1,37.58s-15.06-43.75,9.1-37.58m138.75,12.24c-16.41,24.32-24.73-12,0,0m399.93,20.4c-1.31-.81-4-2.65-4.09-4.08-4.85,1.68-15.26.49-20.4,0-14.2-1.38-30.52-5.83-44.89-8.16,5.47-17.42,37.59-4.28,49,0,4.29,1.14,13.22-.61,16.32,4.08,10-.94,12-4.24,20.41-8.16,3.51-1.63,5.1-12,12.24-8.16-.24,11.38,9.18,18.4,16.33,24.48-3.47,9.59-17.31,13.18-16.33,24.49-14.4,0-14.85-20.9-28.56-24.49M686.28,149.85C643.76,164,586.22,162.91,540.72,175.68s-87.09,25.87-131.93,39.46c24.77-35.79,78-40.15,122.42-53s106.92-24,155.07-12.24M878.09,260c-100.43-36.72-210-54.11-318.31-57.13,106.71-20.69,236.08-20,318.31,57.13m53-65.29c12.93,1.59,39.3,46.73,21.63,43.42s-42.93-46-21.63-43.42m-555,16.32C367.49,238.61,324,244.73,298.6,256c15.79-22,50.32-36.68,77.54-44.89M147.61,802.79c2.57,3.71,5.3,9.14,8.16,12.24,11.31,12.33,28.4,21.75,36.73,36.73-47.42-20.53-75.09-58.68-91.09-108.88S98,620.78,118.76,574s47.58-81.74,78.84-121.12,67.42-67.26,104.06-100,85.13-46.6,122.22-77.74,78.52-52.19,136.18-55.62,130.67-.9,183.4,16,82.84,12.57,127.48,52.07,56.85,83.21,60.2,139.77-17.59,111.73-40.48,159.48-52.53,78-86,118c70.11-44.69,109.45-111.65,146-188.66s13-191.88-52.11-252.08c138.1,79.87,90.55,272,11.22,378.51S720.4,834.7,596.51,876.25c8.52-16,28.44-17,40.8-28.57-46.76,6.57-94.51,31-146.95,40.77s-124.75,12.49-175.48-4S230,851.15,193.52,809.93s-46.93-90.88-50-145.89,20-104.51,44.89-151c-72.93,62-103,201.47-40.81,289.74M168,227.39c19.39,4.93,10.61,43-10.93,35.34S146.67,221.92,168,227.39m285.66,12.24a7,7,0,0,1-4.08,0c-37.42,30-91.2,44.44-131.52,72.52S239,373.65,196.58,394.7C251.79,317.45,338.35,268,425.11,239.63c1.47-.94,4.08,0,4.08,0,8.41-10.94,22.61-13.1,36.73-12.24-2.74,4.89-6.7,10.53-12.25,12.24m510.11,0c30,3.14-1.75,30.16,0,0M274.12,264.11C237,317.21,173.56,363.57,123.12,407c30.77-60.24,95.78-106.8,151-142.84M176.18,411c-25.35,40.85-57.67,88.31-89.78,122.42,15.58-47.21,45.87-96,89.78-122.42m812.09,212.2C952.6,713,879,795.65,792.39,839.52c69.86-63.38,140.75-143.16,195.88-216.29M955.62,782.39c-66.07,78.1-165.93,148.83-265.25,167.31,42.8-28.52,97.28-46.15,141.6-74.68s81.13-67.41,123.65-92.63M772,823.19C674.45,912.4,533.9,955.7,396.54,949.7c20.77-21.67,69.95-11.3,102.07-20.36s71.25-12.16,102.06-24.45,59.25-23.75,88.43-38,51.91-35,82.88-43.67m-583.56,102c-38.73-2.57-63.66-48.28-81.62-77.54,30.81,18.24,56.36,51.34,81.62,77.54M923,884.41c21.3,1.71,19.95,41.83-2.86,39.34s-20.24-41.18,2.86-39.34M229.23,908.89a342.26,342.26,0,0,0,77.53,32.65c-22.11,19.79-65.13-11.79-89.78-24.49-10.61-6.93-24.93-12.52-20.4-28.56C211.88,885.14,217.27,904.16,229.23,908.89Z"/><path class="cls-62" d="M992.35,51.91c-3.75-1.43-2.45-3.39-8.16-4.08-96.47-11.88-196.58,5.55-293.82,0s-196.25,2.9-293.83,0-196.17,2.16-293.82,0c94-2.57,196.09,5.51,293.82,4.08s200.21-4.65,297.91,0S895.72,38.12,992.35,51.91Z"/><path class="cls-63" d="M37.43,974.19c-12.78-140.59,1.18-287.22,0-428.5s-9.59-287.53,0-428.49c-16,89.25-1.68,192.13-4.09,285.66s-3.63,196.62,0,289.75S19.1,885.75,37.43,974.19Z"/><path class="cls-64" d="M290.44,133.53c-24.16-6.17-30.93,30.89-9.1,37.58S308.93,138.26,290.44,133.53Z"/><path class="cls-65" d="M845.44,149.85c-5.47,3.71-9.88,14.41-16.32,16.32,13.71,3.59,14.16,24.49,28.56,24.49-1-11.31,12.86-14.9,16.33-24.49-7.15-6.08-16.57-13.1-16.33-24.48C850.54,137.89,849,148.22,845.44,149.85Z"/><path class="cls-66" d="M686.28,149.85c-48.15-11.75-110.63-.61-155.07,12.24s-97.65,17.26-122.42,53c44.84-13.59,86.39-26.73,131.93-39.46S643.76,164,686.28,149.85Z"/><path class="cls-67" d="M804.63,162.09c-7.84-3.83-.12-7.67,4.08-8.16-11.38-4.28-43.5-17.42-49,0C774.11,156.26,790.43,160.71,804.63,162.09Z"/><path class="cls-68" d="M825,158c.94,1.43,0,4.08,0,4.08.13,1.43,2.78,3.27,4.09,4.08,6.44-1.91,10.85-12.61,16.32-16.32C837,153.77,835,157.07,825,158Z"/><path class="cls-69" d="M804.63,162.09c5.14.49,15.55,1.68,20.4,0,0,0,.94-2.65,0-4.08-3.1-4.69-12-2.94-16.32-4.08C804.51,154.42,796.79,158.26,804.63,162.09Z"/><path class="cls-70" d="M878.09,260c-82.23-77.17-211.6-77.82-318.31-57.13C668.12,205.92,777.66,223.31,878.09,260Z"/><path class="cls-71" d="M931.14,194.74c-21.3-2.61,4,40.16,21.63,43.42S944.07,196.33,931.14,194.74Z"/><path class="cls-72" d="M376.14,211.06c-27.22,8.21-61.75,22.86-77.54,44.89C324,244.73,367.49,238.61,376.14,211.06Z"/><path class="cls-73" d="M155.77,815c4.65,11.1,2.41,5.55-9.18,1s-.29-22,1-13.22C85.46,714.52,115.49,575,188.42,513.05c-24.9,46.48-47.95,96-44.89,151s13.42,104.67,50,145.89,70.68,58,121.36,74.52,123,13.79,175.48,4,100.19-34.2,146.95-40.77C625,859.27,605,860.29,596.51,876.25c123.89-41.55,233.83-127.2,313.2-233.63S1036.59,344,898.49,264.11c65.13,60.2,88.68,175.07,52.11,252.08s-75.86,144-146,188.66c33.5-40,63.09-70.31,86-118s43.82-102.92,40.48-159.48-15.59-100.27-60.2-139.77-74.8-35.18-127.48-52.07-125.69-19.39-183.4-16S460.94,244,423.88,275.13s-85.57,45-122.22,77.74-72.8,60.6-104.06,100S139.53,527.17,118.76,574s-33.34,118.71-17.35,168.9,43.67,88.35,91.09,108.88c-8.33-15-25.42-24.4-36.73-36.73m448.9-579.48c-29.06,3.06-67.83,20.44-97.94,16.32,30.19-12,62.47-16.53,93.86-24.48,9.91-1,25.95-2.45,32.64,4.08-8,6.49-19,3.26-28.56,4.08m195.88,363.2c-4.45,6.85-9.43,12.73-12.24,20.4,12.32,2.49,10.48-14.28,20.4-16.32,36.81-37.91,68.76-93.5,73.46-146.91,1.47-16.49,1.91-36.61,0-53.06-11.47-47.78-37.75-87.78-77.54-118.34,31.18,8.36,47.5,32.28,68.36,58.15s25.46,65.7,24.15,99.66-11.59,74.84-26.28,104.3S846.54,602.91,824,626.29s-36.32,44.4-61.21,65.3-47.66,37.91-75.49,55.09-55.87,26.81-86.81,39.71-62.35,21-96.51,30-84.51,7.47-119.77,2.82-66.64-12.37-96.6-29.88-41-40.89-59.62-66.88-11.59-83.05-31.42-91.05c11,20.69-17.43,47.1,0,73.5s5.06,27.46,24.24,61.46,64.31,61,99.12,72.27,41.18,10.65,72.56,13.14,54.77,1.67,84.35-1.35,40.32-7.34,70.81-14.89S575,827,611.56,813.77,695,778.39,728.11,758.92s24-14.4,52-33.67c10.16-7,20.36-14.44,32.64-16.32-9.55,9.71-21.59,19.67-32.64,28.57-65.26,58-141.08,70.84-220.45,106s-198,26.81-273.38-8S142,708,188.42,627.31c31.42-54.56,39.22-124.83,90.8-170.37S367,369.73,430.13,342.59,575.9,284.8,649.56,296.76c4.08-.53,11.14,2,12.24-4.08-5.22-1.14-14.28,3.1-16.32-4.08-165.61-18.49-323,78.72-432.58,195.88,119.21-174.82,363-273.54,567.25-200,.44,27.59,43.13,42.44,56.8,77.86s24.24,90,11.22,128.92S823.89,565.94,800.55,598.75Z"/><path class="cls-74" d="M168,227.39c-21.34-5.47-32.48,27.75-10.93,35.34S187.4,232.32,168,227.39Z"/><path class="cls-75" d="M429.19,239.63c6.16-1.43,33.5-15.88,24.48,0,5.55-1.71,9.51-7.35,12.25-12.24C451.8,226.53,437.6,228.69,429.19,239.63Z"/><path class="cls-76" d="M604.67,235.55c-5.43-.21-10.9.16-16.33,0,1-6.82,11.63-.7,12.25-8.16-31.39,8-63.67,12.48-93.86,24.48C536.84,256,575.61,238.61,604.67,235.55Z"/><path class="cls-77" d="M604.67,235.55c9.55-.82,20.52,2.41,28.56-4.08-6.69-6.53-22.73-5.1-32.64-4.08-.62,7.46-11.27,1.34-12.25,8.16C593.77,235.71,599.24,235.34,604.67,235.55Z"/><path class="cls-78" d="M429.19,239.63s-2.61-.94-4.08,0c.16,12.32,16.12,1.35,24.48,0a7,7,0,0,0,4.08,0C462.69,223.75,435.35,238.2,429.19,239.63Z"/><path class="cls-79" d="M449.59,239.63c-8.36,1.35-24.32,12.32-24.48,0C338.35,268,251.79,317.45,196.58,394.7c42.4-21.05,81.17-54.48,121.49-82.55S412.17,269.66,449.59,239.63Z"/><path class="cls-80" d="M645.48,288.6c37.66,4.2,106.67,20,130.58,53,11.68,16.12.29,21.67-13.26,13.22s-16-21.22-27.54-29.54c-27.75-9.76-58-24.08-85.7-28.57-73.66-12-156.38,18.69-219.43,45.83s-99.37,68.8-150.91,114.35-59.38,115.81-90.8,170.37c1.1,10.78,1.51,3.59,8.16,4.08,19.83,8,12.77,65,31.42,91.05s29.63,49.34,59.62,66.88,61.3,25.26,96.6,29.88,85.62,6.16,119.77-2.82,65.54-17.1,96.51-30,59-22.49,86.81-39.71,50.6-34.16,75.49-55.09,38.73-41.91,61.21-65.3,32.16-50.19,46.85-79.66,25-70.35,26.28-104.3-3.3-73.83-24.15-99.66-37.18-49.79-68.36-58.15c39.79,30.56,66.07,70.56,77.54,118.34,4.24,17.63,3.51,35.75,0,53.06-4.7,53.41-36.65,109-73.46,146.91-11.47,14.69-18.08,18.77-32.65,28.56-10.08,11.1-18.89,38-39.58,50.2s-34.2,31.14-54.28,43.66c-14.69,9.19-22.4,9.59-36.72,12.25-57.38,10.69-111.94,60.23-175.48,53s-136.55,13.51-175.48-49c93.49,51.21,217.06,55,310.15,4.08-34.45,10.44-69.21,22.12-102,20.4,3-9,17.67,1.27,20.4-8.16-67.42,10.73-145,7.14-202.78-29.83s-66.19-120.75-46.15-178.29c.08-2-.53-6.29,0-8.17-18.49,43.38-41.18,96.07-12.25,146.92-67.37-72.48,2.37-197.68,73.46-240.78,29.06-29.05,60.72-49.09,93.86-69.37,18-11,37.34-20.2,57.13-28.57,6.16-2.61,12.86-6.08,20.41-8.16,10.77-3,21.67-5.47,32.64-8.16,7.23-1.8,14.69-4.65,24.49-4.08,14.73-35.42,62-16.65,89.78-12.24,41.21,6.57,89.37,14.4,118.34,49,6.33,3.14,10,4.77,16.33,0,9.59,20.2,14.12,44.31,28.56,61.21,3.72-8.9,1.88-11.83,0-20.4C814,394.13,804.39,384,804.63,370.22c15.3.9,15.1,21.71,20.4,32.64,4.86,17.14,7.88,42.89,0,61.22-10.56-6.7,2.7-26.24-8.16-32.65,0,16.16,6.21,46.64-8.16,53.05-6-15.06,0-36.07-8.16-49,1.47,14.2,1,30.65,0,44.89-2.61,38.28-16,83.29-36.73,114.27-2.73,4.12-5.55,8.28-8.16,12.24,11.3-12.94,30.24-19,44.89-8.16,23.34-32.81,34.61-68.52,47.62-107.45s2.49-93.54-11.22-128.92-56.36-50.27-56.8-77.86c-204.29-73.58-448,25.14-567.25,200C322.52,367.32,479.87,270.11,645.48,288.6Z"/><path class="cls-81" d="M274.12,264.11c-55.22,36-120.23,82.6-151,142.84C173.56,363.57,237,317.21,274.12,264.11Z"/><path class="cls-82" d="M649.56,296.76c27.71,4.49,58,18.81,85.7,28.57,10.4,3.67,36.64,12.28,40.8,16.32-23.91-33-92.92-48.85-130.58-53,2,7.18,11.1,2.94,16.32,4.08C660.7,298.72,653.64,296.23,649.56,296.76Z"/><path class="cls-83" d="M563.86,329.41c9.71.57,17.71,4.81,28.56,4.08a39.93,39.93,0,0,1,4.09,0c13.42-9.92,33.58-1.35,49,0-2.25-7.43,7.14-10.08,8.16-16.32C625.89,312.76,578.59,294,563.86,329.41Z"/><path class="cls-84" d="M596.51,333.49c44.44,0,101.08,7.92,126.5,44.89-6.81-4.53-12.77-9.39-20.4-12.24,21.1,12.81,34.85,38.68,49,57.13,2.45-12.41-10.65-20.12-8.16-32.65,37.87,23.43,23.18,74.56,40.81,106.1.89-1.18,14-5.22,16.32-16.32,1-14.24,1.47-30.69,0-44.89-5.22-23.59-12.45-50.15-28.57-69.37-29-34.57-77.13-42.4-118.34-49-1,6.24-10.41,8.89-8.16,16.32C630.09,332.14,609.93,323.57,596.51,333.49Z"/><path class="cls-85" d="M776.06,341.65c-4.16-4-30.4-12.65-40.8-16.32,11.54,8.32,14,21.14,27.54,29.54S787.74,357.77,776.06,341.65Z"/><path class="cls-86" d="M539.37,333.49c8.12-.61,16.37.49,24.49,0-27.51,12.81,21.46,7.1,28.56,0-10.85.73-18.85-3.51-28.56-4.08S546.6,331.69,539.37,333.49Z"/><path class="cls-87" d="M506.73,341.65c-2.62,1.8-6.7,4.82-8.17,8.16,48.16,15.1,100.76-13.91,146.92,0,19.3,4,39,7.67,57.13,16.33,7.63,2.85,13.59,7.71,20.4,12.24-25.42-37-82.06-44.89-126.5-44.89a39.93,39.93,0,0,0-4.09,0c-7.1,7.1-56.07,12.81-28.56,0-8.12.49-16.37-.61-24.49,0C528.4,336.18,517.5,338.67,506.73,341.65Z"/><path class="cls-88" d="M486.32,349.81c8-6.57-21.3,16.49-20.4,24.49,25.83-7,59.37-19.71,85.7-8.16,6,.53,8.48,3,12.24,4.08,15.91,4.4,33.5,5.63,49,12.24,1.92-.65,3.39-6.41,4.08-8.16,3.88-9.88,18.12-10.49,36.73-8.16-16.24-4-37.38-3.23-53-12.25,11.26-8.81,30.56-1.83,44.89-4.08-46.16-13.91-98.76,15.1-146.92,0,1.47-3.34,5.55-6.36,8.17-8.16C499.18,343.73,492.48,347.2,486.32,349.81Z"/><path class="cls-89" d="M429.19,378.38c5.55-1.92,23.91-2.2,32.65-8.16-15.06,21.83-45.26,30.36-64.28,54.07s-34.44,47.7-58.15,64.27C330.15,543,274,605.48,314.6,664.37s81.21,67,147.24,73.13,128.59-14.29,179.88-48.65,81.86-63.37,122.1-106.43c3.23,4.74-8,10.33,0,12.25,20.69-31,34.12-76,36.73-114.27-2.29,11.1-15.43,15.14-16.32,16.32-1,44.93-37,93.82-77.54,110.19,41.75-33.83,48.52-96.84,44.89-146.91s-58.11-78.68-97.94-93.86c-18.61-2.33-32.85-1.72-36.73,8.16,18.65-5.88,54.6,18.44,72.44,29.58s34.15,44.2,33.66,68.36,3.06,70.76-8.16,93.86-15.06,50.4-31.71,70.31S648.41,670.28,624.75,680s-50.49,18.08-75.91,26.12-61.42,13.63-87.9,7.75-58-7.06-79.66-22.36-38.89-29.1-47.17-54.85-5.6-67.87,9.38-91c5.1,1.23,7,7.47,12.24,8.17C349.45,461.38,427.35,375.2,519,370.22c9.22-1.51,20.65-5.1,32.65-4.08-26.33-11.55-59.87,1.18-85.7,8.16-.9-8,28.4-31.06,20.4-24.49C466.53,358.18,447.15,367.36,429.19,378.38Z"/><path class="cls-90" d="M653.64,366.14C693.47,381.32,748,409.92,751.58,460s-3.14,113.08-44.89,146.91c40.56-16.37,76.52-65.26,77.54-110.19-17.63-31.54-2.94-82.67-40.81-106.1-2.49,12.53,10.61,20.24,8.16,32.65-14.12-18.45-27.87-44.32-49-57.13-18.08-8.66-37.83-12.33-57.13-16.33-14.33,2.25-33.63-4.73-44.89,4.08C616.26,362.91,637.4,362.1,653.64,366.14Z"/><path class="cls-91" d="M519,370.22c14.45-.78,30.48-1.31,44.89,0-3.76-1.06-6.29-3.55-12.24-4.08C539.62,365.12,528.19,368.71,519,370.22Z"/><path class="cls-92" d="M800.55,435.51c8.16,12.9,2.16,33.91,8.16,49,14.37-6.41,8.16-36.89,8.16-53.05v-4.08c-14.44-16.9-19-41-28.56-61.21-6.29,4.77-10,3.14-16.33,0C788.1,385.36,795.33,411.92,800.55,435.51Z"/><path class="cls-93" d="M429.19,378.38c-33.14,20.28-64.8,40.32-93.86,69.37-24.93,24.94-51.95,60.36-61.21,93.86-.53,1.88.08,6.13,0,8.17-.17,5.18-2.21,14.28,4.08,16.32,14.2-30.65,41.09-60.07,61.21-89.78,7.59,1.88.65,8.33,0,12.24,23.71-16.57,39.1-40.56,58.15-64.27s49.22-32.24,64.28-54.07C453.1,376.18,434.74,376.46,429.19,378.38Z"/><path class="cls-94" d="M355.73,553.86c9.59,141.15,161.65,179,265.59,110.51s110.47-231.14-8.49-281.91c-15.47-6.61-33.06-7.84-49-12.24-14.41-1.31-30.44-.78-44.89,0-91.62,5-169.52,91.16-163.24,183.64m228.53-151c-34.85-13.58-68.43,2.62-98.88,15.39s-45.7,34.24-67.49,59S401.36,544.43,376.14,562c-17.71-53.38,18.28-110.27,60-140S545.21,357.85,584.26,402.86Z"/><path class="cls-95" d="M816.87,407c6.08,5,7.31,2.61,8.16-4.09-5.3-10.93-5.1-31.74-20.4-32.64C804.39,384,814,394.13,816.87,407Z"/><path class="cls-96" d="M612.83,382.46c119,50.77,112.43,213.43,8.49,281.91S365.32,695,355.73,553.86c-5.26-.7-7.14-6.94-12.24-8.17-15,23.14-17.71,65.3-9.38,91s25.5,39.58,47.17,54.85,53.17,16.52,79.66,22.36,62.52.28,87.9-7.75,52.28-16.33,75.91-26.12,41.74-23.71,58.39-43.63,20.53-47.21,31.71-70.31,7.63-69.7,8.16-93.86-15.87-57.17-33.66-68.36-53.79-35.46-72.44-29.58C616.22,376.05,614.75,381.81,612.83,382.46Z"/><path class="cls-97" d="M584.26,402.86c-39-45-106.43-10.52-148.13,19.18s-77.7,86.6-60,140c25.22-17.59,19.95-60,41.75-84.76s37.05-46.24,67.49-59S549.41,389.28,584.26,402.86Z"/><path class="cls-98" d="M816.87,407c1.88,8.57,3.72,11.5,0,20.4v4.08c10.86,6.41-2.4,25.95,8.16,32.65,7.88-18.33,4.86-44.08,0-61.22C824.18,409.56,823,411.92,816.87,407Z"/><path class="cls-99" d="M882.17,455.92c3.51-17.31,4.24-35.43,0-53.06C884.08,419.31,883.64,439.43,882.17,455.92Z"/><path class="cls-100" d="M176.18,411C132.27,437.47,102,486.24,86.4,533.45,118.51,499.34,150.83,451.88,176.18,411Z"/><path class="cls-101" d="M274.12,541.61c9.26-33.5,36.28-68.92,61.21-93.86-71.09,43.1-140.83,168.3-73.46,240.78C232.94,637.68,255.63,585,274.12,541.61Z"/><path class="cls-102" d="M274.12,549.78c-20,57.54-11.63,141.36,46.15,178.29s135.36,40.56,202.78,29.83c61.66-9.79,111.69-39.5,163.23-73.46a361.64,361.64,0,0,0,69.38-77.53c2.61-4,5.43-8.12,8.16-12.24-8-1.92,3.23-7.51,0-12.25-40.24,43.06-70.76,72.11-122.1,106.43S527.87,743.58,461.84,737.5,355.2,723.21,314.6,664.37,330.15,543,339.41,488.56c.65-3.91,7.59-10.36,0-12.24-20.12,29.71-47,59.13-61.21,89.78C271.91,564.06,274,555,274.12,549.78Z"/><path class="cls-103" d="M755.66,606.91a361.64,361.64,0,0,1-69.38,77.53c26.49-17.42,52.24-52.15,81.62-53.05-7.06,12.69-21.75,20.08-28.56,32.65,12.12-10.37,23.67-23.87,36.72-32.65,14.57-9.79,21.18-13.87,32.65-28.56-9.92,2-8.08,18.81-20.4,16.32,2.81-7.67,7.79-13.55,12.24-20.4C785.9,587.89,767,594,755.66,606.91Z"/><path class="cls-104" d="M988.27,623.23c-55.13,73.13-126,152.91-195.88,216.29C879,795.65,952.6,713,988.27,623.23Z"/><path class="cls-105" d="M780.15,737.5c-1.11,2.61-6.78-4.49,0-12.25-28.08,19.27-18.94,14.21-52,33.67s-79.9,41.63-116.55,54.85S578.1,828,547.62,835.52s-41.22,11.87-70.81,14.89-52.93,3.84-84.35,1.35-37.71-1.88-72.56-13.14S240,800.34,220.78,766.35s-6.82-35.06-24.24-61.46,11-52.81,0-73.5c-6.65-.49-7.06,6.7-8.16-4.08C142,708,211,800.63,286.32,835.48s194,43.17,273.38,8S714.89,795.49,780.15,737.5Z"/><path class="cls-106" d="M686.28,684.44c-51.54,34-101.57,63.67-163.23,73.46-2.73,9.43-17.38-.82-20.4,8.16,32.81,1.72,67.57-10,102-20.4,13.83-4.21,27.79-9.39,40.81-16.33,22.56-12,48.72-28.6,69.37-44.89,8.2-6.44,16.77-13.79,24.49-20.4,6.81-12.57,21.5-20,28.56-32.65C738.52,632.29,712.77,667,686.28,684.44Z"/><path class="cls-107" d="M739.34,664c-7.72,6.61-16.29,14-24.49,20.4-8.69,12.29-25.46,33.71-32.65,40.81,20.08-12.52,33.59-31.5,54.28-43.66s29.5-39.1,39.58-50.2C763,640.17,751.46,653.67,739.34,664Z"/><path class="cls-108" d="M645.48,729.33c.28-.57,3.1,5,0,8.17,14.32-2.66,22-3.06,36.72-12.25,7.19-7.1,24-28.52,32.65-40.81C694.2,700.73,668,717.3,645.48,729.33Z"/><path class="cls-109" d="M780.15,725.25c-6.78,7.76-1.11,14.86,0,12.25,11.05-8.9,23.09-18.86,32.64-28.57C800.51,710.81,790.31,718.28,780.15,725.25Z"/><path class="cls-110" d="M604.67,745.66c-93.09,51-216.66,47.13-310.15-4.08,38.93,62.48,111.94,41.79,175.48,49s118.1-42.36,175.48-53c3.1-3.15.28-8.74,0-8.17C632.46,736.27,618.5,741.45,604.67,745.66Z"/><path class="cls-111" d="M955.62,782.39C913.1,807.61,876.25,846.46,832,875s-98.8,46.16-141.6,74.68C789.69,931.22,889.55,860.49,955.62,782.39Z"/><path class="cls-112" d="M155.77,815c-2.86-3.1-5.59-8.53-8.16-12.24-1.31-8.73-12.57,8.69-1,13.22S160.42,826.13,155.77,815Z"/><path class="cls-113" d="M772,823.19c-31,8.7-53.66,29.35-82.88,43.67s-57.58,25.79-88.43,38-70,15.35-102.06,24.45S417.31,928,396.54,949.7C533.9,955.7,674.45,912.4,772,823.19Z"/><path class="cls-114" d="M188.42,925.22c-25.26-26.2-50.81-59.3-81.62-77.54C124.76,876.94,149.69,922.65,188.42,925.22Z"/><path class="cls-115" d="M923,884.41c-23.1-1.84-25.63,36.89-2.86,39.34S944.28,886.12,923,884.41Z"/><path class="cls-116" d="M217,917.05c11.84,1.76,15.35-8.56,12.25-8.16-12-4.73-17.35-23.75-32.65-20.4C192.05,904.53,206.37,910.12,217,917.05Z"/><path class="cls-117" d="M217,917.05c24.65,12.7,67.67,44.28,89.78,24.49a342.26,342.26,0,0,1-77.53-32.65C232.33,908.49,228.82,918.81,217,917.05Z"/></svg>