<svg id="Layer_1" data-name="Layer 1" xmlns="http://www.w3.org/2000/svg" viewBox="0 0 1080 1080"><defs><style>.cls-1{fill:#0c1523;}.cls-10,.cls-11,.cls-12,.cls-13,.cls-14,.cls-15,.cls-16,.cls-17,.cls-18,.cls-19,.cls-2,.cls-20,.cls-21,.cls-22,.cls-23,.cls-24,.cls-25,.cls-26,.cls-27,.cls-28,.cls-29,.cls-3,.cls-30,.cls-31,.cls-32,.cls-33,.cls-34,.cls-35,.cls-36,.cls-37,.cls-38,.cls-39,.cls-4,.cls-40,.cls-41,.cls-42,.cls-43,.cls-44,.cls-45,.cls-46,.cls-47,.cls-48,.cls-49,.cls-5,.cls-50,.cls-51,.cls-52,.cls-53,.cls-54,.cls-55,.cls-56,.cls-57,.cls-58,.cls-59,.cls-6,.cls-60,.cls-61,.cls-62,.cls-63,.cls-64,.cls-65,.cls-66,.cls-67,.cls-68,.cls-69,.cls-7,.cls-70,.cls-71,.cls-72,.cls-73,.cls-74,.cls-75,.cls-76,.cls-77,.cls-78,.cls-79,.cls-8,.cls-80,.cls-81,.cls-82,.cls-83,.cls-84,.cls-85,.cls-86,.cls-87,.cls-88,.cls-89,.cls-9,.cls-90,.cls-91,.cls-92,.cls-93,.cls-94,.cls-95,.cls-96,.cls-97{fill:none;stroke-width:1.22px;}.cls-2{stroke:#0c1623;}.cls-3{stroke:#d2d3d3;}.cls-4{stroke:#1b1e28;}.cls-5{stroke:#1c487c;}.cls-6{stroke:#e4e5e5;}.cls-7{stroke:#111214;}.cls-8{stroke:#dabeb0;}.cls-9{stroke:#717271;}.cls-10{stroke:#eaeae8;}.cls-11{stroke:#6e6e6d;}.cls-12{stroke:#0e1013;}.cls-13{stroke:#0b1421;}.cls-14{stroke:#e9e8e9;}.cls-15{stroke:#e2e3e4;}.cls-16{stroke:#c2c4c8;}.cls-17{stroke:#e5e1da;}.cls-18{stroke:#e8892d;}.cls-19{stroke:#0a4e93;}.cls-20{stroke:#828382;}.cls-21{stroke:#c2beb8;}.cls-22{stroke:#7b7a7b;}.cls-23{stroke:#a8acae;}.cls-24{stroke:#706f6f;}.cls-25{stroke:#d3d2d2;}.cls-26{stroke:#9c9fa7;}.cls-27{stroke:#5d5f67;}.cls-28{stroke:#bd9ecb;}.cls-29{stroke:#c4c5c7;}.cls-30{stroke:#676768;}.cls-31{stroke:#dfdfde;}.cls-32{stroke:#f1f0f0;}.cls-33{stroke:#ececeb;}.cls-34{stroke:#bababc;}.cls-35{stroke:#4f4f50;}.cls-36{stroke:#d5d5d7;}.cls-37{stroke:#f1efef;}.cls-38{stroke:#717373;}.cls-39{stroke:#93989d;}.cls-40{stroke:#787a81;}.cls-41{stroke:#bcbfc4;}.cls-42{stroke:#6b6c6b;}.cls-43{stroke:#acadaf;}.cls-44{stroke:#c8cbcd;}.cls-45{stroke:#e6e7e7;}.cls-46{stroke:#c5c8cd;}.cls-47{stroke:#4a3a39;}.cls-48{stroke:#c9cbce;}.cls-49{stroke:#656465;}.cls-50{stroke:#355b98;}.cls-51{stroke:#c87729;}.cls-52{stroke:#736c6a;}.cls-53{stroke:#9599a1;}.cls-54{stroke:#9b5633;}.cls-55{stroke:#737372;}.cls-56{stroke:#8c6141;}.cls-57{stroke:#bfbfc0;}.cls-58{stroke:#503935;}.cls-59{stroke:#3e3b38;}.cls-60{stroke:#aeb0b9;}.cls-61{stroke:#b2b3b5;}.cls-62{stroke:#d8a198;}.cls-63{stroke:#cbcccc;}.cls-64{stroke:#afb6be;}.cls-65{stroke:#b2b4b9;}.cls-66{stroke:#dfdfdf;}.cls-67{stroke:#e7e7e6;}.cls-68{stroke:#716f72;}.cls-69{stroke:#d7d8d6;}.cls-70{stroke:#5d6167;}.cls-71{stroke:#777573;}.cls-72{stroke:#8c8d8b;}.cls-73{stroke:#c25b31;}.cls-74{stroke:#7fb1df;}.cls-75{stroke:#b3b5b9;}.cls-76{stroke:#f3f2f2;}.cls-77{stroke:#d5d6d4;}.cls-78{stroke:#a55d3d;}.cls-79{stroke:#f0eeee;}.cls-80{stroke:#c6c6c8;}.cls-81{stroke:#e5e4e4;}.cls-82{stroke:#6c6c6d;}.cls-83{stroke:#b2b6bd;}.cls-84{stroke:#696b6a;}.cls-85{stroke:#c0c3c9;}.cls-86{stroke:#727682;}.cls-87{stroke:#4c4f57;}.cls-88{stroke:#7a7c7e;}.cls-89{stroke:#2e3c65;}.cls-90{stroke:#c2c1c4;}.cls-91{stroke:#8a898e;}.cls-92{stroke:#525863;}.cls-93{stroke:#bcbec3;}.cls-94{stroke:#c5c8cc;}.cls-95{stroke:#dba48f;}.cls-96{stroke:#5c89c7;}.cls-97{stroke:#4f6db1;}.cls-98{fill:#0c1623;}.cls-99{fill:#d2d3d3;}.cls-100{fill:#1b1e28;}.cls-101{fill:#1c487c;}.cls-102{fill:#e4e5e5;}.cls-103{fill:#111214;}.cls-104{fill:#dabeb0;}.cls-105{fill:#717271;}.cls-106{fill:#eaeae8;}.cls-107{fill:#6e6e6d;}.cls-108{fill:#0e1013;}.cls-109{fill:#0b1421;}.cls-110{fill:#e9e8e9;}.cls-111{fill:#e2e3e4;}.cls-112{fill:#c2c4c8;}.cls-113{fill:#e5e1da;}.cls-114{fill:#e8892d;}.cls-115{fill:#0a4e93;}.cls-116{fill:#828382;}.cls-117{fill:#c2beb8;}.cls-118{fill:#7b7a7b;}.cls-119{fill:#a8acae;}.cls-120{fill:#706f6f;}.cls-121{fill:#d3d2d2;}.cls-122{fill:#9c9fa7;}.cls-123{fill:#5d5f67;}.cls-124{fill:#bd9ecb;}.cls-125{fill:#c4c5c7;}.cls-126{fill:#676768;}.cls-127{fill:#dfdfde;}.cls-128{fill:#f1f0f0;}.cls-129{fill:#ececeb;}.cls-130{fill:#bababc;}.cls-131{fill:#4f4f50;}.cls-132{fill:#d5d5d7;}.cls-133{fill:#f1efef;}.cls-134{fill:#717373;}.cls-135{fill:#93989d;}.cls-136{fill:#787a81;}.cls-137{fill:#bcbfc4;}.cls-138{fill:#6b6c6b;}.cls-139{fill:#acadaf;}.cls-140{fill:#c8cbcd;}.cls-141{fill:#e6e7e7;}.cls-142{fill:#c5c8cd;}.cls-143{fill:#4a3a39;}.cls-144{fill:#c9cbce;}.cls-145{fill:#656465;}.cls-146{fill:#355b98;}.cls-147{fill:#c87729;}.cls-148{fill:#736c6a;}.cls-149{fill:#9599a1;}.cls-150{fill:#9b5633;}.cls-151{fill:#737372;}.cls-152{fill:#8c6141;}.cls-153{fill:#bfbfc0;}.cls-154{fill:#503935;}.cls-155{fill:#3e3b38;}.cls-156{fill:#aeb0b9;}.cls-157{fill:#b2b3b5;}.cls-158{fill:#d8a198;}.cls-159{fill:#cbcccc;}.cls-160{fill:#afb6be;}.cls-161{fill:#b2b4b9;}.cls-162{fill:#dfdfdf;}.cls-163{fill:#e7e7e6;}.cls-164{fill:#716f72;}.cls-165{fill:#d7d8d6;}.cls-166{fill:#5d6167;}.cls-167{fill:#777573;}.cls-168{fill:#8c8d8b;}.cls-169{fill:#c25b31;}.cls-170{fill:#7fb1df;}.cls-171{fill:#b3b5b9;}.cls-172{fill:#f3f2f2;}.cls-173{fill:#d5d6d4;}.cls-174{fill:#a55d3d;}.cls-175{fill:#f0eeee;}.cls-176{fill:#c6c6c8;}.cls-177{fill:#e5e4e4;}.cls-178{fill:#6c6c6d;}.cls-179{fill:#b2b6bd;}.cls-180{fill:#696b6a;}.cls-181{fill:#c0c3c9;}.cls-182{fill:#727682;}.cls-183{fill:#4c4f57;}.cls-184{fill:#7a7c7e;}.cls-185{fill:#2e3c65;}.cls-186{fill:#c2c1c4;}.cls-187{fill:#8a898e;}.cls-188{fill:#525863;}.cls-189{fill:#bcbec3;}.cls-190{fill:#c5c8cc;}.cls-191{fill:#dba48f;}.cls-192{fill:#5c89c7;}.cls-193{fill:#4f6db1;}</style></defs><title>avatar-astronaut</title><rect class="cls-1" width="1080" height="1080"/><path class="cls-2" d="M34.13,105.16c-3.88,141,3.59,292.4,4.08,436.66s-9.3,296.06-4.08,436.65c25.38,97.86,140.59,61.21,224.45,65.29s204-1.51,289.74,0,209.27.09,289.74,0,203.07,25.14,212.21-73.45-1.47-192.54,0-289.74,5.18-193.44,0-289.75,15.43-194.25-.29-289.45S908.5,38.89,829.9,35.79s-204.86.49-289.74,0-206.33-1.76-289.74,0S58.09,8.49,34.13,105.16M736,133.73c4.94,4.94-4.32,17.42-10.93,10.85s6.36-15.42,10.93-10.85m171.4,53.05c-28.4,7.47-45.67,30.08-53.05,57.13-8-23.71-22.57-52.31-53-53,25.95-10.2,46.89-29.46,53-57.13,7.67,26.48,21.26,50.48,53.05,53.05M328,137.81c2.24,32.93-33.1-2,0,0m383.6,208.12c-22.28,11.15-45.42,31.14-49,57.14,30,14.24,36.4,25.3,66.23,43.95s39.54-45.63,64.35-39.87c-7-29.06,2.33-83.46,40.81-53,21.14-43.59,52.77-36.32,78.48-13.18s48.64,63.74,12.32,87.65S882.55,469.26,857.45,500s-36.16,48.07-75.21,63.54-70.64,1.06-114.31-10.74-11.46,59.67-37,87.91.81,67.78,11,101.41-9.59,79.9-33.34,104.75-70.85,35-60.2,78.56S494.5,989,471.81,961.13,422.43,899.55,430,864.21s32.6-54.28,62.15-76.6-7.18-85.9-40.4-64.89-28.45,58.81-59.5,79.25-68.19,20.86-77.74,61-62.28,43.91-85.5,14.53-14.44-84.52,6.33-110,42-55.62,72.23-58.36c-.77-31.58,33.5-57,8.16-89.78-19.42-6.08-31.13,46.85-63.95,31.3s-57-4.85-87-2.73c.65,16.69-43.54,23-36.69,44.93s6.57,44.28,28.85,56.76,9.84,44.24,28.24,41.14c-9.71,35.3,1,69.5-39.78,94.88s-51.1-10.45-13.68-34.07-1.1-67.79-17.13-88.15-35.43-71.7-12-100.11,42.32-54.23,82.55-56.19c-15.54-6.45,18.33-18.61,27.55-41.83s-3.31-56.15,6.45-79.25,13.42-40.73,36.4-57.46,21.55-40.28,27.26-66.6,1.67-59.17,7.55-86.31,24.16-34.6,46.07-47.79,57.71,3.39,72.85-16.93,25.62-33,48.07-45.79S504.25,146.71,532,146s54,3.63,78.43,15.43,30.28,23.71,53.18,40.68,12.61,44.81,28.6,65.26,26.9,48.72,19.35,78.59M189.21,150.05c22.93,4.65,18.56,50.85-8.21,44.85s-15.3-49.62,8.21-44.85M964.57,268.4c-11.67,21.63-21.46-13.75,0,0M164.72,329.61c26.61,6.65,17.1,56.56-13.14,45.79s-18.49-53.71,13.14-45.79M136.15,496.93c7.55,3.34,2.49,19.22-6.93,14.85s-1.6-18.65,6.93-14.85M936,566.3c23.62,7.06,10.77,51.62-15,39.46S914.74,560,936,566.3M744.2,656.08c28.82,5.1,21.47,59.3-10.93,51.67s-21-57.34,10.93-51.67M209.61,696.89c4.28,24-24,0,0,0m697.83,49c.24,21.91,17.67,42.6,40.81,40.81-12.49,13.3-43.34,25.5-40.81,53.05-11.71-15.91-16.69-46-44.89-44.89,15.47-12.53,39.14-24.69,44.89-49M772.77,790.75c4.94,4.94-4.33,17.43-10.94,10.86s6.37-15.43,10.94-10.86m-49,126.51c3-29.87,56-32.81,53,0s-45.34,25.71-53,0M201.45,945.82c10.32,5,.9,26.37-10.94,19s-.57-24.61,10.94-19m146.91,0c4.94,4.94-4.33,17.43-10.94,10.86S343.79,941.25,348.36,945.82Z"/><path class="cls-3" d="M34.13,978.47V105.16c-21.79,88,.08,196.21-4.08,289.75s-4.73,200.37,0,293.82S11.32,890.49,34.13,978.47Z"/><path class="cls-4" d="M34.13,978.47C28.91,837.88,38.7,686,38.21,541.82s-8-295.62-4.08-436.66Z"/><path class="cls-5" d="M736,133.73c-4.57-4.57-17.55,4.28-10.93,10.85S741,138.67,736,133.73Z"/><path class="cls-6" d="M907.44,186.78c-31.79-2.57-45.38-26.57-53.05-53.05-6.16,27.67-27.1,46.93-53,57.13,30.48.74,45.09,29.34,53,53C861.77,216.86,879,194.25,907.44,186.78Z"/><path class="cls-7" d="M711.56,345.93c7.55-29.87-3.35-58.11-19.35-78.59s-5.71-48.28-28.6-65.26-28.69-28.93-53.18-40.68S559.75,145.24,532,146s-52.24,6.37-74.68,19.18-32.93,25.43-48.07,45.79-50.93,3.75-72.85,16.93-40.19,20.61-46.07,47.79-1.88,60-7.55,86.31-4.29,49.87-27.26,66.6-26.69,34.36-36.4,57.46,2.81,56.07-6.45,79.25-43.09,35.38-27.55,41.83c-40.23,2-59.09,27.83-82.55,56.19s-4.12,79.74,12,100.11,54.56,64.52,17.13,88.15S104.57,911,145.34,885.63s30.07-59.58,39.78-94.88c-18.4,3.1-5.91-28.65-28.24-41.14s-22-34.8-28.85-56.76,37.34-28.24,36.69-44.93c30.08-2.12,54.23-12.81,87,2.73s44.53-37.38,63.95-31.3c25.34,32.81-8.93,58.2-8.16,89.78-30.2,2.74-51.46,32.94-72.23,58.36s-29.51,80.56-6.33,110,75.91,25.63,85.5-14.53,46.68-40.52,77.74-61,26.28-58.23,59.5-79.25,69.94,42.57,40.4,64.89-54.6,41.26-62.15,76.6,19.14,69.09,41.83,96.92S559,969,548.32,925.42s36.49-53.71,60.2-78.56,43.54-71.17,33.34-104.75-36.61-73.17-11-101.41-6.65-99.66,37-87.91S743.18,579,782.24,563.53s50.11-32.77,75.21-63.54,31-47.5,67.33-71.42,13.39-64.52-12.32-87.65S855.12,310.51,834,354.1c-38.48-30.41-47.78,24-40.81,53-24.81-5.76-34.52,58.52-64.35,39.87s-36.2-29.71-66.23-43.95c3.55-26,26.69-46,49-57.14M556.48,158.21c64.48,4.41,115.9,58.65,118.35,122.43a127.34,127.34,0,0,1,0,36.73C669.24,463.67,465.52,459,405.49,350c11.1-29.06,29.59-75.91,4.08-102,11.47-50.84,63.7-87.08,114.27-89.78,11.75-1.91,21-2.08,32.64,0M376.93,252.07c-13.8,15.35-17.27,49.06-12.25,69.38,12.45,14.73,23.92,27.46,36.73,40.81-16.57,4.45-36.24,8.32-53.05,16.32-10.08-3.3-6.9-5.75-8.16-16.32-1.72-14.28,3-29.75,4.08-40.81,0-10.28,3.18-25.71-4.08-32.65-11.71,42.32,8.93,104.64-49,114.27,7.55-48.77,1.26-103.9,24.48-146.91,18.37-26.24,52.56-20.29,81.62-20.41-2.33,11.35-18.28,4.86-20.4,16.32m32.64,40.81c-.61,16.2.53,46.12-20.4,36.73-21.59-9.67-14.41-51.38-4.08-65.29,21.22-28.57,25.18,10.12,24.48,28.56m277.5,28.57c.41-8.45-2.53-20.57,0-28.57,7-22,25.39,48,0,53.05-8-5.1,4.12-15.87,0-24.48m118.35,85.7c-4.21-13-11.31-43.5,4.08-53,21-13,12.53,26.36,24.93,32.19s15.67,34.32,3.63,45.34c27.8-4.49,23.67-44.27,0-53.05,15-9.43,13.31-48.48,37.67-48s-7.3,41.71-9.1,52.11c16.2,3.51,31.51-44.56,48-27.5s-27.87,37.5-35.71,35.66c10.16,4.82,11.76,18.65,20.41,24.49-4.86-45,49.17-24.32,23.46-5.1S891.89,453,862.51,456.08s-46.6-29.3-57.09-48.93m-383.6,36.73c-1.35,27-20.21,57.33-49,61.21,6.09-16.24,21.88-29.34,20.41-49,1.26-12.49,1.55-28.36,0-40.81-3.27-13.22-6.49-26.12-16.32-36.73,40.36-9,42.48,38.24,44.89,65.3M381,456.12c-6.29,30.28-22.73,35.62-53.05,40.81,1.79-9.51-5.07-16.41-8.17-24.49-8-2.12-5.47-7.92-12.24-4.08-4.57,11,27.18,44.6,0,57.13-8-.45-15.34-7.3-20.4-12.24-4.7-1.22-11.47,0-16.33,0-8.16,0-16.32,0-24.48,0-6.33,0-9.8,4.65-16.33,4.08-2.24-65.66,59.3-105.24,113-123.69s37.83,34.28,38,62.48m146.91-16.33a440.82,440.82,0,0,0,53.05,0c17.63-1.18,34.65-5.91,49-16.32,5.1,22.41,9.67,45.22,8.16,69.38.9,9.46,1.35,19.09,0,28.56-.9,26.65-17.26,93.21-31.18,62.44s39.3-84.47,5.68-106.31S537.51,461,499.35,460.2c-9.34-.2-23.75-2.65-32.65,0-42.07,19.67-3.59,105-53.05,122.43-7.22-6.37-18.89-5.39-24.48-12.25-28.89-12.61-33-24.07-24.49-57.13,19.75,9.14,38.28-7.92,53.05-20.4,16.29-28.61,21.47-67.05,8.17-97.94,29.87,23,63.54,43.46,102,44.88m126.51,65.3c-9.64-28.24-6.45-63.21-12.25-93.86,40.08,7.92,23.51,67.13,12.25,93.86M834,460.2c6.08,4.08,17.51,5.3,24.49,8.16,2,22.28-29.83,19.87-36.73,4.08-9.67-6.49-44.36-32.36-29.46-45.79S825,454.16,834,460.2m-20.4,24.48c7.39,4.57,15.43,8.86,24.48,8.17-29.62,76.23-128.13,75.21-187.72,36.72,3.51-14.69,19.88-24.36,20.41-40.8,5.43-19.51,11.79-41.34,4.08-61.22,22.69,16.2,62.27,28.08,57.13,57.13,11.92-16.73,28.32-36.44,49-44.89,2.57,19,18.45,34.28,32.65,44.89M495.27,468.36c27.67,2.29,73.62,2.33,102,12.24s3.59,60,.08,89.86-55.94,22-85.78,20.33-72.15-11.88-57.13-49-10.61-77.74,40.81-73.46M352.44,501c4.69,18.28-10.57,32.64-4.08,49-21.59-4.37-11.43,24.48-20.4,32.65-25.84-22.45-13.06-77.87,24.48-81.62m-53.05,49c-19.87-11.43-47.26-10.49-69.38-4.08-10.73-36.73,81.62-32.24,69.38,4.08m-4.08,36.73c-19.88,10.48,4.57,45-20.41,53C263.19,629,281,601.64,262.66,599c-6.28,12.57-.82,28.52-8.16,40.81-18-6.61-11.79-29.63-20.41-40.81-11.63,55-34.11-16-11.18-35.67s61-18.89,83.62,4,1.47,71.58-11.22,19.39m102,0c-15.43,23.34-64.4,7.59-53.05-24.49,18.08,6,33.71,20.69,53.05,24.49m44.89-8.17c18.89,21-.29,31.47-21.34,44s-49.83,5.75-72.52.93c1.71-24.93,29.87-8.12,45.83-19.46s30.93-17.79,48-25.43m122.43,57.14c-14.41,9.3-35.14,1.34-49,0-25.14,0-52.44-2.21-73.46-12.25,7.63-9.46,23.26-12.16,28.57-24.48,30.44,7.18,62.11,9.87,93.86,12.24-5.55,9.75,18.69,23.22,0,24.49m57.13-20.41c5.18,42.69-49.71,24.08-44.89-8.16C595,593,604,611.76,621.78,615.27m-285.66-8.16c4.16,30.44-24.65,14,0,0M148.4,831.56a102.37,102.37,0,0,0,0-24.49c-15.27-57.74-81.87-83.12-36.73-151a90.09,90.09,0,0,1,24.48-24.48c19.1-12.7,69.09-36.08,73.46,0-62-15.06-126,75.78-74.39,119.28s43.21,129.24-27.63,137.81c2.69-23.87,42.23-27.34,40.81-57.13M511.59,647.92c14.7.57,30.24,1,44.89,0,16.57-1.14,43.71-7.22,44.89,16.32C550,653.76,521.63,709,474.87,709.13c-17.55-.69-15.88-.41-24.49-12.24-6.45-8.86-9.67-19.63-16.32-28.57-6.49-7.46-22-13.91-24.49-24.48-5.55-23.83,81.74,3.3,102,4.08m-73.45,57.13c1.59,12.57-5,16.57-12.24,28.57-19.71,32.48-35.55,44.89-65.3,65.29-4.73,3.27-6.32,9.39-12.24,12.24-19.34,9.31-41.34,9.31-57.13-4.08-35.42-30-14.29-99.94,24.48-73.45-5.59-25,12.78-42.69,16.33-65.3,2.16-6.12,5.51-11.55,8.16-16.32,2.9-5.18,5.14-10,4.08-16.32,39.91.53,88,26.36,93.86,69.37M613.62,701a15.07,15.07,0,0,1,0,4.08c4.08,17.43,10.61,34.69,12.24,53.05,2.49,12.25,3,20.49,0,32.65-2.86,11.55-4.9,18.69-12.24,28.57-6,8.12-13.72,13.63-20.41,20.4-2.61,2.65-5.63,5.71-8.16,8.16-24.53,23.63-50.15,44-81.62,20.41-14.28-10.74-29.38-29.26-24.48-49,3.47-13.92,25.18-22.33,32.64-32.65,2.86-4,3.76-7.31,4.09-12.24s-2.45-19.47-4.09-24.49c-1.38-4.32-6.89-10.61-8.16-16.32C496.86,703.5,604,642.49,613.62,701m-351,81.62c6.45,20.4,25.75,43.91,49,44.89,6.73,38-44.85,76.64-70.39,41.83S234.38,791,250.42,758.1c3.63-3.18,5-10.73,12.24-8.16v32.65m204,44.89c.82,33.91,30.73,65.37,65.3,65.29,33.26,53.26-39.87,90.56-64.27,48S428.43,859.59,466.7,827.48Z"/><path class="cls-8" d="M189.21,150.05c-23.51-4.77-35,38.85-8.21,44.85S212.14,154.7,189.21,150.05Z"/><path class="cls-9" d="M523.84,158.21a273.42,273.42,0,0,1,32.64,0C544.89,156.13,535.59,156.3,523.84,158.21Z"/><path class="cls-10" d="M674.83,317.37c.45-12.12.45-24.61,0-36.73-2.45-63.78-53.87-118-118.35-122.43a273.42,273.42,0,0,0-32.64,0C473.27,160.91,421,197.15,409.57,248c25.51,26.12,7,73-4.08,102,60,109,263.75,113.65,269.34-32.65m-102-97.94c45.38,2.45,82,23.67,93.86,69.37,3.22,12.37,2.12,20.77,0,32.65-6.08,89.41-118.14,126.38-190.78,72.43s-32.53-169.43,60.19-174.45A109.92,109.92,0,0,1,572.81,219.43Z"/><path class="cls-11" d="M536.08,219.43a340.93,340.93,0,0,1,36.73,0A109.92,109.92,0,0,0,536.08,219.43Z"/><path class="cls-12" d="M666.67,321.45c.69-10.2,1.34-22.53,0-32.65-11.84-45.7-48.48-66.92-93.86-69.37a340.93,340.93,0,0,0-36.73,0c-92.72,5-132.79,120.46-60.19,174.45s184.7,17,190.78-72.43m-16.33-28.57c5.84,26.28-3.91,45.1-13.5,68.11s-35.55,21.63-51.79,29.83c-14.94,23.75-52.72,15.84-77.86.33s-63.83-24.28-60.89-61.54c12.57,2.82,9.43-12.61,16.32-16.32,9.55-8.57,7.55-1.15,16.33-4.08,11.55-3.84,22.61-27,36.73-16.33-3-8.89,4.16-16.36,4.08-24.48-2.94,10.36-45,45-52,19.38s32.52-33.87,43.86-43.87c-.08-.65,3.19-8.61,0-12.24,41.59-11.1,88.6-3.35,122.43,16.32.57,15.43-20.61,10.74-12.28,28.61s2,30.24,4.12,48.93c8.2-15.59,4.45-39.91,0-57.13C636.76,270.07,649,281.78,650.34,292.88Z"/><path class="cls-13" d="M511.59,243.91c1.07,7.23,8.25,12.37,8.17,24.49.08,8.12-7.06,15.59-4.08,24.48-14.12-10.65-25.18,12.49-36.73,16.33.24-.29-22.24,31.79-16.33,4.08-6.89,3.71-3.75,19.14-16.32,16.32-2.94,37.26,35.79,46,60.89,61.54s62.92,23.42,77.86-.33c21.3-33.87,66.44-62.11,49-114.26,8.73,2.41,10,12.41,16.32,16.32-1.34-11.1-13.58-22.81-24.48-24.48,4.45,17.22,8.2,41.54,0,57.13-2.12-18.69,4.2-31.06-4.12-48.93S634.59,263.42,634,248c-33.83-19.67-80.84-27.42-122.43-16.32C514.78,235.3,511.51,243.26,511.59,243.91Z"/><path class="cls-14" d="M315.71,256.16c7.14-6.86,22.9,1.38,24.49,16.32,11.14-6.82,20.69-19.14,36.73-20.41,2.12-11.46,18.07-5,20.4-16.32C368.27,235.87,334.08,229.92,315.71,256.16Z"/><path class="cls-15" d="M519.76,268.4c.08-12.12-7.1-17.26-8.17-24.49-11.34,10-50.88,18.28-43.86,43.87S516.82,278.76,519.76,268.4Z"/><path class="cls-16" d="M315.71,256.16c-23.22,43-16.93,98.14-24.48,146.91,57.9-9.63,37.26-71.95,49-114.27,7.26,6.94,4.08,22.37,4.08,32.65,0,12.65-4.29,31.63-4.08,40.81,1.26,10.57-1.92,13,8.16,16.32,2.2-22.89-4.73-48.23,4.08-69.37,4.94,1.22,5.43,21.54,12.24,12.24-5-20.32-1.55-54,12.25-69.38-16,1.27-25.59,13.59-36.73,20.41C338.61,257.54,322.85,249.3,315.71,256.16Z"/><path class="cls-17" d="M385.09,264.32c12.4-.29,8.44,29.71,8.16,36.72,2.94-5.5,8.85-9.79,16.32-8.16C410.27,274.44,406.31,235.75,385.09,264.32Z"/><path class="cls-18" d="M389.17,329.61c6.16-8,3.71-19,4.08-28.57.28-7,4.24-37-8.16-36.72C374.76,278.23,367.58,319.94,389.17,329.61Z"/><path class="cls-19" d="M585.05,390.82c16.24-8.2,42.24-6.77,51.79-29.83s19.34-41.83,13.5-68.11C644.06,289,642.75,279,634,276.56,651.49,328.71,606.35,357,585.05,390.82Z"/><path class="cls-20" d="M674.83,317.37a127.34,127.34,0,0,0,0-36.73C675.28,292.76,675.28,305.25,674.83,317.37Z"/><path class="cls-21" d="M687.07,292.88c-.61,2.74.78,23.63,0,28.57,4.12,8.61-8,19.38,0,24.48C712.46,340.87,694.09,270.85,687.07,292.88Z"/><path class="cls-22" d="M666.67,321.45c2.12-11.88,3.22-20.28,0-32.65C668,298.92,667.36,311.25,666.67,321.45Z"/><path class="cls-23" d="M393.25,301c-.37,9.59,2.08,20.53-4.08,28.57,20.93,9.39,19.79-20.53,20.4-36.73C402.1,291.25,396.19,295.54,393.25,301Z"/><path class="cls-24" d="M687.07,321.45c.78-4.94-.61-25.83,0-28.57C684.54,300.88,687.48,313,687.07,321.45Z"/><path class="cls-25" d="M462.62,313.29c-5.91,27.71,16.57-4.37,16.33-4.08C470.17,312.14,472.17,304.72,462.62,313.29Z"/><path class="cls-26" d="M348.36,378.58c16.81-8,36.48-11.87,53.05-16.32-12.81-13.35-24.28-26.08-36.73-40.81-6.81,9.3-7.3-11-12.24-12.24C343.63,330.35,350.56,355.69,348.36,378.58Z"/><path class="cls-27" d="M340.2,362.26c-.21-9.18,4.08-28.16,4.08-40.81C343.22,332.51,338.48,348,340.2,362.26Z"/><path class="cls-28" d="M164.72,329.61c-31.63-7.92-43.42,35-13.14,45.79S191.33,336.26,164.72,329.61Z"/><path class="cls-29" d="M809.5,354.1c-8.29,8.28-6.12,42-4.08,53,10.49,19.63,27.71,52,57.09,48.93s34.48-26.69,60.23-45.87-28.32-39.91-23.46,5.1c-8.65-5.84-10.25-19.67-20.41-24.49,7.84,1.84,52.12-18.6,35.71-35.66s-31.75,31-48,27.5c1.8-10.4,33.46-51.66,9.1-52.11s-22.69,38.6-37.67,48c23.67,8.78,27.8,48.56,0,53.05,12-11,8.74-39.5-3.63-45.34S830.47,341.12,809.5,354.1Z"/><path class="cls-30" d="M805.42,407.15c-2-11.06-4.21-44.77,4.08-53C794.11,363.65,801.21,394.17,805.42,407.15Z"/><path class="cls-31" d="M393.25,415.31c2.33,9.39,5.55,20.57,4.08,32.65,5.47-6.86,17.22-2.78,24.49-4.08-2.41-27.06-4.53-74.28-44.89-65.3C386.76,389.19,390,402.09,393.25,415.31Z"/><path class="cls-32" d="M246.34,513.25c7.55-.45,16.73-1.1,24.48,0,4.86,0,11.63-1.22,16.33,0,14.28-5.71,6.73-37.14,20.4-44.89,6.77-3.84,4.2,2,12.24,4.08,5.63,1.47,55.38-10,61.22-16.32-.17-28.2,15.75-80.88-38-62.48s-115.24,58-113,123.69c6.53.57,10-4.12,16.33-4.08m44.89-53.05c-7.39,9.39-25.3,3.06-28.57-8.16C271.6,444,286.74,450.45,291.23,460.2Z"/><path class="cls-33" d="M417.73,492.85c-14.73,25.87-27,45.91-28.56,77.53,5.59,6.86,17.26,5.88,24.48,12.25,49.46-17.39,11-102.76,53.05-122.43,12.37-5.8,21.35-1.39,32.65,0,38.16.77,79.66-4.49,113.25,17.34S593,553.08,606.92,583.85s30.28-35.79,31.18-62.44c.33-9.51,0-19.06,0-28.56,1.51-24.16-3.06-47-8.16-69.38-14.32,10.41-31.34,15.14-49,16.32a157.21,157.21,0,0,1-53.05,0c-38.48-1.42-72.15-21.91-102-44.88C439.2,425.8,434,464.24,417.73,492.85Z"/><path class="cls-34" d="M654.43,505.09c11.26-26.73,27.83-85.94-12.25-93.86C648,441.88,644.79,476.85,654.43,505.09Z"/><path class="cls-35" d="M393.25,456.12c.9-2.7,3.51-3.63,4.08-8.16,1.47-12.08-1.75-23.26-4.08-32.65C394.8,427.76,394.51,443.63,393.25,456.12Z"/><path class="cls-36" d="M821.74,472.44c6.61-1.63-2.77-7.71,0-12.24,4.73-3.22,10.33,8,12.24,0-9-6-26.81-47-41.7-33.55S812.07,466,821.74,472.44Z"/><path class="cls-37" d="M670.75,488.77c9.18,19.75,41,16.36,32.65,44.88,39.74-4.36,92.84-4.4,110.18-49-14.2-10.61-30.08-25.91-32.65-44.89-20.65,8.45-37,28.16-49,44.89,5.14-29.05-34.44-40.93-57.13-57.13C682.54,447.43,676.18,469.26,670.75,488.77Z"/><path class="cls-38" d="M581,439.79a440.82,440.82,0,0,1-53.05,0A157.21,157.21,0,0,0,581,439.79Z"/><path class="cls-39" d="M397.33,448c-.57,4.53-3.18,5.46-4.08,8.16,1.47,19.63-14.32,32.73-20.41,49,28.77-3.88,47.63-34.24,49-61.21C414.55,445.18,402.8,441.1,397.33,448Z"/><path class="cls-40" d="M291.23,460.2c-4.49-9.75-19.63-16.16-28.57-8.16C265.93,463.26,283.84,469.59,291.23,460.2Z"/><path class="cls-41" d="M319.79,472.44c3.1,8.08,10,15,8.17,24.49,30.32-5.19,46.76-10.53,53.05-40.81C375.17,462.4,325.42,473.91,319.79,472.44Z"/><path class="cls-42" d="M466.7,460.2c8.9-2.65,23.31-.2,32.65,0C488.05,458.81,479.07,454.4,466.7,460.2Z"/><path class="cls-43" d="M821.74,472.44c6.9,15.79,38.69,18.2,36.73-4.08-7-2.86-18.41-4.08-24.49-8.16-1.91,8-7.51-3.22-12.24,0C819,464.73,828.35,470.81,821.74,472.44Z"/><path class="cls-44" d="M287.15,513.25c5.06,4.94,12.4,11.79,20.4,12.24,27.18-12.53-4.57-46.15,0-57.13C293.88,476.11,301.43,507.54,287.15,513.25Z"/><path class="cls-45" d="M495.27,468.36c-51.42-4.28-25.83,36.32-40.81,73.46s27.3,47.25,57.13,49,82.32,9.55,85.78-20.33,28.33-79.94-.08-89.86-74.35-10-102-12.24m8.16,57.13c-3.51,3.92-14.24-1.3-16.32-4.08-14.94.7-8-37,16.32-32.64s16.41,43,0,36.72M585.05,501c19.22,13.51,4.16,32.24-16.32,28.56-31.26-5.59-5.68-44,16.32-28.56m-36.73,0c-.65,47-42.52-1.47,0,0m-44.89,36.73c19.14,8.52,5.8,45.25-17.22,33.54s-4.45-43.22,17.22-33.54m69.38,8.16c19.55,9,1.63,43.66-19.06,31.3S552.2,536.43,572.81,545.9Z"/><path class="cls-46" d="M670.75,488.77c-.53,16.44-16.9,26.11-20.41,40.8,59.59,38.49,158.1,39.51,187.72-36.72-9,.69-17.09-3.6-24.48-8.17-17.34,44.57-70.44,44.61-110.18,49C711.72,505.13,679.93,508.52,670.75,488.77Z"/><path class="cls-47" d="M487.11,521.41c3.47,4.57,0-9.75,0-8.16-.16-25.22,36.07-16.61,16.32,4.08-1,1.06,1,7,0,8.16,16.41,6.25,24.41-32.32,0-36.72S472.17,522.11,487.11,521.41Z"/><path class="cls-48" d="M389.17,570.38c1.55-31.62,13.83-51.66,28.56-77.53-14.77,12.48-33.3,29.54-53.05,20.4C356.15,546.31,360.28,557.77,389.17,570.38Z"/><path class="cls-49" d="M638.1,521.41c1.35-9.47.9-19.1,0-28.56C638.1,502.35,638.43,511.9,638.1,521.41Z"/><path class="cls-50" d="M136.15,496.93c-8.53-3.8-16.32,10.53-6.93,14.85S143.7,500.27,136.15,496.93Z"/><path class="cls-51" d="M487.11,513.25c-1.63,1.14,17.18,5.1,16.32,4.08C523.18,496.64,487,488,487.11,513.25Z"/><path class="cls-52" d="M568.73,529.57c-13.88-9.06-.74-35.13,16.32-28.56C563.05,485.54,537.47,524,568.73,529.57Z"/><path class="cls-53" d="M352.44,501c-37.54,3.75-50.32,59.17-24.48,81.62,9-8.17-1.19-37,20.4-32.65C341.87,533.65,357.13,519.29,352.44,501Z"/><path class="cls-54" d="M568.73,529.57c20.48,3.68,35.54-15.05,16.32-28.56-17.06-6.57-30.2,19.5-16.32,28.56m0-4.08C563.1,485.87,605.21,525.33,568.73,525.49Z"/><path class="cls-55" d="M246.34,513.25c8.16,0,16.32,0,24.48,0C263.07,512.15,253.89,512.8,246.34,513.25Z"/><path class="cls-56" d="M487.11,521.41c2.08,2.78,12.81,8,16.32,4.08,1-1.14-1-7.1,0-8.16.86,1-17.95-2.94-16.32-4.08C487.11,511.66,490.58,526,487.11,521.41Z"/><path class="cls-57" d="M299.39,550c12.24-36.32-80.11-40.81-69.38-4.08C252.13,539.49,279.52,538.55,299.39,550Z"/><path class="cls-58" d="M503.43,537.74c-21.67-9.68-40.28,21.83-17.22,33.54s36.36-25,17.22-33.54M487.11,566.3C481.36,531.57,521.92,568.14,487.11,566.3Z"/><path class="cls-59" d="M572.81,545.9c-20.61-9.47-39.75,18.93-19.06,31.3s38.61-22.32,19.06-31.3m0,20.4C543.55,572.55,568.24,541.25,572.81,566.3Z"/><path class="cls-60" d="M295.31,586.71c12.69,52.19,33.79,3.55,11.22-19.39s-60.72-23.71-83.62-4S222.46,654,234.09,599c8.62,11.18,2.45,34.2,20.41,40.81,7.34-12.29,1.88-28.24,8.16-40.81,18.32,2.69.53,30.07,12.24,40.81C299.88,631.68,275.43,597.19,295.31,586.71Z"/><path class="cls-61" d="M397.33,586.71c-19.34-3.8-35-18.53-53.05-24.49C332.93,594.3,381.9,610.05,397.33,586.71Z"/><path class="cls-62" d="M936,566.3c-21.27-6.32-40.73,27.3-15,39.46S959.63,573.36,936,566.3Z"/><path class="cls-63" d="M442.22,578.54c-17.1,7.64-32.08,14.08-48,25.43s-44.12-5.47-45.83,19.46c22.69,4.82,51.46,11.55,72.52-.93S461.11,599.56,442.22,578.54Z"/><path class="cls-64" d="M515.68,635.68c13.14,0,36.89,4.73,49,0,18.69-1.27-5.55-14.74,0-24.49-31.75-2.37-63.42-5.06-93.86-12.24-5.31,12.32-20.94,15-28.57,24.48C463.24,633.47,490.54,635.68,515.68,635.68Z"/><path class="cls-65" d="M621.78,615.27C604,611.76,595,593,576.89,607.11,572.07,639.35,627,658,621.78,615.27Z"/><path class="cls-66" d="M136.15,631.6c-6.57,5.1-19.54,18.16-24.48,24.48-45.14,67.87,21.46,93.25,36.73,151,2.73,10.37,2.69,14.33,0,24.49,1.42,29.79-38.12,33.26-40.81,57.13,70.84-8.57,79.21-94.31,27.63-137.81s12.36-134.34,74.39-119.28C205.24,595.52,155.25,618.9,136.15,631.6Z"/><path class="cls-67" d="M409.57,643.84c2.08,6,19.92,18.36,24.49,24.48,6.65,8.94,9.87,19.71,16.32,28.57,11.31-1.1,20.69-9.06,32.65-8.16,3.92-9.47,2.94-27.83,16.32-28.57-1.75,15.71-10.2,26.94,0,40.81-14,10.12-29-4.57-44.89,0,3,9,17.67-1.26,20.41,8.16,46.76-.16,75.13-55.37,126.5-44.89-1.18-23.54-28.32-17.46-44.89-16.32-15.3,2.73-30,2.12-44.89,0C491.31,647.14,404,620,409.57,643.84Z"/><path class="cls-68" d="M111.67,656.08c4.94-6.32,17.91-19.38,24.48-24.48A90.09,90.09,0,0,0,111.67,656.08Z"/><path class="cls-69" d="M340.2,652c3,9,45.74,17.63,54,27.63s42.23,35.62,43.95,25.42c-5.84-43-53.95-68.84-93.86-69.37C345.34,642,343.1,646.82,340.2,652Z"/><path class="cls-70" d="M564.65,635.68c-12.08,4.73-35.83,0-49,0C529.51,637,550.24,645,564.65,635.68Z"/><path class="cls-71" d="M434.06,668.32c-4.57-6.12-22.41-18.44-24.49-24.48C412,654.41,427.57,660.86,434.06,668.32Z"/><path class="cls-72" d="M556.48,647.92c-14.65,1-30.19.57-44.89,0C526.49,650,541.18,650.65,556.48,647.92Z"/><path class="cls-73" d="M332,668.32c19.75-16.77,69.09,30.37,81.61,44.89,7,8.12,12.61,7.43,12.25,20.41,7.26-12,13.83-16,12.24-28.57-1.72,10.2-35.71-15.42-43.95-25.42s-51-18.61-54-27.63C337.55,656.77,334.2,662.2,332,668.32Z"/><path class="cls-74" d="M744.2,656.08c-32-5.67-43.29,44-10.93,51.67S773,661.18,744.2,656.08Z"/><path class="cls-75" d="M450.38,696.89c8.61,11.83,6.94,11.55,24.49,12.24-2.74-9.42-17.39.82-20.41-8.16,15.88-4.57,30.89,10.12,44.89,0-10.2-13.87-1.75-25.1,0-40.81C486,660.9,487,679.26,483,688.73,471.07,687.83,461.69,695.79,450.38,696.89Z"/><path class="cls-76" d="M332,668.32c-3.55,22.61-21.92,40.32-16.33,65.3-38.77-26.49-59.9,43.46-24.48,73.45,1,1.35-2.57-13.63-4.08-16.32,14.57-4,35.58-1.63,28.56-24.49,5.23-1.1,11.1,3.15,12.25,8.17,8.36,5.59,15.58,11.26,24.48,16.32,3.06,5.59-6.69-14-16.32-20.4C379,798.18,398.76,745,413.65,713.21,401.13,698.69,351.79,651.55,332,668.32Z"/><path class="cls-77" d="M503.43,733.62c10.82,10.81,31.71-17,47.75-21.63s42-21.79,62.44-11C604,642.49,496.86,703.5,503.43,733.62Z"/><path class="cls-78" d="M503.43,733.62c1.27,5.71,6.78,12,8.16,16.32,6.94-29.14,77.95-45.79,102-44.89a15.07,15.07,0,0,0,0-4.08c-20.45-10.77-46.44,6.33-62.44,11S514.25,744.43,503.43,733.62Z"/><path class="cls-79" d="M511.59,749.94c1.64,5,4.41,19.47,4.09,24.49,4.48,12,24.56,23.09,16.32,36.72-11.63-4.36-14.53-16.89-20.41-24.48C509,800.83,482.58,808,479,819.32c-4.9,19.71,10.2,38.23,24.48,49,1.76.2,43.26-29.79,40.81-36.73-.65-1.8.7-6.41,0-8.16-2.53-6.49-1.26-11.1,0-20.41,11.06,5.68,8.57,22.81,25.38,17.22s29.92-1.67,44-.89c7.34-9.88,9.38-17,12.24-28.57,1.26-10.08.9-22.53,0-32.65-1.63-18.36-8.16-35.62-12.24-53.05C589.54,704.15,518.53,720.8,511.59,749.94Z"/><path class="cls-80" d="M352.44,790.75c1.47.82,6.94,7.84,8.16,8.16,29.75-20.4,45.59-32.81,65.3-65.29.36-13-5.23-12.29-12.25-20.41-14.89,31.75-34.68,85-77.53,57.14C345.75,776.71,355.5,796.34,352.44,790.75Z"/><path class="cls-81" d="M907.44,745.86c-5.75,24.28-29.42,36.44-44.89,49,28.2-1.14,33.18,29,44.89,44.89-2.53-27.55,28.32-39.75,40.81-53.05C925.11,788.46,907.68,767.77,907.44,745.86Z"/><path class="cls-82" d="M250.42,758.1c11.34-4.49,9.34,15.35,12.24,24.49V749.94C255.4,747.37,254.05,754.92,250.42,758.1Z"/><path class="cls-83" d="M250.42,758.1c-16,32.85-34.73,76.4-9.18,111.21s77.12-3.84,70.39-41.83c-23.22-1-42.52-24.49-49-44.89C259.76,773.45,261.76,753.61,250.42,758.1Z"/><path class="cls-84" d="M625.86,790.75c3-12.16,2.49-20.4,0-32.65C626.76,768.22,627.12,780.67,625.86,790.75Z"/><path class="cls-85" d="M291.23,807.07c15.79,13.39,37.79,13.39,57.13,4.08,3.22-2.12,6-9.26,8.16-12.24C342,805.6,305.63,773.45,328,774.43c-1.15-5-7-9.27-12.25-8.17,7,22.86-14,20.49-28.56,24.49C288.66,793.44,292.25,808.42,291.23,807.07Z"/><path class="cls-86" d="M348.36,811.15c5.92-2.85,7.51-9,12.24-12.24-1.22-.32-6.69-7.34-8.16-8.16-8.9-5.06-16.12-10.73-24.48-16.32-22.33-1,14.07,31.17,28.56,24.48C354.32,801.89,351.58,809,348.36,811.15Z"/><path class="cls-87" d="M511.59,786.67c5.88,7.59,8.78,20.12,20.41,24.48,8.24-13.63-11.84-24.73-16.32-36.72C515.35,779.36,514.45,782.67,511.59,786.67Z"/><path class="cls-88" d="M479,819.32c3.63-11.31,30-18.49,32.64-32.65C504.13,797,482.42,805.4,479,819.32Z"/><path class="cls-89" d="M772.77,790.75c-4.57-4.57-17.55,4.29-10.94,10.86S777.71,795.69,772.77,790.75Z"/><path class="cls-90" d="M544.24,823.4c.53-5.19,29.3,21.5,49,16.32,6.69-6.77,14.37-12.28,20.41-20.4-14.08-.78-27.14-4.7-44,.89S555.3,808.67,544.24,803C543,812.3,541.71,816.91,544.24,823.4Z"/><path class="cls-91" d="M148.4,831.56c2.69-10.16,2.73-14.12,0-24.49A102.37,102.37,0,0,1,148.4,831.56Z"/><path class="cls-92" d="M544.24,823.4c.7,1.75-.65,6.36,0,8.16,6,10.16,29.59,19.51,40.81,16.32,2.53-2.45,5.55-5.51,8.16-8.16C573.54,844.9,544.77,818.21,544.24,823.4Z"/><path class="cls-93" d="M466.7,827.48c-38.27,32.11-23.38,70.68,1,113.24s97.53,5.31,64.27-48C497.43,892.85,467.52,861.39,466.7,827.48Z"/><path class="cls-94" d="M503.43,868.29c31.47,23.63,57.09,3.22,81.62-20.41-11.22,3.19-34.85-6.16-40.81-16.32C546.69,838.5,505.19,868.49,503.43,868.29Z"/><path class="cls-95" d="M723.8,917.26c7.67,25.75,50.07,32.89,53,0S726.82,887.39,723.8,917.26Z"/><path class="cls-96" d="M201.45,945.82c-11.51-5.59-22.77,11.67-10.94,19S211.77,950.84,201.45,945.82Z"/><path class="cls-97" d="M348.36,945.82c-4.57-4.57-17.55,4.29-10.94,10.86S353.3,950.76,348.36,945.82Z"/><path class="cls-98" d="M34.13,105.16c-3.88,141,3.59,292.4,4.08,436.66s-9.3,296.06-4.08,436.65c25.38,97.86,140.59,61.21,224.45,65.29s204-1.51,289.74,0,209.27.09,289.74,0,203.07,25.14,212.21-73.45-1.47-192.54,0-289.74,5.18-193.44,0-289.75,15.43-194.25-.29-289.45S908.5,38.89,829.9,35.79s-204.86.49-289.74,0-206.33-1.76-289.74,0S58.09,8.49,34.13,105.16M736,133.73c4.94,4.94-4.32,17.42-10.93,10.85s6.36-15.42,10.93-10.85m171.4,53.05c-28.4,7.47-45.67,30.08-53.05,57.13-8-23.71-22.57-52.31-53-53,25.95-10.2,46.89-29.46,53-57.13,7.67,26.48,21.26,50.48,53.05,53.05M328,137.81c2.24,32.93-33.1-2,0,0m383.6,208.12c-22.28,11.15-45.42,31.14-49,57.14,30,14.24,36.4,25.3,66.23,43.95s39.54-45.63,64.35-39.87c-7-29.06,2.33-83.46,40.81-53,21.14-43.59,52.77-36.32,78.48-13.18s48.64,63.74,12.32,87.65S882.55,469.26,857.45,500s-36.16,48.07-75.21,63.54-70.64,1.06-114.31-10.74-11.46,59.67-37,87.91.81,67.78,11,101.41-9.59,79.9-33.34,104.75-70.85,35-60.2,78.56S494.5,989,471.81,961.13,422.43,899.55,430,864.21s32.6-54.28,62.15-76.6-7.18-85.9-40.4-64.89-28.45,58.81-59.5,79.25-68.19,20.86-77.74,61-62.28,43.91-85.5,14.53-14.44-84.52,6.33-110,42-55.62,72.23-58.36c-.77-31.58,33.5-57,8.16-89.78-19.42-6.08-31.13,46.85-63.95,31.3s-57-4.85-87-2.73c.65,16.69-43.54,23-36.69,44.93s6.57,44.28,28.85,56.76,9.84,44.24,28.24,41.14c-9.71,35.3,1,69.5-39.78,94.88s-51.1-10.45-13.68-34.07-1.1-67.79-17.13-88.15-35.43-71.7-12-100.11,42.32-54.23,82.55-56.19c-15.54-6.45,18.33-18.61,27.55-41.83s-3.31-56.15,6.45-79.25,13.42-40.73,36.4-57.46,21.55-40.28,27.26-66.6,1.67-59.17,7.55-86.31,24.16-34.6,46.07-47.79,57.71,3.39,72.85-16.93,25.62-33,48.07-45.79S504.25,146.71,532,146s54,3.63,78.43,15.43,30.28,23.71,53.18,40.68,12.61,44.81,28.6,65.26,26.9,48.72,19.35,78.59M189.21,150.05c22.93,4.65,18.56,50.85-8.21,44.85s-15.3-49.62,8.21-44.85M964.57,268.4c-11.67,21.63-21.46-13.75,0,0M164.72,329.61c26.61,6.65,17.1,56.56-13.14,45.79s-18.49-53.71,13.14-45.79M136.15,496.93c7.55,3.34,2.49,19.22-6.93,14.85s-1.6-18.65,6.93-14.85M936,566.3c23.62,7.06,10.77,51.62-15,39.46S914.74,560,936,566.3M744.2,656.08c28.82,5.1,21.47,59.3-10.93,51.67s-21-57.34,10.93-51.67M209.61,696.89c4.28,24-24,0,0,0m697.83,49c.24,21.91,17.67,42.6,40.81,40.81-12.49,13.3-43.34,25.5-40.81,53.05-11.71-15.91-16.69-46-44.89-44.89,15.47-12.53,39.14-24.69,44.89-49M772.77,790.75c4.94,4.94-4.33,17.43-10.94,10.86s6.37-15.43,10.94-10.86m-49,126.51c3-29.87,56-32.81,53,0s-45.34,25.71-53,0M201.45,945.82c10.32,5,.9,26.37-10.94,19s-.57-24.61,10.94-19m146.91,0c4.94,4.94-4.33,17.43-10.94,10.86S343.79,941.25,348.36,945.82Z"/><path class="cls-99" d="M34.13,978.47V105.16c-21.79,88,.08,196.21-4.08,289.75s-4.73,200.37,0,293.82S11.32,890.49,34.13,978.47Z"/><path class="cls-100" d="M34.13,978.47C28.91,837.88,38.7,686,38.21,541.82s-8-295.62-4.08-436.66Z"/><path class="cls-101" d="M736,133.73c-4.57-4.57-17.55,4.28-10.93,10.85S741,138.67,736,133.73Z"/><path class="cls-102" d="M907.44,186.78c-31.79-2.57-45.38-26.57-53.05-53.05-6.16,27.67-27.1,46.93-53,57.13,30.48.74,45.09,29.34,53,53C861.77,216.86,879,194.25,907.44,186.78Z"/><path class="cls-103" d="M711.56,345.93c7.55-29.87-3.35-58.11-19.35-78.59s-5.71-48.28-28.6-65.26-28.69-28.93-53.18-40.68S559.75,145.24,532,146s-52.24,6.37-74.68,19.18-32.93,25.43-48.07,45.79-50.93,3.75-72.85,16.93-40.19,20.61-46.07,47.79-1.88,60-7.55,86.31-4.29,49.87-27.26,66.6-26.69,34.36-36.4,57.46,2.81,56.07-6.45,79.25-43.09,35.38-27.55,41.83c-40.23,2-59.09,27.83-82.55,56.19s-4.12,79.74,12,100.11,54.56,64.52,17.13,88.15S104.57,911,145.34,885.63s30.07-59.58,39.78-94.88c-18.4,3.1-5.91-28.65-28.24-41.14s-22-34.8-28.85-56.76,37.34-28.24,36.69-44.93c30.08-2.12,54.23-12.81,87,2.73s44.53-37.38,63.95-31.3c25.34,32.81-8.93,58.2-8.16,89.78-30.2,2.74-51.46,32.94-72.23,58.36s-29.51,80.56-6.33,110,75.91,25.63,85.5-14.53,46.68-40.52,77.74-61,26.28-58.23,59.5-79.25,69.94,42.57,40.4,64.89-54.6,41.26-62.15,76.6,19.14,69.09,41.83,96.92S559,969,548.32,925.42s36.49-53.71,60.2-78.56,43.54-71.17,33.34-104.75-36.61-73.17-11-101.41-6.65-99.66,37-87.91S743.18,579,782.24,563.53s50.11-32.77,75.21-63.54,31-47.5,67.33-71.42,13.39-64.52-12.32-87.65S855.12,310.51,834,354.1c-38.48-30.41-47.78,24-40.81,53-24.81-5.76-34.52,58.52-64.35,39.87s-36.2-29.71-66.23-43.95c3.55-26,26.69-46,49-57.14M556.48,158.21c64.48,4.41,115.9,58.65,118.35,122.43a127.34,127.34,0,0,1,0,36.73C669.24,463.67,465.52,459,405.49,350c11.1-29.06,29.59-75.91,4.08-102,11.47-50.84,63.7-87.08,114.27-89.78,11.75-1.91,21-2.08,32.64,0M376.93,252.07c-13.8,15.35-17.27,49.06-12.25,69.38,12.45,14.73,23.92,27.46,36.73,40.81-16.57,4.45-36.24,8.32-53.05,16.32-10.08-3.3-6.9-5.75-8.16-16.32-1.72-14.28,3-29.75,4.08-40.81,0-10.28,3.18-25.71-4.08-32.65-11.71,42.32,8.93,104.64-49,114.27,7.55-48.77,1.26-103.9,24.48-146.91,18.37-26.24,52.56-20.29,81.62-20.41-2.33,11.35-18.28,4.86-20.4,16.32m32.64,40.81c-.61,16.2.53,46.12-20.4,36.73-21.59-9.67-14.41-51.38-4.08-65.29,21.22-28.57,25.18,10.12,24.48,28.56m277.5,28.57c.41-8.45-2.53-20.57,0-28.57,7-22,25.39,48,0,53.05-8-5.1,4.12-15.87,0-24.48m118.35,85.7c-4.21-13-11.31-43.5,4.08-53,21-13,12.53,26.36,24.93,32.19s15.67,34.32,3.63,45.34c27.8-4.49,23.67-44.27,0-53.05,15-9.43,13.31-48.48,37.67-48s-7.3,41.71-9.1,52.11c16.2,3.51,31.51-44.56,48-27.5s-27.87,37.5-35.71,35.66c10.16,4.82,11.76,18.65,20.41,24.49-4.86-45,49.17-24.32,23.46-5.1S891.89,453,862.51,456.08s-46.6-29.3-57.09-48.93m-383.6,36.73c-1.35,27-20.21,57.33-49,61.21,6.09-16.24,21.88-29.34,20.41-49,1.26-12.49,1.55-28.36,0-40.81-3.27-13.22-6.49-26.12-16.32-36.73,40.36-9,42.48,38.24,44.89,65.3M381,456.12c-6.29,30.28-22.73,35.62-53.05,40.81,1.79-9.51-5.07-16.41-8.17-24.49-8-2.12-5.47-7.92-12.24-4.08-4.57,11,27.18,44.6,0,57.13-8-.45-15.34-7.3-20.4-12.24-4.7-1.22-11.47,0-16.33,0-8.16,0-16.32,0-24.48,0-6.33,0-9.8,4.65-16.33,4.08-2.24-65.66,59.3-105.24,113-123.69s37.83,34.28,38,62.48m146.91-16.33a440.82,440.82,0,0,0,53.05,0c17.63-1.18,34.65-5.91,49-16.32,5.1,22.41,9.67,45.22,8.16,69.38.9,9.46,1.35,19.09,0,28.56-.9,26.65-17.26,93.21-31.18,62.44s39.3-84.47,5.68-106.31S537.51,461,499.35,460.2c-9.34-.2-23.75-2.65-32.65,0-42.07,19.67-3.59,105-53.05,122.43-7.22-6.37-18.89-5.39-24.48-12.25-28.89-12.61-33-24.07-24.49-57.13,19.75,9.14,38.28-7.92,53.05-20.4,16.29-28.61,21.47-67.05,8.17-97.94,29.87,23,63.54,43.46,102,44.88m126.51,65.3c-9.64-28.24-6.45-63.21-12.25-93.86,40.08,7.92,23.51,67.13,12.25,93.86M834,460.2c6.08,4.08,17.51,5.3,24.49,8.16,2,22.28-29.83,19.87-36.73,4.08-9.67-6.49-44.36-32.36-29.46-45.79S825,454.16,834,460.2m-20.4,24.48c7.39,4.57,15.43,8.86,24.48,8.17-29.62,76.23-128.13,75.21-187.72,36.72,3.51-14.69,19.88-24.36,20.41-40.8,5.43-19.51,11.79-41.34,4.08-61.22,22.69,16.2,62.27,28.08,57.13,57.13,11.92-16.73,28.32-36.44,49-44.89,2.57,19,18.45,34.28,32.65,44.89M495.27,468.36c27.67,2.29,73.62,2.33,102,12.24s3.59,60,.08,89.86-55.94,22-85.78,20.33-72.15-11.88-57.13-49-10.61-77.74,40.81-73.46M352.44,501c4.69,18.28-10.57,32.64-4.08,49-21.59-4.37-11.43,24.48-20.4,32.65-25.84-22.45-13.06-77.87,24.48-81.62m-53.05,49c-19.87-11.43-47.26-10.49-69.38-4.08-10.73-36.73,81.62-32.24,69.38,4.08m-4.08,36.73c-19.88,10.48,4.57,45-20.41,53C263.19,629,281,601.64,262.66,599c-6.28,12.57-.82,28.52-8.16,40.81-18-6.61-11.79-29.63-20.41-40.81-11.63,55-34.11-16-11.18-35.67s61-18.89,83.62,4,1.47,71.58-11.22,19.39m102,0c-15.43,23.34-64.4,7.59-53.05-24.49,18.08,6,33.71,20.69,53.05,24.49m44.89-8.17c18.89,21-.29,31.47-21.34,44s-49.83,5.75-72.52.93c1.71-24.93,29.87-8.12,45.83-19.46s30.93-17.79,48-25.43m122.43,57.14c-14.41,9.3-35.14,1.34-49,0-25.14,0-52.44-2.21-73.46-12.25,7.63-9.46,23.26-12.16,28.57-24.48,30.44,7.18,62.11,9.87,93.86,12.24-5.55,9.75,18.69,23.22,0,24.49m57.13-20.41c5.18,42.69-49.71,24.08-44.89-8.16C595,593,604,611.76,621.78,615.27m-285.66-8.16c4.16,30.44-24.65,14,0,0M148.4,831.56a102.37,102.37,0,0,0,0-24.49c-15.27-57.74-81.87-83.12-36.73-151a90.09,90.09,0,0,1,24.48-24.48c19.1-12.7,69.09-36.08,73.46,0-62-15.06-126,75.78-74.39,119.28s43.21,129.24-27.63,137.81c2.69-23.87,42.23-27.34,40.81-57.13M511.59,647.92c14.7.57,30.24,1,44.89,0,16.57-1.14,43.71-7.22,44.89,16.32C550,653.76,521.63,709,474.87,709.13c-17.55-.69-15.88-.41-24.49-12.24-6.45-8.86-9.67-19.63-16.32-28.57-6.49-7.46-22-13.91-24.49-24.48-5.55-23.83,81.74,3.3,102,4.08m-73.45,57.13c1.59,12.57-5,16.57-12.24,28.57-19.71,32.48-35.55,44.89-65.3,65.29-4.73,3.27-6.32,9.39-12.24,12.24-19.34,9.31-41.34,9.31-57.13-4.08-35.42-30-14.29-99.94,24.48-73.45-5.59-25,12.78-42.69,16.33-65.3,2.16-6.12,5.51-11.55,8.16-16.32,2.9-5.18,5.14-10,4.08-16.32,39.91.53,88,26.36,93.86,69.37M613.62,701a15.07,15.07,0,0,1,0,4.08c4.08,17.43,10.61,34.69,12.24,53.05,2.49,12.25,3,20.49,0,32.65-2.86,11.55-4.9,18.69-12.24,28.57-6,8.12-13.72,13.63-20.41,20.4-2.61,2.65-5.63,5.71-8.16,8.16-24.53,23.63-50.15,44-81.62,20.41-14.28-10.74-29.38-29.26-24.48-49,3.47-13.92,25.18-22.33,32.64-32.65,2.86-4,3.76-7.31,4.09-12.24s-2.45-19.47-4.09-24.49c-1.38-4.32-6.89-10.61-8.16-16.32C496.86,703.5,604,642.49,613.62,701m-351,81.62c6.45,20.4,25.75,43.91,49,44.89,6.73,38-44.85,76.64-70.39,41.83S234.38,791,250.42,758.1c3.63-3.18,5-10.73,12.24-8.16v32.65m204,44.89c.82,33.91,30.73,65.37,65.3,65.29,33.26,53.26-39.87,90.56-64.27,48S428.43,859.59,466.7,827.48Z"/><path class="cls-104" d="M189.21,150.05c-23.51-4.77-35,38.85-8.21,44.85S212.14,154.7,189.21,150.05Z"/><path class="cls-105" d="M523.84,158.21a273.42,273.42,0,0,1,32.64,0C544.89,156.13,535.59,156.3,523.84,158.21Z"/><path class="cls-106" d="M674.83,317.37c.45-12.12.45-24.61,0-36.73-2.45-63.78-53.87-118-118.35-122.43a273.42,273.42,0,0,0-32.64,0C473.27,160.91,421,197.15,409.57,248c25.51,26.12,7,73-4.08,102,60,109,263.75,113.65,269.34-32.65m-102-97.94c45.38,2.45,82,23.67,93.86,69.37,3.22,12.37,2.12,20.77,0,32.65-6.08,89.41-118.14,126.38-190.78,72.43s-32.53-169.43,60.19-174.45A109.92,109.92,0,0,1,572.81,219.43Z"/><path class="cls-107" d="M536.08,219.43a340.93,340.93,0,0,1,36.73,0A109.92,109.92,0,0,0,536.08,219.43Z"/><path class="cls-108" d="M666.67,321.45c.69-10.2,1.34-22.53,0-32.65-11.84-45.7-48.48-66.92-93.86-69.37a340.93,340.93,0,0,0-36.73,0c-92.72,5-132.79,120.46-60.19,174.45s184.7,17,190.78-72.43m-16.33-28.57c5.84,26.28-3.91,45.1-13.5,68.11s-35.55,21.63-51.79,29.83c-14.94,23.75-52.72,15.84-77.86.33s-63.83-24.28-60.89-61.54c12.57,2.82,9.43-12.61,16.32-16.32,9.55-8.57,7.55-1.15,16.33-4.08,11.55-3.84,22.61-27,36.73-16.33-3-8.89,4.16-16.36,4.08-24.48-2.94,10.36-45,45-52,19.38s32.52-33.87,43.86-43.87c-.08-.65,3.19-8.61,0-12.24,41.59-11.1,88.6-3.35,122.43,16.32.57,15.43-20.61,10.74-12.28,28.61s2,30.24,4.12,48.93c8.2-15.59,4.45-39.91,0-57.13C636.76,270.07,649,281.78,650.34,292.88Z"/><path class="cls-109" d="M511.59,243.91c1.07,7.23,8.25,12.37,8.17,24.49.08,8.12-7.06,15.59-4.08,24.48-14.12-10.65-25.18,12.49-36.73,16.33.24-.29-22.24,31.79-16.33,4.08-6.89,3.71-3.75,19.14-16.32,16.32-2.94,37.26,35.79,46,60.89,61.54s62.92,23.42,77.86-.33c21.3-33.87,66.44-62.11,49-114.26,8.73,2.41,10,12.41,16.32,16.32-1.34-11.1-13.58-22.81-24.48-24.48,4.45,17.22,8.2,41.54,0,57.13-2.12-18.69,4.2-31.06-4.12-48.93S634.59,263.42,634,248c-33.83-19.67-80.84-27.42-122.43-16.32C514.78,235.3,511.51,243.26,511.59,243.91Z"/><path class="cls-110" d="M315.71,256.16c7.14-6.86,22.9,1.38,24.49,16.32,11.14-6.82,20.69-19.14,36.73-20.41,2.12-11.46,18.07-5,20.4-16.32C368.27,235.87,334.08,229.92,315.71,256.16Z"/><path class="cls-111" d="M519.76,268.4c.08-12.12-7.1-17.26-8.17-24.49-11.34,10-50.88,18.28-43.86,43.87S516.82,278.76,519.76,268.4Z"/><path class="cls-112" d="M315.71,256.16c-23.22,43-16.93,98.14-24.48,146.91,57.9-9.63,37.26-71.95,49-114.27,7.26,6.94,4.08,22.37,4.08,32.65,0,12.65-4.29,31.63-4.08,40.81,1.26,10.57-1.92,13,8.16,16.32,2.2-22.89-4.73-48.23,4.08-69.37,4.94,1.22,5.43,21.54,12.24,12.24-5-20.32-1.55-54,12.25-69.38-16,1.27-25.59,13.59-36.73,20.41C338.61,257.54,322.85,249.3,315.71,256.16Z"/><path class="cls-113" d="M385.09,264.32c12.4-.29,8.44,29.71,8.16,36.72,2.94-5.5,8.85-9.79,16.32-8.16C410.27,274.44,406.31,235.75,385.09,264.32Z"/><path class="cls-114" d="M389.17,329.61c6.16-8,3.71-19,4.08-28.57.28-7,4.24-37-8.16-36.72C374.76,278.23,367.58,319.94,389.17,329.61Z"/><path class="cls-115" d="M585.05,390.82c16.24-8.2,42.24-6.77,51.79-29.83s19.34-41.83,13.5-68.11C644.06,289,642.75,279,634,276.56,651.49,328.71,606.35,357,585.05,390.82Z"/><path class="cls-116" d="M674.83,317.37a127.34,127.34,0,0,0,0-36.73C675.28,292.76,675.28,305.25,674.83,317.37Z"/><path class="cls-117" d="M687.07,292.88c-.61,2.74.78,23.63,0,28.57,4.12,8.61-8,19.38,0,24.48C712.46,340.87,694.09,270.85,687.07,292.88Z"/><path class="cls-118" d="M666.67,321.45c2.12-11.88,3.22-20.28,0-32.65C668,298.92,667.36,311.25,666.67,321.45Z"/><path class="cls-119" d="M393.25,301c-.37,9.59,2.08,20.53-4.08,28.57,20.93,9.39,19.79-20.53,20.4-36.73C402.1,291.25,396.19,295.54,393.25,301Z"/><path class="cls-120" d="M687.07,321.45c.78-4.94-.61-25.83,0-28.57C684.54,300.88,687.48,313,687.07,321.45Z"/><path class="cls-121" d="M462.62,313.29c-5.91,27.71,16.57-4.37,16.33-4.08C470.17,312.14,472.17,304.72,462.62,313.29Z"/><path class="cls-122" d="M348.36,378.58c16.81-8,36.48-11.87,53.05-16.32-12.81-13.35-24.28-26.08-36.73-40.81-6.81,9.3-7.3-11-12.24-12.24C343.63,330.35,350.56,355.69,348.36,378.58Z"/><path class="cls-123" d="M340.2,362.26c-.21-9.18,4.08-28.16,4.08-40.81C343.22,332.51,338.48,348,340.2,362.26Z"/><path class="cls-124" d="M164.72,329.61c-31.63-7.92-43.42,35-13.14,45.79S191.33,336.26,164.72,329.61Z"/><path class="cls-125" d="M809.5,354.1c-8.29,8.28-6.12,42-4.08,53,10.49,19.63,27.71,52,57.09,48.93s34.48-26.69,60.23-45.87-28.32-39.91-23.46,5.1c-8.65-5.84-10.25-19.67-20.41-24.49,7.84,1.84,52.12-18.6,35.71-35.66s-31.75,31-48,27.5c1.8-10.4,33.46-51.66,9.1-52.11s-22.69,38.6-37.67,48c23.67,8.78,27.8,48.56,0,53.05,12-11,8.74-39.5-3.63-45.34S830.47,341.12,809.5,354.1Z"/><path class="cls-126" d="M805.42,407.15c-2-11.06-4.21-44.77,4.08-53C794.11,363.65,801.21,394.17,805.42,407.15Z"/><path class="cls-127" d="M393.25,415.31c2.33,9.39,5.55,20.57,4.08,32.65,5.47-6.86,17.22-2.78,24.49-4.08-2.41-27.06-4.53-74.28-44.89-65.3C386.76,389.19,390,402.09,393.25,415.31Z"/><path class="cls-128" d="M246.34,513.25c7.55-.45,16.73-1.1,24.48,0,4.86,0,11.63-1.22,16.33,0,14.28-5.71,6.73-37.14,20.4-44.89,6.77-3.84,4.2,2,12.24,4.08,5.63,1.47,55.38-10,61.22-16.32-.17-28.2,15.75-80.88-38-62.48s-115.24,58-113,123.69c6.53.57,10-4.12,16.33-4.08m44.89-53.05c-7.39,9.39-25.3,3.06-28.57-8.16C271.6,444,286.74,450.45,291.23,460.2Z"/><path class="cls-129" d="M417.73,492.85c-14.73,25.87-27,45.91-28.56,77.53,5.59,6.86,17.26,5.88,24.48,12.25,49.46-17.39,11-102.76,53.05-122.43,12.37-5.8,21.35-1.39,32.65,0,38.16.77,79.66-4.49,113.25,17.34S593,553.08,606.92,583.85s30.28-35.79,31.18-62.44c.33-9.51,0-19.06,0-28.56,1.51-24.16-3.06-47-8.16-69.38-14.32,10.41-31.34,15.14-49,16.32a157.21,157.21,0,0,1-53.05,0c-38.48-1.42-72.15-21.91-102-44.88C439.2,425.8,434,464.24,417.73,492.85Z"/><path class="cls-130" d="M654.43,505.09c11.26-26.73,27.83-85.94-12.25-93.86C648,441.88,644.79,476.85,654.43,505.09Z"/><path class="cls-131" d="M393.25,456.12c.9-2.7,3.51-3.63,4.08-8.16,1.47-12.08-1.75-23.26-4.08-32.65C394.8,427.76,394.51,443.63,393.25,456.12Z"/><path class="cls-132" d="M821.74,472.44c6.61-1.63-2.77-7.71,0-12.24,4.73-3.22,10.33,8,12.24,0-9-6-26.81-47-41.7-33.55S812.07,466,821.74,472.44Z"/><path class="cls-133" d="M670.75,488.77c9.18,19.75,41,16.36,32.65,44.88,39.74-4.36,92.84-4.4,110.18-49-14.2-10.61-30.08-25.91-32.65-44.89-20.65,8.45-37,28.16-49,44.89,5.14-29.05-34.44-40.93-57.13-57.13C682.54,447.43,676.18,469.26,670.75,488.77Z"/><path class="cls-134" d="M581,439.79a440.82,440.82,0,0,1-53.05,0A157.21,157.21,0,0,0,581,439.79Z"/><path class="cls-135" d="M397.33,448c-.57,4.53-3.18,5.46-4.08,8.16,1.47,19.63-14.32,32.73-20.41,49,28.77-3.88,47.63-34.24,49-61.21C414.55,445.18,402.8,441.1,397.33,448Z"/><path class="cls-136" d="M291.23,460.2c-4.49-9.75-19.63-16.16-28.57-8.16C265.93,463.26,283.84,469.59,291.23,460.2Z"/><path class="cls-137" d="M319.79,472.44c3.1,8.08,10,15,8.17,24.49,30.32-5.19,46.76-10.53,53.05-40.81C375.17,462.4,325.42,473.91,319.79,472.44Z"/><path class="cls-138" d="M466.7,460.2c8.9-2.65,23.31-.2,32.65,0C488.05,458.81,479.07,454.4,466.7,460.2Z"/><path class="cls-139" d="M821.74,472.44c6.9,15.79,38.69,18.2,36.73-4.08-7-2.86-18.41-4.08-24.49-8.16-1.91,8-7.51-3.22-12.24,0C819,464.73,828.35,470.81,821.74,472.44Z"/><path class="cls-140" d="M287.15,513.25c5.06,4.94,12.4,11.79,20.4,12.24,27.18-12.53-4.57-46.15,0-57.13C293.88,476.11,301.43,507.54,287.15,513.25Z"/><path class="cls-141" d="M495.27,468.36c-51.42-4.28-25.83,36.32-40.81,73.46s27.3,47.25,57.13,49,82.32,9.55,85.78-20.33,28.33-79.94-.08-89.86-74.35-10-102-12.24m8.16,57.13c-3.51,3.92-14.24-1.3-16.32-4.08-14.94.7-8-37,16.32-32.64s16.41,43,0,36.72M585.05,501c19.22,13.51,4.16,32.24-16.32,28.56-31.26-5.59-5.68-44,16.32-28.56m-36.73,0c-.65,47-42.52-1.47,0,0m-44.89,36.73c19.14,8.52,5.8,45.25-17.22,33.54s-4.45-43.22,17.22-33.54m69.38,8.16c19.55,9,1.63,43.66-19.06,31.3S552.2,536.43,572.81,545.9Z"/><path class="cls-142" d="M670.75,488.77c-.53,16.44-16.9,26.11-20.41,40.8,59.59,38.49,158.1,39.51,187.72-36.72-9,.69-17.09-3.6-24.48-8.17-17.34,44.57-70.44,44.61-110.18,49C711.72,505.13,679.93,508.52,670.75,488.77Z"/><path class="cls-143" d="M487.11,521.41c3.47,4.57,0-9.75,0-8.16-.16-25.22,36.07-16.61,16.32,4.08-1,1.06,1,7,0,8.16,16.41,6.25,24.41-32.32,0-36.72S472.17,522.11,487.11,521.41Z"/><path class="cls-144" d="M389.17,570.38c1.55-31.62,13.83-51.66,28.56-77.53-14.77,12.48-33.3,29.54-53.05,20.4C356.15,546.31,360.28,557.77,389.17,570.38Z"/><path class="cls-145" d="M638.1,521.41c1.35-9.47.9-19.1,0-28.56C638.1,502.35,638.43,511.9,638.1,521.41Z"/><path class="cls-146" d="M136.15,496.93c-8.53-3.8-16.32,10.53-6.93,14.85S143.7,500.27,136.15,496.93Z"/><path class="cls-147" d="M487.11,513.25c-1.63,1.14,17.18,5.1,16.32,4.08C523.18,496.64,487,488,487.11,513.25Z"/><path class="cls-148" d="M568.73,529.57c-13.88-9.06-.74-35.13,16.32-28.56C563.05,485.54,537.47,524,568.73,529.57Z"/><path class="cls-149" d="M352.44,501c-37.54,3.75-50.32,59.17-24.48,81.62,9-8.17-1.19-37,20.4-32.65C341.87,533.65,357.13,519.29,352.44,501Z"/><path class="cls-150" d="M568.73,529.57c20.48,3.68,35.54-15.05,16.32-28.56-17.06-6.57-30.2,19.5-16.32,28.56m0-4.08C563.1,485.87,605.21,525.33,568.73,525.49Z"/><path class="cls-151" d="M246.34,513.25c8.16,0,16.32,0,24.48,0C263.07,512.15,253.89,512.8,246.34,513.25Z"/><path class="cls-152" d="M487.11,521.41c2.08,2.78,12.81,8,16.32,4.08,1-1.14-1-7.1,0-8.16.86,1-17.95-2.94-16.32-4.08C487.11,511.66,490.58,526,487.11,521.41Z"/><path class="cls-153" d="M299.39,550c12.24-36.32-80.11-40.81-69.38-4.08C252.13,539.49,279.52,538.55,299.39,550Z"/><path class="cls-154" d="M503.43,537.74c-21.67-9.68-40.28,21.83-17.22,33.54s36.36-25,17.22-33.54M487.11,566.3C481.36,531.57,521.92,568.14,487.11,566.3Z"/><path class="cls-155" d="M572.81,545.9c-20.61-9.47-39.75,18.93-19.06,31.3s38.61-22.32,19.06-31.3m0,20.4C543.55,572.55,568.24,541.25,572.81,566.3Z"/><path class="cls-156" d="M295.31,586.71c12.69,52.19,33.79,3.55,11.22-19.39s-60.72-23.71-83.62-4S222.46,654,234.09,599c8.62,11.18,2.45,34.2,20.41,40.81,7.34-12.29,1.88-28.24,8.16-40.81,18.32,2.69.53,30.07,12.24,40.81C299.88,631.68,275.43,597.19,295.31,586.71Z"/><path class="cls-157" d="M397.33,586.71c-19.34-3.8-35-18.53-53.05-24.49C332.93,594.3,381.9,610.05,397.33,586.71Z"/><path class="cls-158" d="M936,566.3c-21.27-6.32-40.73,27.3-15,39.46S959.63,573.36,936,566.3Z"/><path class="cls-159" d="M442.22,578.54c-17.1,7.64-32.08,14.08-48,25.43s-44.12-5.47-45.83,19.46c22.69,4.82,51.46,11.55,72.52-.93S461.11,599.56,442.22,578.54Z"/><path class="cls-160" d="M515.68,635.68c13.14,0,36.89,4.73,49,0,18.69-1.27-5.55-14.74,0-24.49-31.75-2.37-63.42-5.06-93.86-12.24-5.31,12.32-20.94,15-28.57,24.48C463.24,633.47,490.54,635.68,515.68,635.68Z"/><path class="cls-161" d="M621.78,615.27C604,611.76,595,593,576.89,607.11,572.07,639.35,627,658,621.78,615.27Z"/><path class="cls-162" d="M136.15,631.6c-6.57,5.1-19.54,18.16-24.48,24.48-45.14,67.87,21.46,93.25,36.73,151,2.73,10.37,2.69,14.33,0,24.49,1.42,29.79-38.12,33.26-40.81,57.13,70.84-8.57,79.21-94.31,27.63-137.81s12.36-134.34,74.39-119.28C205.24,595.52,155.25,618.9,136.15,631.6Z"/><path class="cls-163" d="M409.57,643.84c2.08,6,19.92,18.36,24.49,24.48,6.65,8.94,9.87,19.71,16.32,28.57,11.31-1.1,20.69-9.06,32.65-8.16,3.92-9.47,2.94-27.83,16.32-28.57-1.75,15.71-10.2,26.94,0,40.81-14,10.12-29-4.57-44.89,0,3,9,17.67-1.26,20.41,8.16,46.76-.16,75.13-55.37,126.5-44.89-1.18-23.54-28.32-17.46-44.89-16.32-15.3,2.73-30,2.12-44.89,0C491.31,647.14,404,620,409.57,643.84Z"/><path class="cls-164" d="M111.67,656.08c4.94-6.32,17.91-19.38,24.48-24.48A90.09,90.09,0,0,0,111.67,656.08Z"/><path class="cls-165" d="M340.2,652c3,9,45.74,17.63,54,27.63s42.23,35.62,43.95,25.42c-5.84-43-53.95-68.84-93.86-69.37C345.34,642,343.1,646.82,340.2,652Z"/><path class="cls-166" d="M564.65,635.68c-12.08,4.73-35.83,0-49,0C529.51,637,550.24,645,564.65,635.68Z"/><path class="cls-167" d="M434.06,668.32c-4.57-6.12-22.41-18.44-24.49-24.48C412,654.41,427.57,660.86,434.06,668.32Z"/><path class="cls-168" d="M556.48,647.92c-14.65,1-30.19.57-44.89,0C526.49,650,541.18,650.65,556.48,647.92Z"/><path class="cls-169" d="M332,668.32c19.75-16.77,69.09,30.37,81.61,44.89,7,8.12,12.61,7.43,12.25,20.41,7.26-12,13.83-16,12.24-28.57-1.72,10.2-35.71-15.42-43.95-25.42s-51-18.61-54-27.63C337.55,656.77,334.2,662.2,332,668.32Z"/><path class="cls-170" d="M744.2,656.08c-32-5.67-43.29,44-10.93,51.67S773,661.18,744.2,656.08Z"/><path class="cls-171" d="M450.38,696.89c8.61,11.83,6.94,11.55,24.49,12.24-2.74-9.42-17.39.82-20.41-8.16,15.88-4.57,30.89,10.12,44.89,0-10.2-13.87-1.75-25.1,0-40.81C486,660.9,487,679.26,483,688.73,471.07,687.83,461.69,695.79,450.38,696.89Z"/><path class="cls-172" d="M332,668.32c-3.55,22.61-21.92,40.32-16.33,65.3-38.77-26.49-59.9,43.46-24.48,73.45,1,1.35-2.57-13.63-4.08-16.32,14.57-4,35.58-1.63,28.56-24.49,5.23-1.1,11.1,3.15,12.25,8.17,8.36,5.59,15.58,11.26,24.48,16.32,3.06,5.59-6.69-14-16.32-20.4C379,798.18,398.76,745,413.65,713.21,401.13,698.69,351.79,651.55,332,668.32Z"/><path class="cls-173" d="M503.43,733.62c10.82,10.81,31.71-17,47.75-21.63s42-21.79,62.44-11C604,642.49,496.86,703.5,503.43,733.62Z"/><path class="cls-174" d="M503.43,733.62c1.27,5.71,6.78,12,8.16,16.32,6.94-29.14,77.95-45.79,102-44.89a15.07,15.07,0,0,0,0-4.08c-20.45-10.77-46.44,6.33-62.44,11S514.25,744.43,503.43,733.62Z"/><path class="cls-175" d="M511.59,749.94c1.64,5,4.41,19.47,4.09,24.49,4.48,12,24.56,23.09,16.32,36.72-11.63-4.36-14.53-16.89-20.41-24.48C509,800.83,482.58,808,479,819.32c-4.9,19.71,10.2,38.23,24.48,49,1.76.2,43.26-29.79,40.81-36.73-.65-1.8.7-6.41,0-8.16-2.53-6.49-1.26-11.1,0-20.41,11.06,5.68,8.57,22.81,25.38,17.22s29.92-1.67,44-.89c7.34-9.88,9.38-17,12.24-28.57,1.26-10.08.9-22.53,0-32.65-1.63-18.36-8.16-35.62-12.24-53.05C589.54,704.15,518.53,720.8,511.59,749.94Z"/><path class="cls-176" d="M352.44,790.75c1.47.82,6.94,7.84,8.16,8.16,29.75-20.4,45.59-32.81,65.3-65.29.36-13-5.23-12.29-12.25-20.41-14.89,31.75-34.68,85-77.53,57.14C345.75,776.71,355.5,796.34,352.44,790.75Z"/><path class="cls-177" d="M907.44,745.86c-5.75,24.28-29.42,36.44-44.89,49,28.2-1.14,33.18,29,44.89,44.89-2.53-27.55,28.32-39.75,40.81-53.05C925.11,788.46,907.68,767.77,907.44,745.86Z"/><path class="cls-178" d="M250.42,758.1c11.34-4.49,9.34,15.35,12.24,24.49V749.94C255.4,747.37,254.05,754.92,250.42,758.1Z"/><path class="cls-179" d="M250.42,758.1c-16,32.85-34.73,76.4-9.18,111.21s77.12-3.84,70.39-41.83c-23.22-1-42.52-24.49-49-44.89C259.76,773.45,261.76,753.61,250.42,758.1Z"/><path class="cls-180" d="M625.86,790.75c3-12.16,2.49-20.4,0-32.65C626.76,768.22,627.12,780.67,625.86,790.75Z"/><path class="cls-181" d="M291.23,807.07c15.79,13.39,37.79,13.39,57.13,4.08,3.22-2.12,6-9.26,8.16-12.24C342,805.6,305.63,773.45,328,774.43c-1.15-5-7-9.27-12.25-8.17,7,22.86-14,20.49-28.56,24.49C288.66,793.44,292.25,808.42,291.23,807.07Z"/><path class="cls-182" d="M348.36,811.15c5.92-2.85,7.51-9,12.24-12.24-1.22-.32-6.69-7.34-8.16-8.16-8.9-5.06-16.12-10.73-24.48-16.32-22.33-1,14.07,31.17,28.56,24.48C354.32,801.89,351.58,809,348.36,811.15Z"/><path class="cls-183" d="M511.59,786.67c5.88,7.59,8.78,20.12,20.41,24.48,8.24-13.63-11.84-24.73-16.32-36.72C515.35,779.36,514.45,782.67,511.59,786.67Z"/><path class="cls-184" d="M479,819.32c3.63-11.31,30-18.49,32.64-32.65C504.13,797,482.42,805.4,479,819.32Z"/><path class="cls-185" d="M772.77,790.75c-4.57-4.57-17.55,4.29-10.94,10.86S777.71,795.69,772.77,790.75Z"/><path class="cls-186" d="M544.24,823.4c.53-5.19,29.3,21.5,49,16.32,6.69-6.77,14.37-12.28,20.41-20.4-14.08-.78-27.14-4.7-44,.89S555.3,808.67,544.24,803C543,812.3,541.71,816.91,544.24,823.4Z"/><path class="cls-187" d="M148.4,831.56c2.69-10.16,2.73-14.12,0-24.49A102.37,102.37,0,0,1,148.4,831.56Z"/><path class="cls-188" d="M544.24,823.4c.7,1.75-.65,6.36,0,8.16,6,10.16,29.59,19.51,40.81,16.32,2.53-2.45,5.55-5.51,8.16-8.16C573.54,844.9,544.77,818.21,544.24,823.4Z"/><path class="cls-189" d="M466.7,827.48c-38.27,32.11-23.38,70.68,1,113.24s97.53,5.31,64.27-48C497.43,892.85,467.52,861.39,466.7,827.48Z"/><path class="cls-190" d="M503.43,868.29c31.47,23.63,57.09,3.22,81.62-20.41-11.22,3.19-34.85-6.16-40.81-16.32C546.69,838.5,505.19,868.49,503.43,868.29Z"/><path class="cls-191" d="M723.8,917.26c7.67,25.75,50.07,32.89,53,0S726.82,887.39,723.8,917.26Z"/><path class="cls-192" d="M201.45,945.82c-11.51-5.59-22.77,11.67-10.94,19S211.77,950.84,201.45,945.82Z"/><path class="cls-193" d="M348.36,945.82c-4.57-4.57-17.55,4.29-10.94,10.86S353.3,950.76,348.36,945.82Z"/></svg>