<svg id="Layer_1" data-name="Layer 1" xmlns="http://www.w3.org/2000/svg" viewBox="0 0 1080 1080"><defs><style>.cls-1{fill:#0c1523;}.cls-10,.cls-11,.cls-12,.cls-13,.cls-14,.cls-15,.cls-16,.cls-17,.cls-18,.cls-19,.cls-2,.cls-20,.cls-21,.cls-22,.cls-23,.cls-24,.cls-25,.cls-26,.cls-27,.cls-28,.cls-29,.cls-3,.cls-30,.cls-31,.cls-32,.cls-33,.cls-34,.cls-35,.cls-36,.cls-37,.cls-38,.cls-39,.cls-4,.cls-40,.cls-41,.cls-42,.cls-43,.cls-44,.cls-45,.cls-46,.cls-47,.cls-48,.cls-49,.cls-5,.cls-50,.cls-51,.cls-52,.cls-53,.cls-54,.cls-6,.cls-7,.cls-8,.cls-9{fill:none;stroke-width:1.22px;}.cls-2{stroke:#0f1117;}.cls-3{stroke:#0b1522;}.cls-4{stroke:#e1e0e1;}.cls-5{stroke:#0e1011;}.cls-6{stroke:#51add9;}.cls-7{stroke:#5f6062;}.cls-8{stroke:#f0efef;}.cls-9{stroke:#2f3e4f;}.cls-10{stroke:#101113;}.cls-11{stroke:#0b1421;}.cls-12{stroke:#28345a;}.cls-13{stroke:#6977b2;}.cls-14{stroke:#1e2025;}.cls-15{stroke:#f2f2f2;}.cls-16{stroke:#0f4d91;}.cls-17{stroke:#e5e6e7;}.cls-18{stroke:#e4e2e0;}.cls-19{stroke:#bc8c6d;}.cls-20{stroke:#e18326;}.cls-21{stroke:#e58c24;}.cls-22{stroke:#ca6b28;}.cls-23{stroke:#717270;}.cls-24{stroke:#5c5e60;}.cls-25{stroke:#e1e1e3;}.cls-26{stroke:#a1a4ab;}.cls-27{stroke:#88614b;}.cls-28{stroke:#a2aab6;}.cls-29{stroke:#a55726;}.cls-30{stroke:#739fce;}.cls-31{stroke:#827bb9;}.cls-32{stroke:#19191a;}.cls-33{stroke:#7f8083;}.cls-34{stroke:#ddddde;}.cls-35{stroke:#bcc0c7;}.cls-36{stroke:#ecebea;}.cls-37{stroke:#a9acb4;}.cls-38{stroke:#8b8b8b;}.cls-39{stroke:#5b5d5f;}.cls-40{stroke:#79797c;}.cls-41{stroke:#a4a5a6;}.cls-42{stroke:#47484e;}.cls-43{stroke:#7e807f;}.cls-44{stroke:#84868d;}.cls-45{stroke:#763a20;}.cls-46{stroke:#2c2424;}.cls-47{stroke:#ec8d23;}.cls-48{stroke:#666e79;}.cls-49{stroke:#57463d;}.cls-50{stroke:#333d47;}.cls-51{stroke:#c26f29;}.cls-52{stroke:#9f91c6;}.cls-53{stroke:#7992ca;}.cls-54{stroke:#808384;}.cls-55{fill:#0f1117;}.cls-56{fill:#0b1522;}.cls-57{fill:#e1e0e1;}.cls-58{fill:#0e1011;}.cls-59{fill:#51add9;}.cls-60{fill:#5f6062;}.cls-61{fill:#f0efef;}.cls-62{fill:#2f3e4f;}.cls-63{fill:#101113;}.cls-64{fill:#0b1421;}.cls-65{fill:#28345a;}.cls-66{fill:#6977b2;}.cls-67{fill:#1e2025;}.cls-68{fill:#f2f2f2;}.cls-69{fill:#0f4d91;}.cls-70{fill:#e5e6e7;}.cls-71{fill:#e4e2e0;}.cls-72{fill:#bc8c6d;}.cls-73{fill:#e18326;}.cls-74{fill:#e58c24;}.cls-75{fill:#ca6b28;}.cls-76{fill:#717270;}.cls-77{fill:#5c5e60;}.cls-78{fill:#e1e1e3;}.cls-79{fill:#a1a4ab;}.cls-80{fill:#88614b;}.cls-81{fill:#a2aab6;}.cls-82{fill:#a55726;}.cls-83{fill:#739fce;}.cls-84{fill:#827bb9;}.cls-85{fill:#19191a;}.cls-86{fill:#7f8083;}.cls-87{fill:#ddddde;}.cls-88{fill:#bcc0c7;}.cls-89{fill:#ecebea;}.cls-90{fill:#a9acb4;}.cls-91{fill:#8b8b8b;}.cls-92{fill:#5b5d5f;}.cls-93{fill:#79797c;}.cls-94{fill:#a4a5a6;}.cls-95{fill:#47484e;}.cls-96{fill:#7e807f;}.cls-97{fill:#84868d;}.cls-98{fill:#763a20;}.cls-99{fill:#2c2424;}.cls-100{fill:#ec8d23;}.cls-101{fill:#666e79;}.cls-102{fill:#57463d;}.cls-103{fill:#333d47;}.cls-104{fill:#c26f29;}.cls-105{fill:#9f91c6;}.cls-106{fill:#7992ca;}.cls-107{fill:#808384;}</style></defs><title>avatar-space-helmet</title><rect class="cls-1" width="1080" height="1080"/><path class="cls-2" d="M55.35,1001.39c-15.46-63.33,7.06-141.36,0-212.2s3.43-147.28,0-220.37,2.13-145.28,0-220.37,2.21-146.87,0-224.45S126.73,37.08,194.1,42.39s151.08-2.66,220.37,0,156.54-1.84,224.45,0,158.13-2.25,220.37,0,152-20,168.62,51.74-2.33,148.5,2.77,221.67-.73,147.24,0,220.37,3.15,147.48,0,220.37,7.1,151.24,4.08,220.37c10.21-73-3.75-150.67,0-224.45s.17-150.59,0-224.45,4.41-146.63,0-220.37S1048,159.51,1030.6,87.36,918.3,41.57,855.21,38.3s-152,2.41-220.37,0S480,41.45,410.39,38.3,257.72,44.43,190,38.3,46.09,41.65,47.19,119.92s-1.83,149.16,0,224.45-3.87,147.44,0,220.37-8.32,154.54,0,224.45S24.67,941.36,55.35,1001.39Z"/><path class="cls-3" d="M55.35,1001.39c36.85,72.11,159.44,28.53,232.61,36.73s192.34-2.29,269.34,0,196.94,2.12,269.34,0,195.43,29.63,208.12-61.21c3-69.13-7.22-147.49-4.08-220.37s.74-147.24,0-220.37,5.1-147.2,0-220.37,13.88-150-2.77-221.67S921.52,44.63,859.29,42.39s-152.46,1.83-220.37,0-155.16,2.65-224.45,0-153,5.3-220.37,0S53.15,46.43,55.35,124s-2.12,149.36,0,224.45-3.42,147.28,0,220.37-7.06,149.52,0,220.37-15.46,148.87,0,212.2M924.58,177.05c-20.85,8.78-31.59,25.88-40.81,44.89-2.41-22.81-22.12-32.19-36.73-44.89,20.16-.44,34-17.87,36.73-36.72,9.22,14.57,17.39,39.21,40.81,36.72M871.53,401.5c44.24,11.92,72,50.36,69.37,93.86s7.76,103.53-41.74,121.49-42.12,59.54-60.28,103c75,12.65,80.56,137.12,17.55,172.62S728.74,949.69,655,960.3s-176.26,9.3-248.65-3.8-138.46-27-194.86-74.47-22-155.77,23.46-190.79c0-65.37-90.18-71.9-93.86-130.58s-9.63-149.69,69.38-151C234.87,256.75,385.66,145.84,536.9,144.41S843.78,248.76,871.53,401.5M202.27,156.65c22,1.75,19.46,42.52-4.21,40.69s-18.16-42.49,4.21-40.69M149.21,311.72c0,23.67-24.2-3.71,0,0m783.53,16.33c-1.92-4.57,1.43-6.12,4.08-8.16,21-16.17,4.57,28.93-4.08,8.16m-783.53,355c15.43,6,2.94,37.18-15,27.22s-3.27-34.32,15-27.22m799.86,4.08c9.3,4.66-.41,21.67-10.94,14.94s1.14-19.83,10.94-14.94M940.9,895.29c16.82,7.22,5.64,39.05-13.18,29.42s-7.06-38.11,13.18-29.42m-787.61,20.4c13.23,7.27-4.28,28.57-15,19.06S141.66,909.29,153.29,915.69Z"/><path class="cls-4" d="M924.58,177.05c-23.42,2.49-31.59-22.15-40.81-36.72C881,159.18,867.2,176.61,847,177.05c14.61,12.7,34.32,22.08,36.73,44.89C893,202.93,903.73,185.83,924.58,177.05Z"/><path class="cls-5" d="M871.53,401.5C843.78,248.76,688.13,143,536.9,144.41s-302,112.34-326.47,265.25c-79,1.31-73.05,92.31-69.38,151s93.82,65.21,93.86,130.58c-45.42,35-79.86,143.33-23.46,190.79s122.46,61.41,194.86,74.47S581.17,970.87,655,960.3,793.46,928,856.43,892.43s57.46-160-17.55-172.62c18.16-43.42,10.78-85,60.28-103s39.21-78,41.74-121.49-25.13-81.94-69.37-93.86M557.3,160.73C724.7,160.73,867.45,309,867.45,475a359.56,359.56,0,0,1,0,65.29c0,74.07-26.45,144.75-81.62,195.88,16.73-2.81,27-19.75,40.81-28.56,16.08,58.89-29.06,83.66-77.82,93.57S645.9,822.16,594,821.83a564.36,564.36,0,0,1-102,0c-51.91,0-105.62-10.48-153.77-21.71s-99.57-30.64-82.92-92.55c13.55,8,21.3,24.12,36.72,28.56-176.45-190.65-52.56-573.07,224.45-575.4,13.47-1.92,27.83-1.26,40.81,0m-359.12,355c0,32.28,2,64.23,12.25,93.86-11.92,1.22-22.16-3.8-32.65-8.16-9.59-5.6-12.53-11.19-16.32-20.41-10-36.89-23.31-116.06,12.24-142.83a35.73,35.73,0,0,0,4.08-4.08c7.18-8.33,16.73-12.45,28.57-12.24-1.47,31.54-10.41,61.29-8.17,93.86m706-81.62c30.85,26.08,29,115.9,12.24,151-3.39,7.06-10,12.49-16.32,16.33-8.66,5.3-17.88,9.63-28.57,8.16,6.81-20.61,8.94-42.69,8.16-65.3V483.12c0-20.57,2.16-42.16-4.08-61.21,12.69-4.21,19.47,6.89,28.57,12.24M288,797.35c5.64,2.41,11.8,6.24,16.33,8.16,23.22,9.75,50.68,9.43,73.45,20.4,47.91-9.46,118.1,20.82,167.32,12.25s126.06,1.3,167.6-16,109.9-8.41,126.22-57.42c-.81-9.47.61-19.1,0-28.57,24.32.13,43.14,25.63,40.81,49,3.22,18.11,6.08,39,0,57.13C862.27,893.9,790.32,910.67,745,923.85c-48.4,14.08-97.12,24.49-151,24.49a628.36,628.36,0,0,1-114.26,0c-22.65,0-44.57-.78-65.3-8.16,11.84-39.34-1.79-87.62-36.73-110.19-21.87,1.47-57.62-7.67-77.53-16.32-.21,2.94-1.68,11.67,4.08,16.32,13.34,6.82,34.11,9.1,49,12.25,12.77,2.69,24.08,2,32.64,12.24,1.43.45,3.11,3,4.09,4.08,17.95,20.77,15.3,54.4,16.32,81.62-88-11.55-244.49-49.26-204-171.4,6.16-16.32,22.52-33.14,40.8-32.65C233.65,768.37,262.34,789.15,288,797.35Z"/><path class="cls-6" d="M202.27,156.65c-22.37-1.8-27.88,38.85-4.21,40.69S224.26,158.4,202.27,156.65Z"/><path class="cls-7" d="M516.49,160.73c13.55-.53,27.26,0,40.81,0C544.32,159.47,530,158.81,516.49,160.73Z"/><path class="cls-8" d="M492,821.83H594c51.87.33,106-10.81,154.79-20.69s93.9-34.68,77.82-93.57c-13.79,8.81-24.08,25.75-40.81,28.56C841,685,867.45,614.32,867.45,540.25V475c0-166-142.75-314.23-310.15-314.23-13.55,0-27.26-.53-40.81,0-277,2.33-400.9,384.75-224.45,575.4-15.42-4.44-23.17-20.52-36.72-28.56-16.65,61.91,34.77,81.33,82.92,92.55S440.1,821.83,492,821.83M749.1,324c24.32,16.69,53,38.89,57.14,69.37-20.12-17-35.39-42.4-57.14-57.13-137-98.8-363.07-69.7-473.38,53.05C374.27,241.49,608.39,235.74,749.1,324M606.27,303.56c140.18,16.94,264.4,127,220.66,281.87s-207.15,168.33-347.21,163S204.88,614.16,252.58,468.14,472,287.32,606.27,303.56m163.24,404c12,3.92-12.65,21.75-16.33,24.48-47.13,35.06-116.87,53.06-175.47,53.06a382.81,382.81,0,0,1-69.38,0c-71.54,0-155-22.08-200-77.54C440.06,795.06,637.86,799.1,769.51,707.57Z"/><path class="cls-9" d="M749.1,336.21c-3.18-6,1.72-8.29,0-12.24-140.71-88.23-374.83-82.48-473.38,65.29C386,266.51,612.15,237.41,749.1,336.21Z"/><path class="cls-10" d="M606.27,303.56c-134.3-16.24-306,18.53-353.69,164.58s87.13,274.93,227.14,280.28,303.5-8.16,347.21-163S746.45,320.5,606.27,303.56M728.7,699.41c-5.51-11.8-18.12-12.61-28.57-8.17,10.45,30.08-29.75,36.28-60,42.08s-85,17.42-119.61,11-74-6.17-106.1-16.33-54-19.46-78.47-35.79-48.24-43.62-61.58-69-17.59-65.58-19.1-99.25S268.42,448.23,283,421s41.21-48.28,67.21-63.38S397.25,332,430.84,324s83.29-11.35,118.3-12.29,80.27,6.21,110.31,16.2,67.66,20.16,90.67,39.92,55.34,40.72,60.07,70.51,22.33,84.89,15.1,112.8-13.59,72.6-31.62,90.8S762.73,690.43,728.7,699.41Z"/><path class="cls-11" d="M728.7,699.41c34-9,46.89-39.3,65-57.46s24.4-62.85,31.62-90.8-10.36-83-15.1-112.8-37.05-50.76-60.07-70.51-60.64-29.92-90.67-39.92-75.3-17.14-110.31-16.2-84.76,4.33-118.3,12.29-54.69,18.52-80.64,33.62S297.51,393.75,283,421s-29.18,69.25-27.67,102.92,5.75,73.86,19.1,99.25,37.09,52.68,61.58,69,46.35,25.67,78.47,35.79,71.5,9.88,106.1,16.33,89.37-5.23,119.61-11,70.4-12,60-42.08c10.45-4.44,23.06-3.63,28.57,8.17M414.47,364.77c33.22,8,9,58.08-11.22,70.4S364.6,492,334.2,481.77s-13.59-56.31,5.8-73.13,44.19-51.13,74.47-43.87m297.91,28.57C753.06,406.85,774.61,445,779,485.85s6.36,103.13-20.82,137-40.89,64.84-91,72.23S662,660.48,695,637.17s46-72.8,50-113.24-10.93-96.15-32.64-130.59M324.69,503.52c18.86,8.13,5.43,51.87-15,43.51S300.37,493.08,324.69,503.52Z"/><path class="cls-12" d="M936.82,319.89c5.88-1.6,8.65,2.89,8.17,8.16H932.74C941.39,348.82,957.84,303.72,936.82,319.89Z"/><path class="cls-13" d="M932.74,328.05H945c.48-5.27-2.29-9.76-8.17-8.16C934.17,321.93,930.82,323.48,932.74,328.05Z"/><path class="cls-14" d="M749.1,336.21c21.75,14.73,37,40.15,57.14,57.13-4.09-30.48-32.82-52.68-57.14-69.37C750.82,327.92,745.92,330.21,749.1,336.21Z"/><path class="cls-15" d="M414.47,364.77c-30.28-7.26-55.05,27.1-74.47,43.87s-36.24,62.89-5.8,73.13,48.81-34.28,69.05-46.6S447.69,372.77,414.47,364.77Z"/><path class="cls-16" d="M712.38,393.34C734.09,427.78,749,483.49,745,523.93s-17,89.94-50,113.24-78,65.22-27.83,57.87,63.82-38.4,91-72.23,25.22-96.07,20.82-137S753.06,406.85,712.38,393.34Z"/><path class="cls-17" d="M177.78,434.15c6.53,20.32,1.92,60.19,0,81.62,19.47-4,10,21.63,12.24,32.64,10.57-6.69-2.69-26.24,8.16-32.64-2.24-32.57,6.7-62.32,8.17-93.86C194.51,421.7,185,425.82,177.78,434.15Z"/><path class="cls-18" d="M879.69,483.12c.82,8.61,4.33,21.22,4.08,32.65,4.61-5.8,14.2-3.31,20.41-4.08,0-20.53,7.63-58.81,0-77.54-9.1-5.35-15.88-16.45-28.57-12.24C881.85,441,879.69,462.55,879.69,483.12Z"/><path class="cls-19" d="M173.7,438.23c-1.63,8.82,0,19.59,0,28.57v49a32.67,32.67,0,0,1,4.08,0c1.92-21.43,6.53-61.3,0-81.62A35.73,35.73,0,0,1,173.7,438.23Z"/><path class="cls-20" d="M904.18,511.69v32.64c.61,6.41,2.93,49.59,12.24,40.81,16.77-35.09,18.61-124.91-12.24-151C911.81,452.88,904.18,491.16,904.18,511.69Z"/><path class="cls-21" d="M161.46,581.06c.24,1,3.3,2.78,4.08,4.08,10.53-5.26,4.4-42.85,4.08-57.13s2.85-48.36,4.08-61.21c0-9-1.63-19.75,0-28.57C138.15,465,151.5,544.17,161.46,581.06Z"/><path class="cls-22" d="M165.54,585.14c1.92,3.23,3.75,7.76,8.16,8.16V466.8c-1.23,12.85-4.41,46.93-4.08,61.21S176.07,579.88,165.54,585.14Z"/><path class="cls-23" d="M867.45,540.25a359.56,359.56,0,0,0,0-65.29Z"/><path class="cls-24" d="M879.69,544.33c.69-7.14,3.88-18.77,4.08-28.56.25-11.43-3.26-24-4.08-32.65Z"/><path class="cls-25" d="M324.69,503.52c-24.32-10.44-35.46,35.14-15,43.51S343.55,511.65,324.69,503.52Z"/><path class="cls-26" d="M883.77,515.77c-.2,9.79-3.39,21.42-4.08,28.56.78,22.61-1.35,44.69-8.16,65.3,10.69,1.47,19.91-2.86,28.57-8.16,9.71-12.53,4.08-41.79,4.08-57.14V511.69C898,512.46,888.38,510,883.77,515.77Z"/><path class="cls-27" d="M165.54,585.14c-.78-1.3-3.84-3.1-4.08-4.08,3.79,9.22,6.73,14.81,16.32,20.41-10.24-18,1.92-64.52,0-85.7a32.67,32.67,0,0,0-4.08,0V593.3C169.29,592.9,167.46,588.37,165.54,585.14Z"/><path class="cls-28" d="M177.78,601.47c10.49,4.36,20.73,9.38,32.65,8.16-10.25-29.63-12.25-61.58-12.25-93.86-10.85,6.4,2.41,26-8.16,32.64-2.24-11,7.23-36.68-12.24-32.64C179.7,537,167.54,583.47,177.78,601.47Z"/><path class="cls-29" d="M900.1,601.47c6.28-3.84,12.93-9.27,16.32-16.33-9.31,8.78-11.63-34.4-12.24-40.81C904.18,559.68,909.81,588.94,900.1,601.47Z"/><path class="cls-30" d="M149.21,683.08c-18.24-7.1-32.93,17.27-15,27.22S164.64,689.08,149.21,683.08Z"/><path class="cls-31" d="M949.07,687.16c-9.8-4.89-21.47,8.21-10.94,14.94S958.37,691.82,949.07,687.16Z"/><path class="cls-32" d="M508.33,785.11h69.38c58.6,0,128.34-18,175.47-53.06,6.74-5.87,14.82-16,16.33-24.48-131.65,91.53-329.45,87.49-461.14,0C353.3,763,436.79,785.11,508.33,785.11Z"/><path class="cls-33" d="M753.18,732.05c3.68-2.73,28.28-20.56,16.33-24.48C768,716,759.92,726.18,753.18,732.05Z"/><path class="cls-34" d="M202.27,768.78c-2.37,31.06,56.39,53.5,77.86,65s38.2,13.83,52.81,16.57,55.66,11.51,57.05,8.24c-1-1.1-2.66-3.63-4.09-4.08-10.85-3.39-23-9-32.64-12.24-14.86-3.15-35.63-5.43-49-12.25A27.32,27.32,0,0,1,292,817.75c-3.79-7.14.94-13.79-4.08-20.4-25.62-8.2-54.31-29-44.89-61.22C224.79,735.64,208.43,752.46,202.27,768.78Z"/><path class="cls-35" d="M838.88,764.7c1,11.47,11,21.55,20.41,32.65-29.3,16.81-46.08,35-81.7,40.72s-5.14,73.58-44.81,77.62c1,6.82,11.63.7,12.24,8.16,45.3-13.18,117.25-30,134.67-81.61,3.31-16.73,1.14-40.08,0-57.13,2.33-23.35-16.49-48.85-40.81-49C839.49,745.6,838.07,755.23,838.88,764.7Z"/><path class="cls-36" d="M377.74,825.91c.82.37,0,4.08,0,4.08,34.94,22.57,48.57,70.85,36.73,110.19,20.73,7.38,42.65,8.16,65.3,8.16H594c53.87,0,102.59-10.41,151-24.49-.61-7.46-11.26-1.34-12.24-8.16,39.67-4,9.14-71.94,44.81-77.62s52.4-23.91,81.7-40.72c-9.39-11.1-19.39-21.18-20.41-32.65-16.32,49-84.68,40.12-126.22,57.42s-118.39,7.47-167.6,16-119.41-21.71-167.32-12.25m297.91,85.7c-22.57-8.81-22.45-46,4.08-53.05,54.6-14.4,49.58,74-4.08,53.05M492,879c21.14,8.89,14.24,39.74-12.24,32.64-25.35-6.77-6.45-40.48,12.24-32.64m114.26-4.09c23.26,7.19,8.25,50.36-16.32,40.81S582.28,867.46,606.27,874.88Z"/><path class="cls-37" d="M390,858.56c-1.39,3.27-42.4-5.55-57.05-8.24s-31.39-5.06-52.81-16.57-80.23-33.91-77.86-65c-40.45,122.14,116.06,159.85,204,171.4C405.29,913,407.94,879.33,390,858.56Z"/><path class="cls-38" d="M577.71,785.11H508.33A382.81,382.81,0,0,0,577.71,785.11Z"/><path class="cls-39" d="M879.69,842.24c6.08-18.08,3.22-39,0-57.13C880.83,802.16,883,825.51,879.69,842.24Z"/><path class="cls-40" d="M292,817.75c-.4-5.83.78-4.85,4.09-8.16,3-3,3.06-4,8.16-4.08-4.53-1.92-10.69-5.75-16.33-8.16C293,804,288.25,810.61,292,817.75Z"/><path class="cls-41" d="M296.13,809.59c.53-.41,3,3.63,4.08,4.08,19.91,8.65,55.66,17.79,77.53,16.32,0,0,.82-3.71,0-4.08-22.77-11-50.23-10.65-73.45-20.4C299.19,805.59,299.1,806.61,296.13,809.59Z"/><path class="cls-42" d="M292,817.75A27.32,27.32,0,0,0,304.29,830c-5.76-4.65-4.29-13.38-4.08-16.32-1.06-.45-3.55-4.49-4.08-4.08C292.82,812.9,291.64,811.92,292,817.75Z"/><path class="cls-43" d="M594,821.83H492A564.36,564.36,0,0,0,594,821.83Z"/><path class="cls-44" d="M385.9,854.48c-8.56-10.28-19.87-9.55-32.64-12.24C362.85,845.46,375.05,851.09,385.9,854.48Z"/><path class="cls-45" d="M675.65,911.61c8.08,1,10.81-1.06,16.32-4.08-33.58,7.59-36-44.85,0-40.81-3.47-1.67-9.83-4.4-12.24-8.16C653.2,865.58,653.08,902.8,675.65,911.61Z"/><path class="cls-46" d="M692,866.72c18.08,8.74,23.67,27.83,0,40.81-5.51,3-8.24,5.06-16.32,4.08,53.66,20.94,58.68-67.45,4.08-53.05C682.14,862.32,688.5,865.05,692,866.72Z"/><path class="cls-47" d="M692,907.53c23.67-13,18.08-32.07,0-40.81C656,862.68,658.39,915.12,692,907.53Z"/><path class="cls-48" d="M479.77,911.61c23.05,3.67,21.5-29.3,12.24-32.64C473.32,871.13,454.42,904.84,479.77,911.61Z"/><path class="cls-49" d="M606.27,874.88c-24-7.42-40.93,31.22-16.32,40.81s39.58-33.62,16.32-40.81m4.08,8.17c14.37,9.22-4.57,38.44-21.3,25.38S595.21,873.33,610.35,883.05Z"/><path class="cls-50" d="M479.77,911.61c26.48,7.1,33.38-23.75,12.24-32.64C501.27,882.31,502.82,915.28,479.77,911.61Z"/><path class="cls-51" d="M610.35,883.05c-15.14-9.72-38.07,12.32-21.3,25.38S624.72,892.27,610.35,883.05Z"/><path class="cls-52" d="M940.9,895.29c-20.24-8.69-32,19.83-13.18,29.42S957.72,902.51,940.9,895.29Z"/><path class="cls-53" d="M153.29,915.69c-11.63-6.4-25.7,9.55-15,19.06S166.52,923,153.29,915.69Z"/><path class="cls-54" d="M594,948.34H479.77A628.36,628.36,0,0,0,594,948.34Z"/><path class="cls-55" d="M55.35,1001.39c-15.46-63.33,7.06-141.36,0-212.2s3.43-147.28,0-220.37,2.13-145.28,0-220.37,2.21-146.87,0-224.45S126.73,37.08,194.1,42.39s151.08-2.66,220.37,0,156.54-1.84,224.45,0,158.13-2.25,220.37,0,152-20,168.62,51.74-2.33,148.5,2.77,221.67-.73,147.24,0,220.37,3.15,147.48,0,220.37,7.1,151.24,4.08,220.37c10.21-73-3.75-150.67,0-224.45s.17-150.59,0-224.45,4.41-146.63,0-220.37S1048,159.51,1030.6,87.36,918.3,41.57,855.21,38.3s-152,2.41-220.37,0S480,41.45,410.39,38.3,257.72,44.43,190,38.3,46.09,41.65,47.19,119.92s-1.83,149.16,0,224.45-3.87,147.44,0,220.37-8.32,154.54,0,224.45S24.67,941.36,55.35,1001.39Z"/><path class="cls-56" d="M55.35,1001.39c36.85,72.11,159.44,28.53,232.61,36.73s192.34-2.29,269.34,0,196.94,2.12,269.34,0,195.43,29.63,208.12-61.21c3-69.13-7.22-147.49-4.08-220.37s.74-147.24,0-220.37,5.1-147.2,0-220.37,13.88-150-2.77-221.67S921.52,44.63,859.29,42.39s-152.46,1.83-220.37,0-155.16,2.65-224.45,0-153,5.3-220.37,0S53.15,46.43,55.35,124s-2.12,149.36,0,224.45-3.42,147.28,0,220.37-7.06,149.52,0,220.37-15.46,148.87,0,212.2M924.58,177.05c-20.85,8.78-31.59,25.88-40.81,44.89-2.41-22.81-22.12-32.19-36.73-44.89,20.16-.44,34-17.87,36.73-36.72,9.22,14.57,17.39,39.21,40.81,36.72M871.53,401.5c44.24,11.92,72,50.36,69.37,93.86s7.76,103.53-41.74,121.49-42.12,59.54-60.28,103c75,12.65,80.56,137.12,17.55,172.62S728.74,949.69,655,960.3s-176.26,9.3-248.65-3.8-138.46-27-194.86-74.47-22-155.77,23.46-190.79c0-65.37-90.18-71.9-93.86-130.58s-9.63-149.69,69.38-151C234.87,256.75,385.66,145.84,536.9,144.41S843.78,248.76,871.53,401.5M202.27,156.65c22,1.75,19.46,42.52-4.21,40.69s-18.16-42.49,4.21-40.69M149.21,311.72c0,23.67-24.2-3.71,0,0m783.53,16.33c-1.92-4.57,1.43-6.12,4.08-8.16,21-16.17,4.57,28.93-4.08,8.16m-783.53,355c15.43,6,2.94,37.18-15,27.22s-3.27-34.32,15-27.22m799.86,4.08c9.3,4.66-.41,21.67-10.94,14.94s1.14-19.83,10.94-14.94M940.9,895.29c16.82,7.22,5.64,39.05-13.18,29.42s-7.06-38.11,13.18-29.42m-787.61,20.4c13.23,7.27-4.28,28.57-15,19.06S141.66,909.29,153.29,915.69Z"/><path class="cls-57" d="M924.58,177.05c-23.42,2.49-31.59-22.15-40.81-36.72C881,159.18,867.2,176.61,847,177.05c14.61,12.7,34.32,22.08,36.73,44.89C893,202.93,903.73,185.83,924.58,177.05Z"/><path class="cls-58" d="M871.53,401.5C843.78,248.76,688.13,143,536.9,144.41s-302,112.34-326.47,265.25c-79,1.31-73.05,92.31-69.38,151s93.82,65.21,93.86,130.58c-45.42,35-79.86,143.33-23.46,190.79s122.46,61.41,194.86,74.47S581.17,970.87,655,960.3,793.46,928,856.43,892.43s57.46-160-17.55-172.62c18.16-43.42,10.78-85,60.28-103s39.21-78,41.74-121.49-25.13-81.94-69.37-93.86M557.3,160.73C724.7,160.73,867.45,309,867.45,475a359.56,359.56,0,0,1,0,65.29c0,74.07-26.45,144.75-81.62,195.88,16.73-2.81,27-19.75,40.81-28.56,16.08,58.89-29.06,83.66-77.82,93.57S645.9,822.16,594,821.83a564.36,564.36,0,0,1-102,0c-51.91,0-105.62-10.48-153.77-21.71s-99.57-30.64-82.92-92.55c13.55,8,21.3,24.12,36.72,28.56-176.45-190.65-52.56-573.07,224.45-575.4,13.47-1.92,27.83-1.26,40.81,0m-359.12,355c0,32.28,2,64.23,12.25,93.86-11.92,1.22-22.16-3.8-32.65-8.16-9.59-5.6-12.53-11.19-16.32-20.41-10-36.89-23.31-116.06,12.24-142.83a35.73,35.73,0,0,0,4.08-4.08c7.18-8.33,16.73-12.45,28.57-12.24-1.47,31.54-10.41,61.29-8.17,93.86m706-81.62c30.85,26.08,29,115.9,12.24,151-3.39,7.06-10,12.49-16.32,16.33-8.66,5.3-17.88,9.63-28.57,8.16,6.81-20.61,8.94-42.69,8.16-65.3V483.12c0-20.57,2.16-42.16-4.08-61.21,12.69-4.21,19.47,6.89,28.57,12.24M288,797.35c5.64,2.41,11.8,6.24,16.33,8.16,23.22,9.75,50.68,9.43,73.45,20.4,47.91-9.46,118.1,20.82,167.32,12.25s126.06,1.3,167.6-16,109.9-8.41,126.22-57.42c-.81-9.47.61-19.1,0-28.57,24.32.13,43.14,25.63,40.81,49,3.22,18.11,6.08,39,0,57.13C862.27,893.9,790.32,910.67,745,923.85c-48.4,14.08-97.12,24.49-151,24.49a628.36,628.36,0,0,1-114.26,0c-22.65,0-44.57-.78-65.3-8.16,11.84-39.34-1.79-87.62-36.73-110.19-21.87,1.47-57.62-7.67-77.53-16.32-.21,2.94-1.68,11.67,4.08,16.32,13.34,6.82,34.11,9.1,49,12.25,12.77,2.69,24.08,2,32.64,12.24,1.43.45,3.11,3,4.09,4.08,17.95,20.77,15.3,54.4,16.32,81.62-88-11.55-244.49-49.26-204-171.4,6.16-16.32,22.52-33.14,40.8-32.65C233.65,768.37,262.34,789.15,288,797.35Z"/><path class="cls-59" d="M202.27,156.65c-22.37-1.8-27.88,38.85-4.21,40.69S224.26,158.4,202.27,156.65Z"/><path class="cls-60" d="M516.49,160.73c13.55-.53,27.26,0,40.81,0C544.32,159.47,530,158.81,516.49,160.73Z"/><path class="cls-61" d="M492,821.83H594c51.87.33,106-10.81,154.79-20.69s93.9-34.68,77.82-93.57c-13.79,8.81-24.08,25.75-40.81,28.56C841,685,867.45,614.32,867.45,540.25V475c0-166-142.75-314.23-310.15-314.23-13.55,0-27.26-.53-40.81,0-277,2.33-400.9,384.75-224.45,575.4-15.42-4.44-23.17-20.52-36.72-28.56-16.65,61.91,34.77,81.33,82.92,92.55S440.1,821.83,492,821.83M749.1,324c24.32,16.69,53,38.89,57.14,69.37-20.12-17-35.39-42.4-57.14-57.13-137-98.8-363.07-69.7-473.38,53.05C374.27,241.49,608.39,235.74,749.1,324M606.27,303.56c140.18,16.94,264.4,127,220.66,281.87s-207.15,168.33-347.21,163S204.88,614.16,252.58,468.14,472,287.32,606.27,303.56m163.24,404c12,3.92-12.65,21.75-16.33,24.48-47.13,35.06-116.87,53.06-175.47,53.06a382.81,382.81,0,0,1-69.38,0c-71.54,0-155-22.08-200-77.54C440.06,795.06,637.86,799.1,769.51,707.57Z"/><path class="cls-62" d="M749.1,336.21c-3.18-6,1.72-8.29,0-12.24-140.71-88.23-374.83-82.48-473.38,65.29C386,266.51,612.15,237.41,749.1,336.21Z"/><path class="cls-63" d="M606.27,303.56c-134.3-16.24-306,18.53-353.69,164.58s87.13,274.93,227.14,280.28,303.5-8.16,347.21-163S746.45,320.5,606.27,303.56M728.7,699.41c-5.51-11.8-18.12-12.61-28.57-8.17,10.45,30.08-29.75,36.28-60,42.08s-85,17.42-119.61,11-74-6.17-106.1-16.33-54-19.46-78.47-35.79-48.24-43.62-61.58-69-17.59-65.58-19.1-99.25S268.42,448.23,283,421s41.21-48.28,67.21-63.38S397.25,332,430.84,324s83.29-11.35,118.3-12.29,80.27,6.21,110.31,16.2,67.66,20.16,90.67,39.92,55.34,40.72,60.07,70.51,22.33,84.89,15.1,112.8-13.59,72.6-31.62,90.8S762.73,690.43,728.7,699.41Z"/><path class="cls-64" d="M728.7,699.41c34-9,46.89-39.3,65-57.46s24.4-62.85,31.62-90.8-10.36-83-15.1-112.8-37.05-50.76-60.07-70.51-60.64-29.92-90.67-39.92-75.3-17.14-110.31-16.2-84.76,4.33-118.3,12.29-54.69,18.52-80.64,33.62S297.51,393.75,283,421s-29.18,69.25-27.67,102.92,5.75,73.86,19.1,99.25,37.09,52.68,61.58,69,46.35,25.67,78.47,35.79,71.5,9.88,106.1,16.33,89.37-5.23,119.61-11,70.4-12,60-42.08c10.45-4.44,23.06-3.63,28.57,8.17M414.47,364.77c33.22,8,9,58.08-11.22,70.4S364.6,492,334.2,481.77s-13.59-56.31,5.8-73.13,44.19-51.13,74.47-43.87m297.91,28.57C753.06,406.85,774.61,445,779,485.85s6.36,103.13-20.82,137-40.89,64.84-91,72.23S662,660.48,695,637.17s46-72.8,50-113.24-10.93-96.15-32.64-130.59M324.69,503.52c18.86,8.13,5.43,51.87-15,43.51S300.37,493.08,324.69,503.52Z"/><path class="cls-65" d="M936.82,319.89c5.88-1.6,8.65,2.89,8.17,8.16H932.74C941.39,348.82,957.84,303.72,936.82,319.89Z"/><path class="cls-66" d="M932.74,328.05H945c.48-5.27-2.29-9.76-8.17-8.16C934.17,321.93,930.82,323.48,932.74,328.05Z"/><path class="cls-67" d="M749.1,336.21c21.75,14.73,37,40.15,57.14,57.13-4.09-30.48-32.82-52.68-57.14-69.37C750.82,327.92,745.92,330.21,749.1,336.21Z"/><path class="cls-68" d="M414.47,364.77c-30.28-7.26-55.05,27.1-74.47,43.87s-36.24,62.89-5.8,73.13,48.81-34.28,69.05-46.6S447.69,372.77,414.47,364.77Z"/><path class="cls-69" d="M712.38,393.34C734.09,427.78,749,483.49,745,523.93s-17,89.94-50,113.24-78,65.22-27.83,57.87,63.82-38.4,91-72.23,25.22-96.07,20.82-137S753.06,406.85,712.38,393.34Z"/><path class="cls-70" d="M177.78,434.15c6.53,20.32,1.92,60.19,0,81.62,19.47-4,10,21.63,12.24,32.64,10.57-6.69-2.69-26.24,8.16-32.64-2.24-32.57,6.7-62.32,8.17-93.86C194.51,421.7,185,425.82,177.78,434.15Z"/><path class="cls-71" d="M879.69,483.12c.82,8.61,4.33,21.22,4.08,32.65,4.61-5.8,14.2-3.31,20.41-4.08,0-20.53,7.63-58.81,0-77.54-9.1-5.35-15.88-16.45-28.57-12.24C881.85,441,879.69,462.55,879.69,483.12Z"/><path class="cls-72" d="M173.7,438.23c-1.63,8.82,0,19.59,0,28.57v49a32.67,32.67,0,0,1,4.08,0c1.92-21.43,6.53-61.3,0-81.62A35.73,35.73,0,0,1,173.7,438.23Z"/><path class="cls-73" d="M904.18,511.69v32.64c.61,6.41,2.93,49.59,12.24,40.81,16.77-35.09,18.61-124.91-12.24-151C911.81,452.88,904.18,491.16,904.18,511.69Z"/><path class="cls-74" d="M161.46,581.06c.24,1,3.3,2.78,4.08,4.08,10.53-5.26,4.4-42.85,4.08-57.13s2.85-48.36,4.08-61.21c0-9-1.63-19.75,0-28.57C138.15,465,151.5,544.17,161.46,581.06Z"/><path class="cls-75" d="M165.54,585.14c1.92,3.23,3.75,7.76,8.16,8.16V466.8c-1.23,12.85-4.41,46.93-4.08,61.21S176.07,579.88,165.54,585.14Z"/><path class="cls-76" d="M867.45,540.25a359.56,359.56,0,0,0,0-65.29Z"/><path class="cls-77" d="M879.69,544.33c.69-7.14,3.88-18.77,4.08-28.56.25-11.43-3.26-24-4.08-32.65Z"/><path class="cls-78" d="M324.69,503.52c-24.32-10.44-35.46,35.14-15,43.51S343.55,511.65,324.69,503.52Z"/><path class="cls-79" d="M883.77,515.77c-.2,9.79-3.39,21.42-4.08,28.56.78,22.61-1.35,44.69-8.16,65.3,10.69,1.47,19.91-2.86,28.57-8.16,9.71-12.53,4.08-41.79,4.08-57.14V511.69C898,512.46,888.38,510,883.77,515.77Z"/><path class="cls-80" d="M165.54,585.14c-.78-1.3-3.84-3.1-4.08-4.08,3.79,9.22,6.73,14.81,16.32,20.41-10.24-18,1.92-64.52,0-85.7a32.67,32.67,0,0,0-4.08,0V593.3C169.29,592.9,167.46,588.37,165.54,585.14Z"/><path class="cls-81" d="M177.78,601.47c10.49,4.36,20.73,9.38,32.65,8.16-10.25-29.63-12.25-61.58-12.25-93.86-10.85,6.4,2.41,26-8.16,32.64-2.24-11,7.23-36.68-12.24-32.64C179.7,537,167.54,583.47,177.78,601.47Z"/><path class="cls-82" d="M900.1,601.47c6.28-3.84,12.93-9.27,16.32-16.33-9.31,8.78-11.63-34.4-12.24-40.81C904.18,559.68,909.81,588.94,900.1,601.47Z"/><path class="cls-83" d="M149.21,683.08c-18.24-7.1-32.93,17.27-15,27.22S164.64,689.08,149.21,683.08Z"/><path class="cls-84" d="M949.07,687.16c-9.8-4.89-21.47,8.21-10.94,14.94S958.37,691.82,949.07,687.16Z"/><path class="cls-85" d="M508.33,785.11h69.38c58.6,0,128.34-18,175.47-53.06,6.74-5.87,14.82-16,16.33-24.48-131.65,91.53-329.45,87.49-461.14,0C353.3,763,436.79,785.11,508.33,785.11Z"/><path class="cls-86" d="M753.18,732.05c3.68-2.73,28.28-20.56,16.33-24.48C768,716,759.92,726.18,753.18,732.05Z"/><path class="cls-87" d="M202.27,768.78c-2.37,31.06,56.39,53.5,77.86,65s38.2,13.83,52.81,16.57,55.66,11.51,57.05,8.24c-1-1.1-2.66-3.63-4.09-4.08-10.85-3.39-23-9-32.64-12.24-14.86-3.15-35.63-5.43-49-12.25A27.32,27.32,0,0,1,292,817.75c-3.79-7.14.94-13.79-4.08-20.4-25.62-8.2-54.31-29-44.89-61.22C224.79,735.64,208.43,752.46,202.27,768.78Z"/><path class="cls-88" d="M838.88,764.7c1,11.47,11,21.55,20.41,32.65-29.3,16.81-46.08,35-81.7,40.72s-5.14,73.58-44.81,77.62c1,6.82,11.63.7,12.24,8.16,45.3-13.18,117.25-30,134.67-81.61,3.31-16.73,1.14-40.08,0-57.13,2.33-23.35-16.49-48.85-40.81-49C839.49,745.6,838.07,755.23,838.88,764.7Z"/><path class="cls-89" d="M377.74,825.91c.82.37,0,4.08,0,4.08,34.94,22.57,48.57,70.85,36.73,110.19,20.73,7.38,42.65,8.16,65.3,8.16H594c53.87,0,102.59-10.41,151-24.49-.61-7.46-11.26-1.34-12.24-8.16,39.67-4,9.14-71.94,44.81-77.62s52.4-23.91,81.7-40.72c-9.39-11.1-19.39-21.18-20.41-32.65-16.32,49-84.68,40.12-126.22,57.42s-118.39,7.47-167.6,16-119.41-21.71-167.32-12.25m297.91,85.7c-22.57-8.81-22.45-46,4.08-53.05,54.6-14.4,49.58,74-4.08,53.05M492,879c21.14,8.89,14.24,39.74-12.24,32.64-25.35-6.77-6.45-40.48,12.24-32.64m114.26-4.09c23.26,7.19,8.25,50.36-16.32,40.81S582.28,867.46,606.27,874.88Z"/><path class="cls-90" d="M390,858.56c-1.39,3.27-42.4-5.55-57.05-8.24s-31.39-5.06-52.81-16.57-80.23-33.91-77.86-65c-40.45,122.14,116.06,159.85,204,171.4C405.29,913,407.94,879.33,390,858.56Z"/><path class="cls-91" d="M577.71,785.11H508.33A382.81,382.81,0,0,0,577.71,785.11Z"/><path class="cls-92" d="M879.69,842.24c6.08-18.08,3.22-39,0-57.13C880.83,802.16,883,825.51,879.69,842.24Z"/><path class="cls-93" d="M292,817.75c-.4-5.83.78-4.85,4.09-8.16,3-3,3.06-4,8.16-4.08-4.53-1.92-10.69-5.75-16.33-8.16C293,804,288.25,810.61,292,817.75Z"/><path class="cls-94" d="M296.13,809.59c.53-.41,3,3.63,4.08,4.08,19.91,8.65,55.66,17.79,77.53,16.32,0,0,.82-3.71,0-4.08-22.77-11-50.23-10.65-73.45-20.4C299.19,805.59,299.1,806.61,296.13,809.59Z"/><path class="cls-95" d="M292,817.75A27.32,27.32,0,0,0,304.29,830c-5.76-4.65-4.29-13.38-4.08-16.32-1.06-.45-3.55-4.49-4.08-4.08C292.82,812.9,291.64,811.92,292,817.75Z"/><path class="cls-96" d="M594,821.83H492A564.36,564.36,0,0,0,594,821.83Z"/><path class="cls-97" d="M385.9,854.48c-8.56-10.28-19.87-9.55-32.64-12.24C362.85,845.46,375.05,851.09,385.9,854.48Z"/><path class="cls-98" d="M675.65,911.61c8.08,1,10.81-1.06,16.32-4.08-33.58,7.59-36-44.85,0-40.81-3.47-1.67-9.83-4.4-12.24-8.16C653.2,865.58,653.08,902.8,675.65,911.61Z"/><path class="cls-99" d="M692,866.72c18.08,8.74,23.67,27.83,0,40.81-5.51,3-8.24,5.06-16.32,4.08,53.66,20.94,58.68-67.45,4.08-53.05C682.14,862.32,688.5,865.05,692,866.72Z"/><path class="cls-100" d="M692,907.53c23.67-13,18.08-32.07,0-40.81C656,862.68,658.39,915.12,692,907.53Z"/><path class="cls-101" d="M479.77,911.61c23.05,3.67,21.5-29.3,12.24-32.64C473.32,871.13,454.42,904.84,479.77,911.61Z"/><path class="cls-102" d="M606.27,874.88c-24-7.42-40.93,31.22-16.32,40.81s39.58-33.62,16.32-40.81m4.08,8.17c14.37,9.22-4.57,38.44-21.3,25.38S595.21,873.33,610.35,883.05Z"/><path class="cls-103" d="M479.77,911.61c26.48,7.1,33.38-23.75,12.24-32.64C501.27,882.31,502.82,915.28,479.77,911.61Z"/><path class="cls-104" d="M610.35,883.05c-15.14-9.72-38.07,12.32-21.3,25.38S624.72,892.27,610.35,883.05Z"/><path class="cls-105" d="M940.9,895.29c-20.24-8.69-32,19.83-13.18,29.42S957.72,902.51,940.9,895.29Z"/><path class="cls-106" d="M153.29,915.69c-11.63-6.4-25.7,9.55-15,19.06S166.52,923,153.29,915.69Z"/><path class="cls-107" d="M594,948.34H479.77A628.36,628.36,0,0,0,594,948.34Z"/></svg>