<svg id="Layer_1" data-name="Layer 1" xmlns="http://www.w3.org/2000/svg" viewBox="0 0 1080 1080"><defs><style>.cls-1{fill:#0c1523;}.cls-10,.cls-11,.cls-12,.cls-13,.cls-14,.cls-15,.cls-16,.cls-17,.cls-18,.cls-19,.cls-2,.cls-20,.cls-21,.cls-22,.cls-23,.cls-24,.cls-25,.cls-26,.cls-27,.cls-3,.cls-4,.cls-5,.cls-6,.cls-7,.cls-8,.cls-9{fill:none;stroke-width:1.22px;}.cls-2{stroke:#212025;}.cls-3{stroke:#0c1623;}.cls-4{stroke:#151619;}.cls-5{stroke:#0f1015;}.cls-6{stroke:#59add8;}.cls-7{stroke:#e9e7e8;}.cls-8{stroke:#eae9e9;}.cls-9{stroke:#d3d1d2;}.cls-10{stroke:#9072b3;}.cls-11{stroke:#e5e6e6;}.cls-12{stroke:#e9e9e9;}.cls-13{stroke:#88858d;}.cls-14{stroke:#f5f3f3;}.cls-15{stroke:#969295;}.cls-16{stroke:#cecece;}.cls-17{stroke:#d3d2d5;}.cls-18{stroke:#a08cc2;}.cls-19{stroke:#cfd0d1;}.cls-20{stroke:#9f92c6;}.cls-21{stroke:#beb3ba;}.cls-22{stroke:#eaeaeb;}.cls-23{stroke:#d2d2d2;}.cls-24{stroke:#5d5e63;}.cls-25{stroke:#e4e4e4;}.cls-26{stroke:#e2e1e2;}.cls-27{stroke:#b19ecc;}.cls-28{fill:#212025;}.cls-29{fill:#0c1623;}.cls-30{fill:#151619;}.cls-31{fill:#0f1015;}.cls-32{fill:#59add8;}.cls-33{fill:#e9e7e8;}.cls-34{fill:#eae9e9;}.cls-35{fill:#d3d1d2;}.cls-36{fill:#9072b3;}.cls-37{fill:#e5e6e6;}.cls-38{fill:#e9e9e9;}.cls-39{fill:#88858d;}.cls-40{fill:#f5f3f3;}.cls-41{fill:#969295;}.cls-42{fill:#cecece;}.cls-43{fill:#d3d2d5;}.cls-44{fill:#a08cc2;}.cls-45{fill:#cfd0d1;}.cls-46{fill:#9f92c6;}.cls-47{fill:#beb3ba;}.cls-48{fill:#eaeaeb;}.cls-49{fill:#d2d2d2;}.cls-50{fill:#5d5e63;}.cls-51{fill:#e4e4e4;}.cls-52{fill:#e2e1e2;}.cls-53{fill:#b19ecc;}</style></defs><title>avatar-stars</title><rect class="cls-1" width="1080" height="1080"/><path class="cls-2" d="M93.73,49.07c146.18-13.3,297.91,2,444.82,0s298.07-8,444.82,0C890.16,33.93,782.67,47,685.46,45s-201.19-4.16-297.9,0S185.76,30,93.73,49.07Z"/><path class="cls-3" d="M40.68,85.8c-19,72.11,1.55,164.46-4.08,244.85s2.25,181.07,0,261.18.25,181.64,0,257.1-18.36,168.25,65.3,187.72c80.06,7.26,169.19-2.62,248.93,0s171.64.32,248.93,0,177.93,3.51,248.94,0,174.17,27,195.88-53.06c8.32-55.21-3.35-122.63,0-183.64s-.65-130.46,0-191.8,1.55-131.93,0-191.8,4.81-136,0-191.8S1065,92.58,1016,57.24c-11.18-6.86-19.54-7.47-32.64-8.17-146.75-8-297.91-2-444.82,0s-298.64-13.3-444.82,0c-25.21,5.23-40.6,12.41-53,36.73m502,102c-21.42-9.3-17.26-45.5,8.2-40.76s11.14,41.25-8.2,40.76m281.58-4.08c-8.36,12.65-23.87,26.81-32.65,40.81-5.67-17.1-25-28.2-36.72-40.81,18.44,2,28.73-15.14,36.72-28.56,11.72,7.3,16.41,27.58,32.65,28.56M232.48,204.15c15.8-2,28.77,7,44.89,4.08-2.65,16-22.56,21.34-32.64,32.64,2.77,14.86,9.75,28.77,8.16,44.89-25.26-27.83-51.3-23.3-77.54,0,17.63-33.91,0-58.11-24.48-77.53,36.52,10.16,54.4-19.51,61.21-49,9,13,16.69,28.73,20.4,44.89m200-4.08c3.14,24.81-25.06,1.26,0,0M387.56,379.62C339.49,355.22,282.68,308.74,257,261.28c43,40.4,90.39,75.9,130.59,118.34m281.58-85.69c14.93,4.57,6.2,33.87-10.94,27.17s-1.34-30.93,10.94-27.17m232.61,0c-.37,15.38,11.18,27.05,16.32,40.8,11.39-.53,25,.49,32.65,8.17-29.3,10.08-27.47,32-20.41,57.13-20-17.51-41.13-17.34-61.21,0,6.49-25.34,5.14-49.83-24.48-57.13,27-6.41,47.5-21.14,57.13-49M465.09,391.87c-18.93,17-32.4,37.3-16.32,61.21-12.28-2.49-25.3-10.41-32.65-20.4-13.59,4.57-22.69,17.91-36.72,20.4,15.3-23.51,11.34-47.3-16.33-57.13,9-8.33,24-8.78,36.73-8.16,3.84-11.06,9.79-21.18,12.24-32.65,14.16,18.16,23.55,42,53,36.73M860.94,400c-2,14.65-37.5,39.46-48,50s-35.59,46-50,48c-3.31.45-7.51,0-8.16-4.08-1.64-10,42.44-44.4,50-52s42.15-51.58,52-50c3.55.57,4.49,5.14,4.08,8.16M677.3,506.13c-74.64-11.55-152.95-52.52-224.45-81.62,73,12.08,153.85,50.77,224.45,81.62M383.48,649c-21.75-27,.2-65.25,3.18-98.84S395,474.67,408,444.92c4,65.29-22.16,135.48-24.48,204M730.35,477.57c1,10.52,8.49,18.85,12.24,28.56,11.39-.53,25,.49,32.65,8.16-23.18,8-29.22,28.81-16.32,49-22.16-8.85-39.18-14.4-61.22,0,9.8-21.18-.49-38.52-16.32-53.05,11.84,2.41,20.65-6.49,32.65-4.08,4.49-9.26,4.45-27.22,16.32-28.56M163.11,489.81c27.5,9.38,10.85,60.52-19.06,47.62s-11.22-57.95,19.06-47.62M710,734.66c-.61,5.8,1.87,20.16-8.16,20.41,3.51,7.18,5.71,16.69,8.16,24.48,14-.08,30.93-1.51,40.81,8.16-27.92,11.59-33.3,35.63-20.41,61.22-12.28-2.49-25.3-10.41-32.65-20.41C684,834.48,673,844.4,661,853c-.86-14.53,3.1-27.79,8.16-40.81-10.69-7.72-21.39-17.75-28.57-28.57,28.32,7.55,50.2-13.47,49-40.81,5.72-2.08,8.78,3.31,8.16,8.16.17-.89,3.19-2.85,4.09-4.08-2.7-29.91-2.21-68,4.08-97.94s1.63-68.43,24.48-85.7C723,620.19,712.6,676.47,710,734.66M240.65,591.83c15.22,6.24,4.32,38.2-13.18,29.42s-8.33-38.23,13.18-29.42m697.83,20.4c24.56,8.37,9.18,53.71-17.22,41.71s-11.55-51.54,17.22-41.71M391.64,685.69c14-.08,30.93-1.51,40.81,8.16-13.75,3.63-20.86,17.88-32.65,24.49,2.78,14.85,9.79,28.77,8.16,44.89-24.77-23.71-51.78-20.69-77.53,0,3.87-15,9.22-29.55,12.24-44.89-11.14-8.29-20.57-18.08-32.65-24.49,10-9.34,26.77-8.45,40.81-8.16,6.82-13.22,13.79-26.12,16.32-40.81,13.47,5.27,14.82,28.53,24.49,40.81M644.65,800C568.26,773.67,483.5,760.57,412,726.5c36,2.16,80.8,15.63,118.63,28.28s86.6,14.61,114,45.17m212.21-77.53c7.06,32.65-29.18-1.47,0,0M257,861.17c-15.83,13.3-44.07,25.46-44.89,53.05-7.63-18-19-46.2-44.89-44.89,15.34-12.53,40.93-28.61,44.89-53.05,5.43,20.4,17,47.79,44.89,44.89m677.43,20.4c-24.49-4.85-27.31,26-40.81,32.65a36.41,36.41,0,0,0-32.65-32.65c7.22-12.69,35.75-17.59,32.65-40.81,9.34,12.45,23.34,32.41,40.81,40.81M493.66,906.06c14.77,5.71,5.71,35.13-10.94,27.18S473.83,898.39,493.66,906.06Z"/><path class="cls-4" d="M1044.58,983.59c19.55-72-.74-161.52,4.08-236.69s.65-167,0-240.77,6.61-172.66,0-240.77S1079,95.8,1016,57.24c49,35.34,23.75,111.57,28.57,167.31s-1.55,131.9,0,191.8.65,130.51,0,191.8,3.35,130.8,0,191.8S1052.9,928.38,1044.58,983.59Z"/><path class="cls-5" d="M32.52,110.29c-14.4,140.13,1.8,287.45,0,428.49s-9.59,287.74,0,428.49c2.57,38.08,31.67,66,69.38,69.38-83.66-19.47-65.54-112.27-65.3-187.72s-2.24-177,0-257.1S31,411.05,36.6,330.65,21.71,157.91,40.68,85.8C36.56,93.84,34.68,100.53,32.52,110.29Z"/><path class="cls-6" d="M542.63,187.82c19.34.49,33.63-36.07,8.2-40.76S521.21,178.52,542.63,187.82Z"/><path class="cls-7" d="M824.21,183.74c-16.24-1-20.93-21.26-32.65-28.56-8,13.42-18.28,30.52-36.72,28.56,11.71,12.61,31,23.71,36.72,40.81C800.34,210.55,815.85,196.39,824.21,183.74Z"/><path class="cls-8" d="M232.48,204.15c-3.71-16.16-11.42-31.87-20.4-44.89-6.81,29.46-24.69,59.13-61.21,49,24.44,19.42,42.11,43.62,24.48,77.53,26.24-23.3,52.28-27.83,77.54,0,1.59-16.12-5.39-30-8.16-44.89,10.08-11.3,30-16.6,32.64-32.64C261.25,211.13,248.28,202.19,232.48,204.15Z"/><path class="cls-9" d="M387.56,379.62C347.36,337.18,300,301.68,257,261.28,282.68,308.74,339.49,355.22,387.56,379.62Z"/><path class="cls-10" d="M669.14,293.93c-12.28-3.76-28.08,20.48-10.94,27.17S684.07,298.5,669.14,293.93Z"/><path class="cls-11" d="M901.75,293.93c-9.63,27.83-30.16,42.56-57.13,49,29.62,7.3,31,31.79,24.48,57.13,20.08-17.34,41.22-17.51,61.21,0-7.06-25.18-8.89-47,20.41-57.13-7.67-7.68-21.26-8.7-32.65-8.17C912.93,321,901.38,309.31,901.75,293.93Z"/><path class="cls-12" d="M465.09,391.87c-29.5,5.3-38.89-18.57-53-36.73-2.45,11.47-8.4,21.59-12.24,32.65-12.77-.62-27.75-.17-36.73,8.16,27.67,9.83,31.63,33.62,16.33,57.13,14-2.49,23.13-15.83,36.72-20.4,7.35,10,20.37,17.91,32.65,20.4C432.69,429.17,446.16,408.88,465.09,391.87Z"/><path class="cls-13" d="M754.84,493.89c.4-7.35,27.62-23.43,33.66-31.63s26-29,34.69-34.69,26.08-35.29,33.67-35.7c-9.88-1.59-44.48,42.36-52,50S753.2,483.85,754.84,493.89Z"/><path class="cls-14" d="M754.84,493.89c.65,4.08,4.85,4.53,8.16,4.08,13.47-4.57,37-39.05,48-50s45.54-34.81,50-48c.41-3-.53-7.59-4.08-8.16-7.59.41-25,30-33.67,35.7S794.54,454,788.5,462.26,755.24,486.54,754.84,493.89Z"/><path class="cls-15" d="M763,498c14.4-2,39.54-37.42,50-48s46-35.34,48-50c-4.45,13.14-39,37-50,48S776.47,493.4,763,498Z"/><path class="cls-16" d="M677.3,506.13c-70.6-30.85-151.4-69.54-224.45-81.62C524.35,453.61,602.66,494.58,677.3,506.13Z"/><path class="cls-17" d="M383.48,649C385.8,580.4,412,510.21,408,444.92c-12.93,29.75-18.36,71.62-21.3,105.2S361.73,622,383.48,649Z"/><path class="cls-7" d="M730.35,477.57c-11.87,1.34-11.83,19.3-16.32,28.56-12-2.41-20.81,6.49-32.65,4.08,15.83,14.53,26.12,31.87,16.32,53.05,22-14.4,39.06-8.85,61.22,0-12.9-20.16-6.86-41,16.32-49-7.67-7.67-21.26-8.69-32.65-8.16C738.84,496.42,731.33,488.09,730.35,477.57Z"/><path class="cls-18" d="M163.11,489.81c-30.28-10.33-49,34.73-19.06,47.62S190.61,499.19,163.11,489.81Z"/><path class="cls-19" d="M701.79,746.9c1.67-2.32,7.55-9.83,8.16-12.24,2.65-58.19,13.06-114.47,20.4-171.4C707.5,580.53,712.15,619,705.87,649S699.09,717,701.79,746.9Z"/><path class="cls-20" d="M240.65,591.83C219.14,583,210,612.52,227.47,621.25S255.87,598.07,240.65,591.83Z"/><path class="cls-21" d="M938.48,612.23c-28.77-9.83-43.67,29.67-17.22,41.71S963,620.6,938.48,612.23Z"/><path class="cls-22" d="M391.64,685.69c-9.67-12.28-11-35.54-24.49-40.81-2.53,14.69-9.5,27.59-16.32,40.81-14-.29-30.77-1.18-40.81,8.16,12.08,6.41,21.51,16.2,32.65,24.49-3,15.34-8.37,29.91-12.24,44.89,25.75-20.69,52.76-23.71,77.53,0,1.63-16.12-5.38-30-8.16-44.89,11.79-6.61,18.9-20.86,32.65-24.49C422.57,684.18,405.64,685.61,391.64,685.69Z"/><path class="cls-23" d="M644.65,800c-27.38-30.56-76.11-32.56-114-45.17S448,728.66,412,726.5C483.5,760.57,568.26,773.67,644.65,800Z"/><path class="cls-24" d="M701.79,746.9c-.9,1.23-3.92,3.19-4.09,4.08.62,1.39,3.55,3,4.09,4.09,10-.25,7.55-14.61,8.16-20.41C709.34,737.07,703.46,744.58,701.79,746.9Z"/><path class="cls-8" d="M701.79,755.07c-.54-1.11-3.47-2.7-4.09-4.09.62-4.85-2.44-10.24-8.16-8.16,1.23,27.34-20.65,48.36-49,40.81,7.18,10.82,17.88,20.85,28.57,28.57-5.06,13-9,26.28-8.16,40.81,12-8.61,23-18.53,36.72-24.49,7.35,10,20.37,17.92,32.65,20.41-12.89-25.59-7.51-49.63,20.41-61.22-9.88-9.67-26.82-8.24-40.81-8.16C707.5,771.76,705.3,762.25,701.79,755.07Z"/><path class="cls-25" d="M257,861.17c-27.91,2.9-39.46-24.49-44.89-44.89-4,24.44-29.55,40.52-44.89,53.05,25.91-1.31,37.26,26.85,44.89,44.89C212.9,886.63,241.14,874.47,257,861.17Z"/><path class="cls-26" d="M934.4,881.57c-17.47-8.4-31.47-28.36-40.81-40.81,3.1,23.22-25.43,28.12-32.65,40.81a36.41,36.41,0,0,1,32.65,32.65C907.09,907.53,909.91,876.72,934.4,881.57Z"/><path class="cls-27" d="M493.66,906.06c-19.83-7.67-27.59,19.26-10.94,27.18S508.43,911.77,493.66,906.06Z"/><path class="cls-28" d="M93.73,49.07c146.18-13.3,297.91,2,444.82,0s298.07-8,444.82,0C890.16,33.93,782.67,47,685.46,45s-201.19-4.16-297.9,0S185.76,30,93.73,49.07Z"/><path class="cls-29" d="M40.68,85.8c-19,72.11,1.55,164.46-4.08,244.85s2.25,181.07,0,261.18.25,181.64,0,257.1-18.36,168.25,65.3,187.72c80.06,7.26,169.19-2.62,248.93,0s171.64.32,248.93,0,177.93,3.51,248.94,0,174.17,27,195.88-53.06c8.32-55.21-3.35-122.63,0-183.64s-.65-130.46,0-191.8,1.55-131.93,0-191.8,4.81-136,0-191.8S1065,92.58,1016,57.24c-11.18-6.86-19.54-7.47-32.64-8.17-146.75-8-297.91-2-444.82,0s-298.64-13.3-444.82,0c-25.21,5.23-40.6,12.41-53,36.73m502,102c-21.42-9.3-17.26-45.5,8.2-40.76s11.14,41.25-8.2,40.76m281.58-4.08c-8.36,12.65-23.87,26.81-32.65,40.81-5.67-17.1-25-28.2-36.72-40.81,18.44,2,28.73-15.14,36.72-28.56,11.72,7.3,16.41,27.58,32.65,28.56M232.48,204.15c15.8-2,28.77,7,44.89,4.08-2.65,16-22.56,21.34-32.64,32.64,2.77,14.86,9.75,28.77,8.16,44.89-25.26-27.83-51.3-23.3-77.54,0,17.63-33.91,0-58.11-24.48-77.53,36.52,10.16,54.4-19.51,61.21-49,9,13,16.69,28.73,20.4,44.89m200-4.08c3.14,24.81-25.06,1.26,0,0M387.56,379.62C339.49,355.22,282.68,308.74,257,261.28c43,40.4,90.39,75.9,130.59,118.34m281.58-85.69c14.93,4.57,6.2,33.87-10.94,27.17s-1.34-30.93,10.94-27.17m232.61,0c-.37,15.38,11.18,27.05,16.32,40.8,11.39-.53,25,.49,32.65,8.17-29.3,10.08-27.47,32-20.41,57.13-20-17.51-41.13-17.34-61.21,0,6.49-25.34,5.14-49.83-24.48-57.13,27-6.41,47.5-21.14,57.13-49M465.09,391.87c-18.93,17-32.4,37.3-16.32,61.21-12.28-2.49-25.3-10.41-32.65-20.4-13.59,4.57-22.69,17.91-36.72,20.4,15.3-23.51,11.34-47.3-16.33-57.13,9-8.33,24-8.78,36.73-8.16,3.84-11.06,9.79-21.18,12.24-32.65,14.16,18.16,23.55,42,53,36.73M860.94,400c-2,14.65-37.5,39.46-48,50s-35.59,46-50,48c-3.31.45-7.51,0-8.16-4.08-1.64-10,42.44-44.4,50-52s42.15-51.58,52-50c3.55.57,4.49,5.14,4.08,8.16M677.3,506.13c-74.64-11.55-152.95-52.52-224.45-81.62,73,12.08,153.85,50.77,224.45,81.62M383.48,649c-21.75-27,.2-65.25,3.18-98.84S395,474.67,408,444.92c4,65.29-22.16,135.48-24.48,204M730.35,477.57c1,10.52,8.49,18.85,12.24,28.56,11.39-.53,25,.49,32.65,8.16-23.18,8-29.22,28.81-16.32,49-22.16-8.85-39.18-14.4-61.22,0,9.8-21.18-.49-38.52-16.32-53.05,11.84,2.41,20.65-6.49,32.65-4.08,4.49-9.26,4.45-27.22,16.32-28.56M163.11,489.81c27.5,9.38,10.85,60.52-19.06,47.62s-11.22-57.95,19.06-47.62M710,734.66c-.61,5.8,1.87,20.16-8.16,20.41,3.51,7.18,5.71,16.69,8.16,24.48,14-.08,30.93-1.51,40.81,8.16-27.92,11.59-33.3,35.63-20.41,61.22-12.28-2.49-25.3-10.41-32.65-20.41C684,834.48,673,844.4,661,853c-.86-14.53,3.1-27.79,8.16-40.81-10.69-7.72-21.39-17.75-28.57-28.57,28.32,7.55,50.2-13.47,49-40.81,5.72-2.08,8.78,3.31,8.16,8.16.17-.89,3.19-2.85,4.09-4.08-2.7-29.91-2.21-68,4.08-97.94s1.63-68.43,24.48-85.7C723,620.19,712.6,676.47,710,734.66M240.65,591.83c15.22,6.24,4.32,38.2-13.18,29.42s-8.33-38.23,13.18-29.42m697.83,20.4c24.56,8.37,9.18,53.71-17.22,41.71s-11.55-51.54,17.22-41.71M391.64,685.69c14-.08,30.93-1.51,40.81,8.16-13.75,3.63-20.86,17.88-32.65,24.49,2.78,14.85,9.79,28.77,8.16,44.89-24.77-23.71-51.78-20.69-77.53,0,3.87-15,9.22-29.55,12.24-44.89-11.14-8.29-20.57-18.08-32.65-24.49,10-9.34,26.77-8.45,40.81-8.16,6.82-13.22,13.79-26.12,16.32-40.81,13.47,5.27,14.82,28.53,24.49,40.81M644.65,800C568.26,773.67,483.5,760.57,412,726.5c36,2.16,80.8,15.63,118.63,28.28s86.6,14.61,114,45.17m212.21-77.53c7.06,32.65-29.18-1.47,0,0M257,861.17c-15.83,13.3-44.07,25.46-44.89,53.05-7.63-18-19-46.2-44.89-44.89,15.34-12.53,40.93-28.61,44.89-53.05,5.43,20.4,17,47.79,44.89,44.89m677.43,20.4c-24.49-4.85-27.31,26-40.81,32.65a36.41,36.41,0,0,0-32.65-32.65c7.22-12.69,35.75-17.59,32.65-40.81,9.34,12.45,23.34,32.41,40.81,40.81M493.66,906.06c14.77,5.71,5.71,35.13-10.94,27.18S473.83,898.39,493.66,906.06Z"/><path class="cls-30" d="M1044.58,983.59c19.55-72-.74-161.52,4.08-236.69s.65-167,0-240.77,6.61-172.66,0-240.77S1079,95.8,1016,57.24c49,35.34,23.75,111.57,28.57,167.31s-1.55,131.9,0,191.8.65,130.51,0,191.8,3.35,130.8,0,191.8S1052.9,928.38,1044.58,983.59Z"/><path class="cls-31" d="M32.52,110.29c-14.4,140.13,1.8,287.45,0,428.49s-9.59,287.74,0,428.49c2.57,38.08,31.67,66,69.38,69.38-83.66-19.47-65.54-112.27-65.3-187.72s-2.24-177,0-257.1S31,411.05,36.6,330.65,21.71,157.91,40.68,85.8C36.56,93.84,34.68,100.53,32.52,110.29Z"/><path class="cls-32" d="M542.63,187.82c19.34.49,33.63-36.07,8.2-40.76S521.21,178.52,542.63,187.82Z"/><path class="cls-33" d="M824.21,183.74c-16.24-1-20.93-21.26-32.65-28.56-8,13.42-18.28,30.52-36.72,28.56,11.71,12.61,31,23.71,36.72,40.81C800.34,210.55,815.85,196.39,824.21,183.74Z"/><path class="cls-34" d="M232.48,204.15c-3.71-16.16-11.42-31.87-20.4-44.89-6.81,29.46-24.69,59.13-61.21,49,24.44,19.42,42.11,43.62,24.48,77.53,26.24-23.3,52.28-27.83,77.54,0,1.59-16.12-5.39-30-8.16-44.89,10.08-11.3,30-16.6,32.64-32.64C261.25,211.13,248.28,202.19,232.48,204.15Z"/><path class="cls-35" d="M387.56,379.62C347.36,337.18,300,301.68,257,261.28,282.68,308.74,339.49,355.22,387.56,379.62Z"/><path class="cls-36" d="M669.14,293.93c-12.28-3.76-28.08,20.48-10.94,27.17S684.07,298.5,669.14,293.93Z"/><path class="cls-37" d="M901.75,293.93c-9.63,27.83-30.16,42.56-57.13,49,29.62,7.3,31,31.79,24.48,57.13,20.08-17.34,41.22-17.51,61.21,0-7.06-25.18-8.89-47,20.41-57.13-7.67-7.68-21.26-8.7-32.65-8.17C912.93,321,901.38,309.31,901.75,293.93Z"/><path class="cls-38" d="M465.09,391.87c-29.5,5.3-38.89-18.57-53-36.73-2.45,11.47-8.4,21.59-12.24,32.65-12.77-.62-27.75-.17-36.73,8.16,27.67,9.83,31.63,33.62,16.33,57.13,14-2.49,23.13-15.83,36.72-20.4,7.35,10,20.37,17.91,32.65,20.4C432.69,429.17,446.16,408.88,465.09,391.87Z"/><path class="cls-39" d="M754.84,493.89c.4-7.35,27.62-23.43,33.66-31.63s26-29,34.69-34.69,26.08-35.29,33.67-35.7c-9.88-1.59-44.48,42.36-52,50S753.2,483.85,754.84,493.89Z"/><path class="cls-40" d="M754.84,493.89c.65,4.08,4.85,4.53,8.16,4.08,13.47-4.57,37-39.05,48-50s45.54-34.81,50-48c.41-3-.53-7.59-4.08-8.16-7.59.41-25,30-33.67,35.7S794.54,454,788.5,462.26,755.24,486.54,754.84,493.89Z"/><path class="cls-41" d="M763,498c14.4-2,39.54-37.42,50-48s46-35.34,48-50c-4.45,13.14-39,37-50,48S776.47,493.4,763,498Z"/><path class="cls-42" d="M677.3,506.13c-70.6-30.85-151.4-69.54-224.45-81.62C524.35,453.61,602.66,494.58,677.3,506.13Z"/><path class="cls-43" d="M383.48,649C385.8,580.4,412,510.21,408,444.92c-12.93,29.75-18.36,71.62-21.3,105.2S361.73,622,383.48,649Z"/><path class="cls-33" d="M730.35,477.57c-11.87,1.34-11.83,19.3-16.32,28.56-12-2.41-20.81,6.49-32.65,4.08,15.83,14.53,26.12,31.87,16.32,53.05,22-14.4,39.06-8.85,61.22,0-12.9-20.16-6.86-41,16.32-49-7.67-7.67-21.26-8.69-32.65-8.16C738.84,496.42,731.33,488.09,730.35,477.57Z"/><path class="cls-44" d="M163.11,489.81c-30.28-10.33-49,34.73-19.06,47.62S190.61,499.19,163.11,489.81Z"/><path class="cls-45" d="M701.79,746.9c1.67-2.32,7.55-9.83,8.16-12.24,2.65-58.19,13.06-114.47,20.4-171.4C707.5,580.53,712.15,619,705.87,649S699.09,717,701.79,746.9Z"/><path class="cls-46" d="M240.65,591.83C219.14,583,210,612.52,227.47,621.25S255.87,598.07,240.65,591.83Z"/><path class="cls-47" d="M938.48,612.23c-28.77-9.83-43.67,29.67-17.22,41.71S963,620.6,938.48,612.23Z"/><path class="cls-48" d="M391.64,685.69c-9.67-12.28-11-35.54-24.49-40.81-2.53,14.69-9.5,27.59-16.32,40.81-14-.29-30.77-1.18-40.81,8.16,12.08,6.41,21.51,16.2,32.65,24.49-3,15.34-8.37,29.91-12.24,44.89,25.75-20.69,52.76-23.71,77.53,0,1.63-16.12-5.38-30-8.16-44.89,11.79-6.61,18.9-20.86,32.65-24.49C422.57,684.18,405.64,685.61,391.64,685.69Z"/><path class="cls-49" d="M644.65,800c-27.38-30.56-76.11-32.56-114-45.17S448,728.66,412,726.5C483.5,760.57,568.26,773.67,644.65,800Z"/><path class="cls-50" d="M701.79,746.9c-.9,1.23-3.92,3.19-4.09,4.08.62,1.39,3.55,3,4.09,4.09,10-.25,7.55-14.61,8.16-20.41C709.34,737.07,703.46,744.58,701.79,746.9Z"/><path class="cls-34" d="M701.79,755.07c-.54-1.11-3.47-2.7-4.09-4.09.62-4.85-2.44-10.24-8.16-8.16,1.23,27.34-20.65,48.36-49,40.81,7.18,10.82,17.88,20.85,28.57,28.57-5.06,13-9,26.28-8.16,40.81,12-8.61,23-18.53,36.72-24.49,7.35,10,20.37,17.92,32.65,20.41-12.89-25.59-7.51-49.63,20.41-61.22-9.88-9.67-26.82-8.24-40.81-8.16C707.5,771.76,705.3,762.25,701.79,755.07Z"/><path class="cls-51" d="M257,861.17c-27.91,2.9-39.46-24.49-44.89-44.89-4,24.44-29.55,40.52-44.89,53.05,25.91-1.31,37.26,26.85,44.89,44.89C212.9,886.63,241.14,874.47,257,861.17Z"/><path class="cls-52" d="M934.4,881.57c-17.47-8.4-31.47-28.36-40.81-40.81,3.1,23.22-25.43,28.12-32.65,40.81a36.41,36.41,0,0,1,32.65,32.65C907.09,907.53,909.91,876.72,934.4,881.57Z"/><path class="cls-53" d="M493.66,906.06c-19.83-7.67-27.59,19.26-10.94,27.18S508.43,911.77,493.66,906.06Z"/></svg>