<svg id="Layer_1" data-name="Layer 1" xmlns="http://www.w3.org/2000/svg" viewBox="0 0 1080 1080"><defs><style>.cls-1{fill:#0c1523;}.cls-10,.cls-11,.cls-12,.cls-13,.cls-14,.cls-15,.cls-16,.cls-17,.cls-18,.cls-19,.cls-2,.cls-20,.cls-21,.cls-22,.cls-23,.cls-24,.cls-25,.cls-26,.cls-27,.cls-28,.cls-29,.cls-3,.cls-30,.cls-31,.cls-32,.cls-33,.cls-34,.cls-35,.cls-36,.cls-37,.cls-38,.cls-39,.cls-4,.cls-40,.cls-41,.cls-42,.cls-43,.cls-44,.cls-45,.cls-46,.cls-47,.cls-48,.cls-49,.cls-5,.cls-50,.cls-51,.cls-52,.cls-53,.cls-54,.cls-55,.cls-56,.cls-6,.cls-7,.cls-8,.cls-9{fill:none;stroke-width:1.22px;}.cls-2{stroke:#0f1217;}.cls-3{stroke:#0c1523;}.cls-4{stroke:#f2bb39;}.cls-5{stroke:#e8aa47;}.cls-6{stroke:#e4e4e4;}.cls-7{stroke:#cfadb3;}.cls-8{stroke:#e7b8a7;}.cls-9{stroke:#776668;}.cls-10{stroke:#fdf1ba;}.cls-11{stroke:#191f24;}.cls-12{stroke:#252624;}.cls-13{stroke:#a894c7;}.cls-14{stroke:#312d24;}.cls-15{stroke:#1f1e1e;}.cls-16{stroke:#3c3525;}.cls-17{stroke:#524023;}.cls-18{stroke:#705c25;}.cls-19{stroke:#5a4623;}.cls-20{stroke:#1b2026;}.cls-21{stroke:#8b6527;}.cls-22{stroke:#876026;}.cls-23{stroke:#2a2925;}.cls-24{stroke:#b37d2b;}.cls-25{stroke:#ba802b;}.cls-26{stroke:#2d2a23;}.cls-27{stroke:#5c4726;}.cls-28{stroke:#5c4623;}.cls-29{stroke:#876226;}.cls-30{stroke:#9d712a;}.cls-31{stroke:#a9772b;}.cls-32{stroke:#6d5b2d;}.cls-33{stroke:#352818;}.cls-34{stroke:#202016;}.cls-35{stroke:#9c762e;}.cls-36{stroke:#a5762b;}.cls-37{stroke:#171d24;}.cls-38{stroke:#191f22;}.cls-39{stroke:#333028;}.cls-40{stroke:#363127;}.cls-41{stroke:#634d29;}.cls-42{stroke:#926928;}.cls-43{stroke:#9c6c29;}.cls-44{stroke:#715126;}.cls-45{stroke:#996c29;}.cls-46{stroke:#966627;}.cls-47{stroke:#6d5125;}.cls-48{stroke:#684e25;}.cls-49{stroke:#333029;}.cls-50{stroke:#363328;}.cls-51{stroke:#e5e5e5;}.cls-52{stroke:#e8e1da;}.cls-53{stroke:#cbaed2;}.cls-54{stroke:#d49542;}.cls-55{stroke:#8f8cc4;}.cls-56{stroke:#e9b775;}.cls-57{fill:#0f1217;}.cls-58{fill:#f2bb39;}.cls-59{fill:#e8aa47;}.cls-60{fill:#e4e4e4;}.cls-61{fill:#cfadb3;}.cls-62{fill:#e7b8a7;}.cls-63{fill:#776668;}.cls-64{fill:#fdf1ba;}.cls-65{fill:#191f24;}.cls-66{fill:#252624;}.cls-67{fill:#a894c7;}.cls-68{fill:#312d24;}.cls-69{fill:#1f1e1e;}.cls-70{fill:#3c3525;}.cls-71{fill:#524023;}.cls-72{fill:#705c25;}.cls-73{fill:#5a4623;}.cls-74{fill:#1b2026;}.cls-75{fill:#8b6527;}.cls-76{fill:#876026;}.cls-77{fill:#2a2925;}.cls-78{fill:#b37d2b;}.cls-79{fill:#ba802b;}.cls-80{fill:#2d2a23;}.cls-81{fill:#5c4726;}.cls-82{fill:#5c4623;}.cls-83{fill:#876226;}.cls-84{fill:#9d712a;}.cls-85{fill:#a9772b;}.cls-86{fill:#6d5b2d;}.cls-87{fill:#352818;}.cls-88{fill:#202016;}.cls-89{fill:#9c762e;}.cls-90{fill:#a5762b;}.cls-91{fill:#171d24;}.cls-92{fill:#191f22;}.cls-93{fill:#333028;}.cls-94{fill:#363127;}.cls-95{fill:#634d29;}.cls-96{fill:#926928;}.cls-97{fill:#9c6c29;}.cls-98{fill:#715126;}.cls-99{fill:#996c29;}.cls-100{fill:#966627;}.cls-101{fill:#6d5125;}.cls-102{fill:#684e25;}.cls-103{fill:#333029;}.cls-104{fill:#363328;}.cls-105{fill:#e5e5e5;}.cls-106{fill:#e8e1da;}.cls-107{fill:#cbaed2;}.cls-108{fill:#d49542;}.cls-109{fill:#8f8cc4;}.cls-110{fill:#e9b775;}</style></defs><title>avatar-stars-2</title><rect class="cls-1" width="1080" height="1080"/><path class="cls-2" d="M35.17,992c14.94.81,14.89-43.67,4.08-16.33-9.79-90.72-.9-175.88-4.08-269.34s4.57-176.9,0-273.41,8.85-175,0-277.5,82.15-110.76,171.4-102,187.8-4.69,277.5,0,184.7-3.63,273.41,0,181.4-8.53,261.18,8.17c-50.4-41.38-138.34-7.64-204-16.33s-147.69,5.06-216.29,0S451.26,50,382,45.26s-148.38,7.72-216.28,0S27.17,54.36,31.09,131s-3,142.67,0,216.29-4.21,144.58,0,216.28-8.12,146.79,0,216.29S11.7,927.63,35.17,992Z"/><path class="cls-3" d="M35.17,992c26.28,72.15,123.28,39,187.72,44.89s158.17-3.8,228.53,0,156.17-4.25,228.53,0,161.27-7.39,232.61,0,140.91-10.17,138.75-89.78,1.79-151.45,0-228.53,2.61-157.85,0-232.61,5.26-157.61,0-228.53S1076,108.72,1018.66,61.59c-79.78-16.7-172.46-4.53-261.18-8.17s-183.72,4.7-273.41,0-188.26,8.74-277.5,0S26.31,53,35.17,155.45s-4.57,181,0,277.5-3.18,180,0,273.41S29.46,885,39.25,975.7c10.81-27.34,10.86,17.14-4.08,16.33M577.93,335c.53-3.18,7.67-10.44,4.08-16.32,34.07,9.88,90.1,14.12,97.94,65.29,1.51-.89,4.08,0,4.08,0,2.65-16.07,20.12-18.93,32.65-24.48-8.94,9.1-12.78,22.65-24.49,28.57-3.26,3.59-5.3,7.87-8.16,12.24-.94.73,14.4-3,16.32-8.16C704,415.4,724.27,423.36,741.16,437c-11.34,18.85,16.32,59.21,49,53.05-10.65,11.3-34.52-3.31-44.89,8.16,9.76-1.06,17.71,2.9,24.49,4.08,39.62,3,78.11,11.43,118.34,12.24,17.71.37,61.62-4.36,73.46,8.16,14.61,5.6-10.29,7.76-12.24,8.17-57.5,12.2-121.45,13.55-179.56,20.4,5.1.53,19.91,4.82,24.48,8.16-28.81,3-21.38,39.79-45.91,56.11s-30.52,45.34-47.95,66.32c-38.07-8.65-66.6,60.84-102,40.81-6,6.08-11.18,15.42-12.24,24.48-7.88-2.85.61-19-12.24-16.32-8.49,76.07-14.78,155.36-28.57,228.53-11.47-68.8-15.71-139.69-28.57-208.13-.69,3.39-7.55,10.29-4.08,16.33-17.34-21.35-52-5.39-57.13-36.73-10.16,14.81-28-6-36.4-12.57s-38-3.79-33-20.08c-9.79-.2-16.48,8-24.48,12.25,5.84-13.51,9.47-22.65,20.4-28.57-43.29-23.59-48-89-85.69-122.43,5.1-8.73,33.62.82,16.32-12.24-56.19-6.28-115.08-16.2-171.4-16.32-4.28,0-12.4,1.59-16.32,0-21.43-8.61,30.48-8.12,28.56-8.17,73-5.14,147.49-20.4,220.37-28.56-9.18-.7-24.65-7.92-36.73-4.08,6.57-8.45,16.53-3.63,24.49-8.16-6.33-28.81,24.24-54.85,44.89-73.46,5.67,4,9.63,23.91,16.32,16.32-10.2-14.16-18.81-34.36-28.56-49,12.08,8.9,23,18.49,36.72,24.49.62.81-2.89-14.33-8.16-16.33,22-19.54,57.62-57.05,89.78-32.64,12.57-74.31,20-150.06,32.65-224.45,14.65,66.44,18.2,141.85,32.65,208.12M296.35,159.53c28.77,7.59,14.07,60.84-16.33,49s-14.81-57.18,16.33-49m501.94,8.16c.74,29,21.26,56.72,53.05,53.05C830.25,236.08,798,250.2,798.29,286c-11.06-26.24-24.36-55.78-57.13-61.21,30-4.37,48.11-31.18,57.13-57.13m-404,85.7c9.63,5.3,2.73,23.79-9.1,17.18s1.75-21.22,9.1-17.18M198.4,318.68c-13.63,18.41-22.48,8.49-36.72-4.08,1.67-10.9,13.38-23.14,24.48-24.49,17.88,1.51,18.08,20.65,12.24,28.57m718.24,32.65c12.12,7,1.26,30.81-13.14,21.3s2.69-27.3,13.14-21.3M794.21,694.12c-2.24-32.93,33.1,2,0,0M247.37,690c-.65,28.4,26.69,43.87,49,49-28.12,3.71-45.1,25.14-53.06,49-4.44-26.65-24.81-43.83-49-49,26.49-5.71,43.18-24.89,53.05-49M924.8,718.61c6.77,12.73,15.75,22,28.57,28.56-11.47,9.76-22.57,21.75-32.65,32.65a48.24,48.24,0,0,0-28.57-28.57c6.7-10.81,21.55-26.28,32.65-32.64m-204,77.53c12.73,7.63-.62,32.69-15,23.14s1.26-31.38,15-23.14m-575.41,49c17,6.45,6.29,36.41-12.24,28.57s-2.65-34.24,12.24-28.57m212.21,16.33c12.36,4.28,3.67,30-11,23s-8.41-29.75,11-23m473.38,20.4c27.67,5.14,24.32,55.09-6.9,51.58S797.93,875.68,830.94,881.84Z"/><path class="cls-4" d="M512.63,351.33c-1.67,9.87-2.49,18.65-4.08,28.56s-2.45,18.61-4.08,28.57a14.62,14.62,0,0,0,0,4.08v4.08c-2.77,7.88-6,15.35-4.08,24.49-11.92-.53-26.28-5.88-32.65-16.33-1.43-.12-3.22-3.95-4.08-4.08-6-.94-4-2-8.16-4.08-9.51-4.69-16.24-10.2-24.49-16.32-13.67-6-24.64-15.59-36.72-24.49,9.75,14.61,18.36,34.81,28.56,49,3.68,5.1,8.86,11.59,12.25,16.33,2.85,4,5.55,8.28,8.16,12.24,3.22,4.82,5.38,6.65,8.16,12.24,2.24,4.57,10.08,9.14,8.16,16.33-8.12,1.14-15.43,6-24.48,4.08-5.72,1.26-10.25,3.51-16.33,4.08-2,.2-6.24-.45-8.16,0-12.28,2.85-23.67,2.61-36.73,4.08-72.88,8.16-147.4,23.42-220.37,28.56-5.38.37-11-.65-16.32,0,1.47.78,3.14,7.8,4.08,8.17,56.32.12,115.21,10,171.4,16.32,24.36,2.73,49.21,8.53,73.45,12.24,10.25,1.55,18.7,1.8,28.57,4.08,1.92.45,6.12,0,8.16,0,12.94.33,23.39,5.31,36.73,4.08-1.35,13.59-10.16,28.16-20.4,36.73-1.11.82-3.55,3-4.08,4.08-4.58,9.35-10.78,16.33-16.33,24.49-9.22,13.59-19.38,31.22-28.56,44.89C412.41,664.74,432,646.38,455.5,637c3.63-3.31,7.71-5.39,12.24-8.16,1.72-1.06,6.41-2.9,8.16-4.08,7.06-4.86,12.74-16,24.49-12.25-2.41,9.27,3.47,15.92,4.08,24.49.41,4-.57,8.24,0,12.24,1.63,11.88,2.61,24.16,4.08,36.73,2.53,21.3,5.55,43.22,8.16,65.29,12.86,68.44,17.1,139.33,28.57,208.13,13.79-73.17,20.08-152.46,28.57-228.53,1.46-13.18,6.32-27.79,8.16-40.81,2-14,2.49-26.89,4.08-40.81.77-6.69,2.9-11.75,4.08-16.32,1.67-6.37-1.27-13.92,0-20.41,10.53-1,23.91,1.84,28.56,12.25.78.53,7.06,3.42,8.17,4.08,6.28,3.63,11.14,8.77,16.32,12.24,16.45,11,37.22,19.18,53,32.65-3.35-16.86-21.18-28-24.48-44.89-4.53-6.7-11.55-18.41-16.33-24.49-1.79-2.28-6.16-5.91-8.16-8.16-7.18-8-15.79-16.4-16.32-28.57,12,2.74,21.14-4.44,32.64-4.08,2-.24,6.25.45,8.17,0,9.55-2.2,18.48-2.49,28.56-4.08,22.86-3.63,45.79-5.38,69.38-8.16,58.11-6.85,122.06-8.2,179.56-20.4.65-.25-1-6.9,0-8.17-19.71-.65-43.59-6-61.22-8.16-40.23-.81-78.72-9.22-118.34-12.24a284.85,284.85,0,0,1-28.57-4.08c-11.43-.29-21.22-2.61-32.65-4.08-10.08-1.31-18.85-2.74-28.56-4.08-4-.57-8.25.57-12.24,0-30-4.12-45.63-10.53-20.41-36.73,1-1.06,3.43-3,4.08-4.08,3.35-5.8,3-7.35,8.16-12.24,7.55-11,17.14-25.51,24.49-36.73,2.86-4.37,4.9-8.65,8.16-12.24,2.69-4.17,6.37-7.72,8.16-12.25C692.92,373.57,690.27,383,684,384c-2.41,7.47-10.49,8.78-16.32,12.25-9,5.34-20.78,10.73-28.57,16.32-5.18,5.51-6.12,4.65-12.24,8.16-1.11.66-2.94,3.15-4.08,4.08A71.14,71.14,0,0,1,610.57,433c-5.75,3.18-11.46,11.26-20.4,8.16-.29-9.84,1.79-20.2-4.08-28.57-.9-1.55,0-4.08,0-4.08,0-4,.41-8.28,0-12.24-.57-5.8-2.86-10.45-4.08-16.33-3.1-14.89-2.21-29.42-4.08-44.89-14.45-66.27-18-141.68-32.65-208.12C532.63,201.27,525.2,277,512.63,351.33m36.73-40.81c-2.29,59.42,6.9,115.9,20.4,171.4,28.37-8,45.42-42,73.46-49-17.63,22.56-42.69,41-49,69.37,56.85,18.12,118.88,16.94,179.56,20.4-58.52,7.51-121.29,11.06-179.56,24.49,4.33,28.44,35.91,43.71,44.89,69.37-22.12-16.85-43.38-36.07-69.38-44.88-18.89,58.07-17.91,124-24.48,183.63-7.88-61.25-3.63-125.77-24.49-183.63-26.36,7.87-44.89,33.87-69.37,44.88,16.16-23.58,38.44-43.21,49-69.37-55.66-6.94-109.45-21.91-167.32-20.4,53.54-11.68,115.66-5.35,167.32-28.57-9.59-25.95-38.16-41.09-49-65.29,22.44,15.3,45.05,32,65.29,49C540.83,430.42,537.2,365.08,549.36,310.52Z"/><path class="cls-5" d="M296.35,159.53c-31.14-8.21-46.77,37.09-16.33,49S325.12,167.12,296.35,159.53Z"/><path class="cls-6" d="M798.29,167.69c-9,25.95-27.09,52.76-57.13,57.13,32.77,5.43,46.07,35,57.13,61.21-.28-35.83,32-49.95,53.05-65.29C819.55,224.41,799,196.66,798.29,167.69Z"/><path class="cls-7" d="M394.29,253.39c-7.35-4-20.94,10.57-9.1,17.18S403.92,258.69,394.29,253.39Z"/><path class="cls-8" d="M198.4,318.68c6.49-14-5.46-17-12.24-28.57-11.1,1.35-22.81,13.59-24.48,24.49C175.92,327.17,184.77,337.09,198.4,318.68Z"/><path class="cls-9" d="M198.4,318.68c5.84-7.92,5.64-27.06-12.24-28.57C192.94,301.7,204.89,304.64,198.4,318.68Z"/><path class="cls-10" d="M549.36,310.52c-12.16,54.56-8.53,119.9-32.65,171.4-20.24-16.94-42.85-33.67-65.29-49,10.81,24.2,39.38,39.34,49,65.29-51.66,23.22-113.78,16.89-167.32,28.57,57.87-1.51,111.66,13.46,167.32,20.4-10.53,26.16-32.81,45.79-49,69.37,24.48-11,43-37,69.37-44.88,20.86,57.86,16.61,122.38,24.49,183.63,6.57-59.62,5.59-125.56,24.48-183.63,26,8.81,47.26,28,69.38,44.88-9-25.66-40.56-40.93-44.89-69.37,58.27-13.43,121-17,179.56-24.49-60.68-3.46-122.71-2.28-179.56-20.4,6.28-28.4,31.34-46.81,49-69.37-28,7-45.09,40.93-73.46,49C556.26,426.42,547.07,369.94,549.36,310.52Z"/><path class="cls-11" d="M577.93,335c1.87,15.47,1,30,4.08,44.89,0-3.34,8.28-14.07,4.08-20.4,30.44-2.12,52.31,19.14,77.53,32.65-9.59,4.16-19.79,10.53-24.48,20.4,7.79-5.59,19.55-11,28.57-16.32,4.28-3.31,7.71-9.59,12.24-12.25-7.84-51.17-63.87-55.41-97.94-65.29C585.6,324.56,578.46,331.82,577.93,335Z"/><path class="cls-12" d="M431,400.3c8.25,6.12,15,11.63,24.49,16.32,1.31,1.84.24-11.34-4.08-12.24,19.67-5.27,30.2-31.34,49-36.73,6.81,1,.69,11.63,8.16,12.24,1.59-9.91,2.41-18.69,4.08-28.56-32.16-24.41-67.82,13.1-89.78,32.64C428.12,386,431.63,401.11,431,400.3Z"/><path class="cls-13" d="M916.64,351.33c-10.45-6-27.59,11.79-13.14,21.3S928.76,358.31,916.64,351.33Z"/><path class="cls-14" d="M582,379.89c1.22,5.88,3.51,10.53,4.08,16.33.45-2.17,7.38-7.47,4.08-12.25,12.65,11,46.36,13.59,36.73,36.73,6.12-3.51,7.06-2.65,12.24-8.16,4.69-9.87,14.89-16.24,24.48-20.4-25.22-13.51-47.09-34.77-77.53-32.65C590.29,365.82,582,376.55,582,379.89Z"/><path class="cls-15" d="M684,384c6.24-1,8.89-10.4,16.32-8.16-1.79,4.53-5.47,8.08-8.16,12.25,11.71-5.92,15.55-19.47,24.49-28.57C704.15,365,686.68,367.9,684,384Z"/><path class="cls-16" d="M455.5,416.62c4.12,2,2.16,3.14,8.16,4.08,1.59-16.57,19.1-32.15,36.73-32.64,1.59,6.4-3.84,17.22,4.08,20.4,1.63-10,2.49-18.61,4.08-28.57-7.47-.61-1.35-11.26-8.16-12.24-18.77,5.39-29.3,31.46-49,36.73C455.74,405.28,456.81,418.46,455.5,416.62Z"/><path class="cls-17" d="M586.09,396.22c.41,4,0,8.24,0,12.24,10.12-6,22.16-3.26,32.64,0,1.15,5.22-3.1,14.28,4.09,16.32,1.14-.93,3-3.42,4.08-4.08,9.63-23.14-24.08-25.75-36.73-36.73C593.47,388.75,586.54,394.05,586.09,396.22Z"/><path class="cls-18" d="M667.71,396.22c5.83-3.47,13.91-4.78,16.32-12.25,0,0-2.57-.89-4.08,0C675.42,386.63,672,392.91,667.71,396.22Z"/><path class="cls-19" d="M463.66,420.7c.86.13,2.65,4,4.08,4.08a22.76,22.76,0,0,0,4.08,0c2.74-15.34,20-29.17,32.65-12.24a14.62,14.62,0,0,1,0-4.08c-7.92-3.18-2.49-14-4.08-20.4C482.76,388.55,465.25,404.13,463.66,420.7Z"/><path class="cls-20" d="M684,400.3c-7.35,11.22-16.94,25.75-24.49,36.73,5.35-5,14.08-8.61,16.33-16.33,27.71,4.37,34.52,57.38,65.29,69.38-10.28,2.28-25.71-4.86-32.65,4.08,11.43,1.47,21.22,3.79,32.65,4.08,2,0,4.08,0,4.08,0,10.37-11.47,34.24,3.14,44.89-8.16-32.65,6.16-60.31-34.2-49-53.05-16.89-13.67-37.13-21.63-40.81-44.89C698.43,397.32,683.09,401,684,400.3Z"/><path class="cls-21" d="M471.82,424.78c5.39,3.88,18.86-9.34,32.65-8.16v-4.08C491.82,395.61,474.56,409.44,471.82,424.78Z"/><path class="cls-22" d="M586.09,408.46s-.9,2.53,0,4.08c9,3.51,33-2,24.48,20.41a71.14,71.14,0,0,0,12.25-8.17c-7.19-2-2.94-11.1-4.09-16.32C608.25,405.2,596.21,402.46,586.09,408.46Z"/><path class="cls-23" d="M373.88,494.16c13.06-1.47,24.45-1.23,36.73-4.08-15.83-12.61,10.41-51.95,24.49-49-3.39-4.74-8.57-11.23-12.25-16.33-6.69,7.59-10.65-12.32-16.32-16.32-20.65,18.61-51.22,44.65-44.89,73.46-8,4.53-17.92-.29-24.49,8.16C349.23,486.24,364.7,493.46,373.88,494.16Z"/><path class="cls-24" d="M610.57,433c8.53-22.45-15.46-16.9-24.48-20.41,5.87,8.37,3.79,18.73,4.08,28.57C599.11,444.21,604.82,436.13,610.57,433Z"/><path class="cls-25" d="M471.82,424.78a22.76,22.76,0,0,1-4.08,0c6.37,10.45,20.73,15.8,32.65,16.33-1.92-9.14,1.31-16.61,4.08-24.49C490.68,415.44,477.21,428.66,471.82,424.78Z"/><path class="cls-26" d="M659.54,437c-5.18,4.89-4.81,6.44-8.16,12.24,16.9-3.22,51.67,31.54,28.57,40.81,9.71,1.34,18.48,2.77,28.56,4.08,6.94-8.94,22.37-1.8,32.65-4.08-30.77-12-37.58-65-65.29-69.38C673.62,428.42,664.89,432,659.54,437Z"/><path class="cls-27" d="M410.61,490.08c1.92-.45,6.12.2,8.16,0,1.23-8.65,5.1-41.3,24.49-36.73-2.61-4-5.31-8.24-8.16-12.24C421,438.13,394.78,477.47,410.61,490.08Z"/><path class="cls-28" d="M647.3,453.35c2.65,4.77,13.88,10.86,16,16.65s-.21,17.79,4.41,20.08c4,.57,8.24-.57,12.24,0,23.1-9.27-11.67-44-28.57-40.81C650.73,450.37,648.32,452.29,647.3,453.35Z"/><path class="cls-29" d="M418.77,490.08c6.08-.57,10.61-2.82,16.33-4.08-15.72-6.17.81-30.49,16.32-20.41-2.78-5.59-4.94-7.42-8.16-12.24C423.87,448.78,420,481.43,418.77,490.08Z"/><path class="cls-30" d="M667.71,490.08c-4.62-2.29-2.33-14.24-4.41-20.08s-13.35-11.88-16-16.65C622.08,479.55,637.71,486,667.71,490.08Z"/><path class="cls-31" d="M435.1,486c9,2,16.36-2.94,24.48-4.08,1.92-7.19-5.92-11.76-8.16-16.33C435.91,455.51,419.38,479.83,435.1,486Z"/><path class="cls-32" d="M769.73,502.32c-6.78-1.18-14.73-5.14-24.49-4.08,0,0-2,0-4.08,0A284.85,284.85,0,0,0,769.73,502.32Z"/><path class="cls-33" d="M949.29,522.72c3.26.13,9.22-1.14,12.24,0-11.84-12.52-55.75-7.79-73.46-8.16C905.7,516.69,929.58,522.07,949.29,522.72Z"/><path class="cls-34" d="M125,530.89c-2.69-8.94,7-7.55,12.24-8.17s10.94.37,16.32,0C155.43,522.77,103.52,522.28,125,530.89Z"/><path class="cls-35" d="M125,530.89c3.92,1.59,12,0,16.32,0-.94-.37-2.61-7.39-4.08-8.17C131.93,523.34,122.26,522,125,530.89Z"/><path class="cls-36" d="M949.29,530.89c2-.41,26.85-2.57,12.24-8.17-3-1.14-9,.13-12.24,0C948.31,524,949.94,530.64,949.29,530.89Z"/><path class="cls-37" d="M516.71,751.25c-2.61-22.07-5.63-44-8.16-65.29-16,23.59-60.89-25.59-69.37-32.65,4.24-5.51,14.24-8.2,16.32-16.32-23.51,9.39-43.09,27.75-65.29,40.81,9.18-13.67,19.34-31.3,28.56-44.89-30.4,9.14-42.64-60.48-65.29-69.38,10.28-2.28,25.71,4.86,32.64-4.08-24.24-3.71-49.09-9.51-73.45-12.24,17.3,13.06-11.22,3.51-16.32,12.24,37.7,33.38,42.4,98.84,85.69,122.43-10.93,5.92-14.56,15.06-20.4,28.57,8-4.21,14.69-12.45,24.48-12.25-5.06,16.29,24.61,13.51,33,20.08s26.24,27.38,36.4,12.57c5.1,31.34,39.79,15.38,57.13,36.73C509.16,761.54,516,754.64,516.71,751.25Z"/><path class="cls-38" d="M700.35,559.45c2.12.41,7.51,7.43,12.24,4.08C702.52,580.8,690,619,671.79,628.83c3.3,16.93,21.13,28,24.48,44.89-15.83-13.47-36.6-21.63-53-32.65,12.94,17.55-3.47,21.67-12.65,36.32S589.52,682.53,582,690c-1.84,13-6.7,27.63-8.16,40.81,12.85-2.69,4.36,13.47,12.24,16.32,1.06-9.06,6.24-18.4,12.24-24.48,35.42,20,63.95-49.46,102-40.81,17.43-21,23.47-50,47.95-66.32s17.1-53.13,45.91-56.11c-4.57-3.34-19.38-7.63-24.48-8.16C746.14,554.07,723.21,555.82,700.35,559.45Z"/><path class="cls-39" d="M418.77,632.91c5.55-8.16,11.75-15.14,16.33-24.49-18.41,1-39.79-37.34-20.41-44.89-9.87-2.28-18.32-2.53-28.57-4.08-6.93,8.94-22.36,1.8-32.64,4.08C376.13,572.43,388.37,642.05,418.77,632.91Z"/><path class="cls-40" d="M671.79,563.53c12.4,9.88-3.84,41.83-16.33,40.81,4.78,6.08,11.8,17.79,16.33,24.49,18.16-9.88,30.73-48,40.8-65.3-4.73,3.35-10.12-3.67-12.24-4.08C690.27,561,681.34,561.33,671.79,563.53Z"/><path class="cls-41" d="M435.1,608.42c.53-1.1,3-3.26,4.08-4.08-3-8.12-9.92-8.93-15.92-16.73s.25-15.51-.41-24.08c-2,0-6.24.45-8.16,0C395.31,571.08,416.69,609.44,435.1,608.42Z"/><path class="cls-42" d="M439.18,604.34c10.24-8.57,19.05-23.14,20.4-36.73-13.34,1.23-23.79-3.75-36.73-4.08.66,8.57-5.63,16.33.41,24.08S436.16,596.22,439.18,604.34Z"/><path class="cls-43" d="M647.3,596.18c-2.16-3.92-4.81-7.34-4.08-12.24,15.59,11.38,18.53-11.39,20.4-20.41-11.5-.36-20.64,6.82-32.64,4.08C631.51,579.78,640.12,588.18,647.3,596.18Z"/><path class="cls-44" d="M647.3,596.18c2,2.25,6.37,5.88,8.16,8.16,12.49,1,28.73-30.93,16.33-40.81-1.92.45-6.17-.24-8.17,0-1.87,9-4.81,31.79-20.4,20.41C642.49,588.84,645.14,592.26,647.3,596.18Z"/><path class="cls-45" d="M475.9,624.75c6.45,2.08-2.65,7.3,0,12.24,8.29,6.2,20.25,5.26,28.57,0-.61-8.57-6.49-15.22-4.08-24.49C488.64,608.79,483,619.89,475.9,624.75Z"/><path class="cls-46" d="M590.17,632.91c2.49,9.47,16.53,12.32,24.48,8.16,1.15-5.22-3.1-14.28,4.08-16.32-4.65-10.41-18-13.23-28.56-12.25C588.9,619,591.84,626.54,590.17,632.91Z"/><path class="cls-47" d="M467.74,628.83c-9.18,15.95,30,41.17,36.73,20.4-.57-4,.41-8.2,0-12.24-8.32,5.26-20.28,6.2-28.57,0-2.65-4.94,6.45-10.16,0-12.24C474.15,625.93,469.46,627.77,467.74,628.83Z"/><path class="cls-48" d="M590.17,632.91c-1.18,4.57-3.31,9.63-4.08,16.32,9.51,23.88,45.83-10.61,40.81-20.4-1.11-.66-7.39-3.55-8.17-4.08-7.18,2-2.93,11.1-4.08,16.32C606.7,645.23,592.66,642.38,590.17,632.91Z"/><path class="cls-49" d="M455.5,637c-2.08,8.12-12.08,10.81-16.32,16.32,8.48,7.06,53.41,56.24,69.37,32.65-1.47-12.57-2.45-24.85-4.08-36.73-6.73,20.77-45.91-4.45-36.73-20.4C463.21,631.6,459.13,633.68,455.5,637Z"/><path class="cls-50" d="M586.09,649.23C584.5,663.15,584,676,582,690c7.51-7.51,39.38,2,48.56-12.65s25.59-18.77,12.65-36.32c-5.18-3.47-10-8.61-16.32-12.24C631.92,638.62,595.6,673.11,586.09,649.23Z"/><path class="cls-51" d="M247.37,690c-9.87,24.08-26.56,43.26-53.05,49,24.16,5.14,44.53,22.32,49,49,8-23.83,24.94-45.26,53.06-49C274.06,733.91,246.72,718.44,247.37,690Z"/><path class="cls-52" d="M924.8,718.61c-11.1,6.36-25.95,21.83-32.65,32.64a48.24,48.24,0,0,1,28.57,28.57c10.08-10.9,21.18-22.89,32.65-32.65C940.55,740.64,931.57,731.34,924.8,718.61Z"/><path class="cls-53" d="M720.76,796.14c-13.72-8.24-29.34,13.59-15,23.14S733.49,803.77,720.76,796.14Z"/><path class="cls-54" d="M145.35,845.11c-14.89-5.67-30.77,20.69-12.24,28.57S162.33,851.56,145.35,845.11Z"/><path class="cls-55" d="M357.56,861.44c-19.43-6.74-25.67,16-11,23S369.92,865.72,357.56,861.44Z"/><path class="cls-56" d="M830.94,881.84c-33-6.16-38.16,48.12-6.9,51.58S858.61,887,830.94,881.84Z"/><path class="cls-57" d="M35.17,992c14.94.81,14.89-43.67,4.08-16.33-9.79-90.72-.9-175.88-4.08-269.34s4.57-176.9,0-273.41,8.85-175,0-277.5,82.15-110.76,171.4-102,187.8-4.69,277.5,0,184.7-3.63,273.41,0,181.4-8.53,261.18,8.17c-50.4-41.38-138.34-7.64-204-16.33s-147.69,5.06-216.29,0S451.26,50,382,45.26s-148.38,7.72-216.28,0S27.17,54.36,31.09,131s-3,142.67,0,216.29-4.21,144.58,0,216.28-8.12,146.79,0,216.29S11.7,927.63,35.17,992Z"/><path class="cls-1" d="M35.17,992c26.28,72.15,123.28,39,187.72,44.89s158.17-3.8,228.53,0,156.17-4.25,228.53,0,161.27-7.39,232.61,0,140.91-10.17,138.75-89.78,1.79-151.45,0-228.53,2.61-157.85,0-232.61,5.26-157.61,0-228.53S1076,108.72,1018.66,61.59c-79.78-16.7-172.46-4.53-261.18-8.17s-183.72,4.7-273.41,0-188.26,8.74-277.5,0S26.31,53,35.17,155.45s-4.57,181,0,277.5-3.18,180,0,273.41S29.46,885,39.25,975.7c10.81-27.34,10.86,17.14-4.08,16.33M577.93,335c.53-3.18,7.67-10.44,4.08-16.32,34.07,9.88,90.1,14.12,97.94,65.29,1.51-.89,4.08,0,4.08,0,2.65-16.07,20.12-18.93,32.65-24.48-8.94,9.1-12.78,22.65-24.49,28.57-3.26,3.59-5.3,7.87-8.16,12.24-.94.73,14.4-3,16.32-8.16C704,415.4,724.27,423.36,741.16,437c-11.34,18.85,16.32,59.21,49,53.05-10.65,11.3-34.52-3.31-44.89,8.16,9.76-1.06,17.71,2.9,24.49,4.08,39.62,3,78.11,11.43,118.34,12.24,17.71.37,61.62-4.36,73.46,8.16,14.61,5.6-10.29,7.76-12.24,8.17-57.5,12.2-121.45,13.55-179.56,20.4,5.1.53,19.91,4.82,24.48,8.16-28.81,3-21.38,39.79-45.91,56.11s-30.52,45.34-47.95,66.32c-38.07-8.65-66.6,60.84-102,40.81-6,6.08-11.18,15.42-12.24,24.48-7.88-2.85.61-19-12.24-16.32-8.49,76.07-14.78,155.36-28.57,228.53-11.47-68.8-15.71-139.69-28.57-208.13-.69,3.39-7.55,10.29-4.08,16.33-17.34-21.35-52-5.39-57.13-36.73-10.16,14.81-28-6-36.4-12.57s-38-3.79-33-20.08c-9.79-.2-16.48,8-24.48,12.25,5.84-13.51,9.47-22.65,20.4-28.57-43.29-23.59-48-89-85.69-122.43,5.1-8.73,33.62.82,16.32-12.24-56.19-6.28-115.08-16.2-171.4-16.32-4.28,0-12.4,1.59-16.32,0-21.43-8.61,30.48-8.12,28.56-8.17,73-5.14,147.49-20.4,220.37-28.56-9.18-.7-24.65-7.92-36.73-4.08,6.57-8.45,16.53-3.63,24.49-8.16-6.33-28.81,24.24-54.85,44.89-73.46,5.67,4,9.63,23.91,16.32,16.32-10.2-14.16-18.81-34.36-28.56-49,12.08,8.9,23,18.49,36.72,24.49.62.81-2.89-14.33-8.16-16.33,22-19.54,57.62-57.05,89.78-32.64,12.57-74.31,20-150.06,32.65-224.45,14.65,66.44,18.2,141.85,32.65,208.12M296.35,159.53c28.77,7.59,14.07,60.84-16.33,49s-14.81-57.18,16.33-49m501.94,8.16c.74,29,21.26,56.72,53.05,53.05C830.25,236.08,798,250.2,798.29,286c-11.06-26.24-24.36-55.78-57.13-61.21,30-4.37,48.11-31.18,57.13-57.13m-404,85.7c9.63,5.3,2.73,23.79-9.1,17.18s1.75-21.22,9.1-17.18M198.4,318.68c-13.63,18.41-22.48,8.49-36.72-4.08,1.67-10.9,13.38-23.14,24.48-24.49,17.88,1.51,18.08,20.65,12.24,28.57m718.24,32.65c12.12,7,1.26,30.81-13.14,21.3s2.69-27.3,13.14-21.3M794.21,694.12c-2.24-32.93,33.1,2,0,0M247.37,690c-.65,28.4,26.69,43.87,49,49-28.12,3.71-45.1,25.14-53.06,49-4.44-26.65-24.81-43.83-49-49,26.49-5.71,43.18-24.89,53.05-49M924.8,718.61c6.77,12.73,15.75,22,28.57,28.56-11.47,9.76-22.57,21.75-32.65,32.65a48.24,48.24,0,0,0-28.57-28.57c6.7-10.81,21.55-26.28,32.65-32.64m-204,77.53c12.73,7.63-.62,32.69-15,23.14s1.26-31.38,15-23.14m-575.41,49c17,6.45,6.29,36.41-12.24,28.57s-2.65-34.24,12.24-28.57m212.21,16.33c12.36,4.28,3.67,30-11,23s-8.41-29.75,11-23m473.38,20.4c27.67,5.14,24.32,55.09-6.9,51.58S797.93,875.68,830.94,881.84Z"/><path class="cls-58" d="M512.63,351.33c-1.67,9.87-2.49,18.65-4.08,28.56s-2.45,18.61-4.08,28.57a14.62,14.62,0,0,0,0,4.08v4.08c-2.77,7.88-6,15.35-4.08,24.49-11.92-.53-26.28-5.88-32.65-16.33-1.43-.12-3.22-3.95-4.08-4.08-6-.94-4-2-8.16-4.08-9.51-4.69-16.24-10.2-24.49-16.32-13.67-6-24.64-15.59-36.72-24.49,9.75,14.61,18.36,34.81,28.56,49,3.68,5.1,8.86,11.59,12.25,16.33,2.85,4,5.55,8.28,8.16,12.24,3.22,4.82,5.38,6.65,8.16,12.24,2.24,4.57,10.08,9.14,8.16,16.33-8.12,1.14-15.43,6-24.48,4.08-5.72,1.26-10.25,3.51-16.33,4.08-2,.2-6.24-.45-8.16,0-12.28,2.85-23.67,2.61-36.73,4.08-72.88,8.16-147.4,23.42-220.37,28.56-5.38.37-11-.65-16.32,0,1.47.78,3.14,7.8,4.08,8.17,56.32.12,115.21,10,171.4,16.32,24.36,2.73,49.21,8.53,73.45,12.24,10.25,1.55,18.7,1.8,28.57,4.08,1.92.45,6.12,0,8.16,0,12.94.33,23.39,5.31,36.73,4.08-1.35,13.59-10.16,28.16-20.4,36.73-1.11.82-3.55,3-4.08,4.08-4.58,9.35-10.78,16.33-16.33,24.49-9.22,13.59-19.38,31.22-28.56,44.89C412.41,664.74,432,646.38,455.5,637c3.63-3.31,7.71-5.39,12.24-8.16,1.72-1.06,6.41-2.9,8.16-4.08,7.06-4.86,12.74-16,24.49-12.25-2.41,9.27,3.47,15.92,4.08,24.49.41,4-.57,8.24,0,12.24,1.63,11.88,2.61,24.16,4.08,36.73,2.53,21.3,5.55,43.22,8.16,65.29,12.86,68.44,17.1,139.33,28.57,208.13,13.79-73.17,20.08-152.46,28.57-228.53,1.46-13.18,6.32-27.79,8.16-40.81,2-14,2.49-26.89,4.08-40.81.77-6.69,2.9-11.75,4.08-16.32,1.67-6.37-1.27-13.92,0-20.41,10.53-1,23.91,1.84,28.56,12.25.78.53,7.06,3.42,8.17,4.08,6.28,3.63,11.14,8.77,16.32,12.24,16.45,11,37.22,19.18,53,32.65-3.35-16.86-21.18-28-24.48-44.89-4.53-6.7-11.55-18.41-16.33-24.49-1.79-2.28-6.16-5.91-8.16-8.16-7.18-8-15.79-16.4-16.32-28.57,12,2.74,21.14-4.44,32.64-4.08,2-.24,6.25.45,8.17,0,9.55-2.2,18.48-2.49,28.56-4.08,22.86-3.63,45.79-5.38,69.38-8.16,58.11-6.85,122.06-8.2,179.56-20.4.65-.25-1-6.9,0-8.17-19.71-.65-43.59-6-61.22-8.16-40.23-.81-78.72-9.22-118.34-12.24a284.85,284.85,0,0,1-28.57-4.08c-11.43-.29-21.22-2.61-32.65-4.08-10.08-1.31-18.85-2.74-28.56-4.08-4-.57-8.25.57-12.24,0-30-4.12-45.63-10.53-20.41-36.73,1-1.06,3.43-3,4.08-4.08,3.35-5.8,3-7.35,8.16-12.24,7.55-11,17.14-25.51,24.49-36.73,2.86-4.37,4.9-8.65,8.16-12.24,2.69-4.17,6.37-7.72,8.16-12.25C692.92,373.57,690.27,383,684,384c-2.41,7.47-10.49,8.78-16.32,12.25-9,5.34-20.78,10.73-28.57,16.32-5.18,5.51-6.12,4.65-12.24,8.16-1.11.66-2.94,3.15-4.08,4.08A71.14,71.14,0,0,1,610.57,433c-5.75,3.18-11.46,11.26-20.4,8.16-.29-9.84,1.79-20.2-4.08-28.57-.9-1.55,0-4.08,0-4.08,0-4,.41-8.28,0-12.24-.57-5.8-2.86-10.45-4.08-16.33-3.1-14.89-2.21-29.42-4.08-44.89-14.45-66.27-18-141.68-32.65-208.12C532.63,201.27,525.2,277,512.63,351.33m36.73-40.81c-2.29,59.42,6.9,115.9,20.4,171.4,28.37-8,45.42-42,73.46-49-17.63,22.56-42.69,41-49,69.37,56.85,18.12,118.88,16.94,179.56,20.4-58.52,7.51-121.29,11.06-179.56,24.49,4.33,28.44,35.91,43.71,44.89,69.37-22.12-16.85-43.38-36.07-69.38-44.88-18.89,58.07-17.91,124-24.48,183.63-7.88-61.25-3.63-125.77-24.49-183.63-26.36,7.87-44.89,33.87-69.37,44.88,16.16-23.58,38.44-43.21,49-69.37-55.66-6.94-109.45-21.91-167.32-20.4,53.54-11.68,115.66-5.35,167.32-28.57-9.59-25.95-38.16-41.09-49-65.29,22.44,15.3,45.05,32,65.29,49C540.83,430.42,537.2,365.08,549.36,310.52Z"/><path class="cls-59" d="M296.35,159.53c-31.14-8.21-46.77,37.09-16.33,49S325.12,167.12,296.35,159.53Z"/><path class="cls-60" d="M798.29,167.69c-9,25.95-27.09,52.76-57.13,57.13,32.77,5.43,46.07,35,57.13,61.21-.28-35.83,32-49.95,53.05-65.29C819.55,224.41,799,196.66,798.29,167.69Z"/><path class="cls-61" d="M394.29,253.39c-7.35-4-20.94,10.57-9.1,17.18S403.92,258.69,394.29,253.39Z"/><path class="cls-62" d="M198.4,318.68c6.49-14-5.46-17-12.24-28.57-11.1,1.35-22.81,13.59-24.48,24.49C175.92,327.17,184.77,337.09,198.4,318.68Z"/><path class="cls-63" d="M198.4,318.68c5.84-7.92,5.64-27.06-12.24-28.57C192.94,301.7,204.89,304.64,198.4,318.68Z"/><path class="cls-64" d="M549.36,310.52c-12.16,54.56-8.53,119.9-32.65,171.4-20.24-16.94-42.85-33.67-65.29-49,10.81,24.2,39.38,39.34,49,65.29-51.66,23.22-113.78,16.89-167.32,28.57,57.87-1.51,111.66,13.46,167.32,20.4-10.53,26.16-32.81,45.79-49,69.37,24.48-11,43-37,69.37-44.88,20.86,57.86,16.61,122.38,24.49,183.63,6.57-59.62,5.59-125.56,24.48-183.63,26,8.81,47.26,28,69.38,44.88-9-25.66-40.56-40.93-44.89-69.37,58.27-13.43,121-17,179.56-24.49-60.68-3.46-122.71-2.28-179.56-20.4,6.28-28.4,31.34-46.81,49-69.37-28,7-45.09,40.93-73.46,49C556.26,426.42,547.07,369.94,549.36,310.52Z"/><path class="cls-65" d="M577.93,335c1.87,15.47,1,30,4.08,44.89,0-3.34,8.28-14.07,4.08-20.4,30.44-2.12,52.31,19.14,77.53,32.65-9.59,4.16-19.79,10.53-24.48,20.4,7.79-5.59,19.55-11,28.57-16.32,4.28-3.31,7.71-9.59,12.24-12.25-7.84-51.17-63.87-55.41-97.94-65.29C585.6,324.56,578.46,331.82,577.93,335Z"/><path class="cls-66" d="M431,400.3c8.25,6.12,15,11.63,24.49,16.32,1.31,1.84.24-11.34-4.08-12.24,19.67-5.27,30.2-31.34,49-36.73,6.81,1,.69,11.63,8.16,12.24,1.59-9.91,2.41-18.69,4.08-28.56-32.16-24.41-67.82,13.1-89.78,32.64C428.12,386,431.63,401.11,431,400.3Z"/><path class="cls-67" d="M916.64,351.33c-10.45-6-27.59,11.79-13.14,21.3S928.76,358.31,916.64,351.33Z"/><path class="cls-68" d="M582,379.89c1.22,5.88,3.51,10.53,4.08,16.33.45-2.17,7.38-7.47,4.08-12.25,12.65,11,46.36,13.59,36.73,36.73,6.12-3.51,7.06-2.65,12.24-8.16,4.69-9.87,14.89-16.24,24.48-20.4-25.22-13.51-47.09-34.77-77.53-32.65C590.29,365.82,582,376.55,582,379.89Z"/><path class="cls-69" d="M684,384c6.24-1,8.89-10.4,16.32-8.16-1.79,4.53-5.47,8.08-8.16,12.25,11.71-5.92,15.55-19.47,24.49-28.57C704.15,365,686.68,367.9,684,384Z"/><path class="cls-70" d="M455.5,416.62c4.12,2,2.16,3.14,8.16,4.08,1.59-16.57,19.1-32.15,36.73-32.64,1.59,6.4-3.84,17.22,4.08,20.4,1.63-10,2.49-18.61,4.08-28.57-7.47-.61-1.35-11.26-8.16-12.24-18.77,5.39-29.3,31.46-49,36.73C455.74,405.28,456.81,418.46,455.5,416.62Z"/><path class="cls-71" d="M586.09,396.22c.41,4,0,8.24,0,12.24,10.12-6,22.16-3.26,32.64,0,1.15,5.22-3.1,14.28,4.09,16.32,1.14-.93,3-3.42,4.08-4.08,9.63-23.14-24.08-25.75-36.73-36.73C593.47,388.75,586.54,394.05,586.09,396.22Z"/><path class="cls-72" d="M667.71,396.22c5.83-3.47,13.91-4.78,16.32-12.25,0,0-2.57-.89-4.08,0C675.42,386.63,672,392.91,667.71,396.22Z"/><path class="cls-73" d="M463.66,420.7c.86.13,2.65,4,4.08,4.08a22.76,22.76,0,0,0,4.08,0c2.74-15.34,20-29.17,32.65-12.24a14.62,14.62,0,0,1,0-4.08c-7.92-3.18-2.49-14-4.08-20.4C482.76,388.55,465.25,404.13,463.66,420.7Z"/><path class="cls-74" d="M684,400.3c-7.35,11.22-16.94,25.75-24.49,36.73,5.35-5,14.08-8.61,16.33-16.33,27.71,4.37,34.52,57.38,65.29,69.38-10.28,2.28-25.71-4.86-32.65,4.08,11.43,1.47,21.22,3.79,32.65,4.08,2,0,4.08,0,4.08,0,10.37-11.47,34.24,3.14,44.89-8.16-32.65,6.16-60.31-34.2-49-53.05-16.89-13.67-37.13-21.63-40.81-44.89C698.43,397.32,683.09,401,684,400.3Z"/><path class="cls-75" d="M471.82,424.78c5.39,3.88,18.86-9.34,32.65-8.16v-4.08C491.82,395.61,474.56,409.44,471.82,424.78Z"/><path class="cls-76" d="M586.09,408.46s-.9,2.53,0,4.08c9,3.51,33-2,24.48,20.41a71.14,71.14,0,0,0,12.25-8.17c-7.19-2-2.94-11.1-4.09-16.32C608.25,405.2,596.21,402.46,586.09,408.46Z"/><path class="cls-77" d="M373.88,494.16c13.06-1.47,24.45-1.23,36.73-4.08-15.83-12.61,10.41-51.95,24.49-49-3.39-4.74-8.57-11.23-12.25-16.33-6.69,7.59-10.65-12.32-16.32-16.32-20.65,18.61-51.22,44.65-44.89,73.46-8,4.53-17.92-.29-24.49,8.16C349.23,486.24,364.7,493.46,373.88,494.16Z"/><path class="cls-78" d="M610.57,433c8.53-22.45-15.46-16.9-24.48-20.41,5.87,8.37,3.79,18.73,4.08,28.57C599.11,444.21,604.82,436.13,610.57,433Z"/><path class="cls-79" d="M471.82,424.78a22.76,22.76,0,0,1-4.08,0c6.37,10.45,20.73,15.8,32.65,16.33-1.92-9.14,1.31-16.61,4.08-24.49C490.68,415.44,477.21,428.66,471.82,424.78Z"/><path class="cls-80" d="M659.54,437c-5.18,4.89-4.81,6.44-8.16,12.24,16.9-3.22,51.67,31.54,28.57,40.81,9.71,1.34,18.48,2.77,28.56,4.08,6.94-8.94,22.37-1.8,32.65-4.08-30.77-12-37.58-65-65.29-69.38C673.62,428.42,664.89,432,659.54,437Z"/><path class="cls-81" d="M410.61,490.08c1.92-.45,6.12.2,8.16,0,1.23-8.65,5.1-41.3,24.49-36.73-2.61-4-5.31-8.24-8.16-12.24C421,438.13,394.78,477.47,410.61,490.08Z"/><path class="cls-82" d="M647.3,453.35c2.65,4.77,13.88,10.86,16,16.65s-.21,17.79,4.41,20.08c4,.57,8.24-.57,12.24,0,23.1-9.27-11.67-44-28.57-40.81C650.73,450.37,648.32,452.29,647.3,453.35Z"/><path class="cls-83" d="M418.77,490.08c6.08-.57,10.61-2.82,16.33-4.08-15.72-6.17.81-30.49,16.32-20.41-2.78-5.59-4.94-7.42-8.16-12.24C423.87,448.78,420,481.43,418.77,490.08Z"/><path class="cls-84" d="M667.71,490.08c-4.62-2.29-2.33-14.24-4.41-20.08s-13.35-11.88-16-16.65C622.08,479.55,637.71,486,667.71,490.08Z"/><path class="cls-85" d="M435.1,486c9,2,16.36-2.94,24.48-4.08,1.92-7.19-5.92-11.76-8.16-16.33C435.91,455.51,419.38,479.83,435.1,486Z"/><path class="cls-86" d="M769.73,502.32c-6.78-1.18-14.73-5.14-24.49-4.08,0,0-2,0-4.08,0A284.85,284.85,0,0,0,769.73,502.32Z"/><path class="cls-87" d="M949.29,522.72c3.26.13,9.22-1.14,12.24,0-11.84-12.52-55.75-7.79-73.46-8.16C905.7,516.69,929.58,522.07,949.29,522.72Z"/><path class="cls-88" d="M125,530.89c-2.69-8.94,7-7.55,12.24-8.17s10.94.37,16.32,0C155.43,522.77,103.52,522.28,125,530.89Z"/><path class="cls-89" d="M125,530.89c3.92,1.59,12,0,16.32,0-.94-.37-2.61-7.39-4.08-8.17C131.93,523.34,122.26,522,125,530.89Z"/><path class="cls-90" d="M949.29,530.89c2-.41,26.85-2.57,12.24-8.17-3-1.14-9,.13-12.24,0C948.31,524,949.94,530.64,949.29,530.89Z"/><path class="cls-91" d="M516.71,751.25c-2.61-22.07-5.63-44-8.16-65.29-16,23.59-60.89-25.59-69.37-32.65,4.24-5.51,14.24-8.2,16.32-16.32-23.51,9.39-43.09,27.75-65.29,40.81,9.18-13.67,19.34-31.3,28.56-44.89-30.4,9.14-42.64-60.48-65.29-69.38,10.28-2.28,25.71,4.86,32.64-4.08-24.24-3.71-49.09-9.51-73.45-12.24,17.3,13.06-11.22,3.51-16.32,12.24,37.7,33.38,42.4,98.84,85.69,122.43-10.93,5.92-14.56,15.06-20.4,28.57,8-4.21,14.69-12.45,24.48-12.25-5.06,16.29,24.61,13.51,33,20.08s26.24,27.38,36.4,12.57c5.1,31.34,39.79,15.38,57.13,36.73C509.16,761.54,516,754.64,516.71,751.25Z"/><path class="cls-92" d="M700.35,559.45c2.12.41,7.51,7.43,12.24,4.08C702.52,580.8,690,619,671.79,628.83c3.3,16.93,21.13,28,24.48,44.89-15.83-13.47-36.6-21.63-53-32.65,12.94,17.55-3.47,21.67-12.65,36.32S589.52,682.53,582,690c-1.84,13-6.7,27.63-8.16,40.81,12.85-2.69,4.36,13.47,12.24,16.32,1.06-9.06,6.24-18.4,12.24-24.48,35.42,20,63.95-49.46,102-40.81,17.43-21,23.47-50,47.95-66.32s17.1-53.13,45.91-56.11c-4.57-3.34-19.38-7.63-24.48-8.16C746.14,554.07,723.21,555.82,700.35,559.45Z"/><path class="cls-93" d="M418.77,632.91c5.55-8.16,11.75-15.14,16.33-24.49-18.41,1-39.79-37.34-20.41-44.89-9.87-2.28-18.32-2.53-28.57-4.08-6.93,8.94-22.36,1.8-32.64,4.08C376.13,572.43,388.37,642.05,418.77,632.91Z"/><path class="cls-94" d="M671.79,563.53c12.4,9.88-3.84,41.83-16.33,40.81,4.78,6.08,11.8,17.79,16.33,24.49,18.16-9.88,30.73-48,40.8-65.3-4.73,3.35-10.12-3.67-12.24-4.08C690.27,561,681.34,561.33,671.79,563.53Z"/><path class="cls-95" d="M435.1,608.42c.53-1.1,3-3.26,4.08-4.08-3-8.12-9.92-8.93-15.92-16.73s.25-15.51-.41-24.08c-2,0-6.24.45-8.16,0C395.31,571.08,416.69,609.44,435.1,608.42Z"/><path class="cls-96" d="M439.18,604.34c10.24-8.57,19.05-23.14,20.4-36.73-13.34,1.23-23.79-3.75-36.73-4.08.66,8.57-5.63,16.33.41,24.08S436.16,596.22,439.18,604.34Z"/><path class="cls-97" d="M647.3,596.18c-2.16-3.92-4.81-7.34-4.08-12.24,15.59,11.38,18.53-11.39,20.4-20.41-11.5-.36-20.64,6.82-32.64,4.08C631.51,579.78,640.12,588.18,647.3,596.18Z"/><path class="cls-98" d="M647.3,596.18c2,2.25,6.37,5.88,8.16,8.16,12.49,1,28.73-30.93,16.33-40.81-1.92.45-6.17-.24-8.17,0-1.87,9-4.81,31.79-20.4,20.41C642.49,588.84,645.14,592.26,647.3,596.18Z"/><path class="cls-99" d="M475.9,624.75c6.45,2.08-2.65,7.3,0,12.24,8.29,6.2,20.25,5.26,28.57,0-.61-8.57-6.49-15.22-4.08-24.49C488.64,608.79,483,619.89,475.9,624.75Z"/><path class="cls-100" d="M590.17,632.91c2.49,9.47,16.53,12.32,24.48,8.16,1.15-5.22-3.1-14.28,4.08-16.32-4.65-10.41-18-13.23-28.56-12.25C588.9,619,591.84,626.54,590.17,632.91Z"/><path class="cls-101" d="M467.74,628.83c-9.18,15.95,30,41.17,36.73,20.4-.57-4,.41-8.2,0-12.24-8.32,5.26-20.28,6.2-28.57,0-2.65-4.94,6.45-10.16,0-12.24C474.15,625.93,469.46,627.77,467.74,628.83Z"/><path class="cls-102" d="M590.17,632.91c-1.18,4.57-3.31,9.63-4.08,16.32,9.51,23.88,45.83-10.61,40.81-20.4-1.11-.66-7.39-3.55-8.17-4.08-7.18,2-2.93,11.1-4.08,16.32C606.7,645.23,592.66,642.38,590.17,632.91Z"/><path class="cls-103" d="M455.5,637c-2.08,8.12-12.08,10.81-16.32,16.32,8.48,7.06,53.41,56.24,69.37,32.65-1.47-12.57-2.45-24.85-4.08-36.73-6.73,20.77-45.91-4.45-36.73-20.4C463.21,631.6,459.13,633.68,455.5,637Z"/><path class="cls-104" d="M586.09,649.23C584.5,663.15,584,676,582,690c7.51-7.51,39.38,2,48.56-12.65s25.59-18.77,12.65-36.32c-5.18-3.47-10-8.61-16.32-12.24C631.92,638.62,595.6,673.11,586.09,649.23Z"/><path class="cls-105" d="M247.37,690c-9.87,24.08-26.56,43.26-53.05,49,24.16,5.14,44.53,22.32,49,49,8-23.83,24.94-45.26,53.06-49C274.06,733.91,246.72,718.44,247.37,690Z"/><path class="cls-106" d="M924.8,718.61c-11.1,6.36-25.95,21.83-32.65,32.64a48.24,48.24,0,0,1,28.57,28.57c10.08-10.9,21.18-22.89,32.65-32.65C940.55,740.64,931.57,731.34,924.8,718.61Z"/><path class="cls-107" d="M720.76,796.14c-13.72-8.24-29.34,13.59-15,23.14S733.49,803.77,720.76,796.14Z"/><path class="cls-108" d="M145.35,845.11c-14.89-5.67-30.77,20.69-12.24,28.57S162.33,851.56,145.35,845.11Z"/><path class="cls-109" d="M357.56,861.44c-19.43-6.74-25.67,16-11,23S369.92,865.72,357.56,861.44Z"/><path class="cls-110" d="M830.94,881.84c-33-6.16-38.16,48.12-6.9,51.58S858.61,887,830.94,881.84Z"/></svg>