<svg id="Layer_1" data-name="Layer 1" xmlns="http://www.w3.org/2000/svg" viewBox="0 0 1080 1080"><defs><style>.cls-1{fill:#0c1523;}.cls-10,.cls-11,.cls-12,.cls-13,.cls-14,.cls-15,.cls-16,.cls-17,.cls-18,.cls-19,.cls-2,.cls-20,.cls-21,.cls-22,.cls-23,.cls-24,.cls-25,.cls-26,.cls-27,.cls-28,.cls-29,.cls-3,.cls-30,.cls-31,.cls-32,.cls-33,.cls-34,.cls-35,.cls-36,.cls-37,.cls-38,.cls-39,.cls-4,.cls-40,.cls-41,.cls-42,.cls-43,.cls-44,.cls-45,.cls-46,.cls-47,.cls-48,.cls-49,.cls-5,.cls-50,.cls-51,.cls-52,.cls-53,.cls-54,.cls-55,.cls-56,.cls-57,.cls-58,.cls-59,.cls-6,.cls-60,.cls-61,.cls-62,.cls-63,.cls-64,.cls-65,.cls-66,.cls-67,.cls-68,.cls-69,.cls-7,.cls-70,.cls-71,.cls-72,.cls-73,.cls-74,.cls-75,.cls-76,.cls-77,.cls-78,.cls-79,.cls-8,.cls-80,.cls-81,.cls-82,.cls-9{fill:none;stroke-width:1.22px;}.cls-2{stroke:#0e0f12;}.cls-3{stroke:#76787b;}.cls-4{stroke:#0c1523;}.cls-5{stroke:#e58824;}.cls-6{stroke:#f7d898;}.cls-7{stroke:#1e3f69;}.cls-8{stroke:#a7a8d4;}.cls-9{stroke:#e2e2e3;}.cls-10{stroke:#e6e6e7;}.cls-11{stroke:#818486;}.cls-12{stroke:#e2e2e2;}.cls-13{stroke:#606362;}.cls-14{stroke:#0d0f11;}.cls-15{stroke:#0b1522;}.cls-16{stroke:#627ebe;}.cls-17{stroke:#d6d7d7;}.cls-18{stroke:#d7d8dd;}.cls-19{stroke:#c76928;}.cls-20{stroke:#ec8d23;}.cls-21{stroke:#53c5d0;}.cls-22{stroke:#45c2cc;}.cls-23{stroke:#ce7428;}.cls-24{stroke:#7b7c7b;}.cls-25{stroke:#797c7f;}.cls-26{stroke:#3b3c42;}.cls-27{stroke:#2a5e5e;}.cls-28{stroke:#1f7576;}.cls-29{stroke:#19625b;}.cls-30{stroke:#0e494c;}.cls-31{stroke:#9b9ea9;}.cls-32{stroke:#939aa8;}.cls-33{stroke:#555960;}.cls-34{stroke:#9e6343;}.cls-35{stroke:#acb1b8;}.cls-36{stroke:#aeb3b9;}.cls-37{stroke:#b8bbc3;}.cls-38{stroke:#b6b9be;}.cls-39{stroke:#9da2aa;}.cls-40{stroke:#5b5d5e;}.cls-41{stroke:#a4aab3;}.cls-42{stroke:#d5bca1;}.cls-43{stroke:#dcdddd;}.cls-44{stroke:#77787a;}.cls-45{stroke:#a8abb1;}.cls-46{stroke:#3d4755;}.cls-47{stroke:#dcdcdc;}.cls-48{stroke:#adb1b7;}.cls-49{stroke:#aaacb4;}.cls-50{stroke:#8e949d;}.cls-51{stroke:#cacdcf;}.cls-52{stroke:#5a6170;}.cls-53{stroke:#979da7;}.cls-54{stroke:#5d5f63;}.cls-55{stroke:#3d4659;}.cls-56{stroke:#e1e0e1;}.cls-57{stroke:#5f6a7b;}.cls-58{stroke:#7e7b7d;}.cls-59{stroke:#d9dadb;}.cls-60{stroke:#182638;}.cls-61{stroke:#727374;}.cls-62{stroke:#aaadb6;}.cls-63{stroke:#777677;}.cls-64{stroke:#aeb2ba;}.cls-65{stroke:#495462;}.cls-66{stroke:#d6cfc9;}.cls-67{stroke:#676a6e;}.cls-68{stroke:#b3b7bf;}.cls-69{stroke:#354d67;}.cls-70{stroke:#a7aab2;}.cls-71{stroke:#dfdedd;}.cls-72{stroke:#56575b;}.cls-73{stroke:#a6a9b1;}.cls-74{stroke:#6b6e6f;}.cls-75{stroke:#cacbcc;}.cls-76{stroke:#9e8ac1;}.cls-77{stroke:#a4a7af;}.cls-78{stroke:#53575d;}.cls-79{stroke:#535d6b;}.cls-80{stroke:#585c62;}.cls-81{stroke:#383c48;}.cls-82{stroke:#727885;}.cls-83{fill:#0e0f12;}.cls-84{fill:#76787b;}.cls-85{fill:#e58824;}.cls-86{fill:#f7d898;}.cls-87{fill:#1e3f69;}.cls-88{fill:#a7a8d4;}.cls-89{fill:#e2e2e3;}.cls-90{fill:#e6e6e7;}.cls-91{fill:#818486;}.cls-92{fill:#e2e2e2;}.cls-93{fill:#606362;}.cls-94{fill:#0d0f11;}.cls-95{fill:#0b1522;}.cls-96{fill:#627ebe;}.cls-97{fill:#d6d7d7;}.cls-98{fill:#d7d8dd;}.cls-99{fill:#c76928;}.cls-100{fill:#ec8d23;}.cls-101{fill:#53c5d0;}.cls-102{fill:#45c2cc;}.cls-103{fill:#ce7428;}.cls-104{fill:#7b7c7b;}.cls-105{fill:#797c7f;}.cls-106{fill:#3b3c42;}.cls-107{fill:#2a5e5e;}.cls-108{fill:#1f7576;}.cls-109{fill:#19625b;}.cls-110{fill:#0e494c;}.cls-111{fill:#9b9ea9;}.cls-112{fill:#939aa8;}.cls-113{fill:#555960;}.cls-114{fill:#9e6343;}.cls-115{fill:#acb1b8;}.cls-116{fill:#aeb3b9;}.cls-117{fill:#b8bbc3;}.cls-118{fill:#b6b9be;}.cls-119{fill:#9da2aa;}.cls-120{fill:#5b5d5e;}.cls-121{fill:#a4aab3;}.cls-122{fill:#d5bca1;}.cls-123{fill:#dcdddd;}.cls-124{fill:#77787a;}.cls-125{fill:#a8abb1;}.cls-126{fill:#3d4755;}.cls-127{fill:#dcdcdc;}.cls-128{fill:#adb1b7;}.cls-129{fill:#aaacb4;}.cls-130{fill:#8e949d;}.cls-131{fill:#cacdcf;}.cls-132{fill:#5a6170;}.cls-133{fill:#979da7;}.cls-134{fill:#5d5f63;}.cls-135{fill:#3d4659;}.cls-136{fill:#e1e0e1;}.cls-137{fill:#5f6a7b;}.cls-138{fill:#7e7b7d;}.cls-139{fill:#d9dadb;}.cls-140{fill:#182638;}.cls-141{fill:#727374;}.cls-142{fill:#aaadb6;}.cls-143{fill:#777677;}.cls-144{fill:#aeb2ba;}.cls-145{fill:#495462;}.cls-146{fill:#d6cfc9;}.cls-147{fill:#676a6e;}.cls-148{fill:#b3b7bf;}.cls-149{fill:#354d67;}.cls-150{fill:#a7aab2;}.cls-151{fill:#dfdedd;}.cls-152{fill:#56575b;}.cls-153{fill:#a6a9b1;}.cls-154{fill:#6b6e6f;}.cls-155{fill:#cacbcc;}.cls-156{fill:#9e8ac1;}.cls-157{fill:#a4a7af;}.cls-158{fill:#53575d;}.cls-159{fill:#535d6b;}.cls-160{fill:#585c62;}.cls-161{fill:#383c48;}.cls-162{fill:#727885;}</style></defs><title>avatar-robot</title><rect class="cls-1" width="1080" height="1080"/><path class="cls-2" d="M82.62,48.39c-3.43,1.71-8.08,6-12.24,8.16C7.12,89.4,39.65,175.55,33.65,240.19s3.67,151.48,0,220.36,3.83,150.26,0,220.37,6.57,151.24,0,220.37S41,1037.88,119.35,1036s143.24,0,220.36,0c.94-.21,2.66-3.88,4.09-4.08,6.32-28.41-14.53-63,20.4-53.05,20,5.71,40.56,8.44,61.29,12.16s48.53,2.36,69.3,4.16,50.56-9.22,69.37-4.08,42.93-25.18,57.14-16.33c16.65,10.41-12.41,58.85,16.32,57.14-6.37-37.18-.65-73.3,8.16-110.19,47.09-17.91,52.4-74,53.05-118.34,51.62,20.65,123.08,8.36,156.1-35.71S897,668.52,922.26,626.85s92.84-89.9,41.83-125.49c10.16-30.07-23.3-54.35-53.05-44.89-21.55-43.83-61,4.21-69.38,32.65-82.92-28-27.42,70.11-34.11,104.88s-20.73,115.49-76.07,99.16c14.08-51.46-63.13-42.36-78.48-68.43s50.65-46.16,57.75-78.8,69.82-40.36,65.62-85.38-1.63-88.27-53-97.94c-27.83-89.9-122.39-143.44-212.21-146.91-18.81-38.73,43.42-75.29,3.06-109.16s-81,15.91-72.43,56.11c27.87,2.9,27.5,32.12,20.4,53-89,1.1-188.9,53.75-216.29,142.83C154.08,357.14,162,535.19,249.94,534c20,40.6,57.7,72,102,77.54-31.63,7.67-55.3,23.05-94.15,28.28s-53.5,33.58-70.15,64.52-48.23,41.54-57.29,77.37S113,849.75,99,885.09s6.21,78.31,40.85,85.49,77.09-2.24,85.54-40.77-13.88-77.53,8.12-118.38,64.85,20.65,32.73,53.13c45.46,45.67,79.21,93.33,65.29,163.24-52.72.61-118.67.49-167.6.28s-115.28,5.27-122.1-53.38,2.29-107.77,0-167.27S42.34,691,41.81,632s-.9-116.63,0-175.48-2.94-116.59,0-175.47-6.94-116.23,0-175.48,71.46-54.85,122.43-53,120.55-1.23,175.47,0,118.92-1.47,175.48,0,118.63-2.74,175.48,0,119.41-5.8,175.48,0S973.68,35.24,1014,63.77s25.91,97.49,27.63,147.85-1.23,120.63,0,175.48-1.6,118.59,0,175.48-3,117.65,0,175.47-6.45,117.08,0,175.48-17.43,86-44.89,118.35c28.93-9.27,43-34.08,49-61.22,9.67-94-2.57-191,0-285.66s2.77-190.74,0-285.66,9.71-195.19,0-289.74C1030,38.84,967.88,41.49,902.88,44.3s-141.61-2.44-208.13,0-137.44-3.71-204,0S347.92,37,282.58,44.3s-139.48-18.11-200,4.09M470.3,113.68c1.84-.61,6.49.82,8.16,0,27.47-13.22,53.67,30.73,23.47,52s-67.05-40.44-31.63-52m24.49,73.46c4,9.14-3,23.05,0,32.64-5.23-1.14-14.29,3.1-16.33-4.08-5.55-8.73,4.17-27.1,0-36.73,6.57,0,18.08-2.4,16.33,8.17M711.07,403.42c3.27,26.94,4.82,58.89,0,85.7-1.18,50-33.17,95.49-81.61,110.18C565,618.89,490.54,611.55,421.33,611.55c-14.44,0-29.22-2.21-40.81-4.08-27.75,1.79-57.21-12.37-77.53-28.57-60.65-48.36-19.92-132.67-36.65-200s55-107.36,112.88-131.81,158.38-24.44,220.36,2.61S709.69,333.8,711.07,403.42m-453,8.16c1.67,11.67,4.49,26.41,4.08,40.81-.25,9.22-2.94,18-4.08,24.49-1.19,27.18-4.33,48.76-32.65,32.64-13-7.42-14.85-9.83-20.4-24.48-10.08-26.69-18.21-78.19,8.16-97.94a35.73,35.73,0,0,0,4.08-4.08c8-9.27,19.46-13.27,32.65-12.25,3.71,13.27,11.34,25.55,8.16,40.81m485.62-20.4c17.92,24.61,30.16,83.58,0,106.1a21.59,21.59,0,0,0-4.08,4.08c-3.59,5.88-8.28,13.39-16.32,12.25-1.8-22.53,7.14-42.36,4.08-65.3-.9-9.34-.25-24,0-32.65-1-15.14-5.92-28.93-4.08-44.89,8.28,4.33,21.1,8.7,20.4,20.41M858,513.61c-11-17.88,24-78.15,39.74-56.08S883,532.54,858,513.61m40.8,12.24c-10-23.39,35.51-73.46,48-48s-30.61,67.05-48,48M841.66,534c25.39.37,34.85,35.79,20.41,53,38.85-1.59,18.93-51.54-8.16-57.13,27.26-12.65,46.56,9,70.39,23.46s17.67,45-8.16,59.18-48.81,5-75.5-12.25S813.06,561.88,809,525.85s37.78-37.3,32.64,8.16m130.59-4.08c-3,14-12.45,28.65-24.48,36.73-4-7.55-7.31-17.31-16.33-20.41,5.39-12,13.84-30.16,28.57-32.64,13.79-3.51,14.65,4.89,12.24,16.32M894.71,648.27c-3.3,39-19.79,45.38-53.05,32.65-14.2-5.43-27.54-12.69-40.81-20.4.94-20.61,8.41-40.44,20.41-57.14,23.63,15,47,33.22,77.53,28.57,1.68,6.37-1.87,11-4.08,16.32m-481.54,4.09c44.44-4.17,90.27,12,134.67,0C564,648,566.41,640.23,576.41,632c35.78-29.67,96.14,15.79,101.12,62.11s7.67,122.26-3.18,170.5C657.17,940.87,517.27,927,454,925.77c-9.84-.2-21.63-3.42-28.57-4.08C356,920.31,292,910.51,286.66,831.91c-2.2-12.28-8.44-28.48,0-40.81,8.9-13,32.2-21.38,36.73-40.8-.69-5.23,0-11.06,0-16.33,0-10.85.41-21.79,0-32.64-1-25.47-9.18-43.91-28.57-61.22A93.85,93.85,0,0,1,319.31,632c19.79-4.9,41.58-2.45,61.21-8.16,6.08,15.87,24.2,17.34,32.65,28.57m151-28.57c-11.42,28.08-49.95,18.81-77.53,20.4s-61.75,2.25-85.7-12.24c15.79-16.4,51.25-5.75,77.53-8.16s58.85,1.79,85.7,0m-253,77.54c1.18,14.77-.82,27.42-4.08,40.8-5.27,21.55-16,47.18-44.89,40.81V754.38c-1.51-8.82-4.37-20.61-8.16-28.57-7.88-16.45-25.22-35.58-44.89-36.73,18.48-51.91,107.16-52.15,102,12.25m408.09-12.25c2.81,11.31,2.44,17.55,0,28.57-.58,14.45-6.74,26.12-16.33,36.73-8-11.8-8.81-29.43-8.16-44.89-3.06-21.43-13.47-41-20.4-61.22,21.18,1.27,45.42,16.9,44.89,40.81m122.42,8.16c10.41,4.09,20.94,5.23,32.65,4.09-.69,17.71-19.71,39.7-36.73,24.48-21.38-5.14-56.15-26.32-40.81-53,15.14,8.08,31.1,14.12,44.89,24.48M813.1,729.89c10.81,8,22.85,16.2,36.72,16.33-14.16,31.34-47.91,52-81.61,53-7-16.78-9.59-34.85-12.25-53,.17-18.57,4.08-48.49,28.57-49,5.35,13.31,16.77,24.78,28.57,32.65M245.85,742.13c9.51,28.53-3.87,43.63-20.4,65.3-8.77-6.08-16.89-14.37-24.49-20.41-12.93-7.83-29.38-15-44.88-16.32,6.2-43.91,76.92-101,89.77-28.57m501.95-20.4c-.32,16.12-1.1,32.89,0,49,.7,10.41,2.86,18.32,4.08,28.57-36,1.14-70.8-23.51-28.56-49,7.75-13.92,8.16-32.73,8.16-49,18.93-4.37,21.38,5,16.32,20.4M188.72,795.19c10.86,6.48,17.75,18.44,28.57,24.48-2.53,14-9.71,26.65-12.24,40.81-9.35-3.1-19.63-3.31-28.57-8.16-16.49-3.76-37.1-7.35-53,0-4.16-39.67,23.38-92.52,65.29-57.13m4.08,130.58c-3.71-2.49-7.51-4.57-12.24-4.08-2.28,10.29,4.86,25.71-4.08,32.65-22.57,40.93-47.79-15.59-36.73-36.73-8.49,5.39-18.73,13-16.32,24.49-22.85-12.2-16.24-56.07-4.16-73.54s65.09-6,80.43,5.43,24.4,70.39-6.9,72.19V925.77m436.66,0c-.13,60.65-98.47,58.77-146.91,57.14s-146.34.49-146.92-61.22C429.49,943.61,534.33,942.83,629.46,925.77Z"/><path class="cls-3" d="M70.38,56.55c4.16-2.17,8.81-6.45,12.24-8.16C75.44,51,75.93,52.55,70.38,56.55Z"/><path class="cls-4" d="M621.3,974.74c-6.25,13.31,8.32,41.18,0,53.06-12.9,18.44-65.91-2-89.78,4.08s-66.52-3.8-93.86,0-65.71-4-93.86,0c-1.43.2-3.15,3.87-4.09,4.08,72.4,0,148.34,2.49,220.37,0s149.65,6.69,220.37,0,149.85,17.22,216.29-4.08c27.46-32.37,51.33-60,44.89-118.35s3-117.65,0-175.48,1.59-118.59,0-175.47,1.22-120.64,0-175.48,1.71-125.12,0-175.48S1054.32,92.34,1014,63.77s-91.78-5.51-147.85-11.3-118.63,2.73-175.48,0-118.92,1.47-175.48,0-120.55,1.22-175.48,0-124.5,1.79-175.47,0S48.75,46.26,41.81,105.52s2.94,116.59,0,175.48.9,116.63,0,175.47-.53,116.47,0,175.48-2.33,116,0,175.48S35,916.1,41.85,974.7,115,1027.92,164,1028.08s114.88.33,167.6-.28c13.92-69.91-19.83-117.57-65.29-163.24,32.12-32.48-10.77-94-32.73-53.13s.33,79.86-8.12,118.38-50.93,47.91-85.54,40.77S85.11,920.39,99,885.09s22.25-67.58,31.35-103.37,40.68-46.4,57.29-77.37S219,645,257.81,639.83s62.52-20.61,94.15-28.28c-44.32-5.51-82-36.94-102-77.54-88,1.18-95.86-176.87-4.09-175.48C273.24,269.45,373.18,216.8,462.14,215.7c7.1-20.93,7.47-50.15-20.4-53-8.57-40.2,32.11-90,72.43-56.11S492.3,177,511.11,215.7c89.82,3.47,184.38,57,212.21,146.91,51.42,9.67,48.85,52.93,53,97.94s-58.52,52.77-65.62,85.38-73.09,52.72-57.75,78.8,92.56,17,78.48,68.43c55.34,16.33,69.37-64.43,76.07-99.16s-48.81-132.87,34.11-104.88c8.37-28.44,47.83-76.48,69.38-32.65,29.75-9.46,63.21,14.82,53.05,44.89,51,35.59-16.53,83.82-41.83,125.49s-34.32,96.72-67.33,140.79S750.45,824,698.83,803.35c-.65,44.32-6,100.43-53.05,118.34-8.81,36.89-14.53,73-8.16,110.19-28.73,1.71.33-46.73-16.32-57.14m89.77-816.17c4.09,4.08-6.57,12.36-10.93,6.77s8.16-9.55,10.93-6.77M192.8,166.73c7.63,7.75,11.14,19.18,20.41,24.49-4.53,9.83-16.16,14.77-20.41,24.48-9.3-6.41-18.65-15-24.48-24.48,10.77-4.9,12.93-19.67,24.48-24.49m706,61.21c-25.42,8.53-36.36,33-49,53.06,3.06-32.37-29.83-41.22-44.89-57.14,30.53,5.63,40.89-24.24,49-44.89,6.36,21.8,15.42,49.42,44.88,49m49,114.27c9.18,5.3,3,24.52-9.11,17.18s-1.95-23.59,9.11-17.18m-808,232.61c16.65,4.08,11.22,36.44-8.28,32.52s-12.08-37.54,8.28-32.52M911,860.48c5.14,7.88,12.24,16,20.4,20.4-3.92,28.65-43.34,31.1-44.89,0C896.39,876.35,901.32,864.72,911,860.48Z"/><path class="cls-5" d="M478.46,113.68c11.76,2.2,15.55,18.28,3.07,23.46s-19.14-17-11.23-23.46c-35.42,11.59,1.43,73.33,31.63,52S505.93,100.46,478.46,113.68Z"/><path class="cls-6" d="M478.46,113.68c-1.67.82-6.32-.61-8.16,0-7.91,6.41-1.26,28.65,11.23,23.46S490.22,115.88,478.46,113.68Z"/><path class="cls-7" d="M711.07,158.57c-2.77-2.78-15.3,1.18-10.93,6.77S715.16,162.65,711.07,158.57Z"/><path class="cls-8" d="M192.8,166.73c-11.55,4.82-13.71,19.59-24.48,24.49,5.83,9.5,15.18,18.07,24.48,24.48,4.25-9.71,15.88-14.65,20.41-24.48C203.94,185.91,200.43,174.48,192.8,166.73Z"/><path class="cls-9" d="M478.46,215.7h12.25c2.16-8.94-4.66-22.93,4.08-28.56,1.75-10.57-9.76-8.13-16.33-8.17C482.63,188.6,472.91,207,478.46,215.7Z"/><path class="cls-10" d="M898.79,227.94c-29.46.45-38.52-27.17-44.88-49-8.09,20.65-18.45,50.52-49,44.89,15.06,15.92,48,24.77,44.89,57.14C862.43,261,873.37,236.47,898.79,227.94Z"/><path class="cls-11" d="M478.46,215.7c2,7.18,11.1,2.94,16.33,4.08-3-9.59,4-23.5,0-32.64-8.74,5.63-1.92,19.62-4.08,28.56Z"/><path class="cls-12" d="M303,578.9c-22-25.75-45.63-68.76-20.41-106.1,8.16,61.62,53.63,119.28,118.35,126.5-1.92,8-14.69-.45-16.33,8.17,12.65,0,27.1,3.14,36.73,4.08,69.21,0,143.65,7.34,208.13-12.25-13.88,2.08-46.08,1.19-61.22-4.08,33.75-2.69,64.93-19.87,92.64-38s25.91-65.82,50.19-72.23c0-27.18.53-54.44,0-81.62-1.38-69.62-49.54-126.67-111.49-153.77S437.13,222.6,379.22,247,249.65,311.48,266.34,378.85s-24,151.69,36.65,200m106.1-253a191.7,191.7,0,0,1,40.81-4.08c53.83,0,159.72-16.16,198.94,25.51s43.38,134.38,8,185.48-134,26.28-194.66,33.87S326,547.11,327.51,472.76,328.9,343.64,409.09,325.88Z"/><path class="cls-13" d="M409.09,325.88c13-1.34,30.48-3.06,40.81-4.08A191.7,191.7,0,0,0,409.09,325.88Z"/><path class="cls-14" d="M409.09,325.88C328.9,343.64,329,398.4,327.51,472.76s73.95,101.49,134.63,93.9,159.2,17.18,194.66-33.87,31.26-143.77-8-185.48S503.73,321.8,449.9,321.8c-10.33,1-27.83,2.74-40.81,4.08M392.77,534c-9.88-4.2-18.45-3.67-28.57,0-20.65-25.63-31-73.13-28.57-106.1s22.9-69.75,53.38-85.38,90.88-8.73,126.18-8.48,92.6-3.84,119.29,19.46,31.75,72.93,31.7,107-11,70.19-45.78,80.72S539,566.17,498.87,558.49,400.19,576.45,392.77,534Z"/><path class="cls-15" d="M392.77,534c7.42,42.44,66,16.81,106.1,24.48s86.76-6.69,121.53-17.22,45.74-46.6,45.78-80.72-5-83.74-31.7-107-84-19.22-119.29-19.46-95.65-7.14-126.18,8.48-51,52.4-53.38,85.38,7.92,80.47,28.57,106.1c10.12-3.67,18.69-4.2,28.57,0M454,419.75a72.09,72.09,0,0,1,0,44.88c-10.73,31.75-42.69,32.73-53.05,0a73.56,73.56,0,0,1,0-44.88c11-34.77,42-34.94,53.05,0m155.07,0c4.49,14.24,3.72,26.85,0,40.8-8.77,32.81-40.15,39.06-53,4.08-5.39-14.6-4.53-30.56,0-44.88C566.86,385.38,598.16,385.3,609.05,419.75Z"/><path class="cls-16" d="M947.77,342.21c-11.06-6.41-21.23,9.83-9.11,17.18S957,347.51,947.77,342.21Z"/><path class="cls-17" d="M217.29,383c14.89,1.18,15.63,30.85,16.32,40.81,1.27,7.14,7.43,18.69,4.08,28.56,6.16-5.75,14.08-4.08,20.41,0-1.23-13.46.53-27.3,0-40.81,3.18-15.26-4.45-27.54-8.16-40.81C236.75,369.75,225.29,373.75,217.29,383Z"/><path class="cls-18" d="M727.4,415.66c.73,10.82-.57,21.8,0,32.65,2.36,1.63,10.32-2,12.24,0,0-16.36,6.33-43.3,4.08-57.13.7-11.71-12.12-16.08-20.4-20.41C721.48,386.73,726.38,400.52,727.4,415.66Z"/><path class="cls-19" d="M213.21,387.1c12.48,20.28,14.53,43.95,16.32,69.37-19.46-4.65-7.92,24.9-24.48,28.57,5.55,14.65,7.38,17.06,20.4,24.48-4.53-10.73,10.53-23.38,8.12-36.76s1-34.77,0-48.93c-.69-10-1.43-39.63-16.32-40.81A35.73,35.73,0,0,1,213.21,387.1Z"/><path class="cls-20" d="M205.05,485c16.56-3.67,5-33.22,24.48-28.57-1.79-25.42-3.84-49.09-16.32-69.37C186.84,406.85,195,458.35,205.05,485Z"/><path class="cls-21" d="M400.93,419.75c-2.21,12.2-2.21,32.68,0,44.88,10.36,32.73,42.32,31.75,53.05,0,2.37-11.95,2.16-32.89,0-44.88C442.92,384.81,411.91,385,400.93,419.75Z"/><path class="cls-22" d="M556,419.75c-2.12,11.71-2.57,33.25,0,44.88,12.9,35,44.28,28.73,53-4.08,1.63-11.59,2-29.3,0-40.8C598.16,385.3,566.86,385.38,556,419.75Z"/><path class="cls-23" d="M739.64,448.31v4.08c6.77,9.14,5.88,32.53,4.08,44.89,30.16-22.52,17.92-81.49,0-106.1C746,405,739.64,432,739.64,448.31Z"/><path class="cls-24" d="M711.07,485v4.08c4.82-26.81,3.27-58.76,0-85.7C711.6,430.6,711,457.86,711.07,485Z"/><path class="cls-25" d="M258.1,452.39c.08-.41,4.08,0,4.08,0,.41-14.4-2.41-29.14-4.08-40.81C258.63,425.09,256.87,438.93,258.1,452.39Z"/><path class="cls-26" d="M727.4,448.31c-.57-10.85.73-21.83,0-32.65C727.15,424.32,726.5,439,727.4,448.31Z"/><path class="cls-27" d="M400.93,464.63c-2.21-12.2-2.21-32.68,0-44.88A73.56,73.56,0,0,0,400.93,464.63Z"/><path class="cls-28" d="M454,464.63a72.09,72.09,0,0,0,0-44.88C456.14,431.74,456.35,452.68,454,464.63Z"/><path class="cls-29" d="M556,464.63c-2.57-11.63-2.12-33.17,0-44.88C551.47,434.07,550.61,450,556,464.63Z"/><path class="cls-30" d="M609.05,460.55c3.72-13.95,4.49-26.56,0-40.8C611.09,431.25,610.68,449,609.05,460.55Z"/><path class="cls-31" d="M225.45,509.52c28.32,16.12,31.46-5.46,32.65-32.64.32-7.76-1.59-16.9,0-24.49-6.33-4.08-14.25-5.75-20.41,0,3.35-9.87-2.81-21.42-4.08-28.56,1,14.16-2.45,35.54,0,48.93S220.92,498.79,225.45,509.52Z"/><path class="cls-32" d="M739.64,501.36c-4.24-13.22,0-35,0-49v-4.08c-1.92-2-9.88,1.63-12.24,0,3.06,22.94-5.88,42.77-4.08,65.3C731.36,514.75,736.05,507.24,739.64,501.36Z"/><path class="cls-33" d="M258.1,476.88c1.14-6.53,3.83-15.27,4.08-24.49,0,0-4-.41-4.08,0C256.51,460,258.42,469.12,258.1,476.88Z"/><path class="cls-34" d="M739.64,501.36a21.59,21.59,0,0,1,4.08-4.08c1.8-12.36,2.69-35.75-4.08-44.89C739.64,466.39,735.4,488.14,739.64,501.36Z"/><path class="cls-35" d="M858,513.61c25,18.93,55.46-34,39.74-56.08S847,495.73,858,513.61Z"/><path class="cls-36" d="M898.79,525.85c17.35,19.1,60.4-22.45,48-48S888.76,502.46,898.79,525.85Z"/><path class="cls-37" d="M303,578.9c20.32,16.2,49.78,30.36,77.53,28.57a36.71,36.71,0,0,1,4.08,0c1.64-8.62,14.41-.13,16.33-8.17-64.72-7.22-110.19-64.88-118.35-126.5C257.36,510.14,281,553.15,303,578.9Z"/><path class="cls-38" d="M629.46,599.3c48.44-14.69,80.43-60.23,81.61-110.18V485c-24.28,6.41-22.52,54.15-50.19,72.23s-58.89,35.26-92.64,38C583.38,600.49,615.58,601.38,629.46,599.3Z"/><path class="cls-39" d="M841.66,534c5.14-45.46-36.64-44.24-32.64-8.16s5,57.17,31.62,74.47,49.63,26.41,75.5,12.25,32-44.65,8.16-59.18-43.13-36.11-70.39-23.46c27.09,5.59,47,55.54,8.16,57.13C876.51,569.8,867.05,534.38,841.66,534Z"/><path class="cls-40" d="M960,513.61c10.65.93,12,6.4,12.24,16.32C974.66,518.5,973.8,510.1,960,513.61Z"/><path class="cls-41" d="M972.25,529.93C972,520,970.66,514.54,960,513.61c-14.73,2.48-23.18,20.64-28.57,32.64,9,3.1,12.37,12.86,16.33,20.41C959.8,558.58,969.27,543.93,972.25,529.93Z"/><path class="cls-42" d="M139.75,574.82c-20.36-5-27.75,28.65-8.28,32.52S156.4,578.9,139.75,574.82Z"/><path class="cls-43" d="M841.66,680.92c18.2-2.49,21.35-30.24,24.49-44.89,10.49,3.35,22.44,2.61,28.56,12.24,2.21-5.34,5.76-9.95,4.08-16.32-30.48,4.65-53.9-13.55-77.53-28.57-12,16.7-19.47,36.53-20.41,57.14C814.12,668.23,827.46,675.49,841.66,680.92Z"/><path class="cls-44" d="M421.33,611.55c-9.63-.94-24.08-4.08-36.73-4.08a36.71,36.71,0,0,0-4.08,0C392.11,609.34,406.89,611.55,421.33,611.55Z"/><path class="cls-45" d="M319.31,632c24.12,24.69,62.19,23.38,93.86,20.41-8.45-11.23-26.57-12.7-32.65-28.57C360.89,629.5,339.1,627.05,319.31,632Z"/><path class="cls-46" d="M564.16,623.79c-26.85,1.79-59.41-2.41-85.7,0s-61.74-8.24-77.53,8.16c23.95,14.49,58.11,13.83,85.7,12.24S552.74,651.87,564.16,623.79Z"/><path class="cls-47" d="M576.41,632c20.48,1.18,47.25-3.22,61.21,12.24-26.57,11.63-62.72,18.08-89.78,8.17-44.4,12-90.23-4.17-134.67,0-31.67,3-69.74,4.28-93.86-20.41a93.85,93.85,0,0,0-24.49,8.16c19.39,17.31,27.59,35.75,28.57,61.22a115.13,115.13,0,0,1,0,32.64c0,5.27-.69,11.1,0,16.33,4.9,36-2,95.86,25.51,125.48S438,895,478.46,897.21s101.5,3.63,139-12S635,806.08,674.35,791.1c5.34,24.9-9.14,52.57,0,73.46,10.85-48.24,8.12-124.14,3.18-170.5S612.19,602.28,576.41,632m44.89,106.1c3.55,14.33,1.3,27.3,0,40.81,0,45.75,4,76.48-49,77.54-40.64,4.9-99.65,12.12-142.83,4.08-50.52-9.39-36.81-71.33-36.72-114.26s65.7-47.42,106.1-40.81S608.2,685.21,621.3,738.05Z"/><path class="cls-48" d="M547.84,652.36c27.06,9.91,63.21,3.46,89.78-8.17-14-15.46-40.73-11.06-61.21-12.24C566.41,640.23,564,648,547.84,652.36Z"/><path class="cls-49" d="M841.66,680.92c33.26,12.73,49.75,6.33,53.05-32.65-6.12-9.63-18.07-8.89-28.56-12.24C863,650.68,859.86,678.43,841.66,680.92Z"/><path class="cls-50" d="M254,725.81c-.86-.24,9.42-20.4,20.52-16.2s26.28-6.86,36.61-8.28c5.14-64.4-83.54-64.16-102-12.25C228.8,690.23,246.14,709.36,254,725.81Z"/><path class="cls-51" d="M694.75,709.49c.12-5.8,6.69-16.49,0-24.49,22.65-11.18,17.75,12.61,24.49,24.49,0-6.7.61-13.71,0-20.41.53-23.91-23.71-39.54-44.89-40.81C681.28,668.52,691.69,688.06,694.75,709.49Z"/><path class="cls-52" d="M837.58,725.81c12.49-4,10.29-21.26,4.08-28.57-13.79-10.36-29.75-16.4-44.89-24.48C781.43,699.49,816.2,720.67,837.58,725.81Z"/><path class="cls-53" d="M694.75,709.49c-.65,15.46.16,33.09,8.16,44.89,9.59-10.61,15.75-22.28,16.33-36.73.08-2,0-6.12,0-8.16-6.74-11.88-1.84-35.67-24.49-24.49C701.44,693,694.87,703.69,694.75,709.49Z"/><path class="cls-54" d="M719.24,709.49c0,2,.08,6.12,0,8.16,2.44-11,2.81-17.26,0-28.57C719.85,695.78,719.24,702.79,719.24,709.49Z"/><path class="cls-12" d="M756,746.22c.66,2.44,7.23,7.26,4.08,12.24,19.23,3.26,57.34-6.21,53.06-28.57-11.8-7.87-23.22-19.34-28.57-32.65C760,697.73,756.13,727.65,756,746.22Z"/><path class="cls-55" d="M837.58,725.81c17,15.22,36-6.77,36.73-24.48-11.71,1.14-22.24,0-32.65-4.09C847.87,704.55,850.07,721.85,837.58,725.81Z"/><path class="cls-56" d="M201,787c9.31-18.56,26.41-35.83,44.89-44.89-12.85-72.47-83.57-15.34-89.77,28.57C171.58,772,188,779.19,201,787Z"/><path class="cls-57" d="M254,725.81c3.79,8,6.65,19.75,8.16,28.57.9-2.66,7.06-7.1,4.08-12.25h40.81c3.26-13.38,5.26-26,4.08-40.8-10.33,1.42-25.55,12.44-36.61,8.28S253.16,725.57,254,725.81Z"/><path class="cls-58" d="M323.39,734a115.13,115.13,0,0,0,0-32.64C323.8,712.18,323.39,723.12,323.39,734Z"/><path class="cls-59" d="M723.32,750.3c2-.33,19,6,20.4,8.16-1.14-13.18,2.74-26.61,4.08-36.73,5.06-15.39,2.61-24.77-16.32-20.4C731.48,717.57,731.07,736.38,723.32,750.3Z"/><path class="cls-14" d="M429.49,860.48c41.18,3.75,98.07-3.18,142.83-4.08,52.93-1.06,49-31.79,49-77.54,0-13.26,1.63-27.67,0-40.81-13.1-52.84-82-26-122.43-32.64s-106-2.13-106.1,40.81S379,851.09,429.49,860.48M596.81,717.65c28.4,11.55,7.55,69.41,12.24,97.94S555,853.46,527.43,844.16,446,858.85,418.6,842.81s-10.16-65-13.59-96.59,53.5-35.67,81.62-28.57S569,706.34,596.81,717.65Z"/><path class="cls-60" d="M596.81,717.65c-27.83-11.31-82.07,7.1-110.18,0s-85.05-3-81.62,28.57-13.79,80.55,13.59,96.59,81.29-8,108.83,1.35,86.32,0,81.62-28.57,16.16-86.39-12.24-97.94M458.06,746.22c9.88,5.79-3.22,26.52-17.22,17.22s2.94-25.59,17.22-17.22m130.59,4.08c.57,17.58-21.55,11-32.65,12.24-3.67-22.57,20.32-14.41,32.65-12.24m-40.81,0c-6.9,26.07-54.24,5.87-77.54,12.24,6.9-26.08,54.24-5.88,77.54-12.24m-89.78,44.89c-17,25.09-27.1-15.47,0,0M454,815.59C449.37,836.61,425.49,809.88,454,815.59Z"/><path class="cls-61" d="M743.72,758.46c.53,6,3,8.4,4.08,12.24-1.1-16.08-.32-32.85,0-49C746.46,731.85,742.58,745.28,743.72,758.46Z"/><path class="cls-62" d="M756,746.22c2.66,18.2,5.27,36.27,12.25,53,33.7-1.06,67.45-21.71,81.61-53-13.87-.13-25.91-8.29-36.72-16.33,4.28,22.36-33.83,31.83-53.06,28.57C763.19,753.48,756.62,748.66,756,746.22Z"/><path class="cls-63" d="M621.3,778.86c1.3-13.51,3.55-26.48,0-40.81C622.93,751.19,621.3,765.6,621.3,778.86Z"/><path class="cls-64" d="M201,787c7.6,6,15.72,14.33,24.49,20.41,16.53-21.67,29.91-36.77,20.4-65.3C227.37,751.19,210.27,768.46,201,787Z"/><path class="cls-65" d="M262.18,754.38v28.56c28.93,6.37,39.62-19.26,44.89-40.81H266.26C269.24,747.28,263.08,751.72,262.18,754.38Z"/><path class="cls-66" d="M458.06,746.22c-14.28-8.37-31.22,7.87-17.22,17.22S467.94,752,458.06,746.22Z"/><path class="cls-67" d="M588.65,750.3C576.32,748.13,552.33,740,556,762.54,567.1,761.31,589.22,767.88,588.65,750.3Z"/><path class="cls-68" d="M286.66,791.1c.7,13.55-.94,27.27,0,40.81,5.35,78.6,69.38,88.4,138.75,89.78,9.84.21,21.63,3.43,28.57,4.08,63.29,1.27,203.19,15.1,220.37-61.21-9.14-20.89,5.34-48.56,0-73.46-39.38,15-19.31,78.6-56.85,94.15s-98.59,14.16-139,12-102,8.2-129.56-21.43-20.61-89.45-25.51-125.48C318.86,769.72,295.56,778.13,286.66,791.1Z"/><path class="cls-69" d="M547.84,750.3c-23.3,6.36-70.64-13.84-77.54,12.24C493.6,756.17,540.94,776.37,547.84,750.3Z"/><path class="cls-70" d="M747.8,770.7c-1.1-3.84-3.55-6.24-4.08-12.24-1.39-2.17-18.36-8.49-20.4-8.16-42.24,25.46-7.43,50.11,28.56,49C750.66,789,748.5,781.11,747.8,770.7Z"/><path class="cls-71" d="M176.48,852.32c-5.88-16.69,22.08-43.79,12.24-57.13-41.91-35.39-69.45,17.46-65.29,57.13C139.38,845,160,848.56,176.48,852.32Z"/><path class="cls-72" d="M286.66,831.91c-.94-13.54.7-27.26,0-40.81C278.22,803.43,284.46,819.63,286.66,831.91Z"/><path class="cls-73" d="M176.48,852.32c8.94,4.85,19.22,5.06,28.57,8.16,2.53-14.16,9.71-26.81,12.24-40.81-10.82-6-17.71-18-28.57-24.48C198.56,808.53,170.6,835.63,176.48,852.32Z"/><path class="cls-74" d="M429.49,860.48c43.18,8,102.19.82,142.83-4.08C527.56,857.3,470.67,864.23,429.49,860.48Z"/><path class="cls-75" d="M176.48,954.34c3.18-8.69-7.43-40.48,12.24-36.73-8-7.38-12.53-.53-20.4,4.08-2.49-17.34,3.38-32.36,4.08-49,24.57-1.1,34.11,22.37,32.65,44.89-4.09.45-11.15-1.92-12.25,4.08a6.61,6.61,0,0,1,0,4.08v20.41c31.3-1.8,22.24-60.85,6.9-72.19s-68.4-22.94-80.43-5.43-18.69,61.34,4.16,73.54c-2.41-11.51,7.83-19.1,16.32-24.49C128.69,938.75,153.91,995.27,176.48,954.34Z"/><path class="cls-76" d="M911,860.48c-9.72,4.24-14.65,15.87-24.49,20.4,1.55,31.1,41,28.65,44.89,0C923.28,876.44,916.18,868.36,911,860.48Z"/><path class="cls-77" d="M188.72,917.61c1.06,1,3.59,3,4.08,4.08,1.1-6,8.16-3.63,12.25-4.08,1.46-22.52-8.08-46-32.65-44.89-.7,16.61-6.57,31.63-4.08,49C176.19,917.08,180.76,910.23,188.72,917.61Z"/><path class="cls-78" d="M176.48,954.34c8.94-6.94,1.8-22.36,4.08-32.65,4.73-.49,8.53,1.59,12.24,4.08a6.61,6.61,0,0,0,0-4.08c-.49-1.06-3-3.1-4.08-4.08C169.05,913.86,179.66,945.65,176.48,954.34Z"/><path class="cls-79" d="M629.46,925.77c-95.13,17.06-200,17.84-293.83-4.08.58,61.71,98.48,59.58,146.92,61.22S629.33,986.42,629.46,925.77Z"/><path class="cls-80" d="M454,925.77c-6.94-.65-18.73-3.87-28.57-4.08C432.35,922.35,444.14,925.57,454,925.77Z"/><path class="cls-81" d="M343.8,1031.88c28.15-4,66.51,3.79,93.86,0s70,6.08,93.86,0,76.88,14.36,89.78-4.08H347.88V974.74c6.28-1.51,9.79,5.84,16.32,4.09C329.27,968.87,350.12,1003.47,343.8,1031.88Z"/><path class="cls-82" d="M621.3,1027.8c8.32-11.88-6.25-39.75,0-53.06-14.21-8.85-38.32,21.47-57.14,16.33s-48.6,5.87-69.37,4.08-48.56-.49-69.3-4.16-41.25-6.45-61.29-12.16c-6.53,1.75-10-5.6-16.32-4.09v53.06Z"/><path class="cls-83" d="M82.62,48.39c-3.43,1.71-8.08,6-12.24,8.16C7.12,89.4,39.65,175.55,33.65,240.19s3.67,151.48,0,220.36,3.83,150.26,0,220.37,6.57,151.24,0,220.37S41,1037.88,119.35,1036s143.24,0,220.36,0c.94-.21,2.66-3.88,4.09-4.08,6.32-28.41-14.53-63,20.4-53.05,20,5.71,40.56,8.44,61.29,12.16s48.53,2.36,69.3,4.16,50.56-9.22,69.37-4.08,42.93-25.18,57.14-16.33c16.65,10.41-12.41,58.85,16.32,57.14-6.37-37.18-.65-73.3,8.16-110.19,47.09-17.91,52.4-74,53.05-118.34,51.62,20.65,123.08,8.36,156.1-35.71S897,668.52,922.26,626.85s92.84-89.9,41.83-125.49c10.16-30.07-23.3-54.35-53.05-44.89-21.55-43.83-61,4.21-69.38,32.65-82.92-28-27.42,70.11-34.11,104.88s-20.73,115.49-76.07,99.16c14.08-51.46-63.13-42.36-78.48-68.43s50.65-46.16,57.75-78.8,69.82-40.36,65.62-85.38-1.63-88.27-53-97.94c-27.83-89.9-122.39-143.44-212.21-146.91-18.81-38.73,43.42-75.29,3.06-109.16s-81,15.91-72.43,56.11c27.87,2.9,27.5,32.12,20.4,53-89,1.1-188.9,53.75-216.29,142.83C154.08,357.14,162,535.19,249.94,534c20,40.6,57.7,72,102,77.54-31.63,7.67-55.3,23.05-94.15,28.28s-53.5,33.58-70.15,64.52-48.23,41.54-57.29,77.37S113,849.75,99,885.09s6.21,78.31,40.85,85.49,77.09-2.24,85.54-40.77-13.88-77.53,8.12-118.38,64.85,20.65,32.73,53.13c45.46,45.67,79.21,93.33,65.29,163.24-52.72.61-118.67.49-167.6.28s-115.28,5.27-122.1-53.38,2.29-107.77,0-167.27S42.34,691,41.81,632s-.9-116.63,0-175.48-2.94-116.59,0-175.47-6.94-116.23,0-175.48,71.46-54.85,122.43-53,120.55-1.23,175.47,0,118.92-1.47,175.48,0,118.63-2.74,175.48,0,119.41-5.8,175.48,0S973.68,35.24,1014,63.77s25.91,97.49,27.63,147.85-1.23,120.63,0,175.48-1.6,118.59,0,175.48-3,117.65,0,175.47-6.45,117.08,0,175.48-17.43,86-44.89,118.35c28.93-9.27,43-34.08,49-61.22,9.67-94-2.57-191,0-285.66s2.77-190.74,0-285.66,9.71-195.19,0-289.74C1030,38.84,967.88,41.49,902.88,44.3s-141.61-2.44-208.13,0-137.44-3.71-204,0S347.92,37,282.58,44.3s-139.48-18.11-200,4.09M470.3,113.68c1.84-.61,6.49.82,8.16,0,27.47-13.22,53.67,30.73,23.47,52s-67.05-40.44-31.63-52m24.49,73.46c4,9.14-3,23.05,0,32.64-5.23-1.14-14.29,3.1-16.33-4.08-5.55-8.73,4.17-27.1,0-36.73,6.57,0,18.08-2.4,16.33,8.17M711.07,403.42c3.27,26.94,4.82,58.89,0,85.7-1.18,50-33.17,95.49-81.61,110.18C565,618.89,490.54,611.55,421.33,611.55c-14.44,0-29.22-2.21-40.81-4.08-27.75,1.79-57.21-12.37-77.53-28.57-60.65-48.36-19.92-132.67-36.65-200s55-107.36,112.88-131.81,158.38-24.44,220.36,2.61S709.69,333.8,711.07,403.42m-453,8.16c1.67,11.67,4.49,26.41,4.08,40.81-.25,9.22-2.94,18-4.08,24.49-1.19,27.18-4.33,48.76-32.65,32.64-13-7.42-14.85-9.83-20.4-24.48-10.08-26.69-18.21-78.19,8.16-97.94a35.73,35.73,0,0,0,4.08-4.08c8-9.27,19.46-13.27,32.65-12.25,3.71,13.27,11.34,25.55,8.16,40.81m485.62-20.4c17.92,24.61,30.16,83.58,0,106.1a21.59,21.59,0,0,0-4.08,4.08c-3.59,5.88-8.28,13.39-16.32,12.25-1.8-22.53,7.14-42.36,4.08-65.3-.9-9.34-.25-24,0-32.65-1-15.14-5.92-28.93-4.08-44.89,8.28,4.33,21.1,8.7,20.4,20.41M858,513.61c-11-17.88,24-78.15,39.74-56.08S883,532.54,858,513.61m40.8,12.24c-10-23.39,35.51-73.46,48-48s-30.61,67.05-48,48M841.66,534c25.39.37,34.85,35.79,20.41,53,38.85-1.59,18.93-51.54-8.16-57.13,27.26-12.65,46.56,9,70.39,23.46s17.67,45-8.16,59.18-48.81,5-75.5-12.25S813.06,561.88,809,525.85s37.78-37.3,32.64,8.16m130.59-4.08c-3,14-12.45,28.65-24.48,36.73-4-7.55-7.31-17.31-16.33-20.41,5.39-12,13.84-30.16,28.57-32.64,13.79-3.51,14.65,4.89,12.24,16.32M894.71,648.27c-3.3,39-19.79,45.38-53.05,32.65-14.2-5.43-27.54-12.69-40.81-20.4.94-20.61,8.41-40.44,20.41-57.14,23.63,15,47,33.22,77.53,28.57,1.68,6.37-1.87,11-4.08,16.32m-481.54,4.09c44.44-4.17,90.27,12,134.67,0C564,648,566.41,640.23,576.41,632c35.78-29.67,96.14,15.79,101.12,62.11s7.67,122.26-3.18,170.5C657.17,940.87,517.27,927,454,925.77c-9.84-.2-21.63-3.42-28.57-4.08C356,920.31,292,910.51,286.66,831.91c-2.2-12.28-8.44-28.48,0-40.81,8.9-13,32.2-21.38,36.73-40.8-.69-5.23,0-11.06,0-16.33,0-10.85.41-21.79,0-32.64-1-25.47-9.18-43.91-28.57-61.22A93.85,93.85,0,0,1,319.31,632c19.79-4.9,41.58-2.45,61.21-8.16,6.08,15.87,24.2,17.34,32.65,28.57m151-28.57c-11.42,28.08-49.95,18.81-77.53,20.4s-61.75,2.25-85.7-12.24c15.79-16.4,51.25-5.75,77.53-8.16s58.85,1.79,85.7,0m-253,77.54c1.18,14.77-.82,27.42-4.08,40.8-5.27,21.55-16,47.18-44.89,40.81V754.38c-1.51-8.82-4.37-20.61-8.16-28.57-7.88-16.45-25.22-35.58-44.89-36.73,18.48-51.91,107.16-52.15,102,12.25m408.09-12.25c2.81,11.31,2.44,17.55,0,28.57-.58,14.45-6.74,26.12-16.33,36.73-8-11.8-8.81-29.43-8.16-44.89-3.06-21.43-13.47-41-20.4-61.22,21.18,1.27,45.42,16.9,44.89,40.81m122.42,8.16c10.41,4.09,20.94,5.23,32.65,4.09-.69,17.71-19.71,39.7-36.73,24.48-21.38-5.14-56.15-26.32-40.81-53,15.14,8.08,31.1,14.12,44.89,24.48M813.1,729.89c10.81,8,22.85,16.2,36.72,16.33-14.16,31.34-47.91,52-81.61,53-7-16.78-9.59-34.85-12.25-53,.17-18.57,4.08-48.49,28.57-49,5.35,13.31,16.77,24.78,28.57,32.65M245.85,742.13c9.51,28.53-3.87,43.63-20.4,65.3-8.77-6.08-16.89-14.37-24.49-20.41-12.93-7.83-29.38-15-44.88-16.32,6.2-43.91,76.92-101,89.77-28.57m501.95-20.4c-.32,16.12-1.1,32.89,0,49,.7,10.41,2.86,18.32,4.08,28.57-36,1.14-70.8-23.51-28.56-49,7.75-13.92,8.16-32.73,8.16-49,18.93-4.37,21.38,5,16.32,20.4M188.72,795.19c10.86,6.48,17.75,18.44,28.57,24.48-2.53,14-9.71,26.65-12.24,40.81-9.35-3.1-19.63-3.31-28.57-8.16-16.49-3.76-37.1-7.35-53,0-4.16-39.67,23.38-92.52,65.29-57.13m4.08,130.58c-3.71-2.49-7.51-4.57-12.24-4.08-2.28,10.29,4.86,25.71-4.08,32.65-22.57,40.93-47.79-15.59-36.73-36.73-8.49,5.39-18.73,13-16.32,24.49-22.85-12.2-16.24-56.07-4.16-73.54s65.09-6,80.43,5.43,24.4,70.39-6.9,72.19V925.77m436.66,0c-.13,60.65-98.47,58.77-146.91,57.14s-146.34.49-146.92-61.22C429.49,943.61,534.33,942.83,629.46,925.77Z"/><path class="cls-84" d="M70.38,56.55c4.16-2.17,8.81-6.45,12.24-8.16C75.44,51,75.93,52.55,70.38,56.55Z"/><path class="cls-1" d="M621.3,974.74c-6.25,13.31,8.32,41.18,0,53.06-12.9,18.44-65.91-2-89.78,4.08s-66.52-3.8-93.86,0-65.71-4-93.86,0c-1.43.2-3.15,3.87-4.09,4.08,72.4,0,148.34,2.49,220.37,0s149.65,6.69,220.37,0,149.85,17.22,216.29-4.08c27.46-32.37,51.33-60,44.89-118.35s3-117.65,0-175.48,1.59-118.59,0-175.47,1.22-120.64,0-175.48,1.71-125.12,0-175.48S1054.32,92.34,1014,63.77s-91.78-5.51-147.85-11.3-118.63,2.73-175.48,0-118.92,1.47-175.48,0-120.55,1.22-175.48,0-124.5,1.79-175.47,0S48.75,46.26,41.81,105.52s2.94,116.59,0,175.48.9,116.63,0,175.47-.53,116.47,0,175.48-2.33,116,0,175.48S35,916.1,41.85,974.7,115,1027.92,164,1028.08s114.88.33,167.6-.28c13.92-69.91-19.83-117.57-65.29-163.24,32.12-32.48-10.77-94-32.73-53.13s.33,79.86-8.12,118.38-50.93,47.91-85.54,40.77S85.11,920.39,99,885.09s22.25-67.58,31.35-103.37,40.68-46.4,57.29-77.37S219,645,257.81,639.83s62.52-20.61,94.15-28.28c-44.32-5.51-82-36.94-102-77.54-88,1.18-95.86-176.87-4.09-175.48C273.24,269.45,373.18,216.8,462.14,215.7c7.1-20.93,7.47-50.15-20.4-53-8.57-40.2,32.11-90,72.43-56.11S492.3,177,511.11,215.7c89.82,3.47,184.38,57,212.21,146.91,51.42,9.67,48.85,52.93,53,97.94s-58.52,52.77-65.62,85.38-73.09,52.72-57.75,78.8,92.56,17,78.48,68.43c55.34,16.33,69.37-64.43,76.07-99.16s-48.81-132.87,34.11-104.88c8.37-28.44,47.83-76.48,69.38-32.65,29.75-9.46,63.21,14.82,53.05,44.89,51,35.59-16.53,83.82-41.83,125.49s-34.32,96.72-67.33,140.79S750.45,824,698.83,803.35c-.65,44.32-6,100.43-53.05,118.34-8.81,36.89-14.53,73-8.16,110.19-28.73,1.71.33-46.73-16.32-57.14m89.77-816.17c4.09,4.08-6.57,12.36-10.93,6.77s8.16-9.55,10.93-6.77M192.8,166.73c7.63,7.75,11.14,19.18,20.41,24.49-4.53,9.83-16.16,14.77-20.41,24.48-9.3-6.41-18.65-15-24.48-24.48,10.77-4.9,12.93-19.67,24.48-24.49m706,61.21c-25.42,8.53-36.36,33-49,53.06,3.06-32.37-29.83-41.22-44.89-57.14,30.53,5.63,40.89-24.24,49-44.89,6.36,21.8,15.42,49.42,44.88,49m49,114.27c9.18,5.3,3,24.52-9.11,17.18s-1.95-23.59,9.11-17.18m-808,232.61c16.65,4.08,11.22,36.44-8.28,32.52s-12.08-37.54,8.28-32.52M911,860.48c5.14,7.88,12.24,16,20.4,20.4-3.92,28.65-43.34,31.1-44.89,0C896.39,876.35,901.32,864.72,911,860.48Z"/><path class="cls-85" d="M478.46,113.68c11.76,2.2,15.55,18.28,3.07,23.46s-19.14-17-11.23-23.46c-35.42,11.59,1.43,73.33,31.63,52S505.93,100.46,478.46,113.68Z"/><path class="cls-86" d="M478.46,113.68c-1.67.82-6.32-.61-8.16,0-7.91,6.41-1.26,28.65,11.23,23.46S490.22,115.88,478.46,113.68Z"/><path class="cls-87" d="M711.07,158.57c-2.77-2.78-15.3,1.18-10.93,6.77S715.16,162.65,711.07,158.57Z"/><path class="cls-88" d="M192.8,166.73c-11.55,4.82-13.71,19.59-24.48,24.49,5.83,9.5,15.18,18.07,24.48,24.48,4.25-9.71,15.88-14.65,20.41-24.48C203.94,185.91,200.43,174.48,192.8,166.73Z"/><path class="cls-89" d="M478.46,215.7h12.25c2.16-8.94-4.66-22.93,4.08-28.56,1.75-10.57-9.76-8.13-16.33-8.17C482.63,188.6,472.91,207,478.46,215.7Z"/><path class="cls-90" d="M898.79,227.94c-29.46.45-38.52-27.17-44.88-49-8.09,20.65-18.45,50.52-49,44.89,15.06,15.92,48,24.77,44.89,57.14C862.43,261,873.37,236.47,898.79,227.94Z"/><path class="cls-91" d="M478.46,215.7c2,7.18,11.1,2.94,16.33,4.08-3-9.59,4-23.5,0-32.64-8.74,5.63-1.92,19.62-4.08,28.56Z"/><path class="cls-92" d="M303,578.9c-22-25.75-45.63-68.76-20.41-106.1,8.16,61.62,53.63,119.28,118.35,126.5-1.92,8-14.69-.45-16.33,8.17,12.65,0,27.1,3.14,36.73,4.08,69.21,0,143.65,7.34,208.13-12.25-13.88,2.08-46.08,1.19-61.22-4.08,33.75-2.69,64.93-19.87,92.64-38s25.91-65.82,50.19-72.23c0-27.18.53-54.44,0-81.62-1.38-69.62-49.54-126.67-111.49-153.77S437.13,222.6,379.22,247,249.65,311.48,266.34,378.85s-24,151.69,36.65,200m106.1-253a191.7,191.7,0,0,1,40.81-4.08c53.83,0,159.72-16.16,198.94,25.51s43.38,134.38,8,185.48-134,26.28-194.66,33.87S326,547.11,327.51,472.76,328.9,343.64,409.09,325.88Z"/><path class="cls-93" d="M409.09,325.88c13-1.34,30.48-3.06,40.81-4.08A191.7,191.7,0,0,0,409.09,325.88Z"/><path class="cls-94" d="M409.09,325.88C328.9,343.64,329,398.4,327.51,472.76s73.95,101.49,134.63,93.9,159.2,17.18,194.66-33.87,31.26-143.77-8-185.48S503.73,321.8,449.9,321.8c-10.33,1-27.83,2.74-40.81,4.08M392.77,534c-9.88-4.2-18.45-3.67-28.57,0-20.65-25.63-31-73.13-28.57-106.1s22.9-69.75,53.38-85.38,90.88-8.73,126.18-8.48,92.6-3.84,119.29,19.46,31.75,72.93,31.7,107-11,70.19-45.78,80.72S539,566.17,498.87,558.49,400.19,576.45,392.77,534Z"/><path class="cls-95" d="M392.77,534c7.42,42.44,66,16.81,106.1,24.48s86.76-6.69,121.53-17.22,45.74-46.6,45.78-80.72-5-83.74-31.7-107-84-19.22-119.29-19.46-95.65-7.14-126.18,8.48-51,52.4-53.38,85.38,7.92,80.47,28.57,106.1c10.12-3.67,18.69-4.2,28.57,0M454,419.75a72.09,72.09,0,0,1,0,44.88c-10.73,31.75-42.69,32.73-53.05,0a73.56,73.56,0,0,1,0-44.88c11-34.77,42-34.94,53.05,0m155.07,0c4.49,14.24,3.72,26.85,0,40.8-8.77,32.81-40.15,39.06-53,4.08-5.39-14.6-4.53-30.56,0-44.88C566.86,385.38,598.16,385.3,609.05,419.75Z"/><path class="cls-96" d="M947.77,342.21c-11.06-6.41-21.23,9.83-9.11,17.18S957,347.51,947.77,342.21Z"/><path class="cls-97" d="M217.29,383c14.89,1.18,15.63,30.85,16.32,40.81,1.27,7.14,7.43,18.69,4.08,28.56,6.16-5.75,14.08-4.08,20.41,0-1.23-13.46.53-27.3,0-40.81,3.18-15.26-4.45-27.54-8.16-40.81C236.75,369.75,225.29,373.75,217.29,383Z"/><path class="cls-98" d="M727.4,415.66c.73,10.82-.57,21.8,0,32.65,2.36,1.63,10.32-2,12.24,0,0-16.36,6.33-43.3,4.08-57.13.7-11.71-12.12-16.08-20.4-20.41C721.48,386.73,726.38,400.52,727.4,415.66Z"/><path class="cls-99" d="M213.21,387.1c12.48,20.28,14.53,43.95,16.32,69.37-19.46-4.65-7.92,24.9-24.48,28.57,5.55,14.65,7.38,17.06,20.4,24.48-4.53-10.73,10.53-23.38,8.12-36.76s1-34.77,0-48.93c-.69-10-1.43-39.63-16.32-40.81A35.73,35.73,0,0,1,213.21,387.1Z"/><path class="cls-100" d="M205.05,485c16.56-3.67,5-33.22,24.48-28.57-1.79-25.42-3.84-49.09-16.32-69.37C186.84,406.85,195,458.35,205.05,485Z"/><path class="cls-101" d="M400.93,419.75c-2.21,12.2-2.21,32.68,0,44.88,10.36,32.73,42.32,31.75,53.05,0,2.37-11.95,2.16-32.89,0-44.88C442.92,384.81,411.91,385,400.93,419.75Z"/><path class="cls-102" d="M556,419.75c-2.12,11.71-2.57,33.25,0,44.88,12.9,35,44.28,28.73,53-4.08,1.63-11.59,2-29.3,0-40.8C598.16,385.3,566.86,385.38,556,419.75Z"/><path class="cls-103" d="M739.64,448.31v4.08c6.77,9.14,5.88,32.53,4.08,44.89,30.16-22.52,17.92-81.49,0-106.1C746,405,739.64,432,739.64,448.31Z"/><path class="cls-104" d="M711.07,485v4.08c4.82-26.81,3.27-58.76,0-85.7C711.6,430.6,711,457.86,711.07,485Z"/><path class="cls-105" d="M258.1,452.39c.08-.41,4.08,0,4.08,0,.41-14.4-2.41-29.14-4.08-40.81C258.63,425.09,256.87,438.93,258.1,452.39Z"/><path class="cls-106" d="M727.4,448.31c-.57-10.85.73-21.83,0-32.65C727.15,424.32,726.5,439,727.4,448.31Z"/><path class="cls-107" d="M400.93,464.63c-2.21-12.2-2.21-32.68,0-44.88A73.56,73.56,0,0,0,400.93,464.63Z"/><path class="cls-108" d="M454,464.63a72.09,72.09,0,0,0,0-44.88C456.14,431.74,456.35,452.68,454,464.63Z"/><path class="cls-109" d="M556,464.63c-2.57-11.63-2.12-33.17,0-44.88C551.47,434.07,550.61,450,556,464.63Z"/><path class="cls-110" d="M609.05,460.55c3.72-13.95,4.49-26.56,0-40.8C611.09,431.25,610.68,449,609.05,460.55Z"/><path class="cls-111" d="M225.45,509.52c28.32,16.12,31.46-5.46,32.65-32.64.32-7.76-1.59-16.9,0-24.49-6.33-4.08-14.25-5.75-20.41,0,3.35-9.87-2.81-21.42-4.08-28.56,1,14.16-2.45,35.54,0,48.93S220.92,498.79,225.45,509.52Z"/><path class="cls-112" d="M739.64,501.36c-4.24-13.22,0-35,0-49v-4.08c-1.92-2-9.88,1.63-12.24,0,3.06,22.94-5.88,42.77-4.08,65.3C731.36,514.75,736.05,507.24,739.64,501.36Z"/><path class="cls-113" d="M258.1,476.88c1.14-6.53,3.83-15.27,4.08-24.49,0,0-4-.41-4.08,0C256.51,460,258.42,469.12,258.1,476.88Z"/><path class="cls-114" d="M739.64,501.36a21.59,21.59,0,0,1,4.08-4.08c1.8-12.36,2.69-35.75-4.08-44.89C739.64,466.39,735.4,488.14,739.64,501.36Z"/><path class="cls-115" d="M858,513.61c25,18.93,55.46-34,39.74-56.08S847,495.73,858,513.61Z"/><path class="cls-116" d="M898.79,525.85c17.35,19.1,60.4-22.45,48-48S888.76,502.46,898.79,525.85Z"/><path class="cls-117" d="M303,578.9c20.32,16.2,49.78,30.36,77.53,28.57a36.71,36.71,0,0,1,4.08,0c1.64-8.62,14.41-.13,16.33-8.17-64.72-7.22-110.19-64.88-118.35-126.5C257.36,510.14,281,553.15,303,578.9Z"/><path class="cls-118" d="M629.46,599.3c48.44-14.69,80.43-60.23,81.61-110.18V485c-24.28,6.41-22.52,54.15-50.19,72.23s-58.89,35.26-92.64,38C583.38,600.49,615.58,601.38,629.46,599.3Z"/><path class="cls-119" d="M841.66,534c5.14-45.46-36.64-44.24-32.64-8.16s5,57.17,31.62,74.47,49.63,26.41,75.5,12.25,32-44.65,8.16-59.18-43.13-36.11-70.39-23.46c27.09,5.59,47,55.54,8.16,57.13C876.51,569.8,867.05,534.38,841.66,534Z"/><path class="cls-120" d="M960,513.61c10.65.93,12,6.4,12.24,16.32C974.66,518.5,973.8,510.1,960,513.61Z"/><path class="cls-121" d="M972.25,529.93C972,520,970.66,514.54,960,513.61c-14.73,2.48-23.18,20.64-28.57,32.64,9,3.1,12.37,12.86,16.33,20.41C959.8,558.58,969.27,543.93,972.25,529.93Z"/><path class="cls-122" d="M139.75,574.82c-20.36-5-27.75,28.65-8.28,32.52S156.4,578.9,139.75,574.82Z"/><path class="cls-123" d="M841.66,680.92c18.2-2.49,21.35-30.24,24.49-44.89,10.49,3.35,22.44,2.61,28.56,12.24,2.21-5.34,5.76-9.95,4.08-16.32-30.48,4.65-53.9-13.55-77.53-28.57-12,16.7-19.47,36.53-20.41,57.14C814.12,668.23,827.46,675.49,841.66,680.92Z"/><path class="cls-124" d="M421.33,611.55c-9.63-.94-24.08-4.08-36.73-4.08a36.71,36.71,0,0,0-4.08,0C392.11,609.34,406.89,611.55,421.33,611.55Z"/><path class="cls-125" d="M319.31,632c24.12,24.69,62.19,23.38,93.86,20.41-8.45-11.23-26.57-12.7-32.65-28.57C360.89,629.5,339.1,627.05,319.31,632Z"/><path class="cls-126" d="M564.16,623.79c-26.85,1.79-59.41-2.41-85.7,0s-61.74-8.24-77.53,8.16c23.95,14.49,58.11,13.83,85.7,12.24S552.74,651.87,564.16,623.79Z"/><path class="cls-127" d="M576.41,632c20.48,1.18,47.25-3.22,61.21,12.24-26.57,11.63-62.72,18.08-89.78,8.17-44.4,12-90.23-4.17-134.67,0-31.67,3-69.74,4.28-93.86-20.41a93.85,93.85,0,0,0-24.49,8.16c19.39,17.31,27.59,35.75,28.57,61.22a115.13,115.13,0,0,1,0,32.64c0,5.27-.69,11.1,0,16.33,4.9,36-2,95.86,25.51,125.48S438,895,478.46,897.21s101.5,3.63,139-12S635,806.08,674.35,791.1c5.34,24.9-9.14,52.57,0,73.46,10.85-48.24,8.12-124.14,3.18-170.5S612.19,602.28,576.41,632m44.89,106.1c3.55,14.33,1.3,27.3,0,40.81,0,45.75,4,76.48-49,77.54-40.64,4.9-99.65,12.12-142.83,4.08-50.52-9.39-36.81-71.33-36.72-114.26s65.7-47.42,106.1-40.81S608.2,685.21,621.3,738.05Z"/><path class="cls-128" d="M547.84,652.36c27.06,9.91,63.21,3.46,89.78-8.17-14-15.46-40.73-11.06-61.21-12.24C566.41,640.23,564,648,547.84,652.36Z"/><path class="cls-129" d="M841.66,680.92c33.26,12.73,49.75,6.33,53.05-32.65-6.12-9.63-18.07-8.89-28.56-12.24C863,650.68,859.86,678.43,841.66,680.92Z"/><path class="cls-130" d="M254,725.81c-.86-.24,9.42-20.4,20.52-16.2s26.28-6.86,36.61-8.28c5.14-64.4-83.54-64.16-102-12.25C228.8,690.23,246.14,709.36,254,725.81Z"/><path class="cls-131" d="M694.75,709.49c.12-5.8,6.69-16.49,0-24.49,22.65-11.18,17.75,12.61,24.49,24.49,0-6.7.61-13.71,0-20.41.53-23.91-23.71-39.54-44.89-40.81C681.28,668.52,691.69,688.06,694.75,709.49Z"/><path class="cls-132" d="M837.58,725.81c12.49-4,10.29-21.26,4.08-28.57-13.79-10.36-29.75-16.4-44.89-24.48C781.43,699.49,816.2,720.67,837.58,725.81Z"/><path class="cls-133" d="M694.75,709.49c-.65,15.46.16,33.09,8.16,44.89,9.59-10.61,15.75-22.28,16.33-36.73.08-2,0-6.12,0-8.16-6.74-11.88-1.84-35.67-24.49-24.49C701.44,693,694.87,703.69,694.75,709.49Z"/><path class="cls-134" d="M719.24,709.49c0,2,.08,6.12,0,8.16,2.44-11,2.81-17.26,0-28.57C719.85,695.78,719.24,702.79,719.24,709.49Z"/><path class="cls-92" d="M756,746.22c.66,2.44,7.23,7.26,4.08,12.24,19.23,3.26,57.34-6.21,53.06-28.57-11.8-7.87-23.22-19.34-28.57-32.65C760,697.73,756.13,727.65,756,746.22Z"/><path class="cls-135" d="M837.58,725.81c17,15.22,36-6.77,36.73-24.48-11.71,1.14-22.24,0-32.65-4.09C847.87,704.55,850.07,721.85,837.58,725.81Z"/><path class="cls-136" d="M201,787c9.31-18.56,26.41-35.83,44.89-44.89-12.85-72.47-83.57-15.34-89.77,28.57C171.58,772,188,779.19,201,787Z"/><path class="cls-137" d="M254,725.81c3.79,8,6.65,19.75,8.16,28.57.9-2.66,7.06-7.1,4.08-12.25h40.81c3.26-13.38,5.26-26,4.08-40.8-10.33,1.42-25.55,12.44-36.61,8.28S253.16,725.57,254,725.81Z"/><path class="cls-138" d="M323.39,734a115.13,115.13,0,0,0,0-32.64C323.8,712.18,323.39,723.12,323.39,734Z"/><path class="cls-139" d="M723.32,750.3c2-.33,19,6,20.4,8.16-1.14-13.18,2.74-26.61,4.08-36.73,5.06-15.39,2.61-24.77-16.32-20.4C731.48,717.57,731.07,736.38,723.32,750.3Z"/><path class="cls-94" d="M429.49,860.48c41.18,3.75,98.07-3.18,142.83-4.08,52.93-1.06,49-31.79,49-77.54,0-13.26,1.63-27.67,0-40.81-13.1-52.84-82-26-122.43-32.64s-106-2.13-106.1,40.81S379,851.09,429.49,860.48M596.81,717.65c28.4,11.55,7.55,69.41,12.24,97.94S555,853.46,527.43,844.16,446,858.85,418.6,842.81s-10.16-65-13.59-96.59,53.5-35.67,81.62-28.57S569,706.34,596.81,717.65Z"/><path class="cls-140" d="M596.81,717.65c-27.83-11.31-82.07,7.1-110.18,0s-85.05-3-81.62,28.57-13.79,80.55,13.59,96.59,81.29-8,108.83,1.35,86.32,0,81.62-28.57,16.16-86.39-12.24-97.94M458.06,746.22c9.88,5.79-3.22,26.52-17.22,17.22s2.94-25.59,17.22-17.22m130.59,4.08c.57,17.58-21.55,11-32.65,12.24-3.67-22.57,20.32-14.41,32.65-12.24m-40.81,0c-6.9,26.07-54.24,5.87-77.54,12.24,6.9-26.08,54.24-5.88,77.54-12.24m-89.78,44.89c-17,25.09-27.1-15.47,0,0M454,815.59C449.37,836.61,425.49,809.88,454,815.59Z"/><path class="cls-141" d="M743.72,758.46c.53,6,3,8.4,4.08,12.24-1.1-16.08-.32-32.85,0-49C746.46,731.85,742.58,745.28,743.72,758.46Z"/><path class="cls-142" d="M756,746.22c2.66,18.2,5.27,36.27,12.25,53,33.7-1.06,67.45-21.71,81.61-53-13.87-.13-25.91-8.29-36.72-16.33,4.28,22.36-33.83,31.83-53.06,28.57C763.19,753.48,756.62,748.66,756,746.22Z"/><path class="cls-143" d="M621.3,778.86c1.3-13.51,3.55-26.48,0-40.81C622.93,751.19,621.3,765.6,621.3,778.86Z"/><path class="cls-144" d="M201,787c7.6,6,15.72,14.33,24.49,20.41,16.53-21.67,29.91-36.77,20.4-65.3C227.37,751.19,210.27,768.46,201,787Z"/><path class="cls-145" d="M262.18,754.38v28.56c28.93,6.37,39.62-19.26,44.89-40.81H266.26C269.24,747.28,263.08,751.72,262.18,754.38Z"/><path class="cls-146" d="M458.06,746.22c-14.28-8.37-31.22,7.87-17.22,17.22S467.94,752,458.06,746.22Z"/><path class="cls-147" d="M588.65,750.3C576.32,748.13,552.33,740,556,762.54,567.1,761.31,589.22,767.88,588.65,750.3Z"/><path class="cls-148" d="M286.66,791.1c.7,13.55-.94,27.27,0,40.81,5.35,78.6,69.38,88.4,138.75,89.78,9.84.21,21.63,3.43,28.57,4.08,63.29,1.27,203.19,15.1,220.37-61.21-9.14-20.89,5.34-48.56,0-73.46-39.38,15-19.31,78.6-56.85,94.15s-98.59,14.16-139,12-102,8.2-129.56-21.43-20.61-89.45-25.51-125.48C318.86,769.72,295.56,778.13,286.66,791.1Z"/><path class="cls-149" d="M547.84,750.3c-23.3,6.36-70.64-13.84-77.54,12.24C493.6,756.17,540.94,776.37,547.84,750.3Z"/><path class="cls-150" d="M747.8,770.7c-1.1-3.84-3.55-6.24-4.08-12.24-1.39-2.17-18.36-8.49-20.4-8.16-42.24,25.46-7.43,50.11,28.56,49C750.66,789,748.5,781.11,747.8,770.7Z"/><path class="cls-151" d="M176.48,852.32c-5.88-16.69,22.08-43.79,12.24-57.13-41.91-35.39-69.45,17.46-65.29,57.13C139.38,845,160,848.56,176.48,852.32Z"/><path class="cls-152" d="M286.66,831.91c-.94-13.54.7-27.26,0-40.81C278.22,803.43,284.46,819.63,286.66,831.91Z"/><path class="cls-153" d="M176.48,852.32c8.94,4.85,19.22,5.06,28.57,8.16,2.53-14.16,9.71-26.81,12.24-40.81-10.82-6-17.71-18-28.57-24.48C198.56,808.53,170.6,835.63,176.48,852.32Z"/><path class="cls-154" d="M429.49,860.48c43.18,8,102.19.82,142.83-4.08C527.56,857.3,470.67,864.23,429.49,860.48Z"/><path class="cls-155" d="M176.48,954.34c3.18-8.69-7.43-40.48,12.24-36.73-8-7.38-12.53-.53-20.4,4.08-2.49-17.34,3.38-32.36,4.08-49,24.57-1.1,34.11,22.37,32.65,44.89-4.09.45-11.15-1.92-12.25,4.08a6.61,6.61,0,0,1,0,4.08v20.41c31.3-1.8,22.24-60.85,6.9-72.19s-68.4-22.94-80.43-5.43-18.69,61.34,4.16,73.54c-2.41-11.51,7.83-19.1,16.32-24.49C128.69,938.75,153.91,995.27,176.48,954.34Z"/><path class="cls-156" d="M911,860.48c-9.72,4.24-14.65,15.87-24.49,20.4,1.55,31.1,41,28.65,44.89,0C923.28,876.44,916.18,868.36,911,860.48Z"/><path class="cls-157" d="M188.72,917.61c1.06,1,3.59,3,4.08,4.08,1.1-6,8.16-3.63,12.25-4.08,1.46-22.52-8.08-46-32.65-44.89-.7,16.61-6.57,31.63-4.08,49C176.19,917.08,180.76,910.23,188.72,917.61Z"/><path class="cls-158" d="M176.48,954.34c8.94-6.94,1.8-22.36,4.08-32.65,4.73-.49,8.53,1.59,12.24,4.08a6.61,6.61,0,0,0,0-4.08c-.49-1.06-3-3.1-4.08-4.08C169.05,913.86,179.66,945.65,176.48,954.34Z"/><path class="cls-159" d="M629.46,925.77c-95.13,17.06-200,17.84-293.83-4.08.58,61.71,98.48,59.58,146.92,61.22S629.33,986.42,629.46,925.77Z"/><path class="cls-160" d="M454,925.77c-6.94-.65-18.73-3.87-28.57-4.08C432.35,922.35,444.14,925.57,454,925.77Z"/><path class="cls-161" d="M343.8,1031.88c28.15-4,66.51,3.79,93.86,0s70,6.08,93.86,0,76.88,14.36,89.78-4.08H347.88V974.74c6.28-1.51,9.79,5.84,16.32,4.09C329.27,968.87,350.12,1003.47,343.8,1031.88Z"/><path class="cls-162" d="M621.3,1027.8c8.32-11.88-6.25-39.75,0-53.06-14.21-8.85-38.32,21.47-57.14,16.33s-48.6,5.87-69.37,4.08-48.56-.49-69.3-4.16-41.25-6.45-61.29-12.16c-6.53,1.75-10-5.6-16.32-4.09v53.06Z"/></svg>