<svg id="Layer_1" data-name="Layer 1" xmlns="http://www.w3.org/2000/svg" viewBox="0 0 1080 1080"><defs><style>.cls-1{fill:#0c1523;}.cls-10,.cls-11,.cls-12,.cls-13,.cls-14,.cls-15,.cls-16,.cls-17,.cls-18,.cls-19,.cls-2,.cls-20,.cls-21,.cls-22,.cls-23,.cls-24,.cls-25,.cls-26,.cls-27,.cls-28,.cls-29,.cls-3,.cls-4,.cls-5,.cls-6,.cls-7,.cls-8,.cls-9{fill:none;stroke-width:1.22px;}.cls-2{stroke:#0c1623;}.cls-3{stroke:#0a0c12;}.cls-4{stroke:#1e4487;}.cls-5{stroke:#247fc2;}.cls-6{stroke:#80a5d6;}.cls-7{stroke:#1177b6;}.cls-8{stroke:#e5e5e6;}.cls-9{stroke:#52c4db;}.cls-10{stroke:#a8dee8;}.cls-11{stroke:#5fa2d4;}.cls-12{stroke:#0d6bb1;}.cls-13{stroke:#a88fc3;}.cls-14{stroke:#56baea;}.cls-15{stroke:#0d60a8;}.cls-16{stroke:#1f94c2;}.cls-17{stroke:#1b8cc0;}.cls-18{stroke:#ddb489;}.cls-19{stroke:#2fa7cb;}.cls-20{stroke:#96b4d7;}.cls-21{stroke:#1a4581;}.cls-22{stroke:#58c5da;}.cls-23{stroke:#fcfdfd;}.cls-24{stroke:#1a8fc3;}.cls-25{stroke:#3188c0;}.cls-26{stroke:#6db4de;}.cls-27{stroke:#a88dc2;}.cls-28{stroke:#286093;}.cls-29{stroke:#578dca;}.cls-30{fill:#0c1623;}.cls-31{fill:#0a0c12;}.cls-32{fill:#1e4487;}.cls-33{fill:#247fc2;}.cls-34{fill:#80a5d6;}.cls-35{fill:#1177b6;}.cls-36{fill:#e5e5e6;}.cls-37{fill:#52c4db;}.cls-38{fill:#a8dee8;}.cls-39{fill:#5fa2d4;}.cls-40{fill:#0d6bb1;}.cls-41{fill:#a88fc3;}.cls-42{fill:#56baea;}.cls-43{fill:#0d60a8;}.cls-44{fill:#1f94c2;}.cls-45{fill:#1b8cc0;}.cls-46{fill:#ddb489;}.cls-47{fill:#2fa7cb;}.cls-48{fill:#96b4d7;}.cls-49{fill:#1a4581;}.cls-50{fill:#58c5da;}.cls-51{fill:#fcfdfd;}.cls-52{fill:#1a8fc3;}.cls-53{fill:#3188c0;}.cls-54{fill:#6db4de;}.cls-55{fill:#a88dc2;}.cls-56{fill:#286093;}.cls-57{fill:#578dca;}</style></defs><title>avatar-comet</title><rect class="cls-1" width="1080" height="1080"/><path class="cls-2" d="M995,1032.21c4.86-4.57,11.63-50.44,28.57-24.49,10.73-9.67,2.36-10.24,0-20.4,29.62-20.12,13.59-70.27,16.32-110.19s-1.18-88.71,0-130.58-.49-87.87,0-130.59-.08-87.54,0-130.59.28-87.49,0-130.59.82-87.74,0-130.59,3.71-85.57-4.08-126.5c-3.76-3.06-18.94,1.55-16.33-12.25,5.64-5.55,10.33,1.35,16.33-4.08-34.57-67.62-123.53-34.73-191.8-40.81s-159.24,4.09-232.61,0-156.91,4.78-232.61,0-151.16,8.78-228.53,0S22.89,76.83,32,154.82,27.3,311.93,32,387.43,28.69,544.05,32,616s-4,167.31,0,232.61S8.24,1010.7,80.64,1032.49s149.81-2,224.73,3.8,157.6.2,232.61,0,159.2,6.41,232.61,0,156.26,19.26,224.45-4.08M897.1,379.27c5.63-2.86,9.14-9.31,16.32-8.16.86,7.22-6.28,13.75-12.24,16.32C801.36,503.82,660.33,583,558.39,697.58c34-15,69.08-24,100.79-46.12s87.05-35.18,49.26-3.79-54.07,34.4-87.82,59.09-59.54,37.46-91.82,59.17-58.19,36.24-89.7,57.21-61.29,37.55-93.86,57.14-83,28.68-120.18,16-64-32.73-84.15-66.84S121.28,740.06,138,705.66s38.36-57.22,61-85.95,46-54.6,69.38-81.62,45.34-51.86,68.76-78.14,51-50.2,75.41-75.58,48.36-48.48,73.46-73.46,53.42-47.42,79.58-71.41,49.66-56.6,82.64-68.36c-55.79,71.25-131.45,130.59-175.48,208.13,105.69-69.13,206.53-152.71,310.14-224.45,15.14,28,42-24.28,70.32-31.71s65.33-49.26,101.08-33.59-10.57,54.69-25.71,76.32-45.38,48.6-63,71.62S824.13,290.39,807.32,314c30.77-22.28,66.44-47.82,94.88-72.43s90.23-57.58,59.17-18.37-58,50.93-85.7,85.7-52.19,54.73-81.61,85.7-56.44,57.21-80.6,90.8c63.66-28.08,123.89-68.56,183.64-106.1M774.67,109.93c-1,22.81-22.93,1.26,0,0m-40.81,20.4c-.81,10.37-14.08,25.79-24.48,16.33,5.38-8.49,13-18.73,24.48-16.33M489,142.58c16,6.24,1.88,37.54-15,27.22s-3.38-34.37,15-27.22M256.4,163c4.16,30.77,26.24,53,57.13,57.13-31,10.65-52.56,32.53-57.13,65.3-7.63-30-24.12-61.38-61.21-61.22,30.73-9.14,53.7-29.5,61.21-61.21M403.31,273.16c13.84,23.84-27.58,11.55,0,0m563.16,49c-24.81,3.15-1.26-25.05,0,0M174.78,358.86c11.92,3.31,6.82,28.61-6.93,23s-10.41-27.83,6.93-23M150.3,513.94c21.5,6.65,10.93,47.33-13.14,37.62s-12.33-45.5,13.14-37.62m685.59,16.32c4.2,25.91-26.29-3.75,0,0m89.77,24.48c17,4.33,12.17,38.57-8.2,32.61s-12-37.79,8.2-32.61m-151,36.73c-.2,12.16-14,19.18-24.48,20.41,1-10.94,12.81-22.49,24.48-20.41m102,134.67c2.53,23.83,16.86,48.28,44.89,44.89-17.87,13.47-39.7,28.69-49,53.05,1.92-30.28-31.26-38.36-44.89-53.05,27.92,4,41.3-25.71,49-44.89M729.78,767c-32.93,2.24,2-33.1,0,0m-102,97.94c33.26,5.27,28.2,62.44-8.2,57.09s-25.75-62.48,8.2-57.09M840,905.7c12.93,3.1,8.81,29.26-6.86,23.1s-2.65-25.39,6.86-23.1M138.06,926.1c7.55,3.35,2.48,19.23-6.94,14.86s-1.55-18.65,6.94-14.86m285.66,4.09c10.08,2,9.22,24-4.21,20.28S411.64,927.74,423.72,930.19Z"/><path class="cls-3" d="M995,1032.21c29.46-10.08,46.93-35.26,49-65.3,9.63-141.24,2-286.76,0-428.49s14.49-291.58,0-432.57c-2.16-9.8-4-16.41-8.16-24.49-6,5.43-10.69-1.47-16.33,4.08-2.61,13.8,12.57,9.19,16.33,12.25,7.79,40.93,3.26,83.65,4.08,126.5s-.29,87.5,0,130.59.08,87.54,0,130.59.49,87.86,0,130.59,1.18,88.72,0,130.59,2.73,90.67,0,130.58,13.3,90.07-16.32,110.19c2.36,10.16,10.73,10.73,0,20.4C1006.67,981.77,999.9,1027.64,995,1032.21Z"/><path class="cls-4" d="M901.18,387.43c0,8.45-11.79-11-4.08-8.16-59.75,37.54-120,78-183.64,106.1,24.16-33.59,51.17-59.79,80.6-90.8s53.9-50.89,81.61-85.7,54.69-46.48,85.7-85.7-30.77-6.28-59.17,18.37S838.09,291.69,807.32,314c16.81-23.58,40.44-53.54,58.15-76.51s47.87-50,63-71.62S990,105.2,954.23,89.52s-72.72,26.16-101.08,33.59S798,182.85,782.83,154.82C679.22,226.56,578.38,310.14,472.69,379.27c44-77.54,119.69-136.88,175.48-208.13-33,11.76-56.48,44.36-82.64,68.36S511,285.94,486,310.91s-49.05,48-73.46,73.46-52,49.3-75.41,75.58-45.42,51.13-68.76,78.14S221.51,591,198.94,619.71s-44.32,51.5-61,85.95-17.26,89.65,2.94,123.73,47.05,54.07,84.15,66.84,87.62,3.63,120.18-16,62.36-36.16,93.86-57.14,57.46-35.46,89.7-57.21,58.11-34.48,91.82-59.17,50-27.71,87.82-59.09-17.59-18.33-49.26,3.79-66.8,31.1-100.79,46.12C660.33,583,801.36,503.82,901.18,387.43M460.44,722.06C484.77,707,513.82,700.35,538,685.33c-55.91,53.46-117,102.43-179.56,146.91-73.7,50.57-178.54,50.48-200-53-2.29-11.06-2.24-17.71,0-28.56,6.61-32,20.32-55.67,40.81-81.62,74.35-94.19,179.27-167.15,265.26-244.85a383,383,0,0,1-32.65,44.89c33.79-26.28,80.07-64.4,110.18-102,3-3.71,3.31-6.4,8.16-8.16,8.49-3.1-.28,28.69-12.57,32.32s-24,23.43-28.23,33c7.71.24,13.42-5.8,20.4-8.17,13.22-7.26,22.65-18.69,36.73-24.48C662.82,295.24,777.86,218,893,146.66,794.87,268.35,690.65,389.75,603.28,518c39.46-15.51,71.66-48.08,110.18-65.3-74.4,96.23-177.76,182.5-253,269.34M615.52,309.89c-1.35,22-20.94,3.14,0,0m183.64,36.73c-1.43,15.47-20.2,21.06-32.65,24.49C775.08,361.07,784,344.87,799.16,346.62Z"/><path class="cls-5" d="M733.86,130.33c-11.46-2.4-19.1,7.84-24.48,16.33C719.78,156.12,733.05,140.7,733.86,130.33Z"/><path class="cls-6" d="M489,142.58c-18.36-7.15-31.87,16.85-15,27.22S505.05,148.82,489,142.58Z"/><path class="cls-7" d="M566.55,391.51c9.55-3.92,19-4.33,28.56-8.16C658.9,357.72,703.87,292.87,766.51,265,666.32,372.57,585.77,491.65,493.09,603.72c-1.71,4.08-5.18,7.22-4.08,12.24,42.65-17.71,77-50.81,118.35-69.38C553.69,606.37,506.56,677.38,440,726.14c-2.82,4.29-4.16,5.39-8.16,8.16-.33.13,17.95-5.67,28.56-12.24,75.26-86.84,178.62-173.11,253-269.34-38.52,17.22-70.72,49.79-110.18,65.3C690.65,389.75,794.87,268.35,893,146.66,777.86,218,662.82,295.24,566.55,391.51Z"/><path class="cls-8" d="M256.4,163c-7.51,31.71-30.48,52.07-61.21,61.21,37.09-.16,53.58,31.18,61.21,61.22,4.57-32.77,26.16-54.65,57.13-65.3C282.64,216,260.56,193.75,256.4,163Z"/><path class="cls-9" d="M595.11,383.35c-31.38,29.58-54.11,53.33-89.78,73.45-22.11,12.49-47.29,31-65.29,49-38.77,38.77-81.58,69.5-122.43,106.11,8-19.18,19.92-37.63,28.57-57.14-20.85,9.23-38.6,40.41-58.07,52.12s-43.3,54.35-52.11,25.42c-10.37,13.47-23.22,26.77-36.73,36.73-20.49,26-34.2,49.62-40.81,81.62a174.58,174.58,0,0,0,0,28.56c21.42,103.53,126.26,103.62,200,53,28.08-31,38.73-73.94,73.46-97.94,4-2.77,5.34-3.87,8.16-8.16,15.14-23,30.36-46,44.89-69.37C410.17,684.35,382.3,789.23,309.45,824.08,272.07,842,223,843.51,198.25,800.62s7.14-83.66,33.67-115.29c34.72-41.42,69.13-79,102-118.34-7,30.81-34,53-44.89,81.61,101.77-61.86,194.29-142.78,289.74-216.28-6.65-15.75,32-34.12,50-52s46.69-41.46,68.36-54.07C582.63,445.91,460.24,562.29,387,705.74c19.42-11.27,43.83-17.47,57.13-36.73-4,.37-8.2-.29-12.24,0,22.52-20.89,35.3-50.15,61.21-65.29C585.77,491.65,666.32,372.57,766.51,265,703.87,292.87,658.9,357.72,595.11,383.35Z"/><path class="cls-10" d="M231.92,685.33c33-16.69,97.12-20.4,113.93,20.73s-.81,96.48-36.4,118c72.85-34.85,100.72-139.73,175.48-167.31.9-1.47,0-4.08,0-4.08-2.53-6.7-8-1.64-12.24,0-8.65,6.44-20.12,9.71-28.57,16.32-13.3,19.26-37.71,25.46-57.13,36.73,73.25-143.45,195.64-259.83,310.15-379.52-21.67,12.61-50.32,36.15-68.36,54.07s-56.64,36.28-50,52c-95.45,73.5-188,154.42-289.74,216.28C300,620,326.92,597.8,333.94,567,301.05,606.33,266.64,643.91,231.92,685.33Z"/><path class="cls-11" d="M799.16,346.62c-15.18-1.75-24.08,14.45-32.65,24.49C779,367.68,797.73,362.09,799.16,346.62Z"/><path class="cls-12" d="M550.22,358.86c6.57-2.32-13.42,29.43-8.16,8.16-30.11,37.63-76.39,75.75-110.18,102-9.84,11.38-25.38,23.83-24.49,40.81,12.16-7.23,22.28,9.34,32.65-4.09,18-18,43.18-36.48,65.29-49,17.35-15.14,18.57-31.09,24.49-40.81-7,2.37-12.69,8.41-20.4,8.17,4.2-9.55,15.91-29.34,28.23-33S558.71,355.76,550.22,358.86Z"/><path class="cls-13" d="M174.78,358.86c-17.34-4.81-20.65,17.47-6.93,23S186.7,362.17,174.78,358.86Z"/><path class="cls-14" d="M542.06,367c-5.26,21.27,14.73-10.48,8.16-8.16C545.37,360.62,545,363.31,542.06,367Z"/><path class="cls-15" d="M897.1,379.27c-7.71-2.82,4.08,16.61,4.08,8.16,6-2.57,13.1-9.1,12.24-16.32C906.24,370,902.73,376.41,897.1,379.27Z"/><path class="cls-16" d="M566.55,391.51C552.47,397.3,543,408.73,529.82,416c-5.92,9.72-7.14,25.67-24.49,40.81,35.67-20.12,58.4-43.87,89.78-73.45C585.52,387.18,576.1,387.59,566.55,391.51Z"/><path class="cls-17" d="M199.27,669c13.51-10,26.36-23.26,36.73-36.73,8.81,28.93,32.64-13.71,52.11-25.42s37.22-42.89,58.07-52.12c-8.65,19.51-20.61,38-28.57,57.14,40.85-36.61,83.66-67.34,122.43-106.11-10.37,13.43-20.49-3.14-32.65,4.09-.89-17,14.65-29.43,24.49-40.81a383,383,0,0,0,32.65-44.89c-86,77.7-190.91,150.66-265.26,244.85m191.8-163.24C392.33,538.26,363.61,512,391.07,505.77Z"/><path class="cls-18" d="M150.3,513.94c-25.47-7.88-37.26,27.91-13.14,37.62S171.8,520.59,150.3,513.94Z"/><path class="cls-19" d="M493.09,603.72c-25.91,15.14-38.69,44.4-61.21,65.29,4-.29,8.2.37,12.24,0,8.45-6.61,19.92-9.88,28.57-16.32,24.56-18.25,47.62-42.12,77.53-53.06-15,22-47,32.9-65.29,53.06,0,0,.9,2.61,0,4.08-14.53,23.34-29.75,46.36-44.89,69.37,66.52-48.76,113.65-119.77,167.32-179.56C566,565.15,531.66,598.25,489,616,487.91,610.94,491.38,607.8,493.09,603.72Z"/><path class="cls-20" d="M925.66,554.74c-20.2-5.18-28.56,26.65-8.2,32.61S942.68,559.07,925.66,554.74Z"/><path class="cls-21" d="M774.67,591.47c-11.67-2.08-23.5,9.47-24.48,20.41C760.63,610.65,774.47,603.63,774.67,591.47Z"/><path class="cls-22" d="M472.69,652.69c4.28-1.64,9.71-6.7,12.24,0,18.32-20.16,50.32-31.06,65.29-53.06C520.31,610.57,497.25,634.44,472.69,652.69Z"/><path class="cls-23" d="M231.92,685.33c-26.53,31.63-58.48,72.44-33.67,115.29s73.82,41.34,111.2,23.46c35.59-21.54,53.22-76.88,36.4-118S264.93,668.64,231.92,685.33Z"/><path class="cls-24" d="M460.44,722.06c-10.61,6.57-28.89,12.37-28.56,12.24-34.73,24-45.38,67-73.46,97.94C420.94,787.76,482.07,738.79,538,685.33,513.82,700.35,484.77,707,460.44,722.06Z"/><path class="cls-8" d="M876.69,726.14C869,745.32,855.64,775,827.72,771c13.63,14.69,46.81,22.77,44.89,53.05,9.27-24.36,31.1-39.58,49-53.05C893.55,774.42,879.22,750,876.69,726.14Z"/><path class="cls-25" d="M158.46,779.19a174.58,174.58,0,0,1,0-28.56C156.22,761.48,156.17,768.13,158.46,779.19Z"/><path class="cls-26" d="M627.76,864.89c-34-5.39-44.56,51.79-8.2,57.09S661,870.16,627.76,864.89Z"/><path class="cls-27" d="M840,905.7c-9.51-2.29-22.53,16.94-6.86,23.1S852.9,908.8,840,905.7Z"/><path class="cls-28" d="M138.06,926.1c-8.49-3.79-16.33,10.53-6.94,14.86S145.61,929.45,138.06,926.1Z"/><path class="cls-29" d="M423.72,930.19c-12.08-2.45-17.63,16.52-4.21,20.28S433.8,932.23,423.72,930.19Z"/><path class="cls-30" d="M995,1032.21c4.86-4.57,11.63-50.44,28.57-24.49,10.73-9.67,2.36-10.24,0-20.4,29.62-20.12,13.59-70.27,16.32-110.19s-1.18-88.71,0-130.58-.49-87.87,0-130.59-.08-87.54,0-130.59.28-87.49,0-130.59.82-87.74,0-130.59,3.71-85.57-4.08-126.5c-3.76-3.06-18.94,1.55-16.33-12.25,5.64-5.55,10.33,1.35,16.33-4.08-34.57-67.62-123.53-34.73-191.8-40.81s-159.24,4.09-232.61,0-156.91,4.78-232.61,0-151.16,8.78-228.53,0S22.89,76.83,32,154.82,27.3,311.93,32,387.43,28.69,544.05,32,616s-4,167.31,0,232.61S8.24,1010.7,80.64,1032.49s149.81-2,224.73,3.8,157.6.2,232.61,0,159.2,6.41,232.61,0,156.26,19.26,224.45-4.08M897.1,379.27c5.63-2.86,9.14-9.31,16.32-8.16.86,7.22-6.28,13.75-12.24,16.32C801.36,503.82,660.33,583,558.39,697.58c34-15,69.08-24,100.79-46.12s87.05-35.18,49.26-3.79-54.07,34.4-87.82,59.09-59.54,37.46-91.82,59.17-58.19,36.24-89.7,57.21-61.29,37.55-93.86,57.14-83,28.68-120.18,16-64-32.73-84.15-66.84S121.28,740.06,138,705.66s38.36-57.22,61-85.95,46-54.6,69.38-81.62,45.34-51.86,68.76-78.14,51-50.2,75.41-75.58,48.36-48.48,73.46-73.46,53.42-47.42,79.58-71.41,49.66-56.6,82.64-68.36c-55.79,71.25-131.45,130.59-175.48,208.13,105.69-69.13,206.53-152.71,310.14-224.45,15.14,28,42-24.28,70.32-31.71s65.33-49.26,101.08-33.59-10.57,54.69-25.71,76.32-45.38,48.6-63,71.62S824.13,290.39,807.32,314c30.77-22.28,66.44-47.82,94.88-72.43s90.23-57.58,59.17-18.37-58,50.93-85.7,85.7-52.19,54.73-81.61,85.7-56.44,57.21-80.6,90.8c63.66-28.08,123.89-68.56,183.64-106.1M774.67,109.93c-1,22.81-22.93,1.26,0,0m-40.81,20.4c-.81,10.37-14.08,25.79-24.48,16.33,5.38-8.49,13-18.73,24.48-16.33M489,142.58c16,6.24,1.88,37.54-15,27.22s-3.38-34.37,15-27.22M256.4,163c4.16,30.77,26.24,53,57.13,57.13-31,10.65-52.56,32.53-57.13,65.3-7.63-30-24.12-61.38-61.21-61.22,30.73-9.14,53.7-29.5,61.21-61.21M403.31,273.16c13.84,23.84-27.58,11.55,0,0m563.16,49c-24.81,3.15-1.26-25.05,0,0M174.78,358.86c11.92,3.31,6.82,28.61-6.93,23s-10.41-27.83,6.93-23M150.3,513.94c21.5,6.65,10.93,47.33-13.14,37.62s-12.33-45.5,13.14-37.62m685.59,16.32c4.2,25.91-26.29-3.75,0,0m89.77,24.48c17,4.33,12.17,38.57-8.2,32.61s-12-37.79,8.2-32.61m-151,36.73c-.2,12.16-14,19.18-24.48,20.41,1-10.94,12.81-22.49,24.48-20.41m102,134.67c2.53,23.83,16.86,48.28,44.89,44.89-17.87,13.47-39.7,28.69-49,53.05,1.92-30.28-31.26-38.36-44.89-53.05,27.92,4,41.3-25.71,49-44.89M729.78,767c-32.93,2.24,2-33.1,0,0m-102,97.94c33.26,5.27,28.2,62.44-8.2,57.09s-25.75-62.48,8.2-57.09M840,905.7c12.93,3.1,8.81,29.26-6.86,23.1s-2.65-25.39,6.86-23.1M138.06,926.1c7.55,3.35,2.48,19.23-6.94,14.86s-1.55-18.65,6.94-14.86m285.66,4.09c10.08,2,9.22,24-4.21,20.28S411.64,927.74,423.72,930.19Z"/><path class="cls-31" d="M995,1032.21c29.46-10.08,46.93-35.26,49-65.3,9.63-141.24,2-286.76,0-428.49s14.49-291.58,0-432.57c-2.16-9.8-4-16.41-8.16-24.49-6,5.43-10.69-1.47-16.33,4.08-2.61,13.8,12.57,9.19,16.33,12.25,7.79,40.93,3.26,83.65,4.08,126.5s-.29,87.5,0,130.59.08,87.54,0,130.59.49,87.86,0,130.59,1.18,88.72,0,130.59,2.73,90.67,0,130.58,13.3,90.07-16.32,110.19c2.36,10.16,10.73,10.73,0,20.4C1006.67,981.77,999.9,1027.64,995,1032.21Z"/><path class="cls-32" d="M901.18,387.43c0,8.45-11.79-11-4.08-8.16-59.75,37.54-120,78-183.64,106.1,24.16-33.59,51.17-59.79,80.6-90.8s53.9-50.89,81.61-85.7,54.69-46.48,85.7-85.7-30.77-6.28-59.17,18.37S838.09,291.69,807.32,314c16.81-23.58,40.44-53.54,58.15-76.51s47.87-50,63-71.62S990,105.2,954.23,89.52s-72.72,26.16-101.08,33.59S798,182.85,782.83,154.82C679.22,226.56,578.38,310.14,472.69,379.27c44-77.54,119.69-136.88,175.48-208.13-33,11.76-56.48,44.36-82.64,68.36S511,285.94,486,310.91s-49.05,48-73.46,73.46-52,49.3-75.41,75.58-45.42,51.13-68.76,78.14S221.51,591,198.94,619.71s-44.32,51.5-61,85.95-17.26,89.65,2.94,123.73,47.05,54.07,84.15,66.84,87.62,3.63,120.18-16,62.36-36.16,93.86-57.14,57.46-35.46,89.7-57.21,58.11-34.48,91.82-59.17,50-27.71,87.82-59.09-17.59-18.33-49.26,3.79-66.8,31.1-100.79,46.12C660.33,583,801.36,503.82,901.18,387.43M460.44,722.06C484.77,707,513.82,700.35,538,685.33c-55.91,53.46-117,102.43-179.56,146.91-73.7,50.57-178.54,50.48-200-53-2.29-11.06-2.24-17.71,0-28.56,6.61-32,20.32-55.67,40.81-81.62,74.35-94.19,179.27-167.15,265.26-244.85a383,383,0,0,1-32.65,44.89c33.79-26.28,80.07-64.4,110.18-102,3-3.71,3.31-6.4,8.16-8.16,8.49-3.1-.28,28.69-12.57,32.32s-24,23.43-28.23,33c7.71.24,13.42-5.8,20.4-8.17,13.22-7.26,22.65-18.69,36.73-24.48C662.82,295.24,777.86,218,893,146.66,794.87,268.35,690.65,389.75,603.28,518c39.46-15.51,71.66-48.08,110.18-65.3-74.4,96.23-177.76,182.5-253,269.34M615.52,309.89c-1.35,22-20.94,3.14,0,0m183.64,36.73c-1.43,15.47-20.2,21.06-32.65,24.49C775.08,361.07,784,344.87,799.16,346.62Z"/><path class="cls-33" d="M733.86,130.33c-11.46-2.4-19.1,7.84-24.48,16.33C719.78,156.12,733.05,140.7,733.86,130.33Z"/><path class="cls-34" d="M489,142.58c-18.36-7.15-31.87,16.85-15,27.22S505.05,148.82,489,142.58Z"/><path class="cls-35" d="M566.55,391.51c9.55-3.92,19-4.33,28.56-8.16C658.9,357.72,703.87,292.87,766.51,265,666.32,372.57,585.77,491.65,493.09,603.72c-1.71,4.08-5.18,7.22-4.08,12.24,42.65-17.71,77-50.81,118.35-69.38C553.69,606.37,506.56,677.38,440,726.14c-2.82,4.29-4.16,5.39-8.16,8.16-.33.13,17.95-5.67,28.56-12.24,75.26-86.84,178.62-173.11,253-269.34-38.52,17.22-70.72,49.79-110.18,65.3C690.65,389.75,794.87,268.35,893,146.66,777.86,218,662.82,295.24,566.55,391.51Z"/><path class="cls-36" d="M256.4,163c-7.51,31.71-30.48,52.07-61.21,61.21,37.09-.16,53.58,31.18,61.21,61.22,4.57-32.77,26.16-54.65,57.13-65.3C282.64,216,260.56,193.75,256.4,163Z"/><path class="cls-37" d="M595.11,383.35c-31.38,29.58-54.11,53.33-89.78,73.45-22.11,12.49-47.29,31-65.29,49-38.77,38.77-81.58,69.5-122.43,106.11,8-19.18,19.92-37.63,28.57-57.14-20.85,9.23-38.6,40.41-58.07,52.12s-43.3,54.35-52.11,25.42c-10.37,13.47-23.22,26.77-36.73,36.73-20.49,26-34.2,49.62-40.81,81.62a174.58,174.58,0,0,0,0,28.56c21.42,103.53,126.26,103.62,200,53,28.08-31,38.73-73.94,73.46-97.94,4-2.77,5.34-3.87,8.16-8.16,15.14-23,30.36-46,44.89-69.37C410.17,684.35,382.3,789.23,309.45,824.08,272.07,842,223,843.51,198.25,800.62s7.14-83.66,33.67-115.29c34.72-41.42,69.13-79,102-118.34-7,30.81-34,53-44.89,81.61,101.77-61.86,194.29-142.78,289.74-216.28-6.65-15.75,32-34.12,50-52s46.69-41.46,68.36-54.07C582.63,445.91,460.24,562.29,387,705.74c19.42-11.27,43.83-17.47,57.13-36.73-4,.37-8.2-.29-12.24,0,22.52-20.89,35.3-50.15,61.21-65.29C585.77,491.65,666.32,372.57,766.51,265,703.87,292.87,658.9,357.72,595.11,383.35Z"/><path class="cls-38" d="M231.92,685.33c33-16.69,97.12-20.4,113.93,20.73s-.81,96.48-36.4,118c72.85-34.85,100.72-139.73,175.48-167.31.9-1.47,0-4.08,0-4.08-2.53-6.7-8-1.64-12.24,0-8.65,6.44-20.12,9.71-28.57,16.32-13.3,19.26-37.71,25.46-57.13,36.73,73.25-143.45,195.64-259.83,310.15-379.52-21.67,12.61-50.32,36.15-68.36,54.07s-56.64,36.28-50,52c-95.45,73.5-188,154.42-289.74,216.28C300,620,326.92,597.8,333.94,567,301.05,606.33,266.64,643.91,231.92,685.33Z"/><path class="cls-39" d="M799.16,346.62c-15.18-1.75-24.08,14.45-32.65,24.49C779,367.68,797.73,362.09,799.16,346.62Z"/><path class="cls-40" d="M550.22,358.86c6.57-2.32-13.42,29.43-8.16,8.16-30.11,37.63-76.39,75.75-110.18,102-9.84,11.38-25.38,23.83-24.49,40.81,12.16-7.23,22.28,9.34,32.65-4.09,18-18,43.18-36.48,65.29-49,17.35-15.14,18.57-31.09,24.49-40.81-7,2.37-12.69,8.41-20.4,8.17,4.2-9.55,15.91-29.34,28.23-33S558.71,355.76,550.22,358.86Z"/><path class="cls-41" d="M174.78,358.86c-17.34-4.81-20.65,17.47-6.93,23S186.7,362.17,174.78,358.86Z"/><path class="cls-42" d="M542.06,367c-5.26,21.27,14.73-10.48,8.16-8.16C545.37,360.62,545,363.31,542.06,367Z"/><path class="cls-43" d="M897.1,379.27c-7.71-2.82,4.08,16.61,4.08,8.16,6-2.57,13.1-9.1,12.24-16.32C906.24,370,902.73,376.41,897.1,379.27Z"/><path class="cls-44" d="M566.55,391.51C552.47,397.3,543,408.73,529.82,416c-5.92,9.72-7.14,25.67-24.49,40.81,35.67-20.12,58.4-43.87,89.78-73.45C585.52,387.18,576.1,387.59,566.55,391.51Z"/><path class="cls-45" d="M199.27,669c13.51-10,26.36-23.26,36.73-36.73,8.81,28.93,32.64-13.71,52.11-25.42s37.22-42.89,58.07-52.12c-8.65,19.51-20.61,38-28.57,57.14,40.85-36.61,83.66-67.34,122.43-106.11-10.37,13.43-20.49-3.14-32.65,4.09-.89-17,14.65-29.43,24.49-40.81a383,383,0,0,0,32.65-44.89c-86,77.7-190.91,150.66-265.26,244.85m191.8-163.24C392.33,538.26,363.61,512,391.07,505.77Z"/><path class="cls-46" d="M150.3,513.94c-25.47-7.88-37.26,27.91-13.14,37.62S171.8,520.59,150.3,513.94Z"/><path class="cls-47" d="M493.09,603.72c-25.91,15.14-38.69,44.4-61.21,65.29,4-.29,8.2.37,12.24,0,8.45-6.61,19.92-9.88,28.57-16.32,24.56-18.25,47.62-42.12,77.53-53.06-15,22-47,32.9-65.29,53.06,0,0,.9,2.61,0,4.08-14.53,23.34-29.75,46.36-44.89,69.37,66.52-48.76,113.65-119.77,167.32-179.56C566,565.15,531.66,598.25,489,616,487.91,610.94,491.38,607.8,493.09,603.72Z"/><path class="cls-48" d="M925.66,554.74c-20.2-5.18-28.56,26.65-8.2,32.61S942.68,559.07,925.66,554.74Z"/><path class="cls-49" d="M774.67,591.47c-11.67-2.08-23.5,9.47-24.48,20.41C760.63,610.65,774.47,603.63,774.67,591.47Z"/><path class="cls-50" d="M472.69,652.69c4.28-1.64,9.71-6.7,12.24,0,18.32-20.16,50.32-31.06,65.29-53.06C520.31,610.57,497.25,634.44,472.69,652.69Z"/><path class="cls-51" d="M231.92,685.33c-26.53,31.63-58.48,72.44-33.67,115.29s73.82,41.34,111.2,23.46c35.59-21.54,53.22-76.88,36.4-118S264.93,668.64,231.92,685.33Z"/><path class="cls-52" d="M460.44,722.06c-10.61,6.57-28.89,12.37-28.56,12.24-34.73,24-45.38,67-73.46,97.94C420.94,787.76,482.07,738.79,538,685.33,513.82,700.35,484.77,707,460.44,722.06Z"/><path class="cls-36" d="M876.69,726.14C869,745.32,855.64,775,827.72,771c13.63,14.69,46.81,22.77,44.89,53.05,9.27-24.36,31.1-39.58,49-53.05C893.55,774.42,879.22,750,876.69,726.14Z"/><path class="cls-53" d="M158.46,779.19a174.58,174.58,0,0,1,0-28.56C156.22,761.48,156.17,768.13,158.46,779.19Z"/><path class="cls-54" d="M627.76,864.89c-34-5.39-44.56,51.79-8.2,57.09S661,870.16,627.76,864.89Z"/><path class="cls-55" d="M840,905.7c-9.51-2.29-22.53,16.94-6.86,23.1S852.9,908.8,840,905.7Z"/><path class="cls-56" d="M138.06,926.1c-8.49-3.79-16.33,10.53-6.94,14.86S145.61,929.45,138.06,926.1Z"/><path class="cls-57" d="M423.72,930.19c-12.08-2.45-17.63,16.52-4.21,20.28S433.8,932.23,423.72,930.19Z"/></svg>