<svg id="Layer_1" data-name="Layer 1" xmlns="http://www.w3.org/2000/svg" viewBox="0 0 1080 1080"><defs><style>.cls-1{fill:#0c1523;}.cls-10,.cls-11,.cls-12,.cls-13,.cls-14,.cls-15,.cls-16,.cls-17,.cls-18,.cls-19,.cls-2,.cls-20,.cls-21,.cls-22,.cls-23,.cls-24,.cls-25,.cls-26,.cls-27,.cls-28,.cls-29,.cls-3,.cls-30,.cls-31,.cls-32,.cls-33,.cls-34,.cls-35,.cls-36,.cls-37,.cls-38,.cls-39,.cls-4,.cls-40,.cls-41,.cls-42,.cls-43,.cls-44,.cls-45,.cls-46,.cls-47,.cls-48,.cls-49,.cls-5,.cls-50,.cls-51,.cls-52,.cls-53,.cls-54,.cls-55,.cls-56,.cls-57,.cls-58,.cls-59,.cls-6,.cls-60,.cls-61,.cls-62,.cls-63,.cls-64,.cls-65,.cls-66,.cls-67,.cls-68,.cls-69,.cls-7,.cls-70,.cls-71,.cls-72,.cls-8,.cls-9{fill:none;stroke-width:1.22px;}.cls-2{stroke:#d4d5d4;}.cls-3{stroke:#0b1522;}.cls-4{stroke:#07090b;}.cls-5{stroke:#0c0e11;}.cls-6{stroke:#080c0f;}.cls-7{stroke:#ae9ac3;}.cls-8{stroke:#335159;}.cls-9{stroke:#1978bc;}.cls-10{stroke:#69acb3;}.cls-11{stroke:#5aa479;}.cls-12{stroke:#6c93cc;}.cls-13{stroke:#6f7072;}.cls-14{stroke:#e8e6e6;}.cls-15{stroke:#5ca362;}.cls-16{stroke:#206669;}.cls-17{stroke:#347d5b;}.cls-18{stroke:#5ca468;}.cls-19{stroke:#2596c4;}.cls-20{stroke:#0f5785;}.cls-21{stroke:#357c5b;}.cls-22{stroke:#559f65;}.cls-23{stroke:#6b6b72;}.cls-24{stroke:#55a161;}.cls-25{stroke:#104c8b;}.cls-26{stroke:#aec7b8;}.cls-27{stroke:#94b2dd;}.cls-28{stroke:#495e96;}.cls-29{stroke:#6574b2;}.cls-30{stroke:#b6b7ba;}.cls-31{stroke:#606164;}.cls-32{stroke:#80868f;}.cls-33{stroke:#4a525f;}.cls-34{stroke:#444c5a;}.cls-35{stroke:#757a86;}.cls-36{stroke:#858b96;}.cls-37{stroke:#93969d;}.cls-38{stroke:#70747f;}.cls-39{stroke:#767b87;}.cls-40{stroke:#969ba4;}.cls-41{stroke:#474f5e;}.cls-42{stroke:#474e5c;}.cls-43{stroke:#747986;}.cls-44{stroke:#797b87;}.cls-45{stroke:#6e7480;}.cls-46{stroke:#424a58;}.cls-47{stroke:#cacbd0;}.cls-48{stroke:#616975;}.cls-49{stroke:#737985;}.cls-50{stroke:#93979f;}.cls-51{stroke:#5e6573;}.cls-52{stroke:#646a78;}.cls-53{stroke:#454d5a;}.cls-54{stroke:#6c717e;}.cls-55{stroke:#6a6f7b;}.cls-56{stroke:#6c7480;}.cls-57{stroke:#999ca4;}.cls-58{stroke:#424b59;}.cls-59{stroke:#5f6876;}.cls-60{stroke:#8c9098;}.cls-61{stroke:#676c77;}.cls-62{stroke:#404958;}.cls-63{stroke:#797d85;}.cls-64{stroke:#3d4654;}.cls-65{stroke:#69717e;}.cls-66{stroke:#626b77;}.cls-67{stroke:#535968;}.cls-68{stroke:#3d4757;}.cls-69{stroke:#505968;}.cls-70{stroke:#4b5363;}.cls-71{stroke:#565f6d;}.cls-72{stroke:#7f8591;}.cls-73{fill:#d4d5d4;}.cls-74{fill:#0b1522;}.cls-75{fill:#07090b;}.cls-76{fill:#0c0e11;}.cls-77{fill:#080c0f;}.cls-78{fill:#ae9ac3;}.cls-79{fill:#335159;}.cls-80{fill:#1978bc;}.cls-81{fill:#69acb3;}.cls-82{fill:#5aa479;}.cls-83{fill:#6c93cc;}.cls-84{fill:#6f7072;}.cls-85{fill:#e8e6e6;}.cls-86{fill:#5ca362;}.cls-87{fill:#206669;}.cls-88{fill:#347d5b;}.cls-89{fill:#5ca468;}.cls-90{fill:#2596c4;}.cls-91{fill:#0f5785;}.cls-92{fill:#357c5b;}.cls-93{fill:#559f65;}.cls-94{fill:#6b6b72;}.cls-95{fill:#55a161;}.cls-96{fill:#104c8b;}.cls-97{fill:#aec7b8;}.cls-98{fill:#94b2dd;}.cls-99{fill:#495e96;}.cls-100{fill:#6574b2;}.cls-101{fill:#b6b7ba;}.cls-102{fill:#606164;}.cls-103{fill:#80868f;}.cls-104{fill:#4a525f;}.cls-105{fill:#444c5a;}.cls-106{fill:#757a86;}.cls-107{fill:#858b96;}.cls-108{fill:#93969d;}.cls-109{fill:#70747f;}.cls-110{fill:#767b87;}.cls-111{fill:#969ba4;}.cls-112{fill:#474f5e;}.cls-113{fill:#474e5c;}.cls-114{fill:#747986;}.cls-115{fill:#797b87;}.cls-116{fill:#6e7480;}.cls-117{fill:#424a58;}.cls-118{fill:#cacbd0;}.cls-119{fill:#616975;}.cls-120{fill:#737985;}.cls-121{fill:#93979f;}.cls-122{fill:#5e6573;}.cls-123{fill:#646a78;}.cls-124{fill:#454d5a;}.cls-125{fill:#6c717e;}.cls-126{fill:#6a6f7b;}.cls-127{fill:#6c7480;}.cls-128{fill:#999ca4;}.cls-129{fill:#424b59;}.cls-130{fill:#5f6876;}.cls-131{fill:#8c9098;}.cls-132{fill:#676c77;}.cls-133{fill:#404958;}.cls-134{fill:#797d85;}.cls-135{fill:#3d4654;}.cls-136{fill:#69717e;}.cls-137{fill:#626b77;}.cls-138{fill:#535968;}.cls-139{fill:#3d4757;}.cls-140{fill:#505968;}.cls-141{fill:#4b5363;}.cls-142{fill:#565f6d;}.cls-143{fill:#7f8591;}</style></defs><title>avatar-moon</title><rect class="cls-1" width="1080" height="1080"/><path class="cls-2" d="M107.83,44.9a14.62,14.62,0,0,1,4.08,0h857c-86-23-193.76.65-285.66-4.08s-197.8-4.41-289.74,0S194.34,22.45,107.83,44.9Z"/><path class="cls-3" d="M42.53,110.19C37.68,287,54.69,472.94,46.61,653c278-209.8,707.3-224.45,983.49,0,2.74-180.25-5.42-365.89,4.09-542.76-5.11-36.4-32-56.4-65.3-65.29-36.24-1.59-78.51,7.51-118.34,4.08s-82.07,1.75-122.43,0-81.82,1.26-122.43,0-86.27,1.67-126.5,0-83.5,3.22-122.43,0-86.07,6.94-122.43,0S139.9,65.63,111.91,44.9a14.62,14.62,0,0,0-4.08,0c-32.69,5.34-61.18,31.91-65.3,65.29m257.1,32.65C407.93,155.94,467.31,287.63,402,375.78s-201,81.29-252.41-17.59,36.85-229,150.06-215.35m240.77,0c15.63,6,7.1,38.52-10.94,31.26s-6.69-38,10.94-31.26m387.68,20.4c8.29,3.76,3.59,23.43-6.93,18.94s-2.82-23.38,6.93-18.94M773,179.57c14.08,27.34,19.34,51.74,57.13,53.05-27.34,5.83-57.91,23.55-57.13,57.13-8,16.37-7.1,8.9-12.24-4.08-11.06-28-24.08-49.91-57.14-53.05,26.45-7.31,57.42-18.86,57.14-53.05,2.61-4.78,2.28-15.14,12.24-12.25v12.25M622,363.21c23.63,7.06,10.77,51.62-15,39.46s-6.28-45.79,15-39.46m293.82,20.4c20.32,5.18,11.67,47.22-10.94,39.42s-11.63-45.17,10.94-39.42M817.9,436.66c4.94,4.94-4.33,17.43-10.94,10.86s6.37-15.43,10.94-10.86M152.72,477.47c8.61,4.57-1.15,26-13.18,17.18S139.17,470.29,152.72,477.47Z"/><path class="cls-4" d="M968.89,44.9h-857C139.9,65.63,198,42,234.33,49s83.5-3.22,122.43,0S439,47.31,479.19,49s85.9-1.27,126.5,0,82.07-1.76,122.43,0,82.6-3.43,122.43,0S932.65,43.31,968.89,44.9Z"/><path class="cls-5" d="M42.53,677.43c.9-2,6.74-2.93,8.16-4.08C203.6,551,383,502,581.21,502c11.71,0,23.79,2.81,32.65,4.08,79.08,3,159.39,30.11,231.34,54.31S960.85,631.73,1026,665.19c.78.41,8,3.84,8.17,4.08,0-92.55,4.69-189.47,0-281.58s12.69-186.58,0-277.5c-9.51,176.87-1.35,362.51-4.09,542.76C753.91,428.5,324.6,443.15,46.61,653c8.08-180-8.93-365.93-4.08-542.76-11.55,93.05,4.41,192,0,285.66S42.53,583.7,42.53,677.43Z"/><path class="cls-6" d="M299.63,142.84C186.42,129.17,98.2,259.31,149.57,358.19S336.64,463.92,402,375.78s5.95-219.84-102.35-232.94m0,16.32c1.22.9,3.26,4,4.08,4.08,10.73,1.27,18.53,1.27,28.56,4.08,16,4.45,26.41,11.23,36.73,24.49.86,1.1,3.63,2.65,4.08,4.08a104.08,104.08,0,0,1,20.41,20.4,114.47,114.47,0,0,1,12.24,20.41c12,25.67,13.79,49.87,8.16,77.54-19.22,94.43-131,146.7-212.2,85.69-50.4-37.87-70.77-103.2-44.89-159.15,2.57-5.59,5.22-11,8.16-16.32,12.73-23.35,31.42-36.65,53-49,17.26-9.84,28.4-13,49-16.33C277.59,157.45,288.69,151.12,299.63,159.16Z"/><path class="cls-7" d="M540.4,142.84c-17.63-6.73-28.93,24-10.94,31.26S556,148.8,540.4,142.84Z"/><path class="cls-8" d="M267,159.16c10.73,1.15,22-1.55,32.65,0C288.69,151.12,277.59,157.45,267,159.16Z"/><path class="cls-9" d="M218,175.49c3.35.44,9.75,14,16.32,12.24-27.22,27.05,28.37,33,20.41,0,15,2.57,16,23.79,28.56,32.65-25.5-2.74-46.31,24-53.05,49-13.34.69-20.65-24.82-33.66-5.06s22.93,12.4,21.42,29.54c-21.75,1.47-44.4-13.83-44.89-36.73-1.75-5.18-6.9-12.65-4.08-20.4-6,5.83-12.9,24.81-12.24,4.08-25.88,56-5.51,121.28,44.89,159.15,1.38,1.88.2-11.38-4.08-12.24h49c-7.1-32.52-33.1-56.52-16.33-89.78,27.88-5.47,45.59,12.73,66.24,27.63s-23.22,40.24-21.35,58.07c17.92-12.16,88.19-25.06,85.7-61.21-1.43-2.61-2.61-5.76-4.08-8.16-14.53-23.75-30.61-3.43-32.65-36.73s19.31-20.65,40.81-24.49c2.29-.41,8-3.47,12.24-4.08,1.43-2.08-.28-9.67,0-12.24-11.3,4.37-28.6-14.53-40.8-12.24.81-15.76,21.18-16.45,32.64-20.41-.41-2.16-.94-10.28,0-12.24-10.32-13.26-20.77-20-36.73-24.49-15.46,4.21-6.08,21.39-23.46,29.59s-17.3-15.26-25.51-25.5c-2.12-2.62-14.28-11.72-16.32-12.25C246.41,162.51,235.27,165.65,218,175.49Z"/><path class="cls-10" d="M283.3,171.41c-4.73,0,17.18-7.64,20.41-8.17-.82-.08-2.86-3.18-4.08-4.08-10.65-1.55-21.92,1.15-32.65,0C269,159.69,281.18,168.79,283.3,171.41Z"/><path class="cls-11" d="M283.3,171.41c8.21,10.24,8.08,33.7,25.51,25.5s8-25.38,23.46-29.59c-10-2.81-17.83-2.81-28.56-4.08C300.48,163.77,278.57,171.36,283.3,171.41Z"/><path class="cls-12" d="M928.08,163.24c-9.75-4.44-17.46,14.45-6.93,18.94S936.37,167,928.08,163.24Z"/><path class="cls-13" d="M760.77,179.57c5.3-7.19,6.73-7.47,12.24,0V167.32C763.05,164.43,763.38,174.79,760.77,179.57Z"/><path class="cls-14" d="M760.77,179.57c.28,34.19-30.69,45.74-57.14,53.05,33.06,3.14,46.08,25,57.14,53.05,1.71,3.18,6.36,6.65,4.08,12.24,5.14-.32,2.28-8.4,8.16-8.16-.78-33.58,29.79-51.3,57.13-57.13-37.79-1.31-43-25.71-57.13-53.05C767.5,172.1,766.07,172.38,760.77,179.57Z"/><path class="cls-15" d="M165,224.46c0,1.83,7.1,25.91,8.16,32.64.49,22.9,23.14,38.2,44.89,36.73,1.51-17.14-34.44-9.83-21.42-29.54s20.32,5.75,33.66,5.06c6.74-25,27.55-51.71,53.05-49-12.52-8.86-13.54-30.08-28.56-32.65,8,33-47.63,27.05-20.41,0-6.57,1.75-13-11.8-16.32-12.24C196.38,187.81,177.69,201.11,165,224.46Z"/><path class="cls-16" d="M369,204.05c1.51,8.37,7.06,15.67,8.16,24.49,16.41-9.18,15.63,8.53,20.41,12.24.65-.57,8.12-4,8.16-4.08a114.47,114.47,0,0,0-12.24-20.41c.65.41-10.16,2.62-12.24,4.09a92.77,92.77,0,0,1-8.17-24.49c-.45-1.43-3.22-3-4.08-4.08C368.06,193.77,368.59,201.89,369,204.05Z"/><path class="cls-17" d="M393.49,216.29a104.08,104.08,0,0,0-20.41-20.4,92.77,92.77,0,0,0,8.17,24.49C383.33,218.91,394.14,216.7,393.49,216.29Z"/><path class="cls-18" d="M377.16,236.7a44.48,44.48,0,0,0,0-8.16c-1.1-8.82-6.65-16.12-8.16-24.49-11.46,4-31.83,4.65-32.64,20.41C348.56,222.17,365.86,241.07,377.16,236.7Z"/><path class="cls-19" d="M156.8,240.78c-.66,20.73,6.2,1.75,12.24-4.08-2.82,7.75,2.33,15.22,4.08,20.4-1.06-6.73-8.2-30.81-8.16-32.64C162,229.8,159.37,235.19,156.8,240.78Z"/><path class="cls-20" d="M377.16,236.7c-.28,2.57,1.43,10.16,0,12.24,12-1.71,12-1,20.41-8.16-4.78-3.71-4-21.42-20.41-12.24A44.48,44.48,0,0,1,377.16,236.7Z"/><path class="cls-21" d="M397.57,240.78c-8.41,7.18-8.37,6.45-20.41,8.16-4.28.61-10,3.67-12.24,4.08,3.39,1.51,8.69-1.22,12.24,0-.28,19.18,3.92,63.91-20.4,61.22,1.47,2.4,2.65,5.55,4.08,8.16,7.55,13.63-4,31.71,0,49,36.36,2.69,30.61-57.05,53.05-57.13,5.63-27.67,3.84-51.87-8.16-77.54C405.69,236.78,398.22,240.21,397.57,240.78Z"/><path class="cls-22" d="M356.76,314.24c24.32,2.69,20.12-42,20.4-61.22-3.55-1.22-8.85,1.51-12.24,0-21.5,3.84-42.81-8.81-40.81,24.49S342.23,290.49,356.76,314.24Z"/><path class="cls-23" d="M773,289.75c-5.88-.24-3,7.84-8.16,8.16,2.28-5.59-2.37-9.06-4.08-12.24C765.91,298.65,765,306.12,773,289.75Z"/><path class="cls-24" d="M246.58,387.69c1.34,6.12,5.67,22.12,16.32,20.41,3-8.12,2.2-21,12.24-24.49-1.87-17.83,42-43.17,21.35-58.07s-38.36-33.1-66.24-27.63C213.48,331.17,239.48,355.17,246.58,387.69Z"/><path class="cls-25" d="M360.84,322.4c2.49,36.15-67.78,49.05-85.7,61.21-10,3.47-9.26,16.37-12.24,24.49-10.65,1.71-15-14.29-16.32-20.41h-49c4.28.86,5.46,14.12,4.08,12.24,81.21,61,193,8.74,212.2-85.69-22.44.08-16.69,59.82-53.05,57.13C356.8,354.11,368.39,336,360.84,322.4Z"/><path class="cls-26" d="M622,363.21c-21.26-6.33-40.73,27.3-15,39.46S645.65,370.27,622,363.21Z"/><path class="cls-27" d="M915.84,383.61c-22.57-5.75-33.5,31.63-10.94,39.42S936.16,388.79,915.84,383.61Z"/><path class="cls-28" d="M817.9,436.66c-4.57-4.57-17.55,4.29-10.94,10.86S822.84,441.6,817.9,436.66Z"/><path class="cls-29" d="M152.72,477.47c-13.55-7.18-25.22,8.45-13.18,17.18S161.33,482,152.72,477.47Z"/><path class="cls-30" d="M50.69,673.35c26.45-6.2,53.55-44.27,85.7-49,4.74,18.86-3.71,36.81-19.46,54s-11,59,22.2,46.69,32.52,25,9.51,38.07c-42.73.08-66.24,66.77-53.06,106.11,29.51,17.87,82,43.66,122.47,28.6s75.42-36.4,97.9-73.49c19.26,20.64-14.4,51.33-28.56,73.45,13.67,41.1,45.62,75.74,93.86,73.46s88-13.39,106.1-61.22c52.23,15.51,114.59,16.86,167.31,4.08,1.72-14.32,12.21-25.42,20.41-36.72,4.73,9.75,9,4.81,16.32,0,8.37-2.82,15.88-5.92,24.49-8.16,12.4-3.23,20.52-2.82,32.64,0,30.16,7,57.59,19.91,65.3,53,15.3,65.9-95.58,58-126.51,24.48-13-14-22.93-33.26-12.24-53-8,7.71-17,43-9.06,58s49.21,32.48,70.27,31.75,66.36,2.16,80.6-21.42-.2-50.44-11.22-72.44c13.26-8.2,33.5-15.18,36.72-32.65,19.06,41.75,72.4,57.75,114.55,37s24.69-79.62-12.52-98.23c9.79-14.2,24.6-26.32,36.72-36.73-1.59-.33-6.93-3.22-8.16-4.08-29.5-20.61-35.3,36-61.21,24.49,26.89-26.61,68.56-61.63,47.7-100.76s-42.72-59-72.19-91.05c51.55,21.84,97.62,56,142.83,89.78-.61-3.95-1.34-9-4.08-12.24-65.17-33.46-108.83-80.68-180.82-104.84S692.94,509.06,613.86,506c-11-.41-24.53-3.31-32.65-4.08C383,502,203.6,551,50.69,673.35m506-134.67c2.49,21-25.75,18-36.72,8.17,6-14.29,24.81-5.84,36.72-8.17m171.4,53.06c-7.51,26-71.58,10.24-85.7,4.08-48.6-21.22-15.95-41.59,12.24-44.89s82.76,8.53,73.46,40.81m-253-12.25c13.67,40-86.44,53-110.19,36.73-29.95-20.53,6-47.62,29.47-52.15s70.6-14.2,80.72,15.42M307.79,567.25c4.57,18.77-29.51,29.26-36.73,12.24,12.49-3.67,23.18-12.28,36.73-12.24m485.62,16.32a6.7,6.7,0,0,0-4.08,0c-6.93-3.18-9.3-8.65-8.16-16.32,15.63-.86,31.06,9.63,40.81,20.4-9.39-7.83-21.38,4.94-28.57-4.08M556.72,604c-24,16.32-27-14.24,0,0M271.06,644.79c-2.2,35.54-78.84,57.66-102,44.89-52.85-29.14,106.43-115.82,102-44.89M924,677.43c16.08,53.38-73.29,22.12-93.86,8.17-39-26.49-24.2-61.38,12.24-61.22s72.36,22.32,81.62,53M748.52,640.71c11.47,3.18,5.43,22.16-8.2,16.28s-4.49-19.83,8.2-16.28m-49,97.94c-8.81,38.56-56.15,44.48-89.78,49s-83.69-6.82-110.18-28.57C439.68,709.84,515.34,657.93,564.93,653s150.42,16.73,134.62,85.66M377.16,681.51c13.8,9-11.71,38.65-28.89,24.78s10.61-36.73,28.89-24.78m-69.37,12.25c-17.34,24.73-24.49-17.84,0,0m493.79,36.73c14.12.65,21.54,28.56-.13,28.44s-16.61-29.22.13-28.44m-506,57.13c15.1,59.62-81.5,103.08-130.59,89.78-60.93-16.53-30.4-79.87,7.14-103s109.16-43.13,123.45,13.27m481.54-28.57c18.73,7.67,5.14,45.67-15,35.38s-4.57-43.38,15-35.38m-367.28,8.16c14.57,9.35-9.83,35.51-25.38,21.31s11.43-30.24,25.38-21.31m306.07,12.25c12.53,5.83-14.29,40.56-28.9,40.48s-55.25,19.34-71.78,7.14,33.42-23.47,44.44-22.24,49.18-28.69,56.24-25.38m240.77,106.1c-27.22,12.73-60.28,1.22-81.62-16.32-23.91-19.67-42.15-55.38-11.91-77.21s64.88-2.58,88.43,17,40.73,59.87,5.1,76.52M511.83,812.1c3.64,22.57-23.34,23.47-28.56,4.08,5.91-8,19.59-2.28,28.56-4.08m73.46,36.73c19.38,8.65,2,43.5-19.06,31.3s-.32-40,19.06-31.3M466.94,910c-9.1,47.22-87.45,52.16-118.34,36.73-49.34-24.69-13.31-73.41,23.18-87S477.39,855.69,466.94,910Z"/><path class="cls-31" d="M613.86,506C605,504.77,592.92,502,581.21,502,589.33,502.73,602.84,505.63,613.86,506Z"/><path class="cls-32" d="M556.72,538.68C544.81,541,526,532.56,520,546.85,531,556.68,559.21,559.7,556.72,538.68Z"/><path class="cls-33" d="M642.42,595.82c2,1.3-12.77-12.45-16.32-16.33,30.32-25.87,75.62-14.48,102,12.25,9.3-32.28-45.26-44.12-73.46-40.81S593.82,574.6,642.42,595.82Z"/><path class="cls-34" d="M364.92,616.22c2.74.29,19.22-40.16,40.89-36.6s54-14.9,65.21,12.12c5.68-1.07,3.19-8.37,4.09-12.25-10.12-29.62-57.18-19.91-80.72-15.42S335,595.69,364.92,616.22Z"/><path class="cls-35" d="M642.42,595.82c14.12,6.16,78.19,21.91,85.7-4.08-26.4-26.73-71.7-38.12-102-12.25C629.65,583.37,644.42,597.12,642.42,595.82Z"/><path class="cls-36" d="M307.79,567.25c-13.55,0-24.24,8.57-36.73,12.24C278.28,596.51,312.36,586,307.79,567.25Z"/><path class="cls-37" d="M789.33,583.57c-2.61-3.63-4.44-7.59-4.08-12.24,9.06,2.12,30.32,12.69,8.16,12.24,7.19,9,19.18-3.75,28.57,4.08-9.75-10.77-25.18-21.26-40.81-20.4C780,574.92,782.4,580.39,789.33,583.57Z"/><path class="cls-38" d="M789.33,583.57a6.7,6.7,0,0,1,4.08,0c22.16.45.9-10.12-8.16-12.24C784.89,576,786.72,579.94,789.33,583.57Z"/><path class="cls-39" d="M364.92,616.22c23.75,16.28,123.86,3.27,110.19-36.73-.9,3.88,1.59,11.18-4.09,12.25-11.22-27-43.5-8.62-65.21-12.12S367.66,616.51,364.92,616.22Z"/><path class="cls-40" d="M973,755c-9.34-7.75-10.89-35.54,10.9-23.14s8.73,19.1-2.74,27.22c-12.12,10.41-26.93,22.53-36.72,36.73,37.21,18.61,54.68,77.54,12.52,98.23s-95.49,4.73-114.55-37c-3.22,17.47-23.46,24.45-36.72,32.65,11,22,25.42,48.81,11.22,72.44s-59.5,20.69-80.6,21.42S674,966.77,666,951.75s1.06-50.32,9.06-58c4.24-4.08,12.08-13.43,16.32-16.32-7.3,4.81-11.59,9.75-16.32,0-8.2,11.3-18.69,22.4-20.41,36.72C601.94,926.9,539.58,925.55,487.35,910c-18.08,47.83-57.87,58.93-106.1,61.22s-80.19-32.36-93.86-73.46C301.55,875.68,335.21,845,316,824.35c-22.48,37.09-57.42,58.43-97.9,73.49s-93-10.73-122.47-28.6c-13.18-39.34,10.33-106,53.06-106.11,23-13.06,23.75-50.4-9.51-38.07s-38-29.51-22.2-46.69,24.2-35.13,19.46-54c-32.15,4.7-59.25,42.77-85.7,49-1.42,1.15-7.26,2.08-8.16,4.08,0,54.48-3.71,122.31,0,175.48s-17,117.78,16.33,159.16c22,18.56,68.19,23,102,20.4-7-9.26-3-21.79-4.08-32.65,4.08-.45,11.14,1.92,12.24-4.08-6.45-.77-3.84-1-8.16-4.08-39.34-27.75,70.88-78.8,65.29-16.32a29.84,29.84,0,0,0,0,4.08c-9,15.18,31.22,36.6,40.81,44.89-12.61,8.94-33.3,1.75-49,4.08,18,9.18,44.16,1.59,65.29,4.08-54.8,9.51-117.61,1.39-175.47,4.08,68.64,12.28,147.81,2.33,220.36,4.08s152.14,1.63,224.45,0,154.1,6.16,224.45,0,150.26,18.9,212.21-8.16a91.08,91.08,0,0,0,40.8-85.7c-3.79-39.75,3.84-92.76,0-134.67s6.45-92.55,0-134.67c-45.21-33.79-91.28-67.94-142.83-89.78,29.47,32,51.38,51.87,72.19,91.05s-20.81,74.15-47.7,100.76C937.67,791,943.47,734.36,973,755m-857-20.4c15.71,9-14.82,35.7-27.26,27.17S104,727.67,116,734.57m-8.16,183.64c8.53,3.71-.86,24.81-11,18.93s-2.12-24.65,11-18.93M569,954.93c23.38,11.43-5.8,45.91-27.22,31.3s7-41.17,27.22-31.3m367.27,0c35.1,11.72,5.43,58.2-28.56,40.81S904.13,944.24,936.24,954.93Z"/><path class="cls-41" d="M169,689.68c-9.71-16.49,34-34,41.75-43.95s62-5.31,60.27-.94C275.47,573.86,116.19,660.54,169,689.68Z"/><path class="cls-42" d="M830.14,685.6c-49.3-47,90.84-49.38,89.78,4.08,5.67-1.06,3.18-8.37,4.08-12.25-9.26-30.73-45.13-52.84-81.62-53S791.13,659.11,830.14,685.6Z"/><path class="cls-43" d="M169,689.68c23.18,12.77,99.82-9.35,102-44.89,1.76-4.37-52.52-9.06-60.27.94S159.33,673.19,169,689.68Z"/><path class="cls-44" d="M748.52,640.71c-12.69-3.55-21.83,10.4-8.2,16.28S760,643.89,748.52,640.71Z"/><path class="cls-45" d="M830.14,685.6c20.57,13.95,109.94,45.21,93.86-8.17-.9,3.88,1.59,11.19-4.08,12.25C921,636.22,780.84,638.62,830.14,685.6Z"/><path class="cls-46" d="M499.59,759.05c-14.69-26.73,17.55-54.19,39.59-66.52s73.82-13,95.37-3.14,64.43,20.94,65,49.26c15.8-68.93-85-90.64-134.62-85.66S439.68,709.84,499.59,759.05Z"/><path class="cls-39" d="M1030.1,677.43c6.45,42.12-3.83,92.76,0,134.67s-3.79,94.92,0,134.67a91.08,91.08,0,0,1-40.8,85.7c26.93-11.75,37.87-28.81,44.89-57.13,12-97.25,0-203.88,0-302v-4.08c-.13-.24-7.39-3.67-8.17-4.08C1028.76,668.46,1029.49,673.48,1030.1,677.43Z"/><path class="cls-47" d="M1034.19,975.34c7.06-28.57,5.22-70.4,4.08-102s4.53-72.19,0-102,12.81-75.12-4.08-97.94C1034.14,771.46,1046.22,878.09,1034.19,975.34Z"/><path class="cls-48" d="M377.16,681.51c-18.28-12-46,10.9-28.89,24.78S391,690.53,377.16,681.51Z"/><path class="cls-49" d="M499.59,759.05c26.49,21.75,76.56,33.06,110.18,28.57s81-10.41,89.78-49c-.57-28.32-43.42-39.46-65-49.26s-73.38-9.18-95.37,3.14S484.9,732.32,499.59,759.05Z"/><path class="cls-50" d="M801.58,730.49c-16.74-.78-21.76,28.32-.13,28.44S815.7,731.14,801.58,730.49Z"/><path class="cls-51" d="M973,755c1.23.86,6.57,3.75,8.16,4.08,11.47-8.12,24.57-14.77,2.74-27.22S963.63,747.22,973,755Z"/><path class="cls-52" d="M116,734.57c-12-6.9-39.71,18.69-27.26,27.17S131.7,743.59,116,734.57Z"/><path class="cls-53" d="M165,877.4C128,855.69,171.69,804,193.85,792s35.79-11,52.77-16.61,47.29,16.65,48.93,12.2c-14.29-56.4-86-36.44-123.45-13.27S104,860.87,165,877.4Z"/><path class="cls-54" d="M777.09,759.05c-19.55-8-35.14,25.06-15,35.38S795.82,766.72,777.09,759.05Z"/><path class="cls-55" d="M409.81,767.21c-13.95-8.93-41,7.1-25.38,21.31S424.38,776.56,409.81,767.21Z"/><path class="cls-56" d="M165,877.4c49.09,13.3,145.69-30.16,130.59-89.78-1.64,4.45-32-17.84-48.93-12.2S216.05,780,193.85,792,128,855.69,165,877.4Z"/><path class="cls-57" d="M715.88,779.46c-7.06-3.31-45.18,26.64-56.24,25.38s-61,10-44.44,22.24,57.18-7.22,71.78-7.14S728.41,785.29,715.88,779.46Z"/><path class="cls-58" d="M875,869.24c-6-7.27-16-33.71-5-49.87s37.55-13.06,54.85-4.08,19.22,20.69,34.89,34.48-7,37.3-3.14,35.79c35.63-16.65,18.44-56.93-5.1-76.52s-58.2-38.81-88.43-17S851.12,849.57,875,869.24Z"/><path class="cls-59" d="M875,869.24c21.34,17.54,54.4,29,81.62,16.32-3.88,1.51,18.81-22,3.14-35.79s-17.55-25.55-34.89-34.48-43.79-12.08-54.85,4.08S869,862,875,869.24Z"/><path class="cls-60" d="M511.83,812.1c-9,1.8-22.65-3.91-28.56,4.08C488.49,835.57,515.47,834.67,511.83,812.1Z"/><path class="cls-61" d="M585.29,848.83c-19.38-8.65-40.16,19.1-19.06,31.3S604.67,857.48,585.29,848.83Z"/><path class="cls-62" d="M348.6,946.77c-22.08-28.77,11.83-61.17,39.5-66.6S453.31,879,466.94,910c10.45-54.35-58.68-63.9-95.16-50.27S299.26,922.08,348.6,946.77Z"/><path class="cls-63" d="M715.88,869.24a147.2,147.2,0,0,1,32.64,0C736.4,866.42,728.28,866,715.88,869.24Z"/><path class="cls-64" d="M691.39,877.4c-4.24,2.89-12.08,12.24-16.32,16.32-10.69,19.79-.74,39,12.24,53-26.12-64.68,118.18-72.92,122.43-8.16,6.53-2.16,2.94-11.22,4.08-16.32-7.71-33.14-35.14-46-65.3-53a147.2,147.2,0,0,0-32.64,0C707.27,871.48,699.76,874.58,691.39,877.4Z"/><path class="cls-65" d="M348.6,946.77C379.49,962.2,457.84,957.26,466.94,910,453.31,879,415.77,874.7,388.1,880.17S326.52,918,348.6,946.77Z"/><path class="cls-66" d="M687.31,946.77c30.93,33.47,141.81,41.42,126.51-24.48-1.14,5.1,2.45,14.16-4.08,16.32C805.49,873.85,661.19,882.09,687.31,946.77Z"/><path class="cls-67" d="M107.83,918.21c-13.14-5.72-21.18,13.1-11,18.93S116.36,921.92,107.83,918.21Z"/><path class="cls-68" d="M160.88,991.66c-5.39-9.3,13.38-21.63,24.81-28.24s34.12,14.9,40.48,11.92C231.76,912.86,121.54,963.91,160.88,991.66Z"/><path class="cls-69" d="M569,954.93c-20.25-9.87-48.65,16.69-27.22,31.3S592.35,966.36,569,954.93Z"/><path class="cls-70" d="M936.24,954.93c-32.11-10.69-62.56,23.43-28.56,40.81S971.34,966.65,936.24,954.93Z"/><path class="cls-71" d="M160.88,991.66c4.32,3.06,1.71,3.31,8.16,4.08,20.65,2.53,42.81-1.1,57.13-16.32a29.84,29.84,0,0,1,0-4.08c-6.36,3-29-18.53-40.48-11.92S155.49,982.36,160.88,991.66Z"/><path class="cls-72" d="M169,995.74c-1.1,6-8.16,3.63-12.24,4.08,1.1,10.86-2.94,23.39,4.08,32.65-33.83,2.57-80.07-1.84-102-20.4,13.06,16.2,28.2,23,49,24.48,57.86-2.69,120.67,5.43,175.47-4.08-21.13-2.49-47.25,5.1-65.29-4.08,15.67-2.33,36.36,4.86,49-4.08-9.59-8.29-49.83-29.71-40.81-44.89C211.85,994.64,189.69,998.27,169,995.74Z"/><path class="cls-73" d="M107.83,44.9a14.62,14.62,0,0,1,4.08,0h857c-86-23-193.76.65-285.66-4.08s-197.8-4.41-289.74,0S194.34,22.45,107.83,44.9Z"/><path class="cls-74" d="M42.53,110.19C37.68,287,54.69,472.94,46.61,653c278-209.8,707.3-224.45,983.49,0,2.74-180.25-5.42-365.89,4.09-542.76-5.11-36.4-32-56.4-65.3-65.29-36.24-1.59-78.51,7.51-118.34,4.08s-82.07,1.75-122.43,0-81.82,1.26-122.43,0-86.27,1.67-126.5,0-83.5,3.22-122.43,0-86.07,6.94-122.43,0S139.9,65.63,111.91,44.9a14.62,14.62,0,0,0-4.08,0c-32.69,5.34-61.18,31.91-65.3,65.29m257.1,32.65C407.93,155.94,467.31,287.63,402,375.78s-201,81.29-252.41-17.59,36.85-229,150.06-215.35m240.77,0c15.63,6,7.1,38.52-10.94,31.26s-6.69-38,10.94-31.26m387.68,20.4c8.29,3.76,3.59,23.43-6.93,18.94s-2.82-23.38,6.93-18.94M773,179.57c14.08,27.34,19.34,51.74,57.13,53.05-27.34,5.83-57.91,23.55-57.13,57.13-8,16.37-7.1,8.9-12.24-4.08-11.06-28-24.08-49.91-57.14-53.05,26.45-7.31,57.42-18.86,57.14-53.05,2.61-4.78,2.28-15.14,12.24-12.25v12.25M622,363.21c23.63,7.06,10.77,51.62-15,39.46s-6.28-45.79,15-39.46m293.82,20.4c20.32,5.18,11.67,47.22-10.94,39.42s-11.63-45.17,10.94-39.42M817.9,436.66c4.94,4.94-4.33,17.43-10.94,10.86s6.37-15.43,10.94-10.86M152.72,477.47c8.61,4.57-1.15,26-13.18,17.18S139.17,470.29,152.72,477.47Z"/><path class="cls-75" d="M968.89,44.9h-857C139.9,65.63,198,42,234.33,49s83.5-3.22,122.43,0S439,47.31,479.19,49s85.9-1.27,126.5,0,82.07-1.76,122.43,0,82.6-3.43,122.43,0S932.65,43.31,968.89,44.9Z"/><path class="cls-76" d="M42.53,677.43c.9-2,6.74-2.93,8.16-4.08C203.6,551,383,502,581.21,502c11.71,0,23.79,2.81,32.65,4.08,79.08,3,159.39,30.11,231.34,54.31S960.85,631.73,1026,665.19c.78.41,8,3.84,8.17,4.08,0-92.55,4.69-189.47,0-281.58s12.69-186.58,0-277.5c-9.51,176.87-1.35,362.51-4.09,542.76C753.91,428.5,324.6,443.15,46.61,653c8.08-180-8.93-365.93-4.08-542.76-11.55,93.05,4.41,192,0,285.66S42.53,583.7,42.53,677.43Z"/><path class="cls-77" d="M299.63,142.84C186.42,129.17,98.2,259.31,149.57,358.19S336.64,463.92,402,375.78s5.95-219.84-102.35-232.94m0,16.32c1.22.9,3.26,4,4.08,4.08,10.73,1.27,18.53,1.27,28.56,4.08,16,4.45,26.41,11.23,36.73,24.49.86,1.1,3.63,2.65,4.08,4.08a104.08,104.08,0,0,1,20.41,20.4,114.47,114.47,0,0,1,12.24,20.41c12,25.67,13.79,49.87,8.16,77.54-19.22,94.43-131,146.7-212.2,85.69-50.4-37.87-70.77-103.2-44.89-159.15,2.57-5.59,5.22-11,8.16-16.32,12.73-23.35,31.42-36.65,53-49,17.26-9.84,28.4-13,49-16.33C277.59,157.45,288.69,151.12,299.63,159.16Z"/><path class="cls-78" d="M540.4,142.84c-17.63-6.73-28.93,24-10.94,31.26S556,148.8,540.4,142.84Z"/><path class="cls-79" d="M267,159.16c10.73,1.15,22-1.55,32.65,0C288.69,151.12,277.59,157.45,267,159.16Z"/><path class="cls-80" d="M218,175.49c3.35.44,9.75,14,16.32,12.24-27.22,27.05,28.37,33,20.41,0,15,2.57,16,23.79,28.56,32.65-25.5-2.74-46.31,24-53.05,49-13.34.69-20.65-24.82-33.66-5.06s22.93,12.4,21.42,29.54c-21.75,1.47-44.4-13.83-44.89-36.73-1.75-5.18-6.9-12.65-4.08-20.4-6,5.83-12.9,24.81-12.24,4.08-25.88,56-5.51,121.28,44.89,159.15,1.38,1.88.2-11.38-4.08-12.24h49c-7.1-32.52-33.1-56.52-16.33-89.78,27.88-5.47,45.59,12.73,66.24,27.63s-23.22,40.24-21.35,58.07c17.92-12.16,88.19-25.06,85.7-61.21-1.43-2.61-2.61-5.76-4.08-8.16-14.53-23.75-30.61-3.43-32.65-36.73s19.31-20.65,40.81-24.49c2.29-.41,8-3.47,12.24-4.08,1.43-2.08-.28-9.67,0-12.24-11.3,4.37-28.6-14.53-40.8-12.24.81-15.76,21.18-16.45,32.64-20.41-.41-2.16-.94-10.28,0-12.24-10.32-13.26-20.77-20-36.73-24.49-15.46,4.21-6.08,21.39-23.46,29.59s-17.3-15.26-25.51-25.5c-2.12-2.62-14.28-11.72-16.32-12.25C246.41,162.51,235.27,165.65,218,175.49Z"/><path class="cls-81" d="M283.3,171.41c-4.73,0,17.18-7.64,20.41-8.17-.82-.08-2.86-3.18-4.08-4.08-10.65-1.55-21.92,1.15-32.65,0C269,159.69,281.18,168.79,283.3,171.41Z"/><path class="cls-82" d="M283.3,171.41c8.21,10.24,8.08,33.7,25.51,25.5s8-25.38,23.46-29.59c-10-2.81-17.83-2.81-28.56-4.08C300.48,163.77,278.57,171.36,283.3,171.41Z"/><path class="cls-83" d="M928.08,163.24c-9.75-4.44-17.46,14.45-6.93,18.94S936.37,167,928.08,163.24Z"/><path class="cls-84" d="M760.77,179.57c5.3-7.19,6.73-7.47,12.24,0V167.32C763.05,164.43,763.38,174.79,760.77,179.57Z"/><path class="cls-85" d="M760.77,179.57c.28,34.19-30.69,45.74-57.14,53.05,33.06,3.14,46.08,25,57.14,53.05,1.71,3.18,6.36,6.65,4.08,12.24,5.14-.32,2.28-8.4,8.16-8.16-.78-33.58,29.79-51.3,57.13-57.13-37.79-1.31-43-25.71-57.13-53.05C767.5,172.1,766.07,172.38,760.77,179.57Z"/><path class="cls-86" d="M165,224.46c0,1.83,7.1,25.91,8.16,32.64.49,22.9,23.14,38.2,44.89,36.73,1.51-17.14-34.44-9.83-21.42-29.54s20.32,5.75,33.66,5.06c6.74-25,27.55-51.71,53.05-49-12.52-8.86-13.54-30.08-28.56-32.65,8,33-47.63,27.05-20.41,0-6.57,1.75-13-11.8-16.32-12.24C196.38,187.81,177.69,201.11,165,224.46Z"/><path class="cls-87" d="M369,204.05c1.51,8.37,7.06,15.67,8.16,24.49,16.41-9.18,15.63,8.53,20.41,12.24.65-.57,8.12-4,8.16-4.08a114.47,114.47,0,0,0-12.24-20.41c.65.41-10.16,2.62-12.24,4.09a92.77,92.77,0,0,1-8.17-24.49c-.45-1.43-3.22-3-4.08-4.08C368.06,193.77,368.59,201.89,369,204.05Z"/><path class="cls-88" d="M393.49,216.29a104.08,104.08,0,0,0-20.41-20.4,92.77,92.77,0,0,0,8.17,24.49C383.33,218.91,394.14,216.7,393.49,216.29Z"/><path class="cls-89" d="M377.16,236.7a44.48,44.48,0,0,0,0-8.16c-1.1-8.82-6.65-16.12-8.16-24.49-11.46,4-31.83,4.65-32.64,20.41C348.56,222.17,365.86,241.07,377.16,236.7Z"/><path class="cls-90" d="M156.8,240.78c-.66,20.73,6.2,1.75,12.24-4.08-2.82,7.75,2.33,15.22,4.08,20.4-1.06-6.73-8.2-30.81-8.16-32.64C162,229.8,159.37,235.19,156.8,240.78Z"/><path class="cls-91" d="M377.16,236.7c-.28,2.57,1.43,10.16,0,12.24,12-1.71,12-1,20.41-8.16-4.78-3.71-4-21.42-20.41-12.24A44.48,44.48,0,0,1,377.16,236.7Z"/><path class="cls-92" d="M397.57,240.78c-8.41,7.18-8.37,6.45-20.41,8.16-4.28.61-10,3.67-12.24,4.08,3.39,1.51,8.69-1.22,12.24,0-.28,19.18,3.92,63.91-20.4,61.22,1.47,2.4,2.65,5.55,4.08,8.16,7.55,13.63-4,31.71,0,49,36.36,2.69,30.61-57.05,53.05-57.13,5.63-27.67,3.84-51.87-8.16-77.54C405.69,236.78,398.22,240.21,397.57,240.78Z"/><path class="cls-93" d="M356.76,314.24c24.32,2.69,20.12-42,20.4-61.22-3.55-1.22-8.85,1.51-12.24,0-21.5,3.84-42.81-8.81-40.81,24.49S342.23,290.49,356.76,314.24Z"/><path class="cls-94" d="M773,289.75c-5.88-.24-3,7.84-8.16,8.16,2.28-5.59-2.37-9.06-4.08-12.24C765.91,298.65,765,306.12,773,289.75Z"/><path class="cls-95" d="M246.58,387.69c1.34,6.12,5.67,22.12,16.32,20.41,3-8.12,2.2-21,12.24-24.49-1.87-17.83,42-43.17,21.35-58.07s-38.36-33.1-66.24-27.63C213.48,331.17,239.48,355.17,246.58,387.69Z"/><path class="cls-96" d="M360.84,322.4c2.49,36.15-67.78,49.05-85.7,61.21-10,3.47-9.26,16.37-12.24,24.49-10.65,1.71-15-14.29-16.32-20.41h-49c4.28.86,5.46,14.12,4.08,12.24,81.21,61,193,8.74,212.2-85.69-22.44.08-16.69,59.82-53.05,57.13C356.8,354.11,368.39,336,360.84,322.4Z"/><path class="cls-97" d="M622,363.21c-21.26-6.33-40.73,27.3-15,39.46S645.65,370.27,622,363.21Z"/><path class="cls-98" d="M915.84,383.61c-22.57-5.75-33.5,31.63-10.94,39.42S936.16,388.79,915.84,383.61Z"/><path class="cls-99" d="M817.9,436.66c-4.57-4.57-17.55,4.29-10.94,10.86S822.84,441.6,817.9,436.66Z"/><path class="cls-100" d="M152.72,477.47c-13.55-7.18-25.22,8.45-13.18,17.18S161.33,482,152.72,477.47Z"/><path class="cls-101" d="M50.69,673.35c26.45-6.2,53.55-44.27,85.7-49,4.74,18.86-3.71,36.81-19.46,54s-11,59,22.2,46.69,32.52,25,9.51,38.07c-42.73.08-66.24,66.77-53.06,106.11,29.51,17.87,82,43.66,122.47,28.6s75.42-36.4,97.9-73.49c19.26,20.64-14.4,51.33-28.56,73.45,13.67,41.1,45.62,75.74,93.86,73.46s88-13.39,106.1-61.22c52.23,15.51,114.59,16.86,167.31,4.08,1.72-14.32,12.21-25.42,20.41-36.72,4.73,9.75,9,4.81,16.32,0,8.37-2.82,15.88-5.92,24.49-8.16,12.4-3.23,20.52-2.82,32.64,0,30.16,7,57.59,19.91,65.3,53,15.3,65.9-95.58,58-126.51,24.48-13-14-22.93-33.26-12.24-53-8,7.71-17,43-9.06,58s49.21,32.48,70.27,31.75,66.36,2.16,80.6-21.42-.2-50.44-11.22-72.44c13.26-8.2,33.5-15.18,36.72-32.65,19.06,41.75,72.4,57.75,114.55,37s24.69-79.62-12.52-98.23c9.79-14.2,24.6-26.32,36.72-36.73-1.59-.33-6.93-3.22-8.16-4.08-29.5-20.61-35.3,36-61.21,24.49,26.89-26.61,68.56-61.63,47.7-100.76s-42.72-59-72.19-91.05c51.55,21.84,97.62,56,142.83,89.78-.61-3.95-1.34-9-4.08-12.24-65.17-33.46-108.83-80.68-180.82-104.84S692.94,509.06,613.86,506c-11-.41-24.53-3.31-32.65-4.08C383,502,203.6,551,50.69,673.35m506-134.67c2.49,21-25.75,18-36.72,8.17,6-14.29,24.81-5.84,36.72-8.17m171.4,53.06c-7.51,26-71.58,10.24-85.7,4.08-48.6-21.22-15.95-41.59,12.24-44.89s82.76,8.53,73.46,40.81m-253-12.25c13.67,40-86.44,53-110.19,36.73-29.95-20.53,6-47.62,29.47-52.15s70.6-14.2,80.72,15.42M307.79,567.25c4.57,18.77-29.51,29.26-36.73,12.24,12.49-3.67,23.18-12.28,36.73-12.24m485.62,16.32a6.7,6.7,0,0,0-4.08,0c-6.93-3.18-9.3-8.65-8.16-16.32,15.63-.86,31.06,9.63,40.81,20.4-9.39-7.83-21.38,4.94-28.57-4.08M556.72,604c-24,16.32-27-14.24,0,0M271.06,644.79c-2.2,35.54-78.84,57.66-102,44.89-52.85-29.14,106.43-115.82,102-44.89M924,677.43c16.08,53.38-73.29,22.12-93.86,8.17-39-26.49-24.2-61.38,12.24-61.22s72.36,22.32,81.62,53M748.52,640.71c11.47,3.18,5.43,22.16-8.2,16.28s-4.49-19.83,8.2-16.28m-49,97.94c-8.81,38.56-56.15,44.48-89.78,49s-83.69-6.82-110.18-28.57C439.68,709.84,515.34,657.93,564.93,653s150.42,16.73,134.62,85.66M377.16,681.51c13.8,9-11.71,38.65-28.89,24.78s10.61-36.73,28.89-24.78m-69.37,12.25c-17.34,24.73-24.49-17.84,0,0m493.79,36.73c14.12.65,21.54,28.56-.13,28.44s-16.61-29.22.13-28.44m-506,57.13c15.1,59.62-81.5,103.08-130.59,89.78-60.93-16.53-30.4-79.87,7.14-103s109.16-43.13,123.45,13.27m481.54-28.57c18.73,7.67,5.14,45.67-15,35.38s-4.57-43.38,15-35.38m-367.28,8.16c14.57,9.35-9.83,35.51-25.38,21.31s11.43-30.24,25.38-21.31m306.07,12.25c12.53,5.83-14.29,40.56-28.9,40.48s-55.25,19.34-71.78,7.14,33.42-23.47,44.44-22.24,49.18-28.69,56.24-25.38m240.77,106.1c-27.22,12.73-60.28,1.22-81.62-16.32-23.91-19.67-42.15-55.38-11.91-77.21s64.88-2.58,88.43,17,40.73,59.87,5.1,76.52M511.83,812.1c3.64,22.57-23.34,23.47-28.56,4.08,5.91-8,19.59-2.28,28.56-4.08m73.46,36.73c19.38,8.65,2,43.5-19.06,31.3s-.32-40,19.06-31.3M466.94,910c-9.1,47.22-87.45,52.16-118.34,36.73-49.34-24.69-13.31-73.41,23.18-87S477.39,855.69,466.94,910Z"/><path class="cls-102" d="M613.86,506C605,504.77,592.92,502,581.21,502,589.33,502.73,602.84,505.63,613.86,506Z"/><path class="cls-103" d="M556.72,538.68C544.81,541,526,532.56,520,546.85,531,556.68,559.21,559.7,556.72,538.68Z"/><path class="cls-104" d="M642.42,595.82c2,1.3-12.77-12.45-16.32-16.33,30.32-25.87,75.62-14.48,102,12.25,9.3-32.28-45.26-44.12-73.46-40.81S593.82,574.6,642.42,595.82Z"/><path class="cls-105" d="M364.92,616.22c2.74.29,19.22-40.16,40.89-36.6s54-14.9,65.21,12.12c5.68-1.07,3.19-8.37,4.09-12.25-10.12-29.62-57.18-19.91-80.72-15.42S335,595.69,364.92,616.22Z"/><path class="cls-106" d="M642.42,595.82c14.12,6.16,78.19,21.91,85.7-4.08-26.4-26.73-71.7-38.12-102-12.25C629.65,583.37,644.42,597.12,642.42,595.82Z"/><path class="cls-107" d="M307.79,567.25c-13.55,0-24.24,8.57-36.73,12.24C278.28,596.51,312.36,586,307.79,567.25Z"/><path class="cls-108" d="M789.33,583.57c-2.61-3.63-4.44-7.59-4.08-12.24,9.06,2.12,30.32,12.69,8.16,12.24,7.19,9,19.18-3.75,28.57,4.08-9.75-10.77-25.18-21.26-40.81-20.4C780,574.92,782.4,580.39,789.33,583.57Z"/><path class="cls-109" d="M789.33,583.57a6.7,6.7,0,0,1,4.08,0c22.16.45.9-10.12-8.16-12.24C784.89,576,786.72,579.94,789.33,583.57Z"/><path class="cls-110" d="M364.92,616.22c23.75,16.28,123.86,3.27,110.19-36.73-.9,3.88,1.59,11.18-4.09,12.25-11.22-27-43.5-8.62-65.21-12.12S367.66,616.51,364.92,616.22Z"/><path class="cls-111" d="M973,755c-9.34-7.75-10.89-35.54,10.9-23.14s8.73,19.1-2.74,27.22c-12.12,10.41-26.93,22.53-36.72,36.73,37.21,18.61,54.68,77.54,12.52,98.23s-95.49,4.73-114.55-37c-3.22,17.47-23.46,24.45-36.72,32.65,11,22,25.42,48.81,11.22,72.44s-59.5,20.69-80.6,21.42S674,966.77,666,951.75s1.06-50.32,9.06-58c4.24-4.08,12.08-13.43,16.32-16.32-7.3,4.81-11.59,9.75-16.32,0-8.2,11.3-18.69,22.4-20.41,36.72C601.94,926.9,539.58,925.55,487.35,910c-18.08,47.83-57.87,58.93-106.1,61.22s-80.19-32.36-93.86-73.46C301.55,875.68,335.21,845,316,824.35c-22.48,37.09-57.42,58.43-97.9,73.49s-93-10.73-122.47-28.6c-13.18-39.34,10.33-106,53.06-106.11,23-13.06,23.75-50.4-9.51-38.07s-38-29.51-22.2-46.69,24.2-35.13,19.46-54c-32.15,4.7-59.25,42.77-85.7,49-1.42,1.15-7.26,2.08-8.16,4.08,0,54.48-3.71,122.31,0,175.48s-17,117.78,16.33,159.16c22,18.56,68.19,23,102,20.4-7-9.26-3-21.79-4.08-32.65,4.08-.45,11.14,1.92,12.24-4.08-6.45-.77-3.84-1-8.16-4.08-39.34-27.75,70.88-78.8,65.29-16.32a29.84,29.84,0,0,0,0,4.08c-9,15.18,31.22,36.6,40.81,44.89-12.61,8.94-33.3,1.75-49,4.08,18,9.18,44.16,1.59,65.29,4.08-54.8,9.51-117.61,1.39-175.47,4.08,68.64,12.28,147.81,2.33,220.36,4.08s152.14,1.63,224.45,0,154.1,6.16,224.45,0,150.26,18.9,212.21-8.16a91.08,91.08,0,0,0,40.8-85.7c-3.79-39.75,3.84-92.76,0-134.67s6.45-92.55,0-134.67c-45.21-33.79-91.28-67.94-142.83-89.78,29.47,32,51.38,51.87,72.19,91.05s-20.81,74.15-47.7,100.76C937.67,791,943.47,734.36,973,755m-857-20.4c15.71,9-14.82,35.7-27.26,27.17S104,727.67,116,734.57m-8.16,183.64c8.53,3.71-.86,24.81-11,18.93s-2.12-24.65,11-18.93M569,954.93c23.38,11.43-5.8,45.91-27.22,31.3s7-41.17,27.22-31.3m367.27,0c35.1,11.72,5.43,58.2-28.56,40.81S904.13,944.24,936.24,954.93Z"/><path class="cls-112" d="M169,689.68c-9.71-16.49,34-34,41.75-43.95s62-5.31,60.27-.94C275.47,573.86,116.19,660.54,169,689.68Z"/><path class="cls-113" d="M830.14,685.6c-49.3-47,90.84-49.38,89.78,4.08,5.67-1.06,3.18-8.37,4.08-12.25-9.26-30.73-45.13-52.84-81.62-53S791.13,659.11,830.14,685.6Z"/><path class="cls-114" d="M169,689.68c23.18,12.77,99.82-9.35,102-44.89,1.76-4.37-52.52-9.06-60.27.94S159.33,673.19,169,689.68Z"/><path class="cls-115" d="M748.52,640.71c-12.69-3.55-21.83,10.4-8.2,16.28S760,643.89,748.52,640.71Z"/><path class="cls-116" d="M830.14,685.6c20.57,13.95,109.94,45.21,93.86-8.17-.9,3.88,1.59,11.19-4.08,12.25C921,636.22,780.84,638.62,830.14,685.6Z"/><path class="cls-117" d="M499.59,759.05c-14.69-26.73,17.55-54.19,39.59-66.52s73.82-13,95.37-3.14,64.43,20.94,65,49.26c15.8-68.93-85-90.64-134.62-85.66S439.68,709.84,499.59,759.05Z"/><path class="cls-110" d="M1030.1,677.43c6.45,42.12-3.83,92.76,0,134.67s-3.79,94.92,0,134.67a91.08,91.08,0,0,1-40.8,85.7c26.93-11.75,37.87-28.81,44.89-57.13,12-97.25,0-203.88,0-302v-4.08c-.13-.24-7.39-3.67-8.17-4.08C1028.76,668.46,1029.49,673.48,1030.1,677.43Z"/><path class="cls-118" d="M1034.19,975.34c7.06-28.57,5.22-70.4,4.08-102s4.53-72.19,0-102,12.81-75.12-4.08-97.94C1034.14,771.46,1046.22,878.09,1034.19,975.34Z"/><path class="cls-119" d="M377.16,681.51c-18.28-12-46,10.9-28.89,24.78S391,690.53,377.16,681.51Z"/><path class="cls-120" d="M499.59,759.05c26.49,21.75,76.56,33.06,110.18,28.57s81-10.41,89.78-49c-.57-28.32-43.42-39.46-65-49.26s-73.38-9.18-95.37,3.14S484.9,732.32,499.59,759.05Z"/><path class="cls-121" d="M801.58,730.49c-16.74-.78-21.76,28.32-.13,28.44S815.7,731.14,801.58,730.49Z"/><path class="cls-122" d="M973,755c1.23.86,6.57,3.75,8.16,4.08,11.47-8.12,24.57-14.77,2.74-27.22S963.63,747.22,973,755Z"/><path class="cls-123" d="M116,734.57c-12-6.9-39.71,18.69-27.26,27.17S131.7,743.59,116,734.57Z"/><path class="cls-124" d="M165,877.4C128,855.69,171.69,804,193.85,792s35.79-11,52.77-16.61,47.29,16.65,48.93,12.2c-14.29-56.4-86-36.44-123.45-13.27S104,860.87,165,877.4Z"/><path class="cls-125" d="M777.09,759.05c-19.55-8-35.14,25.06-15,35.38S795.82,766.72,777.09,759.05Z"/><path class="cls-126" d="M409.81,767.21c-13.95-8.93-41,7.1-25.38,21.31S424.38,776.56,409.81,767.21Z"/><path class="cls-127" d="M165,877.4c49.09,13.3,145.69-30.16,130.59-89.78-1.64,4.45-32-17.84-48.93-12.2S216.05,780,193.85,792,128,855.69,165,877.4Z"/><path class="cls-128" d="M715.88,779.46c-7.06-3.31-45.18,26.64-56.24,25.38s-61,10-44.44,22.24,57.18-7.22,71.78-7.14S728.41,785.29,715.88,779.46Z"/><path class="cls-129" d="M875,869.24c-6-7.27-16-33.71-5-49.87s37.55-13.06,54.85-4.08,19.22,20.69,34.89,34.48-7,37.3-3.14,35.79c35.63-16.65,18.44-56.93-5.1-76.52s-58.2-38.81-88.43-17S851.12,849.57,875,869.24Z"/><path class="cls-130" d="M875,869.24c21.34,17.54,54.4,29,81.62,16.32-3.88,1.51,18.81-22,3.14-35.79s-17.55-25.55-34.89-34.48-43.79-12.08-54.85,4.08S869,862,875,869.24Z"/><path class="cls-131" d="M511.83,812.1c-9,1.8-22.65-3.91-28.56,4.08C488.49,835.57,515.47,834.67,511.83,812.1Z"/><path class="cls-132" d="M585.29,848.83c-19.38-8.65-40.16,19.1-19.06,31.3S604.67,857.48,585.29,848.83Z"/><path class="cls-133" d="M348.6,946.77c-22.08-28.77,11.83-61.17,39.5-66.6S453.31,879,466.94,910c10.45-54.35-58.68-63.9-95.16-50.27S299.26,922.08,348.6,946.77Z"/><path class="cls-134" d="M715.88,869.24a147.2,147.2,0,0,1,32.64,0C736.4,866.42,728.28,866,715.88,869.24Z"/><path class="cls-135" d="M691.39,877.4c-4.24,2.89-12.08,12.24-16.32,16.32-10.69,19.79-.74,39,12.24,53-26.12-64.68,118.18-72.92,122.43-8.16,6.53-2.16,2.94-11.22,4.08-16.32-7.71-33.14-35.14-46-65.3-53a147.2,147.2,0,0,0-32.64,0C707.27,871.48,699.76,874.58,691.39,877.4Z"/><path class="cls-136" d="M348.6,946.77C379.49,962.2,457.84,957.26,466.94,910,453.31,879,415.77,874.7,388.1,880.17S326.52,918,348.6,946.77Z"/><path class="cls-137" d="M687.31,946.77c30.93,33.47,141.81,41.42,126.51-24.48-1.14,5.1,2.45,14.16-4.08,16.32C805.49,873.85,661.19,882.09,687.31,946.77Z"/><path class="cls-138" d="M107.83,918.21c-13.14-5.72-21.18,13.1-11,18.93S116.36,921.92,107.83,918.21Z"/><path class="cls-139" d="M160.88,991.66c-5.39-9.3,13.38-21.63,24.81-28.24s34.12,14.9,40.48,11.92C231.76,912.86,121.54,963.91,160.88,991.66Z"/><path class="cls-140" d="M569,954.93c-20.25-9.87-48.65,16.69-27.22,31.3S592.35,966.36,569,954.93Z"/><path class="cls-141" d="M936.24,954.93c-32.11-10.69-62.56,23.43-28.56,40.81S971.34,966.65,936.24,954.93Z"/><path class="cls-142" d="M160.88,991.66c4.32,3.06,1.71,3.31,8.16,4.08,20.65,2.53,42.81-1.1,57.13-16.32a29.84,29.84,0,0,1,0-4.08c-6.36,3-29-18.53-40.48-11.92S155.49,982.36,160.88,991.66Z"/><path class="cls-143" d="M169,995.74c-1.1,6-8.16,3.63-12.24,4.08,1.1,10.86-2.94,23.39,4.08,32.65-33.83,2.57-80.07-1.84-102-20.4,13.06,16.2,28.2,23,49,24.48,57.86-2.69,120.67,5.43,175.47-4.08-21.13-2.49-47.25,5.1-65.29-4.08,15.67-2.33,36.36,4.86,49-4.08-9.59-8.29-49.83-29.71-40.81-44.89C211.85,994.64,189.69,998.27,169,995.74Z"/></svg>