<svg id="Layer_1" data-name="Layer 1" xmlns="http://www.w3.org/2000/svg" viewBox="0 0 1080 1080"><defs><style>.cls-1{fill:#30245a;}.cls-2{fill:#111227;}.cls-3{fill:#fff;}</style></defs><title>Astra-Logo2</title><rect class="cls-1" width="1080" height="1080" rx="114.79" transform="translate(1080 0) rotate(90)"/><rect class="cls-2" x="9.82" y="9.82" width="1060.36" height="1060.36" rx="104.97"/><path class="cls-3" d="M384.75,490.24c14.71-.77,29.46-1.21,44.15-2.41,18.06-1.48,36-3.8,52.62-11.9,22.64-11,35.47-29.33,38.07-54,2.09-20,2.49-40.16,3.39-60.26q3.91-88,7.62-176,1.77-41.23,3.44-82.47a12.37,12.37,0,0,1,1-4.87c.74,11.94,1.61,23.87,2.2,35.81q3.57,72.75,7,145.51c2.17,44.64,4.22,89.27,6.71,133.89,2.22,39.62,25.69,64.61,67.66,70.93,19.48,2.94,39.31,3.49,59,5.08,3.46.27,6.94.33,10.4,1.33-11.44.54-22.88.92-34.31,1.64-18.08,1.14-36.13,2.84-53.45,8.57-29,9.58-44.9,30-48.28,60-1.72,15.2-2.47,30.54-3.08,45.85q-4.78,119.84-9.24,239.71c-1.65,44.29-3.08,88.59-4.63,132.88a2.48,2.48,0,0,1-1.24,2.14c-.13-1.89-.34-3.78-.39-5.67-1.65-66.84-3-133.69-5-200.51-1.88-64.06-4.28-128.1-6.68-192.14a209.85,209.85,0,0,0-3.09-30.23c-4.91-26.43-21.43-43-46.24-51.81-17.25-6.13-35.35-7.47-53.41-8.69-11.42-.78-22.86-1.14-34.29-1.69Z"/><path class="cls-3" d="M602.73,397.73c9.73-1.66,19.4-3.74,29.18-4.9,34.81-4.15,69.58-9,104.51-11.68,42.39-3.26,84.89-3.46,126.77,6,12.83,2.91,25.27,6.94,35.74,15.42,12,9.73,14.88,22.24,8,36.08-5.53,11.18-14.27,19.67-23.83,27.36-21.79,17.54-46.53,30-72.1,40.79-59.74,25.31-121.9,42.51-185.7,53.89-12.07,2.15-24.39,2.89-36.6,4.28l-.57-1.9c6.17-3,12.15-6.38,18.52-8.79,30.34-11.53,60.87-22.53,91.15-34.2,37.07-14.28,73.74-29.56,107.32-51.1a164.26,164.26,0,0,0,26.47-20.83c17.52-17.22,14.38-33-8-43.14-15.49-7-32.12-9.48-48.85-11.17-45.61-4.61-91.13-2-136.62,1.9q-17.61,1.51-35.2,3.08C602.86,398.46,602.79,398.09,602.73,397.73Z"/><path class="cls-3" d="M476.29,555.3c-12.83,3-25.57,6.45-38.51,8.85a656.39,656.39,0,0,1-137.71,11.29c-30-.8-59.79-3.43-88.3-13.34a119.66,119.66,0,0,1-28.45-14.39c-15.69-10.82-18.07-27.2-7.37-43.12,8.4-12.51,20.23-21.45,32.66-29.52,32.33-21,67.9-34.82,104.35-46.5,52.23-16.74,105.69-28.47,159.65-38,2.72-.48,5.46-.87,8.19-1.27a1.89,1.89,0,0,1,1.75.82c-14.48,3.83-29,7.58-43.43,11.51-44.81,12.19-89.48,24.83-132.23,43.31-19.19,8.3-37.87,17.64-54.08,31a85.34,85.34,0,0,0-16.59,17.62c-9.44,14-6.32,27.73,7.57,37.5,13.7,9.64,29.37,14.39,45.51,17.87,35.07,7.55,70.67,8.63,106.33,7.88,25.09-.52,50.16-2.11,75.24-3.21,1.65-.07,3.3,0,5,0Z"/></svg>