<svg id="Layer_1" data-name="Layer 1" xmlns="http://www.w3.org/2000/svg" viewBox="0 0 1080 1080"><defs><style>.cls-1{fill:#0c1523;}.cls-10,.cls-11,.cls-12,.cls-13,.cls-14,.cls-15,.cls-16,.cls-17,.cls-18,.cls-19,.cls-2,.cls-20,.cls-21,.cls-22,.cls-23,.cls-24,.cls-25,.cls-26,.cls-27,.cls-28,.cls-29,.cls-3,.cls-30,.cls-31,.cls-32,.cls-33,.cls-34,.cls-35,.cls-36,.cls-37,.cls-38,.cls-39,.cls-4,.cls-5,.cls-6,.cls-7,.cls-8,.cls-9{fill:none;stroke-width:1.22px;}.cls-2{stroke:#0c0e14;}.cls-3{stroke:#0c1523;}.cls-4{stroke:#686d73;}.cls-5{stroke:#2d2b2b;}.cls-6{stroke:#ab939c;}.cls-7{stroke:#ca9c82;}.cls-8{stroke:#e6e6e5;}.cls-9{stroke:#c2a6c2;}.cls-10{stroke:#0e0f0e;}.cls-11{stroke:#6c6955;}.cls-12{stroke:#f2e2b0;}.cls-13{stroke:#fad18b;}.cls-14{stroke:#eba84c;}.cls-15{stroke:#f8cc82;}.cls-16{stroke:#e8a64b;}.cls-17{stroke:#8a6233;}.cls-18{stroke:#f3ce75;}.cls-19{stroke:#d48935;}.cls-20{stroke:#e9962c;}.cls-21{stroke:#f5d47f;}.cls-22{stroke:#8d7a46;}.cls-23{stroke:#0c1623;}.cls-24{stroke:#98a4d3;}.cls-25{stroke:#7d7149;}.cls-26{stroke:#edae55;}.cls-27{stroke:#dd9b46;}.cls-28{stroke:#0c1521;}.cls-29{stroke:#c47b2a;}.cls-30{stroke:#a393c7;}.cls-31{stroke:#766c48;}.cls-32{stroke:#66633d;}.cls-33{stroke:#e5e4e4;}.cls-34{stroke:#dda894;}.cls-35{stroke:#5d629d;}.cls-36{stroke:#b29ac9;}.cls-37{stroke:#8280bd;}.cls-38{stroke:#0a0b12;}.cls-39{stroke:#d3d3d3;}.cls-40{fill:#0c0e14;}.cls-41{fill:#686d73;}.cls-42{fill:#2d2b2b;}.cls-43{fill:#ab939c;}.cls-44{fill:#ca9c82;}.cls-45{fill:#e6e6e5;}.cls-46{fill:#c2a6c2;}.cls-47{fill:#0e0f0e;}.cls-48{fill:#6c6955;}.cls-49{fill:#f2e2b0;}.cls-50{fill:#fad18b;}.cls-51{fill:#eba84c;}.cls-52{fill:#f8cc82;}.cls-53{fill:#e8a64b;}.cls-54{fill:#8a6233;}.cls-55{fill:#f3ce75;}.cls-56{fill:#d48935;}.cls-57{fill:#e9962c;}.cls-58{fill:#f5d47f;}.cls-59{fill:#8d7a46;}.cls-60{fill:#0c1623;}.cls-61{fill:#98a4d3;}.cls-62{fill:#7d7149;}.cls-63{fill:#edae55;}.cls-64{fill:#dd9b46;}.cls-65{fill:#0c1521;}.cls-66{fill:#c47b2a;}.cls-67{fill:#a393c7;}.cls-68{fill:#766c48;}.cls-69{fill:#66633d;}.cls-70{fill:#e5e4e4;}.cls-71{fill:#dda894;}.cls-72{fill:#5d629d;}.cls-73{fill:#b29ac9;}.cls-74{fill:#8280bd;}.cls-75{fill:#0a0b12;}.cls-76{fill:#d3d3d3;}</style></defs><title>avatar-saturn</title><rect class="cls-1" width="1080" height="1080"/><path class="cls-2" d="M37.93,107.37c-8.57,94.27,2.12,190.9,0,285.66s-2.94,190.66,0,285.66-9.71,195.11,0,289.75c2.16,9.79,4.12,16.4,8.16,24.48-18.32-59.62,2.08-132-4.08-200s4-141.81,0-212.21,4.65-144.22,0-216.28,8.49-138,0-212.21S79.23,41,152.19,50.24s144.63-5.14,216.29,0,141.77-4.29,212.21,0,143.19-6.37,212.2,0,145.73-12.49,208.13,0c-70.24-32.12-173.44.82-253-8.16s-176.82,3.43-257.09,0-184.26.32-261.18,0S56.21,19,37.93,107.37Z"/><path class="cls-3" d="M46.09,992.92c11.75,23.55,28.65,33,53.05,40.81a8.2,8.2,0,0,0,4.08,0c27.92-20.65,81.54,2.16,118.35-4.08s86.92,2.61,126.51,0,85.86.69,126.5,0,85.86-.78,126.51,0,86.84-2.78,126.51,0,89.49-6.61,126.5,0,94.23-16.81,122.43,4.08h4.08c33.87-5.55,60.48-30.81,65.3-65.29,3.95-91.33-6.78-190.78-4.09-285.67s2.66-194.9,0-289.74,8-194.66,4.09-285.66c-4-28.48-20.2-45.87-44.89-57.13-62.4-12.49-139.12,6.37-208.13,0s-141.77,4.28-212.2,0-140.55,5.14-212.21,0-143.32,9.22-216.29,0S33.56,78,42,152.26,37.36,292.4,42,364.47s-4,145.89,0,216.28S35.85,725,42,793s-14.24,140.34,4.08,200m351-869.23c14,2.41,14,32-4.21,28.45s-12.16-31.26,4.21-28.45m330.55,8.17c11.91,3.3,6.77,28.6-6.94,23s-10.41-27.83,6.94-23M262.38,193.07c-21.39,10.69-42.2,26.77-44.89,53.05-11.55-21.83-23.26-47.79-53.05-49,24.6-8.53,48.44-22.44,49-53.05,9.3,21.38,18.69,49.26,49,49m595.8-44.89c21.31,4.33,17,45.95-8.24,40.69s-15.87-45.59,8.24-40.69M66.49,707.26c28.12-22.08,29.18-54.28,60.2-78.56s40.52-55.21,79.57-71.41,17.47-83.9,32.9-118.1S259.48,366.92,285.84,339s43.5-54.11,74.8-76.19,67.67-39.13,105.78-45.21,97.17-17.19,134.75-.09,70.48,13.51,100.72,46.2,58,35,97.82,17.83S892,270.16,931.64,270.61s76,28.24,85.62,65.41-23.75,73.91-43.79,102.92-47.62,52.36-75.5,75.5-71.58,38.64-72.35,78.64-21.3,75.17-40.56,106.34-37.47,59.83-68.69,82.32S650.1,816.63,613.25,829.6s-95,16.33-134.63,8.29-70.68-20-105-41.87-78.23,7.79-119.41,9.14-99.36,12.12-138.79-4S72.17,746,66.49,707.26M140,376.71c18,3.18,16.08,39.91-6.86,35.34s-11.34-38.56,6.86-35.34M931.64,682.77c28.2,3.72,22.61,52.49-6.86,47.59s-21.95-51.38,6.86-47.59M907.16,866.41c-28.61,5-52.28,26.9-53.06,57.14-7.87-27.79-23.46-55-57.13-57.14,24.36-6.69,51.91-22.73,53-53,9,26.45,29.71,47.79,57.14,53M282.78,886.82c27.67,7.3,15.75,57.91-15,47.62s-17.26-56.11,15-47.62m-130.59,20.4c7.55,3.35,2.49,19.22-6.93,14.86s-1.55-18.65,6.93-14.86M641.9,919.47c14.89,5.3,6,34.48-10.94,27.17s-5.59-33,10.94-27.17m-212.21,8.16c4.94,4.94-4.32,17.42-10.93,10.85S425.12,923.06,429.69,927.63Z"/><path class="cls-4" d="M37.93,968.44c-9.71-94.64,2.94-194.74,0-289.75s-2.12-190.9,0-285.66-8.57-191.39,0-285.66C19.61,195.84,37,299.74,33.85,393s-3.92,196.54,0,289.74S18.34,880,37.93,968.44Z"/><path class="cls-5" d="M1045.91,968.44c13-93.37-3.72-195.52,0-289.75s3.46-191.72,0-285.66,13-192.86,0-285.66c3.95,91-6.74,190.82-4.09,285.66s2.7,194.86,0,289.74S1049.86,877.11,1045.91,968.44Z"/><path class="cls-6" d="M397.05,123.69c-16.37-2.81-22.45,24.9-4.21,28.45S411.08,126.1,397.05,123.69Z"/><path class="cls-7" d="M727.6,131.86c-17.35-4.82-20.65,17.46-6.94,23S739.51,135.16,727.6,131.86Z"/><path class="cls-8" d="M262.38,193.07c-30.28.29-39.67-27.59-49-49-.53,30.61-24.37,44.52-49,53.05,29.79,1.18,41.5,27.14,53.05,49C220.18,219.84,241,203.76,262.38,193.07Z"/><path class="cls-9" d="M858.18,148.18c-24.11-4.9-33.5,35.46-8.24,40.69S879.49,152.51,858.18,148.18Z"/><path class="cls-10" d="M66.49,707.26c5.68,38.69,9.43,77.9,48.89,93.94s97.62,5.35,138.79,4,85.09-31.1,119.41-9.14,65.42,33.79,105,41.87,97.74,4.65,134.63-8.29,71.91-25.42,103.12-47.86,49.42-51.1,68.69-82.32,39.82-66.35,40.56-106.34,44.48-55.5,72.35-78.64,55.42-46.48,75.5-75.5,53.34-65.78,43.79-102.92-46-65-85.62-65.41-92-6.25-131.93,10.89-67.58,14.86-97.82-17.83-63.09-29.1-100.72-46.2-96.59-5.95-134.75.09-74.48,23.17-105.78,45.21S312.25,311,285.84,339s-31.26,66-46.68,100.23,6.12,101.9-32.9,118.1-48.56,47.13-79.57,71.41-32.08,56.48-60.2,78.56M556.2,225.72c16.77,1.14,44.48,2.45,57.13,12.24,31.83,10.61,62.11,24.32,89.78,44.89,16.53,12.28,32.32,29,44.89,44.89,26.57,33.67,29.38,51,48.89,89.86s-3.51,60.36-37,81.21-53.34,34.81-85.7,53.05-60.64,34.28-93.53,49.3C489.15,643,397.33,681.1,299.1,703.18,255.19,635.76,229.73,553,246.05,470.57c29.39-128.26,125.53-239.51,265.26-244.85,15.14-2.17,29.83-2.7,44.89,0M213.41,797c-15.8,1.51-33.26,2.24-49,0-35.75-1.35-72.89-10.86-81.62-49-2.29-10-2-14.73,0-24.49,2.12-24,21.1-52.19,35.79-70.31s37.62-39.18,54.31-51.79,45.55-47.38,56.81-33c4.33,5.55,7.79,20.45,8.16,28.57,1.19,25.71-90.84,75.49-54,111.12s110.47,7.22,154.71-2.25,100.26-32.52,144.26-47.58S570,619.6,612.11,599.93,693.52,557,732.62,532.72s73.9-52.36,109.24-82.55c7.63-7.64,17.43-16.82,24.49-24.49C893.73,391,907.81,356,854.1,344.06c-9.22-.9-19.3-.32-28.56,0-26.16.9-39.22,13-53-8.16-2.17-3.31-5.55-8.57-8.17-12.24-3.63-5.06-15.14-7.1-12.24-16.33,68-6.12,154.5-50.76,220.7-8.48S977,423.27,932.66,463.43s-97.45,82.06-151,114.26S672.79,643.11,613,670.21s-119.17,56.23-184.21,77S284.37,793.33,213.41,797M886.75,380.79c-14.32,4.08-26.24,24.28-44.89,28.57.94,14.93-3.51,38.07-20.4,40.81-17.59-36.2-21.14-72.4,12.24-97.95,20.85-2.53,55.7,1.84,53,28.57M792.89,646.05c-2.33,4.93-.41,4.08-4.08,8.16C733.35,816.3,504.29,884.66,372.56,776.64c155.11-45.38,304.23-115.17,440.74-204,1.06,26.2-10.33,51.75-20.41,73.46M246.05,625.64c2.25,30.53,28.08,53,36.73,81.62-33.46-10.9-71.21,19.14-97.94-12.24C192.92,665.76,219.73,635.44,246.05,625.64Z"/><path class="cls-11" d="M511.31,225.72c14.69-.57,30.24-1,44.89,0C541.14,223,526.45,223.55,511.31,225.72Z"/><path class="cls-12" d="M246.05,470.57c5-4,15.88,2.37,20.41,4.08,12.36-34.56,22-70.35,40.81-102-33.79,14.73,4.61-53.95,24.48-40.81-2.45,8.61-30.93,33.83-12.24,28.57,5.26-10.37,13-16.57,20.4-24.49C403.09,268.24,492.54,221.43,584.77,238A281.24,281.24,0,0,0,613.33,242a13.14,13.14,0,0,0,0-4.08c-12.65-9.79-40.36-11.1-57.13-12.24-14.65-1-30.2-.57-44.89,0C371.58,231.06,275.44,342.31,246.05,470.57Z"/><path class="cls-13" d="M339.91,335.9c27.06-10.73,67.79-6,94.15-20.12s53-21.59,78.19-36.07S555.38,238.2,584.77,238C492.54,221.43,403.09,268.24,339.91,335.9Z"/><path class="cls-14" d="M339.91,335.9c-7.38,7.92-15.14,14.12-20.4,24.49-2.86,5.63-9.31,9.14-8.16,16.32,110.22-10,227.83-50.24,302-134.67A281.24,281.24,0,0,1,584.77,238c-29.39.24-47.3,27.26-72.52,41.75s-51.83,22-78.19,36.07S367,325.17,339.91,335.9Z"/><path class="cls-15" d="M613.33,242c-74.15,84.43-191.76,124.67-302,134.67-1.15-7.18,5.3-10.69,8.16-16.32-18.69,5.26,9.79-20,12.24-28.57-19.87-13.14-58.27,55.54-24.48,40.81-18.78,31.67-28.45,67.46-40.81,102-4.53-1.71-15.39-8.08-20.41-4.08C229.73,553,255.19,635.76,299.1,703.18c98.23-22.08,190-60.19,281.59-102-45.63,10.12-99.54,38.15-151.28,44.6s-138.47,38.16-158.87-24.2c53.62,2.74,109.37-11.3,159.44-20.12S521.15,574.18,567.22,555s70-41.5,115.81-63.7,47.59-92.55,24.16-135C676.3,386,642.55,401.44,606.44,422.86s-75.5,37.67-115.62,51.71-84.88,32.93-127.32,40-126.59,36-97-39.91A736.59,736.59,0,0,0,682.71,307.33c-3.84-20.52-33-28.48-36.73-49,13.3,2.25,24.28,11.27,36.73,16.33-10.74,3.51-5,17,4.08,20.4,6-2.24,8.89-9.79,16.32-8.16-.94-.65,0-4.08,0-4.08-27.67-20.57-58-34.28-89.78-44.89a13.14,13.14,0,0,1,0,4.08M499.07,523.62c9.47,5.67-16.69,35.55-33,28.24s-33.42,26.44-49.54,13.47S431.94,542.6,445,538.88,482.09,513.46,499.07,523.62Z"/><path class="cls-16" d="M580.69,601.16c32.89-15,61.21-31,93.53-49.3s52.23-32.24,85.7-53.05,56.44-42.32,37-81.21S774.57,361.41,748,327.74c-12.61-13.63-29.83-30.28-44.89-40.81-7.43-1.63-10.36,5.92-16.32,8.16-9.06-3.43-14.82-16.89-4.08-20.4-12.45-5.06-23.43-14.08-36.73-16.33,3.71,20.49,32.89,28.45,36.73,49A736.59,736.59,0,0,1,266.46,474.65c-29.55,75.86,54.6,47,97,39.91s87.17-26,127.32-40,79.46-30.32,115.62-51.71S676.3,386,707.19,356.3c23.43,42.45,21.67,112.84-24.16,135S613.25,535.82,567.22,555,480.09,592.63,430,601.44,324.16,624.3,270.54,621.56c20.4,62.36,107.08,30.65,158.87,24.2s105.65-34.48,151.28-44.6m159.15-277.5c-9.1,10.49-18.49,26-32.65,28.56,4.74-19-30.52-39.7-15.26-56.11S726.25,318.31,739.84,323.66Z"/><path class="cls-17" d="M703.11,286.93c15.06,10.53,32.28,27.18,44.89,40.81-12.57-15.92-28.36-32.61-44.89-44.89C703.11,282.85,702.17,286.28,703.11,286.93Z"/><path class="cls-18" d="M764.32,323.66c26.29,4.57,68.16-26.9,97.95-20.41s74.06-1.06,92.84,29.59-7.84,64.27-23.14,89.09-42.16,39.38-61.87,60.56-47.05,34.56-70,52.43S750,566.47,724.74,582s-50.4,31.18-77.5,44.89-54.27,28-83.2,39.26-56.57,24.48-86.27,36.15-60.36,20.45-91.66,30.77-62.23,18.41-95.45,27-78.07,8.36-114,8.44-59.91-33.17-57.13-65.29,36-50.6,48-74.48,62.23-38.64,62.23-60.19c-11.26-14.41-40.07,20.4-56.81,33s-39.62,33.67-54.31,51.79-33.67,46.28-35.79,70.31a136.28,136.28,0,0,0,0,24.49c8.73,38.11,45.87,47.62,81.62,49,16.28.61,32.68,0,49,0,71-3.71,150.34-29.14,215.39-49.87s124.46-49.83,184.21-77,115.16-60.28,168.66-92.52,106.63-74.11,151-114.26,106.27-122.27,40.12-164.58-152.71,2.36-220.7,8.48C749.18,316.56,760.69,318.6,764.32,323.66Z"/><path class="cls-19" d="M739.84,323.66c-13.59-5.35-32.65-43.91-47.91-27.55s20,37.1,15.26,56.11C721.35,349.69,730.74,334.15,739.84,323.66Z"/><path class="cls-20" d="M764.32,323.66c2.62,3.67,6,8.93,8.17,12.24,17.14,6.41,63.09-22.73,85.69-12.24s69.34-15.22,77.22,20.73,4.2,35.71-19.06,70.07-70.07,69.74-102,93.86S779.06,531,753.1,549.13s-37.54,22.36-61.21,36.72-40.52,21.59-63.17,34.77-44.12,19.43-67.17,30.77S516.49,670.94,492.21,680s-45.34,19.22-71,27-50.65,17.72-77.54,24.49-52.85,10.61-81.33,16.61-60.28,3.92-90.07.28-40.52-34.68-31.09-56.15,28.52-44.11,42.6-55.33,42.77-51.1,54.07-39.79c-.37-8.12-3.83-23-8.16-28.57,0,21.55-50.24,36.32-62.23,60.19s-45.18,42.36-47.95,74.48,21.22,65.37,57.13,65.29,80.72.08,114-8.44,64.15-16.61,95.45-27,61.95-19.14,91.66-30.77,57.37-24.81,86.27-36.15,56.07-25.51,83.2-39.26,52.24-29.34,77.5-44.89,52.44-29.18,75.37-47.06,50.28-31.25,70-52.43,46.56-35.75,61.87-60.56,41.91-58.48,23.14-89.09-63.05-23.1-92.84-29.59S790.61,328.23,764.32,323.66Z"/><path class="cls-21" d="M772.49,335.9c13.83,21.18,26.89,9.06,53,8.16,10.61-1.51,17.83-2.36,28.56,0C907.81,356,893.73,391,866.35,425.68c-7.43,9.43-15.63,16.94-24.49,24.49-35.34,30.19-70.15,58.23-109.24,82.55s-78.48,47.5-120.51,67.21-85.29,43.42-129.24,58.44-100,38.12-144.26,47.58S220.75,743.82,183.9,708.2s55.18-85.41,54-111.12c-11.3-11.31-40,28.56-54.07,39.79s-33.22,33.83-42.6,55.33,1.26,52.56,31.09,56.15,61.58,5.72,90.07-.28,54.39-9.88,81.33-16.61,51.91-16.77,77.54-24.49,46.68-17.91,71-27,46.28-17.3,69.34-28.61,44.52-17.54,67.17-30.77,39.54-20.36,63.17-34.77,35.26-18.52,61.21-36.72,29.26-16.69,61.22-40.81,78.72-59.54,102-93.86,26.93-34.08,19.06-70.07-54.61-10.24-77.22-20.73S789.63,342.31,772.49,335.9Z"/><path class="cls-22" d="M825.54,344.06c9.26-.32,19.34-.9,28.56,0C843.37,341.7,836.15,342.55,825.54,344.06Z"/><path class="cls-23" d="M886.75,380.79c2.65-26.73-32.2-31.1-53-28.57-33.38,25.55-29.83,61.75-12.24,97.95,16.89-2.74,21.34-25.88,20.4-40.81C860.51,405.07,872.43,384.87,886.75,380.79Z"/><path class="cls-24" d="M140,376.71c-18.2-3.22-29.79,30.77-6.86,35.34S158,379.89,140,376.71Z"/><path class="cls-25" d="M841.86,450.17c8.86-7.55,17.06-15.06,24.49-24.49C859.29,433.35,849.49,442.53,841.86,450.17Z"/><path class="cls-26" d="M499.07,523.62c-17-10.16-41.06,11.55-54.11,15.26s-44.57,13.47-28.41,26.45,33.3-20.73,49.54-13.47S508.54,529.29,499.07,523.62Z"/><path class="cls-27" d="M788.81,654.21C746,701.63,682.67,719.75,625.29,747.78s-135.2,57.75-199.68,53.34c63.05-18.16,139.36-37.71,200-65.21s113-63.7,167.23-89.86c10.08-21.71,21.47-47.26,20.41-73.46-136.51,88.88-285.63,158.67-440.74,204C504.29,884.66,733.35,816.3,788.81,654.21Z"/><path class="cls-28" d="M246.05,625.64c-26.32,9.8-53.13,40.12-61.21,69.38,26.73,31.38,64.48,1.34,97.94,12.24C274.13,678.65,248.3,656.17,246.05,625.64Z"/><path class="cls-29" d="M788.81,654.21c3.67-4.08,1.75-3.23,4.08-8.16-54.27,26.16-106.51,62.39-167.23,89.86s-137,47.05-200,65.21c64.48,4.41,142.26-25.34,199.68-53.34S746,701.63,788.81,654.21Z"/><path class="cls-30" d="M931.64,682.77c-28.81-3.79-36.32,42.73-6.86,47.59S959.84,686.49,931.64,682.77Z"/><path class="cls-31" d="M82.82,748.07a136.28,136.28,0,0,1,0-24.49C80.86,733.34,80.53,738,82.82,748.07Z"/><path class="cls-32" d="M213.41,797c-16.29,0-32.69.61-49,0C180.15,799.28,197.61,798.55,213.41,797Z"/><path class="cls-33" d="M907.16,866.41c-27.43-5.26-48.16-26.6-57.14-53-1.14,30.32-28.69,46.36-53,53,33.67,2.09,49.26,29.35,57.13,57.14C854.88,893.31,878.55,871.39,907.16,866.41Z"/><path class="cls-34" d="M282.78,886.82c-32.24-8.49-45.7,37.3-15,47.62S310.45,894.12,282.78,886.82Z"/><path class="cls-35" d="M152.19,907.22c-8.48-3.79-16.32,10.53-6.93,14.86S159.74,910.57,152.19,907.22Z"/><path class="cls-36" d="M641.9,919.47c-16.53-5.88-27.83,19.87-10.94,27.17S656.79,924.77,641.9,919.47Z"/><path class="cls-37" d="M429.69,927.63c-4.57-4.57-17.55,4.28-10.93,10.85S434.63,932.57,429.69,927.63Z"/><path class="cls-38" d="M103.22,1033.73q436.64-.18,873.31,0c-28.2-20.89-85.41,2.53-122.43-4.08s-86.84,2.77-126.5,0-85.86.77-126.51,0-85.86-.69-126.51,0-86.92-2.61-126.5,0-89.7-6.24-126.51,0S131.14,1013.08,103.22,1033.73Z"/><path class="cls-39" d="M980.61,1033.73h-4.08q-436.63,0-873.31,0a8.2,8.2,0,0,1-4.08,0c88.31,23.59,199.6-.9,293.82,4.08s203.89,4.29,297.91,0S892.3,1056.62,980.61,1033.73Z"/><path class="cls-40" d="M37.93,107.37c-8.57,94.27,2.12,190.9,0,285.66s-2.94,190.66,0,285.66-9.71,195.11,0,289.75c2.16,9.79,4.12,16.4,8.16,24.48-18.32-59.62,2.08-132-4.08-200s4-141.81,0-212.21,4.65-144.22,0-216.28,8.49-138,0-212.21S79.23,41,152.19,50.24s144.63-5.14,216.29,0,141.77-4.29,212.21,0,143.19-6.37,212.2,0,145.73-12.49,208.13,0c-70.24-32.12-173.44.82-253-8.16s-176.82,3.43-257.09,0-184.26.32-261.18,0S56.21,19,37.93,107.37Z"/><path class="cls-1" d="M46.09,992.92c11.75,23.55,28.65,33,53.05,40.81a8.2,8.2,0,0,0,4.08,0c27.92-20.65,81.54,2.16,118.35-4.08s86.92,2.61,126.51,0,85.86.69,126.5,0,85.86-.78,126.51,0,86.84-2.78,126.51,0,89.49-6.61,126.5,0,94.23-16.81,122.43,4.08h4.08c33.87-5.55,60.48-30.81,65.3-65.29,3.95-91.33-6.78-190.78-4.09-285.67s2.66-194.9,0-289.74,8-194.66,4.09-285.66c-4-28.48-20.2-45.87-44.89-57.13-62.4-12.49-139.12,6.37-208.13,0s-141.77,4.28-212.2,0-140.55,5.14-212.21,0-143.32,9.22-216.29,0S33.56,78,42,152.26,37.36,292.4,42,364.47s-4,145.89,0,216.28S35.85,725,42,793s-14.24,140.34,4.08,200m351-869.23c14,2.41,14,32-4.21,28.45s-12.16-31.26,4.21-28.45m330.55,8.17c11.91,3.3,6.77,28.6-6.94,23s-10.41-27.83,6.94-23M262.38,193.07c-21.39,10.69-42.2,26.77-44.89,53.05-11.55-21.83-23.26-47.79-53.05-49,24.6-8.53,48.44-22.44,49-53.05,9.3,21.38,18.69,49.26,49,49m595.8-44.89c21.31,4.33,17,45.95-8.24,40.69s-15.87-45.59,8.24-40.69M66.49,707.26c28.12-22.08,29.18-54.28,60.2-78.56s40.52-55.21,79.57-71.41,17.47-83.9,32.9-118.1S259.48,366.92,285.84,339s43.5-54.11,74.8-76.19,67.67-39.13,105.78-45.21,97.17-17.19,134.75-.09,70.48,13.51,100.72,46.2,58,35,97.82,17.83S892,270.16,931.64,270.61s76,28.24,85.62,65.41-23.75,73.91-43.79,102.92-47.62,52.36-75.5,75.5-71.58,38.64-72.35,78.64-21.3,75.17-40.56,106.34-37.47,59.83-68.69,82.32S650.1,816.63,613.25,829.6s-95,16.33-134.63,8.29-70.68-20-105-41.87-78.23,7.79-119.41,9.14-99.36,12.12-138.79-4S72.17,746,66.49,707.26M140,376.71c18,3.18,16.08,39.91-6.86,35.34s-11.34-38.56,6.86-35.34M931.64,682.77c28.2,3.72,22.61,52.49-6.86,47.59s-21.95-51.38,6.86-47.59M907.16,866.41c-28.61,5-52.28,26.9-53.06,57.14-7.87-27.79-23.46-55-57.13-57.14,24.36-6.69,51.91-22.73,53-53,9,26.45,29.71,47.79,57.14,53M282.78,886.82c27.67,7.3,15.75,57.91-15,47.62s-17.26-56.11,15-47.62m-130.59,20.4c7.55,3.35,2.49,19.22-6.93,14.86s-1.55-18.65,6.93-14.86M641.9,919.47c14.89,5.3,6,34.48-10.94,27.17s-5.59-33,10.94-27.17m-212.21,8.16c4.94,4.94-4.32,17.42-10.93,10.85S425.12,923.06,429.69,927.63Z"/><path class="cls-41" d="M37.93,968.44c-9.71-94.64,2.94-194.74,0-289.75s-2.12-190.9,0-285.66-8.57-191.39,0-285.66C19.61,195.84,37,299.74,33.85,393s-3.92,196.54,0,289.74S18.34,880,37.93,968.44Z"/><path class="cls-42" d="M1045.91,968.44c13-93.37-3.72-195.52,0-289.75s3.46-191.72,0-285.66,13-192.86,0-285.66c3.95,91-6.74,190.82-4.09,285.66s2.7,194.86,0,289.74S1049.86,877.11,1045.91,968.44Z"/><path class="cls-43" d="M397.05,123.69c-16.37-2.81-22.45,24.9-4.21,28.45S411.08,126.1,397.05,123.69Z"/><path class="cls-44" d="M727.6,131.86c-17.35-4.82-20.65,17.46-6.94,23S739.51,135.16,727.6,131.86Z"/><path class="cls-45" d="M262.38,193.07c-30.28.29-39.67-27.59-49-49-.53,30.61-24.37,44.52-49,53.05,29.79,1.18,41.5,27.14,53.05,49C220.18,219.84,241,203.76,262.38,193.07Z"/><path class="cls-46" d="M858.18,148.18c-24.11-4.9-33.5,35.46-8.24,40.69S879.49,152.51,858.18,148.18Z"/><path class="cls-47" d="M66.49,707.26c5.68,38.69,9.43,77.9,48.89,93.94s97.62,5.35,138.79,4,85.09-31.1,119.41-9.14,65.42,33.79,105,41.87,97.74,4.65,134.63-8.29,71.91-25.42,103.12-47.86,49.42-51.1,68.69-82.32,39.82-66.35,40.56-106.34,44.48-55.5,72.35-78.64,55.42-46.48,75.5-75.5,53.34-65.78,43.79-102.92-46-65-85.62-65.41-92-6.25-131.93,10.89-67.58,14.86-97.82-17.83-63.09-29.1-100.72-46.2-96.59-5.95-134.75.09-74.48,23.17-105.78,45.21S312.25,311,285.84,339s-31.26,66-46.68,100.23,6.12,101.9-32.9,118.1-48.56,47.13-79.57,71.41-32.08,56.48-60.2,78.56M556.2,225.72c16.77,1.14,44.48,2.45,57.13,12.24,31.83,10.61,62.11,24.32,89.78,44.89,16.53,12.28,32.32,29,44.89,44.89,26.57,33.67,29.38,51,48.89,89.86s-3.51,60.36-37,81.21-53.34,34.81-85.7,53.05-60.64,34.28-93.53,49.3C489.15,643,397.33,681.1,299.1,703.18,255.19,635.76,229.73,553,246.05,470.57c29.39-128.26,125.53-239.51,265.26-244.85,15.14-2.17,29.83-2.7,44.89,0M213.41,797c-15.8,1.51-33.26,2.24-49,0-35.75-1.35-72.89-10.86-81.62-49-2.29-10-2-14.73,0-24.49,2.12-24,21.1-52.19,35.79-70.31s37.62-39.18,54.31-51.79,45.55-47.38,56.81-33c4.33,5.55,7.79,20.45,8.16,28.57,1.19,25.71-90.84,75.49-54,111.12s110.47,7.22,154.71-2.25,100.26-32.52,144.26-47.58S570,619.6,612.11,599.93,693.52,557,732.62,532.72s73.9-52.36,109.24-82.55c7.63-7.64,17.43-16.82,24.49-24.49C893.73,391,907.81,356,854.1,344.06c-9.22-.9-19.3-.32-28.56,0-26.16.9-39.22,13-53-8.16-2.17-3.31-5.55-8.57-8.17-12.24-3.63-5.06-15.14-7.1-12.24-16.33,68-6.12,154.5-50.76,220.7-8.48S977,423.27,932.66,463.43s-97.45,82.06-151,114.26S672.79,643.11,613,670.21s-119.17,56.23-184.21,77S284.37,793.33,213.41,797M886.75,380.79c-14.32,4.08-26.24,24.28-44.89,28.57.94,14.93-3.51,38.07-20.4,40.81-17.59-36.2-21.14-72.4,12.24-97.95,20.85-2.53,55.7,1.84,53,28.57M792.89,646.05c-2.33,4.93-.41,4.08-4.08,8.16C733.35,816.3,504.29,884.66,372.56,776.64c155.11-45.38,304.23-115.17,440.74-204,1.06,26.2-10.33,51.75-20.41,73.46M246.05,625.64c2.25,30.53,28.08,53,36.73,81.62-33.46-10.9-71.21,19.14-97.94-12.24C192.92,665.76,219.73,635.44,246.05,625.64Z"/><path class="cls-48" d="M511.31,225.72c14.69-.57,30.24-1,44.89,0C541.14,223,526.45,223.55,511.31,225.72Z"/><path class="cls-49" d="M246.05,470.57c5-4,15.88,2.37,20.41,4.08,12.36-34.56,22-70.35,40.81-102-33.79,14.73,4.61-53.95,24.48-40.81-2.45,8.61-30.93,33.83-12.24,28.57,5.26-10.37,13-16.57,20.4-24.49C403.09,268.24,492.54,221.43,584.77,238A281.24,281.24,0,0,0,613.33,242a13.14,13.14,0,0,0,0-4.08c-12.65-9.79-40.36-11.1-57.13-12.24-14.65-1-30.2-.57-44.89,0C371.58,231.06,275.44,342.31,246.05,470.57Z"/><path class="cls-50" d="M339.91,335.9c27.06-10.73,67.79-6,94.15-20.12s53-21.59,78.19-36.07S555.38,238.2,584.77,238C492.54,221.43,403.09,268.24,339.91,335.9Z"/><path class="cls-51" d="M339.91,335.9c-7.38,7.92-15.14,14.12-20.4,24.49-2.86,5.63-9.31,9.14-8.16,16.32,110.22-10,227.83-50.24,302-134.67A281.24,281.24,0,0,1,584.77,238c-29.39.24-47.3,27.26-72.52,41.75s-51.83,22-78.19,36.07S367,325.17,339.91,335.9Z"/><path class="cls-52" d="M613.33,242c-74.15,84.43-191.76,124.67-302,134.67-1.15-7.18,5.3-10.69,8.16-16.32-18.69,5.26,9.79-20,12.24-28.57-19.87-13.14-58.27,55.54-24.48,40.81-18.78,31.67-28.45,67.46-40.81,102-4.53-1.71-15.39-8.08-20.41-4.08C229.73,553,255.19,635.76,299.1,703.18c98.23-22.08,190-60.19,281.59-102-45.63,10.12-99.54,38.15-151.28,44.6s-138.47,38.16-158.87-24.2c53.62,2.74,109.37-11.3,159.44-20.12S521.15,574.18,567.22,555s70-41.5,115.81-63.7,47.59-92.55,24.16-135C676.3,386,642.55,401.44,606.44,422.86s-75.5,37.67-115.62,51.71-84.88,32.93-127.32,40-126.59,36-97-39.91A736.59,736.59,0,0,0,682.71,307.33c-3.84-20.52-33-28.48-36.73-49,13.3,2.25,24.28,11.27,36.73,16.33-10.74,3.51-5,17,4.08,20.4,6-2.24,8.89-9.79,16.32-8.16-.94-.65,0-4.08,0-4.08-27.67-20.57-58-34.28-89.78-44.89a13.14,13.14,0,0,1,0,4.08M499.07,523.62c9.47,5.67-16.69,35.55-33,28.24s-33.42,26.44-49.54,13.47S431.94,542.6,445,538.88,482.09,513.46,499.07,523.62Z"/><path class="cls-53" d="M580.69,601.16c32.89-15,61.21-31,93.53-49.3s52.23-32.24,85.7-53.05,56.44-42.32,37-81.21S774.57,361.41,748,327.74c-12.61-13.63-29.83-30.28-44.89-40.81-7.43-1.63-10.36,5.92-16.32,8.16-9.06-3.43-14.82-16.89-4.08-20.4-12.45-5.06-23.43-14.08-36.73-16.33,3.71,20.49,32.89,28.45,36.73,49A736.59,736.59,0,0,1,266.46,474.65c-29.55,75.86,54.6,47,97,39.91s87.17-26,127.32-40,79.46-30.32,115.62-51.71S676.3,386,707.19,356.3c23.43,42.45,21.67,112.84-24.16,135S613.25,535.82,567.22,555,480.09,592.63,430,601.44,324.16,624.3,270.54,621.56c20.4,62.36,107.08,30.65,158.87,24.2s105.65-34.48,151.28-44.6m159.15-277.5c-9.1,10.49-18.49,26-32.65,28.56,4.74-19-30.52-39.7-15.26-56.11S726.25,318.31,739.84,323.66Z"/><path class="cls-54" d="M703.11,286.93c15.06,10.53,32.28,27.18,44.89,40.81-12.57-15.92-28.36-32.61-44.89-44.89C703.11,282.85,702.17,286.28,703.11,286.93Z"/><path class="cls-55" d="M764.32,323.66c26.29,4.57,68.16-26.9,97.95-20.41s74.06-1.06,92.84,29.59-7.84,64.27-23.14,89.09-42.16,39.38-61.87,60.56-47.05,34.56-70,52.43S750,566.47,724.74,582s-50.4,31.18-77.5,44.89-54.27,28-83.2,39.26-56.57,24.48-86.27,36.15-60.36,20.45-91.66,30.77-62.23,18.41-95.45,27-78.07,8.36-114,8.44-59.91-33.17-57.13-65.29,36-50.6,48-74.48,62.23-38.64,62.23-60.19c-11.26-14.41-40.07,20.4-56.81,33s-39.62,33.67-54.31,51.79-33.67,46.28-35.79,70.31a136.28,136.28,0,0,0,0,24.49c8.73,38.11,45.87,47.62,81.62,49,16.28.61,32.68,0,49,0,71-3.71,150.34-29.14,215.39-49.87s124.46-49.83,184.21-77,115.16-60.28,168.66-92.52,106.63-74.11,151-114.26,106.27-122.27,40.12-164.58-152.71,2.36-220.7,8.48C749.18,316.56,760.69,318.6,764.32,323.66Z"/><path class="cls-56" d="M739.84,323.66c-13.59-5.35-32.65-43.91-47.91-27.55s20,37.1,15.26,56.11C721.35,349.69,730.74,334.15,739.84,323.66Z"/><path class="cls-57" d="M764.32,323.66c2.62,3.67,6,8.93,8.17,12.24,17.14,6.41,63.09-22.73,85.69-12.24s69.34-15.22,77.22,20.73,4.2,35.71-19.06,70.07-70.07,69.74-102,93.86S779.06,531,753.1,549.13s-37.54,22.36-61.21,36.72-40.52,21.59-63.17,34.77-44.12,19.43-67.17,30.77S516.49,670.94,492.21,680s-45.34,19.22-71,27-50.65,17.72-77.54,24.49-52.85,10.61-81.33,16.61-60.28,3.92-90.07.28-40.52-34.68-31.09-56.15,28.52-44.11,42.6-55.33,42.77-51.1,54.07-39.79c-.37-8.12-3.83-23-8.16-28.57,0,21.55-50.24,36.32-62.23,60.19s-45.18,42.36-47.95,74.48,21.22,65.37,57.13,65.29,80.72.08,114-8.44,64.15-16.61,95.45-27,61.95-19.14,91.66-30.77,57.37-24.81,86.27-36.15,56.07-25.51,83.2-39.26,52.24-29.34,77.5-44.89,52.44-29.18,75.37-47.06,50.28-31.25,70-52.43,46.56-35.75,61.87-60.56,41.91-58.48,23.14-89.09-63.05-23.1-92.84-29.59S790.61,328.23,764.32,323.66Z"/><path class="cls-58" d="M772.49,335.9c13.83,21.18,26.89,9.06,53,8.16,10.61-1.51,17.83-2.36,28.56,0C907.81,356,893.73,391,866.35,425.68c-7.43,9.43-15.63,16.94-24.49,24.49-35.34,30.19-70.15,58.23-109.24,82.55s-78.48,47.5-120.51,67.21-85.29,43.42-129.24,58.44-100,38.12-144.26,47.58S220.75,743.82,183.9,708.2s55.18-85.41,54-111.12c-11.3-11.31-40,28.56-54.07,39.79s-33.22,33.83-42.6,55.33,1.26,52.56,31.09,56.15,61.58,5.72,90.07-.28,54.39-9.88,81.33-16.61,51.91-16.77,77.54-24.49,46.68-17.91,71-27,46.28-17.3,69.34-28.61,44.52-17.54,67.17-30.77,39.54-20.36,63.17-34.77,35.26-18.52,61.21-36.72,29.26-16.69,61.22-40.81,78.72-59.54,102-93.86,26.93-34.08,19.06-70.07-54.61-10.24-77.22-20.73S789.63,342.31,772.49,335.9Z"/><path class="cls-59" d="M825.54,344.06c9.26-.32,19.34-.9,28.56,0C843.37,341.7,836.15,342.55,825.54,344.06Z"/><path class="cls-60" d="M886.75,380.79c2.65-26.73-32.2-31.1-53-28.57-33.38,25.55-29.83,61.75-12.24,97.95,16.89-2.74,21.34-25.88,20.4-40.81C860.51,405.07,872.43,384.87,886.75,380.79Z"/><path class="cls-61" d="M140,376.71c-18.2-3.22-29.79,30.77-6.86,35.34S158,379.89,140,376.71Z"/><path class="cls-62" d="M841.86,450.17c8.86-7.55,17.06-15.06,24.49-24.49C859.29,433.35,849.49,442.53,841.86,450.17Z"/><path class="cls-63" d="M499.07,523.62c-17-10.16-41.06,11.55-54.11,15.26s-44.57,13.47-28.41,26.45,33.3-20.73,49.54-13.47S508.54,529.29,499.07,523.62Z"/><path class="cls-64" d="M788.81,654.21C746,701.63,682.67,719.75,625.29,747.78s-135.2,57.75-199.68,53.34c63.05-18.16,139.36-37.71,200-65.21s113-63.7,167.23-89.86c10.08-21.71,21.47-47.26,20.41-73.46-136.51,88.88-285.63,158.67-440.74,204C504.29,884.66,733.35,816.3,788.81,654.21Z"/><path class="cls-65" d="M246.05,625.64c-26.32,9.8-53.13,40.12-61.21,69.38,26.73,31.38,64.48,1.34,97.94,12.24C274.13,678.65,248.3,656.17,246.05,625.64Z"/><path class="cls-66" d="M788.81,654.21c3.67-4.08,1.75-3.23,4.08-8.16-54.27,26.16-106.51,62.39-167.23,89.86s-137,47.05-200,65.21c64.48,4.41,142.26-25.34,199.68-53.34S746,701.63,788.81,654.21Z"/><path class="cls-67" d="M931.64,682.77c-28.81-3.79-36.32,42.73-6.86,47.59S959.84,686.49,931.64,682.77Z"/><path class="cls-68" d="M82.82,748.07a136.28,136.28,0,0,1,0-24.49C80.86,733.34,80.53,738,82.82,748.07Z"/><path class="cls-69" d="M213.41,797c-16.29,0-32.69.61-49,0C180.15,799.28,197.61,798.55,213.41,797Z"/><path class="cls-70" d="M907.16,866.41c-27.43-5.26-48.16-26.6-57.14-53-1.14,30.32-28.69,46.36-53,53,33.67,2.09,49.26,29.35,57.13,57.14C854.88,893.31,878.55,871.39,907.16,866.41Z"/><path class="cls-71" d="M282.78,886.82c-32.24-8.49-45.7,37.3-15,47.62S310.45,894.12,282.78,886.82Z"/><path class="cls-72" d="M152.19,907.22c-8.48-3.79-16.32,10.53-6.93,14.86S159.74,910.57,152.19,907.22Z"/><path class="cls-73" d="M641.9,919.47c-16.53-5.88-27.83,19.87-10.94,27.17S656.79,924.77,641.9,919.47Z"/><path class="cls-74" d="M429.69,927.63c-4.57-4.57-17.55,4.28-10.93,10.85S434.63,932.57,429.69,927.63Z"/><path class="cls-75" d="M103.22,1033.73q436.64-.18,873.31,0c-28.2-20.89-85.41,2.53-122.43-4.08s-86.84,2.77-126.5,0-85.86.77-126.51,0-85.86-.69-126.51,0-86.92-2.61-126.5,0-89.7-6.24-126.51,0S131.14,1013.08,103.22,1033.73Z"/><path class="cls-76" d="M980.61,1033.73h-4.08q-436.63,0-873.31,0a8.2,8.2,0,0,1-4.08,0c88.31,23.59,199.6-.9,293.82,4.08s203.89,4.29,297.91,0S892.3,1056.62,980.61,1033.73Z"/></svg>