<svg id="Layer_1" data-name="Layer 1" xmlns="http://www.w3.org/2000/svg" viewBox="0 0 1080 1080"><defs><style>.cls-1{fill:#0c1523;}.cls-10,.cls-100,.cls-101,.cls-102,.cls-103,.cls-104,.cls-105,.cls-106,.cls-107,.cls-108,.cls-109,.cls-11,.cls-110,.cls-111,.cls-112,.cls-113,.cls-114,.cls-115,.cls-116,.cls-117,.cls-118,.cls-12,.cls-13,.cls-14,.cls-15,.cls-16,.cls-17,.cls-18,.cls-19,.cls-2,.cls-20,.cls-21,.cls-22,.cls-23,.cls-24,.cls-25,.cls-26,.cls-27,.cls-28,.cls-29,.cls-3,.cls-30,.cls-31,.cls-32,.cls-33,.cls-34,.cls-35,.cls-36,.cls-37,.cls-38,.cls-39,.cls-4,.cls-40,.cls-41,.cls-42,.cls-43,.cls-44,.cls-45,.cls-46,.cls-47,.cls-48,.cls-49,.cls-5,.cls-50,.cls-51,.cls-52,.cls-53,.cls-54,.cls-55,.cls-56,.cls-57,.cls-58,.cls-59,.cls-6,.cls-60,.cls-61,.cls-62,.cls-63,.cls-64,.cls-65,.cls-66,.cls-67,.cls-68,.cls-69,.cls-7,.cls-70,.cls-71,.cls-72,.cls-73,.cls-74,.cls-75,.cls-76,.cls-77,.cls-78,.cls-79,.cls-8,.cls-80,.cls-81,.cls-82,.cls-83,.cls-84,.cls-85,.cls-86,.cls-87,.cls-88,.cls-89,.cls-9,.cls-90,.cls-91,.cls-92,.cls-93,.cls-94,.cls-95,.cls-96,.cls-97,.cls-98,.cls-99{fill:none;stroke-width:1.22px;}.cls-2{stroke:#0b1522;}.cls-3{stroke:#5c636b;}.cls-4{stroke:#828cc5;}.cls-5{stroke:#e4e4e4;}.cls-6{stroke:#0e1013;}.cls-7{stroke:#75787d;}.cls-8{stroke:#e1e1de;}.cls-9{stroke:#aeb2ba;}.cls-10{stroke:#c8b18c;}.cls-11{stroke:#d88b3b;}.cls-12{stroke:#7d8491;}.cls-13{stroke:#bcc6ce;}.cls-14{stroke:#1e70b8;}.cls-15{stroke:#7b705f;}.cls-16{stroke:#594328;}.cls-17{stroke:#93522a;}.cls-18{stroke:#4e4c54;}.cls-19{stroke:#1f72b9;}.cls-20{stroke:#bbc5ce;}.cls-21{stroke:#c8caca;}.cls-22{stroke:#787c84;}.cls-23{stroke:#6d89c5;}.cls-24{stroke:#9b8979;}.cls-25{stroke:#1f69b3;}.cls-26{stroke:#256eb6;}.cls-27{stroke:#d8d8d9;}.cls-28{stroke:#a0a4ad;}.cls-29{stroke:#3e3e40;}.cls-30{stroke:#201f22;}.cls-31{stroke:#6a6a6a;}.cls-32{stroke:#c1c8d1;}.cls-33{stroke:#2471b9;}.cls-34{stroke:#226ab4;}.cls-35{stroke:#2370b8;}.cls-36{stroke:#747983;}.cls-37{stroke:#206cb5;}.cls-38{stroke:#2673ba;}.cls-39{stroke:#bec6d0;}.cls-40{stroke:#151a26;}.cls-41{stroke:#1966ae;}.cls-42{stroke:#2572b9;}.cls-43{stroke:#226fb7;}.cls-44{stroke:#5e6067;}.cls-45{stroke:#4a4d57;}.cls-46{stroke:#747a83;}.cls-47{stroke:#383e4a;}.cls-48{stroke:#3c414a;}.cls-49{stroke:#b2b4b8;}.cls-50{stroke:#363b47;}.cls-51{stroke:#1f6eb7;}.cls-52{stroke:#929699;}.cls-53{stroke:#1c6ab4;}.cls-54{stroke:#90949b;}.cls-55{stroke:#1d6fb7;}.cls-56{stroke:#bebec0;}.cls-57{stroke:#605f5c;}.cls-58{stroke:#1e6ab4;}.cls-59{stroke:#d8d9d8;}.cls-60{stroke:#d0d1d1;}.cls-61{stroke:#9fa3ac;}.cls-62{stroke:#393d44;}.cls-63{stroke:#c6c8ca;}.cls-64{stroke:#8f95a0;}.cls-65{stroke:#cecccb;}.cls-66{stroke:#949aa3;}.cls-67{stroke:#d2d3d1;}.cls-68{stroke:#c2c4c4;}.cls-69{stroke:#686b70;}.cls-70{stroke:#5e6165;}.cls-71{stroke:#93979e;}.cls-72{stroke:#99a1a9;}.cls-73{stroke:#928f93;}.cls-74{stroke:#4d4b4e;}.cls-75{stroke:#c4c4c4;}.cls-76{stroke:#d9d8d7;}.cls-77{stroke:#8e9198;}.cls-78{stroke:#999fa9;}.cls-79{stroke:#747884;}.cls-80{stroke:#9fa5ad;}.cls-81{stroke:#4c535c;}.cls-82{stroke:#93969d;}.cls-83{stroke:#bdbbb9;}.cls-84{stroke:#c6b69e;}.cls-85{stroke:#53351b;}.cls-86{stroke:#7d818b;}.cls-87{stroke:#767c86;}.cls-88{stroke:#c5c4c6;}.cls-89{stroke:#989ba1;}.cls-90{stroke:#9c9fa6;}.cls-91{stroke:#495f91;}.cls-92{stroke:#bac4cf;}.cls-93{stroke:#7e7d7b;}.cls-94{stroke:#dddad7;}.cls-95{stroke:#9ea0a4;}.cls-96{stroke:#bcc5cf;}.cls-97{stroke:#e4b597;}.cls-98{stroke:#216db6;}.cls-99{stroke:#196ab4;}.cls-100{stroke:#bba58c;}.cls-101{stroke:#5d361e;}.cls-102{stroke:#614e3a;}.cls-103{stroke:#726a65;}.cls-104{stroke:#a6522b;}.cls-105{stroke:#b57b4c;}.cls-106{stroke:#1a67b2;}.cls-107{stroke:#206bb5;}.cls-108{stroke:#999faa;}.cls-109{stroke:#81725a;}.cls-110{stroke:#e09038;}.cls-111{stroke:#1962af;}.cls-112{stroke:#a1703c;}.cls-113{stroke:#deb597;}.cls-114{stroke:#8c8f92;}.cls-115{stroke:#bdb7b0;}.cls-116{stroke:#9198a2;}.cls-117{stroke:#75bfe6;}.cls-118{stroke:#c99fbf;}.cls-119{fill:#0b1522;}.cls-120{fill:#5c636b;}.cls-121{fill:#828cc5;}.cls-122{fill:#e4e4e4;}.cls-123{fill:#0e1013;}.cls-124{fill:#75787d;}.cls-125{fill:#e1e1de;}.cls-126{fill:#aeb2ba;}.cls-127{fill:#c8b18c;}.cls-128{fill:#d88b3b;}.cls-129{fill:#7d8491;}.cls-130{fill:#bcc6ce;}.cls-131{fill:#1e70b8;}.cls-132{fill:#7b705f;}.cls-133{fill:#594328;}.cls-134{fill:#93522a;}.cls-135{fill:#4e4c54;}.cls-136{fill:#1f72b9;}.cls-137{fill:#bbc5ce;}.cls-138{fill:#c8caca;}.cls-139{fill:#787c84;}.cls-140{fill:#6d89c5;}.cls-141{fill:#9b8979;}.cls-142{fill:#1f69b3;}.cls-143{fill:#256eb6;}.cls-144{fill:#d8d8d9;}.cls-145{fill:#a0a4ad;}.cls-146{fill:#3e3e40;}.cls-147{fill:#201f22;}.cls-148{fill:#6a6a6a;}.cls-149{fill:#c1c8d1;}.cls-150{fill:#2471b9;}.cls-151{fill:#226ab4;}.cls-152{fill:#2370b8;}.cls-153{fill:#747983;}.cls-154{fill:#206cb5;}.cls-155{fill:#2673ba;}.cls-156{fill:#bec6d0;}.cls-157{fill:#151a26;}.cls-158{fill:#1966ae;}.cls-159{fill:#2572b9;}.cls-160{fill:#226fb7;}.cls-161{fill:#5e6067;}.cls-162{fill:#4a4d57;}.cls-163{fill:#747a83;}.cls-164{fill:#383e4a;}.cls-165{fill:#3c414a;}.cls-166{fill:#b2b4b8;}.cls-167{fill:#363b47;}.cls-168{fill:#1f6eb7;}.cls-169{fill:#929699;}.cls-170{fill:#1c6ab4;}.cls-171{fill:#90949b;}.cls-172{fill:#1d6fb7;}.cls-173{fill:#bebec0;}.cls-174{fill:#605f5c;}.cls-175{fill:#1e6ab4;}.cls-176{fill:#d8d9d8;}.cls-177{fill:#d0d1d1;}.cls-178{fill:#9fa3ac;}.cls-179{fill:#393d44;}.cls-180{fill:#c6c8ca;}.cls-181{fill:#8f95a0;}.cls-182{fill:#cecccb;}.cls-183{fill:#949aa3;}.cls-184{fill:#d2d3d1;}.cls-185{fill:#c2c4c4;}.cls-186{fill:#686b70;}.cls-187{fill:#5e6165;}.cls-188{fill:#93979e;}.cls-189{fill:#99a1a9;}.cls-190{fill:#928f93;}.cls-191{fill:#4d4b4e;}.cls-192{fill:#c4c4c4;}.cls-193{fill:#d9d8d7;}.cls-194{fill:#8e9198;}.cls-195{fill:#999fa9;}.cls-196{fill:#747884;}.cls-197{fill:#9fa5ad;}.cls-198{fill:#4c535c;}.cls-199{fill:#93969d;}.cls-200{fill:#bdbbb9;}.cls-201{fill:#c6b69e;}.cls-202{fill:#53351b;}.cls-203{fill:#7d818b;}.cls-204{fill:#767c86;}.cls-205{fill:#c5c4c6;}.cls-206{fill:#989ba1;}.cls-207{fill:#9c9fa6;}.cls-208{fill:#495f91;}.cls-209{fill:#bac4cf;}.cls-210{fill:#7e7d7b;}.cls-211{fill:#dddad7;}.cls-212{fill:#9ea0a4;}.cls-213{fill:#bcc5cf;}.cls-214{fill:#e4b597;}.cls-215{fill:#216db6;}.cls-216{fill:#196ab4;}.cls-217{fill:#bba58c;}.cls-218{fill:#5d361e;}.cls-219{fill:#614e3a;}.cls-220{fill:#726a65;}.cls-221{fill:#a6522b;}.cls-222{fill:#b57b4c;}.cls-223{fill:#1a67b2;}.cls-224{fill:#206bb5;}.cls-225{fill:#999faa;}.cls-226{fill:#81725a;}.cls-227{fill:#e09038;}.cls-228{fill:#1962af;}.cls-229{fill:#a1703c;}.cls-230{fill:#deb597;}.cls-231{fill:#8c8f92;}.cls-232{fill:#bdb7b0;}.cls-233{fill:#9198a2;}.cls-234{fill:#75bfe6;}.cls-235{fill:#c99fbf;}</style></defs><title>avatar-sattelite</title><rect class="cls-1" width="1080" height="1080"/><path class="cls-2" d="M38.15,109.31c-9.67,94.27,2.2,190.66,0,285.66s-3.55,194.58,0,289.75S26.44,880,38.15,974.46c23.34,94.27,144.38,56.84,224.45,61.21s202.77-.9,285.66,0,208.24,2,285.66,0,205.51,28.61,212.2-69.37c9.59-141,1.19-287.22,0-428.5s12.78-287.9,0-428.49C1026.05,12.39,907.29,47.45,825.76,44s-200.7.28-285.66,0S336,41.37,254.43,44,59.12,14.68,38.15,109.31m314.22,12.24c7.43,4,1.35,22.78-9.18,17.1s-3.63-24,9.18-17.1m522.36,53.06c-6.57,13.14-37.59,16.48-32.65,40.8-10.65-12.28-23.75-30.93-40.81-40.8,19,1.79,31.63-15.59,32.65-32.65,15.06,6.85,15.79,35.91,40.81,32.65M274.84,395a13.5,13.5,0,0,0-4.08,0c-11,4.29-2.66,22.12-8.16,32.65A1157,1157,0,0,1,393.18,448c-4.69-20.89,43.1-26.11,24.49-40.8,15.18-4.94,21.1-10.7,32.65-8.17-19.67-21.18-7.06-42.44,1.06-64.23s8.2-48.15,22.52-67.25,33.87-31,20.29-51.14,11-48,26.44-57.21,58.6-15.67,76.6-5,42.44,15.79,48.64,41.14-7.55,54-32.32,56.8,23.43,48.36,6.82,63.95-24.77,49.58-15,70.72c-9.31,9.75-23.47,16.94-24.49,32.65-39.34-3.59-39,34.6-17.22,54S624.9,488.18,654.36,497c8.49,36.15,24.44,32.11,61.21,32.64s27.88-31.46-5-31.75-45-18.2-76.63-17.22c-.45-33.3,22.2-51.7,24.4-85.78S683.91,344,684.23,306.5s34.4-46.6,68.11-29.91,60.28,10.53,93.9,20.36,57.75,16.49,94.07,20.2,48.36,30.44,32.64,61.79-11.18,61.94-24.77,89.49.94,70.48-32.77,81.49-52-23.87-90-24-9.39,53.05,24.81,24.16c6.45,33.62,49.14,20.6,62.44,47.74s-27.59,64.89-54.28,38c-6.65,32.12-73-5.34-82.51,11.35s37.75,32.93,58.93,36.73,63,14.65,40.23,46.11-10.85,50.81-18,84S831.71,852.24,830.12,889s-23.79,38.81-52,22.9-58.76-2.94-83.82-18.2-54.11-14.08-77.54-24.49-64.43-3.83-81.61-20.4,7.59-51.58,14.16-73.34,12.4-49.33,22.52-71.33,8.21-54,17.27-76.6c21.5-4.85,44.48,17,65.29,12.25s43.54,29.91,60.19-1-19.1-12-36.64-22.61-37,3.51-56.2,3.22-46.11-8-66.19-11.34-29.5,8.16-40.93,26.64-50.24,6.49-47.91,29.63,24.2,32.81,20.36,57.09-3.59,42.57-24.48,57.14c6.24,32.85-18,92.51-61.21,85.69-6.21,41.18-59.42,21.63-82.56,9.1s-42-46-51.79-70.64,17.39-58.64,24.08-85.45,13.88-62.8,49.38-73,18.93-46.64,7.83-77.86c-36.68,17.55-74.06-8.9-111.08-5s-64.64-14.61-106.1-22.69S94.91,475,107.24,439.58s63.33-26.08,77.82-52.77c-38.89,1.39-58.68-33.3-37.63-62.11s20.82-53,33.26-81,12-72.32,48-55.59,77.54,7.47,110.11,16.41,71.66,11.59,81.57,38.15-43.5,57.38-35.05,87.29-3,51.18-24.45,73.5-63.13,9.8-86-8.49M952.26,219.5c7.55,3.34,2.49,19.22-6.93,14.85s-1.59-18.65,6.93-14.85M238.11,631.66c7.55,3.35,2.45,19.23-6.94,14.86s-1.59-18.65,6.94-14.86m-97.94,73.46c3.06-23.83,43-34.4,44.77-4s-36.24,26.53-44.77,4m803.93,102c20.24,4.12,18,45.67-7.14,43.22s-20-48.73,7.14-43.22M181,864.27c6.28,8.08,13.3,20,24.48,20.41-7.3,10.16-21.83,14.36-24.48,28.56-7.35-9.38-16.12-20.73-28.57-24.48,9.63-7.18,22.45-13.51,28.57-24.49m326.47,57.14c13.1,8.28,1,39.42-16.65,28.85s.94-38.77,16.65-28.85m412.17,20.4C890.32,944.55,916.11,915.2,919.62,941.81Z"/><path class="cls-3" d="M38.15,974.46c-11.71-94.43,3.55-194.58,0-289.74S35.94,490,38.15,395s-9.67-191.39,0-285.66c-19.63,88.52-.53,196.41-4.08,289.74s-4.57,196.87,0,289.75S16.44,886.88,38.15,974.46Z"/><path class="cls-4" d="M352.37,121.55c-12.81-6.85-19.71,11.47-9.18,17.1S359.8,125.55,352.37,121.55Z"/><path class="cls-5" d="M874.73,174.61c-25,3.26-25.75-25.8-40.81-32.65-1,17.06-13.67,34.44-32.65,32.65,17.06,9.87,30.16,28.52,40.81,40.8C837.14,191.09,868.16,187.75,874.73,174.61Z"/><path class="cls-6" d="M270.76,395c-5.14-.85-10-6.81-16.33-4.08,16.49-59.17,34.57-118,57.14-175.48,30,11.23,61.82,16.33,93.86,20.41-11.55,60-39.59,115.73-53.06,175.48-26.07-4.37-51.94-9.59-77.53-16.33,22.89,18.29,64.6,30.81,86,8.49s32.9-43.58,24.45-73.5,45-60.76,35.05-87.29-49-29.21-81.57-38.15-74.11.28-110.11-16.41-35.58,27.55-48,55.59-12.2,52.19-33.26,81-1.26,63.5,37.63,62.11c-14.49,26.69-65.54,17.35-77.82,52.77s-17.63,91,23.87,99.12,69.09,26.61,106.1,22.69,74.4,22.53,111.08,5c11.1,31.22,27.63,67.62-7.83,77.86s-42.73,46.2-49.38,73S257.17,778.05,267,802.73s28.69,58.12,51.79,70.64,76.35,32.08,82.56-9.1c43.21,6.82,67.45-52.84,61.21-85.69C483.45,764,483.21,745.72,487,721.44s-18-34-20.36-57.09,36.48-11.14,47.91-29.63,20.85-30,40.93-26.64,47,11.06,66.19,11.34,38.65-13.75,56.2-3.22,53.29-8.33,36.64,22.61-39.34-3.8-60.19,1-43.79-17.1-65.29-12.25c-9.06,22.57-7.15,54.61-17.27,76.6s-15.91,49.62-22.52,71.33-31.34,56.81-14.16,73.34,58.19,10,81.61,20.4,52.44,9.23,77.54,24.49,55.58,2.28,83.82,18.2,50.48,13.91,52-22.9S850,847.18,857.06,814s-4.82-52.61,18-84-19-42.36-40.23-46.11-68.4-20.08-58.93-36.73,75.86,20.77,82.51-11.35c26.69,26.94,67.58-10.81,54.28-38s-56-14.12-62.44-47.74c-34.2,28.89-62.72-24.37-24.81-24.16s56.32,35.05,90,24,19.22-53.95,32.77-81.49,9.1-58.11,24.77-89.49,3.72-58.12-32.64-61.79-60.4-10.41-94.07-20.2-60.23-3.67-93.9-20.36S684.6,269,684.23,306.5s-23.71,54.32-25.87,88.39-24.85,52.48-24.4,85.78c31.66-1,43.78,17,76.63,17.22s41.75,32.28,5,31.75-52.72,3.51-61.21-32.64c-29.46-8.82-68.93-4.21-90.68-23.59s-22.12-57.54,17.22-54c1-15.71,15.18-22.9,24.49-32.65-9.79-21.14-1.67-55.13,15-70.72s-31.59-61.13-6.82-63.95,38.52-31.46,32.32-56.8-30.65-30.53-48.64-41.14-61.13-4.16-76.6,5-40,37.1-26.44,57.21-6,32-20.29,51.14S459.5,313,451.38,334.82s-20.73,43.05-1.06,64.23c-11.55-2.53-17.47,3.23-32.65,8.17,18.61,14.69-29.18,19.91-24.49,40.8a1157,1157,0,0,0-130.58-20.4c5.5-10.53-2.82-28.36,8.16-32.65M576.82,162.36c20.69,4.57,36.53,9.27,49,28.57,5.19,8,16.74,34.52,0,40.81,1.51,17.22-10.65,8.32-16.32,4.08-19.55-14.65-26.08-26.73-53.05-28.57-12.2-.81-24.53.62-36.73,0-2.2,5.68,9.39,13.27,0,16.33C512,219,505,208.72,507.45,203.17c1.35-3.06,2.94-5,4.08-8.16,7.92-21.42,9.43-26.89,32.65-32.65,12.36-3.06,20.56-2.69,32.64,0m-277.5,49c-12.48,60.24-35.17,118.06-57.13,175.48-31.46-5.92-61.54-17.18-93.86-20.4,5.76-54,35.67-67.05,43.95-123.37s56.85-45.83,107-31.71M560.5,244c-10.28-3.14-21.14-5.35-32.65-4.08-1.47-13.88,8.74-29.1,24.49-24.49,21.22-.53,65.17,27.18,28.56,40.81-3.46-7.83-12.44-11.34-20.4-12.24m12.24,16.32c25.39,11.88,43.63,30.86,28.85,57.42s-8.77,56.2-24.77,81.33c-4.08,6.45-5.06,6.29-12.24,8.17-4.16,1.06-7.14,5.75-12.24,4.08,3.39-12.65-6.49-27.39-20.41-24.49,1,1.14,0,4.08,0,4.08,5.55,4.45,10.45,7.63,8.17,16.33-9.43-7.72-18.9-15.72-28.57-20.41-9.22-2.16-26.44-1.59-32.65,4.08,8.57,6.61,21.59,9.27,32.65,12.24,14.89,5.11,31.46,9.72,20.4,28.57-9.18.57-15.14-8.81-24.48-8.16-14.24-4.73-28.85-9.84-44.89-8.16,5.1-12.49,6.41-30.12,20.4-36.73-1-.37-2.77-4.16-4.08-4.08-11.55.77-9.71,11.47-20.4,12.24-6-6.08-5.27-18.2,4.08-20.4,9-6.29,27.95-6.53,36.73,0h4.08c10.93-.74,21.34,4.73,28.56,0a71.6,71.6,0,0,0-28.56-8.16c-10.65-.86-22-.21-32.65,0-7.88.16-12.81,2.85-20.4,4.08,13.05-36.89,27.09-73.42,40.8-110.19,28.49-4,55.42-4.2,81.62,8.16m253,44.89c-13.71,66-36.77,130.14-53,195.89-32.57-4.33-82.07-13-111.09-23.59S663,403.62,672,379.91s10.49-93,39.66-99.08S793.4,311,825.76,305.19m142.83,32.65c-15.27,67.34-39.46,132.06-53.05,200-42.69-12.28-86.6-20.6-130.59-28.56,11.1-68.48,35.13-133.32,53-200,43.62,8.94,86.84,19.59,130.59,28.57m-706,65.29c-5.92,22.25-14.29,25.51-36.73,20.41-5-27.59,16.2-32.16,36.73-20.41m-24.49,61.22c.69-.53,18.32-8.53,24.49-8.16-.45,4.08,1.91,11.14-4.09,12.24C256.76,480.1,249,493,246.27,505.16c-1.43,6.4-.9,14.48-4.08,20.4,0,2.2,15,9.47,8.16,16.32-29.18,18.74-60.56-6.08-92.51-9.5s-69.58-24.69-46.24-59.87c8.82-27.51,18.24-67.33,54-53.95s59.26,6.9,93,21.3c-4.08,10.33-21.91,10.57-20.4,24.49m232.61-36.73c35.1,2.78,77.37,23.83,85.7,61.21-4.65,3.8-10.41,4.41-16.32,4.08-33.06,22.49-39.79,70.15-16.33,102-8.57,9.59-9.51,22-16.32,32.64-13.75-14.48-28.65-33.17-44.89-44.89-28.49-16.4-71.62-22-102-8.16,17.91-49.21,22.16-126.87,77.53-146.91,12.41-3.22,20.69-2.29,32.65,0M327.89,501.08c-.73,3.71,0,8.48,0,12.24,0,9.51-.2,19.06,0,28.56.16,7.88,2.86,12.82,4.08,20.41-40.44.08-95.49-19.26-69.37-69.38,5.18-20.85,12.73-41.25,28.56-57.13,22.94,7.18,47.83,8.69,69.38,20.41-11.39,10.81-27.18,25.5-32.65,44.89m36.73,16.32c-3.76,9.34-10.9,17.3-8.16,28.57-18.2,3.3-16.86-20.33-16.33-32.65,1.59-18.57,13.14-43.14,36.73-36.73-.9,14.41-7.26,27.46-12.24,40.81m257.09,49c-1.14,15.55,3.06,27.14,8.16,40.81-30.23,3.22-97.16-6.86-77.53-53,2-14,7.18-54.36,25.5-60.2s52.16,18.78,72.44,15.31c-11.35,15.79-27.55,34.28-28.57,57.13M540.1,546c-4.21,16,.57,31.66-4.09,44.89-4.81-8-12.12-14.61-12.24-24.49-5.43-17.22-3.92-26,4.08-40.81,5.88-10.89,12.9-24.81,28.57-24.48-6.86,14.24-11.55,29.42-16.32,44.89M785,546c-11.84,2.4-20.65-6.49-32.65-4.09-11-40.48,51.87-31,32.65,4.09m-126.51,20.4a10.9,10.9,0,0,0,0,4.08c2,12.94-5.71,35.26-20.4,20.41-5.8-5.88-5.35-20.94-4.08-28.57,2.44-14.65,18.48-29.51,32.64-20.41.57,9.19-8.81,15.14-8.16,24.49m171.4,40.81c-2,10.4-3.63,17.22,0,28.56-29.59-6.16-68-14.73-96.6-21.75s-81.25-8.32-62.56-47.62c11.18-43.13,43.71-21.18,77.58-16.36s62.93,20.07,97.9,20.44c-1.55,13.71-19.87,20.77-16.32,36.73M491.12,631.66c-9.1,7.19-24.44,5.64-16.32-8.16-16.24,13.67-31.42-5.71-49.05-8.08s-50.32-5.83-28.49-28.65c-16.89-5.22-13.67,13.92-20.4,20.41-7-4.86-16.81-10.82-16.32-20.41,44-16.2,108.18.49,130.58,44.89m371.36-20.4c-5.5,24.48-21.91,31.54-20.4,0,1.43-29.87,28.53-36.12,20.4,0M899.21,599c7.31,11.06,1.68,20.73-8.16,28.56-39,31.18-13.75-61.7,8.16-28.56M429.91,623.5c17.1,7.23,37.22,20.2,24.49,40.81-10.08-.61-17.31-11.38-24.49-16.32-15.55-6.86-36.15-5.14-53.05-8.16-1.14-33.51,32.77-23.35,53.05-16.33m334.63,8.16c-1.06,10-7.18,18.45-8.16,28.57-13,.12-25-3.55-36.73-8.16,1.06-10,7.19-18.45,8.17-28.57,12.48,1.59,23.13,10.2,36.72,8.16m-36.72,36.73c-20.2,67.74-41.38,134.92-57.14,204.05C627,860.85,583.19,849.58,540.1,835.71c20.93-66.4,41.17-133,61.21-200,41.79,11.92,85.21,18.61,126.51,32.65M385,652.07a118.38,118.38,0,0,1,53.05,16.32c71.46,41.1,8.25,108.8,0,167.32C422.73,825,406.49,805,389.1,794.9c-33.13-17.51-74.51-20.53-110.18-8.16,25.5-42.53,21.71-117.08,73.45-134.67,12.37-3.23,20.78-2.12,32.65,0m481.55,49c-13.8,72.23-36.61,141.81-57.14,212.2-41.66-14.12-84.35-24.07-126.5-36.72C695.66,805.75,715.7,736,740.06,668.39,782,680.31,825,687.9,866.57,701M307.49,790.82c-1.07,10-7.19,18.44-8.17,28.56-8.57-.28-15.1-12.28-16.32-20.4a92.27,92.27,0,0,1,24.49-8.16m28.56,4.08c9.92,1,19,1.51,28.57,4.08,12.2,3.26,22,9.75,32.64,16.32,13.47,8.37,29.31,18.37,28.57,36.73-20.24,6.29-23.71-10-16.32-24.48-3.84-2.33-7.43-4.7-12.25-4.08-.81,6.24-7.26,12.89-4.08,20.4-11.14-3.8-23-11.18-32.64-16.32a109,109,0,0,0-49-8.17c-2.17-5.22,3.95-7.59,4.08-12.24,3.22-18.85,6.77-13.67,20.4-12.24m0,36.73c18.81,3.83,33.38,5.3,47.95,21.42s-17.59,30.89-31.71,19.47S312.83,864.8,303.4,848C291,825.71,323.44,829.06,336.05,831.63Z"/><path class="cls-7" d="M544.18,162.36c10.73-1.34,21.87,1,32.64,0C564.74,159.67,556.54,159.3,544.18,162.36Z"/><path class="cls-8" d="M511.53,195c13.14-10.16,17.26-13.75,24.48-12.24,11.19,2.32,21.43,5.87,32.65,8.16,2-5.8,1.47-25.26,8.16-28.57-10.77,1-21.91-1.34-32.64,0C521,168.12,519.45,173.59,511.53,195Z"/><path class="cls-9" d="M568.66,190.93c16.61,3.39,29.1,6.32,44.89,12.24-.37-5.43.29-10.89,0-16.32,4.57.08,9.51,12.12,12.24,4.08-12.44-19.3-28.28-24-49-28.57C570.13,165.67,570.66,185.13,568.66,190.93Z"/><path class="cls-10" d="M511.53,195c-1.14,3.14-2.73,5.1-4.08,8.16.77,3.8,4.94,4.16,8.16,4.08s8.49-3.47,12.24-4.08c4.53-5.51-9.1-16.28,8.16-20.4C528.79,181.26,524.67,184.85,511.53,195Z"/><path class="cls-11" d="M527.85,203.17c10.9-1.71,20.73,2.7,28.57,4.08,27,1.84,33.5,13.92,53.05,28.57,4.94-1.67,4-7.88,4.08-12.24v-8.17c-6-1.3-14.16-6.28-16.32-12.24,6.28-1.51,9.79,5.84,16.32,4.08v-4.08c-15.79-5.92-28.28-8.85-44.89-12.24-11.22-2.29-21.46-5.84-32.65-8.16C518.75,186.89,532.38,197.66,527.85,203.17Z"/><path class="cls-12" d="M613.55,203.17v8.16c8.69,3.92,6.53,8.33,8.16,16.33.13,0,3.1,4.45,4.08,4.08,16.74-6.29,5.19-32.77,0-40.81-2.73,8-7.67-4-12.24-4.08C613.84,192.28,613.18,197.74,613.55,203.17Z"/><path class="cls-13" d="M299.32,211.33c-50.19-14.12-98.75-24.6-107,31.71s-38.19,69.38-43.95,123.37c32.32,3.22,62.4,14.48,93.86,20.4,22-57.42,44.65-115.24,57.13-175.48m-49,0c-6.49,24.94-18.93,48-24.48,73.46-12.57-6.28-28.53-.82-40.81-8.16,12-23.71,17.18-49.5,28.57-73.46,11.38,5.55,23.42,9.51,36.72,8.16m40.81,12.25c-6.12,23.34-16.65,45.29-20.4,69.37-13,1.67-23.35-6.9-36.73-4.08,3.39-25.87,16.65-48.77,24.48-73.46,10.37,4.37,22.65,2.33,32.65,8.17M221.79,293c-9.23,24.2-17.35,48.56-24.49,73.46-59.66,4.81-23.46-50.85-12.24-81.62,11.43,5.39,25.59,1.51,36.73,8.16m44.89,12.24c-13,23.35-15.55,50.12-28.57,73.46-10.28-4.65-20.73-9.14-32.65-8.16C208.69,343.39,222,319,230,293,240.68,302.17,255,298.87,266.68,305.19Z"/><path class="cls-14" d="M250.35,211.33c-13.3,1.35-25.34-2.61-36.72-8.16-11.39,24-16.53,49.75-28.57,73.46,12.28,7.34,28.24,1.88,40.81,8.16C231.42,259.37,243.86,236.27,250.35,211.33Z"/><path class="cls-15" d="M519.69,223.58c-1.59-2.82-1.84-14.33-4.08-16.33-3.22.08-7.39-.28-8.16-4.08C505,208.72,512,219,519.69,223.58Z"/><path class="cls-16" d="M515.61,207.25c2.24,2,2.49,13.51,4.08,16.33,9.39-3.06-2.2-10.65,0-16.33,12.2.62,24.53-.81,36.73,0-7.84-1.38-17.67-5.79-28.57-4.08C524.1,203.78,518.75,207.17,515.61,207.25Z"/><path class="cls-17" d="M613.55,215.41v-8.16c-6.53,1.76-10-5.59-16.32-4.08C599.39,209.13,607.55,214.11,613.55,215.41Z"/><path class="cls-18" d="M613.55,215.41v8.17c2.69-1,4.9,5.38,8.16,4.08-1.63-8,.53-12.41-8.16-16.33Z"/><path class="cls-19" d="M291.16,223.58c-10-5.84-22.28-3.8-32.65-8.17C250.68,240.1,237.42,263,234,288.87c13.38-2.82,23.75,5.75,36.73,4.08C274.51,268.87,285,246.92,291.16,223.58Z"/><path class="cls-20" d="M270.76,395a13.5,13.5,0,0,1,4.08,0c25.59,6.74,51.46,12,77.53,16.33,13.47-59.75,41.51-115.49,53.06-175.48-32-4.08-63.83-9.18-93.86-20.41-22.57,57.5-40.65,116.31-57.14,175.48,6.33-2.73,11.19,3.23,16.33,4.08m77.53-163.23c-.49,27.5-17.91,50.4-20.4,77.53-12.32-2.2-23.83-7.63-36.73-8.16-.45-26.52,19.26-47.21,20.41-73.45,13-1.68,23.34,6.89,36.72,4.08m49,12.24q-11.86,36.74-24.48,73.46c-12.94.12-25-3.55-36.73-8.17,4.78-25,17.14-47.82,20.41-73.45,14.24.2,26.44,8,40.8,8.16m-73.45,73.46c-8.16,24.6-17.39,48.48-24.49,73.45-59.74,9.18-22.73-113.32,24.49-73.45m44.89,8.16C360,357.55,355.35,416.68,307.49,395c5.63-26.48,15.67-51.78,24.48-77.53C343.36,323,355.35,327,368.7,325.6Z"/><path class="cls-21" d="M560.5,244a92.2,92.2,0,0,0,8.16-24.48c-5.22-1.15-14.28,3.1-16.32-4.09-15.75-4.61-26,10.61-24.49,24.49C539.36,238.63,550.22,240.84,560.5,244Z"/><path class="cls-22" d="M560.5,244c8,.9,16.94,4.41,20.4,12.24,36.61-13.63-7.34-41.34-28.56-40.81,2,7.19,11.1,2.94,16.32,4.09A92.2,92.2,0,0,1,560.5,244Z"/><path class="cls-23" d="M952.26,219.5c-8.52-3.8-16.32,10.52-6.93,14.85S959.81,222.84,952.26,219.5Z"/><path class="cls-24" d="M609.47,235.82c5.67,4.24,17.83,13.14,16.32-4.08-1,.37-3.95-4.12-4.08-4.08-3.26,1.3-5.47-5.1-8.16-4.08C613.51,227.94,614.41,234.15,609.47,235.82Z"/><path class="cls-25" d="M348.29,231.74c-13.38,2.81-23.75-5.76-36.72-4.08-1.15,26.24-20.86,46.93-20.41,73.45,12.9.53,24.41,6,36.73,8.16C330.38,282.14,347.8,259.24,348.29,231.74Z"/><path class="cls-26" d="M397.26,244c-14.36-.16-26.56-8-40.8-8.16-3.27,25.63-15.63,48.4-20.41,73.45,11.75,4.62,23.79,8.29,36.73,8.17Q385.46,280.77,397.26,244Z"/><path class="cls-27" d="M470.72,358.25c11.55-1.56,21.06-2.25,32.65,0a71.6,71.6,0,0,1,28.56,8.16c1.43-.94,4.08,0,4.08,0,12.53-3.35,22.9-33.3,28.57-44.89.82-1.64,0-6.12,0-8.16.37-14.33,17.18-41.87,8.16-53.06-26.2-12.36-53.13-12.16-81.62-8.16-13.71,36.77-27.75,73.3-40.8,110.19,7.59-1.23,12.52-3.92,20.4-4.08m40.81-81.62c1.51,14-15.1,12.69-24.49,12.24-1.51-14,15.1-12.69,24.49-12.24m16.32,12.24c-2.69-2.08-14.73-9.14,0-8.16,9.8-1.63,20.9,5.83,20.41,16.32C541.73,294.75,531.81,295,527.85,288.87Z"/><path class="cls-28" d="M564.58,313.36c.61-2.41,7.26-7.31,4.08-12.25,4.12,2.25,5.88,8.08,8.16,12.25,1.35,3.18,8.45,9.5,0,12.24-1.91.61-11.5-2.25-12.24-4.08-5.67,11.59-16,41.54-28.57,44.89,4.58,3.67,41.51,26,40.81,32.64,16-25.13,10-54.72,24.77-81.33s-3.46-45.54-28.85-57.42C581.76,271.49,565,299,564.58,313.36Z"/><path class="cls-29" d="M511.53,276.63c-9.39-.45-26-1.8-24.49,12.24C496.43,289.32,513,290.67,511.53,276.63Z"/><path class="cls-30" d="M527.85,288.87c12.53,2.9,2.57-8,0-8.16C513.12,279.73,525.16,286.79,527.85,288.87Z"/><path class="cls-31" d="M527.85,288.87c4,6.12,13.88,5.88,20.41,8.16.49-10.49-10.61-17.95-20.41-16.32C530.42,280.87,540.38,291.77,527.85,288.87Z"/><path class="cls-32" d="M825.76,305.19c-32.36,5.8-85-30.48-114.15-24.36S680.89,356.16,672,379.91s-39.38,87-10.33,97.58,78.52,19.26,111.09,23.59c16.28-65.75,39.34-129.86,53-195.89M682.93,374.57c5.14-28.12,15.91-54.48,24.48-81.62,45.14-3.18,52.11,14.37,40.85,53.09S722,386.53,682.93,374.57m134.66-61.21c-3.18,28.11-18.52,53-20.4,81.61-19.14,2.86-34.81-7.06-53.05-8.16,2.65-28.28,17.71-53.17,20.4-81.62,19-2.49,34.28,9.31,53.05,8.17M731.9,390.89c-1.76,27.63-13.27,36.4-16.29,65.34s-36.52,15.5-57.17,12.2c0-30.32,17.26-56,20.41-85.7,18.6-1.1,33.95,10.61,53,8.16M789,407.22c-1.43,29.95-16.41,56.31-20.41,85.69-18-2.93-34.93-9.46-53-12.24,6.82-28.93,18.49-56.31,24.49-85.7C757.12,396.12,772.5,403.5,789,407.22Z"/><path class="cls-33" d="M221.79,293c-11.14-6.65-25.3-2.77-36.73-8.16-11.22,30.77-47.42,86.43,12.24,81.62C204.44,341.51,212.56,317.15,221.79,293Z"/><path class="cls-34" d="M266.68,305.19c-11.67-6.32-26-3-36.73-12.24-8,26-21.26,50.44-24.49,77.54,11.92-1,22.37,3.51,32.65,8.16C251.13,355.31,253.66,328.54,266.68,305.19Z"/><path class="cls-35" d="M682.93,374.57c39.09,12,54.07,10.2,65.33-28.53s4.29-56.27-40.85-53.09C698.84,320.09,688.07,346.45,682.93,374.57Z"/><path class="cls-36" d="M564.58,313.36c0,2,.82,6.52,0,8.16.74,1.83,10.33,4.69,12.24,4.08-12,7.18-1.67-21.71,0-12.24-2.28-4.17-4-10-8.16-12.25C571.84,306.05,565.19,311,564.58,313.36Z"/><path class="cls-37" d="M817.59,313.36c-18.77,1.14-34-10.66-53.05-8.17-2.69,28.45-17.75,53.34-20.4,81.62,18.24,1.1,33.91,11,53.05,8.16C799.07,366.37,814.41,341.47,817.59,313.36Z"/><path class="cls-38" d="M323.81,317.44c-47.22-39.87-84.23,82.63-24.49,73.45C306.42,365.92,315.65,342,323.81,317.44Z"/><path class="cls-39" d="M968.59,337.84c-43.75-9-87-19.63-130.59-28.57-17.92,66.65-42,131.49-53,200,44,8,87.9,16.28,130.59,28.56,13.59-67.9,37.78-132.62,53.05-200m-73.46-8.16c-7.59,28.52-15.34,57.38-24.48,85.7-16.29-4-32.53-8.25-49-12.25,4.57-27.74,12.85-54.56,20.4-81.61,18.45-.29,34.48,8.44,53,8.16M956.34,346c-5.34,27.59-14.2,54.16-20.4,81.62-20.32,2.41-36.69-10.53-57.13-8.16,8.77-28.32,14.57-57.62,24.48-85.7,18.45.9,35.79,6.57,53.05,12.24m-89.77,77.54c-2.13,29.87-19.1,55.5-20.41,85.7-18.44-.9-35.83-6.57-53-12.24,6.45-28.61,15.55-56.52,20.4-85.7,18,2.93,34.94,9.46,53.06,12.24m65.29,12.24c-7.18,30.12-13.47,60.64-24.49,89.78-20.2-7.1-60.92-5.22-49.25-32.93s8-43.14,20.69-69.09C895.66,430.48,913,436.27,931.86,435.78Z"/><path class="cls-40" d="M576.82,325.6c8.45-2.74,1.35-9.06,0-12.24C575.15,303.89,564.78,332.78,576.82,325.6Z"/><path class="cls-41" d="M368.7,325.6C355.35,327,343.36,323,332,317.44c-8.81,25.75-18.85,51.05-24.48,77.53C355.35,416.68,360,357.55,368.7,325.6Z"/><path class="cls-42" d="M895.13,329.68c-18.57.28-34.6-8.45-53-8.16-7.55,27.05-15.83,53.87-20.4,81.61,16.44,4,32.68,8.25,49,12.25C879.79,387.06,887.54,358.2,895.13,329.68Z"/><path class="cls-43" d="M956.34,346c-17.26-5.67-34.6-11.34-53.05-12.24-9.91,28.08-15.71,57.38-24.48,85.7,20.44-2.37,36.81,10.57,57.13,8.16C942.14,400.16,951,373.59,956.34,346Z"/><path class="cls-44" d="M470.72,358.25c10.69-.21,22-.86,32.65,0C491.78,356,482.27,356.69,470.72,358.25Z"/><path class="cls-45" d="M462.56,366.41c8.2-3.8,27.54,0,36.73,0C490.51,359.88,471.54,360.12,462.56,366.41Z"/><path class="cls-46" d="M478.88,374.57c6.41-11.1,22.61-.69,28.57,4.08,4.69,3.79,4.53,8.73,4.08,8.16,9.67,4.69,19.14,12.69,28.57,20.41,2.28-8.7-2.62-11.88-8.17-16.33-6-1.26-14.16-6.28-16.32-12.24,5.75.65,13.63,2.65,16.32,8.16,13.92-2.9,23.8,11.84,20.41,24.49,5.1,1.67,8.08-3,12.24-4.08,6.53-24.82-51.05-35.3-61.21-40.81h-4.08c-9.19,0-28.53-3.8-36.73,0-9.35,2.2-10,14.32-4.08,20.4,10.69-.77,8.85-11.47,20.4-12.24m-8.16-4.08C463.25,392.16,449.5,368.32,470.72,370.49Z"/><path class="cls-47" d="M564.58,407.22c7.18-1.88,8.16-1.72,12.24-8.17.7-6.65-36.23-29-40.81-32.64,0,0-2.65-.94-4.08,0-7.22,4.73-17.63-.74-28.56,0C513.53,371.92,571.11,382.4,564.58,407.22Z"/><path class="cls-48" d="M478.88,374.57c1.31-.08,3.06,3.71,4.08,4.08,7.19,2.65,17.18-2.41,24.49,0C501.49,373.88,485.29,363.47,478.88,374.57Z"/><path class="cls-49" d="M507.45,423.54c6-4.16,3.18-14.53,4.08-20.41-11.06-3-24.08-5.63-32.65-12.24,6.21-5.67,23.43-6.24,32.65-4.08.45.57.61-4.37-4.08-8.16-7.31-2.41-17.3,2.65-24.49,0-14,6.61-15.3,24.24-20.4,36.73C478.6,413.7,493.21,418.81,507.45,423.54Z"/><path class="cls-50" d="M531.93,390.89s1-2.94,0-4.08c-2.69-5.51-10.57-7.51-16.32-8.16C517.77,384.61,525.93,389.63,531.93,390.89Z"/><path class="cls-51" d="M731.9,390.89c-19.1,2.45-34.45-9.26-53-8.16-3.15,29.67-20.45,55.38-20.41,85.7,20.65,3.3,54.11,16.73,57.17-12.2S730.14,418.52,731.9,390.89Z"/><path class="cls-52" d="M262.6,403.13c-20.53-11.75-41.71-7.18-36.73,20.41C248.31,428.64,256.68,425.38,262.6,403.13Z"/><path class="cls-53" d="M789,407.22c-16.53-3.72-31.91-11.1-49-12.25-6,29.39-17.67,56.77-24.49,85.7,18.12,2.78,35.1,9.31,53,12.24C772.62,463.53,787.6,437.17,789,407.22Z"/><path class="cls-54" d="M507.45,423.54c9.34-.65,15.3,8.73,24.48,8.16,11.06-18.85-5.51-23.46-20.4-28.57C510.63,409,513.45,419.38,507.45,423.54Z"/><path class="cls-55" d="M866.57,423.54c-18.12-2.78-35.06-9.31-53.06-12.24-4.85,29.18-14,57.09-20.4,85.7,17.22,5.67,34.61,11.34,53,12.24C847.47,479,864.44,453.41,866.57,423.54Z"/><path class="cls-56" d="M111.6,472.51c4.94,13.18,32.77,8,45.22,20.08s44.11,7,56.81,4.41c3.71-2.78,19.54-26.2,24.48-32.65-1.51-13.92,16.32-14.16,20.4-24.49-33.7-14.4-57.25-7.91-93-21.3S120.42,445,111.6,472.51Z"/><path class="cls-57" d="M438.07,427.62c10-1.35,22.53-.82,32.65,0C458.76,425.33,450.48,424.4,438.07,427.62Z"/><path class="cls-58" d="M931.86,435.78c-18.89.49-36.2-5.3-53.05-12.24-12.65,25.95-9.06,41.34-20.69,69.09s29,25.83,49.25,32.93C918.39,496.42,924.68,465.9,931.86,435.78Z"/><path class="cls-59" d="M462.56,582.69c20.81-5.18,16.49-50,28.44-65.41s14-51.75,24.61-69.26c18,6.82,38.93,29.92,24.49,44.89,5.91.33,11.67-.28,16.32-4.08-8.33-37.38-50.6-58.43-85.7-61.21-10.12-.82-22.61-1.35-32.65,0-55.37,20-59.62,97.7-77.53,146.91,30.4-13.87,73.53-8.24,102,8.16m-36.73-97.94c-7.14,27.79-26.32,4.53,0,0m36.73,4.08c0,36.32-39.75-5.38,0,0M409.51,517.4c2.85,11-3.27,23.79-16.33,20.4C394.41,529.48,398.45,516.3,409.51,517.4Z"/><path class="cls-60" d="M262.6,492.91c.81,3.92-.66,8.29,0,12.25,21.18-.49,40.19,7.55,61.21,8.16.45-4.08-1.92-11.14,4.08-12.24,5.47-19.39,21.26-34.08,32.65-44.89C339,444.47,314.1,443,291.16,435.78,275.33,451.66,267.78,472.06,262.6,492.91Z"/><path class="cls-61" d="M462.56,582.69c16.24,11.72,31.14,30.41,44.89,44.89,6.81-10.65,7.75-23.05,16.32-32.64-23.46-31.88-16.73-79.54,16.33-102,14.44-15-6.49-38.07-24.49-44.89C505,465.53,503,501.85,491,517.28S483.37,577.51,462.56,582.69Z"/><path class="cls-62" d="M238.11,464.35c-4.94,6.45-20.77,29.87-24.48,32.65,7.18-1.51,6.73-3.88,12.24-8.17,3.14,14.29-7.59,36.81,8.16,44.89,5.88-8.89-.08-15.3,0-24.48.08-10.69,19.91-66.32,24.48-40.81,6-1.1,3.64-8.16,4.09-12.24C256.43,455.82,238.8,463.82,238.11,464.35Z"/><path class="cls-63" d="M234,509.24c.53,1.71,5.75,7.34,8.16,8.16.45-4.08-1.92-11.14,4.08-12.24,2.7-12.12,10.49-25.06,12.24-36.73C253.94,442.92,234.11,498.55,234,509.24Z"/><path class="cls-64" d="M242.19,525.56c-.94,1.8-5.39,7.76-8.16,8.16-15.75-8.08-5-30.6-8.16-44.89-5.51,4.29-5.06,6.66-12.24,8.17-12.7,2.61-44.36,7.67-56.81-4.41s-40.28-6.9-45.22-20.08c-23.34,35.18,14.25,56.48,46.24,59.87s63.33,28.24,92.51,9.5C257.17,535,242.23,527.76,242.19,525.56Z"/><path class="cls-65" d="M340.13,513.32c12.73-6.2,14.94,11.26,24.49,4.08,5-13.35,11.34-26.4,12.24-40.81C353.27,470.18,341.72,494.75,340.13,513.32Z"/><path class="cls-66" d="M327.89,541.88c-1.43-10.52-2.33-17.91,0-28.56,0-3.76-.73-8.53,0-12.24-6,1.1-3.63,8.16-4.08,12.24-21-.61-40-8.65-61.21-8.16-.66-4,.81-8.33,0-12.25C236.48,543,291.53,562.37,332,562.29,330.75,554.7,328.05,549.76,327.89,541.88Z"/><path class="cls-67" d="M552.34,554.13c6-3.88,65.46,7.47,69.37,12.24,1-22.85,17.22-41.34,28.57-57.13-20.28,3.47-54.11-21.14-72.44-15.31S554.3,540.09,552.34,554.13Z"/><path class="cls-68" d="M527.85,525.56c-2.89,7.51-3.59,12-4.08,20.41H540.1c4.77-15.47,9.46-30.65,16.32-44.89C540.75,500.75,533.73,514.67,527.85,525.56Z"/><path class="cls-69" d="M234,509.24c-.08,9.18,5.88,15.59,0,24.48,2.77-.4,7.22-6.36,8.16-8.16,3.18-5.92,2.65-14,4.08-20.4-6,1.1-3.63,8.16-4.08,12.24C239.78,516.58,234.56,511,234,509.24Z"/><path class="cls-70" d="M327.89,541.88c-.2-9.5,0-19,0-28.56C325.56,524,326.46,531.36,327.89,541.88Z"/><path class="cls-71" d="M364.62,517.4c-9.55,7.18-11.76-10.28-24.49-4.08-.53,12.32-1.87,35.95,16.33,32.65C353.72,534.7,360.86,526.74,364.62,517.4Z"/><path class="cls-72" d="M785,546c19.22-35.06-43.63-44.57-32.65-4.09C764.3,539.48,773.11,548.37,785,546Z"/><path class="cls-73" d="M409.51,517.4c-11.06-1.1-15.1,12.08-16.33,20.4C406.24,541.19,412.36,528.42,409.51,517.4Z"/><path class="cls-74" d="M523.77,566.37c-.86-6.37-.37-14,0-20.4.49-8.41,1.19-12.9,4.08-20.41C519.85,540.42,518.34,549.15,523.77,566.37Z"/><path class="cls-75" d="M634,562.29c8.48,4.28,16.07,8.08,24.48,4.08-.65-9.35,8.73-15.3,8.16-24.49C652.44,532.78,636.4,547.64,634,562.29Z"/><path class="cls-76" d="M670.68,566.37c5.64,21.91,48.36,14.77,68,21.75s55.34,12.16,74.8,19.06c-1.1-.41,10.61,4.24,8.17,4.08.28,0,8.24-4.2,8.16-4.08-3.55-16,14.77-23,16.32-36.73-35-.37-64-15.59-97.9-20.44S681.86,523.24,670.68,566.37Z"/><path class="cls-77" d="M523.77,566.37c.12,9.88,7.43,16.53,12.24,24.49,4.66-13.23-.12-28.9,4.09-44.89H523.77C523.4,552.37,522.91,560,523.77,566.37Z"/><path class="cls-78" d="M621.71,566.37c-3.91-4.77-63.41-16.12-69.37-12.24-19.63,46.19,47.3,56.27,77.53,53C624.77,593.51,620.57,581.92,621.71,566.37Z"/><path class="cls-79" d="M638,590.86c4,2.36,12-1.84,16.32,0,1.59-6.41-3.84-17.23,4.08-20.41a10.9,10.9,0,0,1,0-4.08c-8.41,4-16,.2-24.48-4.08C632.69,569.92,632.24,585,638,590.86Z"/><path class="cls-80" d="M829.84,607.18c.08-.12-7.88,4.08-8.16,4.08-1.8,3,1.42,9,0,12.24-12,6.41-24.94-16.85-8.17-16.32-19.46-6.9-55.13-12.08-74.8-19.06s-62.39.16-68-21.75c-18.69,39.3,34,40.6,62.56,47.62s67,15.59,96.6,21.75C826.21,624.4,827.84,617.58,829.84,607.18Z"/><path class="cls-81" d="M638,590.86c14.69,14.85,22.36-7.47,20.4-20.41-7.92,3.18-2.49,14-4.08,20.41C650,589,642.08,593.22,638,590.86Z"/><path class="cls-82" d="M491.12,631.66c-22.4-44.4-86.59-61.09-130.58-44.89-.49,9.59,9.34,15.55,16.32,20.41,6.73-6.49,3.51-25.63,20.4-20.41-21.83,22.82,10.82,26.29,28.49,28.65s32.81,21.75,49.05,8.08C466.68,637.3,482,638.85,491.12,631.66Z"/><path class="cls-83" d="M842.08,611.26c3.88,6,16.2,4.33,20.4,0C870.61,575.14,843.51,581.39,842.08,611.26Z"/><path class="cls-84" d="M891.05,627.58c5.22-5.67,11-20.73,8.16-28.56C877.3,565.88,852.08,658.76,891.05,627.58Z"/><path class="cls-85" d="M891.05,627.58c9.84-7.83,15.47-17.5,8.16-28.56C902.07,606.85,896.27,621.91,891.05,627.58Z"/><path class="cls-86" d="M821.68,611.26c2.44.16-9.27-4.49-8.17-4.08-16.77-.53-3.79,22.73,8.17,16.32C823.1,620.28,819.88,614.28,821.68,611.26Z"/><path class="cls-87" d="M862.48,611.26c-4.2,4.33-16.52,6-20.4,0C840.57,642.8,857,635.74,862.48,611.26Z"/><path class="cls-88" d="M429.91,648c-3.39-8.94,6.69-17.31,0-24.49-20.28-7-54.19-17.18-53.05,16.33C393.76,642.85,414.36,641.13,429.91,648Z"/><path class="cls-89" d="M429.91,648c7.18,4.94,14.41,15.71,24.49,16.32,12.73-20.61-7.39-33.58-24.49-40.81C436.6,630.68,426.52,639.05,429.91,648Z"/><path class="cls-90" d="M764.54,631.66c-13.59,2-24.24-6.57-36.72-8.16-1,10.12-7.11,18.61-8.17,28.57,11.76,4.61,23.75,8.28,36.73,8.16C757.36,650.11,763.48,641.62,764.54,631.66Z"/><path class="cls-91" d="M238.11,631.66c-8.53-3.79-16.32,10.53-6.94,14.86S245.66,635,238.11,631.66Z"/><path class="cls-92" d="M727.82,668.39c-41.3-14-84.72-20.73-126.51-32.65-20,66.93-40.28,133.57-61.21,200,43.09,13.87,86.92,25.14,130.58,36.73,15.76-69.13,36.94-136.31,57.14-204.05m-69.38-12.24c-4.57,30.73-17.59,59.38-24.48,89.78-17.76-3.67-34.77-10.2-53.06-12.24,10-27.84,20.29-56,24.49-85.7,18.61-1.1,34,10.61,53.05,8.16m57.13,16.32c-.24,31.63-17.46,58.69-20.4,89.78-17.67-3.87-34.16-12.53-53-12.24,9.63-28.08,15.42-57.38,24.48-85.7,16.37,2.33,32.49,5.84,49,8.16m-85.7,81.62c-5.91,30.48-18.2,59.21-24.48,89.78-17.51-5.8-36-8.65-53-16.32,8.45-28.49,19.06-56.28,24.48-85.7,18.16,2,35.18,8.57,53,12.24M687,770.41c-.82,31.47-17.92,58.65-20.41,89.78-17.75-3.67-34.77-10.2-53.05-12.24,5.92-30.44,19.06-59,24.49-89.78C655.18,759.56,669.21,771.31,687,770.41Z"/><path class="cls-93" d="M352.37,652.07c10.08-1.35,22.49-.7,32.65,0C373.15,650,364.74,648.84,352.37,652.07Z"/><path class="cls-51" d="M658.44,656.15c-19.1,2.45-34.44-9.26-53.05-8.16-4.2,29.75-14.45,57.86-24.49,85.7,18.29,2,35.3,8.57,53.06,12.24C640.85,715.53,653.87,686.88,658.44,656.15Z"/><path class="cls-94" d="M389.1,794.9c12.78-2.74,17-28.53,20.41-40.81.53-1.88-.37-6.16,0-8.16,4.61-26.12,26.6-49.83,28.56-77.54A118.38,118.38,0,0,0,385,652.07c-10.16-.7-22.57-1.35-32.65,0-51.74,17.59-47.95,92.14-73.45,134.67,35.67-12.37,77.05-9.35,110.18,8.16m-24.48-77.54c20.65-31.46,34.85,19.63,0,0m-20.41-4.08c1,1.8-15.1,19.39-16.32,20.41-8.08,6.65-8.28,7.87-20.4,8.16-14.12.32,13.1-30.57,20.4-32.65C333.44,707.65,341.36,708.3,344.21,713.28Z"/><path class="cls-55" d="M715.57,672.47c-16.48-2.32-32.6-5.83-49-8.16-9.06,28.32-14.85,57.62-24.48,85.7,18.89-.29,35.38,8.37,53,12.24C698.11,731.16,715.33,704.1,715.57,672.47Z"/><path class="cls-95" d="M409.51,745.93c1.38-.94,4.08,0,4.08,0,11-8.29,27.87,17.1,28.56,28.56-6.4,1.23-14.73-1-16.32-8.16-3.84-2.4-14.28-8.77-16.32-12.24-3.39,12.28-7.63,38.07-20.41,40.81,17.39,10.12,33.63,30.12,49,40.81,8.25-58.52,71.46-126.22,0-167.32-2,27.71-23.95,51.42-28.56,77.54m40.81-20.41c-4.45,4.53-25.47,2.49-24.49-8.16C435.91,714.63,442.89,720.55,450.32,725.52Z"/><path class="cls-96" d="M866.57,701C825,687.9,782,680.31,740.06,668.39,715.7,736,695.66,805.75,682.93,876.52c42.15,12.65,84.84,22.6,126.5,36.72,20.53-70.39,43.34-140,57.14-212.2m-73.46-8.16c-6.49,28.93-15.47,57.42-24.49,85.7-19.26,3.3-33.66-11.47-53-8.17,8.94-29.62,16-59.94,24.49-89.78,18.65.66,35,9.43,53.05,12.25m65.29,12.24c-5.95,32-20.32,61.29-24.48,93.86-18.53-7.1-39.06-7.51-57.13-16.32,5.87-29.3,17-56.77,24.48-85.7,19.75-.25,37,9.59,57.13,8.16m-93.86,85.7c-5.91,30.56-17.54,59.33-24.48,89.78-16.28-4-32.53-8.25-49-12.25,3.18-30.77,16.73-58.92,20.4-89.77,19.3-1.72,34.61,10.69,53,12.24m65.3,16.32c-5.84,30.49-16.77,59.66-24.49,89.78-18.81.37-35.22-8.41-53.05-12.24.2-31.71,17.26-58.64,20.41-89.78C792.66,795.39,809.51,807.63,829.84,807.14Z"/><path class="cls-97" d="M140.17,705.12c8.53,22.57,46.56,26.48,44.77-4S143.23,681.29,140.17,705.12Z"/><path class="cls-98" d="M793.11,692.88c-18.08-2.82-34.4-11.59-53.05-12.25-8.53,29.84-15.55,60.16-24.49,89.78,19.39-3.3,33.79,11.47,53,8.17C777.64,750.3,786.62,721.81,793.11,692.88Z"/><path class="cls-99" d="M858.4,705.12c-20.16,1.43-37.38-8.41-57.13-8.16-7.47,28.93-18.61,56.4-24.48,85.7,18.07,8.81,38.6,9.22,57.13,16.32C838.08,766.41,852.45,737.07,858.4,705.12Z"/><path class="cls-100" d="M307.49,741.85c-2.86,1.67.24-4.16,3.1-9.18s18.2.61,17.3,1c1.22-1,17.34-18.61,16.32-20.41-5.18,5-18.16,6.82-16.32-4.08C320.59,711.28,293.37,742.17,307.49,741.85Z"/><path class="cls-101" d="M344.21,713.28c-2.85-5-10.77-5.63-16.32-4.08C326.05,720.1,339,718.26,344.21,713.28Z"/><path class="cls-102" d="M450.32,725.52c-7.43-5-14.41-10.89-24.49-8.16C424.85,728,445.87,730.05,450.32,725.52Z"/><path class="cls-103" d="M307.49,741.85c12.12-.29,12.32-1.51,20.4-8.16.9-.41-14.45-6-17.3-1S304.63,743.52,307.49,741.85Z"/><path class="cls-104" d="M413.59,745.93c2.94,5.1,6.81,15.71,12.24,20.4,1.59,7.14,9.92,9.39,16.32,8.16C441.46,763,424.57,737.64,413.59,745.93Z"/><path class="cls-37" d="M629.87,754.09c-17.87-3.67-34.89-10.2-53-12.24-5.42,29.42-16,57.21-24.48,85.7,17.06,7.67,35.54,10.52,53,16.32C611.67,813.3,624,784.57,629.87,754.09Z"/><path class="cls-105" d="M409.51,754.09c2,3.47,12.48,9.84,16.32,12.24-5.43-4.69-9.3-15.3-12.24-20.4,0,0-2.7-.94-4.08,0C409.14,747.93,410,752.21,409.51,754.09Z"/><path class="cls-106" d="M687,770.41c-17.8.9-31.83-10.85-49-12.24C632.61,789,619.47,817.51,613.55,848c18.28,2,35.3,8.57,53.05,12.24C669.09,829.06,686.19,801.88,687,770.41Z"/><path class="cls-107" d="M764.54,790.82c-18.44-1.55-33.75-14-53-12.24-3.67,30.85-17.22,59-20.4,89.77,16.44,4,32.69,8.25,49,12.25C747,850.15,758.63,821.38,764.54,790.82Z"/><path class="cls-108" d="M307.49,790.82A92.27,92.27,0,0,0,283,799c1.22,8.12,7.75,20.12,16.32,20.4C300.3,809.26,306.42,800.78,307.49,790.82Z"/><path class="cls-109" d="M315.65,807.14c4.08-11.34,8.32-10.89,20.4-12.24C322.42,793.47,318.87,788.29,315.65,807.14Z"/><path class="cls-110" d="M315.65,807.14c-.13,4.65-6.25,7-4.08,12.24a109,109,0,0,1,49,8.17c9-3.39,13.26-19.8,4.08-28.57-9.55-2.57-18.65-3.06-28.57-4.08C324,796.25,319.73,795.8,315.65,807.14Z"/><path class="cls-111" d="M829.84,807.14c-20.33.49-37.18-11.75-57.13-12.24C769.56,826,752.5,853,752.3,884.68c17.83,3.83,34.24,12.61,53.05,12.24C813.07,866.8,824,837.63,829.84,807.14Z"/><path class="cls-112" d="M360.54,827.55c9.67,5.14,21.5,12.52,32.64,16.32-3.18-7.51,3.27-14.16,4.08-20.4.25-2,.94-6.78,0-8.17-10.61-6.57-20.44-13.06-32.64-16.32C373.8,807.75,369.56,824.16,360.54,827.55Z"/><path class="cls-113" d="M944.1,807.14c-27.18-5.51-32.28,40.81-7.14,43.22S964.34,811.26,944.1,807.14Z"/><path class="cls-114" d="M397.26,823.47c4.82-.62,8.41,1.75,12.25,4.08-7.39,14.48-3.92,30.77,16.32,24.48.74-18.36-15.1-28.36-28.57-36.73C398.2,816.69,397.51,821.47,397.26,823.47Z"/><path class="cls-115" d="M303.4,848c-.77-10.32,27.8-16.16,32.65-16.32C323.44,829.06,291,825.71,303.4,848Z"/><path class="cls-116" d="M303.4,848c9.43,16.85,34.73,13.18,48.89,24.57s46.24-3.35,31.71-19.47-29.14-17.59-47.95-21.42C331.2,831.79,302.63,837.63,303.4,848Z"/><path class="cls-117" d="M181,864.27c-6.12,11-18.94,17.31-28.57,24.49,12.45,3.75,21.22,15.1,28.57,24.48,2.65-14.2,17.18-18.4,24.48-28.56C194.28,884.31,187.26,872.35,181,864.27Z"/><path class="cls-118" d="M507.45,921.41c-15.71-9.92-34.28,18.28-16.65,28.85S520.55,929.69,507.45,921.41Z"/><path class="cls-119" d="M38.15,109.31c-9.67,94.27,2.2,190.66,0,285.66s-3.55,194.58,0,289.75S26.44,880,38.15,974.46c23.34,94.27,144.38,56.84,224.45,61.21s202.77-.9,285.66,0,208.24,2,285.66,0,205.51,28.61,212.2-69.37c9.59-141,1.19-287.22,0-428.5s12.78-287.9,0-428.49C1026.05,12.39,907.29,47.45,825.76,44s-200.7.28-285.66,0S336,41.37,254.43,44,59.12,14.68,38.15,109.31m314.22,12.24c7.43,4,1.35,22.78-9.18,17.1s-3.63-24,9.18-17.1m522.36,53.06c-6.57,13.14-37.59,16.48-32.65,40.8-10.65-12.28-23.75-30.93-40.81-40.8,19,1.79,31.63-15.59,32.65-32.65,15.06,6.85,15.79,35.91,40.81,32.65M274.84,395a13.5,13.5,0,0,0-4.08,0c-11,4.29-2.66,22.12-8.16,32.65A1157,1157,0,0,1,393.18,448c-4.69-20.89,43.1-26.11,24.49-40.8,15.18-4.94,21.1-10.7,32.65-8.17-19.67-21.18-7.06-42.44,1.06-64.23s8.2-48.15,22.52-67.25,33.87-31,20.29-51.14,11-48,26.44-57.21,58.6-15.67,76.6-5,42.44,15.79,48.64,41.14-7.55,54-32.32,56.8,23.43,48.36,6.82,63.95-24.77,49.58-15,70.72c-9.31,9.75-23.47,16.94-24.49,32.65-39.34-3.59-39,34.6-17.22,54S624.9,488.18,654.36,497c8.49,36.15,24.44,32.11,61.21,32.64s27.88-31.46-5-31.75-45-18.2-76.63-17.22c-.45-33.3,22.2-51.7,24.4-85.78S683.91,344,684.23,306.5s34.4-46.6,68.11-29.91,60.28,10.53,93.9,20.36,57.75,16.49,94.07,20.2,48.36,30.44,32.64,61.79-11.18,61.94-24.77,89.49.94,70.48-32.77,81.49-52-23.87-90-24-9.39,53.05,24.81,24.16c6.45,33.62,49.14,20.6,62.44,47.74s-27.59,64.89-54.28,38c-6.65,32.12-73-5.34-82.51,11.35s37.75,32.93,58.93,36.73,63,14.65,40.23,46.11-10.85,50.81-18,84S831.71,852.24,830.12,889s-23.79,38.81-52,22.9-58.76-2.94-83.82-18.2-54.11-14.08-77.54-24.49-64.43-3.83-81.61-20.4,7.59-51.58,14.16-73.34,12.4-49.33,22.52-71.33,8.21-54,17.27-76.6c21.5-4.85,44.48,17,65.29,12.25s43.54,29.91,60.19-1-19.1-12-36.64-22.61-37,3.51-56.2,3.22-46.11-8-66.19-11.34-29.5,8.16-40.93,26.64-50.24,6.49-47.91,29.63,24.2,32.81,20.36,57.09-3.59,42.57-24.48,57.14c6.24,32.85-18,92.51-61.21,85.69-6.21,41.18-59.42,21.63-82.56,9.1s-42-46-51.79-70.64,17.39-58.64,24.08-85.45,13.88-62.8,49.38-73,18.93-46.64,7.83-77.86c-36.68,17.55-74.06-8.9-111.08-5s-64.64-14.61-106.1-22.69S94.91,475,107.24,439.58s63.33-26.08,77.82-52.77c-38.89,1.39-58.68-33.3-37.63-62.11s20.82-53,33.26-81,12-72.32,48-55.59,77.54,7.47,110.11,16.41,71.66,11.59,81.57,38.15-43.5,57.38-35.05,87.29-3,51.18-24.45,73.5-63.13,9.8-86-8.49M952.26,219.5c7.55,3.34,2.49,19.22-6.93,14.85s-1.59-18.65,6.93-14.85M238.11,631.66c7.55,3.35,2.45,19.23-6.94,14.86s-1.59-18.65,6.94-14.86m-97.94,73.46c3.06-23.83,43-34.4,44.77-4s-36.24,26.53-44.77,4m803.93,102c20.24,4.12,18,45.67-7.14,43.22s-20-48.73,7.14-43.22M181,864.27c6.28,8.08,13.3,20,24.48,20.41-7.3,10.16-21.83,14.36-24.48,28.56-7.35-9.38-16.12-20.73-28.57-24.48,9.63-7.18,22.45-13.51,28.57-24.49m326.47,57.14c13.1,8.28,1,39.42-16.65,28.85s.94-38.77,16.65-28.85m412.17,20.4C890.32,944.55,916.11,915.2,919.62,941.81Z"/><path class="cls-120" d="M38.15,974.46c-11.71-94.43,3.55-194.58,0-289.74S35.94,490,38.15,395s-9.67-191.39,0-285.66c-19.63,88.52-.53,196.41-4.08,289.74s-4.57,196.87,0,289.75S16.44,886.88,38.15,974.46Z"/><path class="cls-121" d="M352.37,121.55c-12.81-6.85-19.71,11.47-9.18,17.1S359.8,125.55,352.37,121.55Z"/><path class="cls-122" d="M874.73,174.61c-25,3.26-25.75-25.8-40.81-32.65-1,17.06-13.67,34.44-32.65,32.65,17.06,9.87,30.16,28.52,40.81,40.8C837.14,191.09,868.16,187.75,874.73,174.61Z"/><path class="cls-123" d="M270.76,395c-5.14-.85-10-6.81-16.33-4.08,16.49-59.17,34.57-118,57.14-175.48,30,11.23,61.82,16.33,93.86,20.41-11.55,60-39.59,115.73-53.06,175.48-26.07-4.37-51.94-9.59-77.53-16.33,22.89,18.29,64.6,30.81,86,8.49s32.9-43.58,24.45-73.5,45-60.76,35.05-87.29-49-29.21-81.57-38.15-74.11.28-110.11-16.41-35.58,27.55-48,55.59-12.2,52.19-33.26,81-1.26,63.5,37.63,62.11c-14.49,26.69-65.54,17.35-77.82,52.77s-17.63,91,23.87,99.12,69.09,26.61,106.1,22.69,74.4,22.53,111.08,5c11.1,31.22,27.63,67.62-7.83,77.86s-42.73,46.2-49.38,73S257.17,778.05,267,802.73s28.69,58.12,51.79,70.64,76.35,32.08,82.56-9.1c43.21,6.82,67.45-52.84,61.21-85.69C483.45,764,483.21,745.72,487,721.44s-18-34-20.36-57.09,36.48-11.14,47.91-29.63,20.85-30,40.93-26.64,47,11.06,66.19,11.34,38.65-13.75,56.2-3.22,53.29-8.33,36.64,22.61-39.34-3.8-60.19,1-43.79-17.1-65.29-12.25c-9.06,22.57-7.15,54.61-17.27,76.6s-15.91,49.62-22.52,71.33-31.34,56.81-14.16,73.34,58.19,10,81.61,20.4,52.44,9.23,77.54,24.49,55.58,2.28,83.82,18.2,50.48,13.91,52-22.9S850,847.18,857.06,814s-4.82-52.61,18-84-19-42.36-40.23-46.11-68.4-20.08-58.93-36.73,75.86,20.77,82.51-11.35c26.69,26.94,67.58-10.81,54.28-38s-56-14.12-62.44-47.74c-34.2,28.89-62.72-24.37-24.81-24.16s56.32,35.05,90,24,19.22-53.95,32.77-81.49,9.1-58.11,24.77-89.49,3.72-58.12-32.64-61.79-60.4-10.41-94.07-20.2-60.23-3.67-93.9-20.36S684.6,269,684.23,306.5s-23.71,54.32-25.87,88.39-24.85,52.48-24.4,85.78c31.66-1,43.78,17,76.63,17.22s41.75,32.28,5,31.75-52.72,3.51-61.21-32.64c-29.46-8.82-68.93-4.21-90.68-23.59s-22.12-57.54,17.22-54c1-15.71,15.18-22.9,24.49-32.65-9.79-21.14-1.67-55.13,15-70.72s-31.59-61.13-6.82-63.95,38.52-31.46,32.32-56.8-30.65-30.53-48.64-41.14-61.13-4.16-76.6,5-40,37.1-26.44,57.21-6,32-20.29,51.14S459.5,313,451.38,334.82s-20.73,43.05-1.06,64.23c-11.55-2.53-17.47,3.23-32.65,8.17,18.61,14.69-29.18,19.91-24.49,40.8a1157,1157,0,0,0-130.58-20.4c5.5-10.53-2.82-28.36,8.16-32.65M576.82,162.36c20.69,4.57,36.53,9.27,49,28.57,5.19,8,16.74,34.52,0,40.81,1.51,17.22-10.65,8.32-16.32,4.08-19.55-14.65-26.08-26.73-53.05-28.57-12.2-.81-24.53.62-36.73,0-2.2,5.68,9.39,13.27,0,16.33C512,219,505,208.72,507.45,203.17c1.35-3.06,2.94-5,4.08-8.16,7.92-21.42,9.43-26.89,32.65-32.65,12.36-3.06,20.56-2.69,32.64,0m-277.5,49c-12.48,60.24-35.17,118.06-57.13,175.48-31.46-5.92-61.54-17.18-93.86-20.4,5.76-54,35.67-67.05,43.95-123.37s56.85-45.83,107-31.71M560.5,244c-10.28-3.14-21.14-5.35-32.65-4.08-1.47-13.88,8.74-29.1,24.49-24.49,21.22-.53,65.17,27.18,28.56,40.81-3.46-7.83-12.44-11.34-20.4-12.24m12.24,16.32c25.39,11.88,43.63,30.86,28.85,57.42s-8.77,56.2-24.77,81.33c-4.08,6.45-5.06,6.29-12.24,8.17-4.16,1.06-7.14,5.75-12.24,4.08,3.39-12.65-6.49-27.39-20.41-24.49,1,1.14,0,4.08,0,4.08,5.55,4.45,10.45,7.63,8.17,16.33-9.43-7.72-18.9-15.72-28.57-20.41-9.22-2.16-26.44-1.59-32.65,4.08,8.57,6.61,21.59,9.27,32.65,12.24,14.89,5.11,31.46,9.72,20.4,28.57-9.18.57-15.14-8.81-24.48-8.16-14.24-4.73-28.85-9.84-44.89-8.16,5.1-12.49,6.41-30.12,20.4-36.73-1-.37-2.77-4.16-4.08-4.08-11.55.77-9.71,11.47-20.4,12.24-6-6.08-5.27-18.2,4.08-20.4,9-6.29,27.95-6.53,36.73,0h4.08c10.93-.74,21.34,4.73,28.56,0a71.6,71.6,0,0,0-28.56-8.16c-10.65-.86-22-.21-32.65,0-7.88.16-12.81,2.85-20.4,4.08,13.05-36.89,27.09-73.42,40.8-110.19,28.49-4,55.42-4.2,81.62,8.16m253,44.89c-13.71,66-36.77,130.14-53,195.89-32.57-4.33-82.07-13-111.09-23.59S663,403.62,672,379.91s10.49-93,39.66-99.08S793.4,311,825.76,305.19m142.83,32.65c-15.27,67.34-39.46,132.06-53.05,200-42.69-12.28-86.6-20.6-130.59-28.56,11.1-68.48,35.13-133.32,53-200,43.62,8.94,86.84,19.59,130.59,28.57m-706,65.29c-5.92,22.25-14.29,25.51-36.73,20.41-5-27.59,16.2-32.16,36.73-20.41m-24.49,61.22c.69-.53,18.32-8.53,24.49-8.16-.45,4.08,1.91,11.14-4.09,12.24C256.76,480.1,249,493,246.27,505.16c-1.43,6.4-.9,14.48-4.08,20.4,0,2.2,15,9.47,8.16,16.32-29.18,18.74-60.56-6.08-92.51-9.5s-69.58-24.69-46.24-59.87c8.82-27.51,18.24-67.33,54-53.95s59.26,6.9,93,21.3c-4.08,10.33-21.91,10.57-20.4,24.49m232.61-36.73c35.1,2.78,77.37,23.83,85.7,61.21-4.65,3.8-10.41,4.41-16.32,4.08-33.06,22.49-39.79,70.15-16.33,102-8.57,9.59-9.51,22-16.32,32.64-13.75-14.48-28.65-33.17-44.89-44.89-28.49-16.4-71.62-22-102-8.16,17.91-49.21,22.16-126.87,77.53-146.91,12.41-3.22,20.69-2.29,32.65,0M327.89,501.08c-.73,3.71,0,8.48,0,12.24,0,9.51-.2,19.06,0,28.56.16,7.88,2.86,12.82,4.08,20.41-40.44.08-95.49-19.26-69.37-69.38,5.18-20.85,12.73-41.25,28.56-57.13,22.94,7.18,47.83,8.69,69.38,20.41-11.39,10.81-27.18,25.5-32.65,44.89m36.73,16.32c-3.76,9.34-10.9,17.3-8.16,28.57-18.2,3.3-16.86-20.33-16.33-32.65,1.59-18.57,13.14-43.14,36.73-36.73-.9,14.41-7.26,27.46-12.24,40.81m257.09,49c-1.14,15.55,3.06,27.14,8.16,40.81-30.23,3.22-97.16-6.86-77.53-53,2-14,7.18-54.36,25.5-60.2s52.16,18.78,72.44,15.31c-11.35,15.79-27.55,34.28-28.57,57.13M540.1,546c-4.21,16,.57,31.66-4.09,44.89-4.81-8-12.12-14.61-12.24-24.49-5.43-17.22-3.92-26,4.08-40.81,5.88-10.89,12.9-24.81,28.57-24.48-6.86,14.24-11.55,29.42-16.32,44.89M785,546c-11.84,2.4-20.65-6.49-32.65-4.09-11-40.48,51.87-31,32.65,4.09m-126.51,20.4a10.9,10.9,0,0,0,0,4.08c2,12.94-5.71,35.26-20.4,20.41-5.8-5.88-5.35-20.94-4.08-28.57,2.44-14.65,18.48-29.51,32.64-20.41.57,9.19-8.81,15.14-8.16,24.49m171.4,40.81c-2,10.4-3.63,17.22,0,28.56-29.59-6.16-68-14.73-96.6-21.75s-81.25-8.32-62.56-47.62c11.18-43.13,43.71-21.18,77.58-16.36s62.93,20.07,97.9,20.44c-1.55,13.71-19.87,20.77-16.32,36.73M491.12,631.66c-9.1,7.19-24.44,5.64-16.32-8.16-16.24,13.67-31.42-5.71-49.05-8.08s-50.32-5.83-28.49-28.65c-16.89-5.22-13.67,13.92-20.4,20.41-7-4.86-16.81-10.82-16.32-20.41,44-16.2,108.18.49,130.58,44.89m371.36-20.4c-5.5,24.48-21.91,31.54-20.4,0,1.43-29.87,28.53-36.12,20.4,0M899.21,599c7.31,11.06,1.68,20.73-8.16,28.56-39,31.18-13.75-61.7,8.16-28.56M429.91,623.5c17.1,7.23,37.22,20.2,24.49,40.81-10.08-.61-17.31-11.38-24.49-16.32-15.55-6.86-36.15-5.14-53.05-8.16-1.14-33.51,32.77-23.35,53.05-16.33m334.63,8.16c-1.06,10-7.18,18.45-8.16,28.57-13,.12-25-3.55-36.73-8.16,1.06-10,7.19-18.45,8.17-28.57,12.48,1.59,23.13,10.2,36.72,8.16m-36.72,36.73c-20.2,67.74-41.38,134.92-57.14,204.05C627,860.85,583.19,849.58,540.1,835.71c20.93-66.4,41.17-133,61.21-200,41.79,11.92,85.21,18.61,126.51,32.65M385,652.07a118.38,118.38,0,0,1,53.05,16.32c71.46,41.1,8.25,108.8,0,167.32C422.73,825,406.49,805,389.1,794.9c-33.13-17.51-74.51-20.53-110.18-8.16,25.5-42.53,21.71-117.08,73.45-134.67,12.37-3.23,20.78-2.12,32.65,0m481.55,49c-13.8,72.23-36.61,141.81-57.14,212.2-41.66-14.12-84.35-24.07-126.5-36.72C695.66,805.75,715.7,736,740.06,668.39,782,680.31,825,687.9,866.57,701M307.49,790.82c-1.07,10-7.19,18.44-8.17,28.56-8.57-.28-15.1-12.28-16.32-20.4a92.27,92.27,0,0,1,24.49-8.16m28.56,4.08c9.92,1,19,1.51,28.57,4.08,12.2,3.26,22,9.75,32.64,16.32,13.47,8.37,29.31,18.37,28.57,36.73-20.24,6.29-23.71-10-16.32-24.48-3.84-2.33-7.43-4.7-12.25-4.08-.81,6.24-7.26,12.89-4.08,20.4-11.14-3.8-23-11.18-32.64-16.32a109,109,0,0,0-49-8.17c-2.17-5.22,3.95-7.59,4.08-12.24,3.22-18.85,6.77-13.67,20.4-12.24m0,36.73c18.81,3.83,33.38,5.3,47.95,21.42s-17.59,30.89-31.71,19.47S312.83,864.8,303.4,848C291,825.71,323.44,829.06,336.05,831.63Z"/><path class="cls-124" d="M544.18,162.36c10.73-1.34,21.87,1,32.64,0C564.74,159.67,556.54,159.3,544.18,162.36Z"/><path class="cls-125" d="M511.53,195c13.14-10.16,17.26-13.75,24.48-12.24,11.19,2.32,21.43,5.87,32.65,8.16,2-5.8,1.47-25.26,8.16-28.57-10.77,1-21.91-1.34-32.64,0C521,168.12,519.45,173.59,511.53,195Z"/><path class="cls-126" d="M568.66,190.93c16.61,3.39,29.1,6.32,44.89,12.24-.37-5.43.29-10.89,0-16.32,4.57.08,9.51,12.12,12.24,4.08-12.44-19.3-28.28-24-49-28.57C570.13,165.67,570.66,185.13,568.66,190.93Z"/><path class="cls-127" d="M511.53,195c-1.14,3.14-2.73,5.1-4.08,8.16.77,3.8,4.94,4.16,8.16,4.08s8.49-3.47,12.24-4.08c4.53-5.51-9.1-16.28,8.16-20.4C528.79,181.26,524.67,184.85,511.53,195Z"/><path class="cls-128" d="M527.85,203.17c10.9-1.71,20.73,2.7,28.57,4.08,27,1.84,33.5,13.92,53.05,28.57,4.94-1.67,4-7.88,4.08-12.24v-8.17c-6-1.3-14.16-6.28-16.32-12.24,6.28-1.51,9.79,5.84,16.32,4.08v-4.08c-15.79-5.92-28.28-8.85-44.89-12.24-11.22-2.29-21.46-5.84-32.65-8.16C518.75,186.89,532.38,197.66,527.85,203.17Z"/><path class="cls-129" d="M613.55,203.17v8.16c8.69,3.92,6.53,8.33,8.16,16.33.13,0,3.1,4.45,4.08,4.08,16.74-6.29,5.19-32.77,0-40.81-2.73,8-7.67-4-12.24-4.08C613.84,192.28,613.18,197.74,613.55,203.17Z"/><path class="cls-130" d="M299.32,211.33c-50.19-14.12-98.75-24.6-107,31.71s-38.19,69.38-43.95,123.37c32.32,3.22,62.4,14.48,93.86,20.4,22-57.42,44.65-115.24,57.13-175.48m-49,0c-6.49,24.94-18.93,48-24.48,73.46-12.57-6.28-28.53-.82-40.81-8.16,12-23.71,17.18-49.5,28.57-73.46,11.38,5.55,23.42,9.51,36.72,8.16m40.81,12.25c-6.12,23.34-16.65,45.29-20.4,69.37-13,1.67-23.35-6.9-36.73-4.08,3.39-25.87,16.65-48.77,24.48-73.46,10.37,4.37,22.65,2.33,32.65,8.17M221.79,293c-9.23,24.2-17.35,48.56-24.49,73.46-59.66,4.81-23.46-50.85-12.24-81.62,11.43,5.39,25.59,1.51,36.73,8.16m44.89,12.24c-13,23.35-15.55,50.12-28.57,73.46-10.28-4.65-20.73-9.14-32.65-8.16C208.69,343.39,222,319,230,293,240.68,302.17,255,298.87,266.68,305.19Z"/><path class="cls-131" d="M250.35,211.33c-13.3,1.35-25.34-2.61-36.72-8.16-11.39,24-16.53,49.75-28.57,73.46,12.28,7.34,28.24,1.88,40.81,8.16C231.42,259.37,243.86,236.27,250.35,211.33Z"/><path class="cls-132" d="M519.69,223.58c-1.59-2.82-1.84-14.33-4.08-16.33-3.22.08-7.39-.28-8.16-4.08C505,208.72,512,219,519.69,223.58Z"/><path class="cls-133" d="M515.61,207.25c2.24,2,2.49,13.51,4.08,16.33,9.39-3.06-2.2-10.65,0-16.33,12.2.62,24.53-.81,36.73,0-7.84-1.38-17.67-5.79-28.57-4.08C524.1,203.78,518.75,207.17,515.61,207.25Z"/><path class="cls-134" d="M613.55,215.41v-8.16c-6.53,1.76-10-5.59-16.32-4.08C599.39,209.13,607.55,214.11,613.55,215.41Z"/><path class="cls-135" d="M613.55,215.41v8.17c2.69-1,4.9,5.38,8.16,4.08-1.63-8,.53-12.41-8.16-16.33Z"/><path class="cls-136" d="M291.16,223.58c-10-5.84-22.28-3.8-32.65-8.17C250.68,240.1,237.42,263,234,288.87c13.38-2.82,23.75,5.75,36.73,4.08C274.51,268.87,285,246.92,291.16,223.58Z"/><path class="cls-137" d="M270.76,395a13.5,13.5,0,0,1,4.08,0c25.59,6.74,51.46,12,77.53,16.33,13.47-59.75,41.51-115.49,53.06-175.48-32-4.08-63.83-9.18-93.86-20.41-22.57,57.5-40.65,116.31-57.14,175.48,6.33-2.73,11.19,3.23,16.33,4.08m77.53-163.23c-.49,27.5-17.91,50.4-20.4,77.53-12.32-2.2-23.83-7.63-36.73-8.16-.45-26.52,19.26-47.21,20.41-73.45,13-1.68,23.34,6.89,36.72,4.08m49,12.24q-11.86,36.74-24.48,73.46c-12.94.12-25-3.55-36.73-8.17,4.78-25,17.14-47.82,20.41-73.45,14.24.2,26.44,8,40.8,8.16m-73.45,73.46c-8.16,24.6-17.39,48.48-24.49,73.45-59.74,9.18-22.73-113.32,24.49-73.45m44.89,8.16C360,357.55,355.35,416.68,307.49,395c5.63-26.48,15.67-51.78,24.48-77.53C343.36,323,355.35,327,368.7,325.6Z"/><path class="cls-138" d="M560.5,244a92.2,92.2,0,0,0,8.16-24.48c-5.22-1.15-14.28,3.1-16.32-4.09-15.75-4.61-26,10.61-24.49,24.49C539.36,238.63,550.22,240.84,560.5,244Z"/><path class="cls-139" d="M560.5,244c8,.9,16.94,4.41,20.4,12.24,36.61-13.63-7.34-41.34-28.56-40.81,2,7.19,11.1,2.94,16.32,4.09A92.2,92.2,0,0,1,560.5,244Z"/><path class="cls-140" d="M952.26,219.5c-8.52-3.8-16.32,10.52-6.93,14.85S959.81,222.84,952.26,219.5Z"/><path class="cls-141" d="M609.47,235.82c5.67,4.24,17.83,13.14,16.32-4.08-1,.37-3.95-4.12-4.08-4.08-3.26,1.3-5.47-5.1-8.16-4.08C613.51,227.94,614.41,234.15,609.47,235.82Z"/><path class="cls-142" d="M348.29,231.74c-13.38,2.81-23.75-5.76-36.72-4.08-1.15,26.24-20.86,46.93-20.41,73.45,12.9.53,24.41,6,36.73,8.16C330.38,282.14,347.8,259.24,348.29,231.74Z"/><path class="cls-143" d="M397.26,244c-14.36-.16-26.56-8-40.8-8.16-3.27,25.63-15.63,48.4-20.41,73.45,11.75,4.62,23.79,8.29,36.73,8.17Q385.46,280.77,397.26,244Z"/><path class="cls-144" d="M470.72,358.25c11.55-1.56,21.06-2.25,32.65,0a71.6,71.6,0,0,1,28.56,8.16c1.43-.94,4.08,0,4.08,0,12.53-3.35,22.9-33.3,28.57-44.89.82-1.64,0-6.12,0-8.16.37-14.33,17.18-41.87,8.16-53.06-26.2-12.36-53.13-12.16-81.62-8.16-13.71,36.77-27.75,73.3-40.8,110.19,7.59-1.23,12.52-3.92,20.4-4.08m40.81-81.62c1.51,14-15.1,12.69-24.49,12.24-1.51-14,15.1-12.69,24.49-12.24m16.32,12.24c-2.69-2.08-14.73-9.14,0-8.16,9.8-1.63,20.9,5.83,20.41,16.32C541.73,294.75,531.81,295,527.85,288.87Z"/><path class="cls-145" d="M564.58,313.36c.61-2.41,7.26-7.31,4.08-12.25,4.12,2.25,5.88,8.08,8.16,12.25,1.35,3.18,8.45,9.5,0,12.24-1.91.61-11.5-2.25-12.24-4.08-5.67,11.59-16,41.54-28.57,44.89,4.58,3.67,41.51,26,40.81,32.64,16-25.13,10-54.72,24.77-81.33s-3.46-45.54-28.85-57.42C581.76,271.49,565,299,564.58,313.36Z"/><path class="cls-146" d="M511.53,276.63c-9.39-.45-26-1.8-24.49,12.24C496.43,289.32,513,290.67,511.53,276.63Z"/><path class="cls-147" d="M527.85,288.87c12.53,2.9,2.57-8,0-8.16C513.12,279.73,525.16,286.79,527.85,288.87Z"/><path class="cls-148" d="M527.85,288.87c4,6.12,13.88,5.88,20.41,8.16.49-10.49-10.61-17.95-20.41-16.32C530.42,280.87,540.38,291.77,527.85,288.87Z"/><path class="cls-149" d="M825.76,305.19c-32.36,5.8-85-30.48-114.15-24.36S680.89,356.16,672,379.91s-39.38,87-10.33,97.58,78.52,19.26,111.09,23.59c16.28-65.75,39.34-129.86,53-195.89M682.93,374.57c5.14-28.12,15.91-54.48,24.48-81.62,45.14-3.18,52.11,14.37,40.85,53.09S722,386.53,682.93,374.57m134.66-61.21c-3.18,28.11-18.52,53-20.4,81.61-19.14,2.86-34.81-7.06-53.05-8.16,2.65-28.28,17.71-53.17,20.4-81.62,19-2.49,34.28,9.31,53.05,8.17M731.9,390.89c-1.76,27.63-13.27,36.4-16.29,65.34s-36.52,15.5-57.17,12.2c0-30.32,17.26-56,20.41-85.7,18.6-1.1,33.95,10.61,53,8.16M789,407.22c-1.43,29.95-16.41,56.31-20.41,85.69-18-2.93-34.93-9.46-53-12.24,6.82-28.93,18.49-56.31,24.49-85.7C757.12,396.12,772.5,403.5,789,407.22Z"/><path class="cls-150" d="M221.79,293c-11.14-6.65-25.3-2.77-36.73-8.16-11.22,30.77-47.42,86.43,12.24,81.62C204.44,341.51,212.56,317.15,221.79,293Z"/><path class="cls-151" d="M266.68,305.19c-11.67-6.32-26-3-36.73-12.24-8,26-21.26,50.44-24.49,77.54,11.92-1,22.37,3.51,32.65,8.16C251.13,355.31,253.66,328.54,266.68,305.19Z"/><path class="cls-152" d="M682.93,374.57c39.09,12,54.07,10.2,65.33-28.53s4.29-56.27-40.85-53.09C698.84,320.09,688.07,346.45,682.93,374.57Z"/><path class="cls-153" d="M564.58,313.36c0,2,.82,6.52,0,8.16.74,1.83,10.33,4.69,12.24,4.08-12,7.18-1.67-21.71,0-12.24-2.28-4.17-4-10-8.16-12.25C571.84,306.05,565.19,311,564.58,313.36Z"/><path class="cls-154" d="M817.59,313.36c-18.77,1.14-34-10.66-53.05-8.17-2.69,28.45-17.75,53.34-20.4,81.62,18.24,1.1,33.91,11,53.05,8.16C799.07,366.37,814.41,341.47,817.59,313.36Z"/><path class="cls-155" d="M323.81,317.44c-47.22-39.87-84.23,82.63-24.49,73.45C306.42,365.92,315.65,342,323.81,317.44Z"/><path class="cls-156" d="M968.59,337.84c-43.75-9-87-19.63-130.59-28.57-17.92,66.65-42,131.49-53,200,44,8,87.9,16.28,130.59,28.56,13.59-67.9,37.78-132.62,53.05-200m-73.46-8.16c-7.59,28.52-15.34,57.38-24.48,85.7-16.29-4-32.53-8.25-49-12.25,4.57-27.74,12.85-54.56,20.4-81.61,18.45-.29,34.48,8.44,53,8.16M956.34,346c-5.34,27.59-14.2,54.16-20.4,81.62-20.32,2.41-36.69-10.53-57.13-8.16,8.77-28.32,14.57-57.62,24.48-85.7,18.45.9,35.79,6.57,53.05,12.24m-89.77,77.54c-2.13,29.87-19.1,55.5-20.41,85.7-18.44-.9-35.83-6.57-53-12.24,6.45-28.61,15.55-56.52,20.4-85.7,18,2.93,34.94,9.46,53.06,12.24m65.29,12.24c-7.18,30.12-13.47,60.64-24.49,89.78-20.2-7.1-60.92-5.22-49.25-32.93s8-43.14,20.69-69.09C895.66,430.48,913,436.27,931.86,435.78Z"/><path class="cls-157" d="M576.82,325.6c8.45-2.74,1.35-9.06,0-12.24C575.15,303.89,564.78,332.78,576.82,325.6Z"/><path class="cls-158" d="M368.7,325.6C355.35,327,343.36,323,332,317.44c-8.81,25.75-18.85,51.05-24.48,77.53C355.35,416.68,360,357.55,368.7,325.6Z"/><path class="cls-159" d="M895.13,329.68c-18.57.28-34.6-8.45-53-8.16-7.55,27.05-15.83,53.87-20.4,81.61,16.44,4,32.68,8.25,49,12.25C879.79,387.06,887.54,358.2,895.13,329.68Z"/><path class="cls-160" d="M956.34,346c-17.26-5.67-34.6-11.34-53.05-12.24-9.91,28.08-15.71,57.38-24.48,85.7,20.44-2.37,36.81,10.57,57.13,8.16C942.14,400.16,951,373.59,956.34,346Z"/><path class="cls-161" d="M470.72,358.25c10.69-.21,22-.86,32.65,0C491.78,356,482.27,356.69,470.72,358.25Z"/><path class="cls-162" d="M462.56,366.41c8.2-3.8,27.54,0,36.73,0C490.51,359.88,471.54,360.12,462.56,366.41Z"/><path class="cls-163" d="M478.88,374.57c6.41-11.1,22.61-.69,28.57,4.08,4.69,3.79,4.53,8.73,4.08,8.16,9.67,4.69,19.14,12.69,28.57,20.41,2.28-8.7-2.62-11.88-8.17-16.33-6-1.26-14.16-6.28-16.32-12.24,5.75.65,13.63,2.65,16.32,8.16,13.92-2.9,23.8,11.84,20.41,24.49,5.1,1.67,8.08-3,12.24-4.08,6.53-24.82-51.05-35.3-61.21-40.81h-4.08c-9.19,0-28.53-3.8-36.73,0-9.35,2.2-10,14.32-4.08,20.4,10.69-.77,8.85-11.47,20.4-12.24m-8.16-4.08C463.25,392.16,449.5,368.32,470.72,370.49Z"/><path class="cls-164" d="M564.58,407.22c7.18-1.88,8.16-1.72,12.24-8.17.7-6.65-36.23-29-40.81-32.64,0,0-2.65-.94-4.08,0-7.22,4.73-17.63-.74-28.56,0C513.53,371.92,571.11,382.4,564.58,407.22Z"/><path class="cls-165" d="M478.88,374.57c1.31-.08,3.06,3.71,4.08,4.08,7.19,2.65,17.18-2.41,24.49,0C501.49,373.88,485.29,363.47,478.88,374.57Z"/><path class="cls-166" d="M507.45,423.54c6-4.16,3.18-14.53,4.08-20.41-11.06-3-24.08-5.63-32.65-12.24,6.21-5.67,23.43-6.24,32.65-4.08.45.57.61-4.37-4.08-8.16-7.31-2.41-17.3,2.65-24.49,0-14,6.61-15.3,24.24-20.4,36.73C478.6,413.7,493.21,418.81,507.45,423.54Z"/><path class="cls-167" d="M531.93,390.89s1-2.94,0-4.08c-2.69-5.51-10.57-7.51-16.32-8.16C517.77,384.61,525.93,389.63,531.93,390.89Z"/><path class="cls-168" d="M731.9,390.89c-19.1,2.45-34.45-9.26-53-8.16-3.15,29.67-20.45,55.38-20.41,85.7,20.65,3.3,54.11,16.73,57.17-12.2S730.14,418.52,731.9,390.89Z"/><path class="cls-169" d="M262.6,403.13c-20.53-11.75-41.71-7.18-36.73,20.41C248.31,428.64,256.68,425.38,262.6,403.13Z"/><path class="cls-170" d="M789,407.22c-16.53-3.72-31.91-11.1-49-12.25-6,29.39-17.67,56.77-24.49,85.7,18.12,2.78,35.1,9.31,53,12.24C772.62,463.53,787.6,437.17,789,407.22Z"/><path class="cls-171" d="M507.45,423.54c9.34-.65,15.3,8.73,24.48,8.16,11.06-18.85-5.51-23.46-20.4-28.57C510.63,409,513.45,419.38,507.45,423.54Z"/><path class="cls-172" d="M866.57,423.54c-18.12-2.78-35.06-9.31-53.06-12.24-4.85,29.18-14,57.09-20.4,85.7,17.22,5.67,34.61,11.34,53,12.24C847.47,479,864.44,453.41,866.57,423.54Z"/><path class="cls-173" d="M111.6,472.51c4.94,13.18,32.77,8,45.22,20.08s44.11,7,56.81,4.41c3.71-2.78,19.54-26.2,24.48-32.65-1.51-13.92,16.32-14.16,20.4-24.49-33.7-14.4-57.25-7.91-93-21.3S120.42,445,111.6,472.51Z"/><path class="cls-174" d="M438.07,427.62c10-1.35,22.53-.82,32.65,0C458.76,425.33,450.48,424.4,438.07,427.62Z"/><path class="cls-175" d="M931.86,435.78c-18.89.49-36.2-5.3-53.05-12.24-12.65,25.95-9.06,41.34-20.69,69.09s29,25.83,49.25,32.93C918.39,496.42,924.68,465.9,931.86,435.78Z"/><path class="cls-176" d="M462.56,582.69c20.81-5.18,16.49-50,28.44-65.41s14-51.75,24.61-69.26c18,6.82,38.93,29.92,24.49,44.89,5.91.33,11.67-.28,16.32-4.08-8.33-37.38-50.6-58.43-85.7-61.21-10.12-.82-22.61-1.35-32.65,0-55.37,20-59.62,97.7-77.53,146.91,30.4-13.87,73.53-8.24,102,8.16m-36.73-97.94c-7.14,27.79-26.32,4.53,0,0m36.73,4.08c0,36.32-39.75-5.38,0,0M409.51,517.4c2.85,11-3.27,23.79-16.33,20.4C394.41,529.48,398.45,516.3,409.51,517.4Z"/><path class="cls-177" d="M262.6,492.91c.81,3.92-.66,8.29,0,12.25,21.18-.49,40.19,7.55,61.21,8.16.45-4.08-1.92-11.14,4.08-12.24,5.47-19.39,21.26-34.08,32.65-44.89C339,444.47,314.1,443,291.16,435.78,275.33,451.66,267.78,472.06,262.6,492.91Z"/><path class="cls-178" d="M462.56,582.69c16.24,11.72,31.14,30.41,44.89,44.89,6.81-10.65,7.75-23.05,16.32-32.64-23.46-31.88-16.73-79.54,16.33-102,14.44-15-6.49-38.07-24.49-44.89C505,465.53,503,501.85,491,517.28S483.37,577.51,462.56,582.69Z"/><path class="cls-179" d="M238.11,464.35c-4.94,6.45-20.77,29.87-24.48,32.65,7.18-1.51,6.73-3.88,12.24-8.17,3.14,14.29-7.59,36.81,8.16,44.89,5.88-8.89-.08-15.3,0-24.48.08-10.69,19.91-66.32,24.48-40.81,6-1.1,3.64-8.16,4.09-12.24C256.43,455.82,238.8,463.82,238.11,464.35Z"/><path class="cls-180" d="M234,509.24c.53,1.71,5.75,7.34,8.16,8.16.45-4.08-1.92-11.14,4.08-12.24,2.7-12.12,10.49-25.06,12.24-36.73C253.94,442.92,234.11,498.55,234,509.24Z"/><path class="cls-181" d="M242.19,525.56c-.94,1.8-5.39,7.76-8.16,8.16-15.75-8.08-5-30.6-8.16-44.89-5.51,4.29-5.06,6.66-12.24,8.17-12.7,2.61-44.36,7.67-56.81-4.41s-40.28-6.9-45.22-20.08c-23.34,35.18,14.25,56.48,46.24,59.87s63.33,28.24,92.51,9.5C257.17,535,242.23,527.76,242.19,525.56Z"/><path class="cls-182" d="M340.13,513.32c12.73-6.2,14.94,11.26,24.49,4.08,5-13.35,11.34-26.4,12.24-40.81C353.27,470.18,341.72,494.75,340.13,513.32Z"/><path class="cls-183" d="M327.89,541.88c-1.43-10.52-2.33-17.91,0-28.56,0-3.76-.73-8.53,0-12.24-6,1.1-3.63,8.16-4.08,12.24-21-.61-40-8.65-61.21-8.16-.66-4,.81-8.33,0-12.25C236.48,543,291.53,562.37,332,562.29,330.75,554.7,328.05,549.76,327.89,541.88Z"/><path class="cls-184" d="M552.34,554.13c6-3.88,65.46,7.47,69.37,12.24,1-22.85,17.22-41.34,28.57-57.13-20.28,3.47-54.11-21.14-72.44-15.31S554.3,540.09,552.34,554.13Z"/><path class="cls-185" d="M527.85,525.56c-2.89,7.51-3.59,12-4.08,20.41H540.1c4.77-15.47,9.46-30.65,16.32-44.89C540.75,500.75,533.73,514.67,527.85,525.56Z"/><path class="cls-186" d="M234,509.24c-.08,9.18,5.88,15.59,0,24.48,2.77-.4,7.22-6.36,8.16-8.16,3.18-5.92,2.65-14,4.08-20.4-6,1.1-3.63,8.16-4.08,12.24C239.78,516.58,234.56,511,234,509.24Z"/><path class="cls-187" d="M327.89,541.88c-.2-9.5,0-19,0-28.56C325.56,524,326.46,531.36,327.89,541.88Z"/><path class="cls-188" d="M364.62,517.4c-9.55,7.18-11.76-10.28-24.49-4.08-.53,12.32-1.87,35.95,16.33,32.65C353.72,534.7,360.86,526.74,364.62,517.4Z"/><path class="cls-189" d="M785,546c19.22-35.06-43.63-44.57-32.65-4.09C764.3,539.48,773.11,548.37,785,546Z"/><path class="cls-190" d="M409.51,517.4c-11.06-1.1-15.1,12.08-16.33,20.4C406.24,541.19,412.36,528.42,409.51,517.4Z"/><path class="cls-191" d="M523.77,566.37c-.86-6.37-.37-14,0-20.4.49-8.41,1.19-12.9,4.08-20.41C519.85,540.42,518.34,549.15,523.77,566.37Z"/><path class="cls-192" d="M634,562.29c8.48,4.28,16.07,8.08,24.48,4.08-.65-9.35,8.73-15.3,8.16-24.49C652.44,532.78,636.4,547.64,634,562.29Z"/><path class="cls-193" d="M670.68,566.37c5.64,21.91,48.36,14.77,68,21.75s55.34,12.16,74.8,19.06c-1.1-.41,10.61,4.24,8.17,4.08.28,0,8.24-4.2,8.16-4.08-3.55-16,14.77-23,16.32-36.73-35-.37-64-15.59-97.9-20.44S681.86,523.24,670.68,566.37Z"/><path class="cls-194" d="M523.77,566.37c.12,9.88,7.43,16.53,12.24,24.49,4.66-13.23-.12-28.9,4.09-44.89H523.77C523.4,552.37,522.91,560,523.77,566.37Z"/><path class="cls-195" d="M621.71,566.37c-3.91-4.77-63.41-16.12-69.37-12.24-19.63,46.19,47.3,56.27,77.53,53C624.77,593.51,620.57,581.92,621.71,566.37Z"/><path class="cls-196" d="M638,590.86c4,2.36,12-1.84,16.32,0,1.59-6.41-3.84-17.23,4.08-20.41a10.9,10.9,0,0,1,0-4.08c-8.41,4-16,.2-24.48-4.08C632.69,569.92,632.24,585,638,590.86Z"/><path class="cls-197" d="M829.84,607.18c.08-.12-7.88,4.08-8.16,4.08-1.8,3,1.42,9,0,12.24-12,6.41-24.94-16.85-8.17-16.32-19.46-6.9-55.13-12.08-74.8-19.06s-62.39.16-68-21.75c-18.69,39.3,34,40.6,62.56,47.62s67,15.59,96.6,21.75C826.21,624.4,827.84,617.58,829.84,607.18Z"/><path class="cls-198" d="M638,590.86c14.69,14.85,22.36-7.47,20.4-20.41-7.92,3.18-2.49,14-4.08,20.41C650,589,642.08,593.22,638,590.86Z"/><path class="cls-199" d="M491.12,631.66c-22.4-44.4-86.59-61.09-130.58-44.89-.49,9.59,9.34,15.55,16.32,20.41,6.73-6.49,3.51-25.63,20.4-20.41-21.83,22.82,10.82,26.29,28.49,28.65s32.81,21.75,49.05,8.08C466.68,637.3,482,638.85,491.12,631.66Z"/><path class="cls-200" d="M842.08,611.26c3.88,6,16.2,4.33,20.4,0C870.61,575.14,843.51,581.39,842.08,611.26Z"/><path class="cls-201" d="M891.05,627.58c5.22-5.67,11-20.73,8.16-28.56C877.3,565.88,852.08,658.76,891.05,627.58Z"/><path class="cls-202" d="M891.05,627.58c9.84-7.83,15.47-17.5,8.16-28.56C902.07,606.85,896.27,621.91,891.05,627.58Z"/><path class="cls-203" d="M821.68,611.26c2.44.16-9.27-4.49-8.17-4.08-16.77-.53-3.79,22.73,8.17,16.32C823.1,620.28,819.88,614.28,821.68,611.26Z"/><path class="cls-204" d="M862.48,611.26c-4.2,4.33-16.52,6-20.4,0C840.57,642.8,857,635.74,862.48,611.26Z"/><path class="cls-205" d="M429.91,648c-3.39-8.94,6.69-17.31,0-24.49-20.28-7-54.19-17.18-53.05,16.33C393.76,642.85,414.36,641.13,429.91,648Z"/><path class="cls-206" d="M429.91,648c7.18,4.94,14.41,15.71,24.49,16.32,12.73-20.61-7.39-33.58-24.49-40.81C436.6,630.68,426.52,639.05,429.91,648Z"/><path class="cls-207" d="M764.54,631.66c-13.59,2-24.24-6.57-36.72-8.16-1,10.12-7.11,18.61-8.17,28.57,11.76,4.61,23.75,8.28,36.73,8.16C757.36,650.11,763.48,641.62,764.54,631.66Z"/><path class="cls-208" d="M238.11,631.66c-8.53-3.79-16.32,10.53-6.94,14.86S245.66,635,238.11,631.66Z"/><path class="cls-209" d="M727.82,668.39c-41.3-14-84.72-20.73-126.51-32.65-20,66.93-40.28,133.57-61.21,200,43.09,13.87,86.92,25.14,130.58,36.73,15.76-69.13,36.94-136.31,57.14-204.05m-69.38-12.24c-4.57,30.73-17.59,59.38-24.48,89.78-17.76-3.67-34.77-10.2-53.06-12.24,10-27.84,20.29-56,24.49-85.7,18.61-1.1,34,10.61,53.05,8.16m57.13,16.32c-.24,31.63-17.46,58.69-20.4,89.78-17.67-3.87-34.16-12.53-53-12.24,9.63-28.08,15.42-57.38,24.48-85.7,16.37,2.33,32.49,5.84,49,8.16m-85.7,81.62c-5.91,30.48-18.2,59.21-24.48,89.78-17.51-5.8-36-8.65-53-16.32,8.45-28.49,19.06-56.28,24.48-85.7,18.16,2,35.18,8.57,53,12.24M687,770.41c-.82,31.47-17.92,58.65-20.41,89.78-17.75-3.67-34.77-10.2-53.05-12.24,5.92-30.44,19.06-59,24.49-89.78C655.18,759.56,669.21,771.31,687,770.41Z"/><path class="cls-210" d="M352.37,652.07c10.08-1.35,22.49-.7,32.65,0C373.15,650,364.74,648.84,352.37,652.07Z"/><path class="cls-168" d="M658.44,656.15c-19.1,2.45-34.44-9.26-53.05-8.16-4.2,29.75-14.45,57.86-24.49,85.7,18.29,2,35.3,8.57,53.06,12.24C640.85,715.53,653.87,686.88,658.44,656.15Z"/><path class="cls-211" d="M389.1,794.9c12.78-2.74,17-28.53,20.41-40.81.53-1.88-.37-6.16,0-8.16,4.61-26.12,26.6-49.83,28.56-77.54A118.38,118.38,0,0,0,385,652.07c-10.16-.7-22.57-1.35-32.65,0-51.74,17.59-47.95,92.14-73.45,134.67,35.67-12.37,77.05-9.35,110.18,8.16m-24.48-77.54c20.65-31.46,34.85,19.63,0,0m-20.41-4.08c1,1.8-15.1,19.39-16.32,20.41-8.08,6.65-8.28,7.87-20.4,8.16-14.12.32,13.1-30.57,20.4-32.65C333.44,707.65,341.36,708.3,344.21,713.28Z"/><path class="cls-172" d="M715.57,672.47c-16.48-2.32-32.6-5.83-49-8.16-9.06,28.32-14.85,57.62-24.48,85.7,18.89-.29,35.38,8.37,53,12.24C698.11,731.16,715.33,704.1,715.57,672.47Z"/><path class="cls-212" d="M409.51,745.93c1.38-.94,4.08,0,4.08,0,11-8.29,27.87,17.1,28.56,28.56-6.4,1.23-14.73-1-16.32-8.16-3.84-2.4-14.28-8.77-16.32-12.24-3.39,12.28-7.63,38.07-20.41,40.81,17.39,10.12,33.63,30.12,49,40.81,8.25-58.52,71.46-126.22,0-167.32-2,27.71-23.95,51.42-28.56,77.54m40.81-20.41c-4.45,4.53-25.47,2.49-24.49-8.16C435.91,714.63,442.89,720.55,450.32,725.52Z"/><path class="cls-213" d="M866.57,701C825,687.9,782,680.31,740.06,668.39,715.7,736,695.66,805.75,682.93,876.52c42.15,12.65,84.84,22.6,126.5,36.72,20.53-70.39,43.34-140,57.14-212.2m-73.46-8.16c-6.49,28.93-15.47,57.42-24.49,85.7-19.26,3.3-33.66-11.47-53-8.17,8.94-29.62,16-59.94,24.49-89.78,18.65.66,35,9.43,53.05,12.25m65.29,12.24c-5.95,32-20.32,61.29-24.48,93.86-18.53-7.1-39.06-7.51-57.13-16.32,5.87-29.3,17-56.77,24.48-85.7,19.75-.25,37,9.59,57.13,8.16m-93.86,85.7c-5.91,30.56-17.54,59.33-24.48,89.78-16.28-4-32.53-8.25-49-12.25,3.18-30.77,16.73-58.92,20.4-89.77,19.3-1.72,34.61,10.69,53,12.24m65.3,16.32c-5.84,30.49-16.77,59.66-24.49,89.78-18.81.37-35.22-8.41-53.05-12.24.2-31.71,17.26-58.64,20.41-89.78C792.66,795.39,809.51,807.63,829.84,807.14Z"/><path class="cls-214" d="M140.17,705.12c8.53,22.57,46.56,26.48,44.77-4S143.23,681.29,140.17,705.12Z"/><path class="cls-215" d="M793.11,692.88c-18.08-2.82-34.4-11.59-53.05-12.25-8.53,29.84-15.55,60.16-24.49,89.78,19.39-3.3,33.79,11.47,53,8.17C777.64,750.3,786.62,721.81,793.11,692.88Z"/><path class="cls-216" d="M858.4,705.12c-20.16,1.43-37.38-8.41-57.13-8.16-7.47,28.93-18.61,56.4-24.48,85.7,18.07,8.81,38.6,9.22,57.13,16.32C838.08,766.41,852.45,737.07,858.4,705.12Z"/><path class="cls-217" d="M307.49,741.85c-2.86,1.67.24-4.16,3.1-9.18s18.2.61,17.3,1c1.22-1,17.34-18.61,16.32-20.41-5.18,5-18.16,6.82-16.32-4.08C320.59,711.28,293.37,742.17,307.49,741.85Z"/><path class="cls-218" d="M344.21,713.28c-2.85-5-10.77-5.63-16.32-4.08C326.05,720.1,339,718.26,344.21,713.28Z"/><path class="cls-219" d="M450.32,725.52c-7.43-5-14.41-10.89-24.49-8.16C424.85,728,445.87,730.05,450.32,725.52Z"/><path class="cls-220" d="M307.49,741.85c12.12-.29,12.32-1.51,20.4-8.16.9-.41-14.45-6-17.3-1S304.63,743.52,307.49,741.85Z"/><path class="cls-221" d="M413.59,745.93c2.94,5.1,6.81,15.71,12.24,20.4,1.59,7.14,9.92,9.39,16.32,8.16C441.46,763,424.57,737.64,413.59,745.93Z"/><path class="cls-154" d="M629.87,754.09c-17.87-3.67-34.89-10.2-53-12.24-5.42,29.42-16,57.21-24.48,85.7,17.06,7.67,35.54,10.52,53,16.32C611.67,813.3,624,784.57,629.87,754.09Z"/><path class="cls-222" d="M409.51,754.09c2,3.47,12.48,9.84,16.32,12.24-5.43-4.69-9.3-15.3-12.24-20.4,0,0-2.7-.94-4.08,0C409.14,747.93,410,752.21,409.51,754.09Z"/><path class="cls-223" d="M687,770.41c-17.8.9-31.83-10.85-49-12.24C632.61,789,619.47,817.51,613.55,848c18.28,2,35.3,8.57,53.05,12.24C669.09,829.06,686.19,801.88,687,770.41Z"/><path class="cls-224" d="M764.54,790.82c-18.44-1.55-33.75-14-53-12.24-3.67,30.85-17.22,59-20.4,89.77,16.44,4,32.69,8.25,49,12.25C747,850.15,758.63,821.38,764.54,790.82Z"/><path class="cls-225" d="M307.49,790.82A92.27,92.27,0,0,0,283,799c1.22,8.12,7.75,20.12,16.32,20.4C300.3,809.26,306.42,800.78,307.49,790.82Z"/><path class="cls-226" d="M315.65,807.14c4.08-11.34,8.32-10.89,20.4-12.24C322.42,793.47,318.87,788.29,315.65,807.14Z"/><path class="cls-227" d="M315.65,807.14c-.13,4.65-6.25,7-4.08,12.24a109,109,0,0,1,49,8.17c9-3.39,13.26-19.8,4.08-28.57-9.55-2.57-18.65-3.06-28.57-4.08C324,796.25,319.73,795.8,315.65,807.14Z"/><path class="cls-228" d="M829.84,807.14c-20.33.49-37.18-11.75-57.13-12.24C769.56,826,752.5,853,752.3,884.68c17.83,3.83,34.24,12.61,53.05,12.24C813.07,866.8,824,837.63,829.84,807.14Z"/><path class="cls-229" d="M360.54,827.55c9.67,5.14,21.5,12.52,32.64,16.32-3.18-7.51,3.27-14.16,4.08-20.4.25-2,.94-6.78,0-8.17-10.61-6.57-20.44-13.06-32.64-16.32C373.8,807.75,369.56,824.16,360.54,827.55Z"/><path class="cls-230" d="M944.1,807.14c-27.18-5.51-32.28,40.81-7.14,43.22S964.34,811.26,944.1,807.14Z"/><path class="cls-231" d="M397.26,823.47c4.82-.62,8.41,1.75,12.25,4.08-7.39,14.48-3.92,30.77,16.32,24.48.74-18.36-15.1-28.36-28.57-36.73C398.2,816.69,397.51,821.47,397.26,823.47Z"/><path class="cls-232" d="M303.4,848c-.77-10.32,27.8-16.16,32.65-16.32C323.44,829.06,291,825.71,303.4,848Z"/><path class="cls-233" d="M303.4,848c9.43,16.85,34.73,13.18,48.89,24.57s46.24-3.35,31.71-19.47-29.14-17.59-47.95-21.42C331.2,831.79,302.63,837.63,303.4,848Z"/><path class="cls-234" d="M181,864.27c-6.12,11-18.94,17.31-28.57,24.49,12.45,3.75,21.22,15.1,28.57,24.48,2.65-14.2,17.18-18.4,24.48-28.56C194.28,884.31,187.26,872.35,181,864.27Z"/><path class="cls-235" d="M507.45,921.41c-15.71-9.92-34.28,18.28-16.65,28.85S520.55,929.69,507.45,921.41Z"/></svg>