<svg id="Layer_1" data-name="Layer 1" xmlns="http://www.w3.org/2000/svg" viewBox="0 0 1080 1080"><defs><style>.cls-1{fill:#0c1523;}.cls-10,.cls-11,.cls-12,.cls-13,.cls-14,.cls-15,.cls-16,.cls-17,.cls-18,.cls-19,.cls-2,.cls-20,.cls-21,.cls-22,.cls-23,.cls-24,.cls-25,.cls-26,.cls-27,.cls-28,.cls-29,.cls-3,.cls-30,.cls-31,.cls-32,.cls-33,.cls-34,.cls-35,.cls-36,.cls-37,.cls-38,.cls-39,.cls-4,.cls-40,.cls-41,.cls-42,.cls-43,.cls-44,.cls-45,.cls-46,.cls-47,.cls-48,.cls-49,.cls-5,.cls-50,.cls-51,.cls-52,.cls-53,.cls-54,.cls-55,.cls-56,.cls-57,.cls-58,.cls-59,.cls-6,.cls-60,.cls-61,.cls-62,.cls-7,.cls-8,.cls-9{fill:none;stroke-width:1.22px;}.cls-2{stroke:#222226;}.cls-3{stroke:#0c1623;}.cls-4{stroke:#06070b;}.cls-5{stroke:#676c72;}.cls-6{stroke:#2c2b2c;}.cls-7{stroke:#8690a1;}.cls-8{stroke:#5c6c82;}.cls-9{stroke:#090d0f;}.cls-10{stroke:#42adaa;}.cls-11{stroke:#095a63;}.cls-12{stroke:#138088;}.cls-13{stroke:#0b0b10;}.cls-14{stroke:#6d60aa;}.cls-15{stroke:#3d3059;}.cls-16{stroke:#8675b6;}.cls-17{stroke:#3b3994;}.cls-18{stroke:#4e439b;}.cls-19{stroke:#0d5f6d;}.cls-20{stroke:#dbdee1;}.cls-21{stroke:#b9a8d1;}.cls-22{stroke:#d5dbdd;}.cls-23{stroke:#128089;}.cls-24{stroke:#0a0e11;}.cls-25{stroke:#156471;}.cls-26{stroke:#363d4e;}.cls-27{stroke:#67758b;}.cls-28{stroke:#3ea4a4;}.cls-29{stroke:#136471;}.cls-30{stroke:#5d92c7;}.cls-31{stroke:#dad9db;}.cls-32{stroke:#7f8c9f;}.cls-33{stroke:#0f5262;}.cls-34{stroke:#127d85;}.cls-35{stroke:#196f7a;}.cls-36{stroke:#187984;}.cls-37{stroke:#3f5a89;}.cls-38{stroke:#f5b33c;}.cls-39{stroke:#afbcdb;}.cls-40{stroke:#fdeea8;}.cls-41{stroke:#23848c;}.cls-42{stroke:#dc7c27;}.cls-43{stroke:#e18b26;}.cls-44{stroke:#90b0b9;}.cls-45{stroke:#1a6a78;}.cls-46{stroke:#6b451b;}.cls-47{stroke:#ca6c28;}.cls-48{stroke:#070b0d;}.cls-49{stroke:#e08726;}.cls-50{stroke:#a0a4ae;}.cls-51{stroke:#c7c9ce;}.cls-52{stroke:#7b828f;}.cls-53{stroke:#606a79;}.cls-54{stroke:#69768a;}.cls-55{stroke:#4a494a;}.cls-56{stroke:#5b636f;}.cls-57{stroke:#5a616f;}.cls-58{stroke:#515968;}.cls-59{stroke:#ac94c6;}.cls-60{stroke:#6f9bd1;}.cls-61{stroke:#d3dde5;}.cls-62{stroke:#94a1d2;}.cls-63{fill:#222226;}.cls-64{fill:#0c1623;}.cls-65{fill:#06070b;}.cls-66{fill:#676c72;}.cls-67{fill:#2c2b2c;}.cls-68{fill:#8690a1;}.cls-69{fill:#5c6c82;}.cls-70{fill:#090d0f;}.cls-71{fill:#42adaa;}.cls-72{fill:#095a63;}.cls-73{fill:#138088;}.cls-74{fill:#0b0b10;}.cls-75{fill:#6d60aa;}.cls-76{fill:#3d3059;}.cls-77{fill:#8675b6;}.cls-78{fill:#3b3994;}.cls-79{fill:#4e439b;}.cls-80{fill:#0d5f6d;}.cls-81{fill:#dbdee1;}.cls-82{fill:#b9a8d1;}.cls-83{fill:#d5dbdd;}.cls-84{fill:#128089;}.cls-85{fill:#0a0e11;}.cls-86{fill:#156471;}.cls-87{fill:#363d4e;}.cls-88{fill:#67758b;}.cls-89{fill:#3ea4a4;}.cls-90{fill:#136471;}.cls-91{fill:#5d92c7;}.cls-92{fill:#dad9db;}.cls-93{fill:#7f8c9f;}.cls-94{fill:#0f5262;}.cls-95{fill:#127d85;}.cls-96{fill:#196f7a;}.cls-97{fill:#187984;}.cls-98{fill:#3f5a89;}.cls-99{fill:#f5b33c;}.cls-100{fill:#afbcdb;}.cls-101{fill:#fdeea8;}.cls-102{fill:#23848c;}.cls-103{fill:#dc7c27;}.cls-104{fill:#e18b26;}.cls-105{fill:#90b0b9;}.cls-106{fill:#1a6a78;}.cls-107{fill:#6b451b;}.cls-108{fill:#ca6c28;}.cls-109{fill:#070b0d;}.cls-110{fill:#e08726;}.cls-111{fill:#a0a4ae;}.cls-112{fill:#c7c9ce;}.cls-113{fill:#7b828f;}.cls-114{fill:#606a79;}.cls-115{fill:#69768a;}.cls-116{fill:#4a494a;}.cls-117{fill:#5b636f;}.cls-118{fill:#5a616f;}.cls-119{fill:#515968;}.cls-120{fill:#ac94c6;}.cls-121{fill:#6f9bd1;}.cls-122{fill:#d3dde5;}.cls-123{fill:#94a1d2;}</style></defs><title>avatar-planets</title><rect class="cls-1" width="1080" height="1080"/><path class="cls-2" d="M98.82,49.5c96.76-8.81,196.62,2.29,293.82,0s196.66-2.73,293.83,0S886.8,42,980.29,45.42c-95.82-12.77-201.43,3.63-297.9,0s-198.21-3.47-293.83,0S189.66,30.69,98.82,49.5Z"/><path class="cls-3" d="M98.82,49.5c-25.22,5.22-40.6,12.41-53,36.73-13.26,50.32-1.14,113.08-4.08,171.4s.33,123.77,0,183.63S39.81,569,41.69,629s-5.55,125,0,183.63-12.61,128,0,179.56c26.36,69.75,116.43,40.53,179.56,44.89s156.87-2.16,224.45,0,152.58-1.26,220.36,0,160.59-1.26,224.45,0,143.2,9.23,155.07-65.29c5.76-90.8-7.22-191.11-4.08-285.66s3.15-195.19,0-289.74,9.8-195.15,4.08-285.67c-4.81-30.36-34.93-61.25-65.29-65.29C886.8,42,783.63,52.23,686.47,49.5s-196.62-2.28-293.83,0-197.06-8.81-293.82,0m571.32,89.78c-33.66,1.22.94-33.79,0,0M249.81,176c-47.95-31.91,41-42,0,0M951.72,314.76c-4.57,7.87-7.06,17-12.24,24.48-2.69,6.86-9.79,23-16.32,32.65,14.77-1.35,47.42,5.84,44.89,20.4,59.46,83.25-45.34,177.56-110.19,224.45,26.37-35.62,61.22-67.37,88.85-103s54.15-113.49-11.31-125.57c-4-2.12-7.34-4.85-12.24-4.08,1.06-5.63,8.36-3.18,12.24-4.08-28.48-7-39.75,20.77-57.13,40.81,10.45,13,.69,26.93-8.16,36.73-47.34-15-22.73,36.48-28.28,65.58s-18.25,66.88-20.69,97.65c13.5-6.65,29.79-22.56,24.48-44.89,13.88-.36,24.85-6.28,36.73,4.08-7.71,10.7-17.75,21.39-28.57,28.57,8,42.85,74.6,51,77.25,106.39s-30.77,100.72-85.41,105.82-99-38.32-102-89.78c-60.81,47.25-142.06,79.45-212.21,85.7-62,26.77-132.95,60.51-200,53,55.75-11.31,116.88-25.35,167.32-53,.57-1.07-5.14-11.92-4.08-16.33-65.26,5.59-119.86-46.11-175.48-53-6.12,2.16-12,4.2-16.32,8.16-9.88,9.06,25.75,40.53,20.4,65.3s-10,51.7-33.67,68.35-53.62,21.71-79.33,12-47-20.32-53.38-48.65,5.76-56.64-5-80.67c-73.74-12.94-76.64-84.93-41.74-135.61S174,555.69,221.25,518.8C180.48,573.4,112.49,621.23,98.9,690.28s40.2,53.26,69.3,81.54c6.53-3.72,1.42-6.94,0-12.25,19.91-3.75,32.77-15.83,53.05-20.4s42.85,2.69,61.25,4,3.18-53.34,28.53-20.36c-53.75-60.12-76.93-126.63-81.62-204.05s11.79-156.66,64.27-217.31S400.52,209,478.42,192.41s173.2,8.12,235.59,54,95.78,109.7,119.37,178.54c21.34-4,35.63-41,53-40.81,24.69-24.69,46.48-50.07,61.21-81.62,14.08-30.11,28.12-69.66-1-96.92s-71-23.3-109.16-25.5C789.39,186.94,739,206,690.55,216.82c32.6-25.26,86.8-32.45,130.59-40.81,45.09-5.19,96.47-9.88,133.65,21.42s16.24,84.15-3.07,117.33M200.84,237.22c100.76,26.12,48.08,200.66-53.13,163.32s-48.32-189.6,53.13-163.32m669.27,32.65c3.47,9.59,17.3,13.18,16.32,24.48-9.59,3.47-13.18,17.31-24.48,16.33-3.47-9.59-17.31-13.18-16.33-24.49,9.59-3.47,13.18-17.3,24.49-16.32m-738.64,204c11.87,6.37-.74,26.24-13.14,17.22s3.92-22.16,13.14-17.22m795.77,16.33c9.75,9.26,17.63,41.78-6.94,39.34s-7.1-37.88,6.94-39.34M968.05,624.9c4.08,4.09-6.57,12.37-10.94,6.78s8.16-9.55,10.94-6.78M188.6,661.63c7.55,3.35,2.49,19.22-6.94,14.86s-1.59-18.65,6.94-14.86M686.47,849.35c22.24,2.7,17.34,46.16-8.21,40.77s-12.73-43.3,8.21-40.77M935.4,873.84c11,6.24.12,27.09-13.14,17.22s1-24.12,13.14-17.22M515.07,902.4c.57,9.51,10.65,20.16,20.41,20.41-5.43,10.57-24.61,12.49-20.41,28.56-10.85-3.91-20.16-19-28.57-28.56,14.74,1.43,16.21-20.12,28.57-20.41M813,922.81c12.74,7.63-.61,32.69-15,23.14s1.22-31.39,15-23.14m-665.18,4.08C144.49,953.37,118.41,924.44,147.79,926.89Z"/><path class="cls-4" d="M37.61,110.71c-9.67,94,2.61,191,0,285.67S35,587.07,37.61,682s-9.47,195.1,0,289.74c.73,7.26,1.59,13.87,4.08,20.4-12.61-51.58,5.55-120.87,0-179.56s1.88-123.69,0-183.63-.33-127.86,0-187.73-2.94-125.32,0-183.63-9.18-121.08,4.08-171.4C41.65,94.27,39.77,101,37.61,110.71Z"/><path class="cls-5" d="M37.61,971.78C28.14,877.14,40.26,777,37.61,682s-2.61-191,0-285.66-9.67-191.64,0-285.67c-19.51,88.07-.37,192.58-4.08,285.67S29.9,593,33.53,686.12,18.22,883.39,37.61,971.78Z"/><path class="cls-6" d="M1045.58,971.78c14.74-92.64-4.2-196,0-289.74s3.92-192.17,0-285.66,14.65-193.6,0-285.67c5.72,90.52-7.22,191.11-4.08,285.67s3.15,195.18,0,289.74S1051.34,881,1045.58,971.78Z"/><path class="cls-7" d="M821.14,176c3.55.49,10.36,3.75,16.32,4.08,38.2,2.2,80-1.76,109.16,25.5s15.1,66.81,1,96.92c.45-6.52,6.94,2.54,4.08,12.25,19.31-33.18,40.24-86,3.07-117.33S866.23,170.82,821.14,176Z"/><path class="cls-8" d="M837.46,180.09c-6-.33-12.77-3.59-16.32-4.08-43.79,8.36-98,15.55-130.59,40.81C739,206,789.39,186.94,837.46,180.09Z"/><path class="cls-9" d="M168.2,771.82c-8.33,4.77-8.21,1.42-16.33,0,10.78,24-1.38,52.35,5,80.67s27.63,39,53.38,48.65,55.62,4.69,79.33-12,28.32-43.58,33.67-68.35-30.28-56.24-20.4-65.3c-.29-.77-14.78-1.75-12.25-8.16a405.68,405.68,0,0,1,49-16.32c-10.48-18.33-27.79-35.75-40.81-53-29.38-25.1-43.09-70.77-53-106.11-1.3-4.65-3.3-9.71-4.08-16.32C229.86,453.3,251,365.16,324.29,291.29s162.09-97.2,264.24-86.72c34.15,3.51,70.64,23.18,97.94,40.81,10.85,7,22.24,12.65,32.64,20.41,32,23.79,55,60.35,73.46,93.86,7.18,13,8.08,23.18,12.24,36.73,2.13,6.85,13.39,47.21,20.41,49,21.83-18.82,41.13-41.14,61.21-61.22-17.42-.16-31.71,36.85-53,40.81C809.79,356.1,776.41,292.27,714,246.4s-157.68-70.51-235.59-54S346.2,240.85,293.68,301.49s-69,139.9-64.27,217.31S257.28,662.73,311,722.85c-25.35-33-10.12,21.75-28.53,20.36s-40.93-8.57-61.25-4-33.14,16.65-53.05,20.4c1.42,5.31,6.53,8.53,0,12.25m114.26-8.17c61.42,49,11.71,144.55-61.21,126.51-29.43-7.3-45.95-28.44-53.05-57.13-2.82-11.35-3.27-17.3,0-28.57C182.48,752.88,240.88,730.48,282.46,763.65Z"/><path class="cls-10" d="M241.65,555.53C252.83,568.1,262,542.72,258,531s3.06-36.15,0-49c153.19-11.67,297.37-67.53,428.49-142.83-.9-1.55,0-4.08,0-4.08-8-25.1-15.26-50.15-28.57-73.45C548.25,343,415,374.18,282.46,396.38c8-53.79,50.11-76.81,98-77.46S471.77,290.31,514,277s72.44-44.16,107.16-60.15c-8.48-3.43-25.13-10.9-32.64-12.25-102.15-10.48-190.95,12.86-264.24,86.72S229.86,453.3,241.65,555.53Z"/><path class="cls-11" d="M621.17,216.82c5.35,2.16,9.88,5.75,16.33,4.08-18.61,11.14,18.85,21.34,16.32,36.73,16,3.42,18.81-23.18,32.65-12.25-27.3-17.63-63.79-37.3-97.94-40.81C596,205.92,612.69,213.39,621.17,216.82Z"/><path class="cls-12" d="M686.47,335.16c20.36-11.71,40-24,57.13-40.81-5.8-11.26-19-17.42-24.49-28.56-10.4-7.76-21.79-13.39-32.64-20.41-13.84-10.93-16.69,15.67-32.65,12.25,2.53-15.39-34.93-25.59-16.32-36.73-6.45,1.67-11-1.92-16.33-4.08-34.72,16-64.88,46.84-107.16,60.15s-85.58,41.34-133.53,41.95-90.06,23.67-98,77.46C415,374.18,548.25,343,657.9,261.71,671.21,285,678.43,310.06,686.47,335.16Z"/><path class="cls-13" d="M200.84,237.22c-101.45-26.28-154.38,126-53.13,163.32s153.89-137.2,53.13-163.32m36.73,49c31.26,62.56-32.65,133.9-93.86,97.94-21.55-12.65-31.14-24.56-36.73-49-4.57-20-2.94-34.93,8.16-53.05,5.15-8.37,15.39-20.69,24.49-24.48C177.21,246.77,217.86,246.77,237.57,286.19Z"/><path class="cls-14" d="M139.63,257.63c-.53.16,0,4.08,0,4.08,5.92,9.3-33.95,28.19-12.24,32.64-3.43-10,13.79-15.87,20.4-16.32,2,7.88-3,17.83-12.24,16.32-3.35,3.51-6.53,4.94-12.24,4.08v40.81c-5.64-5.55-10.33,1.35-16.33-4.08,5.59,24.41,15.18,36.32,36.73,49-3.35-6.89,17.34-27,28.57-20.4-4.9-20.28,22.85-39.5,24.48-12.24,14.29-17.84,19.71-35.22,4.08-53.06,27-3.42,7.27-24,0-36.72,16-2.57,32.08,39.74,36.73,24.48-19.71-39.42-60.36-39.42-97.94-28.56m36.73,8.16C163.22,273,196.68,304.27,160,298.43c-2.65-9.71.13-14.52-8.16-20.4,8.53-4.24,13.18-15.39,24.49-12.24M147.79,327C147.42,361.93,109.27,324.23,147.79,327Z"/><path class="cls-15" d="M115.14,282.11c5-6.94,17.55-15.59,24.49-20.4,0,0-.53-3.92,0-4.08C130.53,261.42,120.29,273.74,115.14,282.11Z"/><path class="cls-16" d="M115.14,282.11c-11.1,18.12-12.73,33.1-8.16,53.05,6,5.43,10.69-1.47,16.33,4.08V298.43c5.71.86,8.89-.57,12.24-4.08a35.91,35.91,0,0,1-8.16,0c-21.71-4.45,18.16-23.34,12.24-32.64C132.69,266.52,120.16,275.17,115.14,282.11Z"/><path class="cls-17" d="M143.71,384.13c61.21,36,125.12-35.38,93.86-97.94-4.65,15.26-20.69-27.05-36.73-24.48,7.27,12.69,27,33.3,0,36.72,15.63,17.84,10.21,35.22-4.08,53.06-1.63-27.26-29.38-8-24.48,12.24C161.05,357.16,140.36,377.24,143.71,384.13Z"/><path class="cls-18" d="M176.36,265.79c-11.31-3.15-16,8-24.49,12.24,8.29,5.88,5.51,10.69,8.16,20.4C196.68,304.27,163.22,273,176.36,265.79Z"/><path class="cls-19" d="M686.47,335.16s-.9,2.53,0,4.08c12.24,21.43,7.87,59,4.08,81.62,37.79-8.94,67.74-53.91,102-61.21-18.49-33.51-41.46-70.07-73.46-93.86,5.51,11.14,18.69,17.3,24.49,28.56C726.5,311.21,706.83,323.45,686.47,335.16Z"/><path class="cls-20" d="M870.11,269.87c-11.31-1-14.9,12.85-24.49,16.32-1,11.31,12.86,14.9,16.33,24.49,11.3,1,14.89-12.86,24.48-16.33C887.41,283.05,873.58,279.46,870.11,269.87Z"/><path class="cls-21" d="M127.39,294.35a35.91,35.91,0,0,0,8.16,0c9.22,1.51,14.24-8.44,12.24-16.32C141.18,278.48,124,284.4,127.39,294.35Z"/><path class="cls-22" d="M947.64,302.51c-14.73,31.55-36.52,56.93-61.21,81.62-20.08,20.08-39.38,42.4-61.21,61.22C707.44,547,574.41,628.66,433.45,690.2c-30.24,13.18-61.86,29.14-93.86,40.81a405.68,405.68,0,0,0-49,16.32c-2.53,6.41,12,7.39,12.25,8.16,4.32-4,10.2-6,16.32-8.16,9.18-3.22,19.34-4.73,28.56-8.16,26.94-10,58.77-20.61,85.7-32.65,32.08-22.61,71.74-33.26,106.11-53,94.63-54.44,202.82-109,281.58-187.72,40.15-40.16,86.47-80.52,118.34-126.51,5.18-7.47,7.67-16.61,12.24-24.48C954.58,305.05,948.09,296,947.64,302.51Z"/><path class="cls-23" d="M241.65,555.53c.78,6.61,2.78,11.67,4.08,16.32,9.8,6.33,45.34-14.81,62.11-11.34s43.22-10.16,61.22-12.24,40.48-8,57.13-16.33,35.05-14.77,53.05-20.4,36.44-16.37,56.32-17.14,40.76-4,56-17.43,35-10.85,50.31-23.14,32-19.3,48.65-28.89c-9,59.38-28.85,101.45-81.95,126.18s-101.2,33.83-155,49-110.14,47.18-171.11,41.1c.86,13.34,13.18,23.34,20.41,32.64-1.68-3.3-1.07-9-4.09-12.24,50.36,8.2,104.6-.16,153.73-1.34s75-28.33,118.67-44.57,55.71-49.34,81.62-81.62S731,502.72,759.92,473.91c-17-29.38,1.11-87.7,28.57-106.1,4.61,7.67,9.43,32,16.32,28.57-4.16-13.55-5.06-23.71-12.24-36.73-34.28,7.3-64.23,52.27-102,61.21,3.79-22.65,8.16-60.19-4.08-81.62C555.35,414.54,411.17,470.4,258,482.07c3.06,12.82-4,37.3,0,49S252.83,568.1,241.65,555.53Z"/><path class="cls-24" d="M821.14,465.75c-5.06,24,5.67,58.85,0,85.7-3.55,17-10.61,34.24-16.33,49-15.18,39.13-42,58.56-61.21,93.86-.86,1.59,0,4.08,0,4.08,1,28.32-42.44,40.48-61.54,56.81s-60.8,27.42-85.37,33c-12.29,2.77-25.34,6.61-36.73,12.24-9.06,4.49-18.4,12-28.57,16.33,70.15-6.25,151.4-38.45,212.21-85.7,3,51.46,47.38,94.88,102,89.78S933.69,770.35,931,715s-69.25-63.54-77.25-106.39c10.82-7.18,20.86-17.87,28.57-28.57-11.88-10.36-22.85-4.44-36.73-4.08,5.31,22.33-11,38.24-24.48,44.89,2.44-30.77,15.14-68.51,20.69-97.65s-19.06-80.6,28.28-65.58c8.85-9.8,18.61-23.75,8.16-36.73,17.38-20,28.65-47.79,57.13-40.81a78.42,78.42,0,0,1,12.24,4.08c6.53,2.66,14.33,3.63,20.41,8.16,2.53-14.56-30.12-21.75-44.89-20.4,6.53-9.67,13.63-25.79,16.32-32.65-31.87,46-78.19,86.35-118.34,126.51M902.75,682C910,691.63,912,698.6,915,710.6c2.81,11.31,2.28,17.63,0,28.57-10,48.44-54.65,81.9-102,61.21-47.54-20.77-71.86-74.27-37.74-119.36S871.29,640.13,902.75,682Z"/><path class="cls-25" d="M302.87,673.87c2.12,2.82,2.2,5.15,4.08,8.17,26.85,18.69,95.94,10,126.5,8.16,141-61.54,274-143.2,391.77-244.85-7-1.76-18.28-42.12-20.41-49-6.89,3.42-11.71-20.9-16.32-28.57-27.46,18.4-45.62,76.72-28.57,106.1-28.93,28.81-81.17,28-107.12,60.19s-38,65.34-81.62,81.62-69.54,43.38-118.67,44.57-103.37,9.54-153.73,1.34C301.8,664.82,301.19,670.57,302.87,673.87Z"/><path class="cls-26" d="M935.4,388.21c1.8-.08,7.67-4.2,12.24-4.08a78.42,78.42,0,0,0-12.24-4.08c-3.88.9-11.18-1.55-12.24,4.08C928.06,383.36,931.44,386.09,935.4,388.21Z"/><path class="cls-27" d="M935.4,388.21c65.46,12.08,38.93,90,11.31,125.57s-62.48,67.34-88.85,103c64.85-46.89,169.65-141.2,110.19-224.45-6.08-4.53-13.88-5.5-20.41-8.16C943.07,384,937.2,388.13,935.4,388.21Z"/><path class="cls-28" d="M245.73,571.85c10,35.34,23.67,81,53,106.11,2.33,1.95,5.88,2.48,8.17,4.08-1.88-3-2-5.35-4.08-8.17-7.23-9.3-19.55-19.3-20.41-32.64,61,6.08,117.24-25.92,171.11-41.1s102-24.24,155-49,72.93-66.8,81.95-126.18c-16.69,9.59-33.3,16.65-48.65,28.89s-35,9.72-50.31,23.14-36.12,16.69-56,17.43S497.28,506,479.24,511.54s-36.36,12-53.05,20.4-39.14,14.28-57.13,16.33S324.62,564,307.84,560.51s-52.31,17.67-62.11,11.34M409,580c-5.55,12.78-22.41,6.49-32.65,12.25C365.87,574.06,398,572,409,580Z"/><path class="cls-29" d="M539.56,653.47c20.11-6.08,50.56-19.91,73.45-32.65-16.4,16.78.74,43.63-8.16,53,78.72-28.36,141-88.63,216.29-122.42,5.67-26.85-5.06-61.7,0-85.7C742.38,544.47,634.19,599,539.56,653.47Z"/><path class="cls-30" d="M131.47,473.91c-9.22-4.94-25.55,8.2-13.14,17.22S143.34,480.28,131.47,473.91Z"/><path class="cls-31" d="M927.24,490.24c-14,1.46-31.46,36.93-6.94,39.34S937,499.5,927.24,490.24Z"/><path class="cls-32" d="M151.87,771.82c8.12,1.42,8,4.77,16.33,0-29.1-28.28-82.85-12.45-69.3-81.54S180.48,573.4,221.25,518.8C174,555.69,145,585.52,110.13,636.21S78.13,758.88,151.87,771.82Z"/><path class="cls-33" d="M604.85,673.87C544.7,695.54,484.46,722,417.13,718.76c2.9-6.69,13.79-5.26,16.32-12.24-26.93,12-58.76,22.69-85.7,32.65,24.33.24,53.75,28.56,77.54,36.73,24.24-1.55,55.5-28.37,81.9-32.36s55.75-27.14,81.38-32.9,54.52-28.48,76.27-38,56.31-31.46,73.45-40.81,63.1-47,66.52-31.42c5.72-14.73,12.78-32,16.33-49C745.84,585.24,683.57,645.51,604.85,673.87Z"/><path class="cls-34" d="M409,580c-11-8-43.1-6-32.65,12.25C386.56,586.5,403.42,592.79,409,580Z"/><path class="cls-35" d="M425.29,775.9c17.75,6.08,39.83,10,57.22,16.24s53.25-4.2,65.21,8.24c18.57-11.55,47.21-27.5,66.23-35.79S663.7,734.07,679.33,728s57.25-41,64.27-33.67c19.18-35.3,46-54.73,61.21-93.86-3.42-15.59-49.42,22-66.52,31.42s-51.74,31.26-73.45,40.81-50.69,32.2-76.27,38-54.93,28.9-81.38,32.9S449.53,774.35,425.29,775.9Z"/><path class="cls-36" d="M539.56,653.47c-34.37,19.79-74,30.44-106.11,53-2.53,7-13.42,5.55-16.32,12.24,67.33,3.19,127.57-23.22,187.72-44.89,8.9-9.42-8.24-36.27,8.16-53C590.12,633.56,559.67,647.39,539.56,653.47Z"/><path class="cls-37" d="M968.05,624.9c-2.78-2.77-15.31,1.19-10.94,6.78S972.13,629,968.05,624.9Z"/><path class="cls-38" d="M813,800.38c2,1.31-12.77-12.44-16.32-16.32,32.61,3.79,50.65-29.06,77.54-36.73,1.59-6.41-3.84-17.22,4.08-20.4a10,10,0,0,0,0-4.08c5.47-9.23-20.53-55.34,20.4-28.57-2.16-5.22,4-7.59,4.08-12.24-31.46-41.91-93.41-46.08-127.52-1s-9.8,98.59,37.74,119.36m4.09-130.59c-9.27,11.14-22.49,30.65-36.73,36.73,4.81-16.12,22-29.5,36.73-36.73M849.7,678c.53,13,1.27,30.36-12.24,36.72-8.16-10.77-7.84-38.48,12.24-36.72M813,743.25c16.61,4.57,11.8,34.93-8.2,28.52S792.57,737.66,813,743.25Z"/><path class="cls-39" d="M188.6,661.63c-8.53-3.79-16.32,10.53-6.94,14.86S196.15,665,188.6,661.63Z"/><path class="cls-40" d="M817.06,669.79c-14.74,7.23-31.92,20.61-36.73,36.73C794.57,700.44,807.79,680.93,817.06,669.79Z"/><path class="cls-41" d="M339.59,731c32-11.67,63.62-27.63,93.86-40.81C402.89,692,333.8,700.73,307,682c-2.29-1.6-5.84-2.13-8.17-4.08C311.8,695.26,329.11,712.68,339.59,731Z"/><path class="cls-42" d="M849.7,678c-20.08-1.76-20.4,25.95-12.24,36.72C851,708.32,850.23,691,849.7,678Z"/><path class="cls-43" d="M878.27,722.85c22.36-30,37.3,31.13,0,16.32V726.93c-7.92,3.18-2.49,14-4.08,20.4-26.89,7.67-44.93,40.52-77.54,36.73,3.55,3.88,18.32,17.63,16.32,16.32,47.38,20.69,92-12.77,102-61.21.73-8.94,1-19.67,0-28.57-3-12-5-19-12.25-28.56-.12,4.65-6.24,7-4.08,12.24-40.93-26.77-14.93,19.34-20.4,28.57m-4.08,36.72C874.55,783.12,854.76,772.55,874.19,759.57Z"/><path class="cls-44" d="M547.72,800.38c-1.47.9-4.08,0-4.08,0,1.91,6.12,11.79,1.14,16.32,0,11.39-5.63,24.44-9.47,36.73-12.24,45.74-26,106-54.11,146.91-89.78,0,0-.86-2.49,0-4.08-7-7.31-48.69,27.5-64.27,33.67S633,756.31,614,764.59,566.29,788.83,547.72,800.38Z"/><path class="cls-45" d="M596.69,788.14c24.57-5.55,66.27-16.69,85.37-33s62.52-28.49,61.54-56.81C702.71,734,642.43,762.1,596.69,788.14Z"/><path class="cls-46" d="M915,739.17c2.28-10.94,2.81-17.26,0-28.57C916,719.5,915.73,730.23,915,739.17Z"/><path class="cls-47" d="M878.27,722.85a10,10,0,0,1,0,4.08v12.24C915.57,754,900.63,692.85,878.27,722.85Z"/><path class="cls-48" d="M319.19,747.33c55.62,6.94,110.22,58.64,175.48,53-1.06,4.41,4.65,15.26,4.08,16.33,14.24-5.88,30.15-10.29,44.89-16.33,0,0,2.61.9,4.08,0-12-12.44-47.83-2-65.21-8.24S443,782,425.29,775.9c-23.79-8.17-53.21-36.49-77.54-36.73C338.53,742.6,328.37,744.11,319.19,747.33Z"/><path class="cls-49" d="M813,743.25c-20.4-5.59-28.19,22.12-8.2,28.52S829.58,747.82,813,743.25Z"/><path class="cls-50" d="M168.2,804.46c-.53,1.88,0,6.12,0,8.16,22,9.31,25.62-64.68,57.13-40.8,41.26,31.3-36.36,25.09-12.24,4.08-28,13.3-21.22,46.4-44.89,57.13,7.1,28.69,23.62,49.83,53.05,57.13-8-5.79-3.51-33.63,12.24-40.81a6.7,6.7,0,0,1,4.08,0c3.14,3.19,8.53,6,12.24,8.16.62-5.75,2.7-13.63,8.17-16.32,2.65-3.55,5.46-5.35,8.16-8.16,7.59-8,9.59-17.51,8.16-28.57-10,5.8-23.83,2.86-20.41-12.24,19.92,17.14,22.08-13.63,16.33-28.57,4.73-3.22,10.32,8,12.24,0-41.58-33.17-100-10.77-114.26,40.81m32.64,16.33c11.88.73,16.24,27.34-.32,28.24S183.7,819.73,200.84,820.79Z"/><path class="cls-51" d="M168.2,812.62V833c23.67-10.73,16.85-43.83,44.89-57.13,1.34-.66,10.57-4.08,12.24-4.08C193.82,747.94,190.19,821.93,168.2,812.62Z"/><path class="cls-52" d="M266.14,833c16.57-5.51,28.73,24.48,4.08,24.48-5.8-7.26-3.31-15.54-12.24-16.32-5.47,2.69-7.55,10.57-8.17,16.32-3.71-2.16-9.1-5-12.24-8.16,12.86,15.14-11.18,29.06-12.24,8.16,3.39-1.67,7.67-4,8.16-8.16-15.75,7.18-20.24,35-12.24,40.81,72.92,18,122.63-77.54,61.21-126.51-1.92,8-7.51-3.22-12.24,0,5.75,14.94,3.59,45.71-16.33,28.57-3.42,15.1,10.41,18,20.41,12.24C275.73,815.52,273.73,825.07,266.14,833Z"/><path class="cls-53" d="M213.09,775.9c-24.12,21,53.5,27.22,12.24-4.08C223.66,771.82,214.43,775.24,213.09,775.9Z"/><path class="cls-54" d="M498.75,816.71c-50.44,27.7-111.57,41.74-167.32,53,67,7.46,137.94-26.28,200-53,10.17-4.37,19.51-11.84,28.57-16.33-4.53,1.14-14.41,6.12-16.32,0C528.9,806.42,513,810.83,498.75,816.71Z"/><path class="cls-55" d="M168.2,833V812.62c0-2-.53-6.28,0-8.16C164.93,815.73,165.38,821.68,168.2,833Z"/><path class="cls-56" d="M200.84,820.79c-17.14-1.06-16.89,29.13-.32,28.24S212.72,821.52,200.84,820.79Z"/><path class="cls-57" d="M258,841.19c8.93.78,6.44,9.06,12.24,16.32,24.65,0,12.49-30-4.08-24.48C263.44,835.84,260.63,837.64,258,841.19Z"/><path class="cls-58" d="M237.57,849.35a6.7,6.7,0,0,0-4.08,0c-.49,4.21-4.77,6.49-8.16,8.16C226.39,878.41,250.43,864.49,237.57,849.35Z"/><path class="cls-59" d="M686.47,849.35c-20.94-2.53-33.71,35.38-8.21,40.77S708.71,852.05,686.47,849.35Z"/><path class="cls-60" d="M935.4,873.84c-12.16-6.9-26.4,7.3-13.14,17.22S946.42,880.08,935.4,873.84Z"/><path class="cls-61" d="M515.07,902.4c-12.36.29-13.83,21.84-28.57,20.41,8.41,9.59,17.72,24.65,28.57,28.56-4.2-16.07,15-18,20.41-28.56C525.72,922.56,515.64,911.91,515.07,902.4Z"/><path class="cls-62" d="M813,922.81c-13.75-8.25-29.34,13.59-15,23.14S825.71,930.44,813,922.81Z"/><path class="cls-63" d="M98.82,49.5c96.76-8.81,196.62,2.29,293.82,0s196.66-2.73,293.83,0S886.8,42,980.29,45.42c-95.82-12.77-201.43,3.63-297.9,0s-198.21-3.47-293.83,0S189.66,30.69,98.82,49.5Z"/><path class="cls-64" d="M98.82,49.5c-25.22,5.22-40.6,12.41-53,36.73-13.26,50.32-1.14,113.08-4.08,171.4s.33,123.77,0,183.63S39.81,569,41.69,629s-5.55,125,0,183.63-12.61,128,0,179.56c26.36,69.75,116.43,40.53,179.56,44.89s156.87-2.16,224.45,0,152.58-1.26,220.36,0,160.59-1.26,224.45,0,143.2,9.23,155.07-65.29c5.76-90.8-7.22-191.11-4.08-285.66s3.15-195.19,0-289.74,9.8-195.15,4.08-285.67c-4.81-30.36-34.93-61.25-65.29-65.29C886.8,42,783.63,52.23,686.47,49.5s-196.62-2.28-293.83,0-197.06-8.81-293.82,0m571.32,89.78c-33.66,1.22.94-33.79,0,0M249.81,176c-47.95-31.91,41-42,0,0M951.72,314.76c-4.57,7.87-7.06,17-12.24,24.48-2.69,6.86-9.79,23-16.32,32.65,14.77-1.35,47.42,5.84,44.89,20.4,59.46,83.25-45.34,177.56-110.19,224.45,26.37-35.62,61.22-67.37,88.85-103s54.15-113.49-11.31-125.57c-4-2.12-7.34-4.85-12.24-4.08,1.06-5.63,8.36-3.18,12.24-4.08-28.48-7-39.75,20.77-57.13,40.81,10.45,13,.69,26.93-8.16,36.73-47.34-15-22.73,36.48-28.28,65.58s-18.25,66.88-20.69,97.65c13.5-6.65,29.79-22.56,24.48-44.89,13.88-.36,24.85-6.28,36.73,4.08-7.71,10.7-17.75,21.39-28.57,28.57,8,42.85,74.6,51,77.25,106.39s-30.77,100.72-85.41,105.82-99-38.32-102-89.78c-60.81,47.25-142.06,79.45-212.21,85.7-62,26.77-132.95,60.51-200,53,55.75-11.31,116.88-25.35,167.32-53,.57-1.07-5.14-11.92-4.08-16.33-65.26,5.59-119.86-46.11-175.48-53-6.12,2.16-12,4.2-16.32,8.16-9.88,9.06,25.75,40.53,20.4,65.3s-10,51.7-33.67,68.35-53.62,21.71-79.33,12-47-20.32-53.38-48.65,5.76-56.64-5-80.67c-73.74-12.94-76.64-84.93-41.74-135.61S174,555.69,221.25,518.8C180.48,573.4,112.49,621.23,98.9,690.28s40.2,53.26,69.3,81.54c6.53-3.72,1.42-6.94,0-12.25,19.91-3.75,32.77-15.83,53.05-20.4s42.85,2.69,61.25,4,3.18-53.34,28.53-20.36c-53.75-60.12-76.93-126.63-81.62-204.05s11.79-156.66,64.27-217.31S400.52,209,478.42,192.41s173.2,8.12,235.59,54,95.78,109.7,119.37,178.54c21.34-4,35.63-41,53-40.81,24.69-24.69,46.48-50.07,61.21-81.62,14.08-30.11,28.12-69.66-1-96.92s-71-23.3-109.16-25.5C789.39,186.94,739,206,690.55,216.82c32.6-25.26,86.8-32.45,130.59-40.81,45.09-5.19,96.47-9.88,133.65,21.42s16.24,84.15-3.07,117.33M200.84,237.22c100.76,26.12,48.08,200.66-53.13,163.32s-48.32-189.6,53.13-163.32m669.27,32.65c3.47,9.59,17.3,13.18,16.32,24.48-9.59,3.47-13.18,17.31-24.48,16.33-3.47-9.59-17.31-13.18-16.33-24.49,9.59-3.47,13.18-17.3,24.49-16.32m-738.64,204c11.87,6.37-.74,26.24-13.14,17.22s3.92-22.16,13.14-17.22m795.77,16.33c9.75,9.26,17.63,41.78-6.94,39.34s-7.1-37.88,6.94-39.34M968.05,624.9c4.08,4.09-6.57,12.37-10.94,6.78s8.16-9.55,10.94-6.78M188.6,661.63c7.55,3.35,2.49,19.22-6.94,14.86s-1.59-18.65,6.94-14.86M686.47,849.35c22.24,2.7,17.34,46.16-8.21,40.77s-12.73-43.3,8.21-40.77M935.4,873.84c11,6.24.12,27.09-13.14,17.22s1-24.12,13.14-17.22M515.07,902.4c.57,9.51,10.65,20.16,20.41,20.41-5.43,10.57-24.61,12.49-20.41,28.56-10.85-3.91-20.16-19-28.57-28.56,14.74,1.43,16.21-20.12,28.57-20.41M813,922.81c12.74,7.63-.61,32.69-15,23.14s1.22-31.39,15-23.14m-665.18,4.08C144.49,953.37,118.41,924.44,147.79,926.89Z"/><path class="cls-65" d="M37.61,110.71c-9.67,94,2.61,191,0,285.67S35,587.07,37.61,682s-9.47,195.1,0,289.74c.73,7.26,1.59,13.87,4.08,20.4-12.61-51.58,5.55-120.87,0-179.56s1.88-123.69,0-183.63-.33-127.86,0-187.73-2.94-125.32,0-183.63-9.18-121.08,4.08-171.4C41.65,94.27,39.77,101,37.61,110.71Z"/><path class="cls-66" d="M37.61,971.78C28.14,877.14,40.26,777,37.61,682s-2.61-191,0-285.66-9.67-191.64,0-285.67c-19.51,88.07-.37,192.58-4.08,285.67S29.9,593,33.53,686.12,18.22,883.39,37.61,971.78Z"/><path class="cls-67" d="M1045.58,971.78c14.74-92.64-4.2-196,0-289.74s3.92-192.17,0-285.66,14.65-193.6,0-285.67c5.72,90.52-7.22,191.11-4.08,285.67s3.15,195.18,0,289.74S1051.34,881,1045.58,971.78Z"/><path class="cls-68" d="M821.14,176c3.55.49,10.36,3.75,16.32,4.08,38.2,2.2,80-1.76,109.16,25.5s15.1,66.81,1,96.92c.45-6.52,6.94,2.54,4.08,12.25,19.31-33.18,40.24-86,3.07-117.33S866.23,170.82,821.14,176Z"/><path class="cls-69" d="M837.46,180.09c-6-.33-12.77-3.59-16.32-4.08-43.79,8.36-98,15.55-130.59,40.81C739,206,789.39,186.94,837.46,180.09Z"/><path class="cls-70" d="M168.2,771.82c-8.33,4.77-8.21,1.42-16.33,0,10.78,24-1.38,52.35,5,80.67s27.63,39,53.38,48.65,55.62,4.69,79.33-12,28.32-43.58,33.67-68.35-30.28-56.24-20.4-65.3c-.29-.77-14.78-1.75-12.25-8.16a405.68,405.68,0,0,1,49-16.32c-10.48-18.33-27.79-35.75-40.81-53-29.38-25.1-43.09-70.77-53-106.11-1.3-4.65-3.3-9.71-4.08-16.32C229.86,453.3,251,365.16,324.29,291.29s162.09-97.2,264.24-86.72c34.15,3.51,70.64,23.18,97.94,40.81,10.85,7,22.24,12.65,32.64,20.41,32,23.79,55,60.35,73.46,93.86,7.18,13,8.08,23.18,12.24,36.73,2.13,6.85,13.39,47.21,20.41,49,21.83-18.82,41.13-41.14,61.21-61.22-17.42-.16-31.71,36.85-53,40.81C809.79,356.1,776.41,292.27,714,246.4s-157.68-70.51-235.59-54S346.2,240.85,293.68,301.49s-69,139.9-64.27,217.31S257.28,662.73,311,722.85c-25.35-33-10.12,21.75-28.53,20.36s-40.93-8.57-61.25-4-33.14,16.65-53.05,20.4c1.42,5.31,6.53,8.53,0,12.25m114.26-8.17c61.42,49,11.71,144.55-61.21,126.51-29.43-7.3-45.95-28.44-53.05-57.13-2.82-11.35-3.27-17.3,0-28.57C182.48,752.88,240.88,730.48,282.46,763.65Z"/><path class="cls-71" d="M241.65,555.53C252.83,568.1,262,542.72,258,531s3.06-36.15,0-49c153.19-11.67,297.37-67.53,428.49-142.83-.9-1.55,0-4.08,0-4.08-8-25.1-15.26-50.15-28.57-73.45C548.25,343,415,374.18,282.46,396.38c8-53.79,50.11-76.81,98-77.46S471.77,290.31,514,277s72.44-44.16,107.16-60.15c-8.48-3.43-25.13-10.9-32.64-12.25-102.15-10.48-190.95,12.86-264.24,86.72S229.86,453.3,241.65,555.53Z"/><path class="cls-72" d="M621.17,216.82c5.35,2.16,9.88,5.75,16.33,4.08-18.61,11.14,18.85,21.34,16.32,36.73,16,3.42,18.81-23.18,32.65-12.25-27.3-17.63-63.79-37.3-97.94-40.81C596,205.92,612.69,213.39,621.17,216.82Z"/><path class="cls-73" d="M686.47,335.16c20.36-11.71,40-24,57.13-40.81-5.8-11.26-19-17.42-24.49-28.56-10.4-7.76-21.79-13.39-32.64-20.41-13.84-10.93-16.69,15.67-32.65,12.25,2.53-15.39-34.93-25.59-16.32-36.73-6.45,1.67-11-1.92-16.33-4.08-34.72,16-64.88,46.84-107.16,60.15s-85.58,41.34-133.53,41.95-90.06,23.67-98,77.46C415,374.18,548.25,343,657.9,261.71,671.21,285,678.43,310.06,686.47,335.16Z"/><path class="cls-74" d="M200.84,237.22c-101.45-26.28-154.38,126-53.13,163.32s153.89-137.2,53.13-163.32m36.73,49c31.26,62.56-32.65,133.9-93.86,97.94-21.55-12.65-31.14-24.56-36.73-49-4.57-20-2.94-34.93,8.16-53.05,5.15-8.37,15.39-20.69,24.49-24.48C177.21,246.77,217.86,246.77,237.57,286.19Z"/><path class="cls-75" d="M139.63,257.63c-.53.16,0,4.08,0,4.08,5.92,9.3-33.95,28.19-12.24,32.64-3.43-10,13.79-15.87,20.4-16.32,2,7.88-3,17.83-12.24,16.32-3.35,3.51-6.53,4.94-12.24,4.08v40.81c-5.64-5.55-10.33,1.35-16.33-4.08,5.59,24.41,15.18,36.32,36.73,49-3.35-6.89,17.34-27,28.57-20.4-4.9-20.28,22.85-39.5,24.48-12.24,14.29-17.84,19.71-35.22,4.08-53.06,27-3.42,7.27-24,0-36.72,16-2.57,32.08,39.74,36.73,24.48-19.71-39.42-60.36-39.42-97.94-28.56m36.73,8.16C163.22,273,196.68,304.27,160,298.43c-2.65-9.71.13-14.52-8.16-20.4,8.53-4.24,13.18-15.39,24.49-12.24M147.79,327C147.42,361.93,109.27,324.23,147.79,327Z"/><path class="cls-76" d="M115.14,282.11c5-6.94,17.55-15.59,24.49-20.4,0,0-.53-3.92,0-4.08C130.53,261.42,120.29,273.74,115.14,282.11Z"/><path class="cls-77" d="M115.14,282.11c-11.1,18.12-12.73,33.1-8.16,53.05,6,5.43,10.69-1.47,16.33,4.08V298.43c5.71.86,8.89-.57,12.24-4.08a35.91,35.91,0,0,1-8.16,0c-21.71-4.45,18.16-23.34,12.24-32.64C132.69,266.52,120.16,275.17,115.14,282.11Z"/><path class="cls-78" d="M143.71,384.13c61.21,36,125.12-35.38,93.86-97.94-4.65,15.26-20.69-27.05-36.73-24.48,7.27,12.69,27,33.3,0,36.72,15.63,17.84,10.21,35.22-4.08,53.06-1.63-27.26-29.38-8-24.48,12.24C161.05,357.16,140.36,377.24,143.71,384.13Z"/><path class="cls-79" d="M176.36,265.79c-11.31-3.15-16,8-24.49,12.24,8.29,5.88,5.51,10.69,8.16,20.4C196.68,304.27,163.22,273,176.36,265.79Z"/><path class="cls-80" d="M686.47,335.16s-.9,2.53,0,4.08c12.24,21.43,7.87,59,4.08,81.62,37.79-8.94,67.74-53.91,102-61.21-18.49-33.51-41.46-70.07-73.46-93.86,5.51,11.14,18.69,17.3,24.49,28.56C726.5,311.21,706.83,323.45,686.47,335.16Z"/><path class="cls-81" d="M870.11,269.87c-11.31-1-14.9,12.85-24.49,16.32-1,11.31,12.86,14.9,16.33,24.49,11.3,1,14.89-12.86,24.48-16.33C887.41,283.05,873.58,279.46,870.11,269.87Z"/><path class="cls-82" d="M127.39,294.35a35.91,35.91,0,0,0,8.16,0c9.22,1.51,14.24-8.44,12.24-16.32C141.18,278.48,124,284.4,127.39,294.35Z"/><path class="cls-83" d="M947.64,302.51c-14.73,31.55-36.52,56.93-61.21,81.62-20.08,20.08-39.38,42.4-61.21,61.22C707.44,547,574.41,628.66,433.45,690.2c-30.24,13.18-61.86,29.14-93.86,40.81a405.68,405.68,0,0,0-49,16.32c-2.53,6.41,12,7.39,12.25,8.16,4.32-4,10.2-6,16.32-8.16,9.18-3.22,19.34-4.73,28.56-8.16,26.94-10,58.77-20.61,85.7-32.65,32.08-22.61,71.74-33.26,106.11-53,94.63-54.44,202.82-109,281.58-187.72,40.15-40.16,86.47-80.52,118.34-126.51,5.18-7.47,7.67-16.61,12.24-24.48C954.58,305.05,948.09,296,947.64,302.51Z"/><path class="cls-84" d="M241.65,555.53c.78,6.61,2.78,11.67,4.08,16.32,9.8,6.33,45.34-14.81,62.11-11.34s43.22-10.16,61.22-12.24,40.48-8,57.13-16.33,35.05-14.77,53.05-20.4,36.44-16.37,56.32-17.14,40.76-4,56-17.43,35-10.85,50.31-23.14,32-19.3,48.65-28.89c-9,59.38-28.85,101.45-81.95,126.18s-101.2,33.83-155,49-110.14,47.18-171.11,41.1c.86,13.34,13.18,23.34,20.41,32.64-1.68-3.3-1.07-9-4.09-12.24,50.36,8.2,104.6-.16,153.73-1.34s75-28.33,118.67-44.57,55.71-49.34,81.62-81.62S731,502.72,759.92,473.91c-17-29.38,1.11-87.7,28.57-106.1,4.61,7.67,9.43,32,16.32,28.57-4.16-13.55-5.06-23.71-12.24-36.73-34.28,7.3-64.23,52.27-102,61.21,3.79-22.65,8.16-60.19-4.08-81.62C555.35,414.54,411.17,470.4,258,482.07c3.06,12.82-4,37.3,0,49S252.83,568.1,241.65,555.53Z"/><path class="cls-85" d="M821.14,465.75c-5.06,24,5.67,58.85,0,85.7-3.55,17-10.61,34.24-16.33,49-15.18,39.13-42,58.56-61.21,93.86-.86,1.59,0,4.08,0,4.08,1,28.32-42.44,40.48-61.54,56.81s-60.8,27.42-85.37,33c-12.29,2.77-25.34,6.61-36.73,12.24-9.06,4.49-18.4,12-28.57,16.33,70.15-6.25,151.4-38.45,212.21-85.7,3,51.46,47.38,94.88,102,89.78S933.69,770.35,931,715s-69.25-63.54-77.25-106.39c10.82-7.18,20.86-17.87,28.57-28.57-11.88-10.36-22.85-4.44-36.73-4.08,5.31,22.33-11,38.24-24.48,44.89,2.44-30.77,15.14-68.51,20.69-97.65s-19.06-80.6,28.28-65.58c8.85-9.8,18.61-23.75,8.16-36.73,17.38-20,28.65-47.79,57.13-40.81a78.42,78.42,0,0,1,12.24,4.08c6.53,2.66,14.33,3.63,20.41,8.16,2.53-14.56-30.12-21.75-44.89-20.4,6.53-9.67,13.63-25.79,16.32-32.65-31.87,46-78.19,86.35-118.34,126.51M902.75,682C910,691.63,912,698.6,915,710.6c2.81,11.31,2.28,17.63,0,28.57-10,48.44-54.65,81.9-102,61.21-47.54-20.77-71.86-74.27-37.74-119.36S871.29,640.13,902.75,682Z"/><path class="cls-86" d="M302.87,673.87c2.12,2.82,2.2,5.15,4.08,8.17,26.85,18.69,95.94,10,126.5,8.16,141-61.54,274-143.2,391.77-244.85-7-1.76-18.28-42.12-20.41-49-6.89,3.42-11.71-20.9-16.32-28.57-27.46,18.4-45.62,76.72-28.57,106.1-28.93,28.81-81.17,28-107.12,60.19s-38,65.34-81.62,81.62-69.54,43.38-118.67,44.57-103.37,9.54-153.73,1.34C301.8,664.82,301.19,670.57,302.87,673.87Z"/><path class="cls-87" d="M935.4,388.21c1.8-.08,7.67-4.2,12.24-4.08a78.42,78.42,0,0,0-12.24-4.08c-3.88.9-11.18-1.55-12.24,4.08C928.06,383.36,931.44,386.09,935.4,388.21Z"/><path class="cls-88" d="M935.4,388.21c65.46,12.08,38.93,90,11.31,125.57s-62.48,67.34-88.85,103c64.85-46.89,169.65-141.2,110.19-224.45-6.08-4.53-13.88-5.5-20.41-8.16C943.07,384,937.2,388.13,935.4,388.21Z"/><path class="cls-89" d="M245.73,571.85c10,35.34,23.67,81,53,106.11,2.33,1.95,5.88,2.48,8.17,4.08-1.88-3-2-5.35-4.08-8.17-7.23-9.3-19.55-19.3-20.41-32.64,61,6.08,117.24-25.92,171.11-41.1s102-24.24,155-49,72.93-66.8,81.95-126.18c-16.69,9.59-33.3,16.65-48.65,28.89s-35,9.72-50.31,23.14-36.12,16.69-56,17.43S497.28,506,479.24,511.54s-36.36,12-53.05,20.4-39.14,14.28-57.13,16.33S324.62,564,307.84,560.51s-52.31,17.67-62.11,11.34M409,580c-5.55,12.78-22.41,6.49-32.65,12.25C365.87,574.06,398,572,409,580Z"/><path class="cls-90" d="M539.56,653.47c20.11-6.08,50.56-19.91,73.45-32.65-16.4,16.78.74,43.63-8.16,53,78.72-28.36,141-88.63,216.29-122.42,5.67-26.85-5.06-61.7,0-85.7C742.38,544.47,634.19,599,539.56,653.47Z"/><path class="cls-91" d="M131.47,473.91c-9.22-4.94-25.55,8.2-13.14,17.22S143.34,480.28,131.47,473.91Z"/><path class="cls-92" d="M927.24,490.24c-14,1.46-31.46,36.93-6.94,39.34S937,499.5,927.24,490.24Z"/><path class="cls-93" d="M151.87,771.82c8.12,1.42,8,4.77,16.33,0-29.1-28.28-82.85-12.45-69.3-81.54S180.48,573.4,221.25,518.8C174,555.69,145,585.52,110.13,636.21S78.13,758.88,151.87,771.82Z"/><path class="cls-94" d="M604.85,673.87C544.7,695.54,484.46,722,417.13,718.76c2.9-6.69,13.79-5.26,16.32-12.24-26.93,12-58.76,22.69-85.7,32.65,24.33.24,53.75,28.56,77.54,36.73,24.24-1.55,55.5-28.37,81.9-32.36s55.75-27.14,81.38-32.9,54.52-28.48,76.27-38,56.31-31.46,73.45-40.81,63.1-47,66.52-31.42c5.72-14.73,12.78-32,16.33-49C745.84,585.24,683.57,645.51,604.85,673.87Z"/><path class="cls-95" d="M409,580c-11-8-43.1-6-32.65,12.25C386.56,586.5,403.42,592.79,409,580Z"/><path class="cls-96" d="M425.29,775.9c17.75,6.08,39.83,10,57.22,16.24s53.25-4.2,65.21,8.24c18.57-11.55,47.21-27.5,66.23-35.79S663.7,734.07,679.33,728s57.25-41,64.27-33.67c19.18-35.3,46-54.73,61.21-93.86-3.42-15.59-49.42,22-66.52,31.42s-51.74,31.26-73.45,40.81-50.69,32.2-76.27,38-54.93,28.9-81.38,32.9S449.53,774.35,425.29,775.9Z"/><path class="cls-97" d="M539.56,653.47c-34.37,19.79-74,30.44-106.11,53-2.53,7-13.42,5.55-16.32,12.24,67.33,3.19,127.57-23.22,187.72-44.89,8.9-9.42-8.24-36.27,8.16-53C590.12,633.56,559.67,647.39,539.56,653.47Z"/><path class="cls-98" d="M968.05,624.9c-2.78-2.77-15.31,1.19-10.94,6.78S972.13,629,968.05,624.9Z"/><path class="cls-99" d="M813,800.38c2,1.31-12.77-12.44-16.32-16.32,32.61,3.79,50.65-29.06,77.54-36.73,1.59-6.41-3.84-17.22,4.08-20.4a10,10,0,0,0,0-4.08c5.47-9.23-20.53-55.34,20.4-28.57-2.16-5.22,4-7.59,4.08-12.24-31.46-41.91-93.41-46.08-127.52-1s-9.8,98.59,37.74,119.36m4.09-130.59c-9.27,11.14-22.49,30.65-36.73,36.73,4.81-16.12,22-29.5,36.73-36.73M849.7,678c.53,13,1.27,30.36-12.24,36.72-8.16-10.77-7.84-38.48,12.24-36.72M813,743.25c16.61,4.57,11.8,34.93-8.2,28.52S792.57,737.66,813,743.25Z"/><path class="cls-100" d="M188.6,661.63c-8.53-3.79-16.32,10.53-6.94,14.86S196.15,665,188.6,661.63Z"/><path class="cls-101" d="M817.06,669.79c-14.74,7.23-31.92,20.61-36.73,36.73C794.57,700.44,807.79,680.93,817.06,669.79Z"/><path class="cls-102" d="M339.59,731c32-11.67,63.62-27.63,93.86-40.81C402.89,692,333.8,700.73,307,682c-2.29-1.6-5.84-2.13-8.17-4.08C311.8,695.26,329.11,712.68,339.59,731Z"/><path class="cls-103" d="M849.7,678c-20.08-1.76-20.4,25.95-12.24,36.72C851,708.32,850.23,691,849.7,678Z"/><path class="cls-104" d="M878.27,722.85c22.36-30,37.3,31.13,0,16.32V726.93c-7.92,3.18-2.49,14-4.08,20.4-26.89,7.67-44.93,40.52-77.54,36.73,3.55,3.88,18.32,17.63,16.32,16.32,47.38,20.69,92-12.77,102-61.21.73-8.94,1-19.67,0-28.57-3-12-5-19-12.25-28.56-.12,4.65-6.24,7-4.08,12.24-40.93-26.77-14.93,19.34-20.4,28.57m-4.08,36.72C874.55,783.12,854.76,772.55,874.19,759.57Z"/><path class="cls-105" d="M547.72,800.38c-1.47.9-4.08,0-4.08,0,1.91,6.12,11.79,1.14,16.32,0,11.39-5.63,24.44-9.47,36.73-12.24,45.74-26,106-54.11,146.91-89.78,0,0-.86-2.49,0-4.08-7-7.31-48.69,27.5-64.27,33.67S633,756.31,614,764.59,566.29,788.83,547.72,800.38Z"/><path class="cls-106" d="M596.69,788.14c24.57-5.55,66.27-16.69,85.37-33s62.52-28.49,61.54-56.81C702.71,734,642.43,762.1,596.69,788.14Z"/><path class="cls-107" d="M915,739.17c2.28-10.94,2.81-17.26,0-28.57C916,719.5,915.73,730.23,915,739.17Z"/><path class="cls-108" d="M878.27,722.85a10,10,0,0,1,0,4.08v12.24C915.57,754,900.63,692.85,878.27,722.85Z"/><path class="cls-109" d="M319.19,747.33c55.62,6.94,110.22,58.64,175.48,53-1.06,4.41,4.65,15.26,4.08,16.33,14.24-5.88,30.15-10.29,44.89-16.33,0,0,2.61.9,4.08,0-12-12.44-47.83-2-65.21-8.24S443,782,425.29,775.9c-23.79-8.17-53.21-36.49-77.54-36.73C338.53,742.6,328.37,744.11,319.19,747.33Z"/><path class="cls-110" d="M813,743.25c-20.4-5.59-28.19,22.12-8.2,28.52S829.58,747.82,813,743.25Z"/><path class="cls-111" d="M168.2,804.46c-.53,1.88,0,6.12,0,8.16,22,9.31,25.62-64.68,57.13-40.8,41.26,31.3-36.36,25.09-12.24,4.08-28,13.3-21.22,46.4-44.89,57.13,7.1,28.69,23.62,49.83,53.05,57.13-8-5.79-3.51-33.63,12.24-40.81a6.7,6.7,0,0,1,4.08,0c3.14,3.19,8.53,6,12.24,8.16.62-5.75,2.7-13.63,8.17-16.32,2.65-3.55,5.46-5.35,8.16-8.16,7.59-8,9.59-17.51,8.16-28.57-10,5.8-23.83,2.86-20.41-12.24,19.92,17.14,22.08-13.63,16.33-28.57,4.73-3.22,10.32,8,12.24,0-41.58-33.17-100-10.77-114.26,40.81m32.64,16.33c11.88.73,16.24,27.34-.32,28.24S183.7,819.73,200.84,820.79Z"/><path class="cls-112" d="M168.2,812.62V833c23.67-10.73,16.85-43.83,44.89-57.13,1.34-.66,10.57-4.08,12.24-4.08C193.82,747.94,190.19,821.93,168.2,812.62Z"/><path class="cls-113" d="M266.14,833c16.57-5.51,28.73,24.48,4.08,24.48-5.8-7.26-3.31-15.54-12.24-16.32-5.47,2.69-7.55,10.57-8.17,16.32-3.71-2.16-9.1-5-12.24-8.16,12.86,15.14-11.18,29.06-12.24,8.16,3.39-1.67,7.67-4,8.16-8.16-15.75,7.18-20.24,35-12.24,40.81,72.92,18,122.63-77.54,61.21-126.51-1.92,8-7.51-3.22-12.24,0,5.75,14.94,3.59,45.71-16.33,28.57-3.42,15.1,10.41,18,20.41,12.24C275.73,815.52,273.73,825.07,266.14,833Z"/><path class="cls-114" d="M213.09,775.9c-24.12,21,53.5,27.22,12.24-4.08C223.66,771.82,214.43,775.24,213.09,775.9Z"/><path class="cls-115" d="M498.75,816.71c-50.44,27.7-111.57,41.74-167.32,53,67,7.46,137.94-26.28,200-53,10.17-4.37,19.51-11.84,28.57-16.33-4.53,1.14-14.41,6.12-16.32,0C528.9,806.42,513,810.83,498.75,816.71Z"/><path class="cls-116" d="M168.2,833V812.62c0-2-.53-6.28,0-8.16C164.93,815.73,165.38,821.68,168.2,833Z"/><path class="cls-117" d="M200.84,820.79c-17.14-1.06-16.89,29.13-.32,28.24S212.72,821.52,200.84,820.79Z"/><path class="cls-118" d="M258,841.19c8.93.78,6.44,9.06,12.24,16.32,24.65,0,12.49-30-4.08-24.48C263.44,835.84,260.63,837.64,258,841.19Z"/><path class="cls-119" d="M237.57,849.35a6.7,6.7,0,0,0-4.08,0c-.49,4.21-4.77,6.49-8.16,8.16C226.39,878.41,250.43,864.49,237.57,849.35Z"/><path class="cls-120" d="M686.47,849.35c-20.94-2.53-33.71,35.38-8.21,40.77S708.71,852.05,686.47,849.35Z"/><path class="cls-121" d="M935.4,873.84c-12.16-6.9-26.4,7.3-13.14,17.22S946.42,880.08,935.4,873.84Z"/><path class="cls-122" d="M515.07,902.4c-12.36.29-13.83,21.84-28.57,20.41,8.41,9.59,17.72,24.65,28.57,28.56-4.2-16.07,15-18,20.41-28.56C525.72,922.56,515.64,911.91,515.07,902.4Z"/><path class="cls-123" d="M813,922.81c-13.75-8.25-29.34,13.59-15,23.14S825.71,930.44,813,922.81Z"/></svg>