<svg id="Layer_1" data-name="Layer 1" xmlns="http://www.w3.org/2000/svg" viewBox="0 0 1080 1080"><defs><style>.cls-1{fill:#0c1523;}.cls-10,.cls-11,.cls-12,.cls-13,.cls-14,.cls-15,.cls-16,.cls-17,.cls-18,.cls-19,.cls-2,.cls-20,.cls-21,.cls-22,.cls-23,.cls-24,.cls-25,.cls-26,.cls-27,.cls-28,.cls-29,.cls-3,.cls-30,.cls-31,.cls-32,.cls-33,.cls-34,.cls-35,.cls-36,.cls-37,.cls-38,.cls-39,.cls-4,.cls-40,.cls-41,.cls-42,.cls-43,.cls-44,.cls-45,.cls-46,.cls-47,.cls-48,.cls-49,.cls-5,.cls-50,.cls-51,.cls-52,.cls-53,.cls-54,.cls-55,.cls-56,.cls-57,.cls-58,.cls-59,.cls-6,.cls-60,.cls-61,.cls-62,.cls-63,.cls-7,.cls-8,.cls-9{fill:none;stroke-width:1.22px;}.cls-2{stroke:#0d142e;}.cls-3{stroke:#0b0d16;}.cls-4{stroke:#2e2e33;}.cls-5{stroke:#222357;}.cls-6{stroke:#ddbecd;}.cls-7{stroke:#33235f;}.cls-8{stroke:#6c4f90;}.cls-9{stroke:#dcdbe3;}.cls-10{stroke:#e0dee0;}.cls-11{stroke:#964b71;}.cls-12{stroke:#8b3880;}.cls-13{stroke:#d07f9e;}.cls-14{stroke:#e79ea3;}.cls-15{stroke:#4e3a96;}.cls-16{stroke:#d7638b;}.cls-17{stroke:#6777b9;}.cls-18{stroke:#6f3694;}.cls-19{stroke:#9b99cb;}.cls-20{stroke:#a84694;}.cls-21{stroke:#f59290;}.cls-22{stroke:#d97ea7;}.cls-23{stroke:#815ea8;}.cls-24{stroke:#7d7dbb;}.cls-25{stroke:#5f61ac;}.cls-26{stroke:#7396ce;}.cls-27{stroke:#274792;}.cls-28{stroke:#b585b7;}.cls-29{stroke:#065b82;}.cls-30{stroke:#dcdbdc;}.cls-31{stroke:#bc85ba;}.cls-32{stroke:#182f58;}.cls-33{stroke:#ee8ca9;}.cls-34{stroke:#0d93b7;}.cls-35{stroke:#3879bd;}.cls-36{stroke:#5baada;}.cls-37{stroke:#c35796;}.cls-38{stroke:#915ea7;}.cls-39{stroke:#cec7d2;}.cls-40{stroke:#8796cb;}.cls-41{stroke:#b99fcb;}.cls-42{stroke:#54a0d6;}.cls-43{stroke:#2fb2c3;}.cls-44{stroke:#5076bb;}.cls-45{stroke:#938dc4;}.cls-46{stroke:#5b5284;}.cls-47{stroke:#603a96;}.cls-48{stroke:#e1e1e3;}.cls-49{stroke:#c6bec8;}.cls-50{stroke:#2d97c6;}.cls-51{stroke:#c889ab;}.cls-52{stroke:#1788a1;}.cls-53{stroke:#11719f;}.cls-54{stroke:#2162a4;}.cls-55{stroke:#484fa2;}.cls-56{stroke:#1b2b58;}.cls-57{stroke:#204486;}.cls-58{stroke:#2e3389;}.cls-59{stroke:#b47db6;}.cls-60{stroke:#dcdde6;}.cls-61{stroke:#d0ac92;}.cls-62{stroke:#634a9c;}.cls-63{stroke:#dbc1d8;}.cls-64{fill:#0d142e;}.cls-65{fill:#0b0d16;}.cls-66{fill:#2e2e33;}.cls-67{fill:#222357;}.cls-68{fill:#ddbecd;}.cls-69{fill:#33235f;}.cls-70{fill:#6c4f90;}.cls-71{fill:#dcdbe3;}.cls-72{fill:#e0dee0;}.cls-73{fill:#964b71;}.cls-74{fill:#8b3880;}.cls-75{fill:#d07f9e;}.cls-76{fill:#e79ea3;}.cls-77{fill:#4e3a96;}.cls-78{fill:#d7638b;}.cls-79{fill:#6777b9;}.cls-80{fill:#6f3694;}.cls-81{fill:#9b99cb;}.cls-82{fill:#a84694;}.cls-83{fill:#f59290;}.cls-84{fill:#d97ea7;}.cls-85{fill:#815ea8;}.cls-86{fill:#7d7dbb;}.cls-87{fill:#5f61ac;}.cls-88{fill:#7396ce;}.cls-89{fill:#274792;}.cls-90{fill:#b585b7;}.cls-91{fill:#065b82;}.cls-92{fill:#dcdbdc;}.cls-93{fill:#bc85ba;}.cls-94{fill:#182f58;}.cls-95{fill:#ee8ca9;}.cls-96{fill:#0d93b7;}.cls-97{fill:#3879bd;}.cls-98{fill:#5baada;}.cls-99{fill:#c35796;}.cls-100{fill:#915ea7;}.cls-101{fill:#cec7d2;}.cls-102{fill:#8796cb;}.cls-103{fill:#b99fcb;}.cls-104{fill:#54a0d6;}.cls-105{fill:#2fb2c3;}.cls-106{fill:#5076bb;}.cls-107{fill:#938dc4;}.cls-108{fill:#5b5284;}.cls-109{fill:#603a96;}.cls-110{fill:#e1e1e3;}.cls-111{fill:#c6bec8;}.cls-112{fill:#2d97c6;}.cls-113{fill:#c889ab;}.cls-114{fill:#1788a1;}.cls-115{fill:#11719f;}.cls-116{fill:#2162a4;}.cls-117{fill:#484fa2;}.cls-118{fill:#1b2b58;}.cls-119{fill:#204486;}.cls-120{fill:#2e3389;}.cls-121{fill:#b47db6;}.cls-122{fill:#dcdde6;}.cls-123{fill:#d0ac92;}.cls-124{fill:#634a9c;}.cls-125{fill:#dbc1d8;}</style></defs><title>avatar-nebula</title><rect class="cls-1" width="1080" height="1080"/><path class="cls-2" d="M75.87,55.33C21.8,90.59,40.81,154.54,39.14,214.49s-.24,133.44,0,195.88-2.37,132.83,0,195.88-6,133.69,0,195.88-13.47,136.67,0,191.81c27.3,68.68,112.06,41.09,175.48,44.88s152.54-1.55,220.37,0,151.89-.4,220.36,0,154.55.49,220.37,0,144.79,17.35,163.24-57.13c11.75-94.92-3.68-193.88,0-289.74s2-193.47,0-289.74,8.73-197.8,0-293.83c-18.45-89-119-64.64-195.89-65.29s-180.41-2-261.17,0-180.74-6.12-261.18,0S146.63,23,75.87,55.33M337,259.38c5.31-72,127-98.47,146.92-20.41,24.36-12.28,52.8-29.05,81.61-16.32,18.33-27,27.26-50.4,57.46-69.05s69.42-25.14,106.68-17.55,44.64,27.06,73.58,52.93-.78,76.31,8.48,105.78,77.25-3.43,99.41,18.93,51.91,40,58.12,72.48,17.09,78-3.47,106.14S936.4,543,907.35,564.42s-55.58,11.35-81.62,44.89-18,48.32-15.3,90.8-26,47.1-54,72.52-73,.49-105.21,1-22.77,58.07-45.87,80.56-61.74,42.27-96.92,33.66-51.87-46.68-85.7-20.4c5.51,50.4-62.88,78.92-97.94,49-31.26-13-39.95,9.51-66.23,23.55s-61.13,13.75-87.58-.33-39.42-33.38-42.07-64,10.65-51.34,33.67-72.44-29.14-36.48-30.81-61S123,679.5,150.34,660.32s27-38.19,68.36-37.74,24.44-32.73,12.24-57.14c-15.06-30.11-5.1-62.23,12.24-89.78-41.46,6.7-72.64-.24-107.12-27.54s-28.61-74.4-27.83-111.49,73.17-51.75,52.28-80.27-42.45-68.44-8.12-100,63.74-32.77,104-16.25,44.27,64.36,23.54,98.88c17.84,9.43,34.77,34.73,57.13,20.41m187.73-93.86c-8.33-3.31-12.12-13.35-20.41-16.33,7.26-40.32,57.38-3.42,20.41,16.33m322.38-36.73c3.15,24.81-25,1.26,0,0M357.45,141c4.08,4.08-6.57,12.37-10.94,6.78s8.16-9.55,10.94-6.78m555,28.57c-2.29,16.61,12.73,27.34,24.48,32.65-12.44,6.4-21.63,16.85-28.56,28.56-4.37-12.69-16.65-23.67-28.57-28.56,17.1-3.15,20.32-23.43,32.65-32.65m57.13,110.18c-11.67,21.67-21.46-13.75,0,0M165.65,553.2c-12.45,6.41-21.67,16.85-28.57,28.57-4.89-10.78-13.83-24.45-28.56-24.49,6-11.42,29.21-9.51,24.48-28.56,12.12,3.14,17.63,22.24,32.65,24.48m803.93,24.49c9.63,5.3,2.74,23.79-9.1,17.18s1.76-21.22,9.1-17.18M108.52,643c4.93,4.94-4.33,17.43-10.94,10.85S104,638.41,108.52,643m820.25,32.65c-12.85,7.1-20.48,21.83-28.56,32.64-6-9.91-13.92-27.34-28.57-28.56,10-8.49,30-13.92,24.49-32.65,11.46,4.49,15.42,26.44,32.64,28.57m20.41,85.7c15.05-30.65,29.3,16.4,0,0M761.46,916.4c-1.35,52.15-88.19,55-97.05,3.18s26.73-94.1,75.42-71.29,55.13-61.66,93.86-75.95,96.55,5,107,54.61-5.43,86.55-49,117.69-91.54-19.18-130.26-28.24M112.6,794c-32.94,2.25,2-33.09,0,0M447.23,945c-7.14,7.84-34.77,16.45-31.18,1.23s33.14-17.06,31.18-1.23m126.51-12.24c17.22,3.51,11.14,34.4-8.21,28.53S559.37,929.78,573.74,932.72Z"/><path class="cls-3" d="M35.06,108.38c-9.71,94.52,3,190.34,0,285.67s-1.51,194,0,289.74-7,194.25,0,289.74c.61,8.37,1.1,12.9,4.08,20.41-13.47-55.14,6-129.61,0-191.81s2.37-132.83,0-195.88.25-133.44,0-195.88-1.67-135.93,0-195.88S21.8,90.59,75.87,55.33C50.2,67.09,41.18,80.76,35.06,108.38Z"/><path class="cls-4" d="M1039,981.69c21.91-88.47-.82-195.68,4.08-289.74s2.89-199.47,0-293.82,14.52-199.92-4.08-289.75c8.73,96-2,197.56,0,293.83s3.67,193.88,0,289.74S1050.71,886.77,1039,981.69Z"/><path class="cls-5" d="M230.94,565.44c14.9,18.45,60.48,34.65,89.78,28.57,2.16-5.22-4-7.59-4.08-12.24a7.65,7.65,0,0,0-4.08,0c-26.93-13.18-26.85-44.16-4.08-57.14,16-9.1,37.5-10.36,53-20.4-38.52-3.63-50.73-41.5-70.44-72.39s-75,17.18-95.86-22.49S171.08,342,206.46,312.43c14.36-15.51,18.77-40.08,45.78-29.47s20.78,21.23,56.24,25.39,26.57-21.75,28.56-49c-22.36,14.32-39.29-11-57.13-20.41,20.73-34.52,16.69-82.35-23.54-98.88s-69.62-15.3-104,16.25-12.78,71.49,8.12,100S109,299.49,108.23,336.63s-6.61,84.15,27.83,111.49,65.66,34.24,107.12,27.54c-17.34,27.55-27.3,59.67-12.24,89.78m-12.24-404c5.22,12,7.39,29.09,24.48,28.56-12.85,7.1-20.52,21.84-28.56,32.65,1.79-16.08-12.37-30.4-28.57-28.57,14.73-7.3,28.16-15.87,32.65-32.64m-53,191.8c6.24,6.24-7.92,18.81-15,10.89s9.88-16,15-10.89m0,57.13C134.55,416.37,161.85,382.33,165.65,410.37Z"/><path class="cls-6" d="M524.77,165.52c37-19.75-13.15-56.65-20.41-16.33C512.65,152.17,516.44,162.21,524.77,165.52Z"/><path class="cls-7" d="M337,259.38c-2,27.22,6.94,53.09-28.56,49S279.26,293.58,252.24,283s-31.42,14-45.78,29.47C232,296.68,273.75,323.9,281,352.18s24.24,11.18,39.75,9.22c17.18-2.16,24.81,5.22,40.81-8.16,25.63-21.47,47.42-45,77.21-3.76s44.93-3.38,48.4-33.87,42-54.76,74.35-48.07,44.53-20.41,70.4-43.87,64.72-9.39,93.86,10.2,15.87,61.3,11.34,86.84,34.81,66.48,62,53.83,65.83,2.24,80.4,32.08,7.26,66.43-19.06,86.39-42.81,40.93-73.17,49.25S731.5,582.46,737,614.41s16.77,51.46-15.3,82.64-64.81-2.24-99,3.06c-24.53,3.84-34.94,38.4-49,53-8.21-11.1-1.68-35.79-20.41-36.72,42.89,51.62-23.71,119.44-77.54,93.86-7.18-2.45-13.05-6-20.4-8.17-31.38-4.69-51.5,16.74-65.29,40.81.69,1.76-.74,6.45,0,8.16,6.93,16.37-24.61,31.22-40.81,28.57-10.69-11-11-20.12-28.57-20.4,11.31,19.38-7,38.07,4.08,57.13,35.06,30,103.45,1.43,97.94-49,33.83-26.28,50.52,11.79,85.7,20.4s73.78-11.22,96.92-33.66S619,774.1,651.23,773.61s77.29,24.44,105.21-1,56.72-30,54-72.52-10.78-57.25,15.3-90.8,52.6-23.46,81.62-44.89,37.87-44,58.48-72.11,9.67-73.57,3.47-106.14S933.38,336,911.18,313.69,821,324.22,811.77,294.76s20.49-79.95-8.48-105.78S767,143.64,729.71,136.05,653.23,135,623,153.6s-39.13,42.07-57.46,69.05c-28.81-12.73-57.25,4-81.61,16.32C464,160.91,342.35,187.39,337,259.38m318.31-57.13c-10.08.36-18.52-10.53-16.32-20.41,10.08-.37,18.53,10.53,16.32,20.41m89.78-16.33c-3.3,26.49-29.42-2.45,0,0m24.49,57.13c-25.1-17,15.46-27.09,0,0M422.74,255.3c10.94,3.95,7.51,27.66-9.1,21.26s-6.65-26.94,9.1-21.26m359.12,61.21c-1.1,24.81-24.93-2.57,0,0M916.53,390c-27.55,2.24,3.55-31,0,0M941,451.18c-4.2,30.89-30.85-.65,0,0m-40.8,61.21c2.73,29.3-26.61,3.55,0,0M839,532.8c7.59,41.87-42.32.53,0,0M761.46,704.19c.2,11.55-8.41,19.51-20.41,16.33,3.63-8.74,8.41-19.47,20.41-16.33m-89.78,44.89c-33.67,1.19.94-33.79,0,0m-93.86,65.3c4.93,4.93-4.33,17.42-10.94,10.85S573.25,809.81,577.82,814.38Z"/><path class="cls-8" d="M357.45,141c-2.78-2.77-15.3,1.19-10.94,6.78S361.53,145.11,357.45,141Z"/><path class="cls-9" d="M218.7,161.44c-4.49,16.77-17.92,25.34-32.65,32.64,16.2-1.83,30.36,12.49,28.57,28.57,8-10.81,15.71-25.55,28.56-32.65C226.09,190.53,223.92,173.47,218.7,161.44Z"/><path class="cls-10" d="M912.45,169.6c-12.33,9.22-15.55,29.5-32.65,32.65,11.92,4.89,24.2,15.87,28.57,28.56,6.93-11.71,16.12-22.16,28.56-28.56C925.18,196.94,910.16,186.21,912.45,169.6Z"/><path class="cls-11" d="M655.35,202.25c2.21-9.88-6.24-20.78-16.32-20.41C636.83,191.72,645.27,202.61,655.35,202.25Z"/><path class="cls-12" d="M361.53,353.24c6.08-.7,16.77,8.69,24.49,4.08,1.26,11.14,11.58,18.73,16.32,28.56,8.49.58,21.06,8,28.57,12.25,25.75,14.53,64.23,54.93,92.83,27.54s8.74-66.68,42.85-87.74,83.34-18.24,102,10.21-.41,94,50.72,85.33,53.34,43.79,28.85,69.74-78.47,22.36-72.43,70.39c1.18,9.55,10.89,27.18,20.4,32.65-.73,46.56-56.52,58.73-89.78,36.73,18.86,9-.61,45.18,16.33,57.13,34.15-5.3,66.84,28.12,99-3.06s20.77-50.68,15.3-82.64,20-63.78,50.28-72.15,46.81-29.34,73.17-49.25,33.62-56.6,19.06-86.39-53.22-44.73-80.4-32.08-66.56-28.32-62-53.83,17.8-67.21-11.34-86.84-68-33.67-93.86-10.2-38,50.56-70.4,43.87-70.88,17.59-74.35,48.07-18.65,75.13-48.4,33.87-51.58-17.71-77.21,3.76M692.08,275.7c9.51,5-3.26,27.26-15,19s1.43-26.24,15-19M528.85,312.43c-2.09,25.63-28.61-3.47,0,0m220.36,81.62c-19.14,9.14-23.3-17.14,0,0M839,422.61c11.88,6.37-.73,26.24-13.14,17.22s3.92-22.16,13.14-17.22m-57.13,32.65c5.26,29.95-26,5.79,0,0M704.32,679.71C707.06,709,677.72,683.22,704.32,679.71Z"/><path class="cls-13" d="M422.74,255.3c-15.75-5.68-25.71,14.89-9.1,21.26S433.68,259.25,422.74,255.3Z"/><path class="cls-14" d="M692.08,275.7c-13.59-7.22-26.77,10.77-15,19S701.59,280.72,692.08,275.7Z"/><path class="cls-15" d="M206.46,312.43c-35.38,29.54-32.12,57.25-11.23,96.92s76.19-8.41,95.86,22.49S323,500.6,361.53,504.23c-15.55,10-37,11.3-53,20.4-2.61,7.31,7.39,10.17,8.16,16.33,16.32-2.94,30.28-33.3,47.67-27.18s12.77,41.3,29.87,47.58c7.63,1.63,10.73-1.67,16.32,4.08h4.08c2,0,6.16-.32,8.16,0,17.84-13.79,24-39.34,20.41-61.21-4.33-26.69-23.06-43.87-49-49-29.92-5.88-34.45-14.2-44.89-40.81-7.18-18.28-29.14-37.26-28.57-53.05-15.51,2-32.56,19.1-39.75-9.22s-48.93-55.5-74.51-39.75m36.72,44.89c16.45,5.14,3.72,27-12.24,20.4S230.82,353.44,243.18,357.32Z"/><path class="cls-16" d="M430.91,398.13c-1.23,5.1-7.47,7-8.17,12.24,17.75,2.57,33.34,14.24,36.73,32.65,14.94,27.71,51,36,65.3,65.29.81,1.63,0,4.08,0,4.08,3.22,3.39,6.48,3.06,8.16,8.16,28.24,10,39.25-36.81,38.07-55.78s8.94-52.93,36.32-57.54,18.53,44.28,42.73,49.25,40.81,33.59,14.49,48.77-64.2-1.31-58.16,39.79c-7.67,1.92-20.12-4.33-24.48,4.08,9.26-1.55,19.22,1.14,28.56,0V573.6c13.63,10.13,25.59,28.78,44.89,28.57,7.55-8.9,7-27.34,20.41-28.57-6-48,48-44.4,72.43-70.39s22.24-78.39-28.85-69.74-32-56.85-50.72-85.33-67.91-31.26-102-10.21-14.28,60.32-42.85,87.74S456.66,412.66,430.91,398.13Z"/><path class="cls-17" d="M165.65,353.24c-5.1-5.1-22.08,2.94-15,10.89S171.89,359.48,165.65,353.24Z"/><path class="cls-18" d="M320.72,361.4c-.57,15.79,21.39,34.77,28.57,53.05,3.3-14.4,39.54-29.5,53-28.57-4.74-9.83-15.06-17.42-16.32-28.56-7.72,4.61-18.41-4.78-24.49-4.08C345.53,366.62,337.9,359.24,320.72,361.4Z"/><path class="cls-19" d="M243.18,357.32c-12.36-3.88-28.19,13.75-12.24,20.4S259.63,362.46,243.18,357.32Z"/><path class="cls-20" d="M349.29,414.45c10.44,26.61,15,34.93,44.89,40.81-8.65-39,48.27-27.55,65.29-12.24-3.39-18.41-19-30.08-36.73-32.65.7-5.26,6.94-7.14,8.17-12.24-7.51-4.25-20.08-11.67-28.57-12.25C388.83,385,352.59,400.05,349.29,414.45Z"/><path class="cls-21" d="M532.93,520.55c3.3,10.08-2.49,21.43-4.08,28.57,0,2.94,1.18,9.59,0,12.24.57,1.27,14.2,8.74,16.32,12.24,11.63-10.85,22.2-19.26,36.73-24.48,4.36-8.41,16.81-2.16,24.48-4.08-6-41.1,31.83-24.65,58.16-39.79s9.67-43.75-14.49-48.77-15.35-53.86-42.73-49.25-37.5,38.56-36.32,57.54-9.83,65.78-38.07,55.78m85.7-40.81C615.32,506.23,589.24,477.3,618.63,479.74Z"/><path class="cls-22" d="M839,422.61c-9.22-4.94-25.54,8.21-13.14,17.22S850.87,429,839,422.61Z"/><path class="cls-23" d="M394.18,455.26c25.91,5.1,44.64,22.28,49,49,4.49-12.12,26.56-18.32,36.73-8.16,5.5-26.45,33.42,4.2,44.89,12.24-14.25-29.26-50.36-37.58-65.3-65.29C442.45,427.71,385.53,416.25,394.18,455.26Z"/><path class="cls-24" d="M479.88,496.07c-1.27,6.08,7.1,23.67,8.16,28.56.28-6.77-.21-13.63,0-20.4,14.4-4.73,26.12-3.84,36.73,8.16,0,0,.81-2.45,0-4.08C513.3,500.27,485.38,469.62,479.88,496.07Z"/><path class="cls-25" d="M443.15,504.23c3.55,21.87-2.57,47.42-20.41,61.21,18.08,2.9,39.06,36.16,61.22,16.33,1.51-2.94,2.81-5.15,4.08-8.17,6.65-15.75,3.55-32.89,0-49-1.06-4.89-9.43-22.48-8.16-28.56C469.71,485.91,447.64,492.11,443.15,504.23Z"/><path class="cls-26" d="M488,524.63c3.55,16.08,6.65,33.22,0,49,5.55,1.07,5.42,20.25,16.32,8.17,2.57,16-16.32,23.67-24.48,32.64,3.79-5.79,24.36-11.91,28.56-20.4.29-7.18,1.63-7.31,4.08-12.24,3.55-7.1,13.88-14.86,16.33-20.41,1.18-2.65,0-9.3,0-12.24,0-12.32,2.32-26-4.08-36.73-10.61-12-22.33-12.89-36.73-8.16C487.83,511,488.32,517.86,488,524.63Z"/><path class="cls-27" d="M308.48,524.63c-22.77,13-22.85,44,4.08,57.14-17.34-20.2,33.22-69.38,55.79-55.79s-3.15,29.14,25.83,35.38c-17.1-6.28-12.53-41.5-29.87-47.58S333,538,316.64,541C315.87,534.8,305.87,531.94,308.48,524.63Z"/><path class="cls-28" d="M528.85,549.12c1.59-7.14,7.38-18.49,4.08-28.57-1.68-5.1-4.94-4.77-8.16-8.16C531.17,523.08,528.85,536.8,528.85,549.12Z"/><path class="cls-29" d="M312.56,581.77a7.65,7.65,0,0,1,4.08,0c15.26,5.47,4.61,61.45-17.34,72.43s-47.91,12.86-71.42,34.69-6.16,56.76,2.12,81.54-35.3,51.7-6.2,79.65,49.83,13.35,80.6,5.11c10-15.14-4.53-49.83,8.16-57.14-56.72,8.57-41.91-56.68-20.4-81.61,18-20.9,26.85-16.74,53-20.41,10-28.28,38.85-43.95,17.26-78.47s19.87-52.12,48-52.12c-5.59-5.75-8.69-2.45-16.32-4.08-29-6.24-3.27-21.79-25.83-35.38S295.22,561.57,312.56,581.77Z"/><path class="cls-30" d="M165.65,553.2c-15-2.24-20.53-21.34-32.65-24.48,4.73,19-18.53,17.14-24.48,28.56,14.73,0,23.67,13.71,28.56,24.49C144,570.05,153.2,559.61,165.65,553.2Z"/><path class="cls-31" d="M545.17,573.6c-6,5.6-8.69,8-15.1,13.47s-16-6-17.55-5.3c-2.45,4.93-3.79,5.06-4.08,12.24-.24,5.43.17,10.9,0,16.32,9.84-4.53,14.73-16.16,24.49-20.4,7.14-5.84,15.63-.21,20.4,0,20.08.81,37.75,1.3,53-12.24,1.06-.94,3.76-3.06,4.08-4.09V549.12c-9.34,1.14-19.3-1.55-28.56,0C567.37,554.34,556.8,562.75,545.17,573.6Z"/><path class="cls-32" d="M230.94,565.44c12.2,24.41,29.14,57.63-12.24,57.14s-41,18.56-68.36,37.74-20.28,57.34-18.56,81.87,53.78,39.83,30.81,61-36.28,41.79-33.67,72.44,15.59,50,42.07,64,61.3,14.4,87.58.33,35-36.57,66.23-23.55c-11.1-19.06,7.23-37.75-4.08-57.13,17.59.28,17.88,9.42,28.57,20.4,16.2,2.65,47.74-12.2,40.81-28.57-1.84,11.39-13.59,19.8-24.49,20.41,14.32-15,11.92-44.56-9.06-33.55s-30.12,27.55-52.15,17.23c-30.77,8.24-51.46,22.81-80.6-5.11s14.49-54.88,6.2-79.65-25.67-59.75-2.12-81.54,49.5-23.71,71.42-34.69,32.6-67,17.34-72.43c.12,4.65,6.24,7,4.08,12.24-29.3,6.08-74.88-10.12-89.78-28.57m-44.89,151c-25.05-17,15.47-27.1,0,0M198.3,896c-21.27,26.08-33.75-6.12-20.41-24.48C186.58,874.9,193.15,887.87,198.3,896Z"/><path class="cls-33" d="M512.52,581.77c1.51-.66,11.14,10.77,17.55,5.3s9.1-7.87,15.1-13.47c-2.12-3.5-15.75-11-16.32-12.24C526.4,566.91,516.07,574.67,512.52,581.77Z"/><path class="cls-34" d="M345.21,696c53.33-7.43,37.13-54.56,57.13-89.78,16.73,13,38.44,7.59,57.13,4.08-.9-1.47,0-4.08,0-4.08-16.4-11.47-29-30.6-44.89-40.81H410.5c-28.16,0-69.62,17.59-48,52.12S355.2,667.75,345.21,696Z"/><path class="cls-35" d="M459.47,606.25c13.18-4.32,18.24-12.36,24.49-24.48-22.16,19.83-43.14-13.43-61.22-16.33-2-.32-6.12,0-8.16,0C430.5,575.65,443.07,594.78,459.47,606.25Z"/><path class="cls-36" d="M484,581.77c-6.25,12.12-11.31,20.16-24.49,24.48,0,0-.9,2.61,0,4.08,3.06,4.9-8,18.86-8.16,28.57,7.06-11.06,18.12-16.65,28.57-24.49,8.16-9,27.05-16.69,24.48-32.64-10.9,12.08-10.77-7.1-16.32-8.17C486.77,576.62,485.47,578.83,484,581.77Z"/><path class="cls-37" d="M606.38,577.69c-1,15.3,22.08,21.18,32.65,24.48-11.63,9.35-20.81,19.22-16.32,36.73-5.23,1.14-14.29-3.1-16.33,4.08,33.26,22,89,9.83,89.78-36.73-9.51-5.47-19.22-23.1-20.4-32.65-13.39,1.23-12.86,19.67-20.41,28.57-19.3.21-31.26-18.44-44.89-28.57C610.14,574.63,607.44,576.75,606.38,577.69Z"/><path class="cls-38" d="M553.33,589.93c-4.81,2.2-8.28,13-12.24,16.32-16.49,28.69,4,50.44-8.16,77.54C552,657.3,579.49,651.84,606.38,643c2-7.18,11.1-2.94,16.33-4.08-4.49-17.51,4.69-27.38,16.32-36.73-10.57-3.3-33.67-9.18-32.65-24.48C591.08,591.23,573.41,590.74,553.33,589.93Z"/><path class="cls-39" d="M969.58,577.69c-7.34-4-20.93,10.57-9.1,17.18S979.21,583,969.58,577.69Z"/><path class="cls-40" d="M532.93,589.93c-2.13,1.75-2.45,6.41-4.08,8.16-.49-2.33,7.3,5.59,8.16,8.16,1.39-1,4.08,0,4.08,0,4-3.3,7.43-14.12,12.24-16.32C548.56,589.72,540.07,584.09,532.93,589.93Z"/><path class="cls-41" d="M508.44,594c-4.2,8.49-24.77,14.61-28.56,20.4-6.78,10.29,2.24,16.94,0,24.49,17.58-10.77,32-22.65,49-40.81,1.63-1.75,1.95-6.41,4.08-8.16-9.76,4.24-14.65,15.87-24.49,20.4C508.61,604.91,508.2,599.44,508.44,594Z"/><path class="cls-42" d="M479.88,638.9c-10.12,6.2-12.86,24-28.57,20.4V643c-21.26,26.89,20.08,21.87,32.65,12.24-5,8.69-7.68,25.71,0,32.65-4.7-34.93,14.77-44.2,44.89-49-1.19-12.2-.45-23.79,8.16-32.65-.86-2.57-8.65-10.49-8.16-8.16C511.91,616.25,497.46,628.13,479.88,638.9Z"/><path class="cls-43" d="M345.21,696c-26.2,3.67-35-.49-53,20.41-23.27,33.58-10.29,99.32,36.72,57.13,8-21.1,25.43-32,49-28.57s35.83-23.3,57.14-16.32c4.81,1,12.16,5.47,16.32,8.16,14.45,4,21.55-10.45,36.73-12.24V704.19c-1.47-5.47-2.49-10.73-4.08-16.32-7.68-6.94-5-24,0-32.65-12.57,9.63-53.91,14.65-32.65-12.24a20.05,20.05,0,0,0,0-4.08c.2-9.71,11.22-23.67,8.16-28.57-18.69,3.51-40.4,8.9-57.13-4.08-20,35.22-3.8,82.35-57.13,89.78m93.86-36.73c12.57,3.55,1.67,29.34-12.37,24.37S422.38,654.61,439.07,659.3Z"/><path class="cls-44" d="M484,687.87c1.59,5.59,2.61,10.85,4.08,16.32,3.18,12,.94,41.91-16.33,44.89,9.47,2.66,13.55,4.9,24.49,0,23-18.77,25.3-39.66,36.73-65.29,12.12-27.1-8.33-48.85,8.16-77.54,0,0-2.69-1-4.08,0-8.61,8.86-9.35,20.45-8.16,32.65C498.73,643.67,479.26,652.94,484,687.87Z"/><path class="cls-45" d="M451.31,638.9a20.05,20.05,0,0,1,0,4.08V659.3c15.71,3.59,18.45-14.2,28.57-20.4,2.24-7.55-6.78-14.2,0-24.49C469.43,622.25,458.37,627.84,451.31,638.9Z"/><path class="cls-46" d="M108.52,643C104,638.41,91,647.26,97.58,653.83S113.45,647.92,108.52,643Z"/><path class="cls-47" d="M532.93,683.79c-11.43,25.63-13.71,46.52-36.73,65.29-9.75,8-14.24,13.76-28.57,8.16-.16,16.33-13.83,52.57,20.41,49-1.06,5.68-8.37,3.19-12.25,4.09,53.83,25.58,120.43-42.24,77.54-93.86,18.73.93,12.2,25.62,20.41,36.72,14-14.65,24.44-49.21,49-53-16.94-12,2.53-48.15-16.33-57.13C579.49,651.84,552,657.3,532.93,683.79Z"/><path class="cls-48" d="M928.77,675.63c-17.22-2.13-21.18-24.08-32.64-28.57,5.54,18.73-14.49,24.16-24.49,32.65,14.65,1.22,22.61,18.65,28.57,28.56C908.29,697.46,915.92,682.73,928.77,675.63Z"/><path class="cls-49" d="M439.07,659.3c-16.69-4.69-26.41,19.43-12.37,24.37S451.64,662.85,439.07,659.3Z"/><path class="cls-50" d="M451.31,736.84c7.83,5.06,10.24,9.39,20.4,12.24,17.27-3,19.51-32.89,16.33-44.89V724.6C472.86,726.39,465.76,740.84,451.31,736.84Z"/><path class="cls-51" d="M761.46,704.19c-12-3.14-16.78,7.59-20.41,16.33C753.05,723.7,761.66,715.74,761.46,704.19Z"/><path class="cls-52" d="M312.56,798.05c5.06-.77,7.51-2.32,12.24-4.08.9-6.36,1.43-13.42,4.08-20.4-47,42.19-60-23.55-36.72-57.13C270.65,741.37,255.84,806.62,312.56,798.05Z"/><path class="cls-53" d="M328.88,773.57c-2.65,7-3.18,14-4.08,20.4a7.75,7.75,0,0,1,4.08,0c17.22-13.83,38.36-13.91,61.22-12.24,9.59-18.36,19.18-39.83,36.72-53.05,1.84-.61,6.21-.41,8.17,0-21.31-7-33.59,19.71-57.14,16.32S336.88,752.47,328.88,773.57Z"/><path class="cls-54" d="M328.88,794c11.72-2.77,20-7,32.65-8.16,11.22-1,25.59-1.55,36.73,0,3.55-.86,10.16-7.43,16.32-4.08-1.1-19.06-.28-38.44,12.24-53.05-17.54,13.22-27.13,34.69-36.72,53.05C367.24,780.06,346.1,780.14,328.88,794Z"/><path class="cls-55" d="M398.26,785.81c17.75,2.49,41.21,11.59,57.13,16.32,7.35,2.21,13.22,5.72,20.4,8.17,3.88-.9,11.19,1.59,12.25-4.09-34.24,3.6-20.57-32.64-20.41-49,14.33,5.6,18.82-.2,28.57-8.16-10.94,4.9-15,2.66-24.49,0-10.16-2.85-12.57-7.18-20.4-12.24-4.16-2.69-11.51-7.14-16.32-8.16-2-.41-6.33-.61-8.17,0-12.52,14.61-13.34,34-12.24,53.05C408.42,778.38,401.81,785,398.26,785.81Z"/><path class="cls-56" d="M761.46,916.4c38.72,9.06,86.67,59.38,130.26,28.24s59.46-68.15,49-117.69-68.32-68.93-107-54.61-45.22,98.72-93.86,75.95-84.23,19.42-75.42,71.29,95.7,49,97.05-3.18M892,859.27c-16.4,5.42-43.66,15.87-36.72,40.81-12.21-8-19.35-42.53-44.89-36.73,14.48-7.67,40.93-18.12,36.72-40.81C857.68,837,865.56,864.69,892,859.27m-187.72,49C698.57,873.51,739.13,910.07,704.32,908.24Z"/><path class="cls-57" d="M328.88,794a7.75,7.75,0,0,0-4.08,0c-4.73,1.76-7.18,3.31-12.24,4.08-12.69,7.31,1.79,42-8.16,57.14,22,10.32,31.18-6.21,52.15-17.23s23.38,18.57,9.06,33.55c10.9-.61,22.65-9,24.49-20.41-.74-1.71.69-6.4,0-8.16-6.78-16.69,1.63-32.48-8.17-49-6.36,6-17.67-.85-20.4-8.16C348.84,787,340.6,791.2,328.88,794Z"/><path class="cls-58" d="M390.1,842.94c13.79-24.07,33.91-45.5,65.29-40.81-15.92-4.73-39.38-13.83-57.13-16.32-11.14-1.55-25.51-1-36.73,0,2.73,7.31,14,14.16,20.4,8.16C391.73,810.46,383.32,826.25,390.1,842.94Z"/><path class="cls-59" d="M577.82,814.38c-4.57-4.57-17.55,4.28-10.94,10.85S582.75,819.31,577.82,814.38Z"/><path class="cls-60" d="M892,859.27c-26.48,5.42-34.36-22.24-44.89-36.73,4.21,22.69-22.24,33.14-36.72,40.81,25.54-5.8,32.68,28.73,44.89,36.73C848.38,875.14,875.64,864.69,892,859.27Z"/><path class="cls-61" d="M198.3,896c-5.15-8.12-11.72-21.09-20.41-24.48C164.55,889.87,177,922.07,198.3,896Z"/><path class="cls-62" d="M447.23,945c2-15.83-27.59-14-31.18,1.23S440.09,952.8,447.23,945Z"/><path class="cls-63" d="M573.74,932.72c-14.37-2.94-27.55,22.65-8.21,28.53S591,936.23,573.74,932.72Z"/><path class="cls-64" d="M75.87,55.33C21.8,90.59,40.81,154.54,39.14,214.49s-.24,133.44,0,195.88-2.37,132.83,0,195.88-6,133.69,0,195.88-13.47,136.67,0,191.81c27.3,68.68,112.06,41.09,175.48,44.88s152.54-1.55,220.37,0,151.89-.4,220.36,0,154.55.49,220.37,0,144.79,17.35,163.24-57.13c11.75-94.92-3.68-193.88,0-289.74s2-193.47,0-289.74,8.73-197.8,0-293.83c-18.45-89-119-64.64-195.89-65.29s-180.41-2-261.17,0-180.74-6.12-261.18,0S146.63,23,75.87,55.33M337,259.38c5.31-72,127-98.47,146.92-20.41,24.36-12.28,52.8-29.05,81.61-16.32,18.33-27,27.26-50.4,57.46-69.05s69.42-25.14,106.68-17.55,44.64,27.06,73.58,52.93-.78,76.31,8.48,105.78,77.25-3.43,99.41,18.93,51.91,40,58.12,72.48,17.09,78-3.47,106.14S936.4,543,907.35,564.42s-55.58,11.35-81.62,44.89-18,48.32-15.3,90.8-26,47.1-54,72.52-73,.49-105.21,1-22.77,58.07-45.87,80.56-61.74,42.27-96.92,33.66-51.87-46.68-85.7-20.4c5.51,50.4-62.88,78.92-97.94,49-31.26-13-39.95,9.51-66.23,23.55s-61.13,13.75-87.58-.33-39.42-33.38-42.07-64,10.65-51.34,33.67-72.44-29.14-36.48-30.81-61S123,679.5,150.34,660.32s27-38.19,68.36-37.74,24.44-32.73,12.24-57.14c-15.06-30.11-5.1-62.23,12.24-89.78-41.46,6.7-72.64-.24-107.12-27.54s-28.61-74.4-27.83-111.49,73.17-51.75,52.28-80.27-42.45-68.44-8.12-100,63.74-32.77,104-16.25,44.27,64.36,23.54,98.88c17.84,9.43,34.77,34.73,57.13,20.41m187.73-93.86c-8.33-3.31-12.12-13.35-20.41-16.33,7.26-40.32,57.38-3.42,20.41,16.33m322.38-36.73c3.15,24.81-25,1.26,0,0M357.45,141c4.08,4.08-6.57,12.37-10.94,6.78s8.16-9.55,10.94-6.78m555,28.57c-2.29,16.61,12.73,27.34,24.48,32.65-12.44,6.4-21.63,16.85-28.56,28.56-4.37-12.69-16.65-23.67-28.57-28.56,17.1-3.15,20.32-23.43,32.65-32.65m57.13,110.18c-11.67,21.67-21.46-13.75,0,0M165.65,553.2c-12.45,6.41-21.67,16.85-28.57,28.57-4.89-10.78-13.83-24.45-28.56-24.49,6-11.42,29.21-9.51,24.48-28.56,12.12,3.14,17.63,22.24,32.65,24.48m803.93,24.49c9.63,5.3,2.74,23.79-9.1,17.18s1.76-21.22,9.1-17.18M108.52,643c4.93,4.94-4.33,17.43-10.94,10.85S104,638.41,108.52,643m820.25,32.65c-12.85,7.1-20.48,21.83-28.56,32.64-6-9.91-13.92-27.34-28.57-28.56,10-8.49,30-13.92,24.49-32.65,11.46,4.49,15.42,26.44,32.64,28.57m20.41,85.7c15.05-30.65,29.3,16.4,0,0M761.46,916.4c-1.35,52.15-88.19,55-97.05,3.18s26.73-94.1,75.42-71.29,55.13-61.66,93.86-75.95,96.55,5,107,54.61-5.43,86.55-49,117.69-91.54-19.18-130.26-28.24M112.6,794c-32.94,2.25,2-33.09,0,0M447.23,945c-7.14,7.84-34.77,16.45-31.18,1.23s33.14-17.06,31.18-1.23m126.51-12.24c17.22,3.51,11.14,34.4-8.21,28.53S559.37,929.78,573.74,932.72Z"/><path class="cls-65" d="M35.06,108.38c-9.71,94.52,3,190.34,0,285.67s-1.51,194,0,289.74-7,194.25,0,289.74c.61,8.37,1.1,12.9,4.08,20.41-13.47-55.14,6-129.61,0-191.81s2.37-132.83,0-195.88.25-133.44,0-195.88-1.67-135.93,0-195.88S21.8,90.59,75.87,55.33C50.2,67.09,41.18,80.76,35.06,108.38Z"/><path class="cls-66" d="M1039,981.69c21.91-88.47-.82-195.68,4.08-289.74s2.89-199.47,0-293.82,14.52-199.92-4.08-289.75c8.73,96-2,197.56,0,293.83s3.67,193.88,0,289.74S1050.71,886.77,1039,981.69Z"/><path class="cls-67" d="M230.94,565.44c14.9,18.45,60.48,34.65,89.78,28.57,2.16-5.22-4-7.59-4.08-12.24a7.65,7.65,0,0,0-4.08,0c-26.93-13.18-26.85-44.16-4.08-57.14,16-9.1,37.5-10.36,53-20.4-38.52-3.63-50.73-41.5-70.44-72.39s-75,17.18-95.86-22.49S171.08,342,206.46,312.43c14.36-15.51,18.77-40.08,45.78-29.47s20.78,21.23,56.24,25.39,26.57-21.75,28.56-49c-22.36,14.32-39.29-11-57.13-20.41,20.73-34.52,16.69-82.35-23.54-98.88s-69.62-15.3-104,16.25-12.78,71.49,8.12,100S109,299.49,108.23,336.63s-6.61,84.15,27.83,111.49,65.66,34.24,107.12,27.54c-17.34,27.55-27.3,59.67-12.24,89.78m-12.24-404c5.22,12,7.39,29.09,24.48,28.56-12.85,7.1-20.52,21.84-28.56,32.65,1.79-16.08-12.37-30.4-28.57-28.57,14.73-7.3,28.16-15.87,32.65-32.64m-53,191.8c6.24,6.24-7.92,18.81-15,10.89s9.88-16,15-10.89m0,57.13C134.55,416.37,161.85,382.33,165.65,410.37Z"/><path class="cls-68" d="M524.77,165.52c37-19.75-13.15-56.65-20.41-16.33C512.65,152.17,516.44,162.21,524.77,165.52Z"/><path class="cls-69" d="M337,259.38c-2,27.22,6.94,53.09-28.56,49S279.26,293.58,252.24,283s-31.42,14-45.78,29.47C232,296.68,273.75,323.9,281,352.18s24.24,11.18,39.75,9.22c17.18-2.16,24.81,5.22,40.81-8.16,25.63-21.47,47.42-45,77.21-3.76s44.93-3.38,48.4-33.87,42-54.76,74.35-48.07,44.53-20.41,70.4-43.87,64.72-9.39,93.86,10.2,15.87,61.3,11.34,86.84,34.81,66.48,62,53.83,65.83,2.24,80.4,32.08,7.26,66.43-19.06,86.39-42.81,40.93-73.17,49.25S731.5,582.46,737,614.41s16.77,51.46-15.3,82.64-64.81-2.24-99,3.06c-24.53,3.84-34.94,38.4-49,53-8.21-11.1-1.68-35.79-20.41-36.72,42.89,51.62-23.71,119.44-77.54,93.86-7.18-2.45-13.05-6-20.4-8.17-31.38-4.69-51.5,16.74-65.29,40.81.69,1.76-.74,6.45,0,8.16,6.93,16.37-24.61,31.22-40.81,28.57-10.69-11-11-20.12-28.57-20.4,11.31,19.38-7,38.07,4.08,57.13,35.06,30,103.45,1.43,97.94-49,33.83-26.28,50.52,11.79,85.7,20.4s73.78-11.22,96.92-33.66S619,774.1,651.23,773.61s77.29,24.44,105.21-1,56.72-30,54-72.52-10.78-57.25,15.3-90.8,52.6-23.46,81.62-44.89,37.87-44,58.48-72.11,9.67-73.57,3.47-106.14S933.38,336,911.18,313.69,821,324.22,811.77,294.76s20.49-79.95-8.48-105.78S767,143.64,729.71,136.05,653.23,135,623,153.6s-39.13,42.07-57.46,69.05c-28.81-12.73-57.25,4-81.61,16.32C464,160.91,342.35,187.39,337,259.38m318.31-57.13c-10.08.36-18.52-10.53-16.32-20.41,10.08-.37,18.53,10.53,16.32,20.41m89.78-16.33c-3.3,26.49-29.42-2.45,0,0m24.49,57.13c-25.1-17,15.46-27.09,0,0M422.74,255.3c10.94,3.95,7.51,27.66-9.1,21.26s-6.65-26.94,9.1-21.26m359.12,61.21c-1.1,24.81-24.93-2.57,0,0M916.53,390c-27.55,2.24,3.55-31,0,0M941,451.18c-4.2,30.89-30.85-.65,0,0m-40.8,61.21c2.73,29.3-26.61,3.55,0,0M839,532.8c7.59,41.87-42.32.53,0,0M761.46,704.19c.2,11.55-8.41,19.51-20.41,16.33,3.63-8.74,8.41-19.47,20.41-16.33m-89.78,44.89c-33.67,1.19.94-33.79,0,0m-93.86,65.3c4.93,4.93-4.33,17.42-10.94,10.85S573.25,809.81,577.82,814.38Z"/><path class="cls-70" d="M357.45,141c-2.78-2.77-15.3,1.19-10.94,6.78S361.53,145.11,357.45,141Z"/><path class="cls-71" d="M218.7,161.44c-4.49,16.77-17.92,25.34-32.65,32.64,16.2-1.83,30.36,12.49,28.57,28.57,8-10.81,15.71-25.55,28.56-32.65C226.09,190.53,223.92,173.47,218.7,161.44Z"/><path class="cls-72" d="M912.45,169.6c-12.33,9.22-15.55,29.5-32.65,32.65,11.92,4.89,24.2,15.87,28.57,28.56,6.93-11.71,16.12-22.16,28.56-28.56C925.18,196.94,910.16,186.21,912.45,169.6Z"/><path class="cls-73" d="M655.35,202.25c2.21-9.88-6.24-20.78-16.32-20.41C636.83,191.72,645.27,202.61,655.35,202.25Z"/><path class="cls-74" d="M361.53,353.24c6.08-.7,16.77,8.69,24.49,4.08,1.26,11.14,11.58,18.73,16.32,28.56,8.49.58,21.06,8,28.57,12.25,25.75,14.53,64.23,54.93,92.83,27.54s8.74-66.68,42.85-87.74,83.34-18.24,102,10.21-.41,94,50.72,85.33,53.34,43.79,28.85,69.74-78.47,22.36-72.43,70.39c1.18,9.55,10.89,27.18,20.4,32.65-.73,46.56-56.52,58.73-89.78,36.73,18.86,9-.61,45.18,16.33,57.13,34.15-5.3,66.84,28.12,99-3.06s20.77-50.68,15.3-82.64,20-63.78,50.28-72.15,46.81-29.34,73.17-49.25,33.62-56.6,19.06-86.39-53.22-44.73-80.4-32.08-66.56-28.32-62-53.83,17.8-67.21-11.34-86.84-68-33.67-93.86-10.2-38,50.56-70.4,43.87-70.88,17.59-74.35,48.07-18.65,75.13-48.4,33.87-51.58-17.71-77.21,3.76M692.08,275.7c9.51,5-3.26,27.26-15,19s1.43-26.24,15-19M528.85,312.43c-2.09,25.63-28.61-3.47,0,0m220.36,81.62c-19.14,9.14-23.3-17.14,0,0M839,422.61c11.88,6.37-.73,26.24-13.14,17.22s3.92-22.16,13.14-17.22m-57.13,32.65c5.26,29.95-26,5.79,0,0M704.32,679.71C707.06,709,677.72,683.22,704.32,679.71Z"/><path class="cls-75" d="M422.74,255.3c-15.75-5.68-25.71,14.89-9.1,21.26S433.68,259.25,422.74,255.3Z"/><path class="cls-76" d="M692.08,275.7c-13.59-7.22-26.77,10.77-15,19S701.59,280.72,692.08,275.7Z"/><path class="cls-77" d="M206.46,312.43c-35.38,29.54-32.12,57.25-11.23,96.92s76.19-8.41,95.86,22.49S323,500.6,361.53,504.23c-15.55,10-37,11.3-53,20.4-2.61,7.31,7.39,10.17,8.16,16.33,16.32-2.94,30.28-33.3,47.67-27.18s12.77,41.3,29.87,47.58c7.63,1.63,10.73-1.67,16.32,4.08h4.08c2,0,6.16-.32,8.16,0,17.84-13.79,24-39.34,20.41-61.21-4.33-26.69-23.06-43.87-49-49-29.92-5.88-34.45-14.2-44.89-40.81-7.18-18.28-29.14-37.26-28.57-53.05-15.51,2-32.56,19.1-39.75-9.22s-48.93-55.5-74.51-39.75m36.72,44.89c16.45,5.14,3.72,27-12.24,20.4S230.82,353.44,243.18,357.32Z"/><path class="cls-78" d="M430.91,398.13c-1.23,5.1-7.47,7-8.17,12.24,17.75,2.57,33.34,14.24,36.73,32.65,14.94,27.71,51,36,65.3,65.29.81,1.63,0,4.08,0,4.08,3.22,3.39,6.48,3.06,8.16,8.16,28.24,10,39.25-36.81,38.07-55.78s8.94-52.93,36.32-57.54,18.53,44.28,42.73,49.25,40.81,33.59,14.49,48.77-64.2-1.31-58.16,39.79c-7.67,1.92-20.12-4.33-24.48,4.08,9.26-1.55,19.22,1.14,28.56,0V573.6c13.63,10.13,25.59,28.78,44.89,28.57,7.55-8.9,7-27.34,20.41-28.57-6-48,48-44.4,72.43-70.39s22.24-78.39-28.85-69.74-32-56.85-50.72-85.33-67.91-31.26-102-10.21-14.28,60.32-42.85,87.74S456.66,412.66,430.91,398.13Z"/><path class="cls-79" d="M165.65,353.24c-5.1-5.1-22.08,2.94-15,10.89S171.89,359.48,165.65,353.24Z"/><path class="cls-80" d="M320.72,361.4c-.57,15.79,21.39,34.77,28.57,53.05,3.3-14.4,39.54-29.5,53-28.57-4.74-9.83-15.06-17.42-16.32-28.56-7.72,4.61-18.41-4.78-24.49-4.08C345.53,366.62,337.9,359.24,320.72,361.4Z"/><path class="cls-81" d="M243.18,357.32c-12.36-3.88-28.19,13.75-12.24,20.4S259.63,362.46,243.18,357.32Z"/><path class="cls-82" d="M349.29,414.45c10.44,26.61,15,34.93,44.89,40.81-8.65-39,48.27-27.55,65.29-12.24-3.39-18.41-19-30.08-36.73-32.65.7-5.26,6.94-7.14,8.17-12.24-7.51-4.25-20.08-11.67-28.57-12.25C388.83,385,352.59,400.05,349.29,414.45Z"/><path class="cls-83" d="M532.93,520.55c3.3,10.08-2.49,21.43-4.08,28.57,0,2.94,1.18,9.59,0,12.24.57,1.27,14.2,8.74,16.32,12.24,11.63-10.85,22.2-19.26,36.73-24.48,4.36-8.41,16.81-2.16,24.48-4.08-6-41.1,31.83-24.65,58.16-39.79s9.67-43.75-14.49-48.77-15.35-53.86-42.73-49.25-37.5,38.56-36.32,57.54-9.83,65.78-38.07,55.78m85.7-40.81C615.32,506.23,589.24,477.3,618.63,479.74Z"/><path class="cls-84" d="M839,422.61c-9.22-4.94-25.54,8.21-13.14,17.22S850.87,429,839,422.61Z"/><path class="cls-85" d="M394.18,455.26c25.91,5.1,44.64,22.28,49,49,4.49-12.12,26.56-18.32,36.73-8.16,5.5-26.45,33.42,4.2,44.89,12.24-14.25-29.26-50.36-37.58-65.3-65.29C442.45,427.71,385.53,416.25,394.18,455.26Z"/><path class="cls-86" d="M479.88,496.07c-1.27,6.08,7.1,23.67,8.16,28.56.28-6.77-.21-13.63,0-20.4,14.4-4.73,26.12-3.84,36.73,8.16,0,0,.81-2.45,0-4.08C513.3,500.27,485.38,469.62,479.88,496.07Z"/><path class="cls-87" d="M443.15,504.23c3.55,21.87-2.57,47.42-20.41,61.21,18.08,2.9,39.06,36.16,61.22,16.33,1.51-2.94,2.81-5.15,4.08-8.17,6.65-15.75,3.55-32.89,0-49-1.06-4.89-9.43-22.48-8.16-28.56C469.71,485.91,447.64,492.11,443.15,504.23Z"/><path class="cls-88" d="M488,524.63c3.55,16.08,6.65,33.22,0,49,5.55,1.07,5.42,20.25,16.32,8.17,2.57,16-16.32,23.67-24.48,32.64,3.79-5.79,24.36-11.91,28.56-20.4.29-7.18,1.63-7.31,4.08-12.24,3.55-7.1,13.88-14.86,16.33-20.41,1.18-2.65,0-9.3,0-12.24,0-12.32,2.32-26-4.08-36.73-10.61-12-22.33-12.89-36.73-8.16C487.83,511,488.32,517.86,488,524.63Z"/><path class="cls-89" d="M308.48,524.63c-22.77,13-22.85,44,4.08,57.14-17.34-20.2,33.22-69.38,55.79-55.79s-3.15,29.14,25.83,35.38c-17.1-6.28-12.53-41.5-29.87-47.58S333,538,316.64,541C315.87,534.8,305.87,531.94,308.48,524.63Z"/><path class="cls-90" d="M528.85,549.12c1.59-7.14,7.38-18.49,4.08-28.57-1.68-5.1-4.94-4.77-8.16-8.16C531.17,523.08,528.85,536.8,528.85,549.12Z"/><path class="cls-91" d="M312.56,581.77a7.65,7.65,0,0,1,4.08,0c15.26,5.47,4.61,61.45-17.34,72.43s-47.91,12.86-71.42,34.69-6.16,56.76,2.12,81.54-35.3,51.7-6.2,79.65,49.83,13.35,80.6,5.11c10-15.14-4.53-49.83,8.16-57.14-56.72,8.57-41.91-56.68-20.4-81.61,18-20.9,26.85-16.74,53-20.41,10-28.28,38.85-43.95,17.26-78.47s19.87-52.12,48-52.12c-5.59-5.75-8.69-2.45-16.32-4.08-29-6.24-3.27-21.79-25.83-35.38S295.22,561.57,312.56,581.77Z"/><path class="cls-92" d="M165.65,553.2c-15-2.24-20.53-21.34-32.65-24.48,4.73,19-18.53,17.14-24.48,28.56,14.73,0,23.67,13.71,28.56,24.49C144,570.05,153.2,559.61,165.65,553.2Z"/><path class="cls-93" d="M545.17,573.6c-6,5.6-8.69,8-15.1,13.47s-16-6-17.55-5.3c-2.45,4.93-3.79,5.06-4.08,12.24-.24,5.43.17,10.9,0,16.32,9.84-4.53,14.73-16.16,24.49-20.4,7.14-5.84,15.63-.21,20.4,0,20.08.81,37.75,1.3,53-12.24,1.06-.94,3.76-3.06,4.08-4.09V549.12c-9.34,1.14-19.3-1.55-28.56,0C567.37,554.34,556.8,562.75,545.17,573.6Z"/><path class="cls-94" d="M230.94,565.44c12.2,24.41,29.14,57.63-12.24,57.14s-41,18.56-68.36,37.74-20.28,57.34-18.56,81.87,53.78,39.83,30.81,61-36.28,41.79-33.67,72.44,15.59,50,42.07,64,61.3,14.4,87.58.33,35-36.57,66.23-23.55c-11.1-19.06,7.23-37.75-4.08-57.13,17.59.28,17.88,9.42,28.57,20.4,16.2,2.65,47.74-12.2,40.81-28.57-1.84,11.39-13.59,19.8-24.49,20.41,14.32-15,11.92-44.56-9.06-33.55s-30.12,27.55-52.15,17.23c-30.77,8.24-51.46,22.81-80.6-5.11s14.49-54.88,6.2-79.65-25.67-59.75-2.12-81.54,49.5-23.71,71.42-34.69,32.6-67,17.34-72.43c.12,4.65,6.24,7,4.08,12.24-29.3,6.08-74.88-10.12-89.78-28.57m-44.89,151c-25.05-17,15.47-27.1,0,0M198.3,896c-21.27,26.08-33.75-6.12-20.41-24.48C186.58,874.9,193.15,887.87,198.3,896Z"/><path class="cls-95" d="M512.52,581.77c1.51-.66,11.14,10.77,17.55,5.3s9.1-7.87,15.1-13.47c-2.12-3.5-15.75-11-16.32-12.24C526.4,566.91,516.07,574.67,512.52,581.77Z"/><path class="cls-96" d="M345.21,696c53.33-7.43,37.13-54.56,57.13-89.78,16.73,13,38.44,7.59,57.13,4.08-.9-1.47,0-4.08,0-4.08-16.4-11.47-29-30.6-44.89-40.81H410.5c-28.16,0-69.62,17.59-48,52.12S355.2,667.75,345.21,696Z"/><path class="cls-97" d="M459.47,606.25c13.18-4.32,18.24-12.36,24.49-24.48-22.16,19.83-43.14-13.43-61.22-16.33-2-.32-6.12,0-8.16,0C430.5,575.65,443.07,594.78,459.47,606.25Z"/><path class="cls-98" d="M484,581.77c-6.25,12.12-11.31,20.16-24.49,24.48,0,0-.9,2.61,0,4.08,3.06,4.9-8,18.86-8.16,28.57,7.06-11.06,18.12-16.65,28.57-24.49,8.16-9,27.05-16.69,24.48-32.64-10.9,12.08-10.77-7.1-16.32-8.17C486.77,576.62,485.47,578.83,484,581.77Z"/><path class="cls-99" d="M606.38,577.69c-1,15.3,22.08,21.18,32.65,24.48-11.63,9.35-20.81,19.22-16.32,36.73-5.23,1.14-14.29-3.1-16.33,4.08,33.26,22,89,9.83,89.78-36.73-9.51-5.47-19.22-23.1-20.4-32.65-13.39,1.23-12.86,19.67-20.41,28.57-19.3.21-31.26-18.44-44.89-28.57C610.14,574.63,607.44,576.75,606.38,577.69Z"/><path class="cls-100" d="M553.33,589.93c-4.81,2.2-8.28,13-12.24,16.32-16.49,28.69,4,50.44-8.16,77.54C552,657.3,579.49,651.84,606.38,643c2-7.18,11.1-2.94,16.33-4.08-4.49-17.51,4.69-27.38,16.32-36.73-10.57-3.3-33.67-9.18-32.65-24.48C591.08,591.23,573.41,590.74,553.33,589.93Z"/><path class="cls-101" d="M969.58,577.69c-7.34-4-20.93,10.57-9.1,17.18S979.21,583,969.58,577.69Z"/><path class="cls-102" d="M532.93,589.93c-2.13,1.75-2.45,6.41-4.08,8.16-.49-2.33,7.3,5.59,8.16,8.16,1.39-1,4.08,0,4.08,0,4-3.3,7.43-14.12,12.24-16.32C548.56,589.72,540.07,584.09,532.93,589.93Z"/><path class="cls-103" d="M508.44,594c-4.2,8.49-24.77,14.61-28.56,20.4-6.78,10.29,2.24,16.94,0,24.49,17.58-10.77,32-22.65,49-40.81,1.63-1.75,1.95-6.41,4.08-8.16-9.76,4.24-14.65,15.87-24.49,20.4C508.61,604.91,508.2,599.44,508.44,594Z"/><path class="cls-104" d="M479.88,638.9c-10.12,6.2-12.86,24-28.57,20.4V643c-21.26,26.89,20.08,21.87,32.65,12.24-5,8.69-7.68,25.71,0,32.65-4.7-34.93,14.77-44.2,44.89-49-1.19-12.2-.45-23.79,8.16-32.65-.86-2.57-8.65-10.49-8.16-8.16C511.91,616.25,497.46,628.13,479.88,638.9Z"/><path class="cls-105" d="M345.21,696c-26.2,3.67-35-.49-53,20.41-23.27,33.58-10.29,99.32,36.72,57.13,8-21.1,25.43-32,49-28.57s35.83-23.3,57.14-16.32c4.81,1,12.16,5.47,16.32,8.16,14.45,4,21.55-10.45,36.73-12.24V704.19c-1.47-5.47-2.49-10.73-4.08-16.32-7.68-6.94-5-24,0-32.65-12.57,9.63-53.91,14.65-32.65-12.24a20.05,20.05,0,0,0,0-4.08c.2-9.71,11.22-23.67,8.16-28.57-18.69,3.51-40.4,8.9-57.13-4.08-20,35.22-3.8,82.35-57.13,89.78m93.86-36.73c12.57,3.55,1.67,29.34-12.37,24.37S422.38,654.61,439.07,659.3Z"/><path class="cls-106" d="M484,687.87c1.59,5.59,2.61,10.85,4.08,16.32,3.18,12,.94,41.91-16.33,44.89,9.47,2.66,13.55,4.9,24.49,0,23-18.77,25.3-39.66,36.73-65.29,12.12-27.1-8.33-48.85,8.16-77.54,0,0-2.69-1-4.08,0-8.61,8.86-9.35,20.45-8.16,32.65C498.73,643.67,479.26,652.94,484,687.87Z"/><path class="cls-107" d="M451.31,638.9a20.05,20.05,0,0,1,0,4.08V659.3c15.71,3.59,18.45-14.2,28.57-20.4,2.24-7.55-6.78-14.2,0-24.49C469.43,622.25,458.37,627.84,451.31,638.9Z"/><path class="cls-108" d="M108.52,643C104,638.41,91,647.26,97.58,653.83S113.45,647.92,108.52,643Z"/><path class="cls-109" d="M532.93,683.79c-11.43,25.63-13.71,46.52-36.73,65.29-9.75,8-14.24,13.76-28.57,8.16-.16,16.33-13.83,52.57,20.41,49-1.06,5.68-8.37,3.19-12.25,4.09,53.83,25.58,120.43-42.24,77.54-93.86,18.73.93,12.2,25.62,20.41,36.72,14-14.65,24.44-49.21,49-53-16.94-12,2.53-48.15-16.33-57.13C579.49,651.84,552,657.3,532.93,683.79Z"/><path class="cls-110" d="M928.77,675.63c-17.22-2.13-21.18-24.08-32.64-28.57,5.54,18.73-14.49,24.16-24.49,32.65,14.65,1.22,22.61,18.65,28.57,28.56C908.29,697.46,915.92,682.73,928.77,675.63Z"/><path class="cls-111" d="M439.07,659.3c-16.69-4.69-26.41,19.43-12.37,24.37S451.64,662.85,439.07,659.3Z"/><path class="cls-112" d="M451.31,736.84c7.83,5.06,10.24,9.39,20.4,12.24,17.27-3,19.51-32.89,16.33-44.89V724.6C472.86,726.39,465.76,740.84,451.31,736.84Z"/><path class="cls-113" d="M761.46,704.19c-12-3.14-16.78,7.59-20.41,16.33C753.05,723.7,761.66,715.74,761.46,704.19Z"/><path class="cls-114" d="M312.56,798.05c5.06-.77,7.51-2.32,12.24-4.08.9-6.36,1.43-13.42,4.08-20.4-47,42.19-60-23.55-36.72-57.13C270.65,741.37,255.84,806.62,312.56,798.05Z"/><path class="cls-115" d="M328.88,773.57c-2.65,7-3.18,14-4.08,20.4a7.75,7.75,0,0,1,4.08,0c17.22-13.83,38.36-13.91,61.22-12.24,9.59-18.36,19.18-39.83,36.72-53.05,1.84-.61,6.21-.41,8.17,0-21.31-7-33.59,19.71-57.14,16.32S336.88,752.47,328.88,773.57Z"/><path class="cls-116" d="M328.88,794c11.72-2.77,20-7,32.65-8.16,11.22-1,25.59-1.55,36.73,0,3.55-.86,10.16-7.43,16.32-4.08-1.1-19.06-.28-38.44,12.24-53.05-17.54,13.22-27.13,34.69-36.72,53.05C367.24,780.06,346.1,780.14,328.88,794Z"/><path class="cls-117" d="M398.26,785.81c17.75,2.49,41.21,11.59,57.13,16.32,7.35,2.21,13.22,5.72,20.4,8.17,3.88-.9,11.19,1.59,12.25-4.09-34.24,3.6-20.57-32.64-20.41-49,14.33,5.6,18.82-.2,28.57-8.16-10.94,4.9-15,2.66-24.49,0-10.16-2.85-12.57-7.18-20.4-12.24-4.16-2.69-11.51-7.14-16.32-8.16-2-.41-6.33-.61-8.17,0-12.52,14.61-13.34,34-12.24,53.05C408.42,778.38,401.81,785,398.26,785.81Z"/><path class="cls-118" d="M761.46,916.4c38.72,9.06,86.67,59.38,130.26,28.24s59.46-68.15,49-117.69-68.32-68.93-107-54.61-45.22,98.72-93.86,75.95-84.23,19.42-75.42,71.29,95.7,49,97.05-3.18M892,859.27c-16.4,5.42-43.66,15.87-36.72,40.81-12.21-8-19.35-42.53-44.89-36.73,14.48-7.67,40.93-18.12,36.72-40.81C857.68,837,865.56,864.69,892,859.27m-187.72,49C698.57,873.51,739.13,910.07,704.32,908.24Z"/><path class="cls-119" d="M328.88,794a7.75,7.75,0,0,0-4.08,0c-4.73,1.76-7.18,3.31-12.24,4.08-12.69,7.31,1.79,42-8.16,57.14,22,10.32,31.18-6.21,52.15-17.23s23.38,18.57,9.06,33.55c10.9-.61,22.65-9,24.49-20.41-.74-1.71.69-6.4,0-8.16-6.78-16.69,1.63-32.48-8.17-49-6.36,6-17.67-.85-20.4-8.16C348.84,787,340.6,791.2,328.88,794Z"/><path class="cls-120" d="M390.1,842.94c13.79-24.07,33.91-45.5,65.29-40.81-15.92-4.73-39.38-13.83-57.13-16.32-11.14-1.55-25.51-1-36.73,0,2.73,7.31,14,14.16,20.4,8.16C391.73,810.46,383.32,826.25,390.1,842.94Z"/><path class="cls-121" d="M577.82,814.38c-4.57-4.57-17.55,4.28-10.94,10.85S582.75,819.31,577.82,814.38Z"/><path class="cls-122" d="M892,859.27c-26.48,5.42-34.36-22.24-44.89-36.73,4.21,22.69-22.24,33.14-36.72,40.81,25.54-5.8,32.68,28.73,44.89,36.73C848.38,875.14,875.64,864.69,892,859.27Z"/><path class="cls-123" d="M198.3,896c-5.15-8.12-11.72-21.09-20.41-24.48C164.55,889.87,177,922.07,198.3,896Z"/><path class="cls-124" d="M447.23,945c2-15.83-27.59-14-31.18,1.23S440.09,952.8,447.23,945Z"/><path class="cls-125" d="M573.74,932.72c-14.37-2.94-27.55,22.65-8.21,28.53S591,936.23,573.74,932.72Z"/></svg>