<svg id="Layer_1" data-name="Layer 1" xmlns="http://www.w3.org/2000/svg" viewBox="0 0 1080 1080"><defs><style>.cls-1{fill:#0c1523;}.cls-10,.cls-11,.cls-12,.cls-13,.cls-14,.cls-15,.cls-16,.cls-17,.cls-18,.cls-19,.cls-2,.cls-20,.cls-21,.cls-22,.cls-23,.cls-24,.cls-25,.cls-26,.cls-27,.cls-28,.cls-29,.cls-3,.cls-30,.cls-31,.cls-32,.cls-33,.cls-34,.cls-35,.cls-36,.cls-37,.cls-38,.cls-39,.cls-4,.cls-40,.cls-41,.cls-42,.cls-43,.cls-44,.cls-45,.cls-46,.cls-47,.cls-48,.cls-49,.cls-5,.cls-50,.cls-51,.cls-52,.cls-53,.cls-54,.cls-55,.cls-56,.cls-57,.cls-58,.cls-59,.cls-6,.cls-60,.cls-61,.cls-62,.cls-63,.cls-64,.cls-65,.cls-66,.cls-67,.cls-68,.cls-69,.cls-7,.cls-70,.cls-71,.cls-72,.cls-73,.cls-74,.cls-75,.cls-8,.cls-9{fill:none;stroke-width:1.22px;}.cls-2{stroke:#0c1623;}.cls-3{stroke:#e5e5e5;}.cls-4{stroke:#c8aad1;}.cls-5{stroke:#d196bb;}.cls-6{stroke:#ebebec;}.cls-7{stroke:#807ab9;}.cls-8{stroke:#0d0f11;}.cls-9{stroke:#df5b44;}.cls-10{stroke:#ecddd6;}.cls-11{stroke:#b59995;}.cls-12{stroke:#b4796e;}.cls-13{stroke:#e8e6e5;}.cls-14{stroke:#dec2b8;}.cls-15{stroke:#1666b1;}.cls-16{stroke:#e6e5e5;}.cls-17{stroke:#b8bac3;}.cls-18{stroke:#b2b6be;}.cls-19{stroke:#b9bbc0;}.cls-20{stroke:#e3eaf4;}.cls-21{stroke:#1e4383;}.cls-22{stroke:#252831;}.cls-23{stroke:#a1a2a7;}.cls-24{stroke:#e5e5e3;}.cls-25{stroke:#dd4f39;}.cls-26{stroke:#efd9d3;}.cls-27{stroke:#9c2a20;}.cls-28{stroke:#2a384a;}.cls-29{stroke:#565b68;}.cls-30{stroke:#9ea3ae;}.cls-31{stroke:#9d8ac1;}.cls-32{stroke:#e8e7e7;}.cls-33{stroke:#888a8a;}.cls-34{stroke:#a1a5ad;}.cls-35{stroke:#6b6d77;}.cls-36{stroke:#464547;}.cls-37{stroke:#86878d;}.cls-38{stroke:#9b9a9e;}.cls-39{stroke:#6b5757;}.cls-40{stroke:#8f8d93;}.cls-41{stroke:#e7e7e6;}.cls-42{stroke:#95999f;}.cls-43{stroke:#733c2d;}.cls-44{stroke:#858990;}.cls-45{stroke:#ed9f21;}.cls-46{stroke:#f8e59c;}.cls-47{stroke:#2d2e35;}.cls-48{stroke:#abaeb5;}.cls-49{stroke:#422c17;}.cls-50{stroke:#ca7833;}.cls-51{stroke:#8f573d;}.cls-52{stroke:#9d9fa4;}.cls-53{stroke:#a48e7b;}.cls-54{stroke:#d98451;}.cls-55{stroke:#5c6064;}.cls-56{stroke:#7a6b6d;}.cls-57{stroke:#b5b9c1;}.cls-58{stroke:#373b46;}.cls-59{stroke:#9398a2;}.cls-60{stroke:#ee9a21;}.cls-61{stroke:#fae083;}.cls-62{stroke:#715120;}.cls-63{stroke:#384580;}.cls-64{stroke:#404244;}.cls-65{stroke:#4e2726;}.cls-66{stroke:#eabfb3;}.cls-67{stroke:#dd4733;}.cls-68{stroke:#fdf4ef;}.cls-69{stroke:#b22d25;}.cls-70{stroke:#e4e4e4;}.cls-71{stroke:#3d4857;}.cls-72{stroke:#706d73;}.cls-73{stroke:#91b0dc;}.cls-74{stroke:#bc9cc8;}.cls-75{stroke:#787e84;}.cls-76{fill:#0c1623;}.cls-77{fill:#e5e5e5;}.cls-78{fill:#c8aad1;}.cls-79{fill:#d196bb;}.cls-80{fill:#ebebec;}.cls-81{fill:#807ab9;}.cls-82{fill:#0d0f11;}.cls-83{fill:#df5b44;}.cls-84{fill:#ecddd6;}.cls-85{fill:#b59995;}.cls-86{fill:#b4796e;}.cls-87{fill:#e8e6e5;}.cls-88{fill:#dec2b8;}.cls-89{fill:#1666b1;}.cls-90{fill:#e6e5e5;}.cls-91{fill:#b8bac3;}.cls-92{fill:#b2b6be;}.cls-93{fill:#b9bbc0;}.cls-94{fill:#e3eaf4;}.cls-95{fill:#1e4383;}.cls-96{fill:#252831;}.cls-97{fill:#a1a2a7;}.cls-98{fill:#e5e5e3;}.cls-99{fill:#dd4f39;}.cls-100{fill:#efd9d3;}.cls-101{fill:#9c2a20;}.cls-102{fill:#2a384a;}.cls-103{fill:#565b68;}.cls-104{fill:#9ea3ae;}.cls-105{fill:#9d8ac1;}.cls-106{fill:#e8e7e7;}.cls-107{fill:#888a8a;}.cls-108{fill:#a1a5ad;}.cls-109{fill:#6b6d77;}.cls-110{fill:#464547;}.cls-111{fill:#86878d;}.cls-112{fill:#9b9a9e;}.cls-113{fill:#6b5757;}.cls-114{fill:#8f8d93;}.cls-115{fill:#e7e7e6;}.cls-116{fill:#95999f;}.cls-117{fill:#733c2d;}.cls-118{fill:#858990;}.cls-119{fill:#ed9f21;}.cls-120{fill:#f8e59c;}.cls-121{fill:#2d2e35;}.cls-122{fill:#abaeb5;}.cls-123{fill:#422c17;}.cls-124{fill:#ca7833;}.cls-125{fill:#8f573d;}.cls-126{fill:#9d9fa4;}.cls-127{fill:#a48e7b;}.cls-128{fill:#d98451;}.cls-129{fill:#5c6064;}.cls-130{fill:#7a6b6d;}.cls-131{fill:#b5b9c1;}.cls-132{fill:#373b46;}.cls-133{fill:#9398a2;}.cls-134{fill:#ee9a21;}.cls-135{fill:#fae083;}.cls-136{fill:#715120;}.cls-137{fill:#384580;}.cls-138{fill:#404244;}.cls-139{fill:#4e2726;}.cls-140{fill:#eabfb3;}.cls-141{fill:#dd4733;}.cls-142{fill:#fdf4ef;}.cls-143{fill:#b22d25;}.cls-144{fill:#e4e4e4;}.cls-145{fill:#3d4857;}.cls-146{fill:#706d73;}.cls-147{fill:#91b0dc;}.cls-148{fill:#bc9cc8;}.cls-149{fill:#787e84;}</style></defs><title>avatar-spaceship</title><rect class="cls-1" width="1080" height="1080"/><path class="cls-2" d="M97.27,1041.69c96.26,10.77,196.86-3.06,293.82,0s196.82,2.57,293.82,0,197.39,9.91,293.82,0c37.22-8.25,57.54-28,65.3-65.3,12.85-141.28-9.35-290,4.08-428.49,0-83.33,2.69-210.86,0-289.74s29.83-207.6-66.64-223.1-190.9,3.83-288.4-1.35-190.94.29-289.74,0-188.13-4.45-289.7,0S29.81,159.2,32,241.83,29.52,445,32,531.58,27.6,737.46,32,821.32-.39,1019,97.27,1041.69m681.5-930.44c-.2,22.12,18.53,41.05,40.81,40.81-22.65,10-36.4,32.11-49,49,.69-20-15-42-36.73-40.81,15.88-12.57,34.36-28.45,44.89-49m175.48,16.32c11.1,6.41,1.35,33.59-13.18,25.34s0-32.93,13.18-25.34M513.51,139.81c23.22,8.7,9.39,53.63-17.22,41.71s-14.85-53.7,17.22-41.71M223.77,148c-3.79,39.1,30.61,57.75,61.22,65.3-35.1,7.18-58.81,35.46-65.3,69.37-6.41-34.32-30.28-62.35-65.29-69.37,40.6-2.33,52.44-39.54,69.37-65.3m412.17,73.46c8.45,4.94.69,30.48-13.18,21.26s-1.39-29.79,13.18-21.26M415.57,245.92c-17.34,24.73-24.48-17.84,0,0m-102,599.88c-27.71,5.15-52.8,18.82-81.62,20.41,16.74-32.77,34.16-64.85,57.14-93.86,12.24-15.51,28.28-34.28,44.89-44.89,4.08-2.61,8.81-6.16,12.24-8.16,7.67-9.71,7.79-24.77,8.16-36.73-21-.16-44.81-3.67-57.13,4.08C255.6,711,215.65,736.93,166.64,743.78c-.57-9.18,8.81-15.14,8.16-24.48,14.37-36.2,43.34-73.7,77.54-93.86-2.16-27.63,24.61-81.74-15-87s-63,23.71-98,0S107,476.4,135,455.06s51.79-33.26,80.93-49.66,55.46-30.53,85.7-44.89,66-33.14,100.43-19.47,22.77,66.76-6.9,80.35c33.3,12.29,68.27,17.14,96.72-1.22s58.11-24.32,83.16-47.42,58.44-34.08,89.74-40.85,64.93-24.65,93.86-36.73,66.44-29.83,93.62-37,89.66-29.75,101.65,4.37S927,325.66,916.3,354.88s-33.43,51.29-52.85,77.74-30.73,52.11-57.13,77.53S767.47,561.2,766.53,601s-4,87.95,31.63,56.11,73.17-18.6,91.82,8.17-19.1,68.43-34.69,89.78-43.5,46-63.26,67.33-47,42.6-69.37,61.21-51.34,48.89-82.72,47.87-60.36-27.91-73.25-57.17,26.24-66.07,36.6-89.66c-30.6-1.1-56.23-57.54-84.67-23.46s-64.07,28.93-103,23.46c-12.2,38.32-58.27,63.58-102,61.21M933.85,503c20.24,2.45,20.28,41.46-4.41,40.48s-17.71-43.13,4.41-40.48m28.56,224.45c3.31,3.3-1.26,15.38-7,10.73s3.31-14.4,7-10.73M937.93,890.69c3,1.84,9.06-1.46,12.24,0,1.3,6.9-5.35,13.43-12.24,12.25-17.55,11.34-34.49,21-36.73,44.89-7.59-22.33-20.49-48.65-49-49,20.24-11.68,44.85-22.2,49-49,7.63,15.18,13.87,40,36.73,40.8m-489.71,4.09c25.26,8.61,7,59.54-19.34,43.82s-10.16-53.86,19.34-43.82M154.4,911.1c14.65,4.9,3.59,30.77-12.29,24.44S139.38,906.08,154.4,911.1Z"/><path class="cls-3" d="M778.77,111.25c-10.53,20.52-29,36.4-44.89,49C755.63,159,771.3,181,770.61,201c12.57-16.86,26.32-39,49-49C797.3,152.3,778.57,133.37,778.77,111.25Z"/><path class="cls-4" d="M954.25,127.57c-13.18-7.59-27.71,17.14-13.18,25.34S965.35,134,954.25,127.57Z"/><path class="cls-5" d="M513.51,139.81c-32.07-12-43.82,29.79-17.22,41.71S536.73,148.51,513.51,139.81Z"/><path class="cls-6" d="M223.77,148c-16.93,25.76-28.77,63-69.37,65.3,35,7,58.88,35,65.29,69.37,6.49-33.91,30.2-62.19,65.3-69.37C254.38,205.72,220,187.07,223.77,148Z"/><path class="cls-7" d="M635.94,221.43c-14.57-8.53-27.06,12-13.18,21.26S644.39,226.37,635.94,221.43Z"/><path class="cls-8" d="M174.8,719.3c6.9-11.59,17.39-24.9,24.49-36.73,9.18-15.34,22.12-30.4,36.73-40.81,16.93-12.08,34-20.57,53-12.24,11,4.81,17.26,11.87,20.4,24.48,3.35,13.31-1.71,22.12-12.24,32.65,12.32-7.75,36.15-4.24,57.13-4.08-.37,12-.49,27-8.16,36.73,14.16-8.2,31.18-10.49,44.89-4.08,13.22,6.16,21.14,19.87,24.48,32.64,12,45.71-69.33,84.48-102,97.94,43.75,2.37,89.82-22.89,102-61.21,39,5.47,74.64,10.65,103.05-23.46s54.07,22.36,84.67,23.46c-10.36,23.59-49.54,60.4-36.6,89.66s41.83,56.11,73.25,57.17,60.27-29.26,82.72-47.87S772.28,843.6,792,822.34s47.67-46,63.26-67.33,53.34-63,34.69-89.78-56.2-40-91.82-8.17S765.59,640.7,766.53,601s13.38-65.37,39.79-90.8,37.7-51.09,57.13-77.53,42.11-48.57,52.85-77.74,49.62-58.2,37.62-92.31-74.51-11.51-101.65-4.37-64.68,24.93-93.62,37-62.52,30-93.86,36.73-64.64,17.75-89.74,40.85-54.76,29-83.16,47.42-63.42,13.51-96.72,1.22c29.67-13.59,41.38-66.72,6.9-80.35s-70.2,5.1-100.43,19.47S245.07,389,215.94,405.4,163,433.68,135,455.06s-30.68,59.79,4.33,83.41,58.36-5.3,98,0,12.86,59.38,15,87c-34.2,20.16-63.17,57.66-77.54,93.86M937.93,274.48c-.33,26-25.26,55.13-36.73,77.54-3.39,6.61-7.84,12.77-8.16,20.4-9.8,1-12.74-12.48-12.25-20.4-2.61-5.55-8.53-8.33-8.16-16.32C869.9,331.49,860,323,856.31,319.37c-5.76-5.75-14.45-15.75-20.41-20.4-7-5.47-20.93-5.14-20.4-16.33,30.12-7.26,58.52-21,89.78-24.48,10.53-1.8,21-6.41,32.65-4.08v20.4M860.39,352c22.69,39.83.24,70.39-27.63,103s-44,60.36-74.39,88.84c2.2-10.94-3.76-19.51-8.16-28.57-50.24,37.51-108.72,62.36-151,110.19,1.55.85,4.08,0,4.08,0,20.65-7.43,34.81-29.22,57.14-32.65,8.24,32.4,63.05,64.4,66.51,96.72s-73,45.78-86.92,74.68c-17.18-42.93-80.92-57.05-85.7-102-1-4.74-4-6.7-4.08-12.25v-4.08c-22.56-35.79-38.64-77.82-77.53-102,6.73-8.45,25.3-9.75,24.48-24.49-13,0-25.87,9.64-32.65,20.41-26.24-15.06-58.07-24-85.69-32.65,48.64-30.89,96.22-62.56,146.91-89.78C492.29,450,476.5,521.74,542.08,527.5c10.37,1.38,22.16.2,32.65,0,59.66-1.19,99.82-35.75,145.89-70.4s54.19-115.77-15.3-125.49c28.19-5.63,56.56-34.52,85.82-36.64s55.25,37.38,69.25,57M746.12,380.58c6,45.83-40.84,76.44-74.47,101S575,524.15,533.92,511.17c-68.52-21.67,20.93-108.63,52-131.61s150.79-70.23,160.17,1M407.41,364.26c15.59,30.81-22.24,59-49.87,60.32S293,448,268.66,462.2c-14,8.12-28.32,22.08-44.89,24.49-.45-23.75-25.42-36.24-40.81-49,34.69-17.67,71.42-41.3,107-56.2s85.9-52.23,117.4-17.26m44.89,73.46c-19.38,45.74-64.8,15.22-97.94,4.08,26-20.08,66.6-1.59,97.94-4.08M317.63,531.58c-4.89,3.59-10.89,8.49-16.32,12.24C295.68,547.7,290.9,553,285,556.06c-12.21-18.61-72.4-32.89-44.89-57.13,1.38-.57,3.14-2.9,4.08-4.08,19.22-24.57,48.6-26.57,73.78-44.56s57.13,18.32,85.37,20.07c-19.87,26.41-58.36,40-85.7,61.22M187,458.12c8.66,5,14.33,6.9,20.41,16.32,18.4,28.57,6.81,65.5-32.65,61.22,1.76-21.18-11.22-38.12-24.48-53-5.47-4-13.14-2.13-16.33-8.17,6.7-13.3,20.45-18.48,32.65-24.48,12.65-1.1,12.24,3.43,20.4,8.16m-24.48,77.54c-19.92-7.84-43.54-23.47-36.73-49,25.67-2.9,39.55,27,36.73,49m367.28,102c6,14.53,11.14,27.3,12.24,44.89,2,10.85,2.25,17.79,0,28.57-4.86,23.5-44.28,70.06-57.13,36.72,5.59,17.35-19.39,38.36-32.65,24.49,38.85-12.45,37.42-56.89,20.41-85.7-19.27-44.6-69.71-75.74-106.11-102-14.08-5-31.71-11.8-44.89-16.32-8.2-1-25.34,5-24.48-8.17,76.27-79.74,198.49-8.93,232.61,77.54m220.37-102c-2.62,50,5.3,102.8-4.09,151-30.76-29.71-51.17-68.48-77.53-102,27.54-15.92,51.09-39.63,81.62-49m-448.9,40.81c-9.55,9.71-21.59,19.67-32.65,28.56-3.22-17.18,16.16-38.64,32.65-28.56M342.12,605c6.69,9.35,9.67,17.88,12.24,28.57,5.31,22.12-2.86,39.13-28.57,40.81-5.91-10-3.75-22.16-8.16-32.65-2.57-7.18-6.49-14.77-12.24-20.4-1-1-3-3.68-4.08-4.08-5.35-2.13-9.88-5.76-16.32-4.09-.45-11.42,12-16.4,20.4-20.4,17-6.12,25.55-3.43,36.73,12.24m69.37,28.57c-10.93,10-26.65,18.49-40.81,24.48,3.47-22.48-9.46-40.4-12.24-61.21,19.63,9.26,35.38,24.4,53.05,36.73m49,65.29C473.2,728.4,474,760.72,431.9,768.27,435.37,742,420.1,721,403.33,703c-6.24-4.65-14.28-4.69-20.4-8.16-3.1-1.75-8.94,1.39-12.25,0-2.2-14.73,13.35-23.63,24.49-28.56,8.53-5.88,19.75-18.57,32.65-16.33,18.73,3.23,27,35.87,32.64,49m416.25-20.4c-9.67-9.22-24.73-17-28.56-28.57,14.44,1.59,33.54,9.76,28.56,28.57m-53.05,93.86c-14.61,19.63-34.77,37.42-53,53-20.53,17.55-42.69,34.65-61.21,53.05-12-34.07-32-85.29-77.54-85.7,26.2-26.64,58.36-58.68,94.8-76.59s70.52-67,116.34-48.85,9.35,82.43-19.34,105m-191.8-8.16c-.57,9.51-10.65,20.16-20.4,20.4-17.35-19.34-38.36-36.93-61.22-49,4.12-11.38,4.82-24,4.08-36.73,31,12,50.52,45.75,77.54,65.3M640,805c21.18,7.83,37.06,29.91,44.89,49,13.55,32.93-3.06,52.8-36.73,65.29,1.8-16.57-5.1-30.85-12.24-44.89-5.14-8.28-14.81-11.71-19.38-21.42S591.09,842.7,587,837.64c-6-7.3,17.87-34.48,28.57-36.72,7.75-1.64,17.5,1.5,24.48,4.08m-4.08,114.26c-27.91-7-63.38-30.93-57.13-65.29C612.27,850.87,641.33,887,635.94,919.26Z"/><path class="cls-9" d="M905.28,258.16c-14.94,8-46.12,40.81-69.38,40.81,6,4.65,14.65,14.65,20.41,20.4-2.49-4.41-6.53-7.55-8.16-12.24,12.44-.45,35.66-2.2,32.64,16.32,24,4.29,24.57-23,44.89-40.81,3.64-3.18,5-10.69,12.25-8.16v-20.4C926.25,251.75,915.81,256.36,905.28,258.16Z"/><path class="cls-10" d="M835.9,299c23.26,0,54.44-32.85,69.38-40.81-31.26,3.51-59.66,17.22-89.78,24.48C815,293.83,828.93,293.5,835.9,299Z"/><path class="cls-11" d="M925.68,282.64c-7.38,12.08-9.59,46.36-28.56,57.14-1.76-12-16.69-3.76-20.41-12.25-2.65,3.31-3.83,2.82-4.08,8.17-.37,8,5.55,10.77,8.16,16.32.49.41,15.51,3.14,20.41,0,11.47-22.41,36.4-51.58,36.73-77.54C930.66,272,929.32,279.46,925.68,282.64Z"/><path class="cls-12" d="M880.79,323.45c-1.22-.2-3.14,2.94-4.08,4.08,3.72,8.49,18.65.25,20.41,12.25,19-10.78,21.18-45.06,28.56-57.14C905.36,300.44,904.79,327.74,880.79,323.45Z"/><path class="cls-13" d="M574.73,527.5c-11.71,1.42-20.61,3.14-32.65,0-65.58-5.76-49.79-77.5-16.32-110.19-50.69,27.22-98.27,58.89-146.91,89.78,27.62,8.61,59.45,17.59,85.69,32.65,6.78-10.77,19.67-20.36,32.65-20.41.82,14.74-17.75,16-24.48,24.49,38.89,24.2,55,66.23,77.53,102,6.12-18.57,25.22-34.64,41.83-43.87s48.77-22,35.71-37.75c55.91-29.91,103.94-78.63,151-122.42,1.92-3.39-6.94-7.06-.86-13.18s8.86,3.38,13.1.94c9-5.15,29-28.49,35.71-37.75s32.81-31.06,33.67-39.79c-14-19.67-40-59.13-69.25-57s-57.63,31-85.82,36.64c69.49,9.72,61.41,90.89,15.3,125.49s-86.23,69.21-145.89,70.4M803.26,401C788.73,413.56,784.44,387.4,803.26,401Z"/><path class="cls-14" d="M856.31,319.37C860,323,869.9,331.49,872.63,335.7c.25-5.35,1.43-4.86,4.08-8.17.94-1.14,2.86-4.28,4.08-4.08,3-18.52-20.2-16.77-32.64-16.32C849.78,311.82,853.82,315,856.31,319.37Z"/><path class="cls-15" d="M533.92,511.17c12.61,6.65-4.49-9.34-4.08-12.24,34.52,10,65-24.69,92.63-42s64-43.75,70.6-76.32c18.33,3.84,36.12-11.18,53,0-9.38-71.25-129.11-24-160.17-1s-120.55,109.94-52,131.61m0-28.56c-6.86-19.55,20.12-55.38,33.67-68.36s47.78-55.78,67-40.48-33.83,40.32-46.6,52.72S548.49,470.28,533.92,482.61Z"/><path class="cls-16" d="M268.66,462.2c-1.1-.16-7.79-6-8.16-8.16,47-33.22,102.31-55.09,146.91-89.78-31.5-35-81.82,2.37-117.4,17.26s-72.36,38.53-107,56.2c15.39,12.73,40.36,25.22,40.81,49C240.34,484.28,254.71,470.32,268.66,462.2Z"/><path class="cls-17" d="M880.79,352c-.49,7.92,2.45,21.38,12.25,20.4.32-7.63,4.77-13.79,8.16-20.4C896.3,355.16,881.28,352.43,880.79,352Z"/><path class="cls-18" d="M791,429.56c-2.65,16.65,25.43,36,12.25,53.05-9.23-11.43-10.45-32.28-24.49-40.81-47,43.79-95.08,92.51-151,122.42,13.06,15.72-19.1,28.49-35.71,37.75s-35.71,25.3-41.83,43.87v4.08c17.92,14.37,27.67-36.36,49-24.48,42.28-47.83,100.76-72.68,151-110.19,4.4,9.06,10.36,17.63,8.16,28.57,30.4-28.48,46.52-56.28,74.39-88.84s50.32-63.13,27.63-103c-.86,8.73-26.93,30.56-33.67,39.79S800,424.41,791,429.56Z"/><path class="cls-19" d="M268.66,462.2C293,448,329.88,425.88,357.54,424.58s65.46-29.51,49.87-60.32C362.81,399,307.47,420.82,260.5,454,260.87,456.2,267.56,462,268.66,462.2Z"/><path class="cls-20" d="M533.92,482.61c14.57-12.33,41.3-43.75,54.07-56.12s65.83-37.42,46.6-52.72-53.46,27.46-67,40.48S527.06,463.06,533.92,482.61Z"/><path class="cls-21" d="M533.92,511.17c41.05,13,104.14-5,137.73-29.58s80.51-55.18,74.47-101c-16.93-11.18-34.72,3.84-53,0-6.61,32.57-43.05,58.93-70.6,76.32s-58.11,52.07-92.63,42C529.43,501.83,546.53,517.82,533.92,511.17Z"/><path class="cls-22" d="M778.77,441.8c14,8.53,15.26,29.38,24.49,40.81,13.18-17.06-14.9-36.4-12.25-53.05-4.24,2.44-7.06-7.06-13.1-.94S780.69,438.41,778.77,441.8Z"/><path class="cls-23" d="M452.3,437.72c-31.34,2.49-71.94-16-97.94,4.08C387.5,452.94,432.92,483.46,452.3,437.72Z"/><path class="cls-24" d="M244.18,494.85c26.56-5.1,48.89,37.95,73.45,36.73,27.34-21.22,65.83-34.81,85.7-61.22-28.24-1.75-60.23-38.11-85.37-20.07S263.4,470.28,244.18,494.85Z"/><path class="cls-25" d="M150.32,482.61c13.5,9.83,59.17,31,57.13-8.17-6.08-9.42-11.75-11.3-20.41-16.32-13,.08-21.58,21.59-36.72,16.32-1.11-11.22,13.42-15,16.32-24.48-12.2,6-25.95,11.18-32.65,24.48C137.18,480.48,144.85,478.61,150.32,482.61Z"/><path class="cls-26" d="M187,458.12c-8.16-4.73-7.75-9.26-20.4-8.16-2.9,9.47-17.43,13.26-16.32,24.48C165.46,479.71,174.07,458.2,187,458.12Z"/><path class="cls-27" d="M150.32,482.61c13.26,14.93,26.24,31.87,24.48,53,39.46,4.28,51-32.65,32.65-61.22C209.49,513.58,163.82,492.44,150.32,482.61Z"/><path class="cls-28" d="M162.56,535.66c2.82-22-11.06-51.87-36.73-49C119,512.19,142.64,527.82,162.56,535.66Z"/><path class="cls-29" d="M240.1,498.93c6.44,16.16,69.74,24.61,61.21,44.89,5.43-3.75,11.43-8.65,16.32-12.24-24.56,1.22-46.89-41.83-73.45-36.73C243.24,496,241.48,498.36,240.1,498.93Z"/><path class="cls-30" d="M301.31,543.82c8.53-20.28-54.77-28.73-61.21-44.89-27.51,24.24,32.68,38.52,44.89,57.13C290.9,553,295.68,547.7,301.31,543.82Z"/><path class="cls-31" d="M933.85,503c-22.12-2.65-29.1,39.54-4.41,40.48S954.09,505.46,933.85,503Z"/><path class="cls-32" d="M321.71,568.31c20.49,2.48,29.14,5,44.89,16.32,36.4,26.28,86.84,57.42,106.11,102-1.6-21.91,41.09-45.13,57.13-49C495.72,551.21,373.5,480.4,297.23,560.14c-.86,13.14,16.28,7.19,24.48,8.17m134.67-8.17c-17.75,3.59-43.7,48.12-53.05,20.41C421.16,575.65,438.06,547.33,456.38,560.14Z"/><path class="cls-33" d="M574.73,527.5c-10.49.2-22.28,1.38-32.65,0C554.12,530.64,563,528.92,574.73,527.5Z"/><path class="cls-34" d="M750.21,535.66c-30.53,9.34-54.08,33.05-81.62,49,26.36,33.54,46.77,72.31,77.53,102C755.51,638.46,747.59,585.65,750.21,535.66Z"/><path class="cls-35" d="M1044,976.39c13.67-66.11,1.18-141.85,4.08-212.2s0-145.49,0-216.29C1034.68,686.41,1056.88,835.11,1044,976.39Z"/><path class="cls-36" d="M456.38,560.14c-18.32-12.81-35.22,15.51-53.05,20.41C412.68,608.26,438.63,563.73,456.38,560.14Z"/><path class="cls-37" d="M366.6,584.63c-15.75-11.35-24.4-13.84-44.89-16.32C334.89,572.83,352.52,579.61,366.6,584.63Z"/><path class="cls-38" d="M301.31,576.47c-16.49-10.08-35.87,11.38-32.65,28.56C279.72,596.14,291.76,586.18,301.31,576.47Z"/><path class="cls-39" d="M305.39,592.79c16.89,4.45,1,19.67-4.08,24.49,1.06.4,3.06,3.06,4.08,4.08,10.57-7.92,21.14-17.84,36.73-16.33C330.94,589.36,322.37,586.67,305.39,592.79Z"/><path class="cls-40" d="M301.31,617.28c5.1-4.82,21-20,4.08-24.49-8.41,4-20.85,9-20.4,20.4C291.43,611.52,296,615.15,301.31,617.28Z"/><path class="cls-41" d="M603.29,625.44c-8.61,13.63-44.15,24.56-49,36.73,4.78,45,68.52,59.09,85.7,102,13.92-28.9,90.43-42.36,86.92-74.68s-58.27-64.32-66.51-96.72c-22.33,3.43-36.49,25.22-57.14,32.65M672.67,654C662.39,678.16,642.35,639.84,672.67,654Z"/><path class="cls-42" d="M411.49,633.6c-17.67-12.33-33.42-27.47-53.05-36.73,2.78,20.81,15.71,38.73,12.24,61.21C384.84,652.09,400.56,643.6,411.49,633.6Z"/><path class="cls-43" d="M305.39,621.36c5.75,5.63,9.67,13.22,12.24,20.4,11.59,6.9,23.47-16.93,36.73-8.16-2.57-10.69-5.55-19.22-12.24-28.57C326.53,603.52,316,613.44,305.39,621.36Z"/><path class="cls-44" d="M550.24,649.92c0,5.55,3.06,7.51,4.08,12.25,4.82-12.17,40.36-23.1,49-36.73,0,0-2.53.85-4.08,0C577.91,613.56,568.16,664.29,550.24,649.92Z"/><path class="cls-45" d="M236,641.76c-12.25,10.28-27.39,28.61-36.73,40.81-7.1,11.83-17.59,25.14-24.49,36.73.65,9.34-8.73,15.3-8.16,24.48,49-6.85,89-32.77,130.59-57.13,10.53-10.53,15.59-19.34,12.24-32.65-25,24.08-57.74,35.38-89.78,44.89,19.83-25.54,38-57.7,69.38-69.37C270,621.19,253,629.68,236,641.76Z"/><path class="cls-46" d="M309.47,654c-3.14-12.61-9.39-19.67-20.4-24.48-31.39,11.67-49.55,43.83-69.38,69.37C251.73,689.38,284.46,678.08,309.47,654Z"/><path class="cls-47" d="M317.63,641.76c4.41,10.49,2.25,22.65,8.16,32.65,25.71-1.68,33.88-18.69,28.57-40.81C341.1,624.83,329.22,648.66,317.63,641.76Z"/><path class="cls-48" d="M472.71,686.65c17,28.81,18.44,73.25-20.41,85.7,13.26,13.87,38.24-7.14,32.65-24.49,12.85,33.34,52.27-13.22,57.13-36.72a201.8,201.8,0,0,0,0-28.57c-1.1-17.59-6.2-30.36-12.24-44.89C513.8,641.52,471.11,664.74,472.71,686.65Z"/><path class="cls-49" d="M199.29,682.57c9.34-12.2,24.48-30.53,36.73-40.81C221.41,652.17,208.47,667.23,199.29,682.57Z"/><path class="cls-50" d="M395.17,666.25c-3.18,5.42-4.57,9.75-4.08,16.32,13.14-14,28.44-10.57,44.89-16.32-2.25-6-9.8-8.9-8.16-16.33C414.92,647.68,403.7,660.37,395.17,666.25Z"/><path class="cls-51" d="M391.09,682.57a29.84,29.84,0,0,1,0,4.08c.12,1.43,3.06,3.06,4.08,4.08,27.91-29.71,39.22,15.3,16.32,16.32,10.53,10.94,43,13.84,49-8.16-5.67-13.1-13.91-45.74-32.64-49-1.64,7.43,5.91,10.37,8.16,16.33C419.53,672,404.23,668.61,391.09,682.57Z"/><path class="cls-52" d="M876.71,678.49c5-18.81-14.12-27-28.56-28.57C852,661.47,867,669.27,876.71,678.49Z"/><path class="cls-32" d="M770.61,825.4c16.89-16.89,37.67-35.38,53-53,28.69-22.61,65.17-86.88,19.34-105s-79.9,30.93-116.34,48.85-68.6,50-94.8,76.59c45.58.41,65.54,51.63,77.54,85.7,18.52-18.4,40.68-35.5,61.21-53.05m89.78-134.67c-14.16,74.68-95.78,128.43-151,175.48-29.43-43.87,29.83-64,58.15-92.84A999.13,999.13,0,0,1,860.39,690.73Z"/><path class="cls-53" d="M382.93,694.81c.16-4.81,5.87-5.79,8.16-8.16a29.84,29.84,0,0,0,0-4.08c-.49-6.57.9-10.9,4.08-16.32-11.14,4.93-26.69,13.83-24.49,28.56C374,696.2,379.83,693.06,382.93,694.81Z"/><path class="cls-54" d="M395.17,690.73c3,3.06,5.18,9.71,8.16,12.24,1.88,1.64,6.69,2.58,8.16,4.08C434.39,706,423.08,661,395.17,690.73Z"/><path class="cls-55" d="M542.08,711.14c2.25-10.78,2-17.72,0-28.57A201.8,201.8,0,0,1,542.08,711.14Z"/><path class="cls-56" d="M382.93,694.81c6.12,3.47,14.16,3.51,20.4,8.16-3-2.53-5.18-9.18-8.16-12.24-1-1-4-2.65-4.08-4.08C388.8,689,383.09,690,382.93,694.81Z"/><path class="cls-57" d="M860.39,690.73a999.13,999.13,0,0,0-92.84,82.64c-28.32,28.81-87.58,49-58.15,92.84C764.61,819.16,846.23,765.41,860.39,690.73Z"/><path class="cls-58" d="M411.49,707.05c-1.47-1.5-6.28-2.44-8.16-4.08,16.77,18,32,39,28.57,65.3,42.11-7.55,41.3-39.87,28.56-69.38C454.51,720.89,422,718,411.49,707.05Z"/><path class="cls-59" d="M631.86,764.19c-27-19.55-46.56-53.3-77.54-65.3.74,12.69,0,25.35-4.08,36.73,22.86,12,43.87,29.63,61.22,49C621.21,784.35,631.29,773.7,631.86,764.19Z"/><path class="cls-60" d="M346.2,719.3c-3.43,2-8.16,5.55-12.24,8.16-14.53,11.3-32.45,31.42-44.89,44.89-23,29-40.4,61.09-57.14,93.86,28.82-1.59,53.91-15.26,81.62-20.41,32.69-13.46,114-52.23,102-97.94-4,19.71-41.78,28.45-56.11,41.83s-53.95,19.18-70.39,31.63c28.64-38.36,57.74-84,102-106.1C377.38,708.81,360.36,711.1,346.2,719.3Z"/><path class="cls-61" d="M415.57,747.86c-3.34-12.77-11.26-26.48-24.48-32.64-44.28,22.07-73.38,67.74-102,106.1,16.44-12.45,56.11-18.2,70.39-31.63S411.57,767.57,415.57,747.86Z"/><path class="cls-62" d="M289.07,772.35c12.44-13.47,30.36-33.59,44.89-44.89C317.35,738.07,301.31,756.84,289.07,772.35Z"/><path class="cls-63" d="M962.41,727.46c-3.67-3.67-12.65,6.12-7,10.73S965.72,730.76,962.41,727.46Z"/><path class="cls-64" d="M770.61,825.4c18.28-15.63,38.44-33.42,53-53C808.28,790,787.5,808.51,770.61,825.4Z"/><path class="cls-65" d="M587,837.64c-2.94-6.81,5.43-9.1,8.16-12.24,4-4.61,15.31-23.06,20.41-24.48C604.84,803.16,581,830.34,587,837.64Z"/><path class="cls-66" d="M595.13,825.4c7.84-2,15.06,17.55,24.49,0-5.47-5.22,9.06-17.14,16.32-16.32-2.2,6.77-10.45,9.51-12.24,16.32,7.55-3.67,16.36-11.71,16.32-20.4-7-2.58-16.73-5.72-24.48-4.08C610.44,802.34,599.17,820.79,595.13,825.4Z"/><path class="cls-67" d="M623.7,825.4c-1.63.82-4.08,0-4.08,0-9.43,17.55-16.65-2-24.49,0-2.73,3.14-11.1,5.43-8.16,12.24,4.12,5.06,25,5.63,29.59,15.31s14.24,13.14,19.38,21.42c12.61,2,28.16-22.53,36.73-28.57,7.22-1,7.75,16.53,12.24,8.17-7.83-19.06-23.71-41.14-44.89-49C640.06,813.69,631.25,821.73,623.7,825.4Z"/><path class="cls-68" d="M619.62,825.4s2.45.82,4.08,0c1.79-6.81,10-9.55,12.24-16.32C628.68,808.26,614.15,820.18,619.62,825.4Z"/><path class="cls-69" d="M635.94,874.37c7.14,14,14,28.32,12.24,44.89,33.67-12.49,50.28-32.36,36.73-65.29-4.49,8.36-5-9.14-12.24-8.17C664.1,851.84,648.55,876.33,635.94,874.37Z"/><path class="cls-70" d="M937.93,902.94c7.1-6.21,7.38-5.8,0-12.25-22.86-.81-29.1-25.62-36.73-40.8-4.12,26.77-28.73,37.29-49,49,28.48.32,41.38,26.64,49,49C903.44,924,920.38,914.28,937.93,902.94Z"/><path class="cls-71" d="M635.94,919.26c5.39-32.28-23.67-68.39-57.13-65.29C572.56,888.33,608,912.24,635.94,919.26Z"/><path class="cls-72" d="M937.93,902.94c6.89,1.18,13.54-5.35,12.24-12.25-3.18-1.46-9.27,1.84-12.24,0C945.31,897.14,945,896.73,937.93,902.94Z"/><path class="cls-73" d="M448.22,894.78c-29.5-10-45.71,28.15-19.34,43.82S473.48,903.39,448.22,894.78Z"/><path class="cls-74" d="M154.4,911.1c-15-5-28.16,18.12-12.29,24.44S169.05,916,154.4,911.1Z"/><path class="cls-75" d="M978.73,1041.69c-96.43,9.91-196.82-2.57-293.82,0s-196.86,3.06-293.82,0-197.56,10.77-293.82,0c90,20.93,198.57-.25,293.82,4.08s202.82,3.47,297.9,0S888.71,1061.64,978.73,1041.69Z"/><path class="cls-76" d="M97.27,1041.69c96.26,10.77,196.86-3.06,293.82,0s196.82,2.57,293.82,0,197.39,9.91,293.82,0c37.22-8.25,57.54-28,65.3-65.3,12.85-141.28-9.35-290,4.08-428.49,0-83.33,2.69-210.86,0-289.74s29.83-207.6-66.64-223.1-190.9,3.83-288.4-1.35-190.94.29-289.74,0-188.13-4.45-289.7,0S29.81,159.2,32,241.83,29.52,445,32,531.58,27.6,737.46,32,821.32-.39,1019,97.27,1041.69m681.5-930.44c-.2,22.12,18.53,41.05,40.81,40.81-22.65,10-36.4,32.11-49,49,.69-20-15-42-36.73-40.81,15.88-12.57,34.36-28.45,44.89-49m175.48,16.32c11.1,6.41,1.35,33.59-13.18,25.34s0-32.93,13.18-25.34M513.51,139.81c23.22,8.7,9.39,53.63-17.22,41.71s-14.85-53.7,17.22-41.71M223.77,148c-3.79,39.1,30.61,57.75,61.22,65.3-35.1,7.18-58.81,35.46-65.3,69.37-6.41-34.32-30.28-62.35-65.29-69.37,40.6-2.33,52.44-39.54,69.37-65.3m412.17,73.46c8.45,4.94.69,30.48-13.18,21.26s-1.39-29.79,13.18-21.26M415.57,245.92c-17.34,24.73-24.48-17.84,0,0m-102,599.88c-27.71,5.15-52.8,18.82-81.62,20.41,16.74-32.77,34.16-64.85,57.14-93.86,12.24-15.51,28.28-34.28,44.89-44.89,4.08-2.61,8.81-6.16,12.24-8.16,7.67-9.71,7.79-24.77,8.16-36.73-21-.16-44.81-3.67-57.13,4.08C255.6,711,215.65,736.93,166.64,743.78c-.57-9.18,8.81-15.14,8.16-24.48,14.37-36.2,43.34-73.7,77.54-93.86-2.16-27.63,24.61-81.74-15-87s-63,23.71-98,0S107,476.4,135,455.06s51.79-33.26,80.93-49.66,55.46-30.53,85.7-44.89,66-33.14,100.43-19.47,22.77,66.76-6.9,80.35c33.3,12.29,68.27,17.14,96.72-1.22s58.11-24.32,83.16-47.42,58.44-34.08,89.74-40.85,64.93-24.65,93.86-36.73,66.44-29.83,93.62-37,89.66-29.75,101.65,4.37S927,325.66,916.3,354.88s-33.43,51.29-52.85,77.74-30.73,52.11-57.13,77.53S767.47,561.2,766.53,601s-4,87.95,31.63,56.11,73.17-18.6,91.82,8.17-19.1,68.43-34.69,89.78-43.5,46-63.26,67.33-47,42.6-69.37,61.21-51.34,48.89-82.72,47.87-60.36-27.91-73.25-57.17,26.24-66.07,36.6-89.66c-30.6-1.1-56.23-57.54-84.67-23.46s-64.07,28.93-103,23.46c-12.2,38.32-58.27,63.58-102,61.21M933.85,503c20.24,2.45,20.28,41.46-4.41,40.48s-17.71-43.13,4.41-40.48m28.56,224.45c3.31,3.3-1.26,15.38-7,10.73s3.31-14.4,7-10.73M937.93,890.69c3,1.84,9.06-1.46,12.24,0,1.3,6.9-5.35,13.43-12.24,12.25-17.55,11.34-34.49,21-36.73,44.89-7.59-22.33-20.49-48.65-49-49,20.24-11.68,44.85-22.2,49-49,7.63,15.18,13.87,40,36.73,40.8m-489.71,4.09c25.26,8.61,7,59.54-19.34,43.82s-10.16-53.86,19.34-43.82M154.4,911.1c14.65,4.9,3.59,30.77-12.29,24.44S139.38,906.08,154.4,911.1Z"/><path class="cls-77" d="M778.77,111.25c-10.53,20.52-29,36.4-44.89,49C755.63,159,771.3,181,770.61,201c12.57-16.86,26.32-39,49-49C797.3,152.3,778.57,133.37,778.77,111.25Z"/><path class="cls-78" d="M954.25,127.57c-13.18-7.59-27.71,17.14-13.18,25.34S965.35,134,954.25,127.57Z"/><path class="cls-79" d="M513.51,139.81c-32.07-12-43.82,29.79-17.22,41.71S536.73,148.51,513.51,139.81Z"/><path class="cls-80" d="M223.77,148c-16.93,25.76-28.77,63-69.37,65.3,35,7,58.88,35,65.29,69.37,6.49-33.91,30.2-62.19,65.3-69.37C254.38,205.72,220,187.07,223.77,148Z"/><path class="cls-81" d="M635.94,221.43c-14.57-8.53-27.06,12-13.18,21.26S644.39,226.37,635.94,221.43Z"/><path class="cls-82" d="M174.8,719.3c6.9-11.59,17.39-24.9,24.49-36.73,9.18-15.34,22.12-30.4,36.73-40.81,16.93-12.08,34-20.57,53-12.24,11,4.81,17.26,11.87,20.4,24.48,3.35,13.31-1.71,22.12-12.24,32.65,12.32-7.75,36.15-4.24,57.13-4.08-.37,12-.49,27-8.16,36.73,14.16-8.2,31.18-10.49,44.89-4.08,13.22,6.16,21.14,19.87,24.48,32.64,12,45.71-69.33,84.48-102,97.94,43.75,2.37,89.82-22.89,102-61.21,39,5.47,74.64,10.65,103.05-23.46s54.07,22.36,84.67,23.46c-10.36,23.59-49.54,60.4-36.6,89.66s41.83,56.11,73.25,57.17,60.27-29.26,82.72-47.87S772.28,843.6,792,822.34s47.67-46,63.26-67.33,53.34-63,34.69-89.78-56.2-40-91.82-8.17S765.59,640.7,766.53,601s13.38-65.37,39.79-90.8,37.7-51.09,57.13-77.53,42.11-48.57,52.85-77.74,49.62-58.2,37.62-92.31-74.51-11.51-101.65-4.37-64.68,24.93-93.62,37-62.52,30-93.86,36.73-64.64,17.75-89.74,40.85-54.76,29-83.16,47.42-63.42,13.51-96.72,1.22c29.67-13.59,41.38-66.72,6.9-80.35s-70.2,5.1-100.43,19.47S245.07,389,215.94,405.4,163,433.68,135,455.06s-30.68,59.79,4.33,83.41,58.36-5.3,98,0,12.86,59.38,15,87c-34.2,20.16-63.17,57.66-77.54,93.86M937.93,274.48c-.33,26-25.26,55.13-36.73,77.54-3.39,6.61-7.84,12.77-8.16,20.4-9.8,1-12.74-12.48-12.25-20.4-2.61-5.55-8.53-8.33-8.16-16.32C869.9,331.49,860,323,856.31,319.37c-5.76-5.75-14.45-15.75-20.41-20.4-7-5.47-20.93-5.14-20.4-16.33,30.12-7.26,58.52-21,89.78-24.48,10.53-1.8,21-6.41,32.65-4.08v20.4M860.39,352c22.69,39.83.24,70.39-27.63,103s-44,60.36-74.39,88.84c2.2-10.94-3.76-19.51-8.16-28.57-50.24,37.51-108.72,62.36-151,110.19,1.55.85,4.08,0,4.08,0,20.65-7.43,34.81-29.22,57.14-32.65,8.24,32.4,63.05,64.4,66.51,96.72s-73,45.78-86.92,74.68c-17.18-42.93-80.92-57.05-85.7-102-1-4.74-4-6.7-4.08-12.25v-4.08c-22.56-35.79-38.64-77.82-77.53-102,6.73-8.45,25.3-9.75,24.48-24.49-13,0-25.87,9.64-32.65,20.41-26.24-15.06-58.07-24-85.69-32.65,48.64-30.89,96.22-62.56,146.91-89.78C492.29,450,476.5,521.74,542.08,527.5c10.37,1.38,22.16.2,32.65,0,59.66-1.19,99.82-35.75,145.89-70.4s54.19-115.77-15.3-125.49c28.19-5.63,56.56-34.52,85.82-36.64s55.25,37.38,69.25,57M746.12,380.58c6,45.83-40.84,76.44-74.47,101S575,524.15,533.92,511.17c-68.52-21.67,20.93-108.63,52-131.61s150.79-70.23,160.17,1M407.41,364.26c15.59,30.81-22.24,59-49.87,60.32S293,448,268.66,462.2c-14,8.12-28.32,22.08-44.89,24.49-.45-23.75-25.42-36.24-40.81-49,34.69-17.67,71.42-41.3,107-56.2s85.9-52.23,117.4-17.26m44.89,73.46c-19.38,45.74-64.8,15.22-97.94,4.08,26-20.08,66.6-1.59,97.94-4.08M317.63,531.58c-4.89,3.59-10.89,8.49-16.32,12.24C295.68,547.7,290.9,553,285,556.06c-12.21-18.61-72.4-32.89-44.89-57.13,1.38-.57,3.14-2.9,4.08-4.08,19.22-24.57,48.6-26.57,73.78-44.56s57.13,18.32,85.37,20.07c-19.87,26.41-58.36,40-85.7,61.22M187,458.12c8.66,5,14.33,6.9,20.41,16.32,18.4,28.57,6.81,65.5-32.65,61.22,1.76-21.18-11.22-38.12-24.48-53-5.47-4-13.14-2.13-16.33-8.17,6.7-13.3,20.45-18.48,32.65-24.48,12.65-1.1,12.24,3.43,20.4,8.16m-24.48,77.54c-19.92-7.84-43.54-23.47-36.73-49,25.67-2.9,39.55,27,36.73,49m367.28,102c6,14.53,11.14,27.3,12.24,44.89,2,10.85,2.25,17.79,0,28.57-4.86,23.5-44.28,70.06-57.13,36.72,5.59,17.35-19.39,38.36-32.65,24.49,38.85-12.45,37.42-56.89,20.41-85.7-19.27-44.6-69.71-75.74-106.11-102-14.08-5-31.71-11.8-44.89-16.32-8.2-1-25.34,5-24.48-8.17,76.27-79.74,198.49-8.93,232.61,77.54m220.37-102c-2.62,50,5.3,102.8-4.09,151-30.76-29.71-51.17-68.48-77.53-102,27.54-15.92,51.09-39.63,81.62-49m-448.9,40.81c-9.55,9.71-21.59,19.67-32.65,28.56-3.22-17.18,16.16-38.64,32.65-28.56M342.12,605c6.69,9.35,9.67,17.88,12.24,28.57,5.31,22.12-2.86,39.13-28.57,40.81-5.91-10-3.75-22.16-8.16-32.65-2.57-7.18-6.49-14.77-12.24-20.4-1-1-3-3.68-4.08-4.08-5.35-2.13-9.88-5.76-16.32-4.09-.45-11.42,12-16.4,20.4-20.4,17-6.12,25.55-3.43,36.73,12.24m69.37,28.57c-10.93,10-26.65,18.49-40.81,24.48,3.47-22.48-9.46-40.4-12.24-61.21,19.63,9.26,35.38,24.4,53.05,36.73m49,65.29C473.2,728.4,474,760.72,431.9,768.27,435.37,742,420.1,721,403.33,703c-6.24-4.65-14.28-4.69-20.4-8.16-3.1-1.75-8.94,1.39-12.25,0-2.2-14.73,13.35-23.63,24.49-28.56,8.53-5.88,19.75-18.57,32.65-16.33,18.73,3.23,27,35.87,32.64,49m416.25-20.4c-9.67-9.22-24.73-17-28.56-28.57,14.44,1.59,33.54,9.76,28.56,28.57m-53.05,93.86c-14.61,19.63-34.77,37.42-53,53-20.53,17.55-42.69,34.65-61.21,53.05-12-34.07-32-85.29-77.54-85.7,26.2-26.64,58.36-58.68,94.8-76.59s70.52-67,116.34-48.85,9.35,82.43-19.34,105m-191.8-8.16c-.57,9.51-10.65,20.16-20.4,20.4-17.35-19.34-38.36-36.93-61.22-49,4.12-11.38,4.82-24,4.08-36.73,31,12,50.52,45.75,77.54,65.3M640,805c21.18,7.83,37.06,29.91,44.89,49,13.55,32.93-3.06,52.8-36.73,65.29,1.8-16.57-5.1-30.85-12.24-44.89-5.14-8.28-14.81-11.71-19.38-21.42S591.09,842.7,587,837.64c-6-7.3,17.87-34.48,28.57-36.72,7.75-1.64,17.5,1.5,24.48,4.08m-4.08,114.26c-27.91-7-63.38-30.93-57.13-65.29C612.27,850.87,641.33,887,635.94,919.26Z"/><path class="cls-83" d="M905.28,258.16c-14.94,8-46.12,40.81-69.38,40.81,6,4.65,14.65,14.65,20.41,20.4-2.49-4.41-6.53-7.55-8.16-12.24,12.44-.45,35.66-2.2,32.64,16.32,24,4.29,24.57-23,44.89-40.81,3.64-3.18,5-10.69,12.25-8.16v-20.4C926.25,251.75,915.81,256.36,905.28,258.16Z"/><path class="cls-84" d="M835.9,299c23.26,0,54.44-32.85,69.38-40.81-31.26,3.51-59.66,17.22-89.78,24.48C815,293.83,828.93,293.5,835.9,299Z"/><path class="cls-85" d="M925.68,282.64c-7.38,12.08-9.59,46.36-28.56,57.14-1.76-12-16.69-3.76-20.41-12.25-2.65,3.31-3.83,2.82-4.08,8.17-.37,8,5.55,10.77,8.16,16.32.49.41,15.51,3.14,20.41,0,11.47-22.41,36.4-51.58,36.73-77.54C930.66,272,929.32,279.46,925.68,282.64Z"/><path class="cls-86" d="M880.79,323.45c-1.22-.2-3.14,2.94-4.08,4.08,3.72,8.49,18.65.25,20.41,12.25,19-10.78,21.18-45.06,28.56-57.14C905.36,300.44,904.79,327.74,880.79,323.45Z"/><path class="cls-87" d="M574.73,527.5c-11.71,1.42-20.61,3.14-32.65,0-65.58-5.76-49.79-77.5-16.32-110.19-50.69,27.22-98.27,58.89-146.91,89.78,27.62,8.61,59.45,17.59,85.69,32.65,6.78-10.77,19.67-20.36,32.65-20.41.82,14.74-17.75,16-24.48,24.49,38.89,24.2,55,66.23,77.53,102,6.12-18.57,25.22-34.64,41.83-43.87s48.77-22,35.71-37.75c55.91-29.91,103.94-78.63,151-122.42,1.92-3.39-6.94-7.06-.86-13.18s8.86,3.38,13.1.94c9-5.15,29-28.49,35.71-37.75s32.81-31.06,33.67-39.79c-14-19.67-40-59.13-69.25-57s-57.63,31-85.82,36.64c69.49,9.72,61.41,90.89,15.3,125.49s-86.23,69.21-145.89,70.4M803.26,401C788.73,413.56,784.44,387.4,803.26,401Z"/><path class="cls-88" d="M856.31,319.37C860,323,869.9,331.49,872.63,335.7c.25-5.35,1.43-4.86,4.08-8.17.94-1.14,2.86-4.28,4.08-4.08,3-18.52-20.2-16.77-32.64-16.32C849.78,311.82,853.82,315,856.31,319.37Z"/><path class="cls-89" d="M533.92,511.17c12.61,6.65-4.49-9.34-4.08-12.24,34.52,10,65-24.69,92.63-42s64-43.75,70.6-76.32c18.33,3.84,36.12-11.18,53,0-9.38-71.25-129.11-24-160.17-1s-120.55,109.94-52,131.61m0-28.56c-6.86-19.55,20.12-55.38,33.67-68.36s47.78-55.78,67-40.48-33.83,40.32-46.6,52.72S548.49,470.28,533.92,482.61Z"/><path class="cls-90" d="M268.66,462.2c-1.1-.16-7.79-6-8.16-8.16,47-33.22,102.31-55.09,146.91-89.78-31.5-35-81.82,2.37-117.4,17.26s-72.36,38.53-107,56.2c15.39,12.73,40.36,25.22,40.81,49C240.34,484.28,254.71,470.32,268.66,462.2Z"/><path class="cls-91" d="M880.79,352c-.49,7.92,2.45,21.38,12.25,20.4.32-7.63,4.77-13.79,8.16-20.4C896.3,355.16,881.28,352.43,880.79,352Z"/><path class="cls-92" d="M791,429.56c-2.65,16.65,25.43,36,12.25,53.05-9.23-11.43-10.45-32.28-24.49-40.81-47,43.79-95.08,92.51-151,122.42,13.06,15.72-19.1,28.49-35.71,37.75s-35.71,25.3-41.83,43.87v4.08c17.92,14.37,27.67-36.36,49-24.48,42.28-47.83,100.76-72.68,151-110.19,4.4,9.06,10.36,17.63,8.16,28.57,30.4-28.48,46.52-56.28,74.39-88.84s50.32-63.13,27.63-103c-.86,8.73-26.93,30.56-33.67,39.79S800,424.41,791,429.56Z"/><path class="cls-93" d="M268.66,462.2C293,448,329.88,425.88,357.54,424.58s65.46-29.51,49.87-60.32C362.81,399,307.47,420.82,260.5,454,260.87,456.2,267.56,462,268.66,462.2Z"/><path class="cls-94" d="M533.92,482.61c14.57-12.33,41.3-43.75,54.07-56.12s65.83-37.42,46.6-52.72-53.46,27.46-67,40.48S527.06,463.06,533.92,482.61Z"/><path class="cls-95" d="M533.92,511.17c41.05,13,104.14-5,137.73-29.58s80.51-55.18,74.47-101c-16.93-11.18-34.72,3.84-53,0-6.61,32.57-43.05,58.93-70.6,76.32s-58.11,52.07-92.63,42C529.43,501.83,546.53,517.82,533.92,511.17Z"/><path class="cls-96" d="M778.77,441.8c14,8.53,15.26,29.38,24.49,40.81,13.18-17.06-14.9-36.4-12.25-53.05-4.24,2.44-7.06-7.06-13.1-.94S780.69,438.41,778.77,441.8Z"/><path class="cls-97" d="M452.3,437.72c-31.34,2.49-71.94-16-97.94,4.08C387.5,452.94,432.92,483.46,452.3,437.72Z"/><path class="cls-98" d="M244.18,494.85c26.56-5.1,48.89,37.95,73.45,36.73,27.34-21.22,65.83-34.81,85.7-61.22-28.24-1.75-60.23-38.11-85.37-20.07S263.4,470.28,244.18,494.85Z"/><path class="cls-99" d="M150.32,482.61c13.5,9.83,59.17,31,57.13-8.17-6.08-9.42-11.75-11.3-20.41-16.32-13,.08-21.58,21.59-36.72,16.32-1.11-11.22,13.42-15,16.32-24.48-12.2,6-25.95,11.18-32.65,24.48C137.18,480.48,144.85,478.61,150.32,482.61Z"/><path class="cls-100" d="M187,458.12c-8.16-4.73-7.75-9.26-20.4-8.16-2.9,9.47-17.43,13.26-16.32,24.48C165.46,479.71,174.07,458.2,187,458.12Z"/><path class="cls-101" d="M150.32,482.61c13.26,14.93,26.24,31.87,24.48,53,39.46,4.28,51-32.65,32.65-61.22C209.49,513.58,163.82,492.44,150.32,482.61Z"/><path class="cls-102" d="M162.56,535.66c2.82-22-11.06-51.87-36.73-49C119,512.19,142.64,527.82,162.56,535.66Z"/><path class="cls-103" d="M240.1,498.93c6.44,16.16,69.74,24.61,61.21,44.89,5.43-3.75,11.43-8.65,16.32-12.24-24.56,1.22-46.89-41.83-73.45-36.73C243.24,496,241.48,498.36,240.1,498.93Z"/><path class="cls-104" d="M301.31,543.82c8.53-20.28-54.77-28.73-61.21-44.89-27.51,24.24,32.68,38.52,44.89,57.13C290.9,553,295.68,547.7,301.31,543.82Z"/><path class="cls-105" d="M933.85,503c-22.12-2.65-29.1,39.54-4.41,40.48S954.09,505.46,933.85,503Z"/><path class="cls-106" d="M321.71,568.31c20.49,2.48,29.14,5,44.89,16.32,36.4,26.28,86.84,57.42,106.11,102-1.6-21.91,41.09-45.13,57.13-49C495.72,551.21,373.5,480.4,297.23,560.14c-.86,13.14,16.28,7.19,24.48,8.17m134.67-8.17c-17.75,3.59-43.7,48.12-53.05,20.41C421.16,575.65,438.06,547.33,456.38,560.14Z"/><path class="cls-107" d="M574.73,527.5c-10.49.2-22.28,1.38-32.65,0C554.12,530.64,563,528.92,574.73,527.5Z"/><path class="cls-108" d="M750.21,535.66c-30.53,9.34-54.08,33.05-81.62,49,26.36,33.54,46.77,72.31,77.53,102C755.51,638.46,747.59,585.65,750.21,535.66Z"/><path class="cls-109" d="M1044,976.39c13.67-66.11,1.18-141.85,4.08-212.2s0-145.49,0-216.29C1034.68,686.41,1056.88,835.11,1044,976.39Z"/><path class="cls-110" d="M456.38,560.14c-18.32-12.81-35.22,15.51-53.05,20.41C412.68,608.26,438.63,563.73,456.38,560.14Z"/><path class="cls-111" d="M366.6,584.63c-15.75-11.35-24.4-13.84-44.89-16.32C334.89,572.83,352.52,579.61,366.6,584.63Z"/><path class="cls-112" d="M301.31,576.47c-16.49-10.08-35.87,11.38-32.65,28.56C279.72,596.14,291.76,586.18,301.31,576.47Z"/><path class="cls-113" d="M305.39,592.79c16.89,4.45,1,19.67-4.08,24.49,1.06.4,3.06,3.06,4.08,4.08,10.57-7.92,21.14-17.84,36.73-16.33C330.94,589.36,322.37,586.67,305.39,592.79Z"/><path class="cls-114" d="M301.31,617.28c5.1-4.82,21-20,4.08-24.49-8.41,4-20.85,9-20.4,20.4C291.43,611.52,296,615.15,301.31,617.28Z"/><path class="cls-115" d="M603.29,625.44c-8.61,13.63-44.15,24.56-49,36.73,4.78,45,68.52,59.09,85.7,102,13.92-28.9,90.43-42.36,86.92-74.68s-58.27-64.32-66.51-96.72c-22.33,3.43-36.49,25.22-57.14,32.65M672.67,654C662.39,678.16,642.35,639.84,672.67,654Z"/><path class="cls-116" d="M411.49,633.6c-17.67-12.33-33.42-27.47-53.05-36.73,2.78,20.81,15.71,38.73,12.24,61.21C384.84,652.09,400.56,643.6,411.49,633.6Z"/><path class="cls-117" d="M305.39,621.36c5.75,5.63,9.67,13.22,12.24,20.4,11.59,6.9,23.47-16.93,36.73-8.16-2.57-10.69-5.55-19.22-12.24-28.57C326.53,603.52,316,613.44,305.39,621.36Z"/><path class="cls-118" d="M550.24,649.92c0,5.55,3.06,7.51,4.08,12.25,4.82-12.17,40.36-23.1,49-36.73,0,0-2.53.85-4.08,0C577.91,613.56,568.16,664.29,550.24,649.92Z"/><path class="cls-119" d="M236,641.76c-12.25,10.28-27.39,28.61-36.73,40.81-7.1,11.83-17.59,25.14-24.49,36.73.65,9.34-8.73,15.3-8.16,24.48,49-6.85,89-32.77,130.59-57.13,10.53-10.53,15.59-19.34,12.24-32.65-25,24.08-57.74,35.38-89.78,44.89,19.83-25.54,38-57.7,69.38-69.37C270,621.19,253,629.68,236,641.76Z"/><path class="cls-120" d="M309.47,654c-3.14-12.61-9.39-19.67-20.4-24.48-31.39,11.67-49.55,43.83-69.38,69.37C251.73,689.38,284.46,678.08,309.47,654Z"/><path class="cls-121" d="M317.63,641.76c4.41,10.49,2.25,22.65,8.16,32.65,25.71-1.68,33.88-18.69,28.57-40.81C341.1,624.83,329.22,648.66,317.63,641.76Z"/><path class="cls-122" d="M472.71,686.65c17,28.81,18.44,73.25-20.41,85.7,13.26,13.87,38.24-7.14,32.65-24.49,12.85,33.34,52.27-13.22,57.13-36.72a201.8,201.8,0,0,0,0-28.57c-1.1-17.59-6.2-30.36-12.24-44.89C513.8,641.52,471.11,664.74,472.71,686.65Z"/><path class="cls-123" d="M199.29,682.57c9.34-12.2,24.48-30.53,36.73-40.81C221.41,652.17,208.47,667.23,199.29,682.57Z"/><path class="cls-124" d="M395.17,666.25c-3.18,5.42-4.57,9.75-4.08,16.32,13.14-14,28.44-10.57,44.89-16.32-2.25-6-9.8-8.9-8.16-16.33C414.92,647.68,403.7,660.37,395.17,666.25Z"/><path class="cls-125" d="M391.09,682.57a29.84,29.84,0,0,1,0,4.08c.12,1.43,3.06,3.06,4.08,4.08,27.91-29.71,39.22,15.3,16.32,16.32,10.53,10.94,43,13.84,49-8.16-5.67-13.1-13.91-45.74-32.64-49-1.64,7.43,5.91,10.37,8.16,16.33C419.53,672,404.23,668.61,391.09,682.57Z"/><path class="cls-126" d="M876.71,678.49c5-18.81-14.12-27-28.56-28.57C852,661.47,867,669.27,876.71,678.49Z"/><path class="cls-106" d="M770.61,825.4c16.89-16.89,37.67-35.38,53-53,28.69-22.61,65.17-86.88,19.34-105s-79.9,30.93-116.34,48.85-68.6,50-94.8,76.59c45.58.41,65.54,51.63,77.54,85.7,18.52-18.4,40.68-35.5,61.21-53.05m89.78-134.67c-14.16,74.68-95.78,128.43-151,175.48-29.43-43.87,29.83-64,58.15-92.84A999.13,999.13,0,0,1,860.39,690.73Z"/><path class="cls-127" d="M382.93,694.81c.16-4.81,5.87-5.79,8.16-8.16a29.84,29.84,0,0,0,0-4.08c-.49-6.57.9-10.9,4.08-16.32-11.14,4.93-26.69,13.83-24.49,28.56C374,696.2,379.83,693.06,382.93,694.81Z"/><path class="cls-128" d="M395.17,690.73c3,3.06,5.18,9.71,8.16,12.24,1.88,1.64,6.69,2.58,8.16,4.08C434.39,706,423.08,661,395.17,690.73Z"/><path class="cls-129" d="M542.08,711.14c2.25-10.78,2-17.72,0-28.57A201.8,201.8,0,0,1,542.08,711.14Z"/><path class="cls-130" d="M382.93,694.81c6.12,3.47,14.16,3.51,20.4,8.16-3-2.53-5.18-9.18-8.16-12.24-1-1-4-2.65-4.08-4.08C388.8,689,383.09,690,382.93,694.81Z"/><path class="cls-131" d="M860.39,690.73a999.13,999.13,0,0,0-92.84,82.64c-28.32,28.81-87.58,49-58.15,92.84C764.61,819.16,846.23,765.41,860.39,690.73Z"/><path class="cls-132" d="M411.49,707.05c-1.47-1.5-6.28-2.44-8.16-4.08,16.77,18,32,39,28.57,65.3,42.11-7.55,41.3-39.87,28.56-69.38C454.51,720.89,422,718,411.49,707.05Z"/><path class="cls-133" d="M631.86,764.19c-27-19.55-46.56-53.3-77.54-65.3.74,12.69,0,25.35-4.08,36.73,22.86,12,43.87,29.63,61.22,49C621.21,784.35,631.29,773.7,631.86,764.19Z"/><path class="cls-134" d="M346.2,719.3c-3.43,2-8.16,5.55-12.24,8.16-14.53,11.3-32.45,31.42-44.89,44.89-23,29-40.4,61.09-57.14,93.86,28.82-1.59,53.91-15.26,81.62-20.41,32.69-13.46,114-52.23,102-97.94-4,19.71-41.78,28.45-56.11,41.83s-53.95,19.18-70.39,31.63c28.64-38.36,57.74-84,102-106.1C377.38,708.81,360.36,711.1,346.2,719.3Z"/><path class="cls-135" d="M415.57,747.86c-3.34-12.77-11.26-26.48-24.48-32.64-44.28,22.07-73.38,67.74-102,106.1,16.44-12.45,56.11-18.2,70.39-31.63S411.57,767.57,415.57,747.86Z"/><path class="cls-136" d="M289.07,772.35c12.44-13.47,30.36-33.59,44.89-44.89C317.35,738.07,301.31,756.84,289.07,772.35Z"/><path class="cls-137" d="M962.41,727.46c-3.67-3.67-12.65,6.12-7,10.73S965.72,730.76,962.41,727.46Z"/><path class="cls-138" d="M770.61,825.4c18.28-15.63,38.44-33.42,53-53C808.28,790,787.5,808.51,770.61,825.4Z"/><path class="cls-139" d="M587,837.64c-2.94-6.81,5.43-9.1,8.16-12.24,4-4.61,15.31-23.06,20.41-24.48C604.84,803.16,581,830.34,587,837.64Z"/><path class="cls-140" d="M595.13,825.4c7.84-2,15.06,17.55,24.49,0-5.47-5.22,9.06-17.14,16.32-16.32-2.2,6.77-10.45,9.51-12.24,16.32,7.55-3.67,16.36-11.71,16.32-20.4-7-2.58-16.73-5.72-24.48-4.08C610.44,802.34,599.17,820.79,595.13,825.4Z"/><path class="cls-141" d="M623.7,825.4c-1.63.82-4.08,0-4.08,0-9.43,17.55-16.65-2-24.49,0-2.73,3.14-11.1,5.43-8.16,12.24,4.12,5.06,25,5.63,29.59,15.31s14.24,13.14,19.38,21.42c12.61,2,28.16-22.53,36.73-28.57,7.22-1,7.75,16.53,12.24,8.17-7.83-19.06-23.71-41.14-44.89-49C640.06,813.69,631.25,821.73,623.7,825.4Z"/><path class="cls-142" d="M619.62,825.4s2.45.82,4.08,0c1.79-6.81,10-9.55,12.24-16.32C628.68,808.26,614.15,820.18,619.62,825.4Z"/><path class="cls-143" d="M635.94,874.37c7.14,14,14,28.32,12.24,44.89,33.67-12.49,50.28-32.36,36.73-65.29-4.49,8.36-5-9.14-12.24-8.17C664.1,851.84,648.55,876.33,635.94,874.37Z"/><path class="cls-144" d="M937.93,902.94c7.1-6.21,7.38-5.8,0-12.25-22.86-.81-29.1-25.62-36.73-40.8-4.12,26.77-28.73,37.29-49,49,28.48.32,41.38,26.64,49,49C903.44,924,920.38,914.28,937.93,902.94Z"/><path class="cls-145" d="M635.94,919.26c5.39-32.28-23.67-68.39-57.13-65.29C572.56,888.33,608,912.24,635.94,919.26Z"/><path class="cls-146" d="M937.93,902.94c6.89,1.18,13.54-5.35,12.24-12.25-3.18-1.46-9.27,1.84-12.24,0C945.31,897.14,945,896.73,937.93,902.94Z"/><path class="cls-147" d="M448.22,894.78c-29.5-10-45.71,28.15-19.34,43.82S473.48,903.39,448.22,894.78Z"/><path class="cls-148" d="M154.4,911.1c-15-5-28.16,18.12-12.29,24.44S169.05,916,154.4,911.1Z"/><path class="cls-149" d="M978.73,1041.69c-96.43,9.91-196.82-2.57-293.82,0s-196.86,3.06-293.82,0-197.56,10.77-293.82,0c90,20.93,198.57-.25,293.82,4.08s202.82,3.47,297.9,0S888.71,1061.64,978.73,1041.69Z"/></svg>