<svg id="Layer_1" data-name="Layer 1" xmlns="http://www.w3.org/2000/svg" viewBox="0 0 1080 1080"><defs><style>.cls-1{fill:#0c1523;}.cls-10,.cls-11,.cls-12,.cls-13,.cls-14,.cls-15,.cls-16,.cls-17,.cls-18,.cls-19,.cls-2,.cls-20,.cls-21,.cls-22,.cls-23,.cls-24,.cls-25,.cls-26,.cls-27,.cls-28,.cls-29,.cls-3,.cls-30,.cls-31,.cls-32,.cls-33,.cls-34,.cls-35,.cls-36,.cls-37,.cls-38,.cls-39,.cls-4,.cls-40,.cls-41,.cls-42,.cls-43,.cls-44,.cls-45,.cls-46,.cls-47,.cls-48,.cls-49,.cls-5,.cls-50,.cls-51,.cls-52,.cls-53,.cls-54,.cls-55,.cls-56,.cls-57,.cls-58,.cls-59,.cls-6,.cls-60,.cls-61,.cls-62,.cls-7,.cls-8,.cls-9{fill:none;stroke-width:1.22px;}.cls-2{stroke:#1b212b;}.cls-3{stroke:#0c1523;}.cls-4{stroke:#121216;}.cls-5{stroke:#989bcd;}.cls-6{stroke:#0d0f11;}.cls-7{stroke:#df8926;}.cls-8{stroke:#d2d2d6;}.cls-9{stroke:#e2e2e3;}.cls-10{stroke:#dfa74f;}.cls-11{stroke:#b9c1cf;}.cls-12{stroke:#9c7758;}.cls-13{stroke:#1e70b8;}.cls-14{stroke:#645448;}.cls-15{stroke:#8e6e52;}.cls-16{stroke:#47484d;}.cls-17{stroke:#ebebeb;}.cls-18{stroke:#6f7177;}.cls-19{stroke:#2272b9;}.cls-20{stroke:#8d6a40;}.cls-21{stroke:#eaeaea;}.cls-22{stroke:#ddcdae;}.cls-23{stroke:#70a8d9;}.cls-24{stroke:#1a71b9;}.cls-25{stroke:#3d3f45;}.cls-26{stroke:#1f72b9;}.cls-27{stroke:#1b6cb5;}.cls-28{stroke:#afb4bb;}.cls-29{stroke:#1d6fb7;}.cls-30{stroke:#d7d6d8;}.cls-31{stroke:#1f6db6;}.cls-32{stroke:#e9e8e9;}.cls-33{stroke:#adafb7;}.cls-34{stroke:#e0e1e0;}.cls-35{stroke:#5e5d5e;}.cls-36{stroke:#206bb5;}.cls-37{stroke:#16161a;}.cls-38{stroke:#a3a7b0;}.cls-39{stroke:#7a8291;}.cls-40{stroke:#a89fce;}.cls-41{stroke:#b7c0ce;}.cls-42{stroke:#1567b0;}.cls-43{stroke:#777d89;}.cls-44{stroke:#1a6ab3;}.cls-45{stroke:#1969b3;}.cls-46{stroke:#d8d8d9;}.cls-47{stroke:#b0acd6;}.cls-48{stroke:#1767b1;}.cls-49{stroke:#b2b4bb;}.cls-50{stroke:#dfe0e0;}.cls-51{stroke:#1766b0;}.cls-52{stroke:#8d929d;}.cls-53{stroke:#1965b0;}.cls-54{stroke:#a7acb6;}.cls-55{stroke:#1864af;}.cls-56{stroke:#dfdee0;}.cls-57{stroke:#aeb2ba;}.cls-58{stroke:#1760ab;}.cls-59{stroke:#3d5b9c;}.cls-60{stroke:#ead1a4;}.cls-61{stroke:#a59acb;}.cls-62{stroke:#947cb9;}.cls-63{fill:#1b212b;}.cls-64{fill:#121216;}.cls-65{fill:#989bcd;}.cls-66{fill:#0d0f11;}.cls-67{fill:#df8926;}.cls-68{fill:#d2d2d6;}.cls-69{fill:#e2e2e3;}.cls-70{fill:#dfa74f;}.cls-71{fill:#b9c1cf;}.cls-72{fill:#9c7758;}.cls-73{fill:#1e70b8;}.cls-74{fill:#645448;}.cls-75{fill:#8e6e52;}.cls-76{fill:#47484d;}.cls-77{fill:#ebebeb;}.cls-78{fill:#6f7177;}.cls-79{fill:#2272b9;}.cls-80{fill:#8d6a40;}.cls-81{fill:#eaeaea;}.cls-82{fill:#ddcdae;}.cls-83{fill:#70a8d9;}.cls-84{fill:#1a71b9;}.cls-85{fill:#3d3f45;}.cls-86{fill:#1f72b9;}.cls-87{fill:#1b6cb5;}.cls-88{fill:#afb4bb;}.cls-89{fill:#1d6fb7;}.cls-90{fill:#d7d6d8;}.cls-91{fill:#1f6db6;}.cls-92{fill:#e9e8e9;}.cls-93{fill:#adafb7;}.cls-94{fill:#e0e1e0;}.cls-95{fill:#5e5d5e;}.cls-96{fill:#206bb5;}.cls-97{fill:#16161a;}.cls-98{fill:#a3a7b0;}.cls-99{fill:#7a8291;}.cls-100{fill:#a89fce;}.cls-101{fill:#b7c0ce;}.cls-102{fill:#1567b0;}.cls-103{fill:#777d89;}.cls-104{fill:#1a6ab3;}.cls-105{fill:#1969b3;}.cls-106{fill:#d8d8d9;}.cls-107{fill:#b0acd6;}.cls-108{fill:#1767b1;}.cls-109{fill:#b2b4bb;}.cls-110{fill:#dfe0e0;}.cls-111{fill:#1766b0;}.cls-112{fill:#8d929d;}.cls-113{fill:#1965b0;}.cls-114{fill:#a7acb6;}.cls-115{fill:#1864af;}.cls-116{fill:#dfdee0;}.cls-117{fill:#aeb2ba;}.cls-118{fill:#1760ab;}.cls-119{fill:#3d5b9c;}.cls-120{fill:#ead1a4;}.cls-121{fill:#a59acb;}.cls-122{fill:#947cb9;}</style></defs><title>avatar-sattelite-2</title><rect class="cls-1" width="1080" height="1080"/><path class="cls-2" d="M94.08,45.19c74.59-2,159,6.2,236.69,4.08s168.5-2,244.85,0,173.44-7.47,244.85,0,168.42-29.75,216.29,28.56C995.83,13.07,896.46,46.49,824.55,41.1s-168.46.33-244.85,0-167.4-4.44-244.85,0S168.63,27,94.08,45.19Z"/><path class="cls-3" d="M32.86,110.48c-12.77,140.67-.16,287,0,428.49s-12.81,291.54,0,432.57c18.49,89.33,119,65,195.88,65.3s176.26,2.94,257.1,0,180.09,7.92,261.18,0,176.49,20.44,253-4.08c-.2-13.27,12-34.77,28.57-24.49,31.34-91.29,12.28-190.45,16.32-289.74s-2.94-205.68,0-306.07-5.59-208.77,4.08-306.06c-1.51-11.35-6.69-19.83-12.24-28.57-47.87-58.31-144.87-21.1-216.29-28.56s-168.5,2-244.85,0-167.11-2.13-244.85,0-162.1-6.13-236.69-4.08c-37.71,9.18-53.5,28-61.22,65.29m314.23,20.4c23.06,6.86,8.41,50-15,39.47s-7.75-46.24,15-39.47m371.36,97.94a22.76,22.76,0,0,0,4.08,0c9.51.37,15.67-2.4,24.49-4.08-12.45-12.61,16.16-55,35.5-66.51s74.07,26.32,42.36,50.52-31.46,37.91-37,77.25,10.89,55.13,35.66,78.51,7.31,64.32-22.2,69.62S738,461,703.47,447.85s-59.54,3.22-34.32,34.32-37,43-31.42,74,35.42,12.12,49.09-20.28,52.61-6.77,73.34,6.24,48,31,71.29,43S880.58,613,903,627.81,951.1,651,972.4,668.62,966.32,729.1,952,748s-26.69,51-43,71.3S886.62,872.58,866.38,891s-49.58-26.9-71.33-32.73-49.3-32-72.85-41.42-48.15-29.59-70.06-44.2-49.75-28.93-72.44-41.83c6.82-28.2,15.06-30.64,24.44-61.25s3.51-39.95-21.38-21.39-9.63,44.57-34.69,55.1S495,706.45,502.16,743s2.21,51.46-15.38,74.39-45.22-25.34-62.15-21.34c-17.8,56.84-76.72,11.26-102-16.33,2.89-18.08,16.73-31.13,20.4-49-4.78-16.69-57.42-26.44-35.67-47.91s22.45-32,60.15-33.7,12.41-37.47,8.29-57.26,27.63-34,35.67-57.95-43.87-23.83-27.63,13.18c-25.43,32.36-51.09,38.24-72.48,11.23s-62.64-28.2-85.45-53.26S165,473.84,140.27,456.05,62.78,418.79,82.89,385s30.16-50,51.67-83,28.2-55.78,52.36-86.39,47.13,15.22,79.49,24.57S322,275.8,354,291.26s49.46,30.77,83.86,50.81,44.77,38,10.2,77.54,27.3,41.78,36.81.08,65.25-28,86.64-52.12c-4.53-15.79-8.61-35.95-24.49-44.89,4.82-30.56-12-131.15,36.85-138.62s88.93,49.46,134.55,44.76m-265.26-8.16c-1.1,24.81-24.93-2.57,0,0M947,302.28c15.22,6.24,4.32,38.2-13.18,29.42s-8.33-38.23,13.18-29.42m-24.49,191.8c14.9,5.31,6,34.49-10.93,27.18s-5.59-33.05,10.93-27.18M171.61,628.75a38.18,38.18,0,0,0,24.49,24.49c-7.31,10.16-21.83,14.36-24.49,28.56-7.34-9.38-16.12-20.73-28.56-24.48,8.44-9.88,22-17.18,28.56-28.57M143.05,763.42c4.08,4.08-6.57,12.36-10.94,6.77s8.16-9.55,10.94-6.77M257.31,873.6c-12.32,38.24-50.52,28.61-65.29,0,23-21.91,46-31.13,65.29,0m265.26,24.49c9.79,4.77.2,28.65-11,23s-3.39-30,11-23m151,16.32c15.79,6.12,4.41,35.55-12.28,28.53S653.89,906.82,673.56,914.41Z"/><path class="cls-4" d="M1000,1032.76c77.33-24.77,44.93-126.67,49-195.88s-.12-169.48,0-244.86,3.71-167.44,0-244.85,10.29-163.64,0-240.77c-9.67,97.29-1.14,205.67-4.08,306.06s4,206.78,0,306.07,15,198.45-16.32,289.74C1012,998,999.83,1019.49,1000,1032.76Z"/><path class="cls-5" d="M347.09,130.88c-22.73-6.77-38.36,28.9-15,39.47S370.15,137.74,347.09,130.88Z"/><path class="cls-6" d="M747,224.74c2-.36,6.57.86,8.16,0,6.24-3.26,10-9.63,16.32-12.24,7.06,20.28-24.57,34.61-32.65,53.05-8.81,10.33-19.26,19.26-28.56,28.57-6.29,12.81-20.41,28.12-32.65,32.65C675,309.71,696.45,303.59,702.13,290c15.3-17.92,31.54-34.4,44.89-53.05-6.08,3.71-40.77,8.69-44.89-4.08-9.06-1.72,13.18-4.37,16.32-4.09-45.62,4.7-85.7-52.23-134.55-44.76s-32,108.06-36.85,138.62c15.88,8.94,20,29.1,24.49,44.89-21.39,24.12-77.13,10.45-86.64,52.12s-71.37,39.42-36.81-.08,24.16-57.5-10.2-77.54-51.83-35.3-83.86-50.81-55.26-41.79-87.62-51.13S211.12,185,186.92,215.56,156.06,269,134.56,302,103,351.09,82.89,385s32.69,53.3,57.38,71.09,62.85,24,85.62,49.05,64.11,26.24,85.45,53.26,47.05,21.13,72.48-11.23c-16.24-37,35.67-37.13,27.63-13.18s-39.83,38.2-35.67,57.95,29.42,55.54-8.29,57.26-38.4,12.2-60.15,33.7,30.89,31.22,35.67,47.91c-3.67,17.84-17.51,30.89-20.4,49,25.3,27.59,84.22,73.17,102,16.33,16.93-4,44.56,44.27,62.15,21.34s22.57-37.83,15.38-74.39,20.82-29.31,45.91-39.79,9.8-36.49,34.69-55.1,30.77-9.18,21.38,21.39-17.62,33.05-24.44,61.25c22.69,12.9,50.52,27.22,72.44,41.83s46.56,34.73,70.06,44.2,51.1,35.58,72.85,41.42,51.05,51,71.33,32.73S892.7,839.61,909,819.33,937.67,767,952,748s41.71-61.74,20.4-79.41-46.93-26-69.37-40.81S854.79,597,831.45,585.13s-50.52-30-71.29-43-59.67-38.64-73.34-6.24-43.5,51.38-49.09,20.28,56.64-42.93,31.42-74-.16-47.42,34.32-34.32,68.32-8.45,97.86-13.72,47-46.23,22.2-69.62S782.32,325.3,787.87,286s5.3-53.05,37-77.25-23-62.07-42.36-50.52-47.95,53.9-35.5,66.51m57.13-57.13c24.4,8.33,11.87,56.48-16.65,45.18s-13.63-55.5,16.65-45.18M665.4,245.15c-.45.9-5.1,7.22-4.08,8.16a10.9,10.9,0,0,1,4.08,0c6.32-3,13.38-6.49,20.4-8.16,5.15,7.87,12.25,16,20.41,20.4-6.78,18.77-25.26,32.32-36.73,49-15-5.34-31.63-21.63-36.73-36.72-2.16-2.7-5.92-5.35-8.16-8.17-17.38-21.71-35.83-45-40.81-73.45,28.73,2.57,78.8,22.57,81.62,49m89.78,151c15.51,8.29,31,18.49,49,20.41-49.87,33.5-131.45,25.3-175.48-16.33-57.34-42.64-93.41-127-53-191.8,29.63,81,105.49,145.93,179.56,187.72m-404,163.24c-44.6-13.23-69.17-42.77-113-62.44s-63.33-48.07-112.35-67.21-21.42-62.77,4.09-99.82,42.64-75.38,66.23-113.33c49.42,22,105.24,57.18,151.93,84.76s128.59,54.16,89.78,108-54.36,95.45-86.64,150.06m420.33-253c-21.67-18.69,9-46.48,8.16-69.37,9.92,20.36-.73,50.19-8.16,69.37m-44.89,44.89c.29-1.1-4-3.26-4.08-4.08-14.24,13.39-19.06,1.67-32.65-8.16,14.94-17.14,26-36,40.81-53.05,23.35,17.42,38.24,41.13,60.89,61.54s37.75,69.21,1.67,55.46-60.68-20.86-66.64-51.71M608.27,404.3c11.79,10.29,37.7,10.45,35.26,31.43s-32.45,5.38-43.43-2.86c-37.42-28.12-34.93-66.11,8.17-28.57m0,49c27.54,15.18,61.33,26,39.79,60.2s-28.61,42.6-47,75.41-26.93,37.1-44.89,73.46-37.42,19-66.23-.94C458.38,639.52,424.59,619,392,600.18c27.91-68,77.41-127.36,114.26-191.8,7.68,8.25,1.72,27.84,16.33,32.65-3.76-5.55,3.92-9.92,4.08-12.24-24.61-30.77,15.22-41,31.63-19.39s27.26,31.34,50,43.87M449.11,469.6c-.57,14.08-14.12,23.46-16.32,36.72-11.92,2.49-18.08-9.75-28.57-12.24.57-14.12,14.12-23.46,16.33-36.73,11.91-2.49,18.07,9.76,28.56,12.25m142.83,253c21.18-57.7,66.52-111.77,95.09-166.09s37.79-10,73.25,1.84,48,35.66,81.62,49,45.46,36.28,81.61,49,50.08,42.56,23.8,70.72S920,786.15,899,809.25s-26.16,73.86-56.81,63.09-54.85-36.73-83.82-50.85-52.56-34.32-81-49.58-55.58-37.42-85.37-49.3M649.08,592c-3.11,14.86-17.35,25.88-20.41,40.81-10.2-2.69-20.85-9.91-28.57-16.32,5.23-13.31,14.41-23.92,20.41-36.73,11.55-1,17.55,12.24,28.57,12.24M428.71,636.91c11.75,8.49,24.52,16.61,36.73,24.49,13.38,8.65,25.95,19.75,40.8,24.48,2.09,7.84-7.5,9.1-12.24,12.25-3.06,3.06-4.08,8-4.08,12.24-22.24-2-41-19.71-57.13-32.65-21.26-13.3-53.05-29.18-24.49-57.13,7,5.34,14.74,10.69,20.41,16.32m20.4,69.38c15.31,9.47,43.3,20.69,40.81,40.81s.86,57.37-16.32,57.13c-29.83-.41-58.73-40.48-84.68-54.07s-59.21-39.71-74.48-64.28c20.65-8.2,49.5-43,70.4-25.46s40.6,33,64.27,45.87m-77.53,93.86C360.15,793,347,787.42,337.91,776.68s6.53-32.93,17.34-33.66c21.1-1.39,40,39.09,61.22,40.8C415.57,808,386.14,821.33,371.58,800.15Z"/><path class="cls-7" d="M804.15,167.61c-30.28-10.32-45.14,33.87-16.65,45.18s41-36.85,16.65-45.18M783.74,188C781.5,155.08,816.84,190,783.74,188Z"/><path class="cls-8" d="M624.59,269.63c.12-6.16,33.67-31.17,40.81-24.48-2.82-26.4-52.89-46.4-81.62-49C588.76,224.62,607.21,247.92,624.59,269.63Z"/><path class="cls-9" d="M628.67,400.22a137.8,137.8,0,0,1-12.24-16.32c12.24-16.2,34.36-16.53,44.89-32.65,18.73-1.59,38.15,22.08,52,29.59s42.24,31.26,41.83,15.3c-74.07-41.79-149.93-106.75-179.56-187.72C535.26,273.22,571.33,357.58,628.67,400.22Z"/><path class="cls-10" d="M755.18,224.74c-3.06,3.84-5.63,8.74-8.16,12.25-13.35,18.65-29.59,35.13-44.89,53.05,1.26-1,7.51-.94,8.16,0,9.63-6.74,20.48-16.41,28.56-24.49,8.08-18.44,39.71-32.77,32.65-53.05C765.14,215.11,761.42,221.48,755.18,224.74Z"/><path class="cls-11" d="M351.17,559.38c32.28-54.61,47.83-96.23,86.64-150.06s-43.1-80.39-89.78-108-102.51-62.8-151.93-84.76c-23.59,37.95-40.73,76.27-66.23,113.33s-53.1,80.64-4.09,99.82,68.52,47.54,112.35,67.21,68.44,49.21,113,62.44M257.31,261.47c-16.69,27.22-32.36,54.44-49,81.62-18-10.77-34.77-22.65-53.05-32.65,13.87-28,31.71-53.25,44.89-81.62,20.08,7.8,38.28,21.55,57.13,32.65m61.21,32.65c-5.91,32.07-33.95,55-44.89,85.7-15.09-11.63-61-20.53-49.25-45.18s29.75-42.93,37-69.09c21.18,4.25,35.91,24.32,57.13,28.57m65.3,40.81c-13.39,28.2-36.53,51.29-44.89,81.62-21.34-3.88-36.77-22.86-57.13-28.57,8.61-30.08,32.56-53,44.89-81.62,21,4.78,36.85,21.22,57.13,28.57M155.29,432.87c-18.36-10-35.79-20.85-53-32.65,15.1-26,31.58-50.6,44.89-77.54,17.46,5.6,60.52,20.25,47.7,43.67s-24.4,44.65-39.54,66.52M445,371.66c-11.63,28.36-32.77,52.8-44.89,81.61-19.63-4.77-34.6-20.48-53.05-28.56,8-29.51,30.28-53.5,40.81-81.62,21.14,4.45,37.34,20.44,57.13,28.57M265.47,388c-12.57,28.65-34.73,52.36-44.89,81.62-16-9.47-61.58-20.37-49.25-45.18s28.52-39.46,37-65c22,1.47,37.3,20.61,57.13,28.57m61.22,36.73c-6.66,28.85-23.14,38.56-35.79,66.23s-42.24-3.88-62.16-13.18c7.51-28.36,23.18-38.53,35.79-66.23s42.28,3.91,62.16,13.18M392,461.43C380.92,490,357.42,514,347.09,543.05c-22.57-.45-37.38-20.52-57.13-28.56,9.79-29.59,33.87-52.65,44.89-81.62C356.23,436.79,369.94,458.58,392,461.43Z"/><path class="cls-12" d="M722.53,228.82c-5.71,1.23-11.92,5.68-20.4,4.09,4.12,12.77,38.81,7.79,44.89,4.08,2.53-3.51,5.1-8.41,8.16-12.25-1.59.86-6.2-.36-8.16,0C738.2,226.42,732,229.19,722.53,228.82Z"/><path class="cls-13" d="M257.31,261.47c-18.85-11.1-37.05-24.85-57.13-32.65-13.18,28.37-31,53.59-44.89,81.62,18.28,10,35.09,21.88,53.05,32.65C225,315.91,240.62,288.69,257.31,261.47Z"/><path class="cls-14" d="M702.13,232.91c8.48,1.59,14.69-2.86,20.4-4.09a22.76,22.76,0,0,1-4.08,0C715.31,228.54,693.07,231.19,702.13,232.91Z"/><path class="cls-15" d="M771.5,306.36c7.43-19.18,18.08-49,8.16-69.37C780.48,259.88,749.83,287.67,771.5,306.36Z"/><path class="cls-16" d="M624.59,269.63c2.24,2.82,6,5.47,8.16,8.17-.16-6.62,1.55-4,4.08-8.17,5.76-9.38,14-13.91,24.49-16.32-1-.94,3.63-7.26,4.08-8.16C658.26,238.46,624.71,263.47,624.59,269.63Z"/><path class="cls-17" d="M665.4,253.31c-7,8.61-20.24,8.28-28.57,16.32-2.53,4.13-4.24,1.55-4.08,8.17,5.1,15.09,21.71,31.38,36.73,36.72,11.47-16.65,29.95-30.2,36.73-49C698.05,261.1,691,253,685.8,245.15,678.78,246.82,671.72,250.33,665.4,253.31Z"/><path class="cls-18" d="M636.83,269.63c8.33-8,21.59-7.71,28.57-16.32a10.9,10.9,0,0,0-4.08,0C650.87,255.72,642.59,260.25,636.83,269.63Z"/><path class="cls-19" d="M318.52,294.12c-21.22-4.25-35.95-24.32-57.13-28.57-7.26,26.16-25.3,44.4-37,69.09s34.16,33.55,49.25,45.18C284.57,349.09,312.61,326.19,318.52,294.12Z"/><path class="cls-20" d="M710.29,290c-.94.65,0,4.08,0,4.08,9.3-9.31,19.75-18.24,28.56-28.57C730.77,273.63,719.92,283.3,710.29,290Z"/><path class="cls-21" d="M722.53,347.17c-1.3-13.43,11.26-32.65,20.41-40.81,7.3,14.94-11.27,31.55-16.33,44.89,6,30.85,30.53,38,66.64,51.71s21-35.06-1.67-55.46S754,303.38,730.69,286c-14.81,17-25.87,35.91-40.81,53.05C703.47,348.84,708.29,360.56,722.53,347.17Z"/><path class="cls-22" d="M710.29,294.12s-.94-3.43,0-4.08c-.65-.94-6.9-1-8.16,0-5.68,13.55-27.18,19.67-24.49,36.73C689.88,322.24,704,306.93,710.29,294.12Z"/><path class="cls-23" d="M947,302.28c-21.51-8.81-30.69,20.69-13.18,29.42S962.2,308.52,947,302.28Z"/><path class="cls-24" d="M383.82,334.93c-20.28-7.35-36.16-23.79-57.13-28.57C314.36,335,290.41,357.9,281.8,388c20.36,5.71,35.79,24.69,57.13,28.57C347.29,386.22,370.43,363.13,383.82,334.93Z"/><path class="cls-25" d="M722.53,347.17c.08.82,4.37,3,4.08,4.08,5.06-13.34,23.63-29.95,16.33-44.89C733.79,314.52,721.23,333.74,722.53,347.17Z"/><path class="cls-26" d="M155.29,432.87c15.14-21.87,26.77-43.14,39.54-66.52s-30.24-38.07-47.7-43.67c-13.31,26.94-29.79,51.55-44.89,77.54C119.5,412,136.93,422.83,155.29,432.87Z"/><path class="cls-27" d="M445,371.66c-19.79-8.13-36-24.12-57.13-28.57-10.53,28.12-32.85,52.11-40.81,81.62,18.45,8.08,33.42,23.79,53.05,28.56C412.26,424.46,433.4,400,445,371.66Z"/><path class="cls-28" d="M628.67,400.22c44,41.63,125.61,49.83,175.48,16.33-18-1.92-33.46-12.12-49-20.41.41,16-28-7.79-41.83-15.3s-33.3-31.18-52-29.59c-10.53,16.12-32.65,16.45-44.89,32.65A137.8,137.8,0,0,0,628.67,400.22Z"/><path class="cls-29" d="M265.47,388c-19.83-8-35.09-27.1-57.13-28.57-8.49,25.55-24.73,40.16-37,65s33.26,35.71,49.25,45.18C230.74,440.34,252.9,416.63,265.47,388Z"/><path class="cls-30" d="M600.1,432.87c21.84-3.47-5.55-29.55-8.16-32.65,6.29-1.51,9.8,5.84,16.33,4.08C565.17,366.76,562.68,404.75,600.1,432.87Z"/><path class="cls-31" d="M326.69,424.71c-19.88-9.27-49.55-40.89-62.16-13.18s-28.28,37.87-35.79,66.23c19.92,9.3,49.51,40.85,62.16,13.18S320,453.56,326.69,424.71Z"/><path class="cls-32" d="M526.65,428.79c2.73,3.38,5.88,3.83,8.16,8.16,7.39,13.92,11.92,16.69,24.49,28.57,13.14,7.63,28.93,13.46,40.8,24.48,7.27-10.49,16.49-24.48,8.17-36.73-22.73-12.53-33.55-22.28-50-43.87S502,398,526.65,428.79Z"/><path class="cls-33" d="M600.1,432.87c11,8.24,41,23.79,43.43,2.86s-23.47-21.14-35.26-31.43c-6.53,1.76-10-5.59-16.33-4.08C594.55,403.32,621.94,429.4,600.1,432.87Z"/><path class="cls-34" d="M489.92,661.4c12.69-21.67,41-50,48.65-73.78s52-54.2,49.29-77.21c-21.71-17.31-52.23-38.08-61.21-69.38a13.14,13.14,0,0,1-4.08,0c-14.61-4.81-8.65-24.4-16.33-32.65C469.39,472.82,419.89,532.2,392,600.18c32.61,18.78,66.4,39.34,97.94,61.22m-57.13-85.7C455.36,598.27,412.67,600.59,432.79,575.7Z"/><path class="cls-35" d="M522.57,441a13.14,13.14,0,0,0,4.08,0c.37-.08,8.24-4.37,8.16-4.08-2.28-4.33-5.43-4.78-8.16-8.16C526.49,431.11,518.81,435.48,522.57,441Z"/><path class="cls-36" d="M392,461.43c-22-2.85-35.75-24.64-57.13-28.56-11,29-35.1,52-44.89,81.62,19.75,8,34.56,28.11,57.13,28.56C357.42,514,380.92,490,392,461.43Z"/><path class="cls-37" d="M526.65,441c9,31.3,39.5,52.07,61.21,69.38,12.61,10,29.22,15.5,44.89,20.4-15.67-28.77-56.8-33-73.45-65.29-12.57-11.88-17.1-14.65-24.49-28.57C534.89,436.66,527,441,526.65,441Z"/><path class="cls-38" d="M559.3,465.52C576,497.84,617.08,502,632.75,530.81c-15.67-4.9-32.28-10.37-44.89-20.4,2.74,23-41.66,53.41-49.29,77.21s-36,52.11-48.65,73.78c28.81,20,48.28,37.3,66.23.94s26.49-40.65,44.89-73.46,25.47-41.26,47-75.41-12.25-45-39.79-60.2c8.32,12.25-.9,26.24-8.17,36.73-11.87-11-27.66-16.85-40.8-24.48m24.48,102C582.76,590.35,560.85,568.8,583.78,567.54Z"/><path class="cls-39" d="M449.11,469.6c-10.49-2.49-16.65-14.74-28.56-12.25-2.21,13.27-15.76,22.61-16.33,36.73,10.49,2.49,16.65,14.73,28.57,12.24C435,493.06,448.54,483.68,449.11,469.6Z"/><path class="cls-40" d="M922.49,494.08C906,488.21,894.66,514,911.56,521.26S937.39,499.39,922.49,494.08Z"/><path class="cls-41" d="M591.94,722.61c29.79,11.88,56.93,34.08,85.37,49.3s52,35.46,81,49.58,53.13,40.12,83.82,50.85,35.75-40,56.81-63.09,22-54.11,48.36-82.23,12.32-58-23.8-70.72-48-35.67-81.61-49-46.2-37.1-81.62-49S715.63,502.2,687,556.52s-73.91,108.39-95.09,166.09m171.4-151c-11.51,29-32.65,55.7-49,81.62-18.9-7.51-34.08-22.45-53-28.57,11.1-28.53,33.79-53,44.89-81.62,21,3.19,37.75,19.84,57.13,28.57m65.29,40.81c-15.22,28-35,52.93-49,81.61-15.38-13.42-60.48-23.22-47.7-47.7S760,603.82,771.5,579.78c20.08,7.75,38.28,21.55,57.13,32.65m8.17,4.08c13.58,7.71,62.92,32.2,47.91,47.91s-24.53,58.6-40.77,65.33-62-30.28-46.69-46.68,25.34-48.28,39.55-66.56M661.32,747.1c-14.9-13.55-61.22-22.86-47.71-47.71s28.28-41,39.55-66.56c17.22,9.71,63,23.14,47.7,47.71s-27,41.17-39.54,66.56M955.14,690c-14.08,28.69-32.61,54.32-49,81.62-14.81-16.44-59.95-21.63-45.87-45.91S887,682.09,898,657.32c20.53,6.57,39.71,21.18,57.13,32.64M726.61,783.82c-21.14-4.44-37.34-20.44-57.13-28.56,25.91-31.06,23.42-95.13,73.78-69.7s-3.06,59.7-16.65,98.26M836.8,743c-16.25,27.46-32.41,54.43-49,81.61-18.53-8.16-33.35-23.75-53.06-28.56,7.59-27.55,22.82-47.63,36.41-73.79S818,738.53,836.8,743m20.4,118.34c-18.49-5-64.68-19.26-51.79-43.66s26.33-46.49,39.55-70.6c13.34,15.42,58.35,20.2,49.25,45.21S864.38,836,857.2,861.36Z"/><path class="cls-42" d="M763.34,571.62c-19.38-8.73-36.08-25.38-57.13-28.57-11.1,28.57-33.79,53.09-44.89,81.62,19,6.12,34.15,21.06,53,28.57C730.69,627.32,751.83,600.59,763.34,571.62Z"/><path class="cls-43" d="M649.08,592c-11,0-17-13.26-28.57-12.24-6,12.81-15.18,23.42-20.41,36.73,7.72,6.41,18.37,13.63,28.57,16.32C631.73,617.9,646,606.88,649.08,592Z"/><path class="cls-44" d="M828.63,612.43c-18.85-11.1-37-24.9-57.13-32.65-11.47,24-26.81,42-39.54,66.56s32.32,34.28,47.7,47.7C793.58,665.36,813.41,640.46,828.63,612.43Z"/><path class="cls-45" d="M836.8,616.51c-14.21,18.28-24.24,50.11-39.55,66.56s30.49,53.42,46.69,46.68,25.75-49.58,40.77-65.33S850.38,624.22,836.8,616.51Z"/><path class="cls-46" d="M432.79,677.72c-3.76-3.92-5.92-11.26-12.24-12.24,7-8.29,1.26-20.24,8.16-28.57-5.67-5.63-13.39-11-20.41-16.32C379.74,648.54,411.53,664.42,432.79,677.72Z"/><path class="cls-47" d="M171.61,628.75c-6.57,11.39-20.12,18.69-28.56,28.57,12.44,3.75,21.22,15.1,28.56,24.48,2.66-14.2,17.18-18.4,24.49-28.56A38.18,38.18,0,0,1,171.61,628.75Z"/><path class="cls-48" d="M661.32,747.1c12.53-25.39,24.24-42,39.54-66.56s-30.48-38-47.7-47.71c-11.27,25.55-26,41.67-39.55,66.56S646.42,733.55,661.32,747.1Z"/><path class="cls-49" d="M432.79,677.72c16.12,12.94,34.89,30.65,57.13,32.65,0-4.21,1-9.18,4.08-12.24-16.89,7.46-25.79-2.21-40.81-8.17-3.63-14.4,19.47-17.75,12.25-28.56-12.21-7.88-25-16-36.73-24.49-6.9,8.33-1.19,20.28-8.16,28.57C426.87,666.46,429,673.8,432.79,677.72Z"/><path class="cls-50" d="M473.6,804.23c-5.39.49-37.18-34.65-53.05-36.73,12.57-18.93,23.54-39.14,28.56-61.21-23.67-12.86-43.42-28.32-64.27-45.87s-49.75,17.26-70.4,25.46c15.27,24.57,48.53,50.73,74.48,64.28S443.77,803.82,473.6,804.23Z"/><path class="cls-51" d="M955.14,690c-17.42-11.46-36.6-26.07-57.13-32.64-11.06,24.77-23.67,44.11-37.71,68.35s31.06,29.47,45.87,45.91C922.53,744.28,941.06,718.65,955.14,690Z"/><path class="cls-52" d="M494,698.13c4.74-3.15,14.33-4.41,12.24-12.25-14.85-4.73-27.42-15.83-40.8-24.48,7.22,10.81-15.88,14.16-12.25,28.56C468.21,695.92,477.11,705.59,494,698.13Z"/><path class="cls-53" d="M726.61,783.82c13.59-38.56,67-72.84,16.65-98.26s-47.87,38.64-73.78,69.7C689.27,763.38,705.47,779.38,726.61,783.82Z"/><path class="cls-54" d="M473.6,804.23c17.18.24,13.79-37,16.32-57.13s-25.5-31.34-40.81-40.81c-5,22.07-16,42.28-28.56,61.21,15.87,2.08,47.66,37.22,53.05,36.73m-20.41-40.81C425.57,758.85,447.48,736.85,453.19,763.42Z"/><path class="cls-55" d="M836.8,743c-18.82-4.49-52-46.85-65.62-20.74s-28.82,46.24-36.41,73.79c19.71,4.81,34.53,20.4,53.06,28.56C804.39,797.45,820.55,770.48,836.8,743Z"/><path class="cls-56" d="M371.58,800.15c-7.76-7.84.2-33.87-24.49-36.73-.24-7.71,5.8-13.43,8.16-20.4-10.81.73-26.44,22.93-17.34,33.66S360.15,793,371.58,800.15Z"/><path class="cls-57" d="M371.58,800.15c14.56,21.18,44,7.87,44.89-16.33-21.23-1.71-40.12-42.19-61.22-40.8-2.36,7-8.4,12.69-8.16,20.4C371.78,766.28,363.82,792.31,371.58,800.15Z"/><path class="cls-58" d="M857.2,861.36c7.18-25.34,27.91-44.07,37-69.05S858.3,762.52,845,747.1c-13.22,24.11-26.65,46.23-39.55,70.6S838.71,856.38,857.2,861.36Z"/><path class="cls-59" d="M143.05,763.42c-2.78-2.78-15.31,1.18-10.94,6.77S147.13,767.5,143.05,763.42Z"/><path class="cls-60" d="M257.31,873.6C238,842.47,215,851.69,192,873.6,206.79,902.21,245,911.84,257.31,873.6Z"/><path class="cls-61" d="M522.57,898.09c-14.41-7-22.2,17.38-11,23S532.36,902.86,522.57,898.09Z"/><path class="cls-62" d="M673.56,914.41c-19.67-7.59-28.93,21.51-12.28,28.53S689.35,920.53,673.56,914.41Z"/><path class="cls-63" d="M94.08,45.19c74.59-2,159,6.2,236.69,4.08s168.5-2,244.85,0,173.44-7.47,244.85,0,168.42-29.75,216.29,28.56C995.83,13.07,896.46,46.49,824.55,41.1s-168.46.33-244.85,0-167.4-4.44-244.85,0S168.63,27,94.08,45.19Z"/><path class="cls-1" d="M32.86,110.48c-12.77,140.67-.16,287,0,428.49s-12.81,291.54,0,432.57c18.49,89.33,119,65,195.88,65.3s176.26,2.94,257.1,0,180.09,7.92,261.18,0,176.49,20.44,253-4.08c-.2-13.27,12-34.77,28.57-24.49,31.34-91.29,12.28-190.45,16.32-289.74s-2.94-205.68,0-306.07-5.59-208.77,4.08-306.06c-1.51-11.35-6.69-19.83-12.24-28.57-47.87-58.31-144.87-21.1-216.29-28.56s-168.5,2-244.85,0-167.11-2.13-244.85,0-162.1-6.13-236.69-4.08c-37.71,9.18-53.5,28-61.22,65.29m314.23,20.4c23.06,6.86,8.41,50-15,39.47s-7.75-46.24,15-39.47m371.36,97.94a22.76,22.76,0,0,0,4.08,0c9.51.37,15.67-2.4,24.49-4.08-12.45-12.61,16.16-55,35.5-66.51s74.07,26.32,42.36,50.52-31.46,37.91-37,77.25,10.89,55.13,35.66,78.51,7.31,64.32-22.2,69.62S738,461,703.47,447.85s-59.54,3.22-34.32,34.32-37,43-31.42,74,35.42,12.12,49.09-20.28,52.61-6.77,73.34,6.24,48,31,71.29,43S880.58,613,903,627.81,951.1,651,972.4,668.62,966.32,729.1,952,748s-26.69,51-43,71.3S886.62,872.58,866.38,891s-49.58-26.9-71.33-32.73-49.3-32-72.85-41.42-48.15-29.59-70.06-44.2-49.75-28.93-72.44-41.83c6.82-28.2,15.06-30.64,24.44-61.25s3.51-39.95-21.38-21.39-9.63,44.57-34.69,55.1S495,706.45,502.16,743s2.21,51.46-15.38,74.39-45.22-25.34-62.15-21.34c-17.8,56.84-76.72,11.26-102-16.33,2.89-18.08,16.73-31.13,20.4-49-4.78-16.69-57.42-26.44-35.67-47.91s22.45-32,60.15-33.7,12.41-37.47,8.29-57.26,27.63-34,35.67-57.95-43.87-23.83-27.63,13.18c-25.43,32.36-51.09,38.24-72.48,11.23s-62.64-28.2-85.45-53.26S165,473.84,140.27,456.05,62.78,418.79,82.89,385s30.16-50,51.67-83,28.2-55.78,52.36-86.39,47.13,15.22,79.49,24.57S322,275.8,354,291.26s49.46,30.77,83.86,50.81,44.77,38,10.2,77.54,27.3,41.78,36.81.08,65.25-28,86.64-52.12c-4.53-15.79-8.61-35.95-24.49-44.89,4.82-30.56-12-131.15,36.85-138.62s88.93,49.46,134.55,44.76m-265.26-8.16c-1.1,24.81-24.93-2.57,0,0M947,302.28c15.22,6.24,4.32,38.2-13.18,29.42s-8.33-38.23,13.18-29.42m-24.49,191.8c14.9,5.31,6,34.49-10.93,27.18s-5.59-33.05,10.93-27.18M171.61,628.75a38.18,38.18,0,0,0,24.49,24.49c-7.31,10.16-21.83,14.36-24.49,28.56-7.34-9.38-16.12-20.73-28.56-24.48,8.44-9.88,22-17.18,28.56-28.57M143.05,763.42c4.08,4.08-6.57,12.36-10.94,6.77s8.16-9.55,10.94-6.77M257.31,873.6c-12.32,38.24-50.52,28.61-65.29,0,23-21.91,46-31.13,65.29,0m265.26,24.49c9.79,4.77.2,28.65-11,23s-3.39-30,11-23m151,16.32c15.79,6.12,4.41,35.55-12.28,28.53S653.89,906.82,673.56,914.41Z"/><path class="cls-64" d="M1000,1032.76c77.33-24.77,44.93-126.67,49-195.88s-.12-169.48,0-244.86,3.71-167.44,0-244.85,10.29-163.64,0-240.77c-9.67,97.29-1.14,205.67-4.08,306.06s4,206.78,0,306.07,15,198.45-16.32,289.74C1012,998,999.83,1019.49,1000,1032.76Z"/><path class="cls-65" d="M347.09,130.88c-22.73-6.77-38.36,28.9-15,39.47S370.15,137.74,347.09,130.88Z"/><path class="cls-66" d="M747,224.74c2-.36,6.57.86,8.16,0,6.24-3.26,10-9.63,16.32-12.24,7.06,20.28-24.57,34.61-32.65,53.05-8.81,10.33-19.26,19.26-28.56,28.57-6.29,12.81-20.41,28.12-32.65,32.65C675,309.71,696.45,303.59,702.13,290c15.3-17.92,31.54-34.4,44.89-53.05-6.08,3.71-40.77,8.69-44.89-4.08-9.06-1.72,13.18-4.37,16.32-4.09-45.62,4.7-85.7-52.23-134.55-44.76s-32,108.06-36.85,138.62c15.88,8.94,20,29.1,24.49,44.89-21.39,24.12-77.13,10.45-86.64,52.12s-71.37,39.42-36.81-.08,24.16-57.5-10.2-77.54-51.83-35.3-83.86-50.81-55.26-41.79-87.62-51.13S211.12,185,186.92,215.56,156.06,269,134.56,302,103,351.09,82.89,385s32.69,53.3,57.38,71.09,62.85,24,85.62,49.05,64.11,26.24,85.45,53.26,47.05,21.13,72.48-11.23c-16.24-37,35.67-37.13,27.63-13.18s-39.83,38.2-35.67,57.95,29.42,55.54-8.29,57.26-38.4,12.2-60.15,33.7,30.89,31.22,35.67,47.91c-3.67,17.84-17.51,30.89-20.4,49,25.3,27.59,84.22,73.17,102,16.33,16.93-4,44.56,44.27,62.15,21.34s22.57-37.83,15.38-74.39,20.82-29.31,45.91-39.79,9.8-36.49,34.69-55.1,30.77-9.18,21.38,21.39-17.62,33.05-24.44,61.25c22.69,12.9,50.52,27.22,72.44,41.83s46.56,34.73,70.06,44.2,51.1,35.58,72.85,41.42,51.05,51,71.33,32.73S892.7,839.61,909,819.33,937.67,767,952,748s41.71-61.74,20.4-79.41-46.93-26-69.37-40.81S854.79,597,831.45,585.13s-50.52-30-71.29-43-59.67-38.64-73.34-6.24-43.5,51.38-49.09,20.28,56.64-42.93,31.42-74-.16-47.42,34.32-34.32,68.32-8.45,97.86-13.72,47-46.23,22.2-69.62S782.32,325.3,787.87,286s5.3-53.05,37-77.25-23-62.07-42.36-50.52-47.95,53.9-35.5,66.51m57.13-57.13c24.4,8.33,11.87,56.48-16.65,45.18s-13.63-55.5,16.65-45.18M665.4,245.15c-.45.9-5.1,7.22-4.08,8.16a10.9,10.9,0,0,1,4.08,0c6.32-3,13.38-6.49,20.4-8.16,5.15,7.87,12.25,16,20.41,20.4-6.78,18.77-25.26,32.32-36.73,49-15-5.34-31.63-21.63-36.73-36.72-2.16-2.7-5.92-5.35-8.16-8.17-17.38-21.71-35.83-45-40.81-73.45,28.73,2.57,78.8,22.57,81.62,49m89.78,151c15.51,8.29,31,18.49,49,20.41-49.87,33.5-131.45,25.3-175.48-16.33-57.34-42.64-93.41-127-53-191.8,29.63,81,105.49,145.93,179.56,187.72m-404,163.24c-44.6-13.23-69.17-42.77-113-62.44s-63.33-48.07-112.35-67.21-21.42-62.77,4.09-99.82,42.64-75.38,66.23-113.33c49.42,22,105.24,57.18,151.93,84.76s128.59,54.16,89.78,108-54.36,95.45-86.64,150.06m420.33-253c-21.67-18.69,9-46.48,8.16-69.37,9.92,20.36-.73,50.19-8.16,69.37m-44.89,44.89c.29-1.1-4-3.26-4.08-4.08-14.24,13.39-19.06,1.67-32.65-8.16,14.94-17.14,26-36,40.81-53.05,23.35,17.42,38.24,41.13,60.89,61.54s37.75,69.21,1.67,55.46-60.68-20.86-66.64-51.71M608.27,404.3c11.79,10.29,37.7,10.45,35.26,31.43s-32.45,5.38-43.43-2.86c-37.42-28.12-34.93-66.11,8.17-28.57m0,49c27.54,15.18,61.33,26,39.79,60.2s-28.61,42.6-47,75.41-26.93,37.1-44.89,73.46-37.42,19-66.23-.94C458.38,639.52,424.59,619,392,600.18c27.91-68,77.41-127.36,114.26-191.8,7.68,8.25,1.72,27.84,16.33,32.65-3.76-5.55,3.92-9.92,4.08-12.24-24.61-30.77,15.22-41,31.63-19.39s27.26,31.34,50,43.87M449.11,469.6c-.57,14.08-14.12,23.46-16.32,36.72-11.92,2.49-18.08-9.75-28.57-12.24.57-14.12,14.12-23.46,16.33-36.73,11.91-2.49,18.07,9.76,28.56,12.25m142.83,253c21.18-57.7,66.52-111.77,95.09-166.09s37.79-10,73.25,1.84,48,35.66,81.62,49,45.46,36.28,81.61,49,50.08,42.56,23.8,70.72S920,786.15,899,809.25s-26.16,73.86-56.81,63.09-54.85-36.73-83.82-50.85-52.56-34.32-81-49.58-55.58-37.42-85.37-49.3M649.08,592c-3.11,14.86-17.35,25.88-20.41,40.81-10.2-2.69-20.85-9.91-28.57-16.32,5.23-13.31,14.41-23.92,20.41-36.73,11.55-1,17.55,12.24,28.57,12.24M428.71,636.91c11.75,8.49,24.52,16.61,36.73,24.49,13.38,8.65,25.95,19.75,40.8,24.48,2.09,7.84-7.5,9.1-12.24,12.25-3.06,3.06-4.08,8-4.08,12.24-22.24-2-41-19.71-57.13-32.65-21.26-13.3-53.05-29.18-24.49-57.13,7,5.34,14.74,10.69,20.41,16.32m20.4,69.38c15.31,9.47,43.3,20.69,40.81,40.81s.86,57.37-16.32,57.13c-29.83-.41-58.73-40.48-84.68-54.07s-59.21-39.71-74.48-64.28c20.65-8.2,49.5-43,70.4-25.46s40.6,33,64.27,45.87m-77.53,93.86C360.15,793,347,787.42,337.91,776.68s6.53-32.93,17.34-33.66c21.1-1.39,40,39.09,61.22,40.8C415.57,808,386.14,821.33,371.58,800.15Z"/><path class="cls-67" d="M804.15,167.61c-30.28-10.32-45.14,33.87-16.65,45.18s41-36.85,16.65-45.18M783.74,188C781.5,155.08,816.84,190,783.74,188Z"/><path class="cls-68" d="M624.59,269.63c.12-6.16,33.67-31.17,40.81-24.48-2.82-26.4-52.89-46.4-81.62-49C588.76,224.62,607.21,247.92,624.59,269.63Z"/><path class="cls-69" d="M628.67,400.22a137.8,137.8,0,0,1-12.24-16.32c12.24-16.2,34.36-16.53,44.89-32.65,18.73-1.59,38.15,22.08,52,29.59s42.24,31.26,41.83,15.3c-74.07-41.79-149.93-106.75-179.56-187.72C535.26,273.22,571.33,357.58,628.67,400.22Z"/><path class="cls-70" d="M755.18,224.74c-3.06,3.84-5.63,8.74-8.16,12.25-13.35,18.65-29.59,35.13-44.89,53.05,1.26-1,7.51-.94,8.16,0,9.63-6.74,20.48-16.41,28.56-24.49,8.08-18.44,39.71-32.77,32.65-53.05C765.14,215.11,761.42,221.48,755.18,224.74Z"/><path class="cls-71" d="M351.17,559.38c32.28-54.61,47.83-96.23,86.64-150.06s-43.1-80.39-89.78-108-102.51-62.8-151.93-84.76c-23.59,37.95-40.73,76.27-66.23,113.33s-53.1,80.64-4.09,99.82,68.52,47.54,112.35,67.21,68.44,49.21,113,62.44M257.31,261.47c-16.69,27.22-32.36,54.44-49,81.62-18-10.77-34.77-22.65-53.05-32.65,13.87-28,31.71-53.25,44.89-81.62,20.08,7.8,38.28,21.55,57.13,32.65m61.21,32.65c-5.91,32.07-33.95,55-44.89,85.7-15.09-11.63-61-20.53-49.25-45.18s29.75-42.93,37-69.09c21.18,4.25,35.91,24.32,57.13,28.57m65.3,40.81c-13.39,28.2-36.53,51.29-44.89,81.62-21.34-3.88-36.77-22.86-57.13-28.57,8.61-30.08,32.56-53,44.89-81.62,21,4.78,36.85,21.22,57.13,28.57M155.29,432.87c-18.36-10-35.79-20.85-53-32.65,15.1-26,31.58-50.6,44.89-77.54,17.46,5.6,60.52,20.25,47.7,43.67s-24.4,44.65-39.54,66.52M445,371.66c-11.63,28.36-32.77,52.8-44.89,81.61-19.63-4.77-34.6-20.48-53.05-28.56,8-29.51,30.28-53.5,40.81-81.62,21.14,4.45,37.34,20.44,57.13,28.57M265.47,388c-12.57,28.65-34.73,52.36-44.89,81.62-16-9.47-61.58-20.37-49.25-45.18s28.52-39.46,37-65c22,1.47,37.3,20.61,57.13,28.57m61.22,36.73c-6.66,28.85-23.14,38.56-35.79,66.23s-42.24-3.88-62.16-13.18c7.51-28.36,23.18-38.53,35.79-66.23s42.28,3.91,62.16,13.18M392,461.43C380.92,490,357.42,514,347.09,543.05c-22.57-.45-37.38-20.52-57.13-28.56,9.79-29.59,33.87-52.65,44.89-81.62C356.23,436.79,369.94,458.58,392,461.43Z"/><path class="cls-72" d="M722.53,228.82c-5.71,1.23-11.92,5.68-20.4,4.09,4.12,12.77,38.81,7.79,44.89,4.08,2.53-3.51,5.1-8.41,8.16-12.25-1.59.86-6.2-.36-8.16,0C738.2,226.42,732,229.19,722.53,228.82Z"/><path class="cls-73" d="M257.31,261.47c-18.85-11.1-37.05-24.85-57.13-32.65-13.18,28.37-31,53.59-44.89,81.62,18.28,10,35.09,21.88,53.05,32.65C225,315.91,240.62,288.69,257.31,261.47Z"/><path class="cls-74" d="M702.13,232.91c8.48,1.59,14.69-2.86,20.4-4.09a22.76,22.76,0,0,1-4.08,0C715.31,228.54,693.07,231.19,702.13,232.91Z"/><path class="cls-75" d="M771.5,306.36c7.43-19.18,18.08-49,8.16-69.37C780.48,259.88,749.83,287.67,771.5,306.36Z"/><path class="cls-76" d="M624.59,269.63c2.24,2.82,6,5.47,8.16,8.17-.16-6.62,1.55-4,4.08-8.17,5.76-9.38,14-13.91,24.49-16.32-1-.94,3.63-7.26,4.08-8.16C658.26,238.46,624.71,263.47,624.59,269.63Z"/><path class="cls-77" d="M665.4,253.31c-7,8.61-20.24,8.28-28.57,16.32-2.53,4.13-4.24,1.55-4.08,8.17,5.1,15.09,21.71,31.38,36.73,36.72,11.47-16.65,29.95-30.2,36.73-49C698.05,261.1,691,253,685.8,245.15,678.78,246.82,671.72,250.33,665.4,253.31Z"/><path class="cls-78" d="M636.83,269.63c8.33-8,21.59-7.71,28.57-16.32a10.9,10.9,0,0,0-4.08,0C650.87,255.72,642.59,260.25,636.83,269.63Z"/><path class="cls-79" d="M318.52,294.12c-21.22-4.25-35.95-24.32-57.13-28.57-7.26,26.16-25.3,44.4-37,69.09s34.16,33.55,49.25,45.18C284.57,349.09,312.61,326.19,318.52,294.12Z"/><path class="cls-80" d="M710.29,290c-.94.65,0,4.08,0,4.08,9.3-9.31,19.75-18.24,28.56-28.57C730.77,273.63,719.92,283.3,710.29,290Z"/><path class="cls-81" d="M722.53,347.17c-1.3-13.43,11.26-32.65,20.41-40.81,7.3,14.94-11.27,31.55-16.33,44.89,6,30.85,30.53,38,66.64,51.71s21-35.06-1.67-55.46S754,303.38,730.69,286c-14.81,17-25.87,35.91-40.81,53.05C703.47,348.84,708.29,360.56,722.53,347.17Z"/><path class="cls-82" d="M710.29,294.12s-.94-3.43,0-4.08c-.65-.94-6.9-1-8.16,0-5.68,13.55-27.18,19.67-24.49,36.73C689.88,322.24,704,306.93,710.29,294.12Z"/><path class="cls-83" d="M947,302.28c-21.51-8.81-30.69,20.69-13.18,29.42S962.2,308.52,947,302.28Z"/><path class="cls-84" d="M383.82,334.93c-20.28-7.35-36.16-23.79-57.13-28.57C314.36,335,290.41,357.9,281.8,388c20.36,5.71,35.79,24.69,57.13,28.57C347.29,386.22,370.43,363.13,383.82,334.93Z"/><path class="cls-85" d="M722.53,347.17c.08.82,4.37,3,4.08,4.08,5.06-13.34,23.63-29.95,16.33-44.89C733.79,314.52,721.23,333.74,722.53,347.17Z"/><path class="cls-86" d="M155.29,432.87c15.14-21.87,26.77-43.14,39.54-66.52s-30.24-38.07-47.7-43.67c-13.31,26.94-29.79,51.55-44.89,77.54C119.5,412,136.93,422.83,155.29,432.87Z"/><path class="cls-87" d="M445,371.66c-19.79-8.13-36-24.12-57.13-28.57-10.53,28.12-32.85,52.11-40.81,81.62,18.45,8.08,33.42,23.79,53.05,28.56C412.26,424.46,433.4,400,445,371.66Z"/><path class="cls-88" d="M628.67,400.22c44,41.63,125.61,49.83,175.48,16.33-18-1.92-33.46-12.12-49-20.41.41,16-28-7.79-41.83-15.3s-33.3-31.18-52-29.59c-10.53,16.12-32.65,16.45-44.89,32.65A137.8,137.8,0,0,0,628.67,400.22Z"/><path class="cls-89" d="M265.47,388c-19.83-8-35.09-27.1-57.13-28.57-8.49,25.55-24.73,40.16-37,65s33.26,35.71,49.25,45.18C230.74,440.34,252.9,416.63,265.47,388Z"/><path class="cls-90" d="M600.1,432.87c21.84-3.47-5.55-29.55-8.16-32.65,6.29-1.51,9.8,5.84,16.33,4.08C565.17,366.76,562.68,404.75,600.1,432.87Z"/><path class="cls-91" d="M326.69,424.71c-19.88-9.27-49.55-40.89-62.16-13.18s-28.28,37.87-35.79,66.23c19.92,9.3,49.51,40.85,62.16,13.18S320,453.56,326.69,424.71Z"/><path class="cls-92" d="M526.65,428.79c2.73,3.38,5.88,3.83,8.16,8.16,7.39,13.92,11.92,16.69,24.49,28.57,13.14,7.63,28.93,13.46,40.8,24.48,7.27-10.49,16.49-24.48,8.17-36.73-22.73-12.53-33.55-22.28-50-43.87S502,398,526.65,428.79Z"/><path class="cls-93" d="M600.1,432.87c11,8.24,41,23.79,43.43,2.86s-23.47-21.14-35.26-31.43c-6.53,1.76-10-5.59-16.33-4.08C594.55,403.32,621.94,429.4,600.1,432.87Z"/><path class="cls-94" d="M489.92,661.4c12.69-21.67,41-50,48.65-73.78s52-54.2,49.29-77.21c-21.71-17.31-52.23-38.08-61.21-69.38a13.14,13.14,0,0,1-4.08,0c-14.61-4.81-8.65-24.4-16.33-32.65C469.39,472.82,419.89,532.2,392,600.18c32.61,18.78,66.4,39.34,97.94,61.22m-57.13-85.7C455.36,598.27,412.67,600.59,432.79,575.7Z"/><path class="cls-95" d="M522.57,441a13.14,13.14,0,0,0,4.08,0c.37-.08,8.24-4.37,8.16-4.08-2.28-4.33-5.43-4.78-8.16-8.16C526.49,431.11,518.81,435.48,522.57,441Z"/><path class="cls-96" d="M392,461.43c-22-2.85-35.75-24.64-57.13-28.56-11,29-35.1,52-44.89,81.62,19.75,8,34.56,28.11,57.13,28.56C357.42,514,380.92,490,392,461.43Z"/><path class="cls-97" d="M526.65,441c9,31.3,39.5,52.07,61.21,69.38,12.61,10,29.22,15.5,44.89,20.4-15.67-28.77-56.8-33-73.45-65.29-12.57-11.88-17.1-14.65-24.49-28.57C534.89,436.66,527,441,526.65,441Z"/><path class="cls-98" d="M559.3,465.52C576,497.84,617.08,502,632.75,530.81c-15.67-4.9-32.28-10.37-44.89-20.4,2.74,23-41.66,53.41-49.29,77.21s-36,52.11-48.65,73.78c28.81,20,48.28,37.3,66.23.94s26.49-40.65,44.89-73.46,25.47-41.26,47-75.41-12.25-45-39.79-60.2c8.32,12.25-.9,26.24-8.17,36.73-11.87-11-27.66-16.85-40.8-24.48m24.48,102C582.76,590.35,560.85,568.8,583.78,567.54Z"/><path class="cls-99" d="M449.11,469.6c-10.49-2.49-16.65-14.74-28.56-12.25-2.21,13.27-15.76,22.61-16.33,36.73,10.49,2.49,16.65,14.73,28.57,12.24C435,493.06,448.54,483.68,449.11,469.6Z"/><path class="cls-100" d="M922.49,494.08C906,488.21,894.66,514,911.56,521.26S937.39,499.39,922.49,494.08Z"/><path class="cls-101" d="M591.94,722.61c29.79,11.88,56.93,34.08,85.37,49.3s52,35.46,81,49.58,53.13,40.12,83.82,50.85,35.75-40,56.81-63.09,22-54.11,48.36-82.23,12.32-58-23.8-70.72-48-35.67-81.61-49-46.2-37.1-81.62-49S715.63,502.2,687,556.52s-73.91,108.39-95.09,166.09m171.4-151c-11.51,29-32.65,55.7-49,81.62-18.9-7.51-34.08-22.45-53-28.57,11.1-28.53,33.79-53,44.89-81.62,21,3.19,37.75,19.84,57.13,28.57m65.29,40.81c-15.22,28-35,52.93-49,81.61-15.38-13.42-60.48-23.22-47.7-47.7S760,603.82,771.5,579.78c20.08,7.75,38.28,21.55,57.13,32.65m8.17,4.08c13.58,7.71,62.92,32.2,47.91,47.91s-24.53,58.6-40.77,65.33-62-30.28-46.69-46.68,25.34-48.28,39.55-66.56M661.32,747.1c-14.9-13.55-61.22-22.86-47.71-47.71s28.28-41,39.55-66.56c17.22,9.71,63,23.14,47.7,47.71s-27,41.17-39.54,66.56M955.14,690c-14.08,28.69-32.61,54.32-49,81.62-14.81-16.44-59.95-21.63-45.87-45.91S887,682.09,898,657.32c20.53,6.57,39.71,21.18,57.13,32.64M726.61,783.82c-21.14-4.44-37.34-20.44-57.13-28.56,25.91-31.06,23.42-95.13,73.78-69.7s-3.06,59.7-16.65,98.26M836.8,743c-16.25,27.46-32.41,54.43-49,81.61-18.53-8.16-33.35-23.75-53.06-28.56,7.59-27.55,22.82-47.63,36.41-73.79S818,738.53,836.8,743m20.4,118.34c-18.49-5-64.68-19.26-51.79-43.66s26.33-46.49,39.55-70.6c13.34,15.42,58.35,20.2,49.25,45.21S864.38,836,857.2,861.36Z"/><path class="cls-102" d="M763.34,571.62c-19.38-8.73-36.08-25.38-57.13-28.57-11.1,28.57-33.79,53.09-44.89,81.62,19,6.12,34.15,21.06,53,28.57C730.69,627.32,751.83,600.59,763.34,571.62Z"/><path class="cls-103" d="M649.08,592c-11,0-17-13.26-28.57-12.24-6,12.81-15.18,23.42-20.41,36.73,7.72,6.41,18.37,13.63,28.57,16.32C631.73,617.9,646,606.88,649.08,592Z"/><path class="cls-104" d="M828.63,612.43c-18.85-11.1-37-24.9-57.13-32.65-11.47,24-26.81,42-39.54,66.56s32.32,34.28,47.7,47.7C793.58,665.36,813.41,640.46,828.63,612.43Z"/><path class="cls-105" d="M836.8,616.51c-14.21,18.28-24.24,50.11-39.55,66.56s30.49,53.42,46.69,46.68,25.75-49.58,40.77-65.33S850.38,624.22,836.8,616.51Z"/><path class="cls-106" d="M432.79,677.72c-3.76-3.92-5.92-11.26-12.24-12.24,7-8.29,1.26-20.24,8.16-28.57-5.67-5.63-13.39-11-20.41-16.32C379.74,648.54,411.53,664.42,432.79,677.72Z"/><path class="cls-107" d="M171.61,628.75c-6.57,11.39-20.12,18.69-28.56,28.57,12.44,3.75,21.22,15.1,28.56,24.48,2.66-14.2,17.18-18.4,24.49-28.56A38.18,38.18,0,0,1,171.61,628.75Z"/><path class="cls-108" d="M661.32,747.1c12.53-25.39,24.24-42,39.54-66.56s-30.48-38-47.7-47.71c-11.27,25.55-26,41.67-39.55,66.56S646.42,733.55,661.32,747.1Z"/><path class="cls-109" d="M432.79,677.72c16.12,12.94,34.89,30.65,57.13,32.65,0-4.21,1-9.18,4.08-12.24-16.89,7.46-25.79-2.21-40.81-8.17-3.63-14.4,19.47-17.75,12.25-28.56-12.21-7.88-25-16-36.73-24.49-6.9,8.33-1.19,20.28-8.16,28.57C426.87,666.46,429,673.8,432.79,677.72Z"/><path class="cls-110" d="M473.6,804.23c-5.39.49-37.18-34.65-53.05-36.73,12.57-18.93,23.54-39.14,28.56-61.21-23.67-12.86-43.42-28.32-64.27-45.87s-49.75,17.26-70.4,25.46c15.27,24.57,48.53,50.73,74.48,64.28S443.77,803.82,473.6,804.23Z"/><path class="cls-111" d="M955.14,690c-17.42-11.46-36.6-26.07-57.13-32.64-11.06,24.77-23.67,44.11-37.71,68.35s31.06,29.47,45.87,45.91C922.53,744.28,941.06,718.65,955.14,690Z"/><path class="cls-112" d="M494,698.13c4.74-3.15,14.33-4.41,12.24-12.25-14.85-4.73-27.42-15.83-40.8-24.48,7.22,10.81-15.88,14.16-12.25,28.56C468.21,695.92,477.11,705.59,494,698.13Z"/><path class="cls-113" d="M726.61,783.82c13.59-38.56,67-72.84,16.65-98.26s-47.87,38.64-73.78,69.7C689.27,763.38,705.47,779.38,726.61,783.82Z"/><path class="cls-114" d="M473.6,804.23c17.18.24,13.79-37,16.32-57.13s-25.5-31.34-40.81-40.81c-5,22.07-16,42.28-28.56,61.21,15.87,2.08,47.66,37.22,53.05,36.73m-20.41-40.81C425.57,758.85,447.48,736.85,453.19,763.42Z"/><path class="cls-115" d="M836.8,743c-18.82-4.49-52-46.85-65.62-20.74s-28.82,46.24-36.41,73.79c19.71,4.81,34.53,20.4,53.06,28.56C804.39,797.45,820.55,770.48,836.8,743Z"/><path class="cls-116" d="M371.58,800.15c-7.76-7.84.2-33.87-24.49-36.73-.24-7.71,5.8-13.43,8.16-20.4-10.81.73-26.44,22.93-17.34,33.66S360.15,793,371.58,800.15Z"/><path class="cls-117" d="M371.58,800.15c14.56,21.18,44,7.87,44.89-16.33-21.23-1.71-40.12-42.19-61.22-40.8-2.36,7-8.4,12.69-8.16,20.4C371.78,766.28,363.82,792.31,371.58,800.15Z"/><path class="cls-118" d="M857.2,861.36c7.18-25.34,27.91-44.07,37-69.05S858.3,762.52,845,747.1c-13.22,24.11-26.65,46.23-39.55,70.6S838.71,856.38,857.2,861.36Z"/><path class="cls-119" d="M143.05,763.42c-2.78-2.78-15.31,1.18-10.94,6.77S147.13,767.5,143.05,763.42Z"/><path class="cls-120" d="M257.31,873.6C238,842.47,215,851.69,192,873.6,206.79,902.21,245,911.84,257.31,873.6Z"/><path class="cls-121" d="M522.57,898.09c-14.41-7-22.2,17.38-11,23S532.36,902.86,522.57,898.09Z"/><path class="cls-122" d="M673.56,914.41c-19.67-7.59-28.93,21.51-12.28,28.53S689.35,920.53,673.56,914.41Z"/></svg>