<svg id="Layer_1" data-name="Layer 1" xmlns="http://www.w3.org/2000/svg" viewBox="0 0 1080 1080"><defs><style>.cls-1{fill:#0c1523;}.cls-10,.cls-11,.cls-12,.cls-13,.cls-14,.cls-15,.cls-16,.cls-17,.cls-18,.cls-19,.cls-2,.cls-20,.cls-21,.cls-22,.cls-23,.cls-24,.cls-25,.cls-26,.cls-27,.cls-28,.cls-29,.cls-3,.cls-30,.cls-31,.cls-32,.cls-33,.cls-34,.cls-35,.cls-36,.cls-37,.cls-38,.cls-39,.cls-4,.cls-40,.cls-41,.cls-42,.cls-43,.cls-44,.cls-45,.cls-46,.cls-47,.cls-48,.cls-49,.cls-5,.cls-50,.cls-51,.cls-52,.cls-53,.cls-54,.cls-55,.cls-56,.cls-57,.cls-6,.cls-7,.cls-8,.cls-9{fill:none;stroke-width:1.22px;}.cls-2{stroke:#0c1623;}.cls-3{stroke:#121316;}.cls-4{stroke:#d0d2cf;}.cls-5{stroke:#121217;}.cls-6{stroke:#0d0b0b;}.cls-7{stroke:#fbefeb;}.cls-8{stroke:#e0442e;}.cls-9{stroke:#eb937e;}.cls-10{stroke:#dd5a46;}.cls-11{stroke:#b52d25;}.cls-12{stroke:#e2e2e3;}.cls-13{stroke:#e5e5e5;}.cls-14{stroke:#f6f6f6;}.cls-15{stroke:#d0d2d6;}.cls-16{stroke:#79797c;}.cls-17{stroke:#101316;}.cls-18{stroke:#3b495a;}.cls-19{stroke:#0d121b;}.cls-20{stroke:#2782c5;}.cls-21{stroke:#ecf4f8;}.cls-22{stroke:#8c8bc4;}.cls-23{stroke:#6195ce;}.cls-24{stroke:#d9cec9;}.cls-25{stroke:#e2b383;}.cls-26{stroke:#d93f29;}.cls-27{stroke:#aa2824;}.cls-28{stroke:#ad2b24;}.cls-29{stroke:#d63b27;}.cls-30{stroke:#ca3727;}.cls-31{stroke:#e95941;}.cls-32{stroke:#f6b29a;}.cls-33{stroke:#f2cec1;}.cls-34{stroke:#ef816f;}.cls-35{stroke:#f29988;}.cls-36{stroke:#f19885;}.cls-37{stroke:#e64d34;}.cls-38{stroke:#6887c1;}.cls-39{stroke:#747c88;}.cls-40{stroke:#616975;}.cls-41{stroke:#588cbf;}.cls-42{stroke:#c7d2e2;}.cls-43{stroke:#2c68ac;}.cls-44{stroke:#ed8922;}.cls-45{stroke:#785b2d;}.cls-46{stroke:#805825;}.cls-47{stroke:#336da4;}.cls-48{stroke:#fbc13a;}.cls-49{stroke:#f9e48b;}.cls-50{stroke:#23170f;}.cls-51{stroke:#1e150c;}.cls-52{stroke:#174b84;}.cls-53{stroke:#203061;}.cls-54{stroke:#242962;}.cls-55{stroke:#184b86;}.cls-56{stroke:#9ab0cc;}.cls-57{stroke:#97afcb;}.cls-58{fill:#0c1623;}.cls-59{fill:#121316;}.cls-60{fill:#d0d2cf;}.cls-61{fill:#121217;}.cls-62{fill:#0d0b0b;}.cls-63{fill:#fbefeb;}.cls-64{fill:#e0442e;}.cls-65{fill:#eb937e;}.cls-66{fill:#dd5a46;}.cls-67{fill:#b52d25;}.cls-68{fill:#e2e2e3;}.cls-69{fill:#e5e5e5;}.cls-70{fill:#f6f6f6;}.cls-71{fill:#d0d2d6;}.cls-72{fill:#79797c;}.cls-73{fill:#101316;}.cls-74{fill:#3b495a;}.cls-75{fill:#0d121b;}.cls-76{fill:#2782c5;}.cls-77{fill:#ecf4f8;}.cls-78{fill:#8c8bc4;}.cls-79{fill:#6195ce;}.cls-80{fill:#d9cec9;}.cls-81{fill:#e2b383;}.cls-82{fill:#d93f29;}.cls-83{fill:#aa2824;}.cls-84{fill:#ad2b24;}.cls-85{fill:#d63b27;}.cls-86{fill:#ca3727;}.cls-87{fill:#e95941;}.cls-88{fill:#f6b29a;}.cls-89{fill:#f2cec1;}.cls-90{fill:#ef816f;}.cls-91{fill:#f29988;}.cls-92{fill:#f19885;}.cls-93{fill:#e64d34;}.cls-94{fill:#6887c1;}.cls-95{fill:#747c88;}.cls-96{fill:#616975;}.cls-97{fill:#588cbf;}.cls-98{fill:#c7d2e2;}.cls-99{fill:#2c68ac;}.cls-100{fill:#ed8922;}.cls-101{fill:#785b2d;}.cls-102{fill:#805825;}.cls-103{fill:#336da4;}.cls-104{fill:#fbc13a;}.cls-105{fill:#f9e48b;}.cls-106{fill:#23170f;}.cls-107{fill:#1e150c;}.cls-108{fill:#174b84;}.cls-109{fill:#203061;}.cls-110{fill:#242962;}.cls-111{fill:#184b86;}.cls-112{fill:#9ab0cc;}.cls-113{fill:#97afcb;}</style></defs><title>avatar-rocket</title><rect class="cls-1" width="1080" height="1080"/><path class="cls-2" d="M36,92.18c-1.15,3.63-3.31,8.45-4.08,12.24C30.23,130.91,39.49,164,36,194.2s1.75,63.09,0,93.86,1.22,62.85,0,93.86,1.51,67.3,0,97.94S39,544.5,36,573.72s6.28,67.46,0,93.86S49.66,739,36,757.36c85.69-30,184.9,40.69,163.23,134.67,57.91-28.6,139.24,15.51,126.51,85.7C368.62,967.9,412,1001,415.55,1043h4.08c30.81,0,63.17-2.89,93.86,0-13.47-12.2-11.14-44.19-20.32-61.29s-10.86-48.93-12.33-69.29C467.7,920,460,933.13,452.28,945.08c-6.82-1-.7-11.63-8.17-12.24-11-16.28-3.3-63.7,8.17-85.7,1.34-4.28,2.44-7.87,4.08-12.24,1.55-12-9.84-32.69,4.08-44.89-37.42-.77-23.26-81.86-60.15-60.15S350,763.4,337,801.19s-55.26,41.59-63.34.17-13.67-80.19-13.14-121.53,14.78-64.44,36.41-94.19,42.52-45.13,73.78-60.89c5.67-43.25-5.14-110.47,4.08-151s28.12-77.37,41.83-113.24,38.36-67.62,59.86-95.21,63-75,94.52-49,56.72,44,76.27,78.8S679.58,263,697.05,300.39s20.24,88.14,24.56,130.5-4.89,90.39,35.71,115.29,44.44,47.74,67.58,87.49,1,91.33,2.82,135.94-42.45,89.12-62.52,38S723,758.47,689,724.72c-10.86-2-13.55,14.4-24.49,12.24,1.67,21.51,2.45,50.4-24.48,53-1.72,16.85-2.41,29.18,4.08,44.89,10.93,30,22.28,69.78,4.08,97.94-1.88,2.9,1.51,9.14,0,12.24-13.75-7.67-17.51-26.11-32.65-32.64-2.45,46.11-14.57,90.31-36.73,130.58a539.4,539.4,0,0,1,97.94,0c6.94-43,48.85-74.47,93.86-65.29C758,908.52,836,866.65,893,892c-6.69-79.41,84.43-136.95,155.07-106.1-14.44-19.51,6.37-65.5,0-93.86s2.94-70.64,0-102,1.51-69.34,0-102,1-68.93,0-102,1.27-69.09,0-102,2.33-70,0-102,4.78-67.78,0-93.86c-27.42-86.68-151.93-47.62-228.53-53s-200,.77-281.58,0-203.06-3.39-281.58,0S63.94,4.6,36,92.18m171.39,73.46c-1.63,21.34,15.27,38.4,36.73,36.72-14.12,11.76-37.22,26-40.81,49-7.47-16.36-15.91-43.09-40.81-40.8,15-10,34.77-30,44.89-44.89m685.59,0c.25,19.26,14.57,40.93,36.73,36.72-13.18,13.76-37.71,24.82-40.81,49-7.47-16.36-16-43.13-40.81-40.8,21.87-7.68,32.16-30.69,44.89-44.89M840,361.52c10,5.63.08,30.12-13.18,21.26s-2-29.87,13.18-21.26M272.72,377.84c14.48,5.31,3.47,31.47-12.29,24.45s-6.12-31.18,12.29-24.45M897.09,512.51c6.2-24.24,57.42-34.6,56.81.33s-47.46,20-56.81-.33m-722.31-20.4c24.81,8.16,11.22,56.64-16.65,45.17S146,482.64,174.78,492.11M942,671.67c9.31,4.65-.41,21.66-10.94,14.93S932.19,666.77,942,671.67Z"/><path class="cls-3" d="M1048.08,785.93a7.71,7.71,0,0,0,4.08,0c0-77.21,2.53-160,0-236.69s6.9-157.65,0-232.61,17.8-159.4-4.08-228.53c4.78,26.08-2.32,61.82,0,93.86s-1.26,69.09,0,102-1,68.93,0,102-1.51,69.34,0,102-2.93,70.64,0,102-6.36,73.66,0,102S1033.64,766.42,1048.08,785.93Z"/><path class="cls-4" d="M27.86,757.36a34.88,34.88,0,0,1,4.09,0c-6.45-70.92.48-145,0-216.28S26.8,395.8,32,324.79,18.11,174.08,32,104.42c.77-3.79,2.93-8.61,4.08-12.24-26.24,62.93-1.92,145-8.17,216.29s2.33,151.48,0,224.45S27.86,684,27.86,757.36Z"/><path class="cls-5" d="M32,757.36c1.38-.94,4.08,0,4.08,0C49.66,739,29.74,694,36,667.58s-2.94-64.64,0-93.86-1.51-63.21,0-93.86-1.23-66.92,0-97.94-1.76-63.09,0-93.86-3.47-63.66,0-93.86-5.8-63.29-4.08-89.78c-13.84,69.66,5.14,149.36,0,220.37s-.49,145,0,216.29S25.5,686.44,32,757.36Z"/><path class="cls-6" d="M456.36,834.9c5.1-13.55,12.08-26.85,16.32-40.81h24.49c2.81-1.22,29.74,1.88,24.48,8.16,7.92,13.84,1.55,48.61,24.81,52.73s20.65-43.75,28.24-52.73c6.78-10,28.89-12.08,40.81-8.16,13,1.14,21.59,31.51,24.49,40.81.53.9,4.08,0,4.08,0-6.49-15.71-5.8-28-4.08-44.89,26.93-2.65,26.15-31.54,24.48-53,10.94,2.16,13.63-14.2,24.49-12.24,34,33.75,56.15,31.83,76.23,82.92s64.35,6.61,62.52-38S848,673.42,824.9,633.67s-27-62.6-67.58-87.49-31.38-72.93-35.71-115.29-7.14-93-24.56-130.5S666.77,230,647.22,195.14s-44.77-52.81-76.27-78.8-73,21.38-94.52,49-46.11,59.38-59.86,95.21S384,333.24,374.74,373.76s1.59,107.74-4.08,151c-31.26,15.76-52.16,31.14-73.78,60.89S261,638.49,260.47,679.83s5.11,80.1,13.14,121.53S324,839,337,801.19s26.4-49.62,63.34-71.33S423,789.24,460.44,790c-13.92,12.2-2.53,32.89-4.08,44.89M574.7,137.07c34.57,27.55,63.5,66.4,77.54,106.1-17.35-1.34-31.51,9.51-49,8.16C564,254,522.51,251,484.92,247.25c-6.73-.65-13.71.86-20.4,0-6-.77-16.45-4.49-20.41-8.16,20.45-39.26,45.26-78,81.62-106.1,3.92-3,8.2-5.67,12.24-8.16,2.49-1.51,5.19-3.72,8.17-4.08,10.4-1.23,21.83,10.93,28.56,16.32m-49,126.51h53c13.59,0,24.41-1.92,36.73-4.08,15-2.62,30.81-2.13,44.89-8.17,50,100.48,61.54,218.05,44.89,330.56-8.77,47.05-21.51,93.49-36.73,138.75-27,2.89-52.89,11.5-81.62,8.16.9-51.87.62-87.82-8.16-138.75s-49.91-52.36-58.44-1.31-15.26,87-10.93,140.06c-54.28,9.34-92.39-11.43-101.13-62.11s-18.16-91.5-21.3-141.94-3.55-100.55,7.27-147.81,21.09-82.72,41.7-125.61c29.1,7.06,58.56,13.27,89.78,12.25m-151,277.5c15,19.79,0,66.23,12.16,89.86s12.53,57.13,24.57,81.53c-26.61,6.08-44.85,27.88-65.3,44.89-15.55,20.9-25.3,44.49-40.81,65.3-33.5-43.06-36-112.14-24.48-163.24,2-36.07,25-58.64,44.89-85.7.9-1.22,3.22-3,4.08-4.08,6.69-8.57,36.56-39.54,44.89-28.56m355,0c10.4.16,17.83,10.4,24.48,16.32,30.12,26.77,45.79,52.85,57.13,89.78,16.24,52.77,12.9,136.18-24.48,175.48-10.57-21-18.57-42.16-32.65-61.22-13.75-15.79-23.26-32.23-45.83-39.87s-23.14-27.34-11.38-50,11.3-48.23,16.4-69.29,2.53-61.42,16.33-61.21M542.05,830.82c-18.77-34.69-20.4-93.7-20.4-134.67,0-27-1.59-54.6,8.16-77.54,3.23-16.73.37-39,12.24-53.05,2.37-2.77,3.43-8.12,8.17-8.16,39.7,87.41,28.24,197.07,0,285.66-5.27-1.79-9-6.49-8.17-12.24M513.49,741c-.16,15.43-1.14,30.81,4.08,44.89-24.4.9-46.4-7.22-69.38-12.24V737c22.16-.41,42.45,7,65.3,4.08M648.16,737c14.73,47.62-36.93,47-69.38,49C571.56,738.31,610.41,736.51,648.16,737Z"/><path class="cls-7" d="M538,124.83c-6.32,8-9.42,16.48-16.32,24.48-25.18,29.18-53.79,58.73-57.13,97.94,6.69.86,13.67-.65,20.4,0-11-17.14,30.85-47.09,31.63-62.23s45.13-47.79,29.59-64.27C543.16,121.11,540.46,123.32,538,124.83Z"/><path class="cls-8" d="M484.92,247.25C522.51,251,564,254,603.27,251.33c3.39-.69,10.28-7.54,16.32-4.08-11.67-37.3-41-75-44.89-110.18-6.73-5.39-18.16-17.55-28.56-16.32,15.54,16.48-28.77,49.13-29.59,64.27S473.94,230.11,484.92,247.25Z"/><path class="cls-9" d="M525.73,133c-2.16,3.63-1.71,11.63-4.08,16.32,6.9-8,10-16.44,16.32-24.48C533.93,127.32,529.65,130,525.73,133Z"/><path class="cls-10" d="M464.52,247.25c3.34-39.21,32-68.76,57.13-97.94,2.37-4.69,1.92-12.69,4.08-16.32-36.36,28.12-61.17,66.84-81.62,106.1C448.07,242.76,458.48,246.48,464.52,247.25Z"/><path class="cls-11" d="M603.27,251.33c17.46,1.35,31.62-9.5,49-8.16-14-39.7-43-78.55-77.54-106.1,3.92,35.18,33.22,72.88,44.89,110.18C613.55,243.79,606.66,250.64,603.27,251.33Z"/><path class="cls-12" d="M207.42,165.64c-10.12,14.89-29.91,34.93-44.89,44.89,24.9-2.29,33.34,24.44,40.81,40.8,3.59-22.93,26.69-37.21,40.81-49C222.69,204,205.79,187,207.42,165.64Z"/><path class="cls-13" d="M893,165.64c-12.73,14.2-23,37.21-44.89,44.89,24.85-2.33,33.34,24.44,40.81,40.8,3.1-24.15,27.63-35.21,40.81-49C907.58,206.57,893.26,184.9,893,165.64Z"/><path class="cls-14" d="M705.29,581.89c-.16-1.07-6-7.88-8.16-8.17-4,49.38-19.51,95.78-32.65,142.83-18.77-2.93-34.36,6.25-53.05,4.09,44.69-143.53,65.25-310.56,16.32-457.06-4.08-.45-11.14,1.92-12.24-4.08-12.32,2.16-23.14,4.08-36.73,4.08a291.93,291.93,0,0,1-53,0c-31.22,1-60.68-5.19-89.78-12.25-20.61,42.89-30.93,78.32-41.7,125.61S383.84,474.31,387,524.75s12.57,91.25,21.3,141.94,46.85,71.45,101.13,62.11c-4.33-53.09,2.36-89,10.93-140.06s49.71-49.62,58.44,1.31,9.06,86.88,8.16,138.75c28.73,3.34,54.57-5.27,81.62-8.16,15.22-45.26,28-91.7,36.73-138.75M578.78,316.63c108.76,30.77,54.89,213.18-57.17,175.52S463.17,283.9,578.78,316.63Z"/><path class="cls-15" d="M615.51,259.5c1.1,6,8.16,3.63,12.24,4.08,48.93,146.5,28.37,313.53-16.32,457.06,18.69,2.16,34.28-7,53.05-4.09,13.14-47,28.61-93.45,32.65-142.83,2.12.29,8,7.1,8.16,8.17,16.65-112.51,5.14-230.08-44.89-330.56C646.32,257.37,630.49,256.88,615.51,259.5Z"/><path class="cls-16" d="M578.78,263.58h-53A291.93,291.93,0,0,0,578.78,263.58Z"/><path class="cls-17" d="M578.78,316.63C463.17,283.9,409.55,454.44,521.61,492.15S687.54,347.4,578.78,316.63m-16.32,8.16c100.59,18,75.58,178.33-27.22,161.89S459.13,306.26,562.46,324.79Z"/><path class="cls-18" d="M562.46,324.79c-103.33-18.53-130,145.44-27.22,161.89s127.81-143.85,27.22-161.89m12.24,16.32c81,24.57,28.28,164.46-51.7,129.25S490.88,315.69,574.7,341.11Z"/><path class="cls-19" d="M574.7,341.11c-83.82-25.42-131.69,94-51.7,129.25s132.67-104.68,51.7-129.25m-16.32,4.08c73,8,56.44,133.2-20.41,118.35S484.72,337.16,558.38,345.19Z"/><path class="cls-20" d="M558.38,345.19c-73.66-8-97.25,103.5-20.41,118.35s93.37-110.39,20.41-118.35M538,353.36c18.94,6.57-13.63,60.19-32.68,53S516.79,346,538,353.36Z"/><path class="cls-21" d="M538,353.36c-21.18-7.35-51.7,45.82-32.68,53S556.91,359.93,538,353.36Z"/><path class="cls-22" d="M840,361.52c-15.18-8.61-26.45,12.4-13.18,21.26S849.92,367.15,840,361.52Z"/><path class="cls-23" d="M272.72,377.84c-18.41-6.73-28,17.43-12.29,24.45S287.2,383.15,272.72,377.84Z"/><path class="cls-24" d="M897.09,512.51c9.35,20.36,56.24,35.22,56.81.33S903.29,488.27,897.09,512.51Z"/><path class="cls-25" d="M174.78,492.11c-28.82-9.47-44.49,33.7-16.65,45.17S199.59,500.27,174.78,492.11Z"/><path class="cls-26" d="M329.85,569.64c19.3-12.81,14.65,16,3.06,23.47s-17.63,26.32-23.47,37.75c-11.1,21.71-11.71,52.88-28.56,65.29V659.42c-11.51,51.1-9,120.18,24.48,163.24,15.51-20.81,25.26-44.4,40.81-65.3,6.74-9.06,14.73-18.85,24.49-24.48C357,684,356.82,631.47,346.17,581.89c16.82-8.66,24.61-25.88,28.57-40.81C366.41,530.1,336.54,561.07,329.85,569.64Z"/><path class="cls-27" d="M754.26,761.44c-9-12.12-20.49-24.07-32.65-32.64,15.27-48.36,16.08-100.84,24.49-151-11-8.44-28.81-23.26-16.32-36.72-13.8-.21-11.23,40.15-16.33,61.21s-4.69,46.64-16.4,69.29-11.19,42.36,11.38,50S740.51,745.65,754.26,761.44Z"/><path class="cls-28" d="M346.17,757.36c20.45-17,38.69-38.81,65.3-44.89-12-24.4-12.41-57.86-24.57-81.53s2.86-70.07-12.16-89.86c-4,14.93-11.75,32.15-28.57,40.81,10.65,49.58,10.86,102.14,24.49,151C360.9,738.51,352.91,748.3,346.17,757.36Z"/><path class="cls-29" d="M754.26,761.44c14.08,19.06,22.08,40.24,32.65,61.22,37.38-39.3,40.72-122.71,24.48-175.48-.53,4,.45,8.2,0,12.24-8.73-3.63-19.42-8.4-16.32-20.4-5.39-8.69-11-19.55-16.32-28.57-13.06-12.57-24.61-30.56-40.81-40.81,5.55-4.32,11.83-6,16.32-12.24-6.65-5.92-14.08-16.16-24.48-16.32-12.49,13.46,5.34,28.28,16.32,36.72-8.41,50.16-9.22,102.64-24.49,151C733.77,737.37,745.24,749.32,754.26,761.44Z"/><path class="cls-30" d="M542.05,565.56c-2.77,10.45,7.06,38,4.09,53.05-.7,3.47-2.94,8.7-4.09,12.25,1.51-2.53,5-6.78,8.17-8.17-4,68.73,8.89,144.35-8.17,208.13-.85,5.75,2.9,10.45,8.17,12.24,28.24-88.59,39.7-198.25,0-285.66C545.48,557.44,544.42,562.79,542.05,565.56Z"/><path class="cls-31" d="M778.75,610.45c12.2,11.75,13,17.47,16.32,28.57-3.1,12,7.59,16.77,16.32,20.4.45-4-.53-8.24,0-12.24-11.34-36.93-27-63-57.13-89.78-4.49,6.24-10.77,7.92-16.32,12.24C754.14,579.89,765.69,597.88,778.75,610.45Z"/><path class="cls-32" d="M329.85,569.64c-.86,1.11-3.18,2.86-4.08,4.08,8.85,5.88,7.22,19-7.84,28.9s-9.1,33.46-8.49,28.24c5.84-11.43,11.92-30.32,23.47-37.75S349.15,556.83,329.85,569.64Z"/><path class="cls-33" d="M529.81,618.61c1.92-4.53,4-12.81,8.16-16.32.58,6.9-3.42,24.73,8.17,16.32,3-15.1-6.86-42.6-4.09-53.05C530.18,579.6,533,601.88,529.81,618.61Z"/><path class="cls-34" d="M280.88,659.42v36.73c16.85-12.41,17.46-43.58,28.56-65.29-.61,5.22-6.52-18.37,8.49-28.24s16.69-23,7.84-28.9C305.89,600.78,282.84,623.35,280.88,659.42Z"/><path class="cls-35" d="M529.81,618.61c-9.75,22.94-8.16,50.52-8.16,77.54,4.08-18.45,14.12-45.5,20.4-65.29,1.15-3.55,3.39-8.78,4.09-12.25-11.59,8.41-7.59-9.42-8.17-16.32C533.81,605.8,531.73,614.08,529.81,618.61Z"/><path class="cls-36" d="M795.07,639c-3.35-11.1-4.12-16.82-16.32-28.57C784.09,619.47,789.68,630.33,795.07,639Z"/><path class="cls-37" d="M542.05,630.86c-6.28,19.79-16.32,46.84-20.4,65.29,0,41,1.63,100,20.4,134.67,17.06-63.78,4.13-139.4,8.17-208.13C547.07,624.08,543.56,628.33,542.05,630.86Z"/><path class="cls-38" d="M942,671.67c-9.79-4.9-21.46,8.2-10.94,14.93S951.29,676.32,942,671.67Z"/><path class="cls-39" d="M513.49,741c-22.85,2.9-43.14-4.49-65.3-4.08v36.73c23,5,45,13.14,69.38,12.24C512.35,771.85,513.33,756.47,513.49,741Z"/><path class="cls-40" d="M648.16,737c-37.75-.45-76.6,1.35-69.38,49C611.23,784,662.89,784.58,648.16,737Z"/><path class="cls-41" d="M36,757.36s-2.7-.94-4.08,0c.93.66,0,6.12,0,8.17C42,789.24,38.52,835.88,36,863.47c60.07-13.35,130.5,32.19,118.34,97.94,23.71,14.44,48.48-5.92,74.35,3.18s40.24,26.73,44,53.95c21.63-13.92,44.19,2.41,49,24.48h93.86c-3.51-42-46.93-75.12-89.78-65.29,12.73-70.19-68.6-114.3-126.51-85.7C220.93,798.05,121.72,727.41,36,757.36Z"/><path class="cls-42" d="M32,981.81a10.9,10.9,0,0,1,0-4.08V765.53c0-2,.93-7.51,0-8.17a34.88,34.88,0,0,0-4.09,0C27.86,826.37,13.79,917.62,32,981.81Z"/><path class="cls-43" d="M32,863.47a32.67,32.67,0,0,1,4.08,0c2.49-27.59,6-74.23-4.08-97.94Z"/><path class="cls-41" d="M676.72,1043h97.94c14-6.93,23.14-54.27,53.06-28.56,3.3-28.08,33-77.05,76.19-55.79s37.66-24.73,53.46-59.41,64.51-38.28,94.79-44v-4.08c-9.1-12.28-5.3-44.64,0-57.13v-8.16a7.71,7.71,0,0,1-4.08,0C977.44,755.08,886.32,812.62,893,892c-57-25.38-135,16.49-122.43,85.7C725.57,968.55,683.66,1000,676.72,1043Z"/><path class="cls-44" d="M456.36,834.9c-1.64,4.37-2.74,8-4.08,12.24-7.15,23.1-15.31,60.44-8.17,85.7,7.47.61,1.35,11.26,8.17,12.24,7.75-12,15.42-25.05,28.56-32.64,1.47,20.36,3.18,52.19,12.33,69.29s6.85,49.09,20.32,61.29a348.1,348.1,0,0,0,65.29,0c22.16-40.27,34.28-84.47,36.73-130.58,15.14,6.53,18.9,25,32.65,32.64,1.51-3.1-1.88-9.34,0-12.24,11.67-29.63.73-69.41-8.16-97.94-2.9-9.3-11.47-39.67-24.49-40.81-.9-.08-12.32,4-16.32,4.08,16.77,14.29,11,61.87,16.32,81.62-10.85,2-13.55-14.41-24.48-12.24,4.16,51.29-22.2,94.67-40.81,138.75-18.86-17.43-21.92-50.12-34-72.15s0-78-35.42-54.36a152.33,152.33,0,0,1,20.41-81.62c-1.31.12-3.06-3.75-4.08-4.08H472.68C468.44,808.05,461.46,821.35,456.36,834.9Z"/><path class="cls-45" d="M501.25,798.17c3.42-.28,8.89-.73,12.24,0,.57.12,8.12,4,8.16,4.08,5.26-6.28-21.67-9.38-24.48-8.16C498.19,794.42,499.94,798.29,501.25,798.17Z"/><path class="cls-46" d="M574.7,802.25c2.86-3.38,8.25-3.63,12.24-4.08s8.25.08,12.25,0,15.42-4.16,16.32-4.08C603.59,790.17,581.48,792.3,574.7,802.25Z"/><path class="cls-47" d="M1052.16,851.22c0-19.05,0-38.07,0-57.13C1046.86,806.58,1043.06,838.94,1052.16,851.22Z"/><path class="cls-48" d="M599.19,798.17c-4,.08-8.29-.45-12.25,0,.94,54.93-8.36,112.43-40.8,155.08-28.08-45.71-36.08-99.86-32.65-155.08-3.35-.73-8.82-.28-12.24,0a152.33,152.33,0,0,0-20.41,81.62c35.38-23.63,23.39,32.32,35.42,54.36s15.1,54.72,34,72.15c18.61-44.08,45-87.46,40.81-138.75,10.93-2.17,13.63,14.2,24.48,12.24C610.21,860,616,812.46,599.19,798.17Z"/><path class="cls-49" d="M586.94,798.17c-4,.45-9.38.7-12.24,4.08-7.59,9-5,56.81-28.24,52.73s-16.89-38.89-24.81-52.73c0,0-7.59-4-8.16-4.08-3.43,55.22,4.57,109.37,32.65,155.08C578.58,910.6,587.88,853.1,586.94,798.17Z"/><path class="cls-50" d="M648.16,932.84c18.2-28.16,6.85-67.9-4.08-97.94,0,0-3.55.9-4.08,0C648.89,863.43,659.83,903.21,648.16,932.84Z"/><path class="cls-51" d="M444.11,932.84c-7.14-25.26,1-62.6,8.17-85.7C440.81,869.14,433.14,916.56,444.11,932.84Z"/><path class="cls-52" d="M774.66,1043c68.93,0,143.9,8.49,212.21,0,33.5-8.28,60.4-28.6,65.29-65.29,1-27.79-18.48-93.33,0-118.34V855.3c-30.28,5.68-79,9.27-94.79,44s-10.25,80.67-53.46,59.41-72.89,27.71-76.19,55.79C797.8,988.75,788.7,1036.09,774.66,1043Z"/><path class="cls-53" d="M1052.16,977.73c5.06-37.91,0-80.07,0-118.34C1033.68,884.4,1053.18,949.94,1052.16,977.73Z"/><path class="cls-54" d="M32,977.73c14.07-19.06,6.32-89,4.08-114.26a32.67,32.67,0,0,0-4.08,0Z"/><path class="cls-55" d="M32,977.73a10.9,10.9,0,0,0,0,4.08c7.46,31.79,30.4,53.22,61.21,61.21,73.21,9.76,154.58,0,228.53,0-4.78-22.07-27.34-38.4-49-24.48-3.76-27.22-18.08-44.85-44-53.95s-50.64,11.26-74.35-3.18C166.53,895.66,96.1,850.12,36,863.47,38.27,888.69,46,958.67,32,977.73Z"/><path class="cls-56" d="M419.63,1043H321.69c-73.95,0-155.32,9.76-228.53,0,49.13,12.74,110.1,1.15,163.23,4.09S369.39,1047.88,419.63,1043Z"/><path class="cls-57" d="M986.87,1043c-68.31,8.49-143.28,0-212.21,0H676.72c47.46,4.62,104.43,6.74,155.08,4.09S939.74,1054.7,986.87,1043Z"/><path class="cls-58" d="M36,92.18c-1.15,3.63-3.31,8.45-4.08,12.24C30.23,130.91,39.49,164,36,194.2s1.75,63.09,0,93.86,1.22,62.85,0,93.86,1.51,67.3,0,97.94S39,544.5,36,573.72s6.28,67.46,0,93.86S49.66,739,36,757.36c85.69-30,184.9,40.69,163.23,134.67,57.91-28.6,139.24,15.51,126.51,85.7C368.62,967.9,412,1001,415.55,1043h4.08c30.81,0,63.17-2.89,93.86,0-13.47-12.2-11.14-44.19-20.32-61.29s-10.86-48.93-12.33-69.29C467.7,920,460,933.13,452.28,945.08c-6.82-1-.7-11.63-8.17-12.24-11-16.28-3.3-63.7,8.17-85.7,1.34-4.28,2.44-7.87,4.08-12.24,1.55-12-9.84-32.69,4.08-44.89-37.42-.77-23.26-81.86-60.15-60.15S350,763.4,337,801.19s-55.26,41.59-63.34.17-13.67-80.19-13.14-121.53,14.78-64.44,36.41-94.19,42.52-45.13,73.78-60.89c5.67-43.25-5.14-110.47,4.08-151s28.12-77.37,41.83-113.24,38.36-67.62,59.86-95.21,63-75,94.52-49,56.72,44,76.27,78.8S679.58,263,697.05,300.39s20.24,88.14,24.56,130.5-4.89,90.39,35.71,115.29,44.44,47.74,67.58,87.49,1,91.33,2.82,135.94-42.45,89.12-62.52,38S723,758.47,689,724.72c-10.86-2-13.55,14.4-24.49,12.24,1.67,21.51,2.45,50.4-24.48,53-1.72,16.85-2.41,29.18,4.08,44.89,10.93,30,22.28,69.78,4.08,97.94-1.88,2.9,1.51,9.14,0,12.24-13.75-7.67-17.51-26.11-32.65-32.64-2.45,46.11-14.57,90.31-36.73,130.58a539.4,539.4,0,0,1,97.94,0c6.94-43,48.85-74.47,93.86-65.29C758,908.52,836,866.65,893,892c-6.69-79.41,84.43-136.95,155.07-106.1-14.44-19.51,6.37-65.5,0-93.86s2.94-70.64,0-102,1.51-69.34,0-102,1-68.93,0-102,1.27-69.09,0-102,2.33-70,0-102,4.78-67.78,0-93.86c-27.42-86.68-151.93-47.62-228.53-53s-200,.77-281.58,0-203.06-3.39-281.58,0S63.94,4.6,36,92.18m171.39,73.46c-1.63,21.34,15.27,38.4,36.73,36.72-14.12,11.76-37.22,26-40.81,49-7.47-16.36-15.91-43.09-40.81-40.8,15-10,34.77-30,44.89-44.89m685.59,0c.25,19.26,14.57,40.93,36.73,36.72-13.18,13.76-37.71,24.82-40.81,49-7.47-16.36-16-43.13-40.81-40.8,21.87-7.68,32.16-30.69,44.89-44.89M840,361.52c10,5.63.08,30.12-13.18,21.26s-2-29.87,13.18-21.26M272.72,377.84c14.48,5.31,3.47,31.47-12.29,24.45s-6.12-31.18,12.29-24.45M897.09,512.51c6.2-24.24,57.42-34.6,56.81.33s-47.46,20-56.81-.33m-722.31-20.4c24.81,8.16,11.22,56.64-16.65,45.17S146,482.64,174.78,492.11M942,671.67c9.31,4.65-.41,21.66-10.94,14.93S932.19,666.77,942,671.67Z"/><path class="cls-59" d="M1048.08,785.93a7.71,7.71,0,0,0,4.08,0c0-77.21,2.53-160,0-236.69s6.9-157.65,0-232.61,17.8-159.4-4.08-228.53c4.78,26.08-2.32,61.82,0,93.86s-1.26,69.09,0,102-1,68.93,0,102-1.51,69.34,0,102-2.93,70.64,0,102-6.36,73.66,0,102S1033.64,766.42,1048.08,785.93Z"/><path class="cls-60" d="M27.86,757.36a34.88,34.88,0,0,1,4.09,0c-6.45-70.92.48-145,0-216.28S26.8,395.8,32,324.79,18.11,174.08,32,104.42c.77-3.79,2.93-8.61,4.08-12.24-26.24,62.93-1.92,145-8.17,216.29s2.33,151.48,0,224.45S27.86,684,27.86,757.36Z"/><path class="cls-61" d="M32,757.36c1.38-.94,4.08,0,4.08,0C49.66,739,29.74,694,36,667.58s-2.94-64.64,0-93.86-1.51-63.21,0-93.86-1.23-66.92,0-97.94-1.76-63.09,0-93.86-3.47-63.66,0-93.86-5.8-63.29-4.08-89.78c-13.84,69.66,5.14,149.36,0,220.37s-.49,145,0,216.29S25.5,686.44,32,757.36Z"/><path class="cls-62" d="M456.36,834.9c5.1-13.55,12.08-26.85,16.32-40.81h24.49c2.81-1.22,29.74,1.88,24.48,8.16,7.92,13.84,1.55,48.61,24.81,52.73s20.65-43.75,28.24-52.73c6.78-10,28.89-12.08,40.81-8.16,13,1.14,21.59,31.51,24.49,40.81.53.9,4.08,0,4.08,0-6.49-15.71-5.8-28-4.08-44.89,26.93-2.65,26.15-31.54,24.48-53,10.94,2.16,13.63-14.2,24.49-12.24,34,33.75,56.15,31.83,76.23,82.92s64.35,6.61,62.52-38S848,673.42,824.9,633.67s-27-62.6-67.58-87.49-31.38-72.93-35.71-115.29-7.14-93-24.56-130.5S666.77,230,647.22,195.14s-44.77-52.81-76.27-78.8-73,21.38-94.52,49-46.11,59.38-59.86,95.21S384,333.24,374.74,373.76s1.59,107.74-4.08,151c-31.26,15.76-52.16,31.14-73.78,60.89S261,638.49,260.47,679.83s5.11,80.1,13.14,121.53S324,839,337,801.19s26.4-49.62,63.34-71.33S423,789.24,460.44,790c-13.92,12.2-2.53,32.89-4.08,44.89M574.7,137.07c34.57,27.55,63.5,66.4,77.54,106.1-17.35-1.34-31.51,9.51-49,8.16C564,254,522.51,251,484.92,247.25c-6.73-.65-13.71.86-20.4,0-6-.77-16.45-4.49-20.41-8.16,20.45-39.26,45.26-78,81.62-106.1,3.92-3,8.2-5.67,12.24-8.16,2.49-1.51,5.19-3.72,8.17-4.08,10.4-1.23,21.83,10.93,28.56,16.32m-49,126.51h53c13.59,0,24.41-1.92,36.73-4.08,15-2.62,30.81-2.13,44.89-8.17,50,100.48,61.54,218.05,44.89,330.56-8.77,47.05-21.51,93.49-36.73,138.75-27,2.89-52.89,11.5-81.62,8.16.9-51.87.62-87.82-8.16-138.75s-49.91-52.36-58.44-1.31-15.26,87-10.93,140.06c-54.28,9.34-92.39-11.43-101.13-62.11s-18.16-91.5-21.3-141.94-3.55-100.55,7.27-147.81,21.09-82.72,41.7-125.61c29.1,7.06,58.56,13.27,89.78,12.25m-151,277.5c15,19.79,0,66.23,12.16,89.86s12.53,57.13,24.57,81.53c-26.61,6.08-44.85,27.88-65.3,44.89-15.55,20.9-25.3,44.49-40.81,65.3-33.5-43.06-36-112.14-24.48-163.24,2-36.07,25-58.64,44.89-85.7.9-1.22,3.22-3,4.08-4.08,6.69-8.57,36.56-39.54,44.89-28.56m355,0c10.4.16,17.83,10.4,24.48,16.32,30.12,26.77,45.79,52.85,57.13,89.78,16.24,52.77,12.9,136.18-24.48,175.48-10.57-21-18.57-42.16-32.65-61.22-13.75-15.79-23.26-32.23-45.83-39.87s-23.14-27.34-11.38-50,11.3-48.23,16.4-69.29,2.53-61.42,16.33-61.21M542.05,830.82c-18.77-34.69-20.4-93.7-20.4-134.67,0-27-1.59-54.6,8.16-77.54,3.23-16.73.37-39,12.24-53.05,2.37-2.77,3.43-8.12,8.17-8.16,39.7,87.41,28.24,197.07,0,285.66-5.27-1.79-9-6.49-8.17-12.24M513.49,741c-.16,15.43-1.14,30.81,4.08,44.89-24.4.9-46.4-7.22-69.38-12.24V737c22.16-.41,42.45,7,65.3,4.08M648.16,737c14.73,47.62-36.93,47-69.38,49C571.56,738.31,610.41,736.51,648.16,737Z"/><path class="cls-63" d="M538,124.83c-6.32,8-9.42,16.48-16.32,24.48-25.18,29.18-53.79,58.73-57.13,97.94,6.69.86,13.67-.65,20.4,0-11-17.14,30.85-47.09,31.63-62.23s45.13-47.79,29.59-64.27C543.16,121.11,540.46,123.32,538,124.83Z"/><path class="cls-64" d="M484.92,247.25C522.51,251,564,254,603.27,251.33c3.39-.69,10.28-7.54,16.32-4.08-11.67-37.3-41-75-44.89-110.18-6.73-5.39-18.16-17.55-28.56-16.32,15.54,16.48-28.77,49.13-29.59,64.27S473.94,230.11,484.92,247.25Z"/><path class="cls-65" d="M525.73,133c-2.16,3.63-1.71,11.63-4.08,16.32,6.9-8,10-16.44,16.32-24.48C533.93,127.32,529.65,130,525.73,133Z"/><path class="cls-66" d="M464.52,247.25c3.34-39.21,32-68.76,57.13-97.94,2.37-4.69,1.92-12.69,4.08-16.32-36.36,28.12-61.17,66.84-81.62,106.1C448.07,242.76,458.48,246.48,464.52,247.25Z"/><path class="cls-67" d="M603.27,251.33c17.46,1.35,31.62-9.5,49-8.16-14-39.7-43-78.55-77.54-106.1,3.92,35.18,33.22,72.88,44.89,110.18C613.55,243.79,606.66,250.64,603.27,251.33Z"/><path class="cls-68" d="M207.42,165.64c-10.12,14.89-29.91,34.93-44.89,44.89,24.9-2.29,33.34,24.44,40.81,40.8,3.59-22.93,26.69-37.21,40.81-49C222.69,204,205.79,187,207.42,165.64Z"/><path class="cls-69" d="M893,165.64c-12.73,14.2-23,37.21-44.89,44.89,24.85-2.33,33.34,24.44,40.81,40.8,3.1-24.15,27.63-35.21,40.81-49C907.58,206.57,893.26,184.9,893,165.64Z"/><path class="cls-70" d="M705.29,581.89c-.16-1.07-6-7.88-8.16-8.17-4,49.38-19.51,95.78-32.65,142.83-18.77-2.93-34.36,6.25-53.05,4.09,44.69-143.53,65.25-310.56,16.32-457.06-4.08-.45-11.14,1.92-12.24-4.08-12.32,2.16-23.14,4.08-36.73,4.08a291.93,291.93,0,0,1-53,0c-31.22,1-60.68-5.19-89.78-12.25-20.61,42.89-30.93,78.32-41.7,125.61S383.84,474.31,387,524.75s12.57,91.25,21.3,141.94,46.85,71.45,101.13,62.11c-4.33-53.09,2.36-89,10.93-140.06s49.71-49.62,58.44,1.31,9.06,86.88,8.16,138.75c28.73,3.34,54.57-5.27,81.62-8.16,15.22-45.26,28-91.7,36.73-138.75M578.78,316.63c108.76,30.77,54.89,213.18-57.17,175.52S463.17,283.9,578.78,316.63Z"/><path class="cls-71" d="M615.51,259.5c1.1,6,8.16,3.63,12.24,4.08,48.93,146.5,28.37,313.53-16.32,457.06,18.69,2.16,34.28-7,53.05-4.09,13.14-47,28.61-93.45,32.65-142.83,2.12.29,8,7.1,8.16,8.17,16.65-112.51,5.14-230.08-44.89-330.56C646.32,257.37,630.49,256.88,615.51,259.5Z"/><path class="cls-72" d="M578.78,263.58h-53A291.93,291.93,0,0,0,578.78,263.58Z"/><path class="cls-73" d="M578.78,316.63C463.17,283.9,409.55,454.44,521.61,492.15S687.54,347.4,578.78,316.63m-16.32,8.16c100.59,18,75.58,178.33-27.22,161.89S459.13,306.26,562.46,324.79Z"/><path class="cls-74" d="M562.46,324.79c-103.33-18.53-130,145.44-27.22,161.89s127.81-143.85,27.22-161.89m12.24,16.32c81,24.57,28.28,164.46-51.7,129.25S490.88,315.69,574.7,341.11Z"/><path class="cls-75" d="M574.7,341.11c-83.82-25.42-131.69,94-51.7,129.25s132.67-104.68,51.7-129.25m-16.32,4.08c73,8,56.44,133.2-20.41,118.35S484.72,337.16,558.38,345.19Z"/><path class="cls-76" d="M558.38,345.19c-73.66-8-97.25,103.5-20.41,118.35s93.37-110.39,20.41-118.35M538,353.36c18.94,6.57-13.63,60.19-32.68,53S516.79,346,538,353.36Z"/><path class="cls-77" d="M538,353.36c-21.18-7.35-51.7,45.82-32.68,53S556.91,359.93,538,353.36Z"/><path class="cls-78" d="M840,361.52c-15.18-8.61-26.45,12.4-13.18,21.26S849.92,367.15,840,361.52Z"/><path class="cls-79" d="M272.72,377.84c-18.41-6.73-28,17.43-12.29,24.45S287.2,383.15,272.72,377.84Z"/><path class="cls-80" d="M897.09,512.51c9.35,20.36,56.24,35.22,56.81.33S903.29,488.27,897.09,512.51Z"/><path class="cls-81" d="M174.78,492.11c-28.82-9.47-44.49,33.7-16.65,45.17S199.59,500.27,174.78,492.11Z"/><path class="cls-82" d="M329.85,569.64c19.3-12.81,14.65,16,3.06,23.47s-17.63,26.32-23.47,37.75c-11.1,21.71-11.71,52.88-28.56,65.29V659.42c-11.51,51.1-9,120.18,24.48,163.24,15.51-20.81,25.26-44.4,40.81-65.3,6.74-9.06,14.73-18.85,24.49-24.48C357,684,356.82,631.47,346.17,581.89c16.82-8.66,24.61-25.88,28.57-40.81C366.41,530.1,336.54,561.07,329.85,569.64Z"/><path class="cls-83" d="M754.26,761.44c-9-12.12-20.49-24.07-32.65-32.64,15.27-48.36,16.08-100.84,24.49-151-11-8.44-28.81-23.26-16.32-36.72-13.8-.21-11.23,40.15-16.33,61.21s-4.69,46.64-16.4,69.29-11.19,42.36,11.38,50S740.51,745.65,754.26,761.44Z"/><path class="cls-84" d="M346.17,757.36c20.45-17,38.69-38.81,65.3-44.89-12-24.4-12.41-57.86-24.57-81.53s2.86-70.07-12.16-89.86c-4,14.93-11.75,32.15-28.57,40.81,10.65,49.58,10.86,102.14,24.49,151C360.9,738.51,352.91,748.3,346.17,757.36Z"/><path class="cls-85" d="M754.26,761.44c14.08,19.06,22.08,40.24,32.65,61.22,37.38-39.3,40.72-122.71,24.48-175.48-.53,4,.45,8.2,0,12.24-8.73-3.63-19.42-8.4-16.32-20.4-5.39-8.69-11-19.55-16.32-28.57-13.06-12.57-24.61-30.56-40.81-40.81,5.55-4.32,11.83-6,16.32-12.24-6.65-5.92-14.08-16.16-24.48-16.32-12.49,13.46,5.34,28.28,16.32,36.72-8.41,50.16-9.22,102.64-24.49,151C733.77,737.37,745.24,749.32,754.26,761.44Z"/><path class="cls-86" d="M542.05,565.56c-2.77,10.45,7.06,38,4.09,53.05-.7,3.47-2.94,8.7-4.09,12.25,1.51-2.53,5-6.78,8.17-8.17-4,68.73,8.89,144.35-8.17,208.13-.85,5.75,2.9,10.45,8.17,12.24,28.24-88.59,39.7-198.25,0-285.66C545.48,557.44,544.42,562.79,542.05,565.56Z"/><path class="cls-87" d="M778.75,610.45c12.2,11.75,13,17.47,16.32,28.57-3.1,12,7.59,16.77,16.32,20.4.45-4-.53-8.24,0-12.24-11.34-36.93-27-63-57.13-89.78-4.49,6.24-10.77,7.92-16.32,12.24C754.14,579.89,765.69,597.88,778.75,610.45Z"/><path class="cls-88" d="M329.85,569.64c-.86,1.11-3.18,2.86-4.08,4.08,8.85,5.88,7.22,19-7.84,28.9s-9.1,33.46-8.49,28.24c5.84-11.43,11.92-30.32,23.47-37.75S349.15,556.83,329.85,569.64Z"/><path class="cls-89" d="M529.81,618.61c1.92-4.53,4-12.81,8.16-16.32.58,6.9-3.42,24.73,8.17,16.32,3-15.1-6.86-42.6-4.09-53.05C530.18,579.6,533,601.88,529.81,618.61Z"/><path class="cls-90" d="M280.88,659.42v36.73c16.85-12.41,17.46-43.58,28.56-65.29-.61,5.22-6.52-18.37,8.49-28.24s16.69-23,7.84-28.9C305.89,600.78,282.84,623.35,280.88,659.42Z"/><path class="cls-91" d="M529.81,618.61c-9.75,22.94-8.16,50.52-8.16,77.54,4.08-18.45,14.12-45.5,20.4-65.29,1.15-3.55,3.39-8.78,4.09-12.25-11.59,8.41-7.59-9.42-8.17-16.32C533.81,605.8,531.73,614.08,529.81,618.61Z"/><path class="cls-92" d="M795.07,639c-3.35-11.1-4.12-16.82-16.32-28.57C784.09,619.47,789.68,630.33,795.07,639Z"/><path class="cls-93" d="M542.05,630.86c-6.28,19.79-16.32,46.84-20.4,65.29,0,41,1.63,100,20.4,134.67,17.06-63.78,4.13-139.4,8.17-208.13C547.07,624.08,543.56,628.33,542.05,630.86Z"/><path class="cls-94" d="M942,671.67c-9.79-4.9-21.46,8.2-10.94,14.93S951.29,676.32,942,671.67Z"/><path class="cls-95" d="M513.49,741c-22.85,2.9-43.14-4.49-65.3-4.08v36.73c23,5,45,13.14,69.38,12.24C512.35,771.85,513.33,756.47,513.49,741Z"/><path class="cls-96" d="M648.16,737c-37.75-.45-76.6,1.35-69.38,49C611.23,784,662.89,784.58,648.16,737Z"/><path class="cls-97" d="M36,757.36s-2.7-.94-4.08,0c.93.66,0,6.12,0,8.17C42,789.24,38.52,835.88,36,863.47c60.07-13.35,130.5,32.19,118.34,97.94,23.71,14.44,48.48-5.92,74.35,3.18s40.24,26.73,44,53.95c21.63-13.92,44.19,2.41,49,24.48h93.86c-3.51-42-46.93-75.12-89.78-65.29,12.73-70.19-68.6-114.3-126.51-85.7C220.93,798.05,121.72,727.41,36,757.36Z"/><path class="cls-98" d="M32,981.81a10.9,10.9,0,0,1,0-4.08V765.53c0-2,.93-7.51,0-8.17a34.88,34.88,0,0,0-4.09,0C27.86,826.37,13.79,917.62,32,981.81Z"/><path class="cls-99" d="M32,863.47a32.67,32.67,0,0,1,4.08,0c2.49-27.59,6-74.23-4.08-97.94Z"/><path class="cls-97" d="M676.72,1043h97.94c14-6.93,23.14-54.27,53.06-28.56,3.3-28.08,33-77.05,76.19-55.79s37.66-24.73,53.46-59.41,64.51-38.28,94.79-44v-4.08c-9.1-12.28-5.3-44.64,0-57.13v-8.16a7.71,7.71,0,0,1-4.08,0C977.44,755.08,886.32,812.62,893,892c-57-25.38-135,16.49-122.43,85.7C725.57,968.55,683.66,1000,676.72,1043Z"/><path class="cls-100" d="M456.36,834.9c-1.64,4.37-2.74,8-4.08,12.24-7.15,23.1-15.31,60.44-8.17,85.7,7.47.61,1.35,11.26,8.17,12.24,7.75-12,15.42-25.05,28.56-32.64,1.47,20.36,3.18,52.19,12.33,69.29s6.85,49.09,20.32,61.29a348.1,348.1,0,0,0,65.29,0c22.16-40.27,34.28-84.47,36.73-130.58,15.14,6.53,18.9,25,32.65,32.64,1.51-3.1-1.88-9.34,0-12.24,11.67-29.63.73-69.41-8.16-97.94-2.9-9.3-11.47-39.67-24.49-40.81-.9-.08-12.32,4-16.32,4.08,16.77,14.29,11,61.87,16.32,81.62-10.85,2-13.55-14.41-24.48-12.24,4.16,51.29-22.2,94.67-40.81,138.75-18.86-17.43-21.92-50.12-34-72.15s0-78-35.42-54.36a152.33,152.33,0,0,1,20.41-81.62c-1.31.12-3.06-3.75-4.08-4.08H472.68C468.44,808.05,461.46,821.35,456.36,834.9Z"/><path class="cls-101" d="M501.25,798.17c3.42-.28,8.89-.73,12.24,0,.57.12,8.12,4,8.16,4.08,5.26-6.28-21.67-9.38-24.48-8.16C498.19,794.42,499.94,798.29,501.25,798.17Z"/><path class="cls-102" d="M574.7,802.25c2.86-3.38,8.25-3.63,12.24-4.08s8.25.08,12.25,0,15.42-4.16,16.32-4.08C603.59,790.17,581.48,792.3,574.7,802.25Z"/><path class="cls-103" d="M1052.16,851.22c0-19.05,0-38.07,0-57.13C1046.86,806.58,1043.06,838.94,1052.16,851.22Z"/><path class="cls-104" d="M599.19,798.17c-4,.08-8.29-.45-12.25,0,.94,54.93-8.36,112.43-40.8,155.08-28.08-45.71-36.08-99.86-32.65-155.08-3.35-.73-8.82-.28-12.24,0a152.33,152.33,0,0,0-20.41,81.62c35.38-23.63,23.39,32.32,35.42,54.36s15.1,54.72,34,72.15c18.61-44.08,45-87.46,40.81-138.75,10.93-2.17,13.63,14.2,24.48,12.24C610.21,860,616,812.46,599.19,798.17Z"/><path class="cls-105" d="M586.94,798.17c-4,.45-9.38.7-12.24,4.08-7.59,9-5,56.81-28.24,52.73s-16.89-38.89-24.81-52.73c0,0-7.59-4-8.16-4.08-3.43,55.22,4.57,109.37,32.65,155.08C578.58,910.6,587.88,853.1,586.94,798.17Z"/><path class="cls-106" d="M648.16,932.84c18.2-28.16,6.85-67.9-4.08-97.94,0,0-3.55.9-4.08,0C648.89,863.43,659.83,903.21,648.16,932.84Z"/><path class="cls-107" d="M444.11,932.84c-7.14-25.26,1-62.6,8.17-85.7C440.81,869.14,433.14,916.56,444.11,932.84Z"/><path class="cls-108" d="M774.66,1043c68.93,0,143.9,8.49,212.21,0,33.5-8.28,60.4-28.6,65.29-65.29,1-27.79-18.48-93.33,0-118.34V855.3c-30.28,5.68-79,9.27-94.79,44s-10.25,80.67-53.46,59.41-72.89,27.71-76.19,55.79C797.8,988.75,788.7,1036.09,774.66,1043Z"/><path class="cls-109" d="M1052.16,977.73c5.06-37.91,0-80.07,0-118.34C1033.68,884.4,1053.18,949.94,1052.16,977.73Z"/><path class="cls-110" d="M32,977.73c14.07-19.06,6.32-89,4.08-114.26a32.67,32.67,0,0,0-4.08,0Z"/><path class="cls-111" d="M32,977.73a10.9,10.9,0,0,0,0,4.08c7.46,31.79,30.4,53.22,61.21,61.21,73.21,9.76,154.58,0,228.53,0-4.78-22.07-27.34-38.4-49-24.48-3.76-27.22-18.08-44.85-44-53.95s-50.64,11.26-74.35-3.18C166.53,895.66,96.1,850.12,36,863.47,38.27,888.69,46,958.67,32,977.73Z"/><path class="cls-112" d="M419.63,1043H321.69c-73.95,0-155.32,9.76-228.53,0,49.13,12.74,110.1,1.15,163.23,4.09S369.39,1047.88,419.63,1043Z"/><path class="cls-113" d="M986.87,1043c-68.31,8.49-143.28,0-212.21,0H676.72c47.46,4.62,104.43,6.74,155.08,4.09S939.74,1054.7,986.87,1043Z"/></svg>