<svg id="Layer_1" data-name="Layer 1" xmlns="http://www.w3.org/2000/svg" viewBox="0 0 1080 1080"><defs><style>.cls-1{fill:#0c1523;}.cls-10,.cls-11,.cls-12,.cls-13,.cls-14,.cls-15,.cls-16,.cls-17,.cls-18,.cls-19,.cls-2,.cls-20,.cls-21,.cls-22,.cls-23,.cls-24,.cls-25,.cls-26,.cls-27,.cls-28,.cls-29,.cls-3,.cls-30,.cls-31,.cls-32,.cls-33,.cls-34,.cls-35,.cls-36,.cls-37,.cls-38,.cls-39,.cls-4,.cls-40,.cls-41,.cls-42,.cls-43,.cls-44,.cls-45,.cls-46,.cls-47,.cls-48,.cls-49,.cls-5,.cls-50,.cls-51,.cls-52,.cls-53,.cls-54,.cls-6,.cls-7,.cls-8,.cls-9{fill:none;stroke-width:1.22px;}.cls-2{stroke:#0c1623;}.cls-3{stroke:#1a1a1e;}.cls-4{stroke:#050608;}.cls-5{stroke:#e2e1e1;}.cls-6{stroke:#569bcc;}.cls-7{stroke:#0b0d10;}.cls-8{stroke:#e9b663;}.cls-9{stroke:#1b979e;}.cls-10{stroke:#0c6a78;}.cls-11{stroke:#f2f8f8;}.cls-12{stroke:#819bc4;}.cls-13{stroke:#6590cb;}.cls-14{stroke:#d7ebeb;}.cls-15{stroke:#114748;}.cls-16{stroke:#c7c9ca;}.cls-17{stroke:#5f6265;}.cls-18{stroke:#a3a7ae;}.cls-19{stroke:#69717b;}.cls-20{stroke:#8d929d;}.cls-21{stroke:#44505e;}.cls-22{stroke:#0c1211;}.cls-23{stroke:#90c266;}.cls-24{stroke:#101714;}.cls-25{stroke:#101b14;}.cls-26{stroke:#f6faee;}.cls-27{stroke:#8bbd5d;}.cls-28{stroke:#91c066;}.cls-29{stroke:#edf4d6;}.cls-30{stroke:#f4f8e7;}.cls-31{stroke:#0f1613;}.cls-32{stroke:#0e1613;}.cls-33{stroke:#89bd62;}.cls-34{stroke:#87be5f;}.cls-35{stroke:#f7faef;}.cls-36{stroke:#324024;}.cls-37{stroke:#727e5a;}.cls-38{stroke:#f6f7dd;}.cls-39{stroke:#101c25;}.cls-40{stroke:#4d7d48;}.cls-41{stroke:#87aa52;}.cls-42{stroke:#558642;}.cls-43{stroke:#cce29c;}.cls-44{stroke:#243d1e;}.cls-45{stroke:#77af4c;}.cls-46{stroke:#9bca5d;}.cls-47{stroke:#a4adcf;}.cls-48{stroke:#e4e4e4;}.cls-49{stroke:#142618;}.cls-50{stroke:#e1e0e1;}.cls-51{stroke:#192e1b;}.cls-52{stroke:#6c91cb;}.cls-53{stroke:#5f9344;}.cls-54{stroke:#5e9344;}.cls-55{fill:#0c1623;}.cls-56{fill:#1a1a1e;}.cls-57{fill:#050608;}.cls-58{fill:#e2e1e1;}.cls-59{fill:#569bcc;}.cls-60{fill:#0b0d10;}.cls-61{fill:#e9b663;}.cls-62{fill:#1b979e;}.cls-63{fill:#0c6a78;}.cls-64{fill:#f2f8f8;}.cls-65{fill:#819bc4;}.cls-66{fill:#6590cb;}.cls-67{fill:#d7ebeb;}.cls-68{fill:#114748;}.cls-69{fill:#c7c9ca;}.cls-70{fill:#5f6265;}.cls-71{fill:#a3a7ae;}.cls-72{fill:#69717b;}.cls-73{fill:#8d929d;}.cls-74{fill:#44505e;}.cls-75{fill:#0c1211;}.cls-76{fill:#90c266;}.cls-77{fill:#101714;}.cls-78{fill:#101b14;}.cls-79{fill:#f6faee;}.cls-80{fill:#8bbd5d;}.cls-81{fill:#91c066;}.cls-82{fill:#edf4d6;}.cls-83{fill:#f4f8e7;}.cls-84{fill:#0f1613;}.cls-85{fill:#0e1613;}.cls-86{fill:#89bd62;}.cls-87{fill:#87be5f;}.cls-88{fill:#f7faef;}.cls-89{fill:#324024;}.cls-90{fill:#727e5a;}.cls-91{fill:#f6f7dd;}.cls-92{fill:#101c25;}.cls-93{fill:#4d7d48;}.cls-94{fill:#87aa52;}.cls-95{fill:#558642;}.cls-96{fill:#cce29c;}.cls-97{fill:#243d1e;}.cls-98{fill:#77af4c;}.cls-99{fill:#9bca5d;}.cls-100{fill:#a4adcf;}.cls-101{fill:#e4e4e4;}.cls-102{fill:#142618;}.cls-103{fill:#e1e0e1;}.cls-104{fill:#192e1b;}.cls-105{fill:#6c91cb;}.cls-106{fill:#5f9344;}.cls-107{fill:#5e9344;}</style></defs><title>avatar-alien-spaceship</title><rect class="cls-1" width="1080" height="1080"/><path class="cls-2" d="M48.35,98.55c-11.76,89.38,3.63,190.3,0,285.67s-1.88,197.55,0,293.82-6.65,200.9-4.08,293.82c11.71,94.6,160.46,65.3,228.53,65.3,1.22-8.21,1.95-16.37,4.08-24.49,13.67-52,34.56-113.28,61.21-159.15,11.71-20.12,15-39.18,20.4-61.22,4.74-19.42,15.14-37.13,24.49-53,9-22.89,20.81-44.81,24.48-69.37,1.27-8.41-1.95-17.39,4.09-24.49-35.79-9.83-82.81-8.49-117-21.75s-77.5-16.57-107.78-35S125.39,561,106.5,530.11s1.31-83.7,30.61-102,52.72-44.73,87-51.75,55.87-42.48,85.41-32.93c10.21-34.28,18.57-68,43.87-94.88s41-51.79,74.6-68.24,74.6-30.6,114.14-28.68,73.66,15.14,107,31.7,51.75,40.28,75.58,67.26,16.45,81,46,96.8S844.89,366.3,873,388s57.34,29,80.27,58.48,24.28,77.58-6.12,102S891.78,588,855.46,599.6s-72.07,26.29-110.18,32.65-93.58,5.8-72.64,50,22.4,64.44,40,102.88,25.14,68.4,37.59,105.25,33.05,67.37,32.72,101.94c5,14.32,11,29.26,12.25,44.89,66.72,0,226.65,31.46,240.77-61.22-.45,1.64-5.8,7.43-8.16,8.16,12.2-288.39-4-586.58,8.16-873.3C1026,14.45,899.17,43.1,823.71,41.42s-197.23-1.18-277.5,0-200.49-4.81-277.5,0S70.55,8.9,48.35,98.55M831.88,131.2c2.89,18.73,16.4,36.32,36.72,36.73-14.16,13.47-39.34,18.49-36.72,44.89C820.37,196.45,811.76,174.25,787,172c21.79-5.59,34.6-22.93,44.89-40.81M309.52,151.61c8.29,3.75,3.59,23.42-6.93,18.93s-2.82-23.38,6.93-18.93M187.1,163.85c27.13,5.39,21.87,54-9.19,49.79S151,156.71,187.1,163.85m49,110.18c10.69,4.86.77,25.55-10.94,19s3.22-22.53,10.94-19m689.67,4.08c11.91,3.31,6.77,28.61-6.94,23s-10.41-27.83,6.94-23M938,661.72c8,4.4-2.74,27.7-15,19s2-26.16,15-19m-738.64,40.8c.57,26.86,19.1,45,44.89,49-21.1,7.92-44.32,22.41-44.89,49-6-26.33-32.08-39.75-49-53.06,32.52,5.59,36.93-26.85,49-44.89m722.31,98c-24.77,7.26-35.34,34.23-49,49,.66-24.2-16.28-43.91-40.8-44.89,21.87-8.7,43.62-23.39,44.88-49,6.74,19.79,20.12,42.64,44.89,44.89m-767.2,89.77c12.41,3.31,6.45,28.77-8.28,24.37s-6.94-28.41,8.28-24.37M933.9,918.81C922.23,940.48,912.43,905.06,933.9,918.81Z"/><path class="cls-3" d="M44.27,971.86C41.7,878.94,50.22,774.31,48.35,678s-3.64-198.45,0-293.82-11.76-196.29,0-285.67c-22,88.8,1.06,195.27-4.08,289.75s-2.33,198.74,0,293.82S32.59,877.63,44.27,971.86Z"/><path class="cls-4" d="M1035.92,975.94c14.28-93.61-4.69-194.94,0-289.74s1.75-194.94,0-289.74,9.67-191.6,0-285.66c-12.2,286.72,4,584.91-8.16,873.3C1030.12,983.37,1035.47,977.58,1035.92,975.94Z"/><path class="cls-5" d="M831.88,131.2C821.59,149.08,808.78,166.42,787,172c24.77,2.24,33.38,24.44,44.89,40.81-2.62-26.4,22.56-31.42,36.72-44.89C848.28,167.52,834.77,149.93,831.88,131.2Z"/><path class="cls-6" d="M309.52,151.61c-9.75-4.45-17.46,14.44-6.93,18.93S317.81,155.36,309.52,151.61Z"/><path class="cls-7" d="M407.46,669.88c6.74-15.8,15.31-41.34,24.49-57.14-13.47,5.6-36.12-11.1-23.42-19.38s26.11-11.55,39.74-13.26c5.23-.66,11.18,1.18,16.33,0,13.26-3,23.79-8.16,40.81-8.16,26.19,0,54.35.32,77.53,4.08,11.67.65,21.51,1.51,32.65,4.08,19.79,4.53,61.95,6.2,36.73,32.64-4.66,4.9-6.7,4.74-8.17,12.25C682.31,720,714,819,750.26,914.73c9.42,25,23.38,51.17,32.64,77.54.33-34.57-20.32-65-32.72-101.94s-20-66.81-37.59-105.25-19.06-58.68-40-102.88,34.52-43.62,72.64-50,73.82-21.1,110.18-32.65,61.26-26.68,91.7-51.13,29.1-72.52,6.12-102S901.09,409.68,873,388s-72.68-24.85-102.23-40.6-22.15-69.87-46-96.8-42.19-50.69-75.58-67.26-67.49-29.79-107-31.7S461.54,163.81,428,180.29s-49.3,41.38-74.6,68.24-33.66,60.6-43.87,94.88c-29.54-9.55-51.13,25.91-85.41,32.93s-57.66,33.42-87,51.75-49.55,71.17-30.61,102,50,40,80.27,58.48,73.58,21.83,107.78,35,81.21,11.92,117,21.75c-6,7.1-2.82,16.08-4.09,24.49M611.51,180.17C679,205.07,737.2,270.32,742.1,343.41c-81.91-14.82-166.83-18.45-253-16.33h-20.4c-8.65.94-21.26,4.08-32.65,4.08-38.28,0-72,11.84-110.18,12.25,17-127.53,165.56-212.25,285.66-163.24m32.64,163.24c36.94,2,75.75,10.16,110.19,16.32,61.25,11,160.34,45.54,191.8,106.1,3,5.76,11.39,11.47,8.16,20.41-31.38-20-65.66-34-102-40.81-119.94-27.47-265-41.22-391.76-32.65s-239.51,14-346.88,77.54c30.81-81.66,129-108.23,204-130.59,88.4-19.91,179.65-20.4,273.42-20.4a348.34,348.34,0,0,1,53,4.08M656.4,625c52.6-31.71-5.92-52.56-45-57s-107.82-3.68-146.83-.08-104.39,23.75-49,57.13c-48.2,10.08-142.35-25.83-186.42-34S82.79,526.39,135.07,487.26s119.48-36.57,182.66-49.95S466.11,422.09,534,420.94s153.16,2.41,217.19,15.43,127.65,12.81,181.72,50.89-42.08,91.61-88.8,101S708.22,639.64,656.4,625Z"/><path class="cls-8" d="M187.1,163.85c-36.08-7.14-40.2,45.5-9.19,49.79S214.23,169.24,187.1,163.85Z"/><path class="cls-9" d="M436,331.16c8.57-.81,21.34-4.08,32.65-4.08h20.4c39-4.16,84.56-5.38,126.51-4.08-49.54-3.14,23-29.79,36.73-44.89-5.68-35.46-28.08-67.58-57.14-89.78,1.92-8.08,14.7.45,16.33-8.16-120.1-49-268.65,35.71-285.66,163.24C364,343,397.75,331.16,436,331.16M480.92,196.5c20.53,9-2.82,44.4-23.26,46.11s-19.39,53.5-51.09,32.32,46.4-90.64,74.35-78.43m-85.7,85.69c9.63,5.15,3.76,29.47-9.18,25.26S379.43,273.79,395.22,282.19Z"/><path class="cls-10" d="M489.08,327.08c86.19-2.12,171.11,1.51,253,16.33C737.2,270.32,679,205.07,611.51,180.17c-1.63,8.61-14.41.08-16.33,8.16,29.06,22.2,51.46,54.32,57.14,89.78-13.72,15.1-86.27,41.75-36.73,44.89C573.64,321.7,528.09,322.92,489.08,327.08Z"/><path class="cls-11" d="M480.92,196.5c-27.95-12.21-106.1,57.21-74.35,78.43s30.64-30.57,51.09-32.32S501.45,205.47,480.92,196.5Z"/><path class="cls-12" d="M236.07,274c-7.72-3.51-22.65,12.49-10.94,19S246.76,278.89,236.07,274Z"/><path class="cls-13" d="M925.74,278.11c-17.35-4.81-20.65,17.47-6.94,23S937.65,281.42,925.74,278.11Z"/><path class="cls-14" d="M395.22,282.19c-15.79-8.4-22.08,21.1-9.18,25.26S404.85,287.34,395.22,282.19Z"/><path class="cls-15" d="M436,331.16c11.39,0,24-3.14,32.65-4.08C457.37,327.08,444.6,330.35,436,331.16Z"/><path class="cls-16" d="M317.68,359.73c1.47.33,7.55,5.88,8.17,8.16-28.81,9.1-52.81,28-77.54,44.89,61.74,23.47,81.37-41.3,135-56.84s132.31-4.33,191.52-8.45,125.69,13.18,179.56,12.24c-34.44-6.16-73.25-14.32-110.19-16.32-17.58-.94-38.31-2.66-53-4.08C497.33,339.33,406.08,339.82,317.68,359.73Z"/><path class="cls-17" d="M644.15,343.41a348.34,348.34,0,0,0-53-4.08C605.84,340.75,626.57,342.47,644.15,343.41Z"/><path class="cls-18" d="M317.68,359.73c-75,22.36-173.23,48.93-204,130.59,107.37-63.58,220.12-69,346.88-77.54S732.34,418,852.28,445.43c-10.12-6.41-33.79-52.28-49-65.3,52.6,17.59,102.51,45.22,142.83,85.7-31.46-60.56-130.55-95.12-191.8-106.1-53.87.94-120.35-16.36-179.56-12.24s-137.89-7.06-191.52,8.45-73.21,80.31-134.95,56.84C273,395.85,297,377,325.85,367.89c-.62-2.28-6.7-7.83-8.17-8.16M395.22,372c-5.51,19.51-25.63,27.88-44.89,24.49-1.1-25.22,24.81-26.89,44.89-24.49m285.66,0C739.93,364.34,690.55,424.53,680.88,372Z"/><path class="cls-19" d="M395.22,372c-20.08-2.4-46-.73-44.89,24.49C369.59,399.85,389.71,391.48,395.22,372Z"/><path class="cls-20" d="M852.28,445.43c36.36,6.77,70.64,20.77,102,40.81,3.23-8.94-5.18-14.65-8.16-20.41-40.32-40.48-90.23-68.11-142.83-85.7C818.49,393.15,842.16,439,852.28,445.43Z"/><path class="cls-21" d="M656.4,625c51.82,14.65,141-27.43,187.68-36.77s142.83-62.89,88.8-101-117.7-37.87-181.72-50.89S601.84,419.8,534,420.94s-153.07,3-216.24,16.37-130.39,10.81-182.66,49.95S185.18,582.87,229.21,591s138.22,44,186.42,34c-55.42-33.38,9.91-53.54,49-57.13s107.73-4.37,146.83.08,97.57,25.34,45,57m-102-171.4c50.8,15.43,20.81,97.45-31.3,76.19s-24.37-93.08,31.3-76.19m-200,12.24c52.52,2,59.26,74.68,4.08,73.46s-55.46-75.46-4.08-73.46m379.52,0c47.59,13.59,10.45,91.09-36.72,73.46s-13.43-87.78,36.72-73.46M232,502.56c44.48,7.59,54.19,68.36,3.18,62.11s-57.46-71.33-3.18-62.11m632.53,0c41.59,14-10.89,88.19-49,65.3s10.82-78.11,49-65.3m-526.43,85.7c-4.49,5.51-19.75.53-24.49-4.08C317.52,581.65,333.89,582.46,338.09,588.26Z"/><path class="cls-22" d="M554.38,453.59c-55.67-16.89-83.42,54.93-31.3,76.19s82.1-60.76,31.3-76.19m-8.17,8.16c40.2,6.74,24.61,66.64-16.32,57.13S506.67,455.14,546.21,461.75Z"/><path class="cls-23" d="M546.21,461.75c-39.54-6.61-57.25,47.63-16.32,57.13s56.52-50.39,16.32-57.13m0,12.24c18.45,7.88.66,39-19.05,27.22S528.42,466.36,546.21,474Z"/><path class="cls-24" d="M354.41,465.83c-51.38-2-51.09,72.23,4.08,73.46s48.44-71.42-4.08-73.46m12.25,12.25c36.32,10.36,22.64,62-16.33,49S327.36,466.85,366.66,478.08Z"/><path class="cls-25" d="M733.93,465.83c-50.15-14.32-83.9,55.79-36.72,73.46s84.31-59.87,36.72-73.46m0,12.25c35.43,11.87-10.85,70.76-40.8,49S704.59,468.24,733.93,478.08Z"/><path class="cls-26" d="M546.21,474c-17.79-7.63-38.76,15.43-19.05,27.22S564.66,481.87,546.21,474Z"/><path class="cls-27" d="M366.66,478.08c-39.3-11.23-55.3,35.91-16.33,49s52.65-38.61,16.33-49m-4.09,8.16c15.63,4.49,13.19,33.18-6.85,27.18S340,479.79,362.57,486.24Z"/><path class="cls-28" d="M733.93,478.08c-29.34-9.84-70.76,27.17-40.8,49s76.23-37.1,40.8-49m-12.24,8.16C733,492.32,718,520,704.43,511.58S709.16,479.5,721.69,486.24Z"/><path class="cls-29" d="M362.57,486.24c-22.56-6.45-26.89,21.18-6.85,27.18S378.2,490.73,362.57,486.24Z"/><path class="cls-30" d="M721.69,486.24c-12.53-6.74-30.85,16.89-17.26,25.34S733,492.32,721.69,486.24Z"/><path class="cls-31" d="M232,502.56c-54.28-9.22-47.83,55.87,3.18,62.11s41.3-54.52-3.18-62.11m0,8.16c32.85,6.94,36.44,53.54-.29,45.18S190.36,501.91,232,510.72Z"/><path class="cls-32" d="M864.52,502.56c-38.15-12.81-87,42.4-49,65.3s90.56-51.34,49-65.3m4.08,12.24c17.1,12-26.52,62.2-49.25,41.1S842.81,496.68,868.6,514.8Z"/><path class="cls-33" d="M232,510.72c-41.63-8.81-37.06,36.81-.29,45.18s33.14-38.24.29-45.18m8.16,28.57c-9.67,2.24-21-6.24-20.41-16.32C229.42,520.72,240.72,529.25,240.15,539.29Z"/><path class="cls-34" d="M868.6,514.8c-25.79-18.12-72,20-49.25,41.1s66.35-29.06,49.25-41.1M852.28,523c.37,10.08-10.53,18.52-20.4,16.32C828.28,527.09,842.53,522.07,852.28,523Z"/><path class="cls-35" d="M240.15,539.29c.57-10-10.73-18.57-20.41-16.32C219.17,533.05,230.48,541.53,240.15,539.29Z"/><path class="cls-35" d="M852.28,523c-9.75-.9-24,4.12-20.4,16.32C841.75,541.49,852.65,533.05,852.28,523Z"/><path class="cls-36" d="M464.6,580.1c10.85-6.37,28.2-4.08,40.81-4.08a32.67,32.67,0,0,1,0-4.08C488.39,571.94,477.86,577.08,464.6,580.1Z"/><path class="cls-37" d="M505.41,576c25.7,0,51.86-1.39,77.53,0-23.18-3.76-51.34-4.08-77.53-4.08A32.67,32.67,0,0,0,505.41,576Z"/><path class="cls-38" d="M464.6,580.1c-1.11.65-3.06,3.06-4.08,4.08-6.29,6.41-13.55,10.36-20.41,16.32a13.14,13.14,0,0,0,0,4.08c1,16,16.61,17.51,28.57,20.41a298.72,298.72,0,0,0,138.75,0c9.18-2.25,23.3-3,28.56-12.25-.49-1.91.9-6.61,0-8.16-3.83-6.69-13.87-21.18-20.4-24.48-11.14-2.57-21-3.43-32.65-4.08-25.67-1.39-51.83,0-77.53,0C492.8,576,475.45,573.73,464.6,580.1Z"/><path class="cls-39" d="M338.09,588.26c-4.2-5.8-20.57-6.61-24.49-4.08C318.34,588.79,333.6,593.77,338.09,588.26Z"/><path class="cls-40" d="M432,612.74c1.35-2.32,7-5.91,8.16-8.16a13.14,13.14,0,0,1,0-4.08c.45-2.45,3.1-5.79,4.08-8.16s1.14-10.65,4.08-12.24c-13.63,1.71-27,5-39.74,13.26S418.48,618.34,432,612.74Z"/><path class="cls-41" d="M444.19,592.34c5.23-7.3,7.55-6.12,16.33-8.16,1-1,3-3.43,4.08-4.08-5.15,1.18-11.1-.66-16.33,0C445.33,581.69,445.17,590,444.19,592.34Z"/><path class="cls-42" d="M636,604.58c-2.08-1.92,14,8.45,16.33,8.16,25.22-26.44-16.94-28.11-36.73-32.64C622.12,583.4,632.16,597.89,636,604.58Z"/><path class="cls-43" d="M444.19,592.34c-1,2.37-3.63,5.71-4.08,8.16,6.86-6,14.12-9.91,20.41-16.32C451.74,586.22,449.42,585,444.19,592.34Z"/><path class="cls-44" d="M636,604.58c.9,1.55-.49,6.25,0,8.16.74,3,7,9.39,8.16,12.25,1.47-7.51,3.51-7.35,8.17-12.25C650,613,633.91,602.66,636,604.58Z"/><path class="cls-45" d="M432,612.74c-9.18,15.8-17.75,41.34-24.49,57.14-3.67,24.56-15.5,46.48-24.48,69.37-6.82,17.35-18.69,37.34-24.49,53-5.38,22-8.69,41.1-20.4,61.22-17.92,46.19-29.42,97.24-49,142.83,17.63-28,25.3-63.83,40.81-93.86,16.73,13.1,31.22,34.52,53.05,28.56-4.94,34.89-18.45,67.34-24.49,102,30.45,3.91,78.6-7.15,97.94,4.08H611.51c29.54-2.86,65.46-6.37,97.94-4.08-8-34-19.63-67-24.49-102,12.25,23.31,45.67-34.32,65.3-16.32C714,819,682.31,720,644.15,625c-1.14-2.86-7.42-9.27-8.16-12.25-5.26,9.27-19.38,10-28.56,12.25-13.39,15.1,18.08,50.68,16.28,73.49s17,56.89,20.16,81.87,15.55,58.8,16.61,85.41c-14.61-2.53-26.12,6.61-40.81,4.08-3.35-20.45-14.16-37.38-20.4-57.13-28,17.38-3.8,61.5-8.17,89.78-11.67,1.3-27.26,10.16-24.48,24.48-12.69,2.25-27.3-8.85-32.65,8.16-10.08-26.2-40.32,6-61.21,4.08-1.68-39.7,12.16-60.07,8.16-102S449,852.66,444.19,873.92c-6.28-12.36-23.75,0-36.73-4.08,9.15-84.51,43.71-162.34,61.22-244.85-12-2.9-27.59-4.41-28.57-20.41C438.93,606.83,433.3,610.42,432,612.74Z"/><path class="cls-46" d="M607.43,625a298.72,298.72,0,0,1-138.75,0c-17.51,82.51-52.07,160.34-61.22,244.85,13,4,30.45-8.28,36.73,4.08,4.82-21.26,32.73-78.68,36.73-36.73s-9.84,62.32-8.16,102c20.89,1.92,51.13-30.28,61.21-4.08,5.35-17,20-5.91,32.65-8.16-2.78-14.32,12.81-23.18,24.48-24.48,4.37-28.28-19.87-72.4,8.17-89.78,6.24,19.75,17.05,36.68,20.4,57.13,14.69,2.53,26.2-6.61,40.81-4.08-1.06-26.61-13.43-60.4-16.61-85.41s-22-59.09-20.16-81.87S594,640.09,607.43,625Z"/><path class="cls-47" d="M938,661.72c-13-7.15-27.3,10.32-15,19S946,666.12,938,661.72Z"/><path class="cls-48" d="M199.34,702.52c-12,18-16.45,50.48-49,44.89,16.89,13.31,42.93,26.73,49,53.06.57-26.57,23.79-41.06,44.89-49C218.44,747.54,199.91,729.38,199.34,702.52Z"/><path class="cls-49" d="M358.49,792.3c5.8-15.71,17.67-35.7,24.49-53C373.63,755.17,363.23,772.88,358.49,792.3Z"/><path class="cls-50" d="M921.65,800.47c-24.77-2.25-38.15-25.1-44.89-44.89-1.26,25.58-23,40.27-44.88,49,24.52,1,41.46,20.69,40.8,44.89C886.31,834.7,896.88,807.73,921.65,800.47Z"/><path class="cls-51" d="M276.88,1012.67c1.95-5,9.42-11.83,12.24-16.32,19.55-45.59,31.05-96.64,49-142.83C311.44,899.39,290.55,960.64,276.88,1012.67Z"/><path class="cls-52" d="M154.45,890.24c-15.22-4-23,20-8.28,24.37S166.86,893.55,154.45,890.24Z"/><path class="cls-53" d="M289.12,996.35c-2.82,4.49-10.29,11.34-12.24,16.32-2.13,8.12-2.86,16.28-4.08,24.49H456.43c-19.34-11.23-67.49-.17-97.94-4.08,6-34.69,19.55-67.14,24.49-102-21.83,6-36.32-15.46-53.05-28.56C314.42,932.52,306.75,968.39,289.12,996.35Z"/><path class="cls-54" d="M611.51,1037.16H795.15c-1.27-15.63-7.23-30.57-12.25-44.89-9.26-26.37-23.22-52.57-32.64-77.54-19.63-18-53,39.63-65.3,16.32,4.86,35,16.49,68.07,24.49,102C677,1030.79,641.05,1034.3,611.51,1037.16Z"/><path class="cls-55" d="M48.35,98.55c-11.76,89.38,3.63,190.3,0,285.67s-1.88,197.55,0,293.82-6.65,200.9-4.08,293.82c11.71,94.6,160.46,65.3,228.53,65.3,1.22-8.21,1.95-16.37,4.08-24.49,13.67-52,34.56-113.28,61.21-159.15,11.71-20.12,15-39.18,20.4-61.22,4.74-19.42,15.14-37.13,24.49-53,9-22.89,20.81-44.81,24.48-69.37,1.27-8.41-1.95-17.39,4.09-24.49-35.79-9.83-82.81-8.49-117-21.75s-77.5-16.57-107.78-35S125.39,561,106.5,530.11s1.31-83.7,30.61-102,52.72-44.73,87-51.75,55.87-42.48,85.41-32.93c10.21-34.28,18.57-68,43.87-94.88s41-51.79,74.6-68.24,74.6-30.6,114.14-28.68,73.66,15.14,107,31.7,51.75,40.28,75.58,67.26,16.45,81,46,96.8S844.89,366.3,873,388s57.34,29,80.27,58.48,24.28,77.58-6.12,102S891.78,588,855.46,599.6s-72.07,26.29-110.18,32.65-93.58,5.8-72.64,50,22.4,64.44,40,102.88,25.14,68.4,37.59,105.25,33.05,67.37,32.72,101.94c5,14.32,11,29.26,12.25,44.89,66.72,0,226.65,31.46,240.77-61.22-.45,1.64-5.8,7.43-8.16,8.16,12.2-288.39-4-586.58,8.16-873.3C1026,14.45,899.17,43.1,823.71,41.42s-197.23-1.18-277.5,0-200.49-4.81-277.5,0S70.55,8.9,48.35,98.55M831.88,131.2c2.89,18.73,16.4,36.32,36.72,36.73-14.16,13.47-39.34,18.49-36.72,44.89C820.37,196.45,811.76,174.25,787,172c21.79-5.59,34.6-22.93,44.89-40.81M309.52,151.61c8.29,3.75,3.59,23.42-6.93,18.93s-2.82-23.38,6.93-18.93M187.1,163.85c27.13,5.39,21.87,54-9.19,49.79S151,156.71,187.1,163.85m49,110.18c10.69,4.86.77,25.55-10.94,19s3.22-22.53,10.94-19m689.67,4.08c11.91,3.31,6.77,28.61-6.94,23s-10.41-27.83,6.94-23M938,661.72c8,4.4-2.74,27.7-15,19s2-26.16,15-19m-738.64,40.8c.57,26.86,19.1,45,44.89,49-21.1,7.92-44.32,22.41-44.89,49-6-26.33-32.08-39.75-49-53.06,32.52,5.59,36.93-26.85,49-44.89m722.31,98c-24.77,7.26-35.34,34.23-49,49,.66-24.2-16.28-43.91-40.8-44.89,21.87-8.7,43.62-23.39,44.88-49,6.74,19.79,20.12,42.64,44.89,44.89m-767.2,89.77c12.41,3.31,6.45,28.77-8.28,24.37s-6.94-28.41,8.28-24.37M933.9,918.81C922.23,940.48,912.43,905.06,933.9,918.81Z"/><path class="cls-56" d="M44.27,971.86C41.7,878.94,50.22,774.31,48.35,678s-3.64-198.45,0-293.82-11.76-196.29,0-285.67c-22,88.8,1.06,195.27-4.08,289.75s-2.33,198.74,0,293.82S32.59,877.63,44.27,971.86Z"/><path class="cls-57" d="M1035.92,975.94c14.28-93.61-4.69-194.94,0-289.74s1.75-194.94,0-289.74,9.67-191.6,0-285.66c-12.2,286.72,4,584.91-8.16,873.3C1030.12,983.37,1035.47,977.58,1035.92,975.94Z"/><path class="cls-58" d="M831.88,131.2C821.59,149.08,808.78,166.42,787,172c24.77,2.24,33.38,24.44,44.89,40.81-2.62-26.4,22.56-31.42,36.72-44.89C848.28,167.52,834.77,149.93,831.88,131.2Z"/><path class="cls-59" d="M309.52,151.61c-9.75-4.45-17.46,14.44-6.93,18.93S317.81,155.36,309.52,151.61Z"/><path class="cls-60" d="M407.46,669.88c6.74-15.8,15.31-41.34,24.49-57.14-13.47,5.6-36.12-11.1-23.42-19.38s26.11-11.55,39.74-13.26c5.23-.66,11.18,1.18,16.33,0,13.26-3,23.79-8.16,40.81-8.16,26.19,0,54.35.32,77.53,4.08,11.67.65,21.51,1.51,32.65,4.08,19.79,4.53,61.95,6.2,36.73,32.64-4.66,4.9-6.7,4.74-8.17,12.25C682.31,720,714,819,750.26,914.73c9.42,25,23.38,51.17,32.64,77.54.33-34.57-20.32-65-32.72-101.94s-20-66.81-37.59-105.25-19.06-58.68-40-102.88,34.52-43.62,72.64-50,73.82-21.1,110.18-32.65,61.26-26.68,91.7-51.13,29.1-72.52,6.12-102S901.09,409.68,873,388s-72.68-24.85-102.23-40.6-22.15-69.87-46-96.8-42.19-50.69-75.58-67.26-67.49-29.79-107-31.7S461.54,163.81,428,180.29s-49.3,41.38-74.6,68.24-33.66,60.6-43.87,94.88c-29.54-9.55-51.13,25.91-85.41,32.93s-57.66,33.42-87,51.75-49.55,71.17-30.61,102,50,40,80.27,58.48,73.58,21.83,107.78,35,81.21,11.92,117,21.75c-6,7.1-2.82,16.08-4.09,24.49M611.51,180.17C679,205.07,737.2,270.32,742.1,343.41c-81.91-14.82-166.83-18.45-253-16.33h-20.4c-8.65.94-21.26,4.08-32.65,4.08-38.28,0-72,11.84-110.18,12.25,17-127.53,165.56-212.25,285.66-163.24m32.64,163.24c36.94,2,75.75,10.16,110.19,16.32,61.25,11,160.34,45.54,191.8,106.1,3,5.76,11.39,11.47,8.16,20.41-31.38-20-65.66-34-102-40.81-119.94-27.47-265-41.22-391.76-32.65s-239.51,14-346.88,77.54c30.81-81.66,129-108.23,204-130.59,88.4-19.91,179.65-20.4,273.42-20.4a348.34,348.34,0,0,1,53,4.08M656.4,625c52.6-31.71-5.92-52.56-45-57s-107.82-3.68-146.83-.08-104.39,23.75-49,57.13c-48.2,10.08-142.35-25.83-186.42-34S82.79,526.39,135.07,487.26s119.48-36.57,182.66-49.95S466.11,422.09,534,420.94s153.16,2.41,217.19,15.43,127.65,12.81,181.72,50.89-42.08,91.61-88.8,101S708.22,639.64,656.4,625Z"/><path class="cls-61" d="M187.1,163.85c-36.08-7.14-40.2,45.5-9.19,49.79S214.23,169.24,187.1,163.85Z"/><path class="cls-62" d="M436,331.16c8.57-.81,21.34-4.08,32.65-4.08h20.4c39-4.16,84.56-5.38,126.51-4.08-49.54-3.14,23-29.79,36.73-44.89-5.68-35.46-28.08-67.58-57.14-89.78,1.92-8.08,14.7.45,16.33-8.16-120.1-49-268.65,35.71-285.66,163.24C364,343,397.75,331.16,436,331.16M480.92,196.5c20.53,9-2.82,44.4-23.26,46.11s-19.39,53.5-51.09,32.32,46.4-90.64,74.35-78.43m-85.7,85.69c9.63,5.15,3.76,29.47-9.18,25.26S379.43,273.79,395.22,282.19Z"/><path class="cls-63" d="M489.08,327.08c86.19-2.12,171.11,1.51,253,16.33C737.2,270.32,679,205.07,611.51,180.17c-1.63,8.61-14.41.08-16.33,8.16,29.06,22.2,51.46,54.32,57.14,89.78-13.72,15.1-86.27,41.75-36.73,44.89C573.64,321.7,528.09,322.92,489.08,327.08Z"/><path class="cls-64" d="M480.92,196.5c-27.95-12.21-106.1,57.21-74.35,78.43s30.64-30.57,51.09-32.32S501.45,205.47,480.92,196.5Z"/><path class="cls-65" d="M236.07,274c-7.72-3.51-22.65,12.49-10.94,19S246.76,278.89,236.07,274Z"/><path class="cls-66" d="M925.74,278.11c-17.35-4.81-20.65,17.47-6.94,23S937.65,281.42,925.74,278.11Z"/><path class="cls-67" d="M395.22,282.19c-15.79-8.4-22.08,21.1-9.18,25.26S404.85,287.34,395.22,282.19Z"/><path class="cls-68" d="M436,331.16c11.39,0,24-3.14,32.65-4.08C457.37,327.08,444.6,330.35,436,331.16Z"/><path class="cls-69" d="M317.68,359.73c1.47.33,7.55,5.88,8.17,8.16-28.81,9.1-52.81,28-77.54,44.89,61.74,23.47,81.37-41.3,135-56.84s132.31-4.33,191.52-8.45,125.69,13.18,179.56,12.24c-34.44-6.16-73.25-14.32-110.19-16.32-17.58-.94-38.31-2.66-53-4.08C497.33,339.33,406.08,339.82,317.68,359.73Z"/><path class="cls-70" d="M644.15,343.41a348.34,348.34,0,0,0-53-4.08C605.84,340.75,626.57,342.47,644.15,343.41Z"/><path class="cls-71" d="M317.68,359.73c-75,22.36-173.23,48.93-204,130.59,107.37-63.58,220.12-69,346.88-77.54S732.34,418,852.28,445.43c-10.12-6.41-33.79-52.28-49-65.3,52.6,17.59,102.51,45.22,142.83,85.7-31.46-60.56-130.55-95.12-191.8-106.1-53.87.94-120.35-16.36-179.56-12.24s-137.89-7.06-191.52,8.45-73.21,80.31-134.95,56.84C273,395.85,297,377,325.85,367.89c-.62-2.28-6.7-7.83-8.17-8.16M395.22,372c-5.51,19.51-25.63,27.88-44.89,24.49-1.1-25.22,24.81-26.89,44.89-24.49m285.66,0C739.93,364.34,690.55,424.53,680.88,372Z"/><path class="cls-72" d="M395.22,372c-20.08-2.4-46-.73-44.89,24.49C369.59,399.85,389.71,391.48,395.22,372Z"/><path class="cls-73" d="M852.28,445.43c36.36,6.77,70.64,20.77,102,40.81,3.23-8.94-5.18-14.65-8.16-20.41-40.32-40.48-90.23-68.11-142.83-85.7C818.49,393.15,842.16,439,852.28,445.43Z"/><path class="cls-74" d="M656.4,625c51.82,14.65,141-27.43,187.68-36.77s142.83-62.89,88.8-101-117.7-37.87-181.72-50.89S601.84,419.8,534,420.94s-153.07,3-216.24,16.37-130.39,10.81-182.66,49.95S185.18,582.87,229.21,591s138.22,44,186.42,34c-55.42-33.38,9.91-53.54,49-57.13s107.73-4.37,146.83.08,97.57,25.34,45,57m-102-171.4c50.8,15.43,20.81,97.45-31.3,76.19s-24.37-93.08,31.3-76.19m-200,12.24c52.52,2,59.26,74.68,4.08,73.46s-55.46-75.46-4.08-73.46m379.52,0c47.59,13.59,10.45,91.09-36.72,73.46s-13.43-87.78,36.72-73.46M232,502.56c44.48,7.59,54.19,68.36,3.18,62.11s-57.46-71.33-3.18-62.11m632.53,0c41.59,14-10.89,88.19-49,65.3s10.82-78.11,49-65.3m-526.43,85.7c-4.49,5.51-19.75.53-24.49-4.08C317.52,581.65,333.89,582.46,338.09,588.26Z"/><path class="cls-75" d="M554.38,453.59c-55.67-16.89-83.42,54.93-31.3,76.19s82.1-60.76,31.3-76.19m-8.17,8.16c40.2,6.74,24.61,66.64-16.32,57.13S506.67,455.14,546.21,461.75Z"/><path class="cls-76" d="M546.21,461.75c-39.54-6.61-57.25,47.63-16.32,57.13s56.52-50.39,16.32-57.13m0,12.24c18.45,7.88.66,39-19.05,27.22S528.42,466.36,546.21,474Z"/><path class="cls-77" d="M354.41,465.83c-51.38-2-51.09,72.23,4.08,73.46s48.44-71.42-4.08-73.46m12.25,12.25c36.32,10.36,22.64,62-16.33,49S327.36,466.85,366.66,478.08Z"/><path class="cls-78" d="M733.93,465.83c-50.15-14.32-83.9,55.79-36.72,73.46s84.31-59.87,36.72-73.46m0,12.25c35.43,11.87-10.85,70.76-40.8,49S704.59,468.24,733.93,478.08Z"/><path class="cls-79" d="M546.21,474c-17.79-7.63-38.76,15.43-19.05,27.22S564.66,481.87,546.21,474Z"/><path class="cls-80" d="M366.66,478.08c-39.3-11.23-55.3,35.91-16.33,49s52.65-38.61,16.33-49m-4.09,8.16c15.63,4.49,13.19,33.18-6.85,27.18S340,479.79,362.57,486.24Z"/><path class="cls-81" d="M733.93,478.08c-29.34-9.84-70.76,27.17-40.8,49s76.23-37.1,40.8-49m-12.24,8.16C733,492.32,718,520,704.43,511.58S709.16,479.5,721.69,486.24Z"/><path class="cls-82" d="M362.57,486.24c-22.56-6.45-26.89,21.18-6.85,27.18S378.2,490.73,362.57,486.24Z"/><path class="cls-83" d="M721.69,486.24c-12.53-6.74-30.85,16.89-17.26,25.34S733,492.32,721.69,486.24Z"/><path class="cls-84" d="M232,502.56c-54.28-9.22-47.83,55.87,3.18,62.11s41.3-54.52-3.18-62.11m0,8.16c32.85,6.94,36.44,53.54-.29,45.18S190.36,501.91,232,510.72Z"/><path class="cls-85" d="M864.52,502.56c-38.15-12.81-87,42.4-49,65.3s90.56-51.34,49-65.3m4.08,12.24c17.1,12-26.52,62.2-49.25,41.1S842.81,496.68,868.6,514.8Z"/><path class="cls-86" d="M232,510.72c-41.63-8.81-37.06,36.81-.29,45.18s33.14-38.24.29-45.18m8.16,28.57c-9.67,2.24-21-6.24-20.41-16.32C229.42,520.72,240.72,529.25,240.15,539.29Z"/><path class="cls-87" d="M868.6,514.8c-25.79-18.12-72,20-49.25,41.1s66.35-29.06,49.25-41.1M852.28,523c.37,10.08-10.53,18.52-20.4,16.32C828.28,527.09,842.53,522.07,852.28,523Z"/><path class="cls-88" d="M240.15,539.29c.57-10-10.73-18.57-20.41-16.32C219.17,533.05,230.48,541.53,240.15,539.29Z"/><path class="cls-88" d="M852.28,523c-9.75-.9-24,4.12-20.4,16.32C841.75,541.49,852.65,533.05,852.28,523Z"/><path class="cls-89" d="M464.6,580.1c10.85-6.37,28.2-4.08,40.81-4.08a32.67,32.67,0,0,1,0-4.08C488.39,571.94,477.86,577.08,464.6,580.1Z"/><path class="cls-90" d="M505.41,576c25.7,0,51.86-1.39,77.53,0-23.18-3.76-51.34-4.08-77.53-4.08A32.67,32.67,0,0,0,505.41,576Z"/><path class="cls-91" d="M464.6,580.1c-1.11.65-3.06,3.06-4.08,4.08-6.29,6.41-13.55,10.36-20.41,16.32a13.14,13.14,0,0,0,0,4.08c1,16,16.61,17.51,28.57,20.41a298.72,298.72,0,0,0,138.75,0c9.18-2.25,23.3-3,28.56-12.25-.49-1.91.9-6.61,0-8.16-3.83-6.69-13.87-21.18-20.4-24.48-11.14-2.57-21-3.43-32.65-4.08-25.67-1.39-51.83,0-77.53,0C492.8,576,475.45,573.73,464.6,580.1Z"/><path class="cls-92" d="M338.09,588.26c-4.2-5.8-20.57-6.61-24.49-4.08C318.34,588.79,333.6,593.77,338.09,588.26Z"/><path class="cls-93" d="M432,612.74c1.35-2.32,7-5.91,8.16-8.16a13.14,13.14,0,0,1,0-4.08c.45-2.45,3.1-5.79,4.08-8.16s1.14-10.65,4.08-12.24c-13.63,1.71-27,5-39.74,13.26S418.48,618.34,432,612.74Z"/><path class="cls-94" d="M444.19,592.34c5.23-7.3,7.55-6.12,16.33-8.16,1-1,3-3.43,4.08-4.08-5.15,1.18-11.1-.66-16.33,0C445.33,581.69,445.17,590,444.19,592.34Z"/><path class="cls-95" d="M636,604.58c-2.08-1.92,14,8.45,16.33,8.16,25.22-26.44-16.94-28.11-36.73-32.64C622.12,583.4,632.16,597.89,636,604.58Z"/><path class="cls-96" d="M444.19,592.34c-1,2.37-3.63,5.71-4.08,8.16,6.86-6,14.12-9.91,20.41-16.32C451.74,586.22,449.42,585,444.19,592.34Z"/><path class="cls-97" d="M636,604.58c.9,1.55-.49,6.25,0,8.16.74,3,7,9.39,8.16,12.25,1.47-7.51,3.51-7.35,8.17-12.25C650,613,633.91,602.66,636,604.58Z"/><path class="cls-98" d="M432,612.74c-9.18,15.8-17.75,41.34-24.49,57.14-3.67,24.56-15.5,46.48-24.48,69.37-6.82,17.35-18.69,37.34-24.49,53-5.38,22-8.69,41.1-20.4,61.22-17.92,46.19-29.42,97.24-49,142.83,17.63-28,25.3-63.83,40.81-93.86,16.73,13.1,31.22,34.52,53.05,28.56-4.94,34.89-18.45,67.34-24.49,102,30.45,3.91,78.6-7.15,97.94,4.08H611.51c29.54-2.86,65.46-6.37,97.94-4.08-8-34-19.63-67-24.49-102,12.25,23.31,45.67-34.32,65.3-16.32C714,819,682.31,720,644.15,625c-1.14-2.86-7.42-9.27-8.16-12.25-5.26,9.27-19.38,10-28.56,12.25-13.39,15.1,18.08,50.68,16.28,73.49s17,56.89,20.16,81.87,15.55,58.8,16.61,85.41c-14.61-2.53-26.12,6.61-40.81,4.08-3.35-20.45-14.16-37.38-20.4-57.13-28,17.38-3.8,61.5-8.17,89.78-11.67,1.3-27.26,10.16-24.48,24.48-12.69,2.25-27.3-8.85-32.65,8.16-10.08-26.2-40.32,6-61.21,4.08-1.68-39.7,12.16-60.07,8.16-102S449,852.66,444.19,873.92c-6.28-12.36-23.75,0-36.73-4.08,9.15-84.51,43.71-162.34,61.22-244.85-12-2.9-27.59-4.41-28.57-20.41C438.93,606.83,433.3,610.42,432,612.74Z"/><path class="cls-99" d="M607.43,625a298.72,298.72,0,0,1-138.75,0c-17.51,82.51-52.07,160.34-61.22,244.85,13,4,30.45-8.28,36.73,4.08,4.82-21.26,32.73-78.68,36.73-36.73s-9.84,62.32-8.16,102c20.89,1.92,51.13-30.28,61.21-4.08,5.35-17,20-5.91,32.65-8.16-2.78-14.32,12.81-23.18,24.48-24.48,4.37-28.28-19.87-72.4,8.17-89.78,6.24,19.75,17.05,36.68,20.4,57.13,14.69,2.53,26.2-6.61,40.81-4.08-1.06-26.61-13.43-60.4-16.61-85.41s-22-59.09-20.16-81.87S594,640.09,607.43,625Z"/><path class="cls-100" d="M938,661.72c-13-7.15-27.3,10.32-15,19S946,666.12,938,661.72Z"/><path class="cls-101" d="M199.34,702.52c-12,18-16.45,50.48-49,44.89,16.89,13.31,42.93,26.73,49,53.06.57-26.57,23.79-41.06,44.89-49C218.44,747.54,199.91,729.38,199.34,702.52Z"/><path class="cls-102" d="M358.49,792.3c5.8-15.71,17.67-35.7,24.49-53C373.63,755.17,363.23,772.88,358.49,792.3Z"/><path class="cls-103" d="M921.65,800.47c-24.77-2.25-38.15-25.1-44.89-44.89-1.26,25.58-23,40.27-44.88,49,24.52,1,41.46,20.69,40.8,44.89C886.31,834.7,896.88,807.73,921.65,800.47Z"/><path class="cls-104" d="M276.88,1012.67c1.95-5,9.42-11.83,12.24-16.32,19.55-45.59,31.05-96.64,49-142.83C311.44,899.39,290.55,960.64,276.88,1012.67Z"/><path class="cls-105" d="M154.45,890.24c-15.22-4-23,20-8.28,24.37S166.86,893.55,154.45,890.24Z"/><path class="cls-106" d="M289.12,996.35c-2.82,4.49-10.29,11.34-12.24,16.32-2.13,8.12-2.86,16.28-4.08,24.49H456.43c-19.34-11.23-67.49-.17-97.94-4.08,6-34.69,19.55-67.14,24.49-102-21.83,6-36.32-15.46-53.05-28.56C314.42,932.52,306.75,968.39,289.12,996.35Z"/><path class="cls-107" d="M611.51,1037.16H795.15c-1.27-15.63-7.23-30.57-12.25-44.89-9.26-26.37-23.22-52.57-32.64-77.54-19.63-18-53,39.63-65.3,16.32,4.86,35,16.49,68.07,24.49,102C677,1030.79,641.05,1034.3,611.51,1037.16Z"/></svg>