<svg id="Layer_1" data-name="Layer 1" xmlns="http://www.w3.org/2000/svg" viewBox="0 0 1080 1080"><defs><style>.cls-1{fill:#0c1523;}.cls-10,.cls-11,.cls-12,.cls-13,.cls-14,.cls-15,.cls-16,.cls-17,.cls-18,.cls-19,.cls-2,.cls-20,.cls-21,.cls-22,.cls-23,.cls-24,.cls-25,.cls-3,.cls-4,.cls-5,.cls-6,.cls-7,.cls-8,.cls-9{fill:none;stroke-width:1.22px;}.cls-2{stroke:#0c1623;}.cls-3{stroke:#2b2a2a;}.cls-4{stroke:#e4e3e3;}.cls-5{stroke:#090d0c;}.cls-6{stroke:#659ed5;}.cls-7{stroke:#8fc050;}.cls-8{stroke:#71a643;}.cls-9{stroke:#bad97c;}.cls-10{stroke:#7e7fbd;}.cls-11{stroke:#57a1d8;}.cls-12{stroke:#0a0f0e;}.cls-13{stroke:#4a652e;}.cls-14{stroke:#0c1523;}.cls-15{stroke:#f0eff0;}.cls-16{stroke:#ebebec;}.cls-17{stroke:#d1d2d6;}.cls-18{stroke:#da9849;}.cls-19{stroke:#517535;}.cls-20{stroke:#161f12;}.cls-21{stroke:#141a0f;}.cls-22{stroke:#dec2c8;}.cls-23{stroke:#131b0f;}.cls-24{stroke:#e3e3e3;}.cls-25{stroke:#bc94c4;}.cls-26{fill:#0c1623;}.cls-27{fill:#2b2a2a;}.cls-28{fill:#e4e3e3;}.cls-29{fill:#090d0c;}.cls-30{fill:#659ed5;}.cls-31{fill:#8fc050;}.cls-32{fill:#71a643;}.cls-33{fill:#bad97c;}.cls-34{fill:#7e7fbd;}.cls-35{fill:#57a1d8;}.cls-36{fill:#0a0f0e;}.cls-37{fill:#4a652e;}.cls-38{fill:#f0eff0;}.cls-39{fill:#ebebec;}.cls-40{fill:#d1d2d6;}.cls-41{fill:#da9849;}.cls-42{fill:#517535;}.cls-43{fill:#161f12;}.cls-44{fill:#141a0f;}.cls-45{fill:#dec2c8;}.cls-46{fill:#131b0f;}.cls-47{fill:#e3e3e3;}.cls-48{fill:#bc94c4;}</style></defs><title>avatar-alien</title><rect class="cls-1" width="1080" height="1080"/><path class="cls-2" d="M1043.69,978.78c3.47-93.33-5.63-192.7-4.08-289.75s4.93-200.65,0-297.9,14.65-201.8,0-297.91C1013.73,1.77,890,42.46,811.08,36.09s-201.88,3.39-285.66,0-204.74,2.7-285.66,0-200-18.44-204,81.62.16,187.92,0,285.66S32.12,592,35.71,689s-9.79,188,0,285.62S173.44,1042.6,252,1044.07s203.35,1,285.66,0,208.16,4,285.66,0,207.31,32.65,220.37-65.29M888.61,134c-4.24,25,16.82,40.69,36.73,44.89-19.06,9.72-35.75,22.2-40.81,44.89-9.63-17.75-18.32-42.72-44.89-40.81,23.47-8.12,36-33.21,49-49M574.39,146.28c108.26,10.48,200.94,68.27,260.15,164.25s58.52,238.73,9.27,341.86S743.29,808.93,659.07,892.06s-206.25,50.48-279.54-36.73S247.39,704.54,214,596.48s-20.07-241.83,57.5-328.72S457.43,135,574.39,146.28m-367.28,4.08c24.73,5.67,14.85,48.19-12.24,40.81s-14.9-47.06,12.24-40.81m-69.38,151c15.63,1.51,12.61,27.55-4.2,24.36s-11.51-25.87,4.2-24.36m816.18,28.57c17,6.44,6.28,36.4-12.24,28.56s-2.66-34.24,12.24-28.56m-4.08,265.25c17.55,3.55,13.34,38.32-8.2,32.61S934,592,949.83,595.17M162.22,729.84c26.48,6.61,16.57,58.77-13.18,49.83s-20.94-58.36,13.18-49.83m718.23,89.78c1.47,27.47,24,44.2,49,49-25.42,9.22-47,27.42-49,57.13-10.16-21.54-20.56-53.29-53.05-53.05a84.85,84.85,0,0,0,53.05-53M247.92,897.16c19.54,8.4,4.69,46.52-17.22,33.54S229.06,889,247.92,897.16Z"/><path class="cls-3" d="M1043.69,978.78c9.67-72.56-3.51-151.41,0-224.45s.61-147.57,0-220.37,4.94-152.75,0-224.45,14.73-149.89-4.08-216.29c14.65,96.11-4.94,200.66,0,297.91s1.55,200.86,0,297.9S1047.16,885.45,1043.69,978.78Z"/><path class="cls-4" d="M888.61,134c-13,15.76-25.5,40.85-49,49,26.57-1.91,35.26,23.06,44.89,40.81,5.06-22.69,21.75-35.17,40.81-44.89C905.43,174.72,884.37,159,888.61,134Z"/><path class="cls-5" d="M574.39,146.28C457.43,135,349,180.88,271.46,267.76s-91,220.7-57.5,328.72,92.23,171.68,165.57,258.85,195.35,119.89,279.54,36.73S794.59,755.55,843.81,652.39s50-245.88-9.27-341.86S682.65,156.76,574.39,146.28m261.17,200c50.2,101.53,34.32,260-29.79,349.69s-114,186.41-219.14,225.71c-98,36.65-185.76-51.95-244.53-126.83S216.49,623.9,211.19,525.8c-4.2-25.83-3.63-56.11,0-81.62C216.74,298.94,337,192.55,477.34,163.5S771.33,216.39,835.56,346.24Z"/><path class="cls-6" d="M207.11,150.36c-27.14-6.25-39.34,33.42-12.24,40.81S231.84,156,207.11,150.36Z"/><path class="cls-7" d="M211.19,444.18c-1,26.81-1.47,54.81,0,81.62,5.3,98.1,72.15,194.13,130.91,269S488.65,958.29,586.63,921.64c-1.14-.2-7.79-6-8.16-8.16,98.43-65.82,168.91-179.23,204-281.58C747.74,673.4,685.31,717,624.7,704s-33.05-114.18-4.4-160.87,78.1-88.23,133.65-103c7.55-2,18.36-6.9,28.56-4.08C783.61,335.3,730,236,639.68,187.09c84.15,3.22,159.44,96.83,195.88,159.15C771.33,216.39,617.77,134.44,477.34,163.5S216.74,298.94,211.19,444.18m102-114.26c-26-15.35,5.1-57.63,23.47-70.4s53.41-49.42,78.59-43.83-23.5,43-39.83,54-48.72,42.77-62.23,60.2M488.69,640.06c1.75,10.9,2.73,17.59,0,28.57-16.2,65.37-122.39,31.63-163.56-7.84S236,562.89,247.92,493.15,356.47,431.69,402,477.85,485.42,574,488.69,640.06m28.56,85.7c9.88,5,4.25,28.53-9.1,21.26s.13-25.83,9.1-21.26m53.06,0c8.24,4,.49,28.89-11,23s-1.1-28.94,11-23M607,791.05c12.53,28.82-37.38,42.2-57.21,44.81s-75.09-4.28-82.56-27.46,42.89,14.44,62.32,15.22S594.18,813.66,607,791.05Z"/><path class="cls-8" d="M754,440.1C873,423.45,825,581.18,782.51,631.9c-35.13,102.35-105.61,215.76-204,281.58.37,2.16,7,8,8.16,8.16,105.12-39.3,155-135.93,219.14-225.71s80-248.16,29.79-349.69c-36.44-62.32-111.73-155.93-195.88-159.15C730,236,783.61,335.3,782.51,436,772.31,433.2,761.5,438.1,754,440.1Z"/><path class="cls-9" d="M313.21,329.92c13.51-17.43,46-49.1,62.23-60.2s65-48.44,39.83-54-60.19,31.1-78.59,43.83S287.17,314.57,313.21,329.92Z"/><path class="cls-10" d="M137.73,301.35c-15.71-1.51-21,21.22-4.2,24.36S153.36,302.86,137.73,301.35Z"/><path class="cls-11" d="M953.91,329.92c-14.9-5.68-30.77,20.69-12.24,28.56S970.89,336.36,953.91,329.92Z"/><path class="cls-12" d="M488.69,668.63c1.06-9.06.45-19.47,0-28.57C485.42,574,447.43,524,402,477.85s-142.18-54.44-154.05,15.3,36,128.18,77.21,167.64S472.49,734,488.69,668.63M341.78,452.34c48.27,12.53,93.9,77.33,114.14,118.47s21.46,52.44,20.53,93.74-62.32,23.63-86.6,17.22-49.38-24.24-69.5-44.77-36.89-39.22-51.09-67.25,5.79-45.09-9-80.76S319.09,446.47,341.78,452.34Z"/><path class="cls-5" d="M782.51,631.9C825,581.18,873,423.45,754,440.1c-55.55,14.81-105,56.36-133.65,103S564.1,691,624.7,704s123-30.61,157.81-72.11M651.92,542.12c4.21-2.81,5.39-8,8.17-12.24,5.83-22.2,14.77-33.38,39.78-54.07s54.65-26.65,87.62-20.28,33.63,52.15,27.59,78.51-18.33,55.5-35.71,78.39-34.93,38-60.93,53.34-54.93,27.14-91,23.26S603.73,631.08,603,599.25,635.93,552.77,651.92,542.12Z"/><path class="cls-13" d="M211.19,525.8c-1.47-26.81-1-54.81,0-81.62C207.56,469.69,207,500,211.19,525.8Z"/><path class="cls-14" d="M341.78,452.34c-22.69-5.87-96.31.94-81.5,36.65s-5.22,52.72,9,80.76,31,46.68,51.09,67.25,45.22,38.36,69.5,44.77,85.66,24.08,86.6-17.22-.29-52.6-20.53-93.74S390.05,464.87,341.78,452.34m-16.33,24.49c39,14.4,18.61,90.51-21.3,70.27s-24.36-87.13,21.3-70.27m12.25,102C335.45,545.92,370.79,580.85,337.7,578.85Z"/><path class="cls-2" d="M660.09,529.88c9.18-14.33,28.64-47.75,53.13-40.73s-1.06,43.14-13.35,56-56.92,35.67-48-3.06c-16,10.65-49.74,25.3-49,57.13S591.36,685.16,627.44,689s65-7.83,91-23.26,43.54-30.44,60.93-53.34,29.67-52,35.71-78.39,5.38-72.15-27.59-78.51-62.6-.37-87.62,20.28-34,31.87-39.78,54.07m-8.17,49c10.45,5.59-.2,29.38-13.18,21.26S639.89,572.4,651.92,578.85Z"/><path class="cls-15" d="M325.45,476.83c-45.66-16.86-61.21,50-21.3,70.27S364.43,491.23,325.45,476.83Z"/><path class="cls-16" d="M660.09,529.88c-2.78,4.28-4,9.43-8.17,12.24-9,38.73,35.71,16,48,3.06s37.87-49,13.35-56S669.27,515.55,660.09,529.88Z"/><path class="cls-17" d="M651.92,578.85c-12-6.45-26.15,13.14-13.18,21.26S662.37,584.44,651.92,578.85Z"/><path class="cls-18" d="M949.83,595.17c-15.84-3.22-29.75,26.9-8.2,32.61S967.38,598.72,949.83,595.17Z"/><path class="cls-19" d="M488.69,668.63c2.73-11,1.75-17.67,0-28.57C489.14,649.16,489.75,659.57,488.69,668.63Z"/><path class="cls-20" d="M517.25,725.76c-9-4.57-22.44,14-9.1,21.26S527.13,730.78,517.25,725.76Z"/><path class="cls-21" d="M570.31,725.76c-12.12-5.92-22.49,17.14-11,23S578.55,729.8,570.31,725.76Z"/><path class="cls-22" d="M162.22,729.84c-34.12-8.53-42.93,40.89-13.18,49.83S188.7,736.45,162.22,729.84Z"/><path class="cls-23" d="M607,791.05c-12.85,22.61-58,33.3-77.45,32.57s-69.74-38.44-62.32-15.22,62.69,30,82.56,27.46S619.56,819.87,607,791.05Z"/><path class="cls-24" d="M880.45,819.62a84.85,84.85,0,0,1-53.05,53c32.49-.24,42.89,31.51,53.05,53.05,2-29.71,23.55-47.91,49-57.13C904.41,863.82,881.92,847.09,880.45,819.62Z"/><path class="cls-25" d="M247.92,897.16c-18.86-8.12-39.14,20.57-17.22,33.54S267.46,905.56,247.92,897.16Z"/><path class="cls-26" d="M1043.69,978.78c3.47-93.33-5.63-192.7-4.08-289.75s4.93-200.65,0-297.9,14.65-201.8,0-297.91C1013.73,1.77,890,42.46,811.08,36.09s-201.88,3.39-285.66,0-204.74,2.7-285.66,0-200-18.44-204,81.62.16,187.92,0,285.66S32.12,592,35.71,689s-9.79,188,0,285.62S173.44,1042.6,252,1044.07s203.35,1,285.66,0,208.16,4,285.66,0,207.31,32.65,220.37-65.29M888.61,134c-4.24,25,16.82,40.69,36.73,44.89-19.06,9.72-35.75,22.2-40.81,44.89-9.63-17.75-18.32-42.72-44.89-40.81,23.47-8.12,36-33.21,49-49M574.39,146.28c108.26,10.48,200.94,68.27,260.15,164.25s58.52,238.73,9.27,341.86S743.29,808.93,659.07,892.06s-206.25,50.48-279.54-36.73S247.39,704.54,214,596.48s-20.07-241.83,57.5-328.72S457.43,135,574.39,146.28m-367.28,4.08c24.73,5.67,14.85,48.19-12.24,40.81s-14.9-47.06,12.24-40.81m-69.38,151c15.63,1.51,12.61,27.55-4.2,24.36s-11.51-25.87,4.2-24.36m816.18,28.57c17,6.44,6.28,36.4-12.24,28.56s-2.66-34.24,12.24-28.56m-4.08,265.25c17.55,3.55,13.34,38.32-8.2,32.61S934,592,949.83,595.17M162.22,729.84c26.48,6.61,16.57,58.77-13.18,49.83s-20.94-58.36,13.18-49.83m718.23,89.78c1.47,27.47,24,44.2,49,49-25.42,9.22-47,27.42-49,57.13-10.16-21.54-20.56-53.29-53.05-53.05a84.85,84.85,0,0,0,53.05-53M247.92,897.16c19.54,8.4,4.69,46.52-17.22,33.54S229.06,889,247.92,897.16Z"/><path class="cls-27" d="M1043.69,978.78c9.67-72.56-3.51-151.41,0-224.45s.61-147.57,0-220.37,4.94-152.75,0-224.45,14.73-149.89-4.08-216.29c14.65,96.11-4.94,200.66,0,297.91s1.55,200.86,0,297.9S1047.16,885.45,1043.69,978.78Z"/><path class="cls-28" d="M888.61,134c-13,15.76-25.5,40.85-49,49,26.57-1.91,35.26,23.06,44.89,40.81,5.06-22.69,21.75-35.17,40.81-44.89C905.43,174.72,884.37,159,888.61,134Z"/><path class="cls-29" d="M574.39,146.28C457.43,135,349,180.88,271.46,267.76s-91,220.7-57.5,328.72,92.23,171.68,165.57,258.85,195.35,119.89,279.54,36.73S794.59,755.55,843.81,652.39s50-245.88-9.27-341.86S682.65,156.76,574.39,146.28m261.17,200c50.2,101.53,34.32,260-29.79,349.69s-114,186.41-219.14,225.71c-98,36.65-185.76-51.95-244.53-126.83S216.49,623.9,211.19,525.8c-4.2-25.83-3.63-56.11,0-81.62C216.74,298.94,337,192.55,477.34,163.5S771.33,216.39,835.56,346.24Z"/><path class="cls-30" d="M207.11,150.36c-27.14-6.25-39.34,33.42-12.24,40.81S231.84,156,207.11,150.36Z"/><path class="cls-31" d="M211.19,444.18c-1,26.81-1.47,54.81,0,81.62,5.3,98.1,72.15,194.13,130.91,269S488.65,958.29,586.63,921.64c-1.14-.2-7.79-6-8.16-8.16,98.43-65.82,168.91-179.23,204-281.58C747.74,673.4,685.31,717,624.7,704s-33.05-114.18-4.4-160.87,78.1-88.23,133.65-103c7.55-2,18.36-6.9,28.56-4.08C783.61,335.3,730,236,639.68,187.09c84.15,3.22,159.44,96.83,195.88,159.15C771.33,216.39,617.77,134.44,477.34,163.5S216.74,298.94,211.19,444.18m102-114.26c-26-15.35,5.1-57.63,23.47-70.4s53.41-49.42,78.59-43.83-23.5,43-39.83,54-48.72,42.77-62.23,60.2M488.69,640.06c1.75,10.9,2.73,17.59,0,28.57-16.2,65.37-122.39,31.63-163.56-7.84S236,562.89,247.92,493.15,356.47,431.69,402,477.85,485.42,574,488.69,640.06m28.56,85.7c9.88,5,4.25,28.53-9.1,21.26s.13-25.83,9.1-21.26m53.06,0c8.24,4,.49,28.89-11,23s-1.1-28.94,11-23M607,791.05c12.53,28.82-37.38,42.2-57.21,44.81s-75.09-4.28-82.56-27.46,42.89,14.44,62.32,15.22S594.18,813.66,607,791.05Z"/><path class="cls-32" d="M754,440.1C873,423.45,825,581.18,782.51,631.9c-35.13,102.35-105.61,215.76-204,281.58.37,2.16,7,8,8.16,8.16,105.12-39.3,155-135.93,219.14-225.71s80-248.16,29.79-349.69c-36.44-62.32-111.73-155.93-195.88-159.15C730,236,783.61,335.3,782.51,436,772.31,433.2,761.5,438.1,754,440.1Z"/><path class="cls-33" d="M313.21,329.92c13.51-17.43,46-49.1,62.23-60.2s65-48.44,39.83-54-60.19,31.1-78.59,43.83S287.17,314.57,313.21,329.92Z"/><path class="cls-34" d="M137.73,301.35c-15.71-1.51-21,21.22-4.2,24.36S153.36,302.86,137.73,301.35Z"/><path class="cls-35" d="M953.91,329.92c-14.9-5.68-30.77,20.69-12.24,28.56S970.89,336.36,953.91,329.92Z"/><path class="cls-36" d="M488.69,668.63c1.06-9.06.45-19.47,0-28.57C485.42,574,447.43,524,402,477.85s-142.18-54.44-154.05,15.3,36,128.18,77.21,167.64S472.49,734,488.69,668.63M341.78,452.34c48.27,12.53,93.9,77.33,114.14,118.47s21.46,52.44,20.53,93.74-62.32,23.63-86.6,17.22-49.38-24.24-69.5-44.77-36.89-39.22-51.09-67.25,5.79-45.09-9-80.76S319.09,446.47,341.78,452.34Z"/><path class="cls-29" d="M782.51,631.9C825,581.18,873,423.45,754,440.1c-55.55,14.81-105,56.36-133.65,103S564.1,691,624.7,704s123-30.61,157.81-72.11M651.92,542.12c4.21-2.81,5.39-8,8.17-12.24,5.83-22.2,14.77-33.38,39.78-54.07s54.65-26.65,87.62-20.28,33.63,52.15,27.59,78.51-18.33,55.5-35.71,78.39-34.93,38-60.93,53.34-54.93,27.14-91,23.26S603.73,631.08,603,599.25,635.93,552.77,651.92,542.12Z"/><path class="cls-37" d="M211.19,525.8c-1.47-26.81-1-54.81,0-81.62C207.56,469.69,207,500,211.19,525.8Z"/><path class="cls-1" d="M341.78,452.34c-22.69-5.87-96.31.94-81.5,36.65s-5.22,52.72,9,80.76,31,46.68,51.09,67.25,45.22,38.36,69.5,44.77,85.66,24.08,86.6-17.22-.29-52.6-20.53-93.74S390.05,464.87,341.78,452.34m-16.33,24.49c39,14.4,18.61,90.51-21.3,70.27s-24.36-87.13,21.3-70.27m12.25,102C335.45,545.92,370.79,580.85,337.7,578.85Z"/><path class="cls-26" d="M660.09,529.88c9.18-14.33,28.64-47.75,53.13-40.73s-1.06,43.14-13.35,56-56.92,35.67-48-3.06c-16,10.65-49.74,25.3-49,57.13S591.36,685.16,627.44,689s65-7.83,91-23.26,43.54-30.44,60.93-53.34,29.67-52,35.71-78.39,5.38-72.15-27.59-78.51-62.6-.37-87.62,20.28-34,31.87-39.78,54.07m-8.17,49c10.45,5.59-.2,29.38-13.18,21.26S639.89,572.4,651.92,578.85Z"/><path class="cls-38" d="M325.45,476.83c-45.66-16.86-61.21,50-21.3,70.27S364.43,491.23,325.45,476.83Z"/><path class="cls-39" d="M660.09,529.88c-2.78,4.28-4,9.43-8.17,12.24-9,38.73,35.71,16,48,3.06s37.87-49,13.35-56S669.27,515.55,660.09,529.88Z"/><path class="cls-40" d="M651.92,578.85c-12-6.45-26.15,13.14-13.18,21.26S662.37,584.44,651.92,578.85Z"/><path class="cls-41" d="M949.83,595.17c-15.84-3.22-29.75,26.9-8.2,32.61S967.38,598.72,949.83,595.17Z"/><path class="cls-42" d="M488.69,668.63c2.73-11,1.75-17.67,0-28.57C489.14,649.16,489.75,659.57,488.69,668.63Z"/><path class="cls-43" d="M517.25,725.76c-9-4.57-22.44,14-9.1,21.26S527.13,730.78,517.25,725.76Z"/><path class="cls-44" d="M570.31,725.76c-12.12-5.92-22.49,17.14-11,23S578.55,729.8,570.31,725.76Z"/><path class="cls-45" d="M162.22,729.84c-34.12-8.53-42.93,40.89-13.18,49.83S188.7,736.45,162.22,729.84Z"/><path class="cls-46" d="M607,791.05c-12.85,22.61-58,33.3-77.45,32.57s-69.74-38.44-62.32-15.22,62.69,30,82.56,27.46S619.56,819.87,607,791.05Z"/><path class="cls-47" d="M880.45,819.62a84.85,84.85,0,0,1-53.05,53c32.49-.24,42.89,31.51,53.05,53.05,2-29.71,23.55-47.91,49-57.13C904.41,863.82,881.92,847.09,880.45,819.62Z"/><path class="cls-48" d="M247.92,897.16c-18.86-8.12-39.14,20.57-17.22,33.54S267.46,905.56,247.92,897.16Z"/></svg>