<svg id="Layer_1" data-name="Layer 1" xmlns="http://www.w3.org/2000/svg" viewBox="0 0 1080 1080"><defs><style>.cls-1{fill:#0c1523;}.cls-10,.cls-11,.cls-12,.cls-13,.cls-14,.cls-15,.cls-16,.cls-17,.cls-18,.cls-19,.cls-2,.cls-20,.cls-21,.cls-22,.cls-23,.cls-24,.cls-25,.cls-26,.cls-27,.cls-28,.cls-29,.cls-3,.cls-30,.cls-31,.cls-32,.cls-33,.cls-34,.cls-35,.cls-36,.cls-37,.cls-38,.cls-39,.cls-4,.cls-40,.cls-41,.cls-42,.cls-43,.cls-44,.cls-45,.cls-46,.cls-47,.cls-48,.cls-49,.cls-5,.cls-50,.cls-51,.cls-52,.cls-53,.cls-54,.cls-55,.cls-6,.cls-7,.cls-8,.cls-9{fill:none;stroke-width:1.22px;}.cls-2{stroke:#5c5a5c;}.cls-3{stroke:#0b1522;}.cls-4{stroke:#010101;}.cls-5{stroke:#060609;}.cls-6{stroke:#0a0c0e;}.cls-7{stroke:#1c1d20;}.cls-8{stroke:#868b95;}.cls-9{stroke:#0d1017;}.cls-10{stroke:#72acd5;}.cls-11{stroke:#0b56a1;}.cls-12{stroke:#e9e7e8;}.cls-13{stroke:#e2e1e1;}.cls-14{stroke:#505a67;}.cls-15{stroke:#eaeef4;}.cls-16{stroke:#6c6e6b;}.cls-17{stroke:#b0adb2;}.cls-18{stroke:#223368;}.cls-19{stroke:#16345b;}.cls-20{stroke:#414853;}.cls-21{stroke:#303a4a;}.cls-22{stroke:#c4c4c7;}.cls-23{stroke:#a9aeb5;}.cls-24{stroke:#64a1d7;}.cls-25{stroke:#888e9b;}.cls-26{stroke:#6a727d;}.cls-27{stroke:#4e5765;}.cls-28{stroke:#a7aab0;}.cls-29{stroke:#9aa0aa;}.cls-30{stroke:#787f8b;}.cls-31{stroke:#12141a;}.cls-32{stroke:#c0c0bc;}.cls-33{stroke:#364353;}.cls-34{stroke:#412f18;}.cls-35{stroke:#edbd66;}.cls-36{stroke:#404b5b;}.cls-37{stroke:#ae772a;}.cls-38{stroke:#f6edd5;}.cls-39{stroke:#ef9421;}.cls-40{stroke:#7b5220;}.cls-41{stroke:#e3e3e3;}.cls-42{stroke:#c66128;}.cls-43{stroke:#8a929d;}.cls-44{stroke:#5c6674;}.cls-45{stroke:#333c48;}.cls-46{stroke:#515c6c;}.cls-47{stroke:#2f3a49;}.cls-48{stroke:#868c98;}.cls-49{stroke:#6c7685;}.cls-50{stroke:#868f9a;}.cls-51{stroke:#8b919c;}.cls-52{stroke:#e1a251;}.cls-53{stroke:#edb15e;}.cls-54{stroke:#93c4e5;}.cls-55{stroke:#6b7dbd;}.cls-56{fill:#5c5a5c;}.cls-57{fill:#0b1522;}.cls-58{fill:#010101;}.cls-59{fill:#060609;}.cls-60{fill:#0a0c0e;}.cls-61{fill:#1c1d20;}.cls-62{fill:#868b95;}.cls-63{fill:#0d1017;}.cls-64{fill:#72acd5;}.cls-65{fill:#0b56a1;}.cls-66{fill:#e9e7e8;}.cls-67{fill:#e2e1e1;}.cls-68{fill:#505a67;}.cls-69{fill:#eaeef4;}.cls-70{fill:#6c6e6b;}.cls-71{fill:#b0adb2;}.cls-72{fill:#223368;}.cls-73{fill:#16345b;}.cls-74{fill:#414853;}.cls-75{fill:#303a4a;}.cls-76{fill:#c4c4c7;}.cls-77{fill:#a9aeb5;}.cls-78{fill:#64a1d7;}.cls-79{fill:#888e9b;}.cls-80{fill:#6a727d;}.cls-81{fill:#4e5765;}.cls-82{fill:#a7aab0;}.cls-83{fill:#9aa0aa;}.cls-84{fill:#787f8b;}.cls-85{fill:#12141a;}.cls-86{fill:#c0c0bc;}.cls-87{fill:#364353;}.cls-88{fill:#412f18;}.cls-89{fill:#edbd66;}.cls-90{fill:#404b5b;}.cls-91{fill:#ae772a;}.cls-92{fill:#f6edd5;}.cls-93{fill:#ef9421;}.cls-94{fill:#7b5220;}.cls-95{fill:#e3e3e3;}.cls-96{fill:#c66128;}.cls-97{fill:#8a929d;}.cls-98{fill:#5c6674;}.cls-99{fill:#333c48;}.cls-100{fill:#515c6c;}.cls-101{fill:#2f3a49;}.cls-102{fill:#868c98;}.cls-103{fill:#6c7685;}.cls-104{fill:#868f9a;}.cls-105{fill:#8b919c;}.cls-106{fill:#e1a251;}.cls-107{fill:#edb15e;}.cls-108{fill:#93c4e5;}.cls-109{fill:#6b7dbd;}</style></defs><title>avatar-telescope</title><rect class="cls-1" width="1080" height="1080"/><path class="cls-2" d="M109.47,46.52a28.09,28.09,0,0,0,4.08,0h857c-88.23-19.34-192.41-.28-285.66-4.08s-196.42-3.22-289.74,0S198.27,28.12,109.47,46.52Z"/><path class="cls-3" d="M44.18,111.82c-2.53,91.78,5.88,190.45,4.08,285.66s-3.55,194.37,0,289.74S39,885.39,44.18,977c14,91.7,143.12,57.87,216.29,61.22s194.86.65,273.42,0,202.45,4.93,277.49,0,196,32.85,220.37-53.06c10-66.39-3.43-143.68,0-216.28s.49-155.32,0-228.53,5-152.1,0-224.45,12.57-154.75,0-220.37c-6.49-19.46-27.54-44.8-49-49-35.87-3.92-78.19,8.41-118.34,4.08s-85.54,2.21-126.51,0-85.54,1.51-126.51,0S529.6,52.4,489,50.6s-86.85,3.23-126.51,0-89.41,6.82-126.51,0-94.06,16.82-122.43-4.08a28.09,28.09,0,0,1-4.08,0C75.73,44,47.85,82.23,44.18,111.82M582.86,626c10.52,7.42,24.56,2.73,36.72,4.08,8.33,21.79,13.35,48.68,0,69.37,19.59,26.08,34.49,62.6,47.95,90.8s30.69,70.85,41.51,97.25,54.35,77.94,16.32,97.29-62.19-36.69-72.19-65.91S625.5,851.72,612.36,821s-28.65-71.33-41.75-101.08c-14.44,38.72,5.27,107.28-4.08,146.91s28.53,112.84-24.77,122.14-35-74.48-36.44-114S505,765.08,509.4,724c-29.55,20.77-41.5,65-54.4,104.75S409.83,891.26,406.11,939s-84.39,62.6-73.09,12.61S363.83,883,382,841.35s25.1-74.14,47.18-112,7.63-79.74,23.14-115.62c-24.77-.12-48.32-4-69.7,20.08s-50.65-18-69.17-15.87-56.32,20.32-72,29.75-34.93,51.82-62.52,39.5-41.75-25.59-52-50-5.14-69.62,22.24-77.74,42.32-20,69.58-32.44,41.09-30.41,43.17-58.85,38.81-31.26,54.77-47.26,40.28-23.54,59.17-38.77,42.4-24.73,64.6-37.42S475.41,312.23,490,292.4s43.46-24.08,61.13-40.9,40.23-28.19,60.6-41.42,40.89-27.38,61.82-40.19S709.89,139,730.71,125s48.23-30.24,73.41-22.24,47.26,16.69,65.42,36.6,31.3,31.06,44.89,53,26.44,43.51,32.93,69.09,18.69,56.89,11,83-12.94,50.36-37.75,64.27-49.22,22.65-75.25,26.77S802,463.87,777.8,470,729,492.15,709,503.25s-53.75,19.55-69.38,32.65-79.94-1.43-69.9,17.59,39.91,44.77,13.1,72.52M468.59,144.46c16.65,7.15,6.12,40.08-13.14,29.47s-6.53-37.91,13.14-29.47m-204,73.46c3,1.79,9-1.43,12.24,0,2.61,8.28-6.9,8.41-12.24,8.16-13.35,14.65-40.24,20.81-36.73,49-8.37-25.79-25.91-47.42-53-53.05,25-6.65,47.21-23.83,49-53.05,10.45,17.59,14.32,46.15,40.81,49m93.86,73.46c4.08,4.08-6.57,12.36-10.94,6.77s8.16-9.55,10.94-6.77m-191.8,102c11.63,7,1.59,31.58-13.14,21.3s-.45-29.46,13.14-21.3m750.88,253c-29.14,4.2-49.79,28.53-57.13,57.13-6.7-27.58-28.57-52.19-57.14-57.13,30.28-4,53-27.22,57.14-57.13,3.95,30.28,27.21,53,57.13,57.13m-191.8-53c16.77,25.42-28.49,11.83,0,0M280.87,764.76c14.2-28.94,29.26,16.28,0,0m502,4.08c12.28,7.87-1.14,36.85-17.22,25.38s.24-36.28,17.22-25.38m151,44.89c16.81,6.85,3.27,37-15,27.22s-3-34.57,15-27.22m-750.88,8.16c5.14,7.88,12.24,16,20.4,20.4-11.38,63.38-83.61-9.71-20.4-20.4m673.34,85.7c7.55,3.34,2.45,19.22-6.93,14.85S847.75,903.79,856.27,907.59Z"/><path class="cls-4" d="M982.78,46.52c-3.67-.73-8.49,0-12.24,0h-857c28.37,20.9,85.34-2.69,122.43,4.08s86.84-3.22,126.51,0,85.9-1.79,126.51,0,81.45-1.51,122.42,0,85.54-2.2,126.51,0,86.35-4.32,126.51,0S946.91,42.6,982.78,46.52Z"/><path class="cls-5" d="M1031.75,985.12c18.81-66.39-.49-148.62,4.08-220.36s.66-152.1,0-224.45,6.33-153.16,0-224.45,18.16-153.69-4.08-220.37c12.57,65.62-5,148,0,220.37s-.49,151.24,0,224.45,3.43,155.93,0,228.53S1041.75,918.73,1031.75,985.12Z"/><path class="cls-6" d="M582.86,626c26.81-27.75-3.11-53.5-13.1-72.52s54.31-4.45,69.9-17.59,49.42-21.55,69.38-32.65S753.6,476.12,777.8,470s41.54-30.33,67.58-34.45,50.44-12.85,75.25-26.77,30.08-38.11,37.75-64.27-4.53-57.42-11-83-19.3-47.13-32.93-69.09-26.73-33.13-44.89-53-40.24-28.65-65.42-36.6S751.52,111,730.71,125s-36.2,32.07-57.14,44.89-41.42,27-61.82,40.19-42.93,24.61-60.6,41.42S504.63,272.56,490,292.4s-27.47,39.66-49.67,52.35-45.75,22.16-64.6,37.42-43.26,22.74-59.17,38.77-52.69,18.82-54.77,47.26-15.95,46.4-43.17,58.85-42.2,24.32-69.58,32.44-32.57,53.38-22.24,77.74,24.44,37.67,52,50,46.81-30.08,62.52-39.5S294.91,620,313.4,618s47.78,39.95,69.17,15.87,44.93-20.2,69.7-20.08c-15.51,35.88-1.06,77.74-23.14,115.62s-29.06,70.39-47.18,112S344.33,901.59,333,951.58s69.42,35.14,73.09-12.61,36-70.52,48.89-110.27,24.85-84,54.4-104.75c-4.37,41.13-5.55,111.49-4.08,151s-16.9,123.24,36.44,114,15.43-82.52,24.77-122.14-10.36-108.19,4.08-146.91c13.1,29.75,28.61,70.35,41.75,101.08s30.81,68.72,40.81,97.94,34.12,85.25,72.19,65.91-5.51-70.93-16.32-97.29-28-69.09-41.51-97.25-28.36-64.72-47.95-90.8c13.35-20.69,8.33-47.58,0-69.37-12.16-1.35-26.2,3.34-36.72-4.08M893,401.56c-59.21,29.3-106.1-14.41-138.75-69.38-23.75-40-46.52-90.67-44.89-138.75C713,86,852.93,110.51,892,182.21s96.51,172.13,1,219.35M701.2,189.35c.9,10.82-.73,21.84,0,32.65,2.86,42,23.51,92.64,49,126.51,22,29.22,49.34,62.8,85.7,73.45-49.34,39.34-110.31,44.73-163.32,81.54s-114.87,22.85-146.83-40.73C487,404,463.49,314.51,532.86,278.11S634.23,207.92,697.12,169c7.14,3.39,2.69,14,4.08,20.4M513.48,470.93c14.57,21,42.89,37.34,53,61.22-12.61-.78-20.69,9.87-32.64,12.24-15.76-21.43-26.65-54.56-57.14-57.13-27.05,14.28-78.84,27.91-73.45,69.37,3.71,12.2,14.44,28,24.48,36.73-2.24,4.12-8.08,5.88-12.24,8.16-56.85,40.24-92.6,15.1-125.57-41.75s-7.83-109.2,48.36-133.4,79-64.19,134.34-86c-2.32,48.11,19.18,89.77,40.81,130.58m-20.4,40.81c32,27.3,38.64,66.28-.94,88.84s-82.4-32.4-68.44-64.35c10.41-23.79,42.85-24,61.21-36.73,1.23,5.1,7.47,7,8.17,12.24M264.55,536.23c3.91,8.49,7.75,19.26,12.24,28.56,6.45,13.35,19.1,26.41,24.49,40.81-35.06,13.31-81.17,61-106.11,8.16-3.43-6.44-8-21-8.16-28.56-.73-34.16,54.52-51.5,77.54-65.3v16.33m297.9,65.29c-5.79-12-20.61-13.1-32.65-12.24,3.27-10.24,5.23-21.18,4.09-32.65,36.19-9.3,47.54,25.55,41.7,49.87s-58.52,41.38-71.45,16.61,48.72-24.73,58.31-21.59m-387.68-8.16c5.55,11.71,8.77,25.46,16.32,36.73,6.25,9.26,16,19.95,28.57,20.4-12.41,37.26-60.15,22.61-73.46-8.16-3.51-6.45-7.26-17.34-8.16-24.48-2.94-10.94-5.18-17.47,0-28.57,2.45-9.55,16.49-17.43,24.49-20.41,4.61-2.36,7.46-13.1,16.32-8.16-2.29,10.29,4.86,25.71-4.08,32.65M615.5,654.57c10.94,35.06-28.56,30.41-53,28.57s-60.4,3.06-85.7,0c-6.69-.82-13.67.61-20.4,0-16.53-46.93,34.16-45.09,65.29-40.81s75-12.45,93.86,12.24m-134.67,65.3c-10,38.85-22.44,62.8-40.48,106.43s-31.3,58.68-49,110.18-62.68,33.42-33.3-12.9,22.73-71.29,49-110.18,20.61-76.64,49.3-109.86c11.22-13,28.28-7,44.89-8.16,2.77,22.16-26.41,12.69-20.41,24.49m73.46-20.41c2.16,4.21,0,15.59,0,20.41,0,34.36,1.88,103.81,0,134.67s13.75,119.4-20.45,118.3-12.48-86.6-16.28-118.3,0-103.41,0-138.75c0-4-1.67-12.82,0-16.33,3.39-7.14,33.26-6.77,36.73,0m28.57,20.41c-4.09-8.33-12.7-14.33-12.25-24.49h32.65c24.85,9.63,21.38,50.89,38,72.23s17.35,53.79,35.14,79.09,13.3,49.62,36.12,78.15-3,66.56-24.78,32.93-21-48.32-35.42-78.84-22.4-50-35.87-78.39S596.36,747.45,582.86,719.87Z"/><path class="cls-7" d="M44.18,977C39,885.39,51.81,782.59,48.26,687.22s-1.79-194.49,0-289.74S41.65,203.6,44.18,111.82c-11.67,94.06,2.82,194.94,0,289.74s-4.12,195.35,0,289.74S30,884.08,44.18,977Z"/><path class="cls-8" d="M709.36,193.43c.41,1.55,5.84,7.47,8.16,8.17-.44-11.43,12-16.41,20.41-20.41-1.84,51.62,24.73,94.27,44.89,138.75C802.16,352.51,852,402.46,893,401.56c95.49-47.22,38-147.65-1-219.35S713,86,709.36,193.43m216.29,102c2.57,14.32,3.55,26.52,0,40.8-14.86,60-76.64,43-109.16-1s-53-77.12-58.16-137.73,64.69-74.23,99-29.58S921.85,239.43,925.65,295.46Z"/><path class="cls-9" d="M925.65,336.26c1.59-12.73.86-28,0-40.8-3.8-56-34.08-82.89-68.36-127.53s-104.14-31-99,29.58S784,291.25,816.49,335.24s94.3,61.05,109.16,1m-57.13,24.49c-26.08-4.37-36.69-31.26-49-49-23.59-34-69.5-86.8-45.18-135s86.47,28.08,101.37,54.28S933,371.48,868.52,360.75Z"/><path class="cls-10" d="M468.59,144.46c-19.67-8.44-32.4,18.82-13.14,29.47S485.24,151.61,468.59,144.46Z"/><path class="cls-11" d="M819.55,311.78c15.87-1.59,21.3-58.72,24.48-69.38-9-4.36-14.89,16.94-20.4,8.17-19.79.65-58.16-21.14-43.55-51.71s40.16,1.51,51.71,19.06c6.85,10.41,20.69,22.53,28.24,37.05s7.55,42,13.91,55.46-10.32,47.46-5.42,50.32C933,371.48,890.64,257.3,875.74,231.1s-77.09-102.43-101.37-54.28S796,277.74,819.55,311.78Z"/><path class="cls-12" d="M264.55,226.08c1-1.1,1-7.3,0-8.16-26.49-2.82-30.36-31.38-40.81-49-1.76,29.22-23.92,46.4-49,53.05,27.14,5.63,44.68,27.26,53,53.05C224.31,246.89,251.2,240.73,264.55,226.08Z"/><path class="cls-13" d="M525.72,462.77C546.41,475.42,579.1,439.67,602,433s49.18-31.34,73.5-40.81,52.52-30.69,74.68-43.66C724.71,314.64,704.06,264,701.2,222c-1.92-10.65-.2-23.1,0-32.65-1.39-6.36,3.06-17-4.08-20.4-62.89,39-94.88,72.76-164.26,109.16S487,404,525.72,462.77Z"/><path class="cls-14" d="M709.36,193.43c-1.63,48.08,21.14,98.72,44.89,138.75,9.88,2.9,19.67-13.67,28.57-12.24-20.16-44.48-46.73-87.13-44.89-138.75-8.41,4-20.85,9-20.41,20.41C715.2,200.9,709.77,195,709.36,193.43Z"/><path class="cls-15" d="M823.63,250.57c9.67-4.45,9.38-24.16,8.16-32.65-11.55-17.55-37.06-49.62-51.71-19.06S803.84,251.22,823.63,250.57Z"/><path class="cls-16" d="M701.2,222c-.73-10.81.9-21.83,0-32.65C701,198.9,699.28,211.35,701.2,222Z"/><path class="cls-17" d="M264.55,226.08c5.34.25,14.85.12,12.24-8.16-3.22-1.43-9.22,1.79-12.24,0C265.57,218.78,265.57,225,264.55,226.08Z"/><path class="cls-18" d="M823.63,250.57c5.51,8.77,11.42-12.53,20.4-8.17-3.18,10.66-8.61,67.79-24.48,69.38,12.28,17.71,22.89,44.6,49,49-4.9-2.86,11.79-36.81,5.42-50.32s-6.32-41-13.91-55.46-21.39-26.64-28.24-37.05C833,226.41,833.3,246.12,823.63,250.57Z"/><path class="cls-19" d="M358.41,291.38c-2.78-2.78-15.31,1.18-10.94,6.77S362.49,295.46,358.41,291.38Z"/><path class="cls-20" d="M925.65,336.26c3.55-14.28,2.57-26.48,0-40.8C926.51,308.27,927.24,323.53,925.65,336.26Z"/><path class="cls-21" d="M754.25,332.18c32.65,55,79.54,98.68,138.75,69.38-41,.9-90.84-49.05-110.18-81.62C773.92,318.51,764.13,335.08,754.25,332.18Z"/><path class="cls-22" d="M415.54,601.52c-32.65,12.73-93.9,27.75-106.1-28.56,32.4-14.65,61.86-33.67,93.86-49,4.36,11-11.47,24.56,0,32.64-5.39-41.46,46.4-55.09,73.45-69.37,11.76-6.21,22.16-22.61,36.73-16.33-21.63-40.81-43.13-82.47-40.81-130.58-55.33,21.83-78.15,61.82-134.34,86S257,502.93,290,559.77,358.69,641.76,415.54,601.52Z"/><path class="cls-23" d="M525.72,462.77c32,63.58,93.78,77.5,146.83,40.73s114-42.2,163.32-81.54c-36.36-10.65-63.74-44.23-85.7-73.45-22.16,13-50.4,34.15-74.68,43.66S624.93,426.25,602,433,546.41,475.42,525.72,462.77Z"/><path class="cls-24" d="M166.61,393.4c-13.59-8.16-27.92,11-13.14,21.3S178.24,400.38,166.61,393.4Z"/><path class="cls-25" d="M476.75,487.26c30.49,2.57,41.38,35.7,57.14,57.13,12-2.37,20-13,32.64-12.24-10.16-23.88-38.48-40.2-53-61.22C498.91,464.65,488.51,481.05,476.75,487.26Z"/><path class="cls-26" d="M423.7,536.23c19-2.86,44.28-35,69.38-24.49-.7-5.26-6.94-7.14-8.17-12.24C466.55,512.19,434.11,512.44,423.7,536.23Z"/><path class="cls-27" d="M423.7,536.23c-14,31.95,28.85,86.92,68.44,64.35s33-61.54.94-88.84c-25.1-10.53-50.4,21.63-69.38,24.49m57.13,0c25,12.2-1.42,55.66-25.38,37.62S458.27,525.21,480.83,536.23Z"/><path class="cls-28" d="M187,585.2c4.53,8.65,29.87-13.26,37.75-19.39s37.95-18,39.79-29.58V519.9C241.53,533.7,186.28,551,187,585.2Z"/><path class="cls-29" d="M415.54,601.52c4.16-2.28,10-4,12.24-8.16-10-8.69-20.77-24.53-24.48-36.73-11.47-8.08,4.36-21.59,0-32.64-32,15.3-61.46,34.32-93.86,49C321.64,629.27,382.89,614.25,415.54,601.52Z"/><path class="cls-30" d="M187,585.2c.16,7.55,4.73,22.12,8.16,28.56,16.82-14.81,77.42-24.28,81.62-49-4.49-9.3-8.33-20.07-12.24-28.56-1.84,11.59-32,23.46-39.79,29.58S191.54,593.85,187,585.2Z"/><path class="cls-31" d="M480.83,536.23c-22.56-11-49.33,19.63-25.38,37.62s50.36-25.42,25.38-37.62m-4.08,8.16c10.53,5.75-.61,29.87-13.18,21.26S462.59,536.64,476.75,544.39Z"/><path class="cls-32" d="M476.75,544.39C462.59,536.64,451,557,463.57,565.65S487.28,550.14,476.75,544.39Z"/><path class="cls-33" d="M562.45,601.52c-9.59-3.14-71.29-3.14-58.31,21.59s65.62,7.71,71.45-16.61-5.51-59.17-41.7-49.87c1.14,11.47-.82,22.41-4.09,32.65C541.84,588.42,556.66,589.56,562.45,601.52Z"/><path class="cls-34" d="M162.53,568.87c5.34-2,8.36-6.73,12.24,0,.85,1.47.69,24.16,0,24.49,8.94-6.94,1.79-22.36,4.08-32.65C170,555.77,167.14,566.51,162.53,568.87Z"/><path class="cls-35" d="M162.53,568.87c-8,3-22,10.86-24.49,20.41-.9,3.47,0,8.65,0,12.24-.73,1,11.71-3.75,12.24-4.08-2.61,4.08-11.22-4.9-8.16-8.16,10.9,7.75,23-22.24,24.49-4.08,1.59-.86,4.08,0,4.08,0,.61-5.27-2.74-14.24,4.08-16.33C170.89,562.14,167.87,566.88,162.53,568.87Z"/><path class="cls-36" d="M195.17,613.76c24.94,52.89,71.05,5.15,106.11-8.16-5.39-14.4-18-27.46-24.49-40.81C272.59,589.48,212,599,195.17,613.76Z"/><path class="cls-37" d="M170.69,585.2c-.9-1.14,4.45,8.94,4.08,8.16.69-.33.85-23,0-24.49C168,571,171.3,579.93,170.69,585.2Z"/><path class="cls-38" d="M150.28,597.44c6-3.55,10.29-9.1,16.33-12.24C165.14,567,153,597,142.12,589.28,139.06,592.54,147.67,601.52,150.28,597.44Z"/><path class="cls-39" d="M150.28,597.44c-.53.33-13,5.06-12.24,4.08,0,5.31-.65,11.1,0,16.33.9,7.14,4.65,18,8.16,24.48,8.69,7.14,23.79-8.69,28.57-16.32,7-4.33,12.53,13,16.32,4.08-7.55-11.27-10.77-25-16.32-36.73.37.78-5-9.3-4.08-8.16,0,0-2.49-.86-4.08,0C160.57,588.34,156.32,593.89,150.28,597.44Z"/><path class="cls-40" d="M138,617.85c-.65-5.23,0-11,0-16.33,0-3.59-.9-8.77,0-12.24C132.86,600.38,135.1,606.91,138,617.85Z"/><path class="cls-41" d="M917.49,646.41c-29.92-4.12-53.18-26.85-57.13-57.13-4.13,29.91-26.86,53.17-57.14,57.13,28.57,4.94,50.44,29.55,57.14,57.13C867.7,674.94,888.35,650.61,917.49,646.41Z"/><path class="cls-42" d="M146.2,642.33c13.31,30.77,61.05,45.42,73.46,8.16-12.57-.45-22.32-11.14-28.57-20.4-3.79,8.89-9.34-8.41-16.32-4.08C170,633.64,154.89,649.47,146.2,642.33Z"/><path class="cls-43" d="M476.75,683.14c6.37,1.63-7.38-18.12-16.32-8.16-8.61-41.55,94-34,77.54,4.08,8.81-6,8.65-18.41,8.16-28.57,25,3,73.37-13.75,61.21,28.57,9.67-4.21-1.88-20.57,8.16-24.49-18.89-24.69-62.72-8-93.86-12.24s-81.82-6.12-65.29,40.81C463.08,683.75,470.06,682.32,476.75,683.14Z"/><path class="cls-44" d="M476.75,683.14c25.3,3.06,61.22-1.84,85.7,0s64,6.49,53-28.57c-10,3.92,1.51,20.28-8.16,24.49,12.16-42.32-36.2-25.55-61.21-28.57.49,10.16.65,22.57-8.16,28.57,16.48-38.08-86.15-45.63-77.54-4.08C469.37,665,483.12,684.77,476.75,683.14Z"/><path class="cls-45" d="M456.35,703.54c11.22-1.14,15,13.47,24.48,16.33-6-11.8,23.18-2.33,20.41-24.49C484.63,696.52,467.57,690.53,456.35,703.54Z"/><path class="cls-46" d="M517.56,699.46c-6.45,11.76,20.73,19.22,28.57,20.41,3.26-8.12-2.9-20.94,8.16-20.41C550.82,692.69,521,692.32,517.56,699.46Z"/><path class="cls-47" d="M582.86,719.87c8.08-6.29,20-13.31,20.4-24.49H570.61C570.16,705.54,578.77,711.54,582.86,719.87Z"/><path class="cls-48" d="M582.86,719.87c13.5,27.58,20.11,52.31,33.58,80.68s21.47,47.82,35.87,78.39,13.59,45.26,35.42,78.84,47.59-4.41,24.78-32.93S694.22,872,676.39,846.7s-18.57-57.78-35.14-79.09-13.14-62.6-38-72.23C602.89,706.56,590.94,713.58,582.86,719.87Z"/><path class="cls-49" d="M517.56,715.79c2.61,5.1,33.91,9.79,36.73,4.08,0-4.82,2.16-16.2,0-20.41-11.06-.53-4.9,12.29-8.16,20.41-7.84-1.19-35-8.65-28.57-20.41C515.89,703,517.56,711.83,517.56,715.79Z"/><path class="cls-50" d="M480.83,719.87c-9.5-2.86-13.26-17.47-24.48-16.33-28.69,33.22-23,71-49.3,109.86s-19.55,63.91-49,110.18,15.59,64.36,33.3,12.9,30.89-66.6,49-110.18S470.79,758.72,480.83,719.87Z"/><path class="cls-51" d="M554.29,719.87c-2.82,5.71-34.12,1-36.73-4.08,0,35.34-3.79,107,0,138.75s-17.91,117.24,16.28,118.3,18.57-87.45,20.45-118.3S554.29,754.23,554.29,719.87Z"/><path class="cls-52" d="M782.82,768.84c-17-10.9-33.34,13.87-17.22,25.38S795.1,776.71,782.82,768.84Z"/><path class="cls-53" d="M933.81,813.73c-17.95-7.35-33.22,17.46-15,27.22S950.62,820.58,933.81,813.73Z"/><path class="cls-54" d="M182.93,821.89c-63.21,10.69,9,83.78,20.4,20.4C195.17,837.85,188.07,829.77,182.93,821.89Z"/><path class="cls-55" d="M856.27,907.59c-8.52-3.8-16.32,10.53-6.93,14.85S863.82,910.93,856.27,907.59Z"/><path class="cls-56" d="M109.47,46.52a28.09,28.09,0,0,0,4.08,0h857c-88.23-19.34-192.41-.28-285.66-4.08s-196.42-3.22-289.74,0S198.27,28.12,109.47,46.52Z"/><path class="cls-57" d="M44.18,111.82c-2.53,91.78,5.88,190.45,4.08,285.66s-3.55,194.37,0,289.74S39,885.39,44.18,977c14,91.7,143.12,57.87,216.29,61.22s194.86.65,273.42,0,202.45,4.93,277.49,0,196,32.85,220.37-53.06c10-66.39-3.43-143.68,0-216.28s.49-155.32,0-228.53,5-152.1,0-224.45,12.57-154.75,0-220.37c-6.49-19.46-27.54-44.8-49-49-35.87-3.92-78.19,8.41-118.34,4.08s-85.54,2.21-126.51,0-85.54,1.51-126.51,0S529.6,52.4,489,50.6s-86.85,3.23-126.51,0-89.41,6.82-126.51,0-94.06,16.82-122.43-4.08a28.09,28.09,0,0,1-4.08,0C75.73,44,47.85,82.23,44.18,111.82M582.86,626c10.52,7.42,24.56,2.73,36.72,4.08,8.33,21.79,13.35,48.68,0,69.37,19.59,26.08,34.49,62.6,47.95,90.8s30.69,70.85,41.51,97.25,54.35,77.94,16.32,97.29-62.19-36.69-72.19-65.91S625.5,851.72,612.36,821s-28.65-71.33-41.75-101.08c-14.44,38.72,5.27,107.28-4.08,146.91s28.53,112.84-24.77,122.14-35-74.48-36.44-114S505,765.08,509.4,724c-29.55,20.77-41.5,65-54.4,104.75S409.83,891.26,406.11,939s-84.39,62.6-73.09,12.61S363.83,883,382,841.35s25.1-74.14,47.18-112,7.63-79.74,23.14-115.62c-24.77-.12-48.32-4-69.7,20.08s-50.65-18-69.17-15.87-56.32,20.32-72,29.75-34.93,51.82-62.52,39.5-41.75-25.59-52-50-5.14-69.62,22.24-77.74,42.32-20,69.58-32.44,41.09-30.41,43.17-58.85,38.81-31.26,54.77-47.26,40.28-23.54,59.17-38.77,42.4-24.73,64.6-37.42S475.41,312.23,490,292.4s43.46-24.08,61.13-40.9,40.23-28.19,60.6-41.42,40.89-27.38,61.82-40.19S709.89,139,730.71,125s48.23-30.24,73.41-22.24,47.26,16.69,65.42,36.6,31.3,31.06,44.89,53,26.44,43.51,32.93,69.09,18.69,56.89,11,83-12.94,50.36-37.75,64.27-49.22,22.65-75.25,26.77S802,463.87,777.8,470,729,492.15,709,503.25s-53.75,19.55-69.38,32.65-79.94-1.43-69.9,17.59,39.91,44.77,13.1,72.52M468.59,144.46c16.65,7.15,6.12,40.08-13.14,29.47s-6.53-37.91,13.14-29.47m-204,73.46c3,1.79,9-1.43,12.24,0,2.61,8.28-6.9,8.41-12.24,8.16-13.35,14.65-40.24,20.81-36.73,49-8.37-25.79-25.91-47.42-53-53.05,25-6.65,47.21-23.83,49-53.05,10.45,17.59,14.32,46.15,40.81,49m93.86,73.46c4.08,4.08-6.57,12.36-10.94,6.77s8.16-9.55,10.94-6.77m-191.8,102c11.63,7,1.59,31.58-13.14,21.3s-.45-29.46,13.14-21.3m750.88,253c-29.14,4.2-49.79,28.53-57.13,57.13-6.7-27.58-28.57-52.19-57.14-57.13,30.28-4,53-27.22,57.14-57.13,3.95,30.28,27.21,53,57.13,57.13m-191.8-53c16.77,25.42-28.49,11.83,0,0M280.87,764.76c14.2-28.94,29.26,16.28,0,0m502,4.08c12.28,7.87-1.14,36.85-17.22,25.38s.24-36.28,17.22-25.38m151,44.89c16.81,6.85,3.27,37-15,27.22s-3-34.57,15-27.22m-750.88,8.16c5.14,7.88,12.24,16,20.4,20.4-11.38,63.38-83.61-9.71-20.4-20.4m673.34,85.7c7.55,3.34,2.45,19.22-6.93,14.85S847.75,903.79,856.27,907.59Z"/><path class="cls-58" d="M982.78,46.52c-3.67-.73-8.49,0-12.24,0h-857c28.37,20.9,85.34-2.69,122.43,4.08s86.84-3.22,126.51,0,85.9-1.79,126.51,0,81.45-1.51,122.42,0,85.54-2.2,126.51,0,86.35-4.32,126.51,0S946.91,42.6,982.78,46.52Z"/><path class="cls-59" d="M1031.75,985.12c18.81-66.39-.49-148.62,4.08-220.36s.66-152.1,0-224.45,6.33-153.16,0-224.45,18.16-153.69-4.08-220.37c12.57,65.62-5,148,0,220.37s-.49,151.24,0,224.45,3.43,155.93,0,228.53S1041.75,918.73,1031.75,985.12Z"/><path class="cls-60" d="M582.86,626c26.81-27.75-3.11-53.5-13.1-72.52s54.31-4.45,69.9-17.59,49.42-21.55,69.38-32.65S753.6,476.12,777.8,470s41.54-30.33,67.58-34.45,50.44-12.85,75.25-26.77,30.08-38.11,37.75-64.27-4.53-57.42-11-83-19.3-47.13-32.93-69.09-26.73-33.13-44.89-53-40.24-28.65-65.42-36.6S751.52,111,730.71,125s-36.2,32.07-57.14,44.89-41.42,27-61.82,40.19-42.93,24.61-60.6,41.42S504.63,272.56,490,292.4s-27.47,39.66-49.67,52.35-45.75,22.16-64.6,37.42-43.26,22.74-59.17,38.77-52.69,18.82-54.77,47.26-15.95,46.4-43.17,58.85-42.2,24.32-69.58,32.44-32.57,53.38-22.24,77.74,24.44,37.67,52,50,46.81-30.08,62.52-39.5S294.91,620,313.4,618s47.78,39.95,69.17,15.87,44.93-20.2,69.7-20.08c-15.51,35.88-1.06,77.74-23.14,115.62s-29.06,70.39-47.18,112S344.33,901.59,333,951.58s69.42,35.14,73.09-12.61,36-70.52,48.89-110.27,24.85-84,54.4-104.75c-4.37,41.13-5.55,111.49-4.08,151s-16.9,123.24,36.44,114,15.43-82.52,24.77-122.14-10.36-108.19,4.08-146.91c13.1,29.75,28.61,70.35,41.75,101.08s30.81,68.72,40.81,97.94,34.12,85.25,72.19,65.91-5.51-70.93-16.32-97.29-28-69.09-41.51-97.25-28.36-64.72-47.95-90.8c13.35-20.69,8.33-47.58,0-69.37-12.16-1.35-26.2,3.34-36.72-4.08M893,401.56c-59.21,29.3-106.1-14.41-138.75-69.38-23.75-40-46.52-90.67-44.89-138.75C713,86,852.93,110.51,892,182.21s96.51,172.13,1,219.35M701.2,189.35c.9,10.82-.73,21.84,0,32.65,2.86,42,23.51,92.64,49,126.51,22,29.22,49.34,62.8,85.7,73.45-49.34,39.34-110.31,44.73-163.32,81.54s-114.87,22.85-146.83-40.73C487,404,463.49,314.51,532.86,278.11S634.23,207.92,697.12,169c7.14,3.39,2.69,14,4.08,20.4M513.48,470.93c14.57,21,42.89,37.34,53,61.22-12.61-.78-20.69,9.87-32.64,12.24-15.76-21.43-26.65-54.56-57.14-57.13-27.05,14.28-78.84,27.91-73.45,69.37,3.71,12.2,14.44,28,24.48,36.73-2.24,4.12-8.08,5.88-12.24,8.16-56.85,40.24-92.6,15.1-125.57-41.75s-7.83-109.2,48.36-133.4,79-64.19,134.34-86c-2.32,48.11,19.18,89.77,40.81,130.58m-20.4,40.81c32,27.3,38.64,66.28-.94,88.84s-82.4-32.4-68.44-64.35c10.41-23.79,42.85-24,61.21-36.73,1.23,5.1,7.47,7,8.17,12.24M264.55,536.23c3.91,8.49,7.75,19.26,12.24,28.56,6.45,13.35,19.1,26.41,24.49,40.81-35.06,13.31-81.17,61-106.11,8.16-3.43-6.44-8-21-8.16-28.56-.73-34.16,54.52-51.5,77.54-65.3v16.33m297.9,65.29c-5.79-12-20.61-13.1-32.65-12.24,3.27-10.24,5.23-21.18,4.09-32.65,36.19-9.3,47.54,25.55,41.7,49.87s-58.52,41.38-71.45,16.61,48.72-24.73,58.31-21.59m-387.68-8.16c5.55,11.71,8.77,25.46,16.32,36.73,6.25,9.26,16,19.95,28.57,20.4-12.41,37.26-60.15,22.61-73.46-8.16-3.51-6.45-7.26-17.34-8.16-24.48-2.94-10.94-5.18-17.47,0-28.57,2.45-9.55,16.49-17.43,24.49-20.41,4.61-2.36,7.46-13.1,16.32-8.16-2.29,10.29,4.86,25.71-4.08,32.65M615.5,654.57c10.94,35.06-28.56,30.41-53,28.57s-60.4,3.06-85.7,0c-6.69-.82-13.67.61-20.4,0-16.53-46.93,34.16-45.09,65.29-40.81s75-12.45,93.86,12.24m-134.67,65.3c-10,38.85-22.44,62.8-40.48,106.43s-31.3,58.68-49,110.18-62.68,33.42-33.3-12.9,22.73-71.29,49-110.18,20.61-76.64,49.3-109.86c11.22-13,28.28-7,44.89-8.16,2.77,22.16-26.41,12.69-20.41,24.49m73.46-20.41c2.16,4.21,0,15.59,0,20.41,0,34.36,1.88,103.81,0,134.67s13.75,119.4-20.45,118.3-12.48-86.6-16.28-118.3,0-103.41,0-138.75c0-4-1.67-12.82,0-16.33,3.39-7.14,33.26-6.77,36.73,0m28.57,20.41c-4.09-8.33-12.7-14.33-12.25-24.49h32.65c24.85,9.63,21.38,50.89,38,72.23s17.35,53.79,35.14,79.09,13.3,49.62,36.12,78.15-3,66.56-24.78,32.93-21-48.32-35.42-78.84-22.4-50-35.87-78.39S596.36,747.45,582.86,719.87Z"/><path class="cls-61" d="M44.18,977C39,885.39,51.81,782.59,48.26,687.22s-1.79-194.49,0-289.74S41.65,203.6,44.18,111.82c-11.67,94.06,2.82,194.94,0,289.74s-4.12,195.35,0,289.74S30,884.08,44.18,977Z"/><path class="cls-62" d="M709.36,193.43c.41,1.55,5.84,7.47,8.16,8.17-.44-11.43,12-16.41,20.41-20.41-1.84,51.62,24.73,94.27,44.89,138.75C802.16,352.51,852,402.46,893,401.56c95.49-47.22,38-147.65-1-219.35S713,86,709.36,193.43m216.29,102c2.57,14.32,3.55,26.52,0,40.8-14.86,60-76.64,43-109.16-1s-53-77.12-58.16-137.73,64.69-74.23,99-29.58S921.85,239.43,925.65,295.46Z"/><path class="cls-63" d="M925.65,336.26c1.59-12.73.86-28,0-40.8-3.8-56-34.08-82.89-68.36-127.53s-104.14-31-99,29.58S784,291.25,816.49,335.24s94.3,61.05,109.16,1m-57.13,24.49c-26.08-4.37-36.69-31.26-49-49-23.59-34-69.5-86.8-45.18-135s86.47,28.08,101.37,54.28S933,371.48,868.52,360.75Z"/><path class="cls-64" d="M468.59,144.46c-19.67-8.44-32.4,18.82-13.14,29.47S485.24,151.61,468.59,144.46Z"/><path class="cls-65" d="M819.55,311.78c15.87-1.59,21.3-58.72,24.48-69.38-9-4.36-14.89,16.94-20.4,8.17-19.79.65-58.16-21.14-43.55-51.71s40.16,1.51,51.71,19.06c6.85,10.41,20.69,22.53,28.24,37.05s7.55,42,13.91,55.46-10.32,47.46-5.42,50.32C933,371.48,890.64,257.3,875.74,231.1s-77.09-102.43-101.37-54.28S796,277.74,819.55,311.78Z"/><path class="cls-66" d="M264.55,226.08c1-1.1,1-7.3,0-8.16-26.49-2.82-30.36-31.38-40.81-49-1.76,29.22-23.92,46.4-49,53.05,27.14,5.63,44.68,27.26,53,53.05C224.31,246.89,251.2,240.73,264.55,226.08Z"/><path class="cls-67" d="M525.72,462.77C546.41,475.42,579.1,439.67,602,433s49.18-31.34,73.5-40.81,52.52-30.69,74.68-43.66C724.71,314.64,704.06,264,701.2,222c-1.92-10.65-.2-23.1,0-32.65-1.39-6.36,3.06-17-4.08-20.4-62.89,39-94.88,72.76-164.26,109.16S487,404,525.72,462.77Z"/><path class="cls-68" d="M709.36,193.43c-1.63,48.08,21.14,98.72,44.89,138.75,9.88,2.9,19.67-13.67,28.57-12.24-20.16-44.48-46.73-87.13-44.89-138.75-8.41,4-20.85,9-20.41,20.41C715.2,200.9,709.77,195,709.36,193.43Z"/><path class="cls-69" d="M823.63,250.57c9.67-4.45,9.38-24.16,8.16-32.65-11.55-17.55-37.06-49.62-51.71-19.06S803.84,251.22,823.63,250.57Z"/><path class="cls-70" d="M701.2,222c-.73-10.81.9-21.83,0-32.65C701,198.9,699.28,211.35,701.2,222Z"/><path class="cls-71" d="M264.55,226.08c5.34.25,14.85.12,12.24-8.16-3.22-1.43-9.22,1.79-12.24,0C265.57,218.78,265.57,225,264.55,226.08Z"/><path class="cls-72" d="M823.63,250.57c5.51,8.77,11.42-12.53,20.4-8.17-3.18,10.66-8.61,67.79-24.48,69.38,12.28,17.71,22.89,44.6,49,49-4.9-2.86,11.79-36.81,5.42-50.32s-6.32-41-13.91-55.46-21.39-26.64-28.24-37.05C833,226.41,833.3,246.12,823.63,250.57Z"/><path class="cls-73" d="M358.41,291.38c-2.78-2.78-15.31,1.18-10.94,6.77S362.49,295.46,358.41,291.38Z"/><path class="cls-74" d="M925.65,336.26c3.55-14.28,2.57-26.48,0-40.8C926.51,308.27,927.24,323.53,925.65,336.26Z"/><path class="cls-75" d="M754.25,332.18c32.65,55,79.54,98.68,138.75,69.38-41,.9-90.84-49.05-110.18-81.62C773.92,318.51,764.13,335.08,754.25,332.18Z"/><path class="cls-76" d="M415.54,601.52c-32.65,12.73-93.9,27.75-106.1-28.56,32.4-14.65,61.86-33.67,93.86-49,4.36,11-11.47,24.56,0,32.64-5.39-41.46,46.4-55.09,73.45-69.37,11.76-6.21,22.16-22.61,36.73-16.33-21.63-40.81-43.13-82.47-40.81-130.58-55.33,21.83-78.15,61.82-134.34,86S257,502.93,290,559.77,358.69,641.76,415.54,601.52Z"/><path class="cls-77" d="M525.72,462.77c32,63.58,93.78,77.5,146.83,40.73s114-42.2,163.32-81.54c-36.36-10.65-63.74-44.23-85.7-73.45-22.16,13-50.4,34.15-74.68,43.66S624.93,426.25,602,433,546.41,475.42,525.72,462.77Z"/><path class="cls-78" d="M166.61,393.4c-13.59-8.16-27.92,11-13.14,21.3S178.24,400.38,166.61,393.4Z"/><path class="cls-79" d="M476.75,487.26c30.49,2.57,41.38,35.7,57.14,57.13,12-2.37,20-13,32.64-12.24-10.16-23.88-38.48-40.2-53-61.22C498.91,464.65,488.51,481.05,476.75,487.26Z"/><path class="cls-80" d="M423.7,536.23c19-2.86,44.28-35,69.38-24.49-.7-5.26-6.94-7.14-8.17-12.24C466.55,512.19,434.11,512.44,423.7,536.23Z"/><path class="cls-81" d="M423.7,536.23c-14,31.95,28.85,86.92,68.44,64.35s33-61.54.94-88.84c-25.1-10.53-50.4,21.63-69.38,24.49m57.13,0c25,12.2-1.42,55.66-25.38,37.62S458.27,525.21,480.83,536.23Z"/><path class="cls-82" d="M187,585.2c4.53,8.65,29.87-13.26,37.75-19.39s37.95-18,39.79-29.58V519.9C241.53,533.7,186.28,551,187,585.2Z"/><path class="cls-83" d="M415.54,601.52c4.16-2.28,10-4,12.24-8.16-10-8.69-20.77-24.53-24.48-36.73-11.47-8.08,4.36-21.59,0-32.64-32,15.3-61.46,34.32-93.86,49C321.64,629.27,382.89,614.25,415.54,601.52Z"/><path class="cls-84" d="M187,585.2c.16,7.55,4.73,22.12,8.16,28.56,16.82-14.81,77.42-24.28,81.62-49-4.49-9.3-8.33-20.07-12.24-28.56-1.84,11.59-32,23.46-39.79,29.58S191.54,593.85,187,585.2Z"/><path class="cls-85" d="M480.83,536.23c-22.56-11-49.33,19.63-25.38,37.62s50.36-25.42,25.38-37.62m-4.08,8.16c10.53,5.75-.61,29.87-13.18,21.26S462.59,536.64,476.75,544.39Z"/><path class="cls-86" d="M476.75,544.39C462.59,536.64,451,557,463.57,565.65S487.28,550.14,476.75,544.39Z"/><path class="cls-87" d="M562.45,601.52c-9.59-3.14-71.29-3.14-58.31,21.59s65.62,7.71,71.45-16.61-5.51-59.17-41.7-49.87c1.14,11.47-.82,22.41-4.09,32.65C541.84,588.42,556.66,589.56,562.45,601.52Z"/><path class="cls-88" d="M162.53,568.87c5.34-2,8.36-6.73,12.24,0,.85,1.47.69,24.16,0,24.49,8.94-6.94,1.79-22.36,4.08-32.65C170,555.77,167.14,566.51,162.53,568.87Z"/><path class="cls-89" d="M162.53,568.87c-8,3-22,10.86-24.49,20.41-.9,3.47,0,8.65,0,12.24-.73,1,11.71-3.75,12.24-4.08-2.61,4.08-11.22-4.9-8.16-8.16,10.9,7.75,23-22.24,24.49-4.08,1.59-.86,4.08,0,4.08,0,.61-5.27-2.74-14.24,4.08-16.33C170.89,562.14,167.87,566.88,162.53,568.87Z"/><path class="cls-90" d="M195.17,613.76c24.94,52.89,71.05,5.15,106.11-8.16-5.39-14.4-18-27.46-24.49-40.81C272.59,589.48,212,599,195.17,613.76Z"/><path class="cls-91" d="M170.69,585.2c-.9-1.14,4.45,8.94,4.08,8.16.69-.33.85-23,0-24.49C168,571,171.3,579.93,170.69,585.2Z"/><path class="cls-92" d="M150.28,597.44c6-3.55,10.29-9.1,16.33-12.24C165.14,567,153,597,142.12,589.28,139.06,592.54,147.67,601.52,150.28,597.44Z"/><path class="cls-93" d="M150.28,597.44c-.53.33-13,5.06-12.24,4.08,0,5.31-.65,11.1,0,16.33.9,7.14,4.65,18,8.16,24.48,8.69,7.14,23.79-8.69,28.57-16.32,7-4.33,12.53,13,16.32,4.08-7.55-11.27-10.77-25-16.32-36.73.37.78-5-9.3-4.08-8.16,0,0-2.49-.86-4.08,0C160.57,588.34,156.32,593.89,150.28,597.44Z"/><path class="cls-94" d="M138,617.85c-.65-5.23,0-11,0-16.33,0-3.59-.9-8.77,0-12.24C132.86,600.38,135.1,606.91,138,617.85Z"/><path class="cls-95" d="M917.49,646.41c-29.92-4.12-53.18-26.85-57.13-57.13-4.13,29.91-26.86,53.17-57.14,57.13,28.57,4.94,50.44,29.55,57.14,57.13C867.7,674.94,888.35,650.61,917.49,646.41Z"/><path class="cls-96" d="M146.2,642.33c13.31,30.77,61.05,45.42,73.46,8.16-12.57-.45-22.32-11.14-28.57-20.4-3.79,8.89-9.34-8.41-16.32-4.08C170,633.64,154.89,649.47,146.2,642.33Z"/><path class="cls-97" d="M476.75,683.14c6.37,1.63-7.38-18.12-16.32-8.16-8.61-41.55,94-34,77.54,4.08,8.81-6,8.65-18.41,8.16-28.57,25,3,73.37-13.75,61.21,28.57,9.67-4.21-1.88-20.57,8.16-24.49-18.89-24.69-62.72-8-93.86-12.24s-81.82-6.12-65.29,40.81C463.08,683.75,470.06,682.32,476.75,683.14Z"/><path class="cls-98" d="M476.75,683.14c25.3,3.06,61.22-1.84,85.7,0s64,6.49,53-28.57c-10,3.92,1.51,20.28-8.16,24.49,12.16-42.32-36.2-25.55-61.21-28.57.49,10.16.65,22.57-8.16,28.57,16.48-38.08-86.15-45.63-77.54-4.08C469.37,665,483.12,684.77,476.75,683.14Z"/><path class="cls-99" d="M456.35,703.54c11.22-1.14,15,13.47,24.48,16.33-6-11.8,23.18-2.33,20.41-24.49C484.63,696.52,467.57,690.53,456.35,703.54Z"/><path class="cls-100" d="M517.56,699.46c-6.45,11.76,20.73,19.22,28.57,20.41,3.26-8.12-2.9-20.94,8.16-20.41C550.82,692.69,521,692.32,517.56,699.46Z"/><path class="cls-101" d="M582.86,719.87c8.08-6.29,20-13.31,20.4-24.49H570.61C570.16,705.54,578.77,711.54,582.86,719.87Z"/><path class="cls-102" d="M582.86,719.87c13.5,27.58,20.11,52.31,33.58,80.68s21.47,47.82,35.87,78.39,13.59,45.26,35.42,78.84,47.59-4.41,24.78-32.93S694.22,872,676.39,846.7s-18.57-57.78-35.14-79.09-13.14-62.6-38-72.23C602.89,706.56,590.94,713.58,582.86,719.87Z"/><path class="cls-103" d="M517.56,715.79c2.61,5.1,33.91,9.79,36.73,4.08,0-4.82,2.16-16.2,0-20.41-11.06-.53-4.9,12.29-8.16,20.41-7.84-1.19-35-8.65-28.57-20.41C515.89,703,517.56,711.83,517.56,715.79Z"/><path class="cls-104" d="M480.83,719.87c-9.5-2.86-13.26-17.47-24.48-16.33-28.69,33.22-23,71-49.3,109.86s-19.55,63.91-49,110.18,15.59,64.36,33.3,12.9,30.89-66.6,49-110.18S470.79,758.72,480.83,719.87Z"/><path class="cls-105" d="M554.29,719.87c-2.82,5.71-34.12,1-36.73-4.08,0,35.34-3.79,107,0,138.75s-17.91,117.24,16.28,118.3,18.57-87.45,20.45-118.3S554.29,754.23,554.29,719.87Z"/><path class="cls-106" d="M782.82,768.84c-17-10.9-33.34,13.87-17.22,25.38S795.1,776.71,782.82,768.84Z"/><path class="cls-107" d="M933.81,813.73c-17.95-7.35-33.22,17.46-15,27.22S950.62,820.58,933.81,813.73Z"/><path class="cls-108" d="M182.93,821.89c-63.21,10.69,9,83.78,20.4,20.4C195.17,837.85,188.07,829.77,182.93,821.89Z"/><path class="cls-109" d="M856.27,907.59c-8.52-3.8-16.32,10.53-6.93,14.85S863.82,910.93,856.27,907.59Z"/></svg>